<?xml version="1.0" encoding="utf-8"?>
<!-- Generator: Adobe Illustrator 19.1.0, SVG Export Plug-In . SVG Version: 6.00 Build 0)  -->
<svg version="1.1" id="Layer_1" xmlns="http://www.w3.org/2000/svg" xmlns:xlink="http://www.w3.org/1999/xlink" x="0px" y="0px"
	 viewBox="0 0 938.3 938.4" style="enable-background:new 0 0 938.3 938.4;" xml:space="preserve">
<path style="fill:none;" d="M181.9,509.6c-0.9-9-5.5-15.4-13.9-18.6c-4.3-1.6-9.1-2.2-13.7-3.2c-7.6,0.8-14.7,2.1-21.3,6
	c-5.3,3.2-8.7,7.8-9.7,13.9c-2.1,11.5,4.6,22.8,15.7,26.4c11.3,3.8,22.1,1.5,32.2-4.2C179,525.7,182.8,518.8,181.9,509.6z"/>
<path style="fill:none;" d="M725.1,469.6c-0.2-141.5-114.9-256.4-255.9-256.3c-141.3,0-255.9,115.1-255.8,256.8
	c0.1,140.6,115.5,255.2,256.7,255C610.1,724.9,725.3,609.6,725.1,469.6L725.1,469.6z M651.5,524.3c-40.2-0.2-80.4-0.1-120.5-0.1
	c-7.4,0-6.9-1-6.9,6.7c0,40.3-0.1,80.6,0.1,121c0,4-1.2,5-5,4.9c-33.4-0.1-66.7-0.1-100.1-0.1h-4.5c-0.1-2.1-0.3-3.9-0.3-5.8
	c0-40.5,0-80.9,0-121.4c0-5.4,0-5.4-5.3-5.4c-40.7,0-81.4,0-122.2,0.1c-3.8,0-5.2-0.8-5.1-4.9c0.2-33.4,0.1-66.7,0.1-100.1
	c0-1.5,0-2.9,0-4.8c1.8-0.1,3.3-0.2,4.7-0.2h121.8c6,0,6.1,0,6.1-6.3c0-40.3,0-80.6,0-121c0-1.5,0-3.1,0-5h109.9c0,1.9,0,3.4,0,5
	c0,40.5,0,80.9,0,121.4c0,5.8,0,5.8,5.7,5.8h126.6c0.1,1.8,0.2,3.3,0.2,4.7c0,33.4-0.1,66.7,0.1,100.1
	C656.7,523.2,655.7,524.4,651.5,524.3z"/>
<polygon style="fill:none;" points="765.5,561.4 801.5,561.4 801.8,560.1 772.1,539.2 "/>
<path style="fill:none;" d="M749.7,396c3.1,9.5,11,14.7,22.5,14.7c11,0,22.1-4.3,28.7-11.6c6-6.5,7.8-14.1,4.9-22.6
	c-2.9-8.5-9-13.5-17.8-14.8c-10.9-1.6-20.7,1.5-29.4,8C749.6,376.4,746.5,386.1,749.7,396z"/>
<path style="fill:none;" d="M579.2,152.9c2.3-7.5,0.4-13.3-6.1-15.5c-7.8-2.7-15.8-4.7-24.1-7.1l-7.3,24.3
	c8.5,2.3,16.3,4.6,24.2,6.4C572.7,162.7,577,159.8,579.2,152.9z"/>
<polygon style="fill:none;" points="714.8,226.8 714.2,226.3 682.1,242.9 699.9,258.7 "/>
<path style="fill:none;" d="M470.2,844.1c205.5-0.3,374-169.2,373.8-374.6C843.7,262,675.2,93.9,467.9,94.4
	C262.2,94.9,94,263.6,94.4,469.1C94.8,676.4,263.1,844.4,470.2,844.1z M296.2,783.7c-10-1.5-6.5-8.4-5.7-14.1
	c-0.5-0.1-1-0.2-1.5-0.2c-21.8,6-41.9-15.4-40-37.3c1.5-18.1,15.9-35.9,32.8-39.5c18.5-4,40.7,10.3,44.3,28.6
	c1.2,6,0.1,11.5-2.9,17.2l-10.8-6.2c3-16.1-6.9-29-21.8-28.7c-18.6,0.3-35.5,28-26.8,44.4c4.2,7.9,11.2,12.2,20,12.8
	c7.7,0.5,13.4-3.4,18.1-9.7l-17.7-11.4l5.5-8.2l27.3,17.2c-0.5,1-0.8,1.8-1.2,2.5C309.2,762,302.6,772.9,296.2,783.7z M378.1,768.8
	l-2.7,10.4l-34.8-13.3l-7.9,22.4l38.7,14.6l-2.9,11.1l-52.2-19.4l26.8-74.4c7.9,3.1,15.4,6,23,9c7.4,2.9,14.6,5.9,22,8.7
	c2.5,0.9,3.6,2,2.5,4.7c-0.8,2.4-1.5,4.9-2.1,7.4L351.3,735l-7.2,20.6L378.1,768.8z M459.5,828.3c-4.6-0.2-9-0.2-13.2-0.8
	c-1-0.1-2.1-1.9-2.7-3.1c-9-18-18-36.1-26.9-54.1c-0.7-1.7-1.8-3.3-3.2-4.5l-10.2,56.5l-12.8-2.6l13.3-77.5
	c4.4,0.9,8.7,1.5,12.8,2.7c1.1,0.3,1.9,2.1,2.6,3.4c9.1,18.1,18.1,36.3,27.1,54.5c0.5,1.1,1.1,2.1,1.6,3.2l0.9-0.2l2.5-56.1h12
	L459.5,828.3z M464.6,733.8c-144.7-2.5-261.3-122.1-260-267c1.3-145.2,121.2-264.2,268.4-262.1c144.6,2.1,262.4,121.8,260.6,268
	C731.9,617.5,611.8,736.3,464.6,733.8z M486.2,828.4l-9-78.7l50.9-6.1l2.3,11.3l-39.9,4.2l2.3,21.5l35.8-4.2l2.2,10.6l-36.1,4.4
	l2.8,23.8l41.3-4.6l2.4,11.1L486.2,828.4z M588.3,808.9c-1.1,0.3-3.2-0.9-4-2c-14.2-17.9-28.4-35.9-42.5-53.9
	c-2.6-3.3-5.2-6.6-8.1-10.4c4.1-1.2,7.7-2.5,11.3-3.2c1.1-0.2,2.8,1.1,3.7,2.2c12.2,15.7,24.4,31.4,36.5,47.2
	c0.7,0.8,1.4,1.6,2.8,3.3c-1.4-21.6-2.7-42.1-4.3-62.6c-0.2-3.1,0.3-4.8,3.3-5.8c2.7-0.9,5.2-2.2,8.6-3.8l4.7,84.8
	C596.2,806.2,592.3,807.9,588.3,808.9z M645.3,783.2l-44-66.1l45.3-30.9l6.5,9.6l-34.3,23.7l11.7,18.1l31.4-22.2l6.1,9.1l-31.4,22.3
	l13.1,19.4l34.6-24l6.6,9.6L645.3,783.2z M788.3,633.8L729.3,601l-19,34.3l-10.1-5.5l25.5-46.1l69.1,38.5L788.3,633.8z M816.2,561.4
	c-3,9.9-2.9,10-13.2,10.7c-23.3,1.6-46.7,3.2-70,4.8c-1.3,0.1-2.7,0-4.5,0c1.4-3.9,2.6-7.7,4.1-11.3c0.4-0.9,2-1.7,3.1-1.8
	c5.1-0.5,10.3-0.8,15.5-0.9c2.4-0.1,3.6-0.8,4.3-3.3c2.2-8,4.5-16,7-23.9c0.8-2.6,0-3.6-2-4.8c-4.2-2.5-8.2-5.4-12.4-7.9
	c-2.1-1.3-3.1-2.6-2.5-5.2c0.8-3.1,1-6.4,1.6-10c1.3,0.8,2.3,1.2,3.1,1.8c21.2,15.3,42.4,30.5,63.6,45.8
	C816.1,557,817.1,558.4,816.2,561.4z M827.8,448.6c0,1.2-1.7,2.6-2.9,3.4c-17.3,11.3-34.7,22.5-52.1,33.7c-1.4,0.8-2.6,2-3.5,3.4
	l58.1,4l-1.3,14.4l-77.8-6.5c0.2-4.6,0.3-8.9,0.8-13.1c0.1-1.1,1.7-2.3,2.9-3.1c16.6-11.1,33.3-22.2,50-33.2c1.3-0.7,2.3-1.8,3-3.1
	l-56.1,3l-0.7-12.7l78.8-4C827.3,439.7,827.8,444.1,827.8,448.6z M817.9,381.3c1.4,14-4.6,24.9-15.7,33c-8.4,6.1-18,8.8-24.9,8.9
	c-19.7,0-32-7.8-37.2-21.6c-5.8-15.4-2-31.3,10.7-41.8c13.5-11,28.8-15.8,45.7-8.9C809.8,356.3,816.5,367.3,817.9,381.3z
	 M796.4,320.9l-71.2,33.8l-5.7-12.1l71.2-33.7L796.4,320.9z M740.3,252.4l9.1-7.1l34.7,51.5l-9.8,5.8l-14-20.3l-55,36.7l-7.3-11.2
	L753,271L740.3,252.4z M721.6,214.1c7.6,7.5,7.7,7.4,3.5,17c-9.6,22.2-19.3,44.4-28.9,66.7c-0.5,1.2-1.1,2.4-2,4.2
	c-2.9-3.5-5.5-6.6-7.8-9.9c-0.5-0.7-0.3-2.3,0.1-3.3c2.3-5.4,4.6-10.8,7.1-16.1c1-2.1,1.1-3.5-0.8-5.3c-6.1-5.9-11.9-11.9-17.8-18
	c-1.6-1.6-2.8-1.6-4.6-0.6c-4.8,2.6-9.6,5.2-14.5,7.5c-1.5,0.5-3.2,0.4-4.5-0.5c-2.9-2-5.4-4.4-8.6-7.1l15.6-7.7
	c18.9-9.3,37.9-18.5,56.8-27.9C717.8,212,719.4,212,721.6,214.1z M634,150.1c0.9,0.5,1.4,2.5,1.5,3.8c1.2,20.1,2.3,40.2,3.5,60.3
	c0.1,1.7,0.3,3.4,0.6,6.4l31.4-48.8l10.6,8.4l-42.2,66.1c-3.4-2.5-6.6-4.6-9.4-7.1c-1.1-1-1.6-3-1.8-4.6c-1.4-20.6-2.6-41.3-4-61.9
	c0-0.8-0.2-1.5-0.2-2.3l-0.8-0.1l-26,49l-11.7-5.5l36.9-69.5C626.4,146.2,630.3,147.9,634,150.1z M539.1,116.3
	c8.2,2.3,16,4.3,23.8,6.6c6.3,1.8,12.7,3.3,18.6,6c15,6.9,16.7,28,3.4,37.4c-2.3,1.6-5.1,2.5-7.9,3.7c7.2,5.1,6,12.2,4.4,19.6
	c-1.4,6.7-2.2,13.6-3.4,20.8c-3.1-1.3-6.7-2.6-10.1-4.2c-1.1-0.7-1.8-1.8-2-3c-0.1-1.9,0-3.8,0.4-5.7c0.5-2.4,1.2-4.7,1.8-7.1
	c3.4-13.5,0.9-17.8-12.4-21.4l-17-4.6l-8.9,30.9l-12.2-2.7L539.1,116.3z M455.7,110.1l54.8,2.2v11.5l-41.5-2v21.6H507v11h-38.8v23.3
	l41.8,1.8v11.4l-56.1-2L455.7,110.1z M439.8,111l1.2,12.1l-24,4.3l10.1,64l-13.1,2.2l-10.2-63.9l-23.1,3.7l-3.2-11.8L439.8,111z
	 M318.3,143.3c0.9-0.4,2.7,0.6,3.8,1.5c15.7,12.2,31.4,24.4,47,36.7c1.1,1,2.5,1.6,3.9,1.9l-17.1-55.2l12.6-3.7l23.9,74.7
	c-4.4,1.3-8.5,2.7-12.7,3.6c-1,0.2-2.5-0.9-3.5-1.7c-15.6-11.9-31.1-23.8-46.7-35.7c-0.8-0.7-1.9-1.2-3-1.3l22.5,51.5L338,221
	l-31.6-71.8C310.5,147.1,314.3,144.9,318.3,143.3z M285.8,160.5l41.4,66.8l-11.4,7l-41.4-66.8L285.8,160.5z M215.2,215.1l8.2,8.7
	L196.2,255l15.5,14.1l25.5-29.8l7.1,8.1l-23.9,29.4l17.8,15.7l27.3-32.7l8.2,8l-35.8,42.3l-58.7-52.2L215.2,215.1z M170.1,270.9
	l9.6,6l-11.9,22.1l56,35l-6.3,11.7l-56.3-35l-11.5,21.7l-10.7-4.7L170.1,270.9z M134.2,340.4l73.8,27.5l-4.6,12.6L129.6,353
	L134.2,340.4z M111.1,442.9c0-0.9,2.1-2.2,3.3-2.5c19.4-4.4,38.8-8.7,58.2-13c0.5-0.1,0.9-0.3,2.4-0.7L118.2,393l3.7-18l77.6,15.3
	l-2.9,11.9L138,390.9l-0.3,0.7l21.6,12.9c9.9,5.9,19.8,12,29.8,17.7c4.9,2.8,1.8,6.7,2.1,10.1c0.3,3.2-2.3,3.2-4.3,3.7
	c-17.4,4.4-34.9,8.7-52.3,13.1c-0.8,0.2-1.5,0.7-1.9,1.4l56.2,5.2l-0.7,12.1l-77.4-6C111,455.1,110.8,449,111.1,442.9z M113.3,501.9
	c3.9-13.6,13.9-21.1,27.1-24.5c9.3-2.4,19.1-2,28.2,1c14.6,4.7,22.5,15.1,24.1,30.2c1.5,15.1-4.5,26.5-17.5,34.1
	c-7.4,4.4-15.9,6.6-24.6,6.5C124.5,549.2,106.4,526.4,113.3,501.9z M149.8,623c-15.2-10.3-20.9-29.7-13.3-44.8
	c2.8-5.5,7.3-10.1,12.8-12.9c1.3,3.8,2.5,7.3,3.4,10.8c0.2,1.1-0.1,2.3-0.8,3.1c-8.8,8.2-8.2,17.5-4.4,24.8
	c4.7,8.9,13.4,13.8,23.6,12.7c10.4-1,20.1-6,27-13.8c6.4-7,7.2-15.2,2.8-23.4c-4.1-7.7-12.6-12-21.3-10.6c-1.6,0.2-3.2,0.5-5.1,0.8
	l-4-11.1c13.5-6.5,31.7,0.3,39.6,14.6c8.1,14.7,5.6,30.9-6.5,42.6C188.2,630.5,165.5,633.6,149.8,623z"/>
<path style="fill:#0B0D15;" d="M468.9,852.7c211.1,0.3,383.6-172,383.7-383.5S680.5,85.9,468.2,85.7
	C257.6,85.5,85.8,258.3,85.7,470.4C85.5,680.2,258.2,852.5,468.9,852.7z M467.9,94.4c207.2-0.5,375.7,167.6,376,375.1
	c0.3,205.4-168.3,374.3-373.8,374.6c-207.1,0.3-375.4-167.7-375.8-375C94,263.6,262.2,94.9,467.9,94.4z"/>
<path style="fill:#0B0D15;" d="M733.7,472.6c1.8-146.2-116-265.9-260.6-268c-147.3-2.1-267.1,117-268.4,262.1
	c-1.3,144.9,115.3,264.5,260,267C611.8,736.3,731.9,617.5,733.7,472.6z M470,725.1c-141.2,0.2-256.6-114.4-256.7-255
	c-0.1-141.7,114.6-256.8,255.8-256.8c141,0,255.7,114.8,255.9,256.3h0C725.3,609.6,610.1,724.9,470,725.1z"/>
<path style="fill:#0B0D15;" d="M189,455.6l-56.2-5.2c0.4-0.7,1.1-1.2,1.9-1.4c17.4-4.4,34.9-8.7,52.3-13.1c2-0.5,4.6-0.5,4.3-3.7
	c-0.4-3.4,2.8-7.3-2.1-10.1c-10.1-5.7-19.9-11.8-29.8-17.7l-21.6-12.9l0.3-0.7l58.7,11.3l2.9-11.9L121.9,375l-3.7,18l56.7,33.7
	c-1.4,0.4-1.9,0.6-2.4,0.7c-19.4,4.3-38.8,8.6-58.2,13c-1.3,0.3-3.3,1.6-3.3,2.5c-0.3,6.1-0.2,12.2-0.2,18.8l77.4,6L189,455.6z"/>
<path style="fill:#0B0D15;" d="M748.9,451.5l56.1-3c-0.7,1.3-1.8,2.4-3,3.1c-16.7,11-33.4,22.1-50,33.2c-1.2,0.8-2.8,1.9-2.9,3.1
	c-0.5,4.3-0.6,8.6-0.8,13.1l77.8,6.5l1.3-14.4l-58.1-4c0.8-1.4,2-2.6,3.5-3.4c17.4-11.2,34.8-22.4,52.1-33.7
	c1.2-0.8,2.9-2.2,2.9-3.4c0-4.4-0.5-8.9-0.8-13.8l-78.8,4L748.9,451.5z"/>
<path style="fill:#0B0D15;" d="M597.1,219.2l26-49l0.8,0.1c0.1,0.8,0.2,1.5,0.2,2.3c1.3,20.6,2.6,41.3,4,61.9
	c0.1,1.6,0.7,3.6,1.8,4.6c2.8,2.5,6,4.6,9.4,7.1l42.2-66.1l-10.6-8.4l-31.4,48.8c-0.3-3-0.5-4.7-0.6-6.4
	c-1.2-20.1-2.3-40.2-3.5-60.3c-0.1-1.3-0.5-3.2-1.5-3.8c-3.7-2.2-7.6-3.9-11.7-5.9l-36.9,69.5L597.1,219.2z"/>
<path style="fill:#0B0D15;" d="M448.8,805.8l-0.9,0.2c-0.5-1.1-1.1-2.1-1.6-3.2c-9-18.2-18-36.3-27.1-54.5c-0.6-1.3-1.5-3.1-2.6-3.4
	c-4.1-1.2-8.4-1.8-12.8-2.7l-13.3,77.5l12.8,2.6l10.2-56.5c1.4,1.2,2.5,2.8,3.2,4.5c8.9,18.1,17.9,36.1,26.9,54.1
	c0.6,1.2,1.7,3,2.7,3.1c4.2,0.5,8.6,0.5,13.2,0.8l3.7-78.6h-12L448.8,805.8z"/>
<path style="fill:#0B0D15;" d="M349.1,215.6l-22.5-51.5c1.1,0.1,2.1,0.6,3,1.3c15.5,11.9,31.1,23.8,46.7,35.7c1,0.8,2.5,1.9,3.5,1.7
	c4.2-0.9,8.3-2.3,12.7-3.6l-23.9-74.7l-12.6,3.7l17.1,55.2c-1.4-0.3-2.8-1-3.9-1.9c-15.6-12.3-31.3-24.5-47-36.7
	c-1.1-0.8-2.9-1.9-3.8-1.5c-4,1.7-7.7,3.8-11.9,5.9L338,221L349.1,215.6z"/>
<path style="fill:#0B0D15;" d="M538.9,164.4l17,4.6c13.2,3.6,15.8,8,12.4,21.4c-0.6,2.4-1.4,4.7-1.8,7.1c-0.4,1.9-0.6,3.8-0.4,5.7
	c0.2,1.3,0.9,2.4,2,3c3.4,1.7,7,3,10.1,4.2c1.1-7.2,1.9-14,3.4-20.8c1.6-7.4,2.7-14.5-4.4-19.6c2.8-1.3,5.6-2.1,7.9-3.7
	c13.4-9.5,11.6-30.5-3.4-37.4c-5.9-2.7-12.3-4.2-18.6-6c-7.8-2.3-15.7-4.3-23.8-6.6l-21.1,76.2l12.2,2.7L538.9,164.4z M549,130.3
	c8.3,2.4,16.3,4.3,24.1,7.1c6.5,2.3,8.4,8,6.1,15.5c-2.1,6.9-6.4,9.8-13.2,8.2c-7.9-1.8-15.7-4.1-24.2-6.4L549,130.3z"/>
<path style="fill:#0B0D15;" d="M289.7,731.3l-5.5,8.2l17.7,11.4c-4.7,6.3-10.4,10.3-18.1,9.7c-8.9-0.6-15.9-4.9-20-12.8
	c-8.6-16.4,8.2-44.2,26.8-44.4c14.9-0.2,24.8,12.7,21.8,28.7l10.8,6.2c3-5.6,4.1-11.2,2.9-17.2c-3.7-18.3-25.8-32.6-44.3-28.6
	c-16.9,3.6-31.3,21.4-32.8,39.5c-1.9,21.9,18.2,43.3,40,37.3c0.5,0,1,0.1,1.5,0.2c-0.8,5.7-4.3,12.6,5.7,14.1
	c6.5-10.8,13.1-21.7,19.6-32.7c0.4-0.7,0.7-1.4,1.2-2.5L289.7,731.3z"/>
<path style="fill:#0B0D15;" d="M750.8,359.8c-12.8,10.5-16.5,26.4-10.7,41.8c5.2,13.8,17.5,21.6,37.2,21.6
	c6.9-0.1,16.5-2.7,24.9-8.9c11.1-8.1,17.1-19,15.7-33c-1.4-14-8.1-25-21.4-30.4C779.6,344.1,764.3,348.8,750.8,359.8z M788,361.7
	c8.8,1.3,14.8,6.3,17.8,14.8c2.9,8.5,1.1,16.1-4.9,22.6c-6.6,7.2-17.7,11.6-28.7,11.6c-11.5,0-19.4-5.2-22.5-14.7
	c-3.3-9.9-0.1-19.6,8.8-26.3C767.3,363.2,777,360.1,788,361.7z"/>
<path style="fill:#0B0D15;" d="M175.2,542.8c13-7.7,19-19,17.5-34.1c-1.5-15.1-9.4-25.5-24.1-30.2c-9.1-3-18.9-3.3-28.2-1
	c-13.2,3.3-23.2,10.8-27.1,24.5c-6.9,24.5,11.2,47.3,37.3,47.4C159.3,549.4,167.7,547.1,175.2,542.8z M139,534.3
	c-11.1-3.6-17.8-14.9-15.7-26.4c1-6.1,4.4-10.7,9.7-13.9c6.5-3.9,13.6-5.2,21.3-6c4.6,1,9.4,1.6,13.7,3.2c8.4,3.2,13,9.6,13.9,18.6
	c0.9,9.1-2.9,16-10.7,20.4C161,535.8,150.3,538.1,139,534.3z"/>
<polygon style="fill:#0B0D15;" points="510.1,179.7 468.3,177.8 468.3,154.5 507,154.5 507,143.4 468.9,143.4 468.9,121.8 
	510.5,123.8 510.5,112.3 455.7,110.1 454,189.1 510.1,191.1 "/>
<polygon style="fill:#0B0D15;" points="649.9,766.3 636.8,746.8 668.2,724.5 662,715.5 630.6,737.6 618.9,719.5 653.2,695.8 
	646.7,686.2 601.4,717.1 645.3,783.2 691.1,751.8 684.5,742.2 "/>
<polygon style="fill:#0B0D15;" points="273.6,267.8 265.4,259.7 238.1,292.4 220.3,276.7 244.3,247.3 237.2,239.3 211.7,269.1 
	196.2,255 223.4,223.8 215.2,215.1 179.1,257.9 237.8,310.1 "/>
<path style="fill:#0B0D15;" d="M388.5,749.9c0.6-2.5,1.3-5,2.1-7.4c1.1-2.8,0.1-3.8-2.5-4.7c-7.4-2.8-14.7-5.8-22-8.7
	c-7.6-3-15.1-5.9-23-9l-26.8,74.4l52.2,19.4l2.9-11.1l-38.7-14.6l7.9-22.4l34.8,13.3l2.7-10.4l-34-13.2l7.2-20.6L388.5,749.9z"/>
<polygon style="fill:#0B0D15;" points="497.5,815.2 494.7,791.5 530.8,787 528.6,776.4 492.8,780.6 490.5,759.1 530.4,755 
	528.1,743.6 477.2,749.7 486.2,828.4 541.2,821.7 538.8,810.6 "/>
<path style="fill:#0B0D15;" d="M642.8,248.8c3.2,2.7,5.7,5.2,8.6,7.1c1.4,0.8,3,1,4.5,0.5c4.9-2.3,9.8-4.8,14.5-7.5
	c1.8-1,3-1.1,4.6,0.6c5.8,6.1,11.7,12.2,17.8,18c1.9,1.8,1.7,3.2,0.8,5.3c-2.5,5.3-4.8,10.7-7.1,16.1c-0.4,1-0.6,2.6-0.1,3.3
	c2.3,3.3,5,6.3,7.8,9.9c0.8-1.8,1.4-3,2-4.2c9.7-22.2,19.3-44.4,28.9-66.7c4.2-9.7,4.1-9.6-3.5-17c-2.2-2.1-3.8-2.1-6.3-0.9
	c-18.9,9.4-37.9,18.6-56.8,27.9L642.8,248.8z M714.2,226.3l0.7,0.5l-15,31.9l-17.7-15.8L714.2,226.3z"/>
<path style="fill:#0B0D15;" d="M210.2,573.1c-7.9-14.3-26.1-21.1-39.6-14.6l4,11.1c1.9-0.3,3.5-0.6,5.1-0.8
	c8.6-1.4,17.2,2.9,21.3,10.6c4.4,8.2,3.6,16.3-2.8,23.4c-6.9,7.9-16.6,12.8-27,13.8c-10.2,1.1-19-3.8-23.6-12.7
	c-3.8-7.3-4.4-16.6,4.4-24.8c0.7-0.9,1-2,0.8-3.1c-0.9-3.5-2.2-7-3.4-10.8c-5.5,2.8-10,7.4-12.8,12.9c-7.7,15.1-1.9,34.5,13.3,44.8
	c15.7,10.6,38.4,7.5,53.9-7.4C215.8,604,218.3,587.8,210.2,573.1z"/>
<path style="fill:#0B0D15;" d="M813.9,555.4c-21.2-15.3-42.4-30.5-63.6-45.8c-0.8-0.6-1.8-1-3.1-1.8c-0.5,3.6-0.8,6.9-1.6,10
	c-0.7,2.6,0.3,4,2.5,5.2c4.2,2.5,8.2,5.4,12.4,7.9c2,1.2,2.8,2.3,2,4.8c-2.5,7.9-4.8,15.9-7,23.9c-0.7,2.5-1.9,3.2-4.3,3.3
	c-5.2,0.2-10.3,0.5-15.5,0.9c-1.1,0.1-2.7,0.9-3.1,1.8c-1.6,3.6-2.7,7.3-4.1,11.3c1.8,0,3.1,0.1,4.5,0c23.3-1.6,46.7-3.2,70-4.8
	c10.3-0.7,10.2-0.8,13.2-10.7C817.1,558.4,816.1,557,813.9,555.4z M801.5,561.4h-36l6.6-22.2l29.7,20.9L801.5,561.4z"/>
<path style="fill:#0B0D15;" d="M587.1,723.7c-3,1-3.6,2.7-3.3,5.8c1.5,20.5,2.8,41,4.3,62.6c-1.5-1.7-2.2-2.5-2.8-3.3
	c-12.1-15.8-24.3-31.5-36.5-47.2c-0.9-1.1-2.6-2.4-3.7-2.2c-3.7,0.7-7.3,2-11.3,3.2c3,3.8,5.5,7.1,8.1,10.4
	c14.1,18,28.3,36,42.5,53.9c0.9,1.1,2.9,2.2,4,2c4-1.1,7.9-2.7,12.1-4.2l-4.7-84.8C592.3,721.5,589.7,722.8,587.1,723.7z"/>
<polygon style="fill:#0B0D15;" points="403.8,129.8 413.9,193.6 427.1,191.5 417,127.5 441,123.1 439.8,111 377.5,121.7 
	380.7,133.5 "/>
<polygon style="fill:#0B0D15;" points="161.2,310.7 217.5,345.6 223.8,333.9 167.8,298.9 179.7,276.8 170.1,270.9 138.9,327.7 
	149.6,332.4 "/>
<polygon style="fill:#0B0D15;" points="705.4,319 760.4,282.3 774.4,302.6 784.2,296.8 749.5,245.3 740.3,252.4 753,271 
	698.1,307.8 "/>
<polygon style="fill:#0B0D15;" points="700.2,629.7 710.3,635.2 729.3,601 788.3,633.8 794.8,622.1 725.7,583.6 "/>
<polygon style="fill:#0B0D15;" points="208.1,368 134.2,340.4 129.6,353 203.5,380.5 "/>
<polygon style="fill:#0B0D15;" points="327.2,227.3 285.8,160.5 274.4,167.6 315.8,234.4 "/>
<polygon style="fill:#0B0D15;" points="725.1,354.6 796.4,320.9 790.6,308.8 719.4,342.5 "/>
<path style="fill:#EE2C25;" d="M656.6,419c0-1.4-0.1-2.9-0.2-4.7H529.8c-5.7,0-5.7,0-5.7-5.8c0-40.5,0-80.9,0-121.4c0-1.6,0-3.2,0-5
	H414.2c0,1.8,0,3.4,0,5c0,40.3,0,80.6,0,121c0,6.3,0,6.3-6.1,6.3H286.4c-1.4,0-2.9,0.1-4.7,0.2c0,1.9,0,3.4,0,4.8
	c0,33.4,0.1,66.7-0.1,100.1c0,4.1,1.4,4.9,5.1,4.9c40.7-0.1,81.4-0.1,122.2-0.1c5.3,0,5.3,0,5.3,5.4c0,40.5,0,80.9,0,121.4
	c0,1.8,0.2,3.7,0.3,5.8h4.5c33.4,0,66.7-0.1,100.1,0.1c3.9,0.1,5-0.9,5-4.9c-0.2-40.3-0.1-80.6-0.1-121c0-7.7-0.5-6.7,6.9-6.7
	c40.2,0,80.4-0.1,120.5,0.1c4.2,0,5.2-1.2,5.2-5.3C656.5,485.7,656.6,452.3,656.6,419z"/>
</svg>
