<svg xmlns="http://www.w3.org/2000/svg" viewBox="0 0 1192.13 439.64">
  <title>icrc-syriast-logo-icrc-horiz</title>
  <g id="ca4184ad-a64c-46b7-8eff-7936b487ddbc" data-name="Layer 2">
    <g id="4834dfbf-b852-473e-8241-63a9c219770d" data-name="Layer 1">
      <path d="M850.14,223.49v87.2H823.24v-204c.74-.07,1.34-.16,1.95-.16,32.17,0,64.34,0,96.51.08,12.1,0,23.76,2.4,34.41,8.43,15.93,9,24,23,25.12,41,.76,12-1.07,23.69-7.11,34.37-5.72,10.11-14.35,16.69-25.26,20.43L945.54,212a15.62,15.62,0,0,0,1.81.7c15.38,3.33,24.21,13.21,26.91,28.26,1.78,9.95,2.25,20.14,3.33,30.2.66,6.13,1.11,12.29,2.08,18.37a45.37,45.37,0,0,0,8.67,21.18c-1.07.07-1.79.15-2.5.15-8.43,0-16.87-.08-25.3.06a3.93,3.93,0,0,1-4-2.45c-2.45-4.71-2.85-9.84-3.18-15-.56-8.64-.53-17.33-1.59-25.93a151.47,151.47,0,0,0-4.86-24.26c-3.67-12.39-12.73-18.6-25.49-19.54-2.18-.16-4.37-.22-6.56-.22q-30.69,0-61.37,0Zm.19-23c.82.06,1.5.15,2.18.15,18.66,0,37.32,0,56,0a78.38,78.38,0,0,0,21.77-2.73c11.64-3.39,19.85-10.31,22.72-22.49a46.34,46.34,0,0,0-.33-23.4c-3-10.89-10.14-18.07-21-20.88a67.16,67.16,0,0,0-16-1.84c-21-.2-42-.08-63-.07-.76,0-1.51.08-2.31.12Z" fill="#000111"/>
      <path d="M1190,167.92c-8.74,0-17.23,0-25.72-.07-.56,0-1.44-1-1.61-1.69a56.42,56.42,0,0,0-7.84-18.42c-7.3-10.75-17.46-17.52-29.88-20.8-15.52-4.1-31-3.62-46,2.34-17.39,6.9-28.43,20.08-35.28,37.07s-8.29,34.81-6.87,52.91c1,13.25,3.83,26.09,9.81,38.06,10.92,21.85,28.69,33.5,53,35.34,12.22.94,24-.58,35-6.45,14.16-7.59,22.69-19.73,27.13-34.86,1.64-5.57,2.49-11.38,3.75-17.26h26.64c-2.59,22.54-9.53,43-26.09,59.07-12.65,12.31-28.11,19-45.44,21.22-6.91.89-14.05-.11-21.05.26A78.9,78.9,0,0,1,1061,306.9c-20.91-9.9-34.67-26.35-43-47.61-7.33-18.72-9.48-38.23-8.47-58.16,1.08-21.25,6.31-41.32,18.12-59.27,14.66-22.29,35.43-35.14,61.73-39,20.36-3,40.25-1.21,59,7.7,23.46,11.14,36.91,30,41.42,55.39C1189.88,166.47,1189.9,167,1190,167.92Z" fill="#000111"/>
      <path d="M787,167.92h-2.71c-7.26,0-14.52-.06-21.78,0-1.78,0-2.52-.41-3-2.26-3.66-15.42-12.22-27.17-26.43-34.52-10.23-5.28-21.26-7.09-32.66-6.76-17.73.51-33.34,6.21-45.68,19.41a73,73,0,0,0-17.43,33c-6.44,26.1-5.68,52,4.84,76.91,10.19,24.15,28.83,37.12,55.07,39,13.41.94,26.21-1.08,37.73-8.4,13.91-8.84,21.5-22,25.15-37.75.94-4,1.44-8.14,2.18-12.42h26.8a111.11,111.11,0,0,1-5.08,24.67c-7.74,23.3-22.18,40.64-45.24,50-9.15,3.75-18.63,6.16-28.69,5.78-5.77-.22-11.56-.19-17.33,0-16.18.5-30.77-4.49-44.22-13-16-10.13-27-24.61-33.4-42.22-12.08-33.14-12.57-66.6.33-99.57,11.84-30.25,33.77-49.69,66-56.07,24.36-4.82,48.14-2.58,70.07,10,20,11.52,31.22,29.31,35.24,51.84C787,166.3,787,167,787,167.92Z" fill="#000111"/>
      <path d="M219.25,0C340.9.09,439.67,98.64,439.59,219.84s-98.94,220-219.94,219.8C98.89,439.49-.1,340.73,0,220.49.09,98.93,98.56-.09,219.25,0ZM5,219.76c.21,118.82,96.69,215.1,215.4,214.93,117.77-.16,214.37-97,214.23-214.7C434.46,101,337.87,4.68,219.1,5,101.16,5.29,4.77,102,5,219.76Z" fill="#000111"/>
      <path d="M543.55,106.58h26.7V310.65h-26.7Z" fill="#000111"/>
      <path d="M217.19,371.46c-82.92-1.41-149.75-70-149-153C68.92,135.24,137.63,67,222,68.19c82.87,1.19,150.38,69.8,149.37,153.59C370.38,304.82,301.57,372.89,217.19,371.46ZM366.47,220c-.12-81.09-65.86-146.94-146.69-146.92S73.1,139.1,73.15,220.31c.05,80.58,66.2,146.3,147.13,146.17,80.32-.12,146.32-66.21,146.2-146.43Z" fill="#000111"/>
      <path d="M59.2,212,58.82,219,14.48,215.5c0-3.75-.08-7.27.09-10.75,0-.53,1.18-1.29,1.92-1.46,11.1-2.53,22.23-5,33.35-7.44.28-.06.54-.17,1.35-.43L18.66,176.13l2.11-10.31,44.51,8.76-1.67,6.8L30,174.93l-.16.4,12.38,7.38c5.69,3.4,11.33,6.9,17.11,10.17,2.81,1.6,1,3.83,1.21,5.79s-1.32,1.83-2.47,2.12l-30,7.5a1.6,1.6,0,0,0-1.1.8Z" fill="#000111"/>
      <path d="M425.12,233.51l-.75,8.25L379.77,238c.14-2.61.16-5.09.47-7.53.08-.65,1-1.31,1.66-1.75q14.31-9.54,28.67-19a4.68,4.68,0,0,0,1.73-1.78l-32.17,1.72-.41-7.28,45.16-2.3c.19,2.81.47,5.36.47,7.91,0,.66-1,1.47-1.69,1.93q-14.9,9.71-29.86,19.33a5.62,5.62,0,0,0-2,2Z" fill="#000111"/>
      <path d="M308.08,48.41,293.15,76.49l-6.73-3.17L307.59,33.5c2.34,1.15,4.6,2.16,6.71,3.41.53.31.79,1.41.84,2.17.7,11.52,1.34,23,2,34.58.06,1,.19,2,.35,3.66l18-28,6.09,4.81L317.39,92c-2-1.44-3.81-2.63-5.42-4.08a4.23,4.23,0,0,1-1-2.62c-.8-11.83-1.52-23.66-2.27-35.5,0-.44-.09-.89-.14-1.33Z" fill="#000111"/>
      <path d="M208.1,412.76l1.41-32.13h6.85l-2.11,45c-2.66-.13-5.15-.14-7.58-.44-.59-.07-1.2-1.07-1.55-1.78q-7.74-15.49-15.41-31a7.16,7.16,0,0,0-1.85-2.57L182,422.24l-7.32-1.51,7.63-44.44c2.53.51,5,.88,7.32,1.55.63.18,1.1,1.23,1.47,2q7.79,15.6,15.52,31.22c.3.61.63,1.22.94,1.83Z" fill="#000111"/>
      <path d="M154.88,24.33l7.24-2.13L175.84,65c-2.53.75-4.87,1.54-7.27,2.08-.57.13-1.41-.52-2-1q-13.39-10.22-26.76-20.48a3.12,3.12,0,0,0-1.71-.73L151,74.45l-6.36,3.1L126.49,36.4C128.88,35.18,131,34,133.31,33c.52-.22,1.56.37,2.17.84q13.49,10.48,26.93,21A5.1,5.1,0,0,0,164.66,56Z" fill="#000111"/>
      <path d="M282.21,71.5c-1.77-.72-3.81-1.47-5.76-2.42a2.52,2.52,0,0,1-1.15-1.73,10.92,10.92,0,0,1,.26-3.24c.27-1.38.7-2.72,1-4.08,2-7.71.52-10.21-7.08-12.28l-9.73-2.65-5.07,17.69-7-1.56,12.12-43.69c4.68,1.29,9.2,2.48,13.66,3.78,3.59,1,7.3,1.87,10.66,3.43a12.55,12.55,0,0,1,1.93,21.46,25.69,25.69,0,0,1-4.53,2.14c4.11,2.95,3.45,7,2.54,11.24C283.3,63.45,282.85,67.39,282.21,71.5Zm-20.83-32c4.88,1.31,9.37,2.62,13.89,3.68,3.9.91,6.35-.73,7.58-4.68,1.34-4.29.25-7.6-3.48-8.9-4.45-1.57-9.06-2.68-13.82-4Z" fill="#000111"/>
      <path d="M123.9,381.35l-10.13-6.56,3.18-4.73,15.64,9.88c-.29.59-.47,1-.7,1.41-3.75,6.28-7.54,12.56-11.24,18.74-5.72-.84-3.71-4.8-3.28-8.05a2.85,2.85,0,0,0-.86-.12c-12.51,3.43-24-8.84-23-21.39.88-10.36,9.12-20.55,18.81-22.64,10.61-2.28,23.31,5.9,25.41,16.4a14.28,14.28,0,0,1-1.68,9.84l-6.17-3.55c1.69-9.22-4-16.59-12.51-16.48-10.66.15-20.32,16.06-15.37,25.48a13.39,13.39,0,0,0,11.49,7.36C117.94,387.25,121.19,385,123.9,381.35Z" fill="#000111"/>
      <path d="M396.43,193.45c-11.3,0-18.36-4.49-21.34-12.38-3.34-8.81-1.17-17.95,6.14-23.94,7.73-6.32,16.5-9,26.17-5.12,7.65,3.09,11.47,9.4,12.29,17.44s-2.62,14.26-9,18.91A26.12,26.12,0,0,1,396.43,193.45Zm-2.95-7.17c6.32,0,12.65-2.48,16.44-6.63a12.8,12.8,0,0,0-7.38-21.46c-6.27-.94-11.88.88-16.87,4.61s-6.93,9.37-5.07,15.06C382.37,183.29,386.92,186.27,393.48,186.28Z" fill="#000111"/>
      <path d="M37.22,265.73c-15,0-25.37-13.15-21.39-27.17,2.22-7.81,8-12.12,15.53-14a29,29,0,0,1,16.17.55c8.39,2.72,12.91,8.66,13.79,17.33s-2.59,15.19-10,19.57A27.14,27.14,0,0,1,37.22,265.73Zm2.07-35.2c-4.36.47-8.43,1.22-12.18,3.46a11.17,11.17,0,0,0-5.57,8,13.37,13.37,0,0,0,9,15.14c6.5,2.17,12.65.85,18.46-2.41A11.33,11.33,0,0,0,55.13,243c-.5-5.13-3.16-8.82-8-10.63A60.49,60.49,0,0,0,39.29,230.52Z" fill="#000111"/>
      <path d="M243.46,15.24v6.61l-23.79-1.12V33.1H241.5v6.32H219.28V52.79l24,1.06v6.56l-32.18-1.14,1-45.28Z" fill="#000111"/>
      <path d="M323.41,390.08l19.82-13.77,3.79,5.49-26.24,18-25.2-37.88,26-17.72,3.75,5.49-19.68,13.59,6.73,10.4,18-12.7,3.52,5.19-18,12.77Z" fill="#000111"/>
      <path d="M86.84,88l4.05,4.62L77.16,109.47l10.21,9L103,99.75l4.68,4.61L87.18,128.62,53.54,98.7,74.24,74.17l4.7,5L63.33,97l8.9,8.08Z" fill="#000111"/>
      <path d="M152.23,372.14l-4.1,11.8,19.5,7.57-1.57,6-19.94-7.63-4.54,12.82L163.75,411l-1.67,6.34-29.89-11.15,15.37-42.63,13.18,5.15c4.22,1.66,8.39,3.4,12.62,5,1.45.54,2.06,1.13,1.41,2.71a43.57,43.57,0,0,0-1.22,4.25Z" fill="#000111"/>
      <path d="M236,418.16l23.69-2.65,1.36,6.36-31.52,3.81-5.15-45.08,29.2-3.5,1.3,6.5L232,386l1.32,12.3,20.52-2.4,1.26,6.09-20.69,2.54Z" fill="#000111"/>
      <path d="M348.8,124c-1.64-2-3.14-3.79-4.48-5.65a2.34,2.34,0,0,1,.06-1.87c1.3-3.09,2.65-6.17,4.07-9.2.56-1.19.65-2-.44-3-3.48-3.36-6.84-6.84-10.18-10.34a1.82,1.82,0,0,0-2.63-.32c-2.73,1.51-5.48,3-8.32,4.29a3.13,3.13,0,0,1-2.6-.26,63.84,63.84,0,0,1-4.94-4.08l9-4.4c10.86-5.32,21.73-10.61,32.56-16,1.45-.72,2.38-.71,3.62.51,4.35,4.28,4.43,4.22,2,9.77q-8.27,19.11-16.58,38.21C349.63,122.27,349.28,123,348.8,124ZM352,99.15l8.58-18.27-.39-.31-18.36,9.51Z" fill="#000111"/>
      <path d="M36.49,274.89c.72,2.19,1.44,4.16,2,6.18a2.15,2.15,0,0,1-.47,1.79c-5,4.68-4.73,10-2.53,14.22A13.26,13.26,0,0,0,49,304.34a23.74,23.74,0,0,0,15.46-7.93A11,11,0,0,0,66.07,283a11.71,11.71,0,0,0-12.18-6.09c-.91.13-1.82.3-2.93.47L48.69,271c7.71-3.75,18.18.15,22.68,8.36a19.54,19.54,0,0,1-3.75,24.39c-8.88,8.54-21.9,10.31-30.89,4.22-8.69-5.88-12-17-7.6-25.69A17,17,0,0,1,36.49,274.89Z" fill="#000111"/>
      <path d="M368.43,281.56c.81-2.26,1.48-4.41,2.37-6.45a2.42,2.42,0,0,1,1.77-1q4.42-.41,8.87-.54a2.23,2.23,0,0,0,2.47-1.87c1.26-4.58,2.58-9.15,4-13.68.47-1.46,0-2.08-1.15-2.78-2.41-1.44-4.68-3.07-7.1-4.53-1.21-.73-1.79-1.49-1.41-3,.44-1.79.58-3.65.89-5.73.77.45,1.31.69,1.78,1l36.44,26.24c1.28.94,1.82,1.7,1.29,3.42-1.73,5.68-1.64,5.74-7.57,6.16q-20.07,1.41-40.14,2.76C370.23,281.6,369.46,281.56,368.43,281.56Zm41.86-8.9.15-.72-17-12-3.79,12.73Z" fill="#000111"/>
      <path d="M287.9,404.92c-.82-12.41-1.56-24.16-2.44-35.9-.13-1.77.19-2.75,1.91-3.34,1.54-.52,3-1.29,4.94-2.15L295,412.12c-2.37.87-4.6,1.82-6.91,2.43a3,3,0,0,1-2.31-1.12Q273.52,398,261.4,382.55c-1.49-1.87-3-3.79-4.66-6a66.22,66.22,0,0,1,6.5-1.83c.61-.11,1.62.63,2.11,1.26q10.51,13.47,20.92,27C286.65,403.5,287.06,403.94,287.9,404.92Z" fill="#000111"/>
      <path d="M202.94,14.52l.69,6.93-13.75,2.49,5.79,36.67-7.53,1.25-5.83-36.61-13.22,2.14-1.83-6.77Z" fill="#000111"/>
      <path d="M47.05,122.18l32.11,20.07L75.56,149l-32.28-20-6.62,12.46-6.15-2.71,17.89-32.56,5.5,3.41Z" fill="#000111"/>
      <path d="M382.51,106.19l-7.28-10.67,5.23-4.06L400.37,121l-5.62,3.34-8-11.63-31.52,21L351,127.31Z" fill="#000111"/>
      <path d="M406.42,307.48l-3.71,6.68-33.78-18.83L358,315l-5.81-3.13,14.63-26.43Z" fill="#000111"/>
      <path d="M25.19,153.23,27.81,146l42.33,15.78L67.52,169Z" fill="#000111"/>
      <path d="M108.17,46.94l6.5-4.09,23.74,38.31-6.51,4Z" fill="#000111"/>
      <path d="M404.05,127.9l3.28,6.9-40.82,19.35-3.28-7Z" fill="#000111"/>
      <path d="M188.32,112.54h63V185c0,3.34,0,3.34,3.25,3.34h72.56c.05,1,.13,1.87.13,2.68,0,19.13,0,38.25.06,57.38,0,2.34-.58,3-3,3-23-.09-46.06-.07-69.09-.05-4.22,0-3.94-.6-3.94,3.83,0,23.11,0,46.22.05,69.34,0,2.3-.67,2.84-2.89,2.81-19.13-.08-38.25-.05-57.38-.05h-2.58c-.06-1.19-.15-2.25-.15-3.31V254.42c0-3.07,0-3.07-3-3.07q-35,0-70,.05c-2.16,0-3-.45-2.94-2.81.1-19.13.06-38.25.06-57.38v-2.76c1,0,1.87-.12,2.69-.12h69.8c3.47,0,3.47,0,3.47-3.58V115.4C188.32,114.52,188.32,113.6,188.32,112.54Z" fill="#ee2722"/>
    </g>
  </g>
</svg>
