<svg xmlns="http://www.w3.org/2000/svg" viewBox="0 0 1384.37 1600.16">
  <title>icrc-syriast-logo-icrc</title>
  <g id="ca6da4d8-6ffc-461a-b59f-f44e5e051071" data-name="Layer 2">
    <g id="b60d8344-223f-448c-9600-add9fb38414e" data-name="Layer 1">
      <g id="e766b799-7cad-49b6-b237-fc79cb949fc7" data-name="wmlVDP">
        <g>
          <path d="M654.43,1405.37V1591.5H597V1156c1.57-.14,2.86-.34,4.16-.34,68.66,0,137.33-.09,206,.17,25.83.1,50.71,5.13,73.46,18,34,19.24,51.19,49.11,53.62,87.57,1.62,25.7-2.28,50.57-15.17,73.37-12.21,21.58-30.64,35.62-53.91,43.6-2,.69-4,1.4-7.11,2.49a33.35,33.35,0,0,0,3.86,1.49c32.82,7.1,51.68,28.2,57.45,60.33,3.81,21.23,4.81,43,7.11,64.47,1.4,13.08,2.37,26.23,4.43,39.21,2.56,16.08,7.83,31.31,18.51,45.2-2.29.14-3.82.31-5.34.31-18,0-36-.18-54,.12-4.42.07-6.71-1.69-8.55-5.23-5.23-10.05-6.09-21-6.79-32-1.19-18.45-1.13-37-3.4-55.35a323.31,323.31,0,0,0-10.38-51.79c-7.83-26.45-27.18-39.7-54.41-41.7-4.65-.34-9.32-.46-14-.47q-65.5-.05-131,0Zm.41-49c1.75.12,3.2.31,4.66.31,39.83,0,79.66.09,119.49-.06,15.7-.06,31.3-1.41,46.47-5.83,24.84-7.24,42.36-22,48.5-48a98.92,98.92,0,0,0-.71-49.95c-6.5-23.25-21.64-38.58-44.89-44.57-11-2.83-22.69-3.81-34.09-3.92-44.83-.42-89.66-.17-134.49-.15-1.62,0-3.23.17-4.94.26Z" fill="#000111"/>
          <path d="M1379.88,1286.77c-18.65,0-36.78.07-54.91-.16-1.2,0-3.08-2.16-3.44-3.61-3.47-14-8.59-27.32-16.74-39.31-15.58-22.94-37.26-37.4-63.78-44.4-33.13-8.75-66.1-7.72-98.1,5-37.12,14.72-60.68,42.86-75.3,79.12s-17.69,74.3-14.66,112.94c2.22,28.28,8.18,55.68,20.95,81.24,23.3,46.64,61.24,71.51,113.08,75.44,26.09,2,51.28-1.24,74.64-13.76,30.23-16.21,48.44-42.11,57.92-74.4,3.49-11.9,5.31-24.3,8-36.85h56.87c-5.52,48.12-20.34,91.7-55.7,126.09-27,26.28-60,40.56-97,45.29-14.76,1.89-30-.24-44.94.56-29,1.55-56.32-4.21-82.36-16.54-44.63-21.13-74-56.24-91.75-101.62-15.65-39.95-20.24-81.61-18.08-124.14,2.3-45.35,13.46-88.19,38.67-126.51,31.29-47.57,75.63-75,131.76-83.25,43.45-6.37,85.91-2.58,126,16.43,50.08,23.77,78.78,64,88.41,118.24C1379.6,1283.66,1379.66,1284.83,1379.88,1286.77Z" fill="#000111"/>
          <path d="M519.72,1286.77h-5.79c-15.5,0-31-.13-46.5.09-3.81.05-5.37-.87-6.31-4.83-7.82-32.91-26.09-58-56.42-73.68-21.84-11.27-45.39-15.13-69.72-14.43-37.85,1.09-71.16,13.25-97.51,41.44-18.76,20.06-30.7,44-37.21,70.37-13.75,55.72-12.13,110.92,10.33,164.16,21.75,51.55,61.53,79.23,117.55,83.17,28.63,2,55.94-2.31,80.53-17.93,29.7-18.86,45.89-47,53.69-80.58,2-8.58,3.08-17.37,4.66-26.51h57.21a237.17,237.17,0,0,1-10.85,52.66c-16.52,49.74-47.34,86.74-96.56,106.82-19.54,8-39.77,13.15-61.23,12.34-12.32-.46-24.67-.4-37,0-34.54,1.07-65.67-9.59-94.39-27.75-34.2-21.63-57.6-52.53-71.3-90.12-25.79-70.73-26.83-142.17.7-212.53,25.27-64.57,72.09-106.07,140.9-119.68,52-10.29,102.76-5.5,149.56,21.45,42.71,24.59,66.65,62.56,75.23,110.66C519.55,1283.3,519.55,1284.77,519.72,1286.77Z" fill="#000111"/>
          <path d="M690.8,0c259.68.19,470.51,210.54,470.33,469.26s-211.2,469.5-469.47,469.17c-257.77-.32-469.07-211.13-468.85-467.79C223,211.17,433.19-.19,690.8,0ZM233.46,469.08c.44,253.63,206.39,459.14,459.77,458.78,251.38-.35,457.59-207,457.28-458.28C1150.19,215.67,944,10,690.48,10.64,438.73,11.3,233,217.64,233.46,469.08Z" fill="#000111"/>
          <path d="M0,1155.83H57v435.6H0Z" fill="#000111"/>
          <path d="M686.41,792.89c-177-3-319.64-149.38-318.06-326.62C369.93,288.67,516.59,143,696.78,145.55c176.89,2.53,321,149,318.83,327.84C1013.41,650.64,866.52,795.94,686.41,792.89Zm318.65-323.2c-.26-173.1-140.59-313.65-313.11-313.6-172.84,0-313.11,140.83-313,314.16.11,172,141.3,312.28,314.05,312C864.44,782,1005.32,640.92,1005.06,469.69Z" fill="#000111"/>
          <path d="M349.17,452.6l-.81,14.79L253.72,460c0-8-.18-15.51.19-22.95.06-1.13,2.51-2.75,4.09-3.11,23.7-5.4,47.45-10.62,71.18-15.89.59-.13,1.15-.36,2.88-.91l-69.42-41.18,4.5-22,95,18.7-3.57,14.52-71.77-13.79-.34.86L312.88,390c12.15,7.26,24.19,14.73,36.52,21.7,6,3.41,2.15,8.18,2.59,12.35.41,3.89-2.81,3.91-5.27,4.53q-32,8-64,16a3.42,3.42,0,0,0-2.35,1.7Z" fill="#000111"/>
          <path d="M1130.24,498.44l-1.61,17.6-95.18-8c.3-5.58.34-10.87,1-16.08.18-1.39,2.12-2.79,3.55-3.74q30.55-20.36,61.19-40.59a10,10,0,0,0,3.7-3.8l-68.66,3.68-.88-15.55,96.4-4.9c.41,6,1,11.45,1,16.89,0,1.41-2.08,3.14-3.6,4.13q-31.81,20.72-63.74,41.27a12,12,0,0,0-4.23,4.22Z" fill="#000111"/>
          <path d="M880.42,103.33l-31.87,59.94-14.36-6.76,45.18-85c5,2.46,9.81,4.6,14.33,7.27,1.13.67,1.69,3,1.79,4.63,1.49,24.6,2.85,49.2,4.26,73.81.12,2.09.4,4.17.75,7.81l38.39-59.75,13,10.26L900.3,196.38c-4.18-3.08-8.13-5.61-11.56-8.71-1.34-1.21-2-3.65-2.16-5.59-1.7-25.25-3.24-50.51-4.84-75.77-.06-.94-.19-1.89-.29-2.83Z" fill="#000111"/>
          <path d="M667,881.06,670,812.48h14.63l-4.5,96.11c-5.68-.27-11-.29-16.18-.94-1.26-.16-2.57-2.29-3.31-3.79q-16.53-33.06-32.9-66.2a15.29,15.29,0,0,0-3.95-5.49l-12.45,69.12-15.62-3.23L612,803.2c5.4,1.08,10.61,1.87,15.63,3.31,1.34.38,2.34,2.63,3.13,4.21q16.62,33.29,33.12,66.63c.65,1.31,1.35,2.6,2,3.91Z" fill="#000111"/>
          <path d="M553.4,51.94l15.45-4.54,29.3,91.43c-5.4,1.6-10.39,3.29-15.51,4.43-1.21.27-3-1.12-4.24-2.08q-28.59-21.81-57.11-43.71a6.65,6.65,0,0,0-3.66-1.56l27.47,63-13.58,6.61L492.81,77.7c5.09-2.6,9.7-5.22,14.55-7.24,1.12-.47,3.34.79,4.64,1.8q28.8,22.36,57.48,44.87a10.89,10.89,0,0,0,4.8,2.36Z" fill="#000111"/>
          <path d="M825.19,152.61c-3.77-1.54-8.14-3.13-12.3-5.16a5.37,5.37,0,0,1-2.46-3.7,23.31,23.31,0,0,1,.55-6.92c.57-2.94,1.5-5.8,2.24-8.71,4.17-16.46,1.1-21.79-15.11-26.22l-20.76-5.65L766.52,134l-14.88-3.32L777.5,37.43c10,2.76,19.63,5.29,29.16,8.07,7.66,2.23,15.59,4,22.76,7.32,18.3,8.5,20.46,34.21,4.12,45.8-2.76,2-6.19,3-9.67,4.57,8.77,6.29,7.36,14.94,5.42,24C827.52,135.43,826.57,143.84,825.19,152.61ZM780.73,84.36c10.42,2.79,20,5.6,29.65,7.85,8.32,1.94,13.56-1.55,16.19-10,2.87-9.16.54-16.23-7.43-19-9.49-3.36-19.33-5.71-29.49-8.63Z" fill="#000111"/>
          <path d="M487.27,814l-21.63-14,6.78-10.09,33.38,21.09c-.62,1.25-1,2.15-1.49,3-8,13.4-16.09,26.8-24,40-12.22-1.8-7.92-10.24-7-17.19a6.08,6.08,0,0,0-1.83-.26c-26.7,7.32-51.27-18.86-49-45.65,1.87-22.11,19.46-43.87,40.15-48.32,22.65-4.87,49.75,12.6,54.24,35,1.45,7.28.1,14.11-3.58,21L500.11,791c3.61-19.69-8.47-35.42-26.71-35.17-22.76.31-43.38,34.27-32.81,54.38,5.1,9.71,13.68,14.95,24.52,15.71C474.56,826.59,481.49,821.75,487.27,814Z" fill="#000111"/>
          <path d="M1069,412.93c-24.11,0-39.18-9.59-45.56-26.43-7.13-18.8-2.5-38.31,13.11-51.1,16.49-13.5,35.22-19.29,55.87-10.93,16.33,6.6,24.49,20.07,26.24,37.23s-5.59,30.43-19.2,40.37C1089.19,409.57,1077.42,412.81,1069,412.93Zm-6.29-15.3c13.5,0,27-5.3,35.1-14.15,7.37-8,9.6-17.25,6-27.69s-11-16.48-21.76-18.11c-13.39-2-25.36,1.88-36,9.84-10.93,8.15-14.8,20-10.82,32.14C1039,391.24,1048.7,397.59,1062.71,397.63Z" fill="#000111"/>
          <path d="M302.26,567.2c-32-.1-54.15-28.07-45.66-58,4.74-16.67,17-25.87,33.15-29.94a61.79,61.79,0,0,1,34.52,1.17c17.9,5.81,27.56,18.48,29.44,37s-5.53,32.42-21.41,41.78A57.94,57.94,0,0,1,302.26,567.2Zm4.41-75.14c-9.3,1-18,2.61-26,7.39-6.51,3.92-10.62,9.55-11.88,17.06A28.53,28.53,0,0,0,288,548.83c13.88,4.63,27,1.81,39.4-5.15,9.59-5.4,14.17-13.85,13.09-25-1.06-10.95-6.75-18.82-17-22.7C318.2,494,312.31,493.33,306.67,492.06Z" fill="#000111"/>
          <path d="M742.49,32.52V46.62l-50.79-2.4V70.65h46.61V84.14H690.88v28.55l51.19,2.26v14l-68.69-2.44,2.12-96.65Z" fill="#000111"/>
          <path d="M913.13,832.63l42.3-29.39,8.1,11.71-56,38.42-53.78-80.86,55.41-37.82,8,11.72-42,29,14.36,22.2,38.44-27.1,7.51,11.08-38.41,27.25Z" fill="#000111"/>
          <path d="M408.17,187.88l8.65,9.86-29.3,35.93,21.8,19.26,33.38-40,10,9.84-43.8,51.78-71.8-63.88,44.17-52.35L391.3,169,358,207.12l19,17.25Z" fill="#000111"/>
          <path d="M547.76,794.34,539,819.53l41.62,16.16-3.35,12.73-42.57-16.29L525,859.5l47.35,17.83-3.57,13.54-63.81-23.79,32.81-91c9.64,3.77,18.89,7.37,28.13,11,9,3.54,17.9,7.25,26.94,10.62,3.09,1.15,4.39,2.42,3,5.79a93,93,0,0,0-2.61,9.08Z" fill="#000111"/>
          <path d="M726.62,892.57l50.57-5.65,2.91,13.58-67.28,8.13-11-96.23,62.32-7.47,2.78,13.88-48.82,5.13,2.81,26.26,43.8-5.13,2.7,13-44.17,5.43Z" fill="#000111"/>
          <path d="M967.34,264.63c-3.5-4.34-6.71-8.08-9.57-12.07-.63-.88-.37-2.82.12-4,2.77-6.6,5.65-13.16,8.69-19.64,1.19-2.54,1.38-4.27-.94-6.51-7.43-7.17-14.61-14.6-21.73-22.08-1.9-2-3.37-1.92-5.61-.68-5.82,3.23-11.7,6.39-17.75,9.15a6.69,6.69,0,0,1-5.56-.56c-3.54-2.4-6.65-5.42-10.55-8.71l19.13-9.39c23.18-11.35,46.38-22.64,69.51-34.09,3.09-1.53,5.08-1.52,7.73,1.09,9.29,9.13,9.45,9,4.33,20.85q-17.66,40.79-35.39,81.55C969.11,261,968.37,262.45,967.34,264.63Zm6.89-53,18.31-39-.83-.66-39.18,20.31Z" fill="#000111"/>
          <path d="M300.7,586.76c1.54,4.68,3.07,8.88,4.22,13.19a4.58,4.58,0,0,1-1,3.82c-10.75,10-10.09,21.44-5.41,30.36,5.69,10.83,16.4,16.85,28.93,15.49a50.68,50.68,0,0,0,33-16.92c7.78-8.62,8.8-18.61,3.39-28.62a25,25,0,0,0-26-13c-1.95.27-3.88.64-6.26,1l-4.84-13.61c16.46-8,38.8.31,48.42,17.84,9.86,18,6.83,37.84-8,52.06-18.95,18.22-46.74,22-65.94,9-18.54-12.56-25.59-36.37-16.22-54.83A36.18,36.18,0,0,1,300.7,586.76Z" fill="#000111"/>
          <path d="M1009.24,601c1.73-4.83,3.16-9.41,5.06-13.77.48-1.1,2.42-2.08,3.77-2.2q9.44-.87,18.93-1.16c2.9-.09,4.46-1,5.28-4,2.69-9.78,5.5-19.54,8.61-29.19,1-3.12,0-4.44-2.46-5.93-5.14-3.07-10-6.56-15.15-9.66-2.58-1.56-3.82-3.17-3-6.41.94-3.82,1.24-7.79,1.9-12.24,1.64.95,2.79,1.48,3.8,2.21q38.89,28,77.79,56c2.73,2,3.88,3.63,2.76,7.29-3.7,12.13-3.5,12.26-16.15,13.14q-42.83,3-85.68,5.89C1013.07,601.08,1011.43,601,1009.24,601Zm89.35-19,.32-1.54-36.29-25.63-8.08,27.17Z" fill="#000111"/>
          <path d="M837.34,864.31c-1.76-26.48-3.32-51.56-5.21-76.62-.28-3.78.41-5.88,4.08-7.12,3.28-1.11,6.38-2.75,10.54-4.59l5.72,103.7c-5.06,1.85-9.81,3.89-14.76,5.19-1.38.36-3.88-1.06-4.94-2.39q-26.12-32.85-52-65.92c-3.17-4-6.32-8.09-9.94-12.73,5-1.48,9.38-3.08,13.88-3.91,1.31-.24,3.46,1.35,4.5,2.68q22.43,28.76,44.65,57.69C834.67,861.28,835.55,862.22,837.34,864.31Z" fill="#000111"/>
          <path d="M656,31l1.47,14.79-29.34,5.32,12.35,78.28-16.08,2.66L611.95,53.9l-28.22,4.56L579.83,44Z" fill="#000111"/>
          <path d="M323.24,260.8l68.53,42.84L384.09,318l-68.91-42.78-14.13,26.59-13.13-5.78,38.18-69.5,11.75,7.28Z" fill="#000111"/>
          <path d="M1039.3,226.67l-15.54-22.77,11.16-8.66,42.5,63-12,7.12-17.15-24.83L981,285.43l-8.91-13.68Z" fill="#000111"/>
          <path d="M1090.32,656.32l-7.92,14.26-72.11-40.19L987,672.3l-12.4-6.69,31.23-56.41Z" fill="#000111"/>
          <path d="M276.57,327.07l5.61-15.4,90.35,33.68-5.6,15.36Z" fill="#000111"/>
          <path d="M453.71,100.2l13.87-8.72,50.67,81.77-13.89,8.62Z" fill="#000111"/>
          <path d="M1085.28,273l7,14.72-87.14,41.31-7-14.84Z" fill="#000111"/>
          <path d="M624.78,240.23H759.18c0,2.27,0,4.22,0,6.17q0,74.24,0,148.48c0,7.12,0,7.13,6.94,7.13H921c.11,2.2.27,4,.27,5.73,0,40.83-.07,81.65.13,122.48,0,5-1.23,6.46-6.36,6.44-49.16-.2-98.32-.14-147.48-.11-9,0-8.41-1.28-8.41,8.17,0,49.33-.08,98.65.11,148,0,4.91-1.42,6.07-6.17,6-40.83-.18-81.65-.11-122.48-.11H625.1c-.12-2.55-.31-4.81-.31-7.07q0-74.24,0-148.48c0-6.55,0-6.55-6.5-6.55-49.83,0-99.65,0-149.48.11-4.6,0-6.31-.95-6.28-6,.21-40.83.12-81.65.12-122.48,0-1.8,0-3.6,0-5.9,2.21-.1,4-.26,5.75-.26h149c7.4,0,7.41,0,7.41-7.65q0-74,0-148C624.78,244.44,624.78,242.49,624.78,240.23Z" fill="#ee2722"/>
        </g>
      </g>
    </g>
  </g>
</svg>
