<?xml version="1.0" encoding="utf-8"?>
<!-- Generated by IcoMoon.io -->
<!DOCTYPE svg PUBLIC "-//W3C//DTD SVG 1.1//EN" "http://www.w3.org/Graphics/SVG/1.1/DTD/svg11.dtd">
<svg version="1.1" xmlns="http://www.w3.org/2000/svg" xmlns:xlink="http://www.w3.org/1999/xlink" width="37" height="28" viewBox="0 0 37 28">
<path d="M13.249 12.454c2.12 1.325 3.18 3.18 3.18 5.476s-0.707 4.151-2.032 5.388c-1.325 1.325-3.091 1.943-5.123 1.943s-3.71-0.53-5.123-1.855c-1.413-1.237-2.12-2.915-2.12-5.035 0-2.032 0.707-4.063 2.032-6.006l6.713-9.628h6.89l-4.416 9.716zM30.562 12.454c2.12 1.325 3.18 3.18 3.18 5.476s-0.707 4.151-2.032 5.388c-1.325 1.325-3.091 1.943-5.123 1.943s-3.71-0.618-5.123-1.943c-1.413-1.237-2.12-2.915-2.12-5.035 0-2.032 0.707-4.063 2.032-6.006l6.713-9.628h6.89l-4.416 9.804z"></path>
</svg>
