<svg style="position: absolute; width: 0; height: 0; overflow: hidden;" version="1.1" xmlns="http://www.w3.org/2000/svg" xmlns:xlink="http://www.w3.org/1999/xlink">
<defs>
<symbol id="icon-quote" viewBox="0 0 37 28">
<title>quote</title>
<path class="path1" d="M13.249 12.454c2.12 1.325 3.18 3.18 3.18 5.476s-0.707 4.151-2.032 5.388c-1.325 1.325-3.091 1.943-5.123 1.943s-3.71-0.53-5.123-1.855c-1.413-1.237-2.12-2.915-2.12-5.035 0-2.032 0.707-4.063 2.032-6.006l6.713-9.628h6.89l-4.416 9.716zM30.562 12.454c2.12 1.325 3.18 3.18 3.18 5.476s-0.707 4.151-2.032 5.388c-1.325 1.325-3.091 1.943-5.123 1.943s-3.71-0.618-5.123-1.943c-1.413-1.237-2.12-2.915-2.12-5.035 0-2.032 0.707-4.063 2.032-6.006l6.713-9.628h6.89l-4.416 9.804z"></path>
</symbol>
<symbol id="icon-volume-off" viewBox="0 0 12 28">
<title>volume-off</title>
<path class="path1" d="M12 5.5v17c0 0.547-0.453 1-1 1-0.266 0-0.516-0.109-0.703-0.297l-5.203-5.203h-4.094c-0.547 0-1-0.453-1-1v-6c0-0.547 0.453-1 1-1h4.094l5.203-5.203c0.187-0.187 0.438-0.297 0.703-0.297 0.547 0 1 0.453 1 1z"></path>
</symbol>
<symbol id="icon-volume-up" viewBox="0 0 26 28">
<title>volume-up</title>
<path class="path1" d="M12 5.5v17c0 0.547-0.453 1-1 1-0.266 0-0.516-0.109-0.703-0.297l-5.203-5.203h-4.094c-0.547 0-1-0.453-1-1v-6c0-0.547 0.453-1 1-1h4.094l5.203-5.203c0.187-0.187 0.438-0.297 0.703-0.297 0.547 0 1 0.453 1 1zM18 14c0 1.563-0.953 3.078-2.422 3.672-0.125 0.063-0.266 0.078-0.391 0.078-0.547 0-1-0.438-1-1 0-1.188 1.813-0.859 1.813-2.75s-1.813-1.563-1.813-2.75c0-0.562 0.453-1 1-1 0.125 0 0.266 0.016 0.391 0.078 1.469 0.578 2.422 2.109 2.422 3.672zM22 14c0 3.172-1.906 6.125-4.844 7.359-0.125 0.047-0.266 0.078-0.391 0.078-0.562 0-1.016-0.453-1.016-1 0-0.438 0.25-0.734 0.609-0.922 0.422-0.219 0.812-0.406 1.188-0.688 1.547-1.125 2.453-2.922 2.453-4.828s-0.906-3.703-2.453-4.828c-0.375-0.281-0.766-0.469-1.188-0.688-0.359-0.187-0.609-0.484-0.609-0.922 0-0.547 0.453-1 1-1 0.141 0 0.281 0.031 0.406 0.078 2.938 1.234 4.844 4.188 4.844 7.359zM26 14c0 4.797-2.859 9.141-7.266 11.031-0.125 0.047-0.266 0.078-0.406 0.078-0.547 0-1-0.453-1-1 0-0.453 0.234-0.703 0.609-0.922 0.219-0.125 0.469-0.203 0.703-0.328 0.438-0.234 0.875-0.5 1.281-0.797 2.562-1.891 4.078-4.875 4.078-8.062s-1.516-6.172-4.078-8.062c-0.406-0.297-0.844-0.562-1.281-0.797-0.234-0.125-0.484-0.203-0.703-0.328-0.375-0.219-0.609-0.469-0.609-0.922 0-0.547 0.453-1 1-1 0.141 0 0.281 0.031 0.406 0.078 4.406 1.891 7.266 6.234 7.266 11.031z"></path>
</symbol>
<symbol id="icon-twitter" viewBox="0 0 26 28">
<title>twitter</title>
<path class="path1" d="M25.312 6.375c-0.688 1-1.547 1.891-2.531 2.609 0.016 0.219 0.016 0.438 0.016 0.656 0 6.672-5.078 14.359-14.359 14.359-2.859 0-5.516-0.828-7.75-2.266 0.406 0.047 0.797 0.063 1.219 0.063 2.359 0 4.531-0.797 6.266-2.156-2.219-0.047-4.078-1.5-4.719-3.5 0.313 0.047 0.625 0.078 0.953 0.078 0.453 0 0.906-0.063 1.328-0.172-2.312-0.469-4.047-2.5-4.047-4.953v-0.063c0.672 0.375 1.453 0.609 2.281 0.641-1.359-0.906-2.25-2.453-2.25-4.203 0-0.938 0.25-1.797 0.688-2.547 2.484 3.062 6.219 5.063 10.406 5.281-0.078-0.375-0.125-0.766-0.125-1.156 0-2.781 2.25-5.047 5.047-5.047 1.453 0 2.766 0.609 3.687 1.594 1.141-0.219 2.234-0.641 3.203-1.219-0.375 1.172-1.172 2.156-2.219 2.781 1.016-0.109 2-0.391 2.906-0.781z"></path>
</symbol>
<symbol id="icon-facebook" viewBox="0 0 16 28">
<title>facebook</title>
<path class="path1" d="M14.984 0.187v4.125h-2.453c-1.922 0-2.281 0.922-2.281 2.25v2.953h4.578l-0.609 4.625h-3.969v11.859h-4.781v-11.859h-3.984v-4.625h3.984v-3.406c0-3.953 2.422-6.109 5.953-6.109 1.687 0 3.141 0.125 3.563 0.187z"></path>
</symbol>
<symbol id="icon-instagram" viewBox="0 0 24 28">
<title>instagram</title>
<path class="path1" d="M16 14c0-2.203-1.797-4-4-4s-4 1.797-4 4 1.797 4 4 4 4-1.797 4-4zM18.156 14c0 3.406-2.75 6.156-6.156 6.156s-6.156-2.75-6.156-6.156 2.75-6.156 6.156-6.156 6.156 2.75 6.156 6.156zM19.844 7.594c0 0.797-0.641 1.437-1.437 1.437s-1.437-0.641-1.437-1.437 0.641-1.437 1.437-1.437 1.437 0.641 1.437 1.437zM12 4.156c-1.75 0-5.5-0.141-7.078 0.484-0.547 0.219-0.953 0.484-1.375 0.906s-0.688 0.828-0.906 1.375c-0.625 1.578-0.484 5.328-0.484 7.078s-0.141 5.5 0.484 7.078c0.219 0.547 0.484 0.953 0.906 1.375s0.828 0.688 1.375 0.906c1.578 0.625 5.328 0.484 7.078 0.484s5.5 0.141 7.078-0.484c0.547-0.219 0.953-0.484 1.375-0.906s0.688-0.828 0.906-1.375c0.625-1.578 0.484-5.328 0.484-7.078s0.141-5.5-0.484-7.078c-0.219-0.547-0.484-0.953-0.906-1.375s-0.828-0.688-1.375-0.906c-1.578-0.625-5.328-0.484-7.078-0.484zM24 14c0 1.656 0.016 3.297-0.078 4.953-0.094 1.922-0.531 3.625-1.937 5.031s-3.109 1.844-5.031 1.937c-1.656 0.094-3.297 0.078-4.953 0.078s-3.297 0.016-4.953-0.078c-1.922-0.094-3.625-0.531-5.031-1.937s-1.844-3.109-1.937-5.031c-0.094-1.656-0.078-3.297-0.078-4.953s-0.016-3.297 0.078-4.953c0.094-1.922 0.531-3.625 1.937-5.031s3.109-1.844 5.031-1.937c1.656-0.094 3.297-0.078 4.953-0.078s3.297-0.016 4.953 0.078c1.922 0.094 3.625 0.531 5.031 1.937s1.844 3.109 1.937 5.031c0.094 1.656 0.078 3.297 0.078 4.953z"></path>
</symbol>
<symbol id="icon-long-arrow-right" viewBox="0 0 27 28">
<title>long-arrow-right</title>
<path class="path1" d="M27 13.953c0 0.141-0.063 0.281-0.156 0.375l-6 5.531c-0.156 0.141-0.359 0.172-0.547 0.094-0.172-0.078-0.297-0.25-0.297-0.453v-3.5h-19.5c-0.281 0-0.5-0.219-0.5-0.5v-3c0-0.281 0.219-0.5 0.5-0.5h19.5v-3.5c0-0.203 0.109-0.375 0.297-0.453s0.391-0.047 0.547 0.078l6 5.469c0.094 0.094 0.156 0.219 0.156 0.359v0z"></path>
</symbol>
</defs>
</svg>
