<?xml version="1.0" standalone="no"?>
<!DOCTYPE svg PUBLIC "-//W3C//DTD SVG 1.1//EN" "http://www.w3.org/Graphics/SVG/1.1/DTD/svg11.dtd" >
<svg xmlns="http://www.w3.org/2000/svg">
<metadata>
Created by FontPrep 20130207 at Tue Nov 22 10:26:20 2016
 By Alexander McMillan
Copyright (c) 2010, Sebastian Kosch (sebastian@aldusleaf.org),
with Reserved Font Name "Crimson Text".
This Font Software is licensed under the SIL Open Font License, Version 1.1.
This license is available with a FAQ at: http://scripts.sil.org/OFL
</metadata>
<defs>
<font id="13dc73e3781b936ac8184d25c72fae4c" horiz-adv-x='1024' >
  <font-face 
    font-family="CrimsonText-Roman"
    font-weight="400"
    font-stretch="normal"
    units-per-em="2048"
    panose-1="2 0 5 3 0 0 0 0 0 0"
    ascent="1434"
    descent="-614"
    x-height="864"
    cap-height="1312"
    bbox="-560 -594 2452 2052"
    underline-thickness="94"
    underline-position="-224"
    unicode-range="U+0020-FEFF"
  />
<missing-glyph horiz-adv-x="748" 
d="M136 68h408v1228h-408v-1228zM68 0v1364h544v-1364h-544z" />
    <glyph glyph-name=".notdef" horiz-adv-x="748" 
d="M136 68h408v1228h-408v-1228zM68 0v1364h544v-1364h-544z" />
    <glyph glyph-name=".null" horiz-adv-x="0" 
 />
    <glyph glyph-name="nonmarkingreturn" horiz-adv-x="682" 
 />
    <glyph glyph-name="space" unicode=" " horiz-adv-x="458" 
 />
    <glyph glyph-name="exclam" unicode="!" horiz-adv-x="560" 
d="M164 90q0 48 34 81t82 33t81 -33t33 -81t-33 -83t-81 -35t-82 35t-34 83zM283 1284q45 0 68 -37t23 -73t-17 -199t-45 -613q-2 -30 -10 -41t-38 -25q-10 -4 -17 10t-9 34q-25 410 -42 593q-16 183 -16 229t29 84t74 38z" />
    <glyph glyph-name="quotedbl" unicode="&#x22;" horiz-adv-x="696" 
d="M520 1396h30q28 0 43 -25t15 -95t-30 -193t-36 -185q-2 -30 -30 -30t-32 26q-10 94 -39 216t-29 157t36 82t72 47zM194 1396h28q30 0 45 -25t15 -95t-28 -194t-34 -184q-4 -30 -34 -30t-34 26q-10 94 -39 216t-29 156t37 82t73 48z" />
    <glyph glyph-name="numbersign" unicode="#" horiz-adv-x="952" 
d="M554 462l24 172h-188l-26 -172h190zM240 30h-26q-12 0 -19 5t-7 9l-2 4l46 302h-172q-12 0 -12 24t9 54t12 32t7 2h174l24 172h-214q-12 2 -12 26t9 54t12 32t7 2h216l48 312q18 18 67 18t49 -14l-2 -4l-46 -312h188l48 312q18 18 67 18t49 -14l-2 -4l-48 -312h164
q2 0 4 1t6 -3t4 -22t-18 -76l-12 -14h-166l-26 -172h208q2 0 4 1t6 -3t4 -22t-11 -53t-17 -35h-210l-48 -302l-6 -8q-12 -10 -54 -10h-26q-12 0 -19 5t-7 9v4l44 302h-188l-44 -302q0 -18 -62 -18z" />
    <glyph glyph-name="dollar" unicode="$" horiz-adv-x="982" 
d="M802 968q0 -16 -14 -16q-50 4 -52 22q-10 70 -79 150q-23 26 -49 44l-75 -453q78 -42 147 -85q68 -44 84 -60t48 -47q78 -76 78 -183q0 -154 -122 -255t-286 -101q-25 0 -69 5l-15 -93q-70 0 -70 18l14 84q-80 11 -196 32q-48 128 -56 302q0 16 32 16t48 -16
q51 -190 186 -246l81 489q-151 85 -239 163t-88 216t114 236t266 98q30 0 64 -4l14 82q70 0 70 -14l-13 -78q43 -6 93 -18t62 -14q22 -180 22 -274zM480 1204q-218 0 -218 -194q0 -92 54 -146t151 -110l73 443q-28 7 -60 7zM486 62q98 0 168 58t70 162q0 64 -42 134
q-28 47 -158 112l-16 8t-4 3l-78 -473q29 -4 60 -4z" />
    <glyph glyph-name="percent" unicode="%" horiz-adv-x="1360" 
d="M192 -24q-36 0 -46 22l964 1250q20 24 41 24t32 -2t14 -3t8 -8t9 -11l-966 -1248q-20 -24 -56 -24zM974 626q130 0 212 -94t82 -225t-81 -226t-209 -95t-216 93t-88 227t85 227t215 93zM964 578q-78 0 -120 -75t-42 -178t56 -196t133 -93t111 74t34 181t-47 197t-125 90z
M396 1290q130 0 213 -94t83 -224t-82 -226t-209 -96t-215 93t-88 227t84 227t214 93zM387 1242q-79 0 -120 -75t-41 -179t56 -196t132 -92t111 74t35 181t-47 197t-126 90z" />
    <glyph glyph-name="ampersand" unicode="&#x26;" horiz-adv-x="1342" 
d="M1090 0q-52 0 -110 36t-88 72l-32 36q-172 -150 -357 -150t-290 86t-105 226t88 227t244 167q-38 64 -57 103q-59 121 -59 235t84 194t214 80t208 -59t78 -173t-78 -200t-220 -174q116 -196 296 -398q50 76 82 146t32 88t-19 25t-43 8t-28 3q-4 8 -4 24t6 22h158
q50 0 220 10q10 -6 10 -31t-12 -25q-26 0 -74 -12t-64 -22q-2 -2 -61 -99t-147 -199q123 -129 151 -142q27 -14 50 -14t56 34t43 58q16 0 31 -12t15 -24q-73 -146 -218 -146zM627 1240q-65 0 -111 -43t-46 -111q0 -128 104 -316q104 60 151 121t47 151t-40 144t-105 54z
M280 344q0 -132 82 -198t202 -66q62 0 133 30t117 80q-58 58 -140 168t-134 190l-54 80q-72 -50 -106 -77t-67 -83t-33 -124z" />
    <glyph glyph-name="quotesingle" unicode="'" horiz-adv-x="372" 
d="M192 1396h30q30 0 45 -25t15 -95t-31 -193t-37 -185q-2 -30 -30 -30t-32 26q-10 94 -39 216t-29 157t36 82t72 47z" />
    <glyph glyph-name="parenleft" unicode="(" horiz-adv-x="646" 
d="M272 614q0 -286 101 -526t177 -278q4 -2 4 -12t-9 -25t-19 -15q-42 0 -106 68t-127 177t-107 274t-44 338t41 343t100 284t125 184t118 70q10 0 18 -18t8 -27t-2 -9q-100 -48 -189 -295t-89 -533z" />
    <glyph glyph-name="parenright" unicode=")" horiz-adv-x="644" 
d="M372 614q0 286 -89 533t-189 295q-2 0 -2 9t8 27t18 18q52 0 118 -70t125 -184t100 -284t41 -343t-44 -338t-107 -274t-127 -177t-106 -68q-10 0 -19 15t-9 25t4 12q76 38 177 278t101 526z" />
    <glyph glyph-name="asterisk" unicode="*" horiz-adv-x="888" 
d="M610 1222q66 74 116 28q24 -24 20 -55t-36 -60t-97 -64t-93 -61l-10 -28q4 -28 96 -44t133 -34t59 -45t4 -56t-46 -35t-70 15t-91 72t-85 69l-28 6q-23 -11 -10 -105q12 -93 7 -138t-26 -69t-52 -20t-47 31q-30 50 29 170t41 141q-18 20 -102 -21t-129 -50t-76 3t-36 43
t17 55t66 29t117 -5t109 -6q38 13 19 43q-19 31 -66 82q-146 158 -61 207q64 32 102 -46q20 -46 38 -143t44 -103q28 -5 71 78q43 82 73 116z" />
    <glyph glyph-name="plus" unicode="+" horiz-adv-x="1164" 
d="M638 46q0 -17 -102 -34q-10 0 -10 16v398q0 10 -12 10h-398q-12 0 -12 24t9 54t12 32t7 2h384q10 0 10 12v380q-2 10 10 14q54 16 82 16l20 -12v-400q0 -10 8 -10h400q16 0 16 -10q0 -16 -12 -59t-18 -43h-386q-8 0 -8 -6v-384z" />
    <glyph glyph-name="comma" unicode="," horiz-adv-x="478" 
d="M236 -36q0 44 -30 106t-30 82q0 44 44 75t85 31t63 -8q26 -38 26 -102q0 -156 -82 -289q-50 -81 -176 -185h-2q-8 0 -27 16t-19 24t23 29t51 49t51 78t23 94z" />
    <glyph glyph-name="hyphen" unicode="-" horiz-adv-x="750" 
d="M116 420q0 102 24 102h2l482 24h2q12 0 12 -31q0 -78 -26 -95l-482 -22h-4t-6 6t-4 16z" />
    <glyph glyph-name="period" unicode="." horiz-adv-x="466" 
d="M118 90q0 48 35 81t83 33t81 -33t33 -81t-33 -83t-81 -35t-83 35t-35 83z" />
    <glyph glyph-name="slash" unicode="/" horiz-adv-x="848" 
d="M159 -54q-27 -16 -65 -16t-44 14l592 1534q20 44 98 44q18 0 42 -12l-592 -1534q-4 -14 -31 -30z" />
    <glyph glyph-name="zero" unicode="0" horiz-adv-x="968" 
d="M48 639q0 271 118 457t319 186t318 -185t117 -458t-118 -459t-317 -186t-318 187t-119 458zM224 641q0 -241 70 -406t180 -165q128 0 199 166t71 409t-70 402t-186 159t-190 -162t-74 -403z" />
    <glyph glyph-name="one" unicode="1" horiz-adv-x="968" 
d="M226 1041q0 9 4 13q338 230 346 230h4q16 0 24 -38q-20 -66 -20 -188v-788q0 -116 16 -178q4 -14 59 -27t75 -13q8 0 8 -27t-2 -31q-200 10 -237 10t-237 -10q-8 8 -8 33t8 25q26 0 81 13t59 27q12 48 12 114v720q0 107 -9 119q-9 13 -20 13q-17 0 -87 -42l-40 -24
q-12 6 -24 23t-12 26z" />
    <glyph glyph-name="two" unicode="2" horiz-adv-x="968" 
d="M512 1284q134 0 211 -100t77 -240t-103 -300q-53 -82 -96 -143q-80 -113 -317 -343q-6 -10 4 -14h386q56 0 81 32t51 122q8 22 31 22t33 -8q-48 -240 -53 -276t-41 -36h-656q-8 0 -15 23t-7 37q218 220 374 457t156 401q0 108 -54 167t-142 59q-166 0 -266 -166
q-12 0 -25 13t-13 19q14 56 105 155q45 49 120 84t159 35z" />
    <glyph glyph-name="three" unicode="3" horiz-adv-x="970" 
d="M489 1284q97 0 176 -71t79 -172t-43 -162t-123 -121q106 -38 193 -126t87 -220q0 -190 -134 -306t-318 -116t-274 60q-20 14 -20 58q0 94 74 94q27 0 65 -39q37 -39 53 -51q58 -42 149 -42t162 69t71 204t-76 217t-164 82t-144 -14q-14 18 -14 42t4 30q138 24 220 96
t82 196q0 68 -53 121t-109 53t-93 -15t-56 -31t-37 -35t-20 -21q-8 0 -16 19t-8 33q54 80 122 124t165 44z" />
    <glyph glyph-name="four" unicode="4" horiz-adv-x="964" 
d="M586 464v532q0 18 -10 18q0 -2 -2 -4l-364 -522q-2 -2 -2 -6q0 -18 14 -18h364zM717 1290q27 0 27 -20v-806h124q32 0 32 -96q0 -12 -12 -20h-144v-350q-6 -10 -82 -10t-76 16v344h-506q-14 18 -14 62l606 856q18 24 45 24z" />
    <glyph glyph-name="five" unicode="5" horiz-adv-x="970" 
d="M758 1221q0 -39 -12 -99q-52 -16 -226 -22l-174 -8q-10 -2 -14 -16q-22 -110 -58 -320q66 26 188 26q160 0 277 -110t117 -260q0 -184 -129 -303t-316 -119t-277 60q-20 14 -20 58q0 94 74 94q27 0 65 -39q37 -39 53 -51q58 -42 151 -42t160 71t67 197t-63 217t-229 91
q-104 0 -174 -22q-16 8 -36 28l96 594q394 12 470 28q10 -14 10 -53z" />
    <glyph glyph-name="six" unicode="6" horiz-adv-x="968" 
d="M468 -12q-164 0 -272 129t-108 292t62 307t167 253q208 216 483 325q12 0 29 -22t17 -32q-202 -88 -343 -213t-195 -323q-4 -20 2 -20q4 2 19 14t88 38t133 26q140 0 235 -117t95 -269t-124 -270t-288 -118zM488 66q94 0 160 77t66 209t-65 220t-191 88q-54 0 -104 -29
t-64 -61q-28 -64 -29 -177t66 -220t161 -107z" />
    <glyph glyph-name="seven" unicode="7" horiz-adv-x="966" 
d="M859 1170l-551 -1176q-6 -6 -25 -6t-43 21t-24 35l532 1062h-482q-34 0 -61 -28t-39 -56t-26 -74q-2 -8 -28 -10t-40 4q52 232 62 300q2 24 32 24h578l134 6q14 0 14 -18t-33 -84z" />
    <glyph glyph-name="eight" unicode="8" horiz-adv-x="968" 
d="M497 1286q135 0 230 -83t95 -228t-224 -287q-14 -4 0 -12q104 -60 183 -151t79 -191q0 -148 -115 -250t-274 -102t-262 90t-103 236q0 79 38 134t62 77q24 21 34 30t36 27t33 23t31 21l26 16q10 6 0 12q-78 46 -141 129t-63 197t100 213t235 99zM488 1216q-80 0 -129 -64
t-49 -168q0 -136 208 -256q8 -4 13 -4t11 4q136 90 136 244q0 94 -55 169t-135 75zM489 54q93 0 151 60t58 162q0 141 -201 280q-55 38 -64 38t-11 -2q-84 -52 -121 -117t-37 -171t66 -178t159 -72z" />
    <glyph glyph-name="nine" unicode="9" horiz-adv-x="968" 
d="M499 1294q163 0 271 -129t108 -292t-64 -312t-165 -260q-211 -231 -439 -313q-12 0 -28 24t-16 34q154 60 296 197t196 335q4 20 -2 20q-4 -2 -6 -4q-22 -26 -92 -48t-124 -22q-144 0 -244 108t-100 266t123 277t286 119zM476 1216q-96 0 -158 -80t-62 -210t66 -217
t188 -87q54 0 104 29t64 61q26 60 27 176t-66 222t-163 106z" />
    <glyph glyph-name="colon" unicode=":" horiz-adv-x="472" 
d="M358 92q0 -50 -34 -85t-84 -35t-85 35t-35 85t35 85t85 35t84 -35t34 -85zM358 742q0 -50 -34 -86t-84 -36t-85 36t-35 86t35 84t85 34t84 -34t34 -84z" />
    <glyph glyph-name="semicolon" unicode=";" horiz-adv-x="488" 
d="M164 742q0 50 36 84t86 34t84 -34t34 -84t-34 -86t-84 -36t-86 36t-36 86zM322 248q70 0 70 -167t-93 -269q-51 -56 -153 -142q-8 -4 -18 -4t-24 22t-14 29t37 37t73 88t36 123t-27 114t-27 57q0 40 43 76t97 36z" />
    <glyph glyph-name="less" unicode="&#x3c;" horiz-adv-x="1070" 
d="M950 68q0 -12 -12 -55t-17 -43t-13 4l-750 380q-36 20 -36 80q0 30 36 48l738 374q8 4 10 4q16 0 34 -94l-6 -18l-652 -330l662 -336q6 -2 6 -14z" />
    <glyph glyph-name="equal" unicode="=" horiz-adv-x="1142" 
d="M134 630h898q8 0 8 -13t-12 -56t-18 -43h-892q-14 0 -14 20q10 92 30 92zM1040 336q0 -16 -12 -59t-18 -43h-892q-14 0 -14 20t11 56t17 36h892q16 0 16 -10z" />
    <glyph glyph-name="greater" unicode="&#x3e;" horiz-adv-x="1070" 
d="M134 770q0 20 13 55t17 35t12 -4l740 -374q34 -18 34 -48q0 -62 -34 -80l-750 -380q-8 -4 -13 -4t-18 43t-13 57l6 12l662 336l-650 330q-6 2 -6 22z" />
    <glyph glyph-name="question" unicode="?" horiz-adv-x="732" 
d="M118 90q0 48 34 81t82 33t82 -33t34 -81t-34 -83t-82 -35t-82 35t-34 83zM538 952q0 86 -49 132t-111 46t-98 -7t-62 -7t-57 18t-31 63t14 67q40 20 100 20q120 0 257 -106t137 -264q0 -104 -45 -173t-157 -133q-42 -24 -95 -66t-67 -68t-14 -128q0 -26 -33 -26t-33 16
l-2 188q0 52 11 78t16 40t21 30t21 24t26 22t25 18t27 19t49 31q58 36 104 74t46 92z" />
    <glyph glyph-name="at" unicode="@" horiz-adv-x="1638" 
d="M1012 670q0 14 -4 23q-11 25 -98 25q-128 0 -215 -115t-87 -317q0 -94 36 -137t82 -43q78 0 164 93t90 141l30 304q2 12 2 26zM1460 428q0 258 -159 443t-422 185t-460 -175t-197 -435q0 -314 178 -506t538 -192q36 0 78 17t52 23l12 4q4 -18 4 -20q0 -40 -69 -77
t-206 -37t-275 66t-231 169t-146 229t-53 248q0 360 232 572t578 212q144 0 268 -63t205 -163t126 -221t45 -250t-34 -230t-90 -153q-108 -100 -240 -100q-96 0 -160 70t-64 140q0 6 -10 -4q-32 -54 -126 -124t-164 -70q-104 0 -161 91t-57 205q0 214 148 376t402 162
l178 -18l-64 -552q-4 -40 -4 -56q0 -140 100 -140q70 0 122 42t78 106q48 118 48 226z" />
    <glyph glyph-name="A" unicode="A" 
d="M665 594q63 0 157 6l6 10l-162 442l-172 -446q0 -8 4 -8q104 -4 167 -4zM240 4q-22 0 -192 -10q-8 8 -8 33t8 25q24 0 62 10t52 28q42 54 94 188l348 894q4 10 11 32t11 33t12 28q29 61 74 61l18 -6l400 -1056q36 -94 53 -134t67 -59t74 -19q8 0 8 -23t-4 -35
q-200 10 -211 10t-241 -10q-8 8 -7 33t9 25q24 0 60 10t42 26q4 16 4 49t-20 99l-90 248q-10 14 -139 14t-279 -10l-10 -6l-86 -220q-34 -100 -34 -133t17 -46t57 -22t58 -9q6 0 7 -24t-3 -34q-200 10 -222 10z" />
    <glyph glyph-name="B" unicode="B" horiz-adv-x="1184" 
d="M842 940q0 138 -69 215t-205 77q-92 0 -142 -14q-12 -2 -12 -18l-8 -202v-238q0 -14 98 -14t163 7t120 56t55 131zM1018 986q0 -72 -56 -148t-142 -106q-16 -6 -10 -12q78 -14 186 -113t108 -233q0 -172 -139 -273t-369 -101h-274l-242 -6q-6 6 -6 32t6 26q26 0 77 14
t63 35t12 185v756q0 118 -14 172q-6 16 -59 30t-79 14q-8 0 -8 25t8 33q104 -4 238 -4l282 2q193 0 318 -102q44 -36 72 -95t28 -131zM914 352q0 128 -86 219t-270 91q-44 0 -144 -8q-8 -24 -8 -66v-292q0 -152 31 -179t95 -27t113 8t117 31t110 80t42 143z" />
    <glyph glyph-name="C" unicode="C" horiz-adv-x="1312" 
d="M1202 384q36 0 66 -18q0 -22 -28 -153t-40 -137q-146 -88 -478 -88q-264 0 -449 194t-185 470t190 479t466 203q236 0 486 -50q-4 -268 -4 -288q0 -30 -42 -30q-20 0 -26 10q-29 126 -123 197q-41 31 -116 54t-169 23q-196 0 -334 -173t-138 -391q0 -352 233 -523
q121 -89 303 -89t290 116q43 46 81 161q11 33 17 33z" />
    <glyph glyph-name="D" unicode="D" horiz-adv-x="1444" 
d="M402 1070v-792q0 -84 30 -152q8 -20 107 -30t153 -10q460 0 460 594q0 228 -121 388t-353 160h-10q-216 0 -241 -34t-25 -124zM1352 657q0 -275 -184 -469t-508 -194q-24 0 -143 4t-199 2l-242 -6q-6 6 -6 32t6 26q26 0 77 14t63 35t12 185v756q0 118 -14 172
q-6 16 -59 30t-79 14q-8 0 -8 25t8 33q104 -4 238 -4l348 4q326 0 508 -192t182 -467z" />
    <glyph glyph-name="E" unicode="E" horiz-adv-x="1142" 
d="M60 26q0 26 6 26q26 0 77 14t63 35t12 185v756q0 118 -14 172q-6 16 -59 30t-79 14q-8 0 -8 25t8 33q104 -4 238 -4l646 16q8 -58 31 -153t27 -119q-10 -10 -36 -10t-28 14q-30 110 -84 141t-148 31h-134q-172 0 -176 -26q-10 -48 -10 -168v-320q0 -12 90 -12h149
q59 0 87 8t36 10t21 26t15 35t14 57q2 14 28 14t36 -10v-378q-8 -8 -33 -8t-31 16q-26 100 -35 109t-28 21t-184 12t-165 -18v-310q0 -130 18 -182q6 -20 136 -20h96q186 0 252 34q30 16 67 71t59 131q4 12 35 12t43 -12q-98 -254 -108 -332l-682 8l-242 -6q-6 6 -6 32z" />
    <glyph glyph-name="F" unicode="F" horiz-adv-x="1102" 
d="M994 1046q-26 0 -28 14q-30 110 -84 141t-148 31h-134q-172 0 -176 -26q-10 -48 -10 -168v-326q0 -12 84 -12h106q134 0 164 19t52 109q2 12 4 18q2 14 28 14t36 -10v-388q-8 -8 -33 -8t-31 16q-26 100 -35 109t-28 21t-183 12t-164 -18v-316q0 -116 18 -186
q4 -14 56 -27t72 -13q8 0 8 -23t-4 -35q-200 10 -221 10t-251 -10q-8 8 -8 33t8 25q26 0 77 12t57 28q14 54 14 180v770q0 118 -14 172q-6 16 -59 30t-79 14q-8 0 -8 25t8 33q104 -4 238 -4l646 16q8 -58 31 -153t27 -119q-10 -10 -36 -10z" />
    <glyph glyph-name="G" unicode="G" horiz-adv-x="1430" 
d="M1272 118q0 -18 -62 -41t-72 -27t-45 -15t-56 -15t-60 -12q-97 -20 -255 -20q-264 0 -449 194t-185 470t190 479t466 203q142 0 474 -90q8 -228 8 -248q0 -30 -42 -30q-20 0 -26 10q-54 274 -408 274q-200 0 -334 -170t-134 -401t147 -418t369 -187q176 0 260 44
q14 6 14 30l-2 164v14q0 130 -16 172q-8 20 -65 32t-89 12q-8 0 -8 25t8 33q256 -10 267 -10t211 10q4 -12 4 -35t-8 -23q-12 0 -55 -13t-62 -25t-19 -132l6 -144q0 -36 14 -70t14 -40z" />
    <glyph glyph-name="H" unicode="H" horiz-adv-x="1414" 
d="M1089 1312q79 0 247 12q4 -12 4 -35t-8 -23q-20 0 -72 -14t-56 -28q-16 -62 -16 -186v-760q0 -124 16 -186q4 -14 56 -27t72 -13q8 0 8 -23t-4 -35q-200 10 -220 10t-250 -10q-8 8 -8 33t8 25q26 0 77 12t57 28q14 54 14 178v352l-4 8q-188 4 -396 4t-208 -10v-346
q0 -116 18 -186q4 -14 56 -27t72 -13q6 0 7 -24t-3 -34q-200 10 -221 10t-251 -10q-8 8 -8 33t8 25q26 0 77 12t57 28q14 54 14 178v776q0 124 -14 178q-6 16 -57 29t-77 13q-8 0 -8 25t8 33q156 -12 230 -12t242 12q4 -8 3 -33t-7 -25q-20 0 -72 -14t-56 -28
q-18 -70 -18 -186v-298l4 -6q196 -4 308 -4t292 4q4 4 4 8v304q0 124 -14 178q-6 16 -57 29t-77 13q-8 0 -8 25t8 33q144 -12 223 -12z" />
    <glyph glyph-name="I" unicode="I" horiz-adv-x="636" 
d="M232 1046q0 124 -14 178q-6 16 -57 29t-77 13q-8 0 -8 25t8 33q230 -10 251 -10t221 10q4 -12 4 -35t-8 -23q-20 0 -72 -14t-56 -28q-18 -70 -18 -186v-760q0 -116 18 -186q4 -14 56 -27t72 -13q8 0 8 -23t-4 -35q-200 10 -221 10t-251 -10q-8 8 -8 33t8 25q26 0 77 12
t57 28q14 54 14 178v776z" />
    <glyph glyph-name="J" unicode="J" horiz-adv-x="644" 
d="M346 1312q74 0 242 12q4 -12 4 -35t-8 -23q-20 0 -72 -14t-56 -28q-18 -70 -18 -186v-868q0 -252 -141 -438t-359 -186q-48 0 -104 32q-24 28 -24 73t37 73t80 28t88 -43t72 -43q56 0 116 117q61 117 61 371v892q0 124 -14 178q-6 16 -57 29t-77 13q-8 0 -8 25t8 33
q156 -12 230 -12z" />
    <glyph glyph-name="K" unicode="K" horiz-adv-x="1386" 
d="M320 1312q74 0 242 12q4 -8 3 -33t-7 -25q-20 0 -72 -14t-56 -28q-18 -70 -18 -186v-326l14 -12h14q64 0 116 58q234 262 344 406q48 58 48 76q0 34 -114 34q-8 0 -8 18t4 32q156 -12 214 -12t202 12q4 -8 3 -29t-7 -21q-122 -14 -184 -84l-402 -468q-16 -18 14 -54
l482 -530q32 -34 93 -60t119 -26q10 0 10 -25t-4 -33q-200 10 -259 10t-259 -10q-8 8 -8 33t8 25q24 0 55 8t31 24q0 64 -454 530q-8 8 -58 8q-14 0 -14 -16v-328q0 -116 18 -186q4 -14 56 -27t72 -13q6 0 7 -24t-3 -34q-200 10 -221 10t-251 -10q-8 8 -8 33t8 25
q26 0 77 12t57 28q14 54 14 178v776q0 124 -14 178q-6 16 -57 29t-77 13q-8 0 -8 25t8 33q156 -12 230 -12z" />
    <glyph glyph-name="L" unicode="L" horiz-adv-x="1136" 
d="M312 1312q74 0 242 12q4 -12 4 -35t-8 -23q-20 0 -72 -14t-56 -28q-18 -70 -18 -186v-754q0 -106 18 -176q6 -20 136 -20h96q186 0 252 34q30 16 67 71t59 131q4 12 35 12t43 -12q-98 -254 -108 -332l-682 12l-242 -6q-6 6 -6 32t6 26q28 0 78 12t62 33t12 185v756
q0 128 -14 182q-6 16 -57 29t-77 13q-8 0 -8 25t8 33q156 -12 230 -12z" />
    <glyph glyph-name="M" unicode="M" horiz-adv-x="1820" 
d="M344 1314q64 0 174 10q14 -46 396 -1002q2 -4 9 -4t9 8q196 460 312 758l80 240q128 -8 209 -8t181 8q6 -18 6 -38t-10 -20h-4q-22 0 -58 -13t-57 -29t-21 -90t18 -854q2 -114 30 -184q8 -18 60 -31t74 -13q8 0 8 -23t-4 -35q-200 10 -224 10t-254 -10q-8 8 -8 33t8 25
q20 0 61 10t62 22t21 84v106l-24 704q-2 32 -11 75t-19 43q-4 0 -10 -14l-418 -1000q-38 -86 -74 -86q-6 0 -18 4l-458 1164l-32 -1014q0 -36 12 -52t73 -31t81 -15q8 0 8 -23t-4 -35q-200 10 -218 10t-248 -10q-10 10 -10 34t10 24q28 0 83 13t73 31q32 36 36 209t9 375
t9 317t4 156t-8 71q-6 16 -68 29t-90 13q-8 0 -8 25t8 33q170 -10 234 -10z" />
    <glyph glyph-name="N" unicode="N" horiz-adv-x="1442" 
d="M1394 1291q0 -21 -8 -21q-20 0 -87 -16t-71 -30q-16 -62 -16 -186v-760q0 -124 6 -280q-8 -8 -40 -8t-64 46l-776 1100v-854q0 -132 14 -186q4 -14 67 -29t83 -15q6 0 7 -24t-3 -34q-200 10 -230 10l-230 -10q-6 6 -6 32t6 26q28 0 91 15t69 33q20 52 20 188v786
q0 98 -14 150q-6 16 -68 29t-90 13q-8 0 -8 25t8 33q156 -4 232 -4t132 4q74 -136 678 -980q6 34 6 82v622q0 122 -14 176q-6 16 -69 31t-89 15q-8 0 -8 23t8 31q156 -12 236 -12l224 12q4 -12 4 -33z" />
    <glyph glyph-name="O" unicode="O" horiz-adv-x="1456" 
d="M88 656q0 280 187 479t451 199t452 -199t188 -479t-188 -478t-452 -198t-451 198t-187 478zM696 1250q-190 0 -300 -166t-110 -384q0 -160 52 -302t162 -237t248 -95t234 83q186 161 186 469q0 160 -52 301t-162 236t-258 95z" />
    <glyph glyph-name="P" unicode="P" horiz-adv-x="1090" 
d="M1016 974q0 -78 -25 -145t-73 -130t-129 -104t-187 -41t-148 56q-12 14 -6 46q2 8 6 6q60 -22 147 -22t159 84t72 213t-62 212t-192 83q-90 0 -140 -14q-10 -2 -17 -25t-7 -195v-714q0 -134 13 -167t74 -49t87 -16q8 0 8 -23t-4 -35q-200 10 -260 10l-244 -10q-6 6 -6 34
t6 28q28 0 78 12t62 33t12 185v756q0 118 -14 172q-6 16 -59 30t-79 14q-8 0 -8 25t8 33l240 -4l282 8q137 0 263 -80q63 -40 103 -114t40 -152z" />
    <glyph glyph-name="Q" unicode="Q" horiz-adv-x="1448" 
d="M1355 -168q65 0 95 4t48 8t22 4q24 0 24 -40v-10q-132 -70 -336 -70q-96 0 -209 52t-238 123t-202 95t-153 76t-150 132t-121 199t-47 251q0 280 187 479t451 199t452 -199t188 -467t-147 -448t-301 -210q54 -26 149 -82t159 -76t129 -20zM696 1250q-190 0 -304 -167
t-114 -400t130 -425t350 -192q192 0 305 167t113 401t-130 425t-350 191z" />
    <glyph glyph-name="R" unicode="R" horiz-adv-x="1320" 
d="M1038 961q0 -91 -63 -183t-171 -142q-20 -8 -12 -20q100 -210 230 -352q192 -210 312 -210q6 -12 6 -29t-6 -29q-22 -6 -54 -6q-280 0 -486 288q-32 44 -73 105q-67 99 -107 151q-40 51 -72 64q-32 14 -66 14t-42 -1q-24 -3 -24 -33v-294q0 -134 13 -167t74 -49t87 -16
q8 0 8 -23t-4 -35q-200 10 -260 10l-244 -10q-6 6 -6 34t6 28q28 0 78 12t62 33t12 185v756q0 118 -14 172q-6 16 -59 30t-79 14q-8 0 -8 25t8 33l240 -4l282 8q140 0 276 -80q68 -40 112 -114t44 -165zM574 1232q-90 0 -140 -14q-16 -4 -20 -63t-4 -157v-242q0 -58 174 -58
h50q70 0 145 70t75 186q0 278 -280 278z" />
    <glyph glyph-name="S" unicode="S" horiz-adv-x="982" 
d="M122 980q0 154 118 253t274 99q80 0 126 -11t93 -24t83 -21q24 -106 24 -286q0 -14 -34 -14t-38 20q-10 88 -85 171t-189 83t-163 -60t-49 -135t41 -142t239 -181q106 -63 140 -87q110 -75 159 -145t49 -154q0 -160 -125 -263t-293 -103q-110 0 -224 27t-136 31
q-50 246 -50 318q0 12 34 12t48 -18q68 -288 332 -288q100 0 170 60t70 172t-83 175q-54 41 -109 71q-56 30 -94 52t-61 36t-76 49t-77 62t-56 66q-58 71 -58 175z" />
    <glyph glyph-name="T" unicode="T" horiz-adv-x="1338" 
d="M1246 1042q-26 0 -28 10q-28 112 -69 145t-155 33q-212 0 -220 -30q-18 -64 -18 -200v-722q0 -116 18 -186q4 -14 56 -27t72 -13q8 0 8 -23t-4 -35q-200 10 -221 10t-251 -10q-8 8 -8 33t8 25q26 0 77 12t57 28q14 54 14 178v724q0 174 -17 205t-217 31q-114 0 -155 -33
t-69 -145q-2 -10 -28 -10t-40 14l38 286q88 -22 138 -22l438 -8l440 8q50 0 138 22l38 -286q-14 -14 -40 -14z" />
    <glyph glyph-name="U" unicode="U" horiz-adv-x="1438" 
d="M1398 1291q0 -21 -8 -21q-20 0 -87 -16t-71 -30q-16 -62 -16 -186v-486q0 -310 -130 -431t-369 -121t-367 140t-128 452v454q0 124 -14 178q-6 16 -57 29t-77 13q-8 0 -8 25t8 33q230 -10 251 -10t221 10q4 -12 4 -35t-8 -23q-20 0 -72 -14t-56 -28q-18 -70 -18 -186
v-446q0 -226 96 -360t272 -134q342 0 342 450v500q0 122 -14 176q-6 16 -69 31t-89 15q-8 0 -8 23t8 31q156 -12 236 -12l224 12q4 -12 4 -33z" />
    <glyph glyph-name="V" unicode="V" horiz-adv-x="1418" 
d="M261 1314q59 0 259 10q4 -8 3 -33t-7 -25q-48 0 -83 -20t-35 -46q0 -58 252 -674q54 -136 86 -212q6 -10 17 -5t15 15l300 724q38 98 38 133t-40 60t-100 25q-8 0 -8 25t8 33q186 -10 201 -10t215 10q4 -12 4 -35t-8 -23q-90 0 -120 -56q-46 -84 -98 -206l-400 -956
q-26 -66 -70 -66q-14 0 -20 12l-410 1034q-50 132 -90 192q-14 22 -58 34t-70 12q-8 0 -8 25t8 33q160 -10 219 -10z" />
    <glyph glyph-name="W" unicode="W" horiz-adv-x="2152" 
d="M1927 1314q51 0 191 10q4 -12 4 -35t-8 -23q-20 0 -64 -15t-66 -41q-58 -68 -116 -202l-424 -960q-30 -64 -78 -64q-12 0 -18 10l-244 500l-216 -446q-30 -64 -78 -64q-12 0 -18 10l-520 1034q-58 118 -116 192q-16 20 -54 33t-62 13q-8 0 -8 25t8 33q230 -10 246 -10
t216 10q4 -8 3 -33t-7 -25q-45 0 -72 -18q-28 -18 -28 -40q0 -60 46 -148l414 -820q6 -10 16 -5t14 15l166 346l-210 432q-58 118 -116 192q-16 20 -54 33t-62 13q-8 0 -8 25t8 33q230 -10 245 -10t215 10q4 -8 3 -33t-7 -25q-42 0 -70 -17t-28 -41q0 -52 46 -148l132 -270
l140 294q28 62 28 116q0 34 -43 50t-75 16q-8 0 -8 25t8 33q160 -10 185 -10t225 10q4 -8 3 -33t-7 -25q-20 0 -69 -16t-77 -50t-108 -196l-154 -316l218 -448q12 -22 24 10l358 822q34 82 34 121t-41 56t-73 17q-8 0 -8 25t8 33q160 -10 211 -10z" />
    <glyph glyph-name="X" unicode="X" horiz-adv-x="1376" 
d="M378 1314q30 0 230 10q4 -8 3 -33t-7 -25q-36 0 -78 -15t-42 -44t24 -65l230 -350q8 12 47 61t56 71t52 68q129 170 129 211q0 23 -41 43t-99 20q-8 0 -8 25t8 33q186 -10 232 -10t246 10q4 -8 3 -33t-7 -25q-28 0 -100 -16t-92 -42l-376 -492l384 -584q26 -40 83 -60
t113 -20q10 0 10 -25t-4 -33q-200 10 -211 10t-291 -10q-8 8 -8 33t8 25q28 0 72 16t44 40q0 8 -10 24l-300 458q-328 -440 -328 -480q0 -25 43 -42q43 -16 93 -16q8 0 8 -26t-4 -32q-186 10 -229 10t-243 -10q-4 12 -4 35t8 23q52 0 103 17t73 39l428 560l-280 428
q-108 170 -244 170q-8 0 -8 25t8 33q246 -10 276 -10z" />
    <glyph glyph-name="Y" unicode="Y" horiz-adv-x="1298" 
d="M1078 1312l188 12q4 -12 4 -33t-8 -21q-24 0 -84 -18t-80 -44q-76 -118 -221 -358t-145 -268v-304q0 -124 16 -186q4 -14 54 -29t68 -15q8 0 8 -21t-4 -33q-200 10 -215 10t-245 -10q-8 8 -8 31t8 23q24 0 73 14t55 30q16 62 16 192v250q0 28 -43 111t-162 298t-136 238
t-44 42t-71 33t-64 14q-8 0 -8 23t8 31q192 -12 228 -12t276 12q4 -8 3 -31t-7 -23q-34 0 -77 -17t-43 -45t22 -66l224 -424q10 -10 20 4q272 412 272 482q0 22 -40 44t-98 22q-8 0 -8 23t8 31q222 -12 260 -12z" />
    <glyph glyph-name="Z" unicode="Z" horiz-adv-x="1200" 
d="M428 1312h218q140 0 420 20q6 -2 13 -26t7 -40l-748 -1114q-14 -20 -14 -30q0 -20 28 -20h452q144 0 209 86q50 66 83 156q4 6 31 6t45 -18q-64 -208 -88 -332h-992q-16 18 -16 47t8 39l766 1130h-424q-132 0 -189 -55t-95 -193q-2 -8 -34 -8t-50 18q54 248 66 352
q20 -6 145 -12t159 -6z" />
    <glyph glyph-name="bracketleft" unicode="[" horiz-adv-x="722" 
d="M374 1390q-8 0 -14 -12v-1476q2 -16 14 -16q104 0 204 -34q24 -8 24 -37t-10 -39l-2 -4q-146 24 -310 24q-38 0 -38 46v1592q0 46 38 46q141 0 225 9q85 9 96 9t11 -34t-36 -52q-94 -22 -202 -22z" />
    <glyph glyph-name="backslash" unicode="\" horiz-adv-x="860" 
d="M792 -14q0 -54 -46 -64l-48 4l-626 1584q14 12 42 12q78 0 98 -44l574 -1452q6 -12 6 -40z" />
    <glyph glyph-name="bracketright" unicode="]" horiz-adv-x="722" 
d="M352 -114q12 0 12 12l2 4v1472q-2 16 -14 16q-107 0 -176 16l-26 6l-2 2q-34 16 -34 50t10 34h2q156 -18 320 -18q36 0 36 -46v-1592q0 -46 -36 -46q-144 0 -270 -18l-42 -6q-12 2 -12 23t12 41l18 16q92 34 200 34z" />
    <glyph glyph-name="asciicircum" unicode="^" horiz-adv-x="890" 
d="M724 950q-24 0 -117 80t-163 164q-64 -82 -157 -163t-119 -81q-18 0 -26 48q2 6 50 51t114 127t94 143t36 61q31 0 51 -48t70 -115q49 -67 89 -109t71 -73t33 -35q0 -10 -8 -30t-18 -20z" />
    <glyph glyph-name="underscore" unicode="_" horiz-adv-x="936" 
d="M30 26h898q8 0 8 -13t-12 -56t-18 -43h-892q-14 0 -14 20q10 92 30 92z" />
    <glyph glyph-name="grave" unicode="`" horiz-adv-x="654" 
d="M208 1326q0 20 25 34t66 14t59 -18q74 -87 130 -179q56 -91 56 -97q0 -26 -25 -26t-168 111t-143 161z" />
    <glyph glyph-name="a" unicode="a" horiz-adv-x="846" 
d="M458 872q120 0 168 -53t48 -171v-462q0 -42 22 -70t55 -28t75 28q8 0 8 -21t-10 -37q-82 -70 -134 -70t-94 38t-58 80q-2 0 -15 -13q-31 -31 -92 -69q-62 -38 -147 -38q-86 0 -146 49t-60 147q0 151 245 237q37 13 97 33t81 28t21 32v150q0 64 -40 99t-98 35t-98 -41
t-40 -109t-82 -68q-56 0 -78 38q0 86 126 171t246 85zM368 100q54 0 104 33t50 67v206q-16 -8 -78 -28t-97 -35t-68 -50t-33 -85t34 -79t88 -29z" />
    <glyph glyph-name="b" unicode="b" horiz-adv-x="998" 
d="M448 778q-56 0 -96 -31t-40 -89v-466q0 -62 59 -91t137 -29q114 0 178 108t64 255t-83 245t-219 98zM308 1388q8 0 16 -11t10 -21q-22 -64 -22 -174v-350q0 -22 4 -22t20 11t74 33t102 22q192 0 301 -131t109 -279q0 -190 -141 -334t-311 -144q-74 0 -141 13t-81 13
t-41 -11t-33 -11t-23 6t-17 11t12 67t12 194v828q0 68 -12 128q-10 32 -102 32h-18q-12 0 -12 27t12 27q204 20 278 76h4z" />
    <glyph glyph-name="c" unicode="c" horiz-adv-x="810" 
d="M521 116q133 0 245 80q12 0 12 -21t-12 -41q-40 -56 -118 -101t-170 -45q-166 0 -285 125t-119 307t100 317t304 135t288 -102q0 -134 -74 -134q-34 0 -52 15t-46 55q-62 92 -146 92t-151 -78t-67 -235t79 -263t212 -106z" />
    <glyph glyph-name="d" unicode="d" horiz-adv-x="994" 
d="M836 1388q8 0 16 -11t10 -21q-22 -64 -22 -174v-900q0 -96 12 -152q10 -34 96 -34l18 -2q6 -2 6 -28t-12 -26q-125 -8 -244 -48l-18 -4q-12 0 -12 34v24q0 12 -8 8q-112 -62 -212 -62q-166 0 -278 118t-112 297t137 326t309 147q86 0 150 -34q14 0 14 36v216
q0 68 -12 128q-10 32 -102 32h-18q-12 0 -12 27t12 27q204 20 278 76h4zM488 796q-108 0 -174 -104t-66 -246t78 -249t216 -107q68 0 106 31t38 83v476q0 42 -45 79t-153 37z" />
    <glyph glyph-name="e" unicode="e" horiz-adv-x="860" 
d="M519 116q135 0 247 80q12 0 12 -21t-12 -41q-40 -56 -118 -101t-170 -45q-166 0 -285 125t-119 320t113 317t283 122q92 0 162 -35t107 -90q71 -106 71 -225q0 -40 -12 -49t-46 -9h-504q-16 0 -16 -10q0 -126 76 -232t211 -106zM443 798q-97 0 -152 -89t-55 -147
q0 -14 12 -14h390q10 0 10 20q0 64 -54 147t-151 83z" />
    <glyph glyph-name="f" unicode="f" horiz-adv-x="602" 
d="M592 1390q146 0 192 -78q0 -126 -72 -126q-26 0 -50 31t-55 63t-75 32q-88 0 -136 -108t-48 -254v-102q0 -10 10 -10h222q10 0 10 -23t-24 -71h-206q-12 0 -12 -12v-462q0 -108 18 -178q4 -14 49 -27t63 -13q6 0 8 -24t-2 -34q-200 10 -210 10t-214 -10q-12 12 -8 35
t8 23q24 0 68 13t48 27q20 78 20 178v460q0 14 -10 14h-106q-6 0 -6 15t32 47t68 32h12q10 0 10 12v26q0 210 125 362t271 152z" />
    <glyph glyph-name="g" unicode="g" horiz-adv-x="948" 
d="M434 864q74 0 170 -26t158 -26h116q12 -4 12 -41t-12 -37h-142q-8 0 -8 -6l20 -48q22 -48 22 -96q0 -108 -96 -194t-236 -86q-64 0 -112 8q-26 -14 -55 -50t-29 -64q0 -55 59 -68q59 -14 98 -14h43q248 -4 348 -51t100 -141q0 -154 -130 -265t-334 -113q-142 -2 -255 54
t-113 174t196 206q-54 8 -100 50t-46 98t45 112t101 92q-60 22 -111 95t-51 157q0 118 99 199t243 81zM246 588q0 -88 57 -152t134 -64t128 60t51 148t-57 152t-134 64t-128 -60t-51 -148zM758 -169q0 83 -82 112t-326 29q-4 0 -9 -3t-21 -10t-20 -9t-18 -11t-19 -12
t-17 -12t-16 -16t-12 -17q-20 -25 -20 -70q0 -86 89 -139t203 -53t191 64t77 147z" />
    <glyph glyph-name="h" unicode="h" horiz-adv-x="1060" 
d="M330 1388q8 0 16 -11t10 -21q-22 -64 -22 -174v-438q0 -8 3 -8t7 4q44 48 125 92t155 44q134 0 192 -96t58 -296v-216q0 -114 16 -176q4 -14 52 -27t68 -13q6 0 8 -24t-2 -34q-200 10 -210 10t-214 -10q-8 8 -8 33t8 25q24 0 67 13t47 27q14 58 14 140v212q0 184 -51 247
t-157 63q-60 0 -119 -47t-59 -83v-354q0 -116 16 -178q4 -14 52 -27t68 -13q6 0 8 -24t-2 -34q-200 10 -213 10t-219 -10q-8 8 -8 33t8 25q24 0 71 13t51 27q14 58 14 138v868q0 68 -12 128q-10 32 -102 32h-18q-12 0 -12 27t12 27q182 18 278 76h4z" />
    <glyph glyph-name="i" unicode="i" horiz-adv-x="538" 
d="M362 270q0 -116 16 -178q4 -14 52 -27t68 -13q6 0 8 -24t-2 -34q-200 10 -214 10t-218 -10q-8 8 -8 33t8 25q24 0 71 13t51 27q14 58 14 140v378q0 78 -24 105t-53 36t-48 9t-19 4q0 48 12 50q246 37 280 54h6q17 0 8 -61q-8 -61 -8 -125v-412zM170 1186q0 42 29 71
t71 29t71 -29t29 -71t-29 -71t-71 -29t-71 29t-29 71z" />
    <glyph glyph-name="j" unicode="j" horiz-adv-x="476" 
d="M118 1186q0 42 29 71t71 29t71 -29t29 -71t-29 -71t-71 -29t-71 29t-29 71zM324 682v-546q0 -254 -78 -376q-50 -78 -127 -138t-141 -84q-18 12 -24 26t-2 18l24 12q59 29 118 122q32 50 54 148t22 226v520q0 78 -24 105t-53 36t-48 9t-19 4q0 48 12 50q212 32 245 42
t41 12q17 0 8 -61q-8 -61 -8 -125z" />
    <glyph glyph-name="k" unicode="k" horiz-adv-x="992" 
d="M694 816q50 0 220 10q18 -9 10 -32q-8 -24 -12 -24q-26 0 -74 -12t-73 -27t-121 -90t-166 -147q58 -62 187 -208t165 -177t88 -46t74 -15q8 0 8 -25t-2 -29q-200 10 -211 10t-215 -10q-8 8 -8 31t8 23q20 0 46 8t26 15t-2 9l-292 316l-24 -6v-120q4 -132 16 -178
q4 -14 52 -27t68 -13q6 0 8 -24t-2 -34q-200 10 -213 10t-219 -10q-8 8 -8 33t8 25q24 0 71 13t51 27q14 58 14 140v866q0 68 -12 128q-10 32 -102 32h-18q-12 0 -12 27t12 27q182 18 278 76h4q8 0 16 -11t10 -21q-22 -64 -22 -174v-700q42 10 50 18q44 38 92 78l72 60
q64 52 74 68t10 28q0 24 -44 28t-46 8q-14 40 2 46h158z" />
    <glyph glyph-name="l" unicode="l" horiz-adv-x="502" 
d="M324 1388q8 0 16 -11t10 -21q-22 -64 -22 -174v-912q0 -116 16 -178q4 -14 52 -27t68 -13q6 0 8 -24t-2 -34q-200 10 -213 10t-219 -10q-8 8 -8 33t8 25q24 0 71 13t51 27q14 58 14 140v866q0 68 -12 128q-10 32 -102 32h-18q-12 0 -12 27t12 27q204 20 278 76h4z" />
    <glyph glyph-name="m" unicode="m" horiz-adv-x="1600" 
d="M354 754q0 -16 3 -16t7 4q46 48 125 91t155 43t129 -43t73 -99q150 142 310 142q252 0 252 -384v-222q0 -116 16 -178q4 -14 52 -27t68 -13q6 0 8 -24t-2 -34q-200 10 -213 10t-219 -10q-8 8 -8 33t8 25q24 0 71 13t51 27q14 58 14 128v226q0 308 -202 308
q-74 0 -128 -43t-54 -71l2 -8v-10q8 -50 8 -144v-226q0 -98 16 -160q4 -14 52 -27t68 -13q6 0 8 -24t-2 -34q-200 10 -213 10t-219 -10q-8 8 -8 33t8 25q24 0 71 13t51 27q14 58 14 140v204q0 318 -192 318q-60 0 -121 -45t-61 -87v-352q0 -116 16 -178q4 -14 52 -27t68 -13
q6 0 8 -24t-2 -34q-200 10 -213 10t-219 -10q-8 8 -8 33t8 25q24 0 71 13t51 27q14 58 14 140v378q0 78 -24 105t-53 36t-48 9t-19 4q0 48 12 50q212 32 245 42t41 12q17 0 10 -49q-8 -49 -8 -65z" />
    <glyph glyph-name="n" unicode="n" horiz-adv-x="1086" 
d="M358 754q0 -16 3 -16t7 4q46 48 125 91t151 43q140 0 196 -100t56 -324v-182q0 -116 16 -178q4 -14 52 -27t68 -13q6 0 8 -24t-2 -34q-200 10 -209 10t-215 -10q-8 8 -8 33t8 25q24 0 67 13t47 27q14 58 14 140v200q0 186 -48 254t-156 68q-64 0 -123 -47t-59 -85v-352
q0 -116 16 -178q4 -14 52 -27t68 -13q6 0 8 -24t-2 -34q-200 10 -213 10t-219 -10q-8 8 -8 33t8 25q24 0 71 13t51 27q14 58 14 140v378q0 78 -24 105t-53 36t-48 9t-19 4q0 48 12 50q212 32 245 42t41 12q17 0 10 -49q-8 -49 -8 -65z" />
    <glyph glyph-name="o" unicode="o" horiz-adv-x="1020" 
d="M505 874q183 0 311 -130t128 -313t-125 -314t-307 -131t-310 131t-128 316t124 313t307 128zM490 796q-110 0 -177 -97t-67 -249t85 -269t195 -117t178 100t68 251t-86 266t-196 115z" />
    <glyph glyph-name="p" unicode="p" horiz-adv-x="1022" 
d="M474 774q-62 0 -102 -33t-40 -95v-450q0 -54 58 -91t126 -37q118 0 188 106t70 256t-89 247t-211 97zM538 872q192 0 300 -129t108 -275q0 -192 -134 -338t-304 -146q-76 0 -114 15t-54 23q-8 -10 -8 -26v-172q0 -116 16 -178q4 -14 52 -27t68 -13q6 0 8 -25t-2 -33
q-200 10 -213 10t-219 -10q-8 8 -8 33t8 25q24 0 71 13t51 27q14 58 14 140v826q0 78 -24 105t-53 36t-48 9t-19 4q0 48 12 50q212 32 245 42t41 12q6 0 6 -11l-4 -45v-12q28 20 93 45t111 25z" />
    <glyph glyph-name="q" unicode="q" horiz-adv-x="978" 
d="M497 796q-89 0 -148 -62q-101 -106 -101 -283t88 -269t214 -92q46 0 91 27t45 93v464q0 54 -50 88t-139 34zM758 858l73 16q5 0 23 -6t18 -11t-16 -73t-16 -198v-788q0 -92 16 -154q4 -14 52 -27t68 -13q6 0 8 -24t-2 -34q-200 10 -213 10t-219 -10q-8 8 -8 33t8 25
q24 0 71 13t51 27q14 58 14 140v248q0 10 -3 17t-11 3q-120 -60 -192 -60q-174 0 -289 126t-115 295t137 318t317 149q74 0 144 -11t84 -11z" />
    <glyph glyph-name="r" unicode="r" horiz-adv-x="760" 
d="M586 874q118 0 156 -58q0 -70 -22 -102t-56 -32t-64 34t-87 34t-103 -58t-46 -122v-300q0 -116 16 -178q4 -14 53 -27t69 -13q6 0 8 -24t-2 -34q-200 10 -214 10t-220 -10q-8 8 -8 33t8 25q24 0 71 13t51 27q14 58 14 140v378q0 78 -24 105t-53 36t-48 9t-19 4
q0 48 12 50q212 32 245 42t41 12q8 0 10 -17t0 -25l-12 -100q36 54 99 101t125 47z" />
    <glyph glyph-name="s" unicode="s" horiz-adv-x="718" 
d="M382 874q44 0 111 -11t93 -15q20 -92 24 -204q0 -10 -27 -10t-29 14q-10 56 -57 106t-107 50q-144 0 -144 -118q0 -61 31 -90q31 -28 43 -37t53 -32t50 -28t48 -28t55 -33q132 -82 132 -192t-92 -189t-216 -79q-72 0 -140 17t-94 21q-12 32 -23 100t-11 108q16 12 35 12
t21 -12q12 -60 75 -117t132 -57t110 35t41 85t-13 79t-42 52t-54 38t-71 39t-68 38q-156 90 -156 206t87 184t203 68z" />
    <glyph glyph-name="t" unicode="t" horiz-adv-x="628" 
d="M600 815q0 -27 -20 -67h-266v-490q0 -80 41 -128t104 -48t127 38q6 4 18 -17t10 -23q-30 -32 -92 -63t-145 -31t-150 66t-67 188v508h-116q-10 0 -10 27t2 29q58 26 109 86t80 110t29 52q60 0 60 -10v-198l270 -2q16 0 16 -27z" />
    <glyph glyph-name="u" unicode="u" horiz-adv-x="1034" 
d="M870 682v-400q0 -86 14 -152q10 -34 100 -34l18 -2q6 -2 6 -15t-5 -26t-11 -13q-123 -8 -240 -52l-18 -4q-16 0 -16 32v102l-4 10q-132 -142 -262 -142q-74 0 -127 37t-78 98q-45 110 -45 237v252q0 78 -24 105t-53 36t-48 9t-19 4q0 48 12 50q212 32 245 42t41 12
q17 0 7 -69q-9 -69 -9 -121v-270q0 -154 46 -227t150 -73q60 0 114 47t54 81v374q0 78 -24 105t-53 36t-48 9t-19 4q0 48 12 50q212 32 245 42t41 12q17 0 7 -69q-9 -69 -9 -117z" />
    <glyph glyph-name="v" unicode="v" horiz-adv-x="986" 
d="M1016 833q0 -23 -14 -23q-28 0 -74 -16t-62 -52l-318 -718q-4 -14 -24 -30t-34 -16t-18 8q-34 74 -149 344t-201 440q-20 40 -118 40q-8 0 -8 25t8 33q206 -10 208 -10l200 10q4 -8 1 -33t-9 -25q-98 0 -98 -34q0 -4 2 -8l240 -542l202 460q16 38 16 60q0 64 -144 64
q-8 0 -8 25t8 33q110 -10 190 -10l200 10q4 -12 4 -35z" />
    <glyph glyph-name="w" unicode="w" horiz-adv-x="1468" 
d="M558 240q152 438 152 441q0 26 -28 71l-10 18q-27 40 -102 40q-8 0 -8 25t8 33q150 -10 200 -10t190 10q4 -12 4 -34t-6 -24q-96 0 -96 -78q0 -42 220 -492q30 92 97 281t67 219q0 70 -132 70h-8q-8 0 -8 25t8 33q150 -10 190 -10t190 10q4 -12 4 -35t-10 -23
q-26 0 -70 -17t-58 -55l-262 -716q-16 -44 -56 -44q-20 0 -24 8l-246 588l-202 -552q-6 -18 -23 -31t-34 -13t-21 8q-48 108 -145 348t-205 432q-26 44 -108 44q-8 0 -8 25t8 33q150 -10 198 -10l200 10q4 -8 3 -33t-7 -25q-100 0 -100 -46q0 -7 87 -193q87 -187 151 -331z
" />
    <glyph glyph-name="x" unicode="x" horiz-adv-x="934" 
d="M233 858q5 0 211 10q2 -8 2 -33t-6 -25q-80 0 -80 -34q0 -8 10 -24l130 -202q14 22 42 63t59 87t31 69t-23 30t-52 8t-34 3t-5 26t6 32q204 -10 210 -10t182 10q4 -20 4 -39t-6 -19q-132 -16 -174 -68l-192 -250q-4 -6 -4 -15t6 -21l214 -316q54 -80 168 -88q6 0 6 -24
t-8 -34q-186 10 -190 10t-220 -10q-4 20 -4 39t6 19q84 6 84 36q0 4 -4 12l-152 240l-138 -206q-14 -22 -14 -38q0 -36 100 -44h10q6 0 6 -25t-8 -33q-194 10 -199 10t-195 -10q-4 16 -4 37t8 21q134 20 180 84l208 278l2 12q0 4 -4 12l-206 302q-18 26 -74 48t-90 22l-6 30
q4 20 8 28q194 -10 199 -10z" />
    <glyph glyph-name="y" unicode="y" horiz-adv-x="908" 
d="M250 858q32 0 172 10q4 -12 4 -35t-8 -23q-16 0 -53 -14t-41 -28v-4q0 -36 214 -522l152 438q14 42 14 67t-31 44t-83 19q-8 0 -8 25t8 33l78 -6q52 -4 98 -4t98 4l78 6q4 -12 4 -35t-8 -23q-26 0 -71 -18t-59 -58l-358 -966q-46 -124 -104 -173t-103 -49t-65 26t-20 61
t28 55q166 0 220 172l24 72q14 42 22 68l-286 700q-22 48 -40 67t-55 31t-59 12q-8 0 -8 25t8 33q206 -10 238 -10z" />
    <glyph glyph-name="z" unicode="z" horiz-adv-x="828" 
d="M270 91q0 -11 24 -11h262q84 0 123 42t52 91t25 49q44 0 58 -24l-42 -238h-674q-40 24 -40 46q0 6 2 8l514 714l-298 2q-40 0 -66 -19t-35 -39t-18 -51t-13 -40t-36 -9t-32 7t14 94t18 147q118 -12 190 -12h244q112 0 244 16q6 -10 6 -48l-508 -694q-14 -20 -14 -31z" />
    <glyph glyph-name="braceleft" unicode="{" horiz-adv-x="648" 
d="M126 620q0 24 8 38q58 14 89 26t61 45t30 83t-50 162t-50 176q0 164 92 257t226 93q8 0 8 -27t-22 -31q-58 -4 -128 -66t-70 -141t50 -191t50 -201t-55 -157t-113 -70q60 -2 115 -66t55 -153t-51 -190t-51 -180t71 -147t127 -72q22 -4 22 -31t-8 -27q-130 0 -222 103
t-92 257q0 60 48 169t48 147t-9 58t-17 32t-35 25t-35 17t-45 14t-41 12q-6 12 -6 36z" />
    <glyph glyph-name="bar" unicode="|" horiz-adv-x="528" 
d="M292 1544q34 0 34 -8v-4l2 -1744q0 -10 -53 -22t-64 -12t-11 16v1744q-2 12 10 16q48 14 82 14z" />
    <glyph glyph-name="braceright" unicode="}" horiz-adv-x="650" 
d="M334 424q0 -36 48 -145t48 -169q0 -154 -92 -257t-222 -103q-8 0 -8 27t22 31q56 4 127 72t71 147t-51 180t-51 190t55 153t115 66q-58 2 -113 70t-55 157t50 201t50 191t-70 141t-128 66q-22 4 -22 31t8 27q134 0 226 -93t92 -257q0 -64 -50 -176t-50 -162t30 -83
t61 -45t89 -26q8 -14 8 -38t-6 -36q-110 -27 -140 -55q-30 -27 -36 -48t-6 -57z" />
    <glyph glyph-name="asciitilde" unicode="~" horiz-adv-x="1152" 
d="M112 561q0 33 55 74t97 57t122 16t222 -53t210 -53t92 12t31 15q9 4 43 29q34 26 40 32q18 -10 18 -44t-54 -74t-95 -56t-121 -16t-222 53t-220 53t-141 -42q-15 -10 -59 -46q-18 10 -18 43z" />
    <glyph glyph-name="uni00A0" unicode="&#xa0;" horiz-adv-x="324" 
 />
    <glyph glyph-name="exclamdown" unicode="&#xa1;" horiz-adv-x="332" 
d="M50 746q0 48 33 83t81 35t82 -35t34 -83t-34 -81t-82 -33t-81 33t-33 81zM161 -448q-45 0 -68 37t-23 73t17 199t45 613q2 30 10 41t38 25q10 4 17 -10t9 -34q25 -410 42 -593q16 -183 16 -229t-29 -84t-74 -38z" />
    <glyph glyph-name="cent" unicode="&#xa2;" horiz-adv-x="928" 
d="M508 870q19 0 37 -1l-12 -74q-21 5 -45 5q-84 0 -150 -75t-66 -237t78 -273q32 -46 77 -73l-24 -144q-98 26 -171 101q-112 115 -112 307t109 328t279 136zM558 948q70 0 70 -16l-11 -71q-35 6 -72 8zM403 -2q34 -9 71 -12l-12 -76q-70 0 -70 18zM533 795q33 -8 68 -31
l-106 -650q-37 9 -68 28zM576 104q42 0 81 10t65 24t46 27t31 23t13 10t7 -10t5 -26t-12 -28q-138 -150 -296 -150q-22 0 -42 2l21 128q39 -10 81 -10zM740 636q-20 0 -30 10l-17 17q-7 7 -35 44t-57 57l16 97q155 -27 195 -99q0 -126 -72 -126z" />
    <glyph glyph-name="sterling" unicode="&#xa3;" horiz-adv-x="946" 
d="M200 846q0 188 101 306t263 118q104 0 154 -74q0 -118 -60 -118q-42 0 -86 54t-89 54q-95 0 -122 -100q-21 -78 -21 -153t10 -295h286q10 0 10 -30t-30 -50h-262q2 -38 2 -42q0 -196 -90 -348q46 18 124 18t188 -32t141 -32t54 18t35 37t30 53t22 40q12 0 25 -11t13 -25
t-2 -18q-88 -232 -234 -232q-68 0 -202 37t-192 37t-138 -76q-18 0 -28 13t-10 25q18 34 50 80t42 63t16 38t9 47t5 48q4 44 4 105v97q0 10 -3 60h-115q-10 0 -10 31t12 49h109q-11 132 -11 208z" />
    <glyph glyph-name="currency" unicode="&#xa4;" horiz-adv-x="936" 
d="M826 610q0 -114 -66 -212l108 -116q8 -8 -4 -25q-31 -44 -84 -57l-104 110q-96 -70 -218 -70t-222 80l-106 -100q-8 -8 -25 4q-44 31 -57 84l108 102q-60 94 -60 214t76 222l-104 112q-8 8 4 25q31 44 84 57l104 -110q90 62 210 62t218 -82l118 110q8 8 25 -4
q44 -31 57 -84l-120 -112q58 -96 58 -210zM476 304q92 0 149 84t57 211t-71 227t-162 100t-149 -86t-58 -212t71 -225t163 -99z" />
    <glyph glyph-name="yen" unicode="&#xa5;" horiz-adv-x="1316" 
d="M274 1272q28 0 262 12q4 -8 3 -31t-7 -23q-34 0 -75 -16t-41 -43t20 -63l218 -412q10 -10 20 4q264 400 264 468q0 22 -38 42t-96 20q-8 0 -8 23t8 31q132 -12 179 -12t281 12q4 -12 4 -33t-8 -21q-26 0 -96 -17t-90 -41q-84 -130 -219 -356t-135 -252v-56h184
q10 0 10 -29t-12 -47h-182v-80h184q10 0 10 -29t-12 -47h-182q0 -130 14 -184q4 -14 52 -29t66 -15q8 0 8 -21t-4 -33q-196 10 -210 10t-234 -10q-8 8 -8 31t8 23q24 0 71 14t53 30q16 62 16 184h-184q-10 0 -10 29t12 47h182v80h-184q-10 0 -10 29t12 47h182q0 28 -2 32
q-8 36 -282 524q-36 70 -86 124q-18 18 -61 30t-67 12q-8 0 -8 23t8 31q192 -12 220 -12z" />
    <glyph glyph-name="brokenbar" unicode="&#xa6;" horiz-adv-x="274" 
d="M74 -230v728q-2 12 10 16q48 14 81 14t33 -8v-4l2 -728q-23 -23 -104 -32l-12 -2q-10 0 -10 16zM165 1536q33 0 33 -8v-4l2 -730q-2 0 -4 -4q-7 -13 -59 -21q-63 -9 -63 -2v739q-2 12 10 16q48 14 81 14z" />
    <glyph glyph-name="section" unicode="&#xa7;" horiz-adv-x="764" 
d="M616 450q0 78 -51 135t-117 88t-141 83t-111 114q-52 -42 -52 -112t51 -127t116 -87t141 -83t112 -115l21 21q9 9 11 13t6 11q14 25 14 59zM550 1114q-26 0 -80 54t-102 54t-85 -32t-37 -100t48 -116t115 -79t135 -68t116 -113t48 -188q0 -164 -118 -246q28 -62 28 -119
t-29 -111t-75 -81q-87 -51 -203 -51q-117 0 -163 68l-2 28q0 90 64 90q26 0 80 -53t106 -53t85 33t33 100t-48 115t-115 79t-135 67t-116 111t-48 187q0 164 118 248q-28 48 -28 98q0 128 84 197t210 69t174 -72l2 -26q0 -90 -62 -90z" />
    <glyph glyph-name="dieresis" unicode="&#xa8;" horiz-adv-x="666" 
d="M156 1132q40 0 69 -30t29 -70t-30 -68t-70 -28t-70 29t-30 69t31 69t71 29zM522 1132q40 0 69 -30t29 -70t-30 -68t-70 -28t-70 29t-30 69t31 69t71 29z" />
    <glyph glyph-name="copyright" unicode="&#xa9;" horiz-adv-x="1206" 
d="M122 684q0 -200 141 -342t341 -142t342 142t142 342t-142 342t-342 142t-341 -142t-141 -342zM56 684q0 226 160 386t386 160t387 -160t161 -386t-161 -386t-387 -160t-386 160t-160 386zM602 390q-120 0 -202 82t-82 202t80 206t203 86t223 -38q32 -114 32 -122
q0 -18 -32 -18q-6 0 -14 4q-4 20 -18 40t-59 43t-117 23t-128 -62t-56 -160t66 -160t156 -62q143 0 158 92q2 12 4 12q36 0 40 -6q0 -10 -16 -65t-24 -59q-94 -38 -214 -38z" />
    <glyph glyph-name="ordfeminine" unicode="&#xaa;" horiz-adv-x="632" 
d="M472 636q0 -28 14 -49t32 -21t30 6l20 10l6 4q6 -2 4 -11t-6 -29q-64 -46 -96 -46t-61 27t-39 55l-16 -14q-90 -70 -155 -70t-107 34t-42 110t109 131q37 19 61 27t67 23t57 19q12 2 12 20v116q0 36 -27 58t-68 22t-68 -28t-27 -73t-68 -45q-42 0 -42 22q0 60 85 119
t171 59t120 -35t34 -109v-332zM362 648v136q-14 -6 -54 -18t-64 -22t-46 -33t-22 -58t23 -55t58 -20t70 24t35 46z" />
    <glyph glyph-name="guillemotleft" unicode="&#xab;" horiz-adv-x="938" 
d="M520 167q-6 -7 -12 -10t-16 -6t-12 -5q-10 20 -145 122t-267 186q-14 6 -14 35t16 47q256 154 412 310q46 -12 46 -38q0 -12 -18 -31t-74 -73t-124 -125t-82 -85l174 -180q20 -20 40 -39t34 -33l26 -26q22 -22 22 -32t-6 -17zM878 167q-6 -7 -12 -10t-16 -6t-12 -5
q-10 20 -145 122t-267 186q-14 6 -14 35t16 47q256 154 412 310q46 -12 46 -38q0 -12 -18 -31t-74 -73t-124 -125t-82 -85l174 -180q20 -20 40 -39t34 -33l26 -26q22 -22 22 -32t-6 -17z" />
    <glyph glyph-name="logicalnot" unicode="&#xac;" horiz-adv-x="1076" 
d="M88 840h888q24 0 24 -22v-480q-20 -20 -98 -30h-8q-8 0 -12 4t-2 8v388q0 20 -22 20h-788q-12 0 -12 20q10 92 30 92z" />
    <glyph glyph-name="registered" unicode="&#xae;" horiz-adv-x="1208" 
d="M612 856q28 0 52 27t24 65q0 110 -100 110q-68 0 -68 -12l-2 -74v-90q0 -26 94 -26zM788 951q0 -81 -96 -123q-2 0 -2 -4q0 -24 140 -210q32 -42 80 -42q2 -4 2 -12q0 -16 -30 -16q-94 0 -145 43t-151 209q-10 16 -26 17t-38 -1q-4 0 -4 -14v-128q2 -60 8 -82
q2 -6 23 -12t29 -6q2 0 3 -10t-1 -14q-34 2 -110 2t-116 -2q-4 4 -4 14t4 10q10 0 32 6t24 12q6 18 6 50l-2 32v310q2 16 2 40t-6 42q-2 6 -23 13t-31 7q-2 0 -2 11t2 13q38 -6 96 -6l148 8q66 0 127 -38t61 -119zM124 814q0 -200 141 -342t341 -142t342 142t142 342
t-142 341t-342 141t-341 -141t-141 -341zM58 814q0 226 160 386t386 160t387 -160t161 -386t-161 -387t-387 -161t-386 161t-160 387z" />
    <glyph glyph-name="macron" unicode="&#xaf;" horiz-adv-x="920" 
d="M1080 1118q0 74 24 74h416q10 0 10 -17t-7 -42t-15 -33h-416q-12 6 -12 18z" />
    <glyph glyph-name="degree" unicode="&#xb0;" horiz-adv-x="466" 
d="M110 1071q0 -51 37 -87t87 -36t86 36t36 88t-36 87t-87 35t-87 -36t-36 -87zM36 1072q0 80 58 138t140 58t139 -58t57 -139t-58 -139t-139 -58t-139 59t-58 139z" />
    <glyph glyph-name="plusminus" unicode="&#xb1;" horiz-adv-x="1066" 
d="M590 218q0 -17 -102 -34q-10 0 -10 16v398q0 10 -12 10h-398q-12 0 -12 24t9 54t12 32t7 2h384q10 0 10 12v380q-2 10 10 14q54 16 82 16l20 -12v-400q0 -10 8 -10h400q16 0 16 -10q0 -16 -12 -59t-18 -43h-386q-8 0 -8 -6v-384zM309 124h678q3 0 8 -6t2 -25
q-11 -71 -31 -81h-900q-2 0 -9 12t6 54t16 44t230 2z" />
    <glyph glyph-name="uni00B2" unicode="&#xb2;" horiz-adv-x="676" 
d="M288 1188q-68 0 -136 -82q-4 -4 -15 5t-20 23t-9 22t2 10q40 52 110 90t149 38t143 -62t64 -159t-78 -186q-78 -88 -163 -160q-85 -71 -99 -83t-14 -18t4 -6h274q65 0 80 48l6 24q2 4 16 5t22 -11q-8 -20 -42 -178l-250 2l-254 -2q-24 12 -24 31t8 35q16 18 61 66t71 76
t66 74q162 186 162 271q0 49 -33 88t-101 39z" />
    <glyph glyph-name="uni00B3" unicode="&#xb3;" horiz-adv-x="632" 
d="M348 1294q56 0 112 -43t56 -113q0 -42 -21 -75t-43 -49t-68 -46q54 0 123 -55t69 -143q0 -126 -108 -201t-248 -75q-58 0 -106 17t-60 35v14q0 30 16 52t43 22t69 -34t76 -34q70 0 123 45t53 123t-36 116t-94 38q-12 0 -104 -12q-18 18 -18 36t18 24q80 16 132 59t52 113
q0 38 -31 61t-71 23t-71 -19t-50 -38t-28 -19t-19 34t-8 36q88 108 242 108z" />
    <glyph glyph-name="acute" unicode="&#xb4;" horiz-adv-x="920" 
d="M1257 1374q41 0 66 -14t25 -34q0 -50 -143 -161t-168 -111t-25 26q0 18 76 128t110 148q18 18 59 18z" />
    <glyph glyph-name="uni00B5" unicode="&#xb5;" horiz-adv-x="1018" 
d="M217 874q21 0 65 -28t44 -46q0 -92 -46 -308l-10 -46q0 -132 26 -225t76 -93q92 0 165 98t119 228v380q24 40 45 40t65 -28t44 -46q0 -92 -46 -308l-10 -46q-4 -312 116 -312q34 0 67 20t47 40q8 0 17 -16t9 -26q-20 -66 -73 -113t-105 -47t-83 44t-42 92t-23 128
q-118 -274 -300 -274q-54 0 -83 49q-9 15 -14 22t-12 26t-17 44t-10 29q0 -126 12 -294t32 -272q-24 -40 -45 -40t-65 28t-44 46q0 64 13 360t29 428l-8 188v238q24 40 45 40z" />
    <glyph glyph-name="paragraph" unicode="&#xb6;" horiz-adv-x="992" 
d="M568 676q0 -12 16 -12l74 12q10 0 10 12q0 460 -4 512q0 6 -16 14t-30 8q-46 0 -46 -24q-4 -318 -4 -522zM584 4q-88 0 -244 -12q-4 8 -3 31t7 23q18 0 68 15t54 29q10 42 10 276v202q0 14 -40 14q-158 0 -251 116t-93 256t106 245t236 105l222 -8l226 10q8 -8 8 -33
t-8 -25q-26 0 -71 -12t-51 -30t-6 -206l2 -300q0 -12 10 -8l86 16q8 -16 8 -26q-4 -40 -40 -50l-52 -14q-10 -6 -10 -10q0 -466 14 -518q6 -16 55 -30t73 -14q8 0 8 -23t-8 -31q-228 12 -316 12zM620 72q14 0 27 9t13 19q8 90 8 490q0 8 -5 8t-24 -4t-45 -7t-26 -15l4 -474
q0 -26 48 -26z" />
    <glyph glyph-name="periodcentered" unicode="&#xb7;" horiz-adv-x="406" 
d="M94 528q0 48 34 82t82 34t82 -34t34 -82t-34 -83t-82 -35t-82 35t-34 83z" />
    <glyph glyph-name="cedilla" unicode="&#xb8;" horiz-adv-x="920" 
d="M1265 -230q11 0 33 -13t51 -13t52 19t23 49t-20 48t-40 18t-54 -14q-4 0 -13 10t-4 19t29 46t32 53h42l-36 -46h50q38 0 63 -29t25 -69q0 -68 -54 -110t-115 -42t-87 18l-6 28q0 10 9 19t20 9z" />
    <glyph glyph-name="uni00B9" unicode="&#xb9;" horiz-adv-x="544" 
d="M84 533q0 23 8 23q22 0 65 9t47 19q12 32 12 62v390q0 64 -9 83t-27 19t-104 -30q-2 0 -7 3t-8 4t-8 8t-5 18t6 15q174 70 270 132l30 16h4q8 0 24 -46q-18 -84 -18 -162v-416q0 -58 16 -94q4 -10 45 -19t57 -9q8 0 8 -24t-2 -28l-196 6l-200 -6q-8 4 -8 27z" />
    <glyph glyph-name="ordmasculine" unicode="&#xba;" horiz-adv-x="740" 
d="M372 1108q130 0 220 -92t90 -218t-89 -215t-219 -89t-223 90t-93 216t92 217t222 91zM366 1058q-84 0 -127 -71t-43 -173t51 -187t135 -85t123 73t39 175t-47 185t-131 83z" />
    <glyph glyph-name="guillemotright" unicode="&#xbb;" horiz-adv-x="942" 
d="M414 182q0 16 34 47t88 85l174 180q-14 14 -82 85t-140 141t-74 77t-2 13q0 14 22 25t24 11q152 -152 412 -310q16 -18 16 -47t-14 -35q-208 -133 -353 -254q-43 -36 -59 -54q-46 12 -46 36zM56 182q0 14 10 24l21 21q11 11 22 21t30 29l211 217q-14 14 -82 85t-125 127
t-73 73t-16 27q0 18 22 29t24 11q156 -156 410 -310q18 -20 18 -48t-16 -34q-200 -128 -351 -254q-43 -36 -59 -54q-46 12 -46 36z" />
    <glyph glyph-name="onequarter" unicode="&#xbc;" horiz-adv-x="1340" 
d="M80 528q0 22 8 22q22 0 61 10t43 20q12 32 12 62v366q0 80 -11 91t-22 11t-97 -30q-2 0 -7 3t-8 4t-8 8t-5 18t19 18q108 40 269 145h6q6 0 22 -48q-18 -82 -18 -160v-392q0 -58 16 -94q4 -10 45 -20t57 -10q10 0 10 -23t-2 -27l-190 6l-192 -6q-8 4 -8 26zM408 -32
q-38 0 -68 38l-2 14l696 1264q4 6 22 6t39 -22t17 -32v-2l-696 -1262q0 -4 -8 -4zM1066 326v258q-2 8 -10 8q-50 -60 -110 -138t-81 -103t-15 -30t8 -5h196q12 0 12 10zM1204 0q-10 -10 -74 -10t-64 18v216q-2 6 -10 6h-298q-24 30 -26 52l392 498q12 16 46 16t34 -16v-454
q0 -8 10 -8h54q24 0 24 -43t-8 -43l-4 -2l-70 -2q-6 0 -6 -10v-218z" />
    <glyph glyph-name="onehalf" unicode="&#xbd;" horiz-adv-x="1442" 
d="M80 528q0 22 8 22q22 0 61 10t43 20q12 32 12 62v366q0 80 -11 91t-22 11t-97 -30q-2 0 -7 3t-8 4t-8 8t-5 18t19 18q108 40 269 145h6q6 0 22 -48q-18 -82 -18 -160v-392q0 -58 16 -94q4 -10 45 -20t57 -10q10 0 10 -23t-2 -27l-190 6l-192 -6q-8 4 -8 26zM408 -32
q-38 0 -68 38q-4 4 -4 8v6l2 2l696 1264q2 4 10 4t39 -17t31 -29q0 -4 -2 -6v-2l-696 -1264q0 -4 -8 -4zM1260 112q36 0 57 21t28 42t9 21q28 0 40 -16q-6 -20 -40 -180h-504q-22 12 -22 33t6 33q10 12 61 66t71 77t64 73q50 57 106 140t56 132q0 50 -32 88t-79 38t-89 -23
t-68 -57q-4 -6 -16 -2t-14 10q-16 46 -12 50q40 52 109 90t148 38t143 -62t64 -159t-77 -185t-163 -160t-99 -84t-13 -18t4 -6h262z" />
    <glyph glyph-name="threequarters" unicode="&#xbe;" horiz-adv-x="1388" 
d="M450 -32q-14 0 -40 18t-26 28l698 1270q2 6 10 6q30 0 51 -22t17 -32v-2l-696 -1262q0 -4 -14 -4zM1114 326v258q-2 8 -10 8q-50 -60 -110 -138t-81 -103t-15 -30t8 -5h196q12 0 12 10zM1252 0q-10 -10 -74 -10t-64 18v216q-2 6 -10 6h-298q-24 30 -26 52l392 498
q12 16 46 16t34 -16v-454q0 -8 10 -8h54q24 0 24 -43t-8 -43l-4 -2l-70 -2q-6 0 -6 -10v-218zM346 1294q56 0 112 -43t56 -113q0 -42 -22 -75t-43 -49t-69 -46q54 0 123 -55t69 -143q0 -126 -108 -201t-248 -75q-58 0 -106 17t-60 35v14q0 30 17 52t43 22t68 -34t76 -34
q70 0 124 45t54 123t-37 116t-95 38q-8 0 -102 -12q-18 18 -18 36t18 24q80 16 131 59t51 113q0 38 -30 61t-70 23t-72 -19t-51 -38t-28 -19t-18 32t-7 38q88 108 242 108z" />
    <glyph glyph-name="questiondown" unicode="&#xbf;" horiz-adv-x="620" 
d="M568 742q0 -48 -34 -81t-82 -33t-82 33t-34 81t34 83t82 35t82 -35t34 -83zM148 -120q0 -86 48 -132t110 -46t99 7t63 7t57 -18t31 -61t-16 -69q-40 -20 -106 -20t-154 42t-160 131t-72 195t45 175t157 133q42 24 95 66t67 68t14 128q0 26 33 26t33 -16l2 -188
q0 -52 -11 -78t-16 -40t-21 -30t-21 -24t-26 -22t-25 -18t-27 -19t-49 -31q-58 -36 -104 -74t-46 -92z" />
    <glyph glyph-name="Agrave" unicode="&#xc0;" 
d="M665 594q63 0 157 6l6 10l-162 442l-172 -446q0 -8 4 -8q104 -4 167 -4zM240 4q-22 0 -192 -10q-8 8 -8 33t8 25q24 0 62 10t52 28q42 54 94 188l348 894q4 10 11 32t11 33t12 28q29 61 74 61l18 -6l400 -1056q36 -94 53 -134t67 -59t74 -19q8 0 8 -23t-4 -35
q-200 10 -211 10t-241 -10q-8 8 -7 33t9 25q24 0 60 10t42 26q4 16 4 49t-20 99l-90 248q-10 14 -139 14t-279 -10l-10 -6l-86 -220q-34 -100 -34 -133t17 -46t57 -22t58 -9q6 0 7 -24t-3 -34q-200 10 -222 10zM782 1482q0 -26 -20 -26q-38 0 -198 80t-160 126q0 22 26 41
t64 19t50 -6q54 -40 146 -130t92 -104z" />
    <glyph glyph-name="Aacute" unicode="&#xc1;" 
d="M665 594q63 0 157 6l6 10l-162 442l-172 -446q0 -8 4 -8q104 -4 167 -4zM240 4q-22 0 -192 -10q-8 8 -8 33t8 25q24 0 62 10t52 28q42 54 94 188l348 894q4 10 11 32t11 33t12 28q29 61 74 61l18 -6l400 -1056q36 -94 53 -134t67 -59t74 -19q8 0 8 -23t-4 -35
q-200 10 -211 10t-241 -10q-8 8 -7 33t9 25q24 0 60 10t42 26q4 16 4 49t-20 99l-90 248q-10 14 -139 14t-279 -10l-10 -6l-86 -220q-34 -100 -34 -133t17 -46t57 -22t58 -9q6 0 7 -24t-3 -34q-200 10 -222 10zM602 1482q0 14 92 104t146 130q12 6 50 6t64 -19t26 -41
q0 -46 -160 -126t-198 -80q-20 0 -20 26z" />
    <glyph glyph-name="Acircumflex" unicode="&#xc2;" 
d="M665 594q63 0 157 6l6 10l-162 442l-172 -446q0 -8 4 -8q104 -4 167 -4zM240 4q-22 0 -192 -10q-8 8 -8 33t8 25q24 0 62 10t52 28q42 54 94 188l348 894q4 10 11 32t11 33t12 28q29 61 74 61l18 -6l400 -1056q36 -94 53 -134t67 -59t74 -19q8 0 8 -23t-4 -35
q-200 10 -211 10t-241 -10q-8 8 -7 33t9 25q24 0 60 10t42 26q4 16 4 49t-20 99l-90 248q-10 14 -139 14t-279 -10l-10 -6l-86 -220q-34 -100 -34 -133t17 -46t57 -22t58 -9q6 0 7 -24t-3 -34q-200 10 -222 10zM920 1396q-38 0 -210 116q-48 -36 -118 -76t-89 -40t-19 40
q8 8 51 47t85 78t70 79q14 16 23 16t35 -36q56 -78 172 -168q18 -14 18 -16q0 -40 -18 -40z" />
    <glyph glyph-name="Atilde" unicode="&#xc3;" 
d="M876 1532q64 0 94 68q4 2 12 2q18 0 18 -32q0 -56 -55 -98t-107 -42t-136 43t-144 43t-92 -70q-4 -2 -12 -2q-18 0 -18 32q0 56 55 98t106 42t133 -42t146 -42zM665 594q63 0 157 6l6 10l-162 442l-172 -446q0 -8 4 -8q104 -4 167 -4zM240 4q-22 0 -192 -10q-8 8 -8 33
t8 25q24 0 62 10t52 28q42 54 94 188l348 894q4 10 11 32t11 33t12 28q29 61 74 61l18 -6l400 -1056q36 -94 53 -134t67 -59t74 -19q8 0 8 -23t-4 -35q-200 10 -211 10t-241 -10q-8 8 -7 33t9 25q24 0 60 10t42 26q4 16 4 49t-20 99l-90 248q-10 14 -139 14t-279 -10l-10 -6
l-86 -220q-34 -100 -34 -133t17 -46t57 -22t58 -9q6 0 7 -24t-3 -34q-200 10 -222 10z" />
    <glyph glyph-name="Adieresis" unicode="&#xc4;" 
d="M665 594q63 0 157 6l6 10l-162 442l-172 -446q0 -8 4 -8q104 -4 167 -4zM240 4q-22 0 -192 -10q-8 8 -8 33t8 25q24 0 62 10t52 28q42 54 94 188l348 894q4 10 11 32t11 33t12 28q29 61 74 61l18 -6l400 -1056q36 -94 53 -134t67 -59t74 -19q8 0 8 -23t-4 -35
q-200 10 -211 10t-241 -10q-8 8 -7 33t9 25q24 0 60 10t42 26q4 16 4 49t-20 99l-90 248q-10 14 -139 14t-279 -10l-10 -6l-86 -220q-34 -100 -34 -133t17 -46t57 -22t58 -9q6 0 7 -24t-3 -34q-200 10 -222 10zM434 1556q0 42 29 71t71 29t71 -29t29 -71t-29 -71t-71 -29
t-71 29t-29 71zM796 1556q0 42 29 71t71 29t71 -29t29 -71t-29 -71t-71 -29t-71 29t-29 71z" />
    <glyph glyph-name="Aring" unicode="&#xc5;" 
d="M741 594q63 0 157 6l6 10l-162 442l-172 -446q0 -8 4 -8q104 -4 167 -4zM316 4q-22 0 -192 -10q-8 8 -8 33t8 25q24 0 62 10t52 28q42 54 94 188l348 894q4 10 11 32t11 33q29 80 70 88q-64 5 -114 55t-50 124t53 126t125 52t123 -52t51 -126t-50 -126t-116 -54l12 -4
l400 -1056q36 -94 53 -134t67 -59t74 -19q8 0 8 -23t-4 -35q-200 10 -211 10t-241 -10q-8 8 -7 33t9 25q24 0 60 10t42 26q4 16 4 49t-20 99l-90 248q-11 14 -139 14q-129 0 -279 -10l-10 -6l-86 -220q-34 -100 -34 -133t17 -46t57 -22t58 -9q6 0 7 -24t-3 -34
q-200 10 -222 10zM674 1504q0 -46 33 -79t78 -33t77 33t32 79t-31 78t-77 32t-79 -32t-33 -78z" />
    <glyph glyph-name="AE" unicode="&#xc6;" horiz-adv-x="1964" 
d="M994 466q0 28 -111 28t-265 -10l-10 -6l-138 -220q-58 -100 -65 -132t14 -53t101 -21q4 0 -1 -24t-9 -34q-120 6 -198 6t-216 -6q-4 4 1 31t13 27q88 0 132 42t128 180l554 894q14 24 14 44t-32 33t-58 13q-8 0 -8 25t8 33q98 -4 232 -4l646 16q8 -58 31 -153t27 -119
q-10 -10 -36 -10t-28 14q-30 110 -84 141t-148 31h-134q-172 0 -176 -26q-10 -48 -10 -168v-320q0 -12 90 -12h149q59 0 87 8t36 10t21 26t15 35t14 57q2 14 28 14t36 -10v-378q-8 -8 -33 -8t-31 16q-26 100 -35 109t-28 21t-184 12t-165 -18v-310q0 -130 18 -182
q6 -20 136 -20h96q186 0 252 34q30 16 67 71t59 131q4 12 35 12t43 -12q-98 -254 -108 -332l-682 12l-236 -10q-8 8 -8 33t8 25q24 0 75 15t57 31q14 54 14 172v196zM994 616v430q0 16 -18 16q-8 0 -18 -14l-274 -446q-2 -8 2 -8q104 -4 142 -4t142 4q24 0 24 22z" />
    <glyph glyph-name="Ccedilla" unicode="&#xc7;" horiz-adv-x="1312" 
d="M1202 384q36 0 66 -18q0 -22 -28 -153t-40 -137q-134 -81 -423 -87l-35 -43h60q46 0 75 -34t29 -82q0 -80 -64 -129t-137 -49t-101 20l-8 34q0 12 11 22t23 10t39 -15t61 -15t61 23t27 58t-23 56t-48 21t-63 -16q-4 0 -15 12t-7 20t30 47t38 59h-8q-264 0 -449 194
t-185 470t190 479t466 203q236 0 486 -50q-4 -268 -4 -288q0 -30 -42 -30q-20 0 -26 10q-29 126 -123 197q-41 31 -116 54t-169 23q-196 0 -334 -173t-138 -391q0 -352 233 -523q121 -89 303 -89t290 116q43 46 81 161q11 33 17 33z" />
    <glyph glyph-name="Egrave" unicode="&#xc8;" horiz-adv-x="1142" 
d="M60 26q0 26 6 26q26 0 77 14t63 35t12 185v756q0 118 -14 172q-6 16 -59 30t-79 14q-8 0 -8 25t8 33q104 -4 238 -4l646 16q8 -58 31 -153t27 -119q-10 -10 -36 -10t-28 14q-30 110 -84 141t-148 31h-134q-172 0 -176 -26q-10 -48 -10 -168v-320q0 -12 90 -12h149
q59 0 87 8t36 10t21 26t15 35t14 57q2 14 28 14t36 -10v-378q-8 -8 -33 -8t-31 16q-26 100 -35 109t-28 21t-184 12t-165 -18v-310q0 -130 18 -182q6 -20 136 -20h96q186 0 252 34q30 16 67 71t59 131q4 12 35 12t43 -12q-98 -254 -108 -332l-682 8l-242 -6q-6 6 -6 32z
M670 1482q0 -26 -20 -26q-38 0 -198 80t-160 126q0 22 26 41t64 19t50 -6q54 -40 146 -130t92 -104z" />
    <glyph glyph-name="Eacute" unicode="&#xc9;" horiz-adv-x="1142" 
d="M60 26q0 26 6 26q26 0 77 14t63 35t12 185v756q0 118 -14 172q-6 16 -59 30t-79 14q-8 0 -8 25t8 33q104 -4 238 -4l646 16q8 -58 31 -153t27 -119q-10 -10 -36 -10t-28 14q-30 110 -84 141t-148 31h-134q-172 0 -176 -26q-10 -48 -10 -168v-320q0 -12 90 -12h149
q59 0 87 8t36 10t21 26t15 35t14 57q2 14 28 14t36 -10v-378q-8 -8 -33 -8t-31 16q-26 100 -35 109t-28 21t-184 12t-165 -18v-310q0 -130 18 -182q6 -20 136 -20h96q186 0 252 34q30 16 67 71t59 131q4 12 35 12t43 -12q-98 -254 -108 -332l-682 8l-242 -6q-6 6 -6 32z
M488 1482q0 14 92 104t146 130q12 6 50 6t64 -19t26 -41q0 -46 -160 -126t-198 -80q-20 0 -20 26z" />
    <glyph glyph-name="Ecircumflex" unicode="&#xca;" horiz-adv-x="1142" 
d="M60 26q0 26 6 26q26 0 77 14t63 35t12 185v756q0 118 -14 172q-6 16 -59 30t-79 14q-8 0 -8 25t8 33q104 -4 238 -4l646 16q8 -58 31 -153t27 -119q-10 -10 -36 -10t-28 14q-30 110 -84 141t-148 31h-134q-172 0 -176 -26q-10 -48 -10 -168v-320q0 -12 90 -12h149
q59 0 87 8t36 10t21 26t15 35t14 57q2 14 28 14t36 -10v-378q-8 -8 -33 -8t-31 16q-26 100 -35 109t-28 21t-184 12t-165 -18v-310q0 -130 18 -182q6 -20 136 -20h96q186 0 252 34q30 16 67 71t59 131q4 12 35 12t43 -12q-98 -254 -108 -332l-682 8l-242 -6q-6 6 -6 32z
M776 1396q-38 0 -210 116q-48 -36 -118 -76t-89 -40t-19 40q8 8 51 47t85 78t70 79q14 16 23 16t35 -36q56 -78 172 -168q18 -14 18 -16q0 -40 -18 -40z" />
    <glyph glyph-name="Edieresis" unicode="&#xcb;" horiz-adv-x="1142" 
d="M60 26q0 26 6 26q26 0 77 14t63 35t12 185v756q0 118 -14 172q-6 16 -59 30t-79 14q-8 0 -8 25t8 33q104 -4 238 -4l646 16q8 -58 31 -153t27 -119q-10 -10 -36 -10t-28 14q-30 110 -84 141t-148 31h-134q-172 0 -176 -26q-10 -48 -10 -168v-320q0 -12 90 -12h149
q59 0 87 8t36 10t21 26t15 35t14 57q2 14 28 14t36 -10v-378q-8 -8 -33 -8t-31 16q-26 100 -35 109t-28 21t-184 12t-165 -18v-310q0 -130 18 -182q6 -20 136 -20h96q186 0 252 34q30 16 67 71t59 131q4 12 35 12t43 -12q-98 -254 -108 -332l-682 8l-242 -6q-6 6 -6 32z
M288 1556q0 42 29 71t71 29t71 -29t29 -71t-29 -71t-71 -29t-71 29t-29 71zM650 1556q0 42 29 71t71 29t71 -29t29 -71t-29 -71t-71 -29t-71 29t-29 71z" />
    <glyph glyph-name="Igrave" unicode="&#xcc;" horiz-adv-x="636" 
d="M232 1046q0 124 -14 178q-6 16 -57 29t-77 13q-8 0 -8 25t8 33q230 -10 251 -10t221 10q4 -12 4 -35t-8 -23q-20 0 -72 -14t-56 -28q-18 -70 -18 -186v-760q0 -116 18 -186q4 -14 56 -27t72 -13q8 0 8 -23t-4 -35q-200 10 -221 10t-251 -10q-8 8 -8 33t8 25q26 0 77 12
t57 28q14 54 14 178v776zM450 1482q0 -26 -20 -26q-38 0 -198 80t-160 126q0 22 26 41t64 19t50 -6q54 -40 146 -130t92 -104z" />
    <glyph glyph-name="Iacute" unicode="&#xcd;" horiz-adv-x="636" 
d="M232 1046q0 124 -14 178q-6 16 -57 29t-77 13q-8 0 -8 25t8 33q230 -10 251 -10t221 10q4 -12 4 -35t-8 -23q-20 0 -72 -14t-56 -28q-18 -70 -18 -186v-760q0 -116 18 -186q4 -14 56 -27t72 -13q8 0 8 -23t-4 -35q-200 10 -221 10t-251 -10q-8 8 -8 33t8 25q26 0 77 12
t57 28q14 54 14 178v776zM222 1482q0 14 92 104t146 130q12 6 50 6t64 -19t26 -41q0 -46 -160 -126t-198 -80q-20 0 -20 26z" />
    <glyph glyph-name="Icircumflex" unicode="&#xce;" horiz-adv-x="636" 
d="M232 1046q0 124 -14 178q-6 16 -57 29t-77 13q-8 0 -8 25t8 33q230 -10 251 -10t221 10q4 -12 4 -35t-8 -23q-20 0 -72 -14t-56 -28q-18 -70 -18 -186v-760q0 -116 18 -186q4 -14 56 -27t72 -13q8 0 8 -23t-4 -35q-200 10 -221 10t-251 -10q-8 8 -8 33t8 25q26 0 77 12
t57 28q14 54 14 178v776zM540 1410q-38 0 -210 116q-48 -36 -118 -76t-89 -40t-19 40q8 8 51 47t85 78t70 79q14 16 23 16t35 -36q56 -78 172 -168q18 -14 18 -16q0 -40 -18 -40z" />
    <glyph glyph-name="Idieresis" unicode="&#xcf;" horiz-adv-x="636" 
d="M232 1046q0 124 -14 178q-6 16 -57 29t-77 13q-8 0 -8 25t8 33q230 -10 251 -10t221 10q4 -12 4 -35t-8 -23q-20 0 -72 -14t-56 -28q-18 -70 -18 -186v-760q0 -116 18 -186q4 -14 56 -27t72 -13q8 0 8 -23t-4 -35q-200 10 -221 10t-251 -10q-8 8 -8 33t8 25q26 0 77 12
t57 28q14 54 14 178v776zM48 1556q0 42 29 71t71 29t71 -29t29 -71t-29 -71t-71 -29t-71 29t-29 71zM410 1556q0 42 29 71t71 29t71 -29t29 -71t-29 -71t-71 -29t-71 29t-29 71z" />
    <glyph glyph-name="Eth" unicode="&#xd0;" horiz-adv-x="1462" 
d="M1386 657q0 -275 -184 -469t-508 -194q-24 0 -145 4t-197 2l-242 -6q-6 6 -6 32t6 26q26 0 77 14t63 35t12 185v330h-122q-10 0 -10 31t12 49h120v346q0 118 -14 172q-6 16 -59 30t-79 14q-8 0 -8 25t8 33q104 -4 238 -4l348 4q326 0 508 -192t182 -467zM436 616v-338
q0 -84 30 -152q8 -20 107 -30t153 -10q230 0 349 151t119 443q0 226 -125 387t-357 161h-10q-216 0 -241 -34t-25 -124v-374h396q12 0 12 -26t-12 -54h-396z" />
    <glyph glyph-name="Ntilde" unicode="&#xd1;" horiz-adv-x="1442" 
d="M876 1532q64 0 94 68q4 2 12 2q18 0 18 -32q0 -56 -55 -98t-107 -42t-136 43t-144 43t-92 -70q-4 -2 -12 -2q-18 0 -18 32q0 56 55 98t106 42t133 -42t146 -42zM1394 1291q0 -21 -8 -21q-20 0 -87 -16t-71 -30q-16 -62 -16 -186v-760q0 -124 6 -280q-8 -8 -40 -8t-64 46
l-776 1100v-854q0 -132 14 -186q4 -14 67 -29t83 -15q6 0 7 -24t-3 -34q-200 10 -230 10l-230 -10q-6 6 -6 32t6 26q28 0 91 15t69 33q20 52 20 188v786q0 98 -14 150q-6 16 -68 29t-90 13q-8 0 -8 25t8 33q156 -4 232 -4t132 4q74 -136 678 -980q6 34 6 82v622
q0 122 -14 176q-6 16 -69 31t-89 15q-8 0 -8 23t8 31q156 -12 236 -12l224 12q4 -12 4 -33z" />
    <glyph glyph-name="Ograve" unicode="&#xd2;" horiz-adv-x="1456" 
d="M88 656q0 280 187 479t451 199t452 -199t188 -479t-188 -478t-452 -198t-451 198t-187 478zM696 1250q-190 0 -300 -166t-110 -384q0 -160 52 -302t162 -237t248 -95t234 83q186 161 186 469q0 160 -52 301t-162 236t-258 95zM832 1482q0 -26 -20 -26q-38 0 -198 80
t-160 126q0 22 26 41t64 19t50 -6q54 -40 146 -130t92 -104z" />
    <glyph glyph-name="Oacute" unicode="&#xd3;" horiz-adv-x="1456" 
d="M88 656q0 280 187 479t451 199t452 -199t188 -479t-188 -478t-452 -198t-451 198t-187 478zM696 1250q-190 0 -300 -166t-110 -384q0 -160 52 -302t162 -237t248 -95t234 83q186 161 186 469q0 160 -52 301t-162 236t-258 95zM612 1482q0 14 92 104t146 130q12 6 50 6
t64 -19t26 -41q0 -46 -160 -126t-198 -80q-20 0 -20 26z" />
    <glyph glyph-name="Ocircumflex" unicode="&#xd4;" horiz-adv-x="1456" 
d="M88 656q0 280 187 479t451 199t452 -199t188 -479t-188 -478t-452 -198t-451 198t-187 478zM696 1250q-190 0 -300 -166t-110 -384q0 -160 52 -302t162 -237t248 -95t234 83q186 161 186 469q0 160 -52 301t-162 236t-258 95zM946 1396q-38 0 -210 116q-48 -36 -118 -76
t-89 -40t-19 40q8 8 51 47t85 78t70 79q14 16 23 16t35 -36q56 -78 172 -168q18 -14 18 -16q0 -40 -18 -40z" />
    <glyph glyph-name="Otilde" unicode="&#xd5;" horiz-adv-x="1456" 
d="M88 656q0 280 187 479t451 199t452 -199t188 -479t-188 -478t-452 -198t-451 198t-187 478zM696 1250q-190 0 -300 -166t-110 -384q0 -160 52 -302t162 -237t248 -95t234 83q186 161 186 469q0 160 -52 301t-162 236t-258 95zM876 1532q64 0 94 68q4 2 12 2q18 0 18 -32
q0 -56 -55 -98t-107 -42t-136 43t-144 43t-92 -70q-4 -2 -12 -2q-18 0 -18 32q0 56 55 98t106 42t133 -42t146 -42z" />
    <glyph glyph-name="Odieresis" unicode="&#xd6;" horiz-adv-x="1456" 
d="M88 656q0 280 187 479t451 199t452 -199t188 -479t-188 -478t-452 -198t-451 198t-187 478zM696 1250q-190 0 -300 -166t-110 -384q0 -160 52 -302t162 -237t248 -95t234 83q186 161 186 469q0 160 -52 301t-162 236t-258 95zM456 1556q0 42 29 71t71 29t71 -29t29 -71
t-29 -71t-71 -29t-71 29t-29 71zM818 1556q0 42 29 71t71 29t71 -29t29 -71t-29 -71t-71 -29t-71 29t-29 71z" />
    <glyph glyph-name="multiply" unicode="&#xd7;" horiz-adv-x="828" 
d="M109 120q-7 0 -31 40t-24 56l276 270q2 2 2 7t-4 9l-274 274q0 20 26 57t36 37q2 0 10 -8l284 -282q4 -4 8 -4l4 2l282 282q6 6 13 6t31 -41t24 -57l-270 -270q-2 -2 -2 -6v-4l272 -272q0 -22 -20 -59t-31 -37t-17 6l-280 280q-4 4 -8 4t-8 -4l-286 -280q-6 -6 -13 -6z
" />
    <glyph glyph-name="Oslash" unicode="&#xd8;" horiz-adv-x="1392" 
d="M1334 656q0 -280 -188 -478t-452 -198q-182 0 -328 95l-64 -101q-18 6 -41 22t-17 24l63 98q-33 27 -64 60q-187 198 -187 478t187 479t451 199q181 0 326 -94l60 94q16 -4 40 -20t18 -24l-59 -93q35 -28 67 -62q188 -199 188 -479zM652 1250q-178 0 -288 -166t-110 -384
q0 -160 42 -273t92 -181l562 883q-120 121 -298 121zM726 66q128 0 224 83q186 161 186 469q0 160 -42 274t-94 181l-562 -884q123 -123 288 -123z" />
    <glyph glyph-name="Ugrave" unicode="&#xd9;" horiz-adv-x="1438" 
d="M1398 1291q0 -21 -8 -21q-20 0 -87 -16t-71 -30q-16 -62 -16 -186v-486q0 -310 -130 -431t-369 -121t-367 140t-128 452v454q0 124 -14 178q-6 16 -57 29t-77 13q-8 0 -8 25t8 33q230 -10 251 -10t221 10q4 -12 4 -35t-8 -23q-20 0 -72 -14t-56 -28q-18 -70 -18 -186
v-446q0 -226 96 -360t272 -134q342 0 342 450v500q0 122 -14 176q-6 16 -69 31t-89 15q-8 0 -8 23t8 31q156 -12 236 -12l224 12q4 -12 4 -33zM846 1482q0 -26 -20 -26q-38 0 -198 80t-160 126q0 22 26 41t64 19t50 -6q54 -40 146 -130t92 -104z" />
    <glyph glyph-name="Uacute" unicode="&#xda;" horiz-adv-x="1438" 
d="M1398 1291q0 -21 -8 -21q-20 0 -87 -16t-71 -30q-16 -62 -16 -186v-486q0 -310 -130 -431t-369 -121t-367 140t-128 452v454q0 124 -14 178q-6 16 -57 29t-77 13q-8 0 -8 25t8 33q230 -10 251 -10t221 10q4 -12 4 -35t-8 -23q-20 0 -72 -14t-56 -28q-18 -70 -18 -186
v-446q0 -226 96 -360t272 -134q342 0 342 450v500q0 122 -14 176q-6 16 -69 31t-89 15q-8 0 -8 23t8 31q156 -12 236 -12l224 12q4 -12 4 -33zM614 1482q0 14 92 104t146 130q12 6 50 6t64 -19t26 -41q0 -46 -160 -126t-198 -80q-20 0 -20 26z" />
    <glyph glyph-name="Ucircumflex" unicode="&#xdb;" horiz-adv-x="1438" 
d="M1398 1291q0 -21 -8 -21q-20 0 -87 -16t-71 -30q-16 -62 -16 -186v-486q0 -310 -130 -431t-369 -121t-367 140t-128 452v454q0 124 -14 178q-6 16 -57 29t-77 13q-8 0 -8 25t8 33q230 -10 251 -10t221 10q4 -12 4 -35t-8 -23q-20 0 -72 -14t-56 -28q-18 -70 -18 -186
v-446q0 -226 96 -360t272 -134q342 0 342 450v500q0 122 -14 176q-6 16 -69 31t-89 15q-8 0 -8 23t8 31q156 -12 236 -12l224 12q4 -12 4 -33zM954 1396q-38 0 -210 116q-48 -36 -118 -76t-89 -40t-19 40q8 8 51 47t85 78t70 79q14 16 23 16t35 -36q56 -78 172 -168
q18 -14 18 -16q0 -40 -18 -40z" />
    <glyph glyph-name="Udieresis" unicode="&#xdc;" horiz-adv-x="1438" 
d="M1398 1291q0 -21 -8 -21q-20 0 -87 -16t-71 -30q-16 -62 -16 -186v-486q0 -310 -130 -431t-369 -121t-367 140t-128 452v454q0 124 -14 178q-6 16 -57 29t-77 13q-8 0 -8 25t8 33q230 -10 251 -10t221 10q4 -12 4 -35t-8 -23q-20 0 -72 -14t-56 -28q-18 -70 -18 -186
v-446q0 -226 96 -360t272 -134q342 0 342 450v500q0 122 -14 176q-6 16 -69 31t-89 15q-8 0 -8 23t8 31q156 -12 236 -12l224 12q4 -12 4 -33zM462 1556q0 42 29 71t71 29t71 -29t29 -71t-29 -71t-71 -29t-71 29t-29 71zM824 1556q0 42 29 71t71 29t71 -29t29 -71t-29 -71
t-71 -29t-71 29t-29 71z" />
    <glyph glyph-name="Yacute" unicode="&#xdd;" horiz-adv-x="1298" 
d="M1078 1312l188 12q4 -12 4 -33t-8 -21q-24 0 -84 -18t-80 -44q-76 -118 -221 -358t-145 -268v-304q0 -124 16 -186q4 -14 54 -29t68 -15q8 0 8 -21t-4 -33q-200 10 -215 10t-245 -10q-8 8 -8 31t8 23q24 0 73 14t55 30q16 62 16 192v250q0 28 -43 111t-162 298t-136 238
t-44 42t-71 33t-64 14q-8 0 -8 23t8 31q192 -12 228 -12t276 12q4 -8 3 -31t-7 -23q-34 0 -77 -17t-43 -45t22 -66l224 -424q10 -10 20 4q272 412 272 482q0 22 -40 44t-98 22q-8 0 -8 23t8 31q222 -12 260 -12zM614 1482q0 14 92 104t146 130q12 6 50 6t64 -19t26 -41
q0 -46 -160 -126t-198 -80q-20 0 -20 26z" />
    <glyph glyph-name="Thorn" unicode="&#xde;" horiz-adv-x="1112" 
d="M359 1314q21 0 221 10q4 -12 4 -35t-8 -23q-20 0 -72 -14t-56 -28q-18 -68 -18 -176v-40q0 -14 5 -14t53 14t126 14t145 -20t130 -60t103 -114t40 -152t-25 -145t-73 -130t-129 -104t-187 -41t-148 56q-12 14 -6 46q2 8 6 6q60 -22 147 -22t159 84t72 213t-62 212
t-177 83t-155 -14q-24 -8 -24 -74v-568q0 -116 18 -186q4 -14 56 -27t72 -13q8 0 8 -23t-4 -35q-200 10 -221 10t-251 -10q-8 8 -8 33t8 25q26 0 77 12t57 28q14 54 14 178v776q0 124 -14 178q-6 16 -57 29t-77 13q-8 0 -8 25t8 33q230 -10 251 -10z" />
    <glyph glyph-name="germandbls" unicode="&#xdf;" horiz-adv-x="1156" 
d="M926 1122q0 -76 -43 -142t-95 -104q-138 -101 -138 -156q0 -56 51 -98t121 -79q106 -56 173 -114t67 -166q0 -109 -76 -196t-174 -87t-165 28t-85 58q0 116 68 116q37 0 71 -68t110 -68q45 0 80 42t35 106t-40 106t-98 71t-116 62t-98 88t-40 118t25 104t61 72t71 66
q85 85 85 201t-51 177t-130 61t-120 -33q-89 -72 -89 -337l2 -680q0 -124 14 -178q4 -14 46 -27t60 -13q6 0 8 -24t-2 -34q-200 10 -203 10t-209 -10q-8 8 -8 33t8 25q24 0 65 13t45 27q18 70 19 262t1 368q0 16 -10 16h-106q-6 0 -6 16t11 47t19 31h82q10 0 10 12v32
q0 250 92 380t251 130t255 -65t96 -199z" />
    <glyph glyph-name="agrave" unicode="&#xe0;" horiz-adv-x="846" 
d="M458 872q120 0 168 -53t48 -171v-462q0 -42 22 -70t55 -28t75 28q8 0 8 -21t-10 -37q-82 -70 -134 -70t-94 38t-58 80q-2 0 -15 -13q-31 -31 -92 -69q-62 -38 -147 -38q-86 0 -146 49t-60 147q0 151 245 237q37 13 97 33t81 28t21 32v150q0 64 -40 99t-98 35t-98 -41
t-40 -109t-82 -68q-56 0 -78 38q0 86 126 171t246 85zM368 100q54 0 104 33t50 67v206q-16 -8 -78 -28t-97 -35t-68 -50t-33 -85t34 -79t88 -29zM174 1266q0 20 25 34t66 14t59 -18q74 -87 130 -179q56 -91 56 -97q0 -26 -25 -26t-168 111t-143 161z" />
    <glyph glyph-name="aacute" unicode="&#xe1;" horiz-adv-x="846" 
d="M458 872q120 0 168 -53t48 -171v-462q0 -42 22 -70t55 -28t75 28q8 0 8 -21t-10 -37q-82 -70 -134 -70t-94 38t-58 80q-2 0 -15 -13q-31 -31 -92 -69q-62 -38 -147 -38q-86 0 -146 49t-60 147q0 151 245 237q37 13 97 33t81 28t21 32v150q0 64 -40 99t-98 35t-98 -41
t-40 -109t-82 -68q-56 0 -78 38q0 86 126 171t246 85zM368 100q54 0 104 33t50 67v206q-16 -8 -78 -28t-97 -35t-68 -50t-33 -85t34 -79t88 -29zM567 1314q41 0 66 -14t25 -34q0 -50 -143 -161t-168 -111t-25 26q0 18 76 128t110 148q18 18 59 18z" />
    <glyph glyph-name="acircumflex" unicode="&#xe2;" horiz-adv-x="846" 
d="M458 872q120 0 168 -53t48 -171v-462q0 -42 22 -70t55 -28t75 28q8 0 8 -21t-10 -37q-82 -70 -134 -70t-94 38t-58 80q-2 0 -15 -13q-31 -31 -92 -69q-62 -38 -147 -38q-86 0 -146 49t-60 147q0 151 245 237q37 13 97 33t81 28t21 32v150q0 64 -40 99t-98 35t-98 -41
t-40 -109t-82 -68q-56 0 -78 38q0 86 126 171t246 85zM368 100q54 0 104 33t50 67v206q-16 -8 -78 -28t-97 -35t-68 -50t-33 -85t34 -79t88 -29zM606 980q0 -46 -15 -46t-77 45t-108 87q-44 -42 -104 -87t-77 -45t-17 46q6 8 73 84t94 122t31 46q10 0 39 -49t52 -79t50 -60
t43 -46t16 -18z" />
    <glyph glyph-name="atilde" unicode="&#xe3;" horiz-adv-x="846" 
d="M458 872q120 0 168 -53t48 -171v-462q0 -42 22 -70t55 -28t75 28q8 0 8 -21t-10 -37q-82 -70 -134 -70t-94 38t-58 80q-2 0 -15 -13q-31 -31 -92 -69q-62 -38 -147 -38q-86 0 -146 49t-60 147q0 151 245 237q37 13 97 33t81 28t21 32v150q0 64 -40 99t-98 35t-98 -41
t-40 -109t-82 -68q-56 0 -78 38q0 86 126 171t246 85zM368 100q54 0 104 33t50 67v206q-16 -8 -78 -28t-97 -35t-68 -50t-33 -85t34 -79t88 -29zM536 1096q64 0 94 68q4 2 12 2q18 0 18 -32q0 -56 -55 -98t-107 -42t-136 43t-144 43t-92 -70q-4 -2 -12 -2q-18 0 -18 32
q0 56 55 98t106 42t133 -42t146 -42z" />
    <glyph glyph-name="adieresis" unicode="&#xe4;" horiz-adv-x="846" 
d="M458 872q120 0 168 -53t48 -171v-462q0 -42 22 -70t55 -28t75 28q8 0 8 -21t-10 -37q-82 -70 -134 -70t-94 38t-58 80q-2 0 -15 -13q-31 -31 -92 -69q-62 -38 -147 -38q-86 0 -146 49t-60 147q0 151 245 237q37 13 97 33t81 28t21 32v150q0 64 -40 99t-98 35t-98 -41
t-40 -109t-82 -68q-56 0 -78 38q0 86 126 171t246 85zM368 100q54 0 104 33t50 67v206q-16 -8 -78 -28t-97 -35t-68 -50t-33 -85t34 -79t88 -29zM214 1190q40 0 69 -30t29 -70t-30 -68t-70 -28t-70 29t-30 69t31 69t71 29zM580 1190q40 0 69 -30t29 -70t-30 -68t-70 -28
t-70 29t-30 69t31 69t71 29z" />
    <glyph glyph-name="aring" unicode="&#xe5;" horiz-adv-x="846" 
d="M458 872q120 0 168 -53t48 -171v-462q0 -42 22 -70t55 -28t75 28q8 0 8 -21t-10 -37q-82 -70 -134 -70t-94 38t-58 80q-2 0 -15 -13q-31 -31 -92 -69q-62 -38 -147 -38q-86 0 -146 49t-60 147q0 151 245 237q37 13 97 33t81 28t21 32v150q0 64 -40 99t-98 35t-98 -41
t-40 -109t-82 -68q-56 0 -78 38q0 86 126 171t246 85zM368 100q54 0 104 33t50 67v206q-16 -8 -78 -28t-97 -35t-68 -50t-33 -85t34 -79t88 -29zM234 1174q0 74 52 126t124 52t123 -52t51 -126t-51 -127t-123 -53t-124 53t-52 127zM300 1174q0 -46 32 -79t77 -33t77 33
t32 79t-31 78t-77 32t-78 -32t-32 -78z" />
    <glyph glyph-name="ae" unicode="&#xe6;" horiz-adv-x="1350" 
d="M490 872q66 0 120 -29t72 -79q108 108 254 108q92 0 160 -33t102 -88q64 -104 64 -221q0 -18 -3 -27t-4 -13t-6 -7t-6 -4t-9 -2t-9 -2t-10 -1h-11q-202 -16 -478 -30q-16 0 -16 -16q0 -128 87 -220t206 -92t215 63q26 17 28 17q12 0 12 -26t-14 -40q-120 -142 -284 -142
q-210 0 -324 168q-48 -58 -137 -114t-184 -56t-155 49t-60 131q0 148 155 227q124 63 271 89q18 2 18 30v168q0 50 -41 83t-98 33t-97 -41t-40 -109t-82 -68q-56 0 -78 38q0 86 126 171t256 85zM928 798q-98 0 -157 -90t-59 -174q0 -12 12 -12q82 4 222 17t151 16t11 19
q0 54 -54 139t-126 85zM544 200v206q-276 -52 -276 -194q0 -54 34 -83t88 -29t104 33t50 67z" />
    <glyph glyph-name="ccedilla" unicode="&#xe7;" horiz-adv-x="810" 
d="M343 -222q11 0 33 -13t51 -13t52 19t23 49t-20 48t-40 18t-54 -14q-4 0 -13 10t-4 19t26 41t30 49q-133 15 -243 131t-110 298t100 317t304 135t288 -102q0 -134 -74 -134q-34 0 -52 15t-46 55q-62 92 -146 92t-151 -78t-67 -235t79 -263t212 -106t245 80q12 0 12 -21
t-12 -41q-40 -56 -118 -101t-170 -45h-13l-27 -34h50q38 0 63 -29t25 -69q0 -68 -54 -110t-115 -42t-87 18l-6 28q0 10 9 19t20 9z" />
    <glyph glyph-name="egrave" unicode="&#xe8;" horiz-adv-x="860" 
d="M519 116q135 0 247 80q12 0 12 -21t-12 -41q-40 -56 -118 -101t-170 -45q-166 0 -285 125t-119 320t113 317t283 122q92 0 162 -35t107 -90q71 -106 71 -225q0 -40 -12 -49t-46 -9h-504q-16 0 -16 -10q0 -126 76 -232t211 -106zM443 798q-97 0 -152 -89t-55 -147
q0 -14 12 -14h390q10 0 10 20q0 64 -54 147t-151 83zM210 1266q0 20 25 34t66 14t59 -18q74 -87 130 -179q56 -91 56 -97q0 -26 -25 -26t-168 111t-143 161z" />
    <glyph glyph-name="eacute" unicode="&#xe9;" horiz-adv-x="860" 
d="M519 116q135 0 247 80q12 0 12 -21t-12 -41q-40 -56 -118 -101t-170 -45q-166 0 -285 125t-119 320t113 317t283 122q92 0 162 -35t107 -90q71 -106 71 -225q0 -40 -12 -49t-46 -9h-504q-16 0 -16 -10q0 -126 76 -232t211 -106zM443 798q-97 0 -152 -89t-55 -147
q0 -14 12 -14h390q10 0 10 20q0 64 -54 147t-151 83zM591 1314q41 0 66 -14t25 -34q0 -50 -143 -161t-168 -111t-25 26q0 18 76 128t110 148q18 18 59 18z" />
    <glyph glyph-name="ecircumflex" unicode="&#xea;" horiz-adv-x="860" 
d="M650 980q0 -46 -15 -46t-77 45t-108 87q-44 -42 -104 -87t-77 -45t-17 46q6 8 73 84t94 122t31 46q10 0 39 -49t52 -79t50 -60t43 -46t16 -18zM519 116q135 0 247 80q12 0 12 -21t-12 -41q-40 -56 -118 -101t-170 -45q-166 0 -285 125t-119 320t113 317t283 122
q92 0 162 -35t107 -90q71 -106 71 -225q0 -40 -12 -49t-46 -9h-504q-16 0 -16 -10q0 -126 76 -232t211 -106zM443 798q-97 0 -152 -89t-55 -147q0 -14 12 -14h390q10 0 10 20q0 64 -54 147t-151 83z" />
    <glyph glyph-name="edieresis" unicode="&#xeb;" horiz-adv-x="860" 
d="M519 116q135 0 247 80q12 0 12 -21t-12 -41q-40 -56 -118 -101t-170 -45q-166 0 -285 125t-119 320t113 317t283 122q92 0 162 -35t107 -90q71 -106 71 -225q0 -40 -12 -49t-46 -9h-504q-16 0 -16 -10q0 -126 76 -232t211 -106zM443 798q-97 0 -152 -89t-55 -147
q0 -14 12 -14h390q10 0 10 20q0 64 -54 147t-151 83zM274 1190q40 0 69 -30t29 -70t-30 -68t-70 -28t-70 29t-30 69t31 69t71 29zM640 1190q40 0 69 -30t29 -70t-30 -68t-70 -28t-70 29t-30 69t31 69t71 29z" />
    <glyph glyph-name="igrave" unicode="&#xec;" horiz-adv-x="564" 
d="M356 682v-412q0 -116 16 -178q4 -14 52 -27t68 -13q6 0 8 -24t-2 -34q-200 10 -213 10t-219 -10q-8 8 -8 33t8 25q24 0 71 13t51 27q14 58 14 140v378q0 78 -24 105t-53 36t-48 9t-19 4q0 48 12 50q212 32 245 42t41 12q17 0 8 -61q-8 -61 -8 -125zM26 1266q0 20 25 34
t66 14t59 -18q74 -87 130 -179q56 -91 56 -97q0 -26 -25 -26t-168 111t-143 161z" />
    <glyph glyph-name="iacute" unicode="&#xed;" horiz-adv-x="564" 
d="M356 682v-412q0 -116 16 -178q4 -14 52 -27t68 -13q6 0 8 -24t-2 -34q-200 10 -213 10t-219 -10q-8 8 -8 33t8 25q24 0 71 13t51 27q14 58 14 140v378q0 78 -24 105t-53 36t-48 9t-19 4q0 48 12 50q212 32 245 42t41 12q17 0 8 -61q-8 -61 -8 -125zM387 1314q41 0 66 -14
t25 -34q0 -50 -143 -161t-168 -111t-25 26q0 18 76 128t110 148q18 18 59 18z" />
    <glyph glyph-name="icircumflex" unicode="&#xee;" horiz-adv-x="564" 
d="M460 980q0 -46 -15 -46t-77 45t-108 87q-44 -42 -104 -87t-77 -45t-17 46q6 8 73 84t94 122t31 46q10 0 39 -49t52 -79t50 -60t43 -46t16 -18zM356 682v-412q0 -116 16 -178q4 -14 52 -27t68 -13q6 0 8 -24t-2 -34q-200 10 -213 10t-219 -10q-8 8 -8 33t8 25q24 0 71 13
t51 27q14 58 14 140v378q0 78 -24 105t-53 36t-48 9t-19 4q0 48 12 50q212 32 245 42t41 12q17 0 8 -61q-8 -61 -8 -125z" />
    <glyph glyph-name="idieresis" unicode="&#xef;" horiz-adv-x="682" 
d="M442 682v-412q0 -116 16 -178q4 -14 52 -27t68 -13q6 0 8 -24t-2 -34q-200 10 -213 10t-219 -10q-8 8 -8 33t8 25q24 0 71 13t51 27q14 58 14 140v378q0 78 -24 105t-53 36t-48 9t-19 4q0 48 12 50q212 32 245 42t41 12q17 0 8 -61q-8 -61 -8 -125zM224 1190q40 0 69 -30
t29 -70t-30 -68t-70 -28t-70 29t-30 69t31 69t71 29zM544 1190q40 0 69 -30t29 -70t-30 -68t-70 -28t-70 29t-30 69t31 69t71 29z" />
    <glyph glyph-name="eth" unicode="&#xf0;" horiz-adv-x="1028" 
d="M460 796q-102 0 -167 -104t-65 -251t78 -262t188 -115t173 108t63 281t-38 223q-92 120 -232 120zM904 520q0 -224 -112 -379t-282 -155q-200 0 -327 135t-127 306t126 310t304 139q58 0 119 -18t83 -42q-28 138 -157 272q-34 36 -78 69l-215 -139q-46 52 -34 64l186 120
q-103 67 -246 126q0 12 9 30t19 18q157 -36 301 -120l239 154q44 -54 36 -62l-210 -136q237 -166 323 -422q43 -128 43 -270z" />
    <glyph glyph-name="ntilde" unicode="&#xf1;" horiz-adv-x="1086" 
d="M358 754q0 -16 3 -16t7 4q46 48 125 91t151 43q140 0 196 -100t56 -324v-182q0 -116 16 -178q4 -14 52 -27t68 -13q6 0 8 -24t-2 -34q-200 10 -209 10t-215 -10q-8 8 -8 33t8 25q24 0 67 13t47 27q14 58 14 140v200q0 186 -48 254t-156 68q-64 0 -123 -47t-59 -85v-352
q0 -116 16 -178q4 -14 52 -27t68 -13q6 0 8 -24t-2 -34q-200 10 -213 10t-219 -10q-8 8 -8 33t8 25q24 0 71 13t51 27q14 58 14 140v378q0 78 -24 105t-53 36t-48 9t-19 4q0 48 12 50q212 32 245 42t41 12q17 0 10 -49q-8 -49 -8 -65zM656 1100q64 0 94 68q4 2 12 2
q18 0 18 -32q0 -56 -55 -98t-107 -42t-136 43t-144 43t-92 -70q-4 -2 -12 -2q-18 0 -18 32q0 56 55 98t106 42t133 -42t146 -42z" />
    <glyph glyph-name="ograve" unicode="&#xf2;" horiz-adv-x="1020" 
d="M505 874q183 0 311 -130t128 -313t-125 -314t-307 -131t-310 131t-128 316t124 313t307 128zM490 796q-110 0 -177 -97t-67 -249t85 -269t195 -117t178 100t68 251t-86 266t-196 115zM316 1266q0 20 25 34t66 14t59 -18q74 -87 130 -179q56 -91 56 -97q0 -26 -25 -26
t-168 111t-143 161z" />
    <glyph glyph-name="oacute" unicode="&#xf3;" horiz-adv-x="1020" 
d="M505 874q183 0 311 -130t128 -313t-125 -314t-307 -131t-310 131t-128 316t124 313t307 128zM490 796q-110 0 -177 -97t-67 -249t85 -269t195 -117t178 100t68 251t-86 266t-196 115zM637 1314q41 0 66 -14t25 -34q0 -50 -143 -161t-168 -111t-25 26q0 18 76 128t110 148
q18 18 59 18z" />
    <glyph glyph-name="ocircumflex" unicode="&#xf4;" horiz-adv-x="1020" 
d="M702 980q0 -46 -15 -46t-77 45t-108 87q-44 -42 -104 -87t-77 -45t-17 46q6 8 73 84t94 122t31 46q10 0 39 -49t52 -79t50 -60t43 -46t16 -18zM505 874q183 0 311 -130t128 -313t-125 -314t-307 -131t-310 131t-128 316t124 313t307 128zM490 796q-110 0 -177 -97
t-67 -249t85 -269t195 -117t178 100t68 251t-86 266t-196 115z" />
    <glyph glyph-name="otilde" unicode="&#xf5;" horiz-adv-x="1020" 
d="M650 1098q64 0 94 68q4 2 12 2q18 0 18 -32q0 -56 -55 -98t-107 -42t-136 43t-144 43t-92 -70q-4 -2 -12 -2q-18 0 -18 32q0 56 55 98t106 42t133 -42t146 -42zM505 874q183 0 311 -130t128 -313t-125 -314t-307 -131t-310 131t-128 316t124 313t307 128zM490 796
q-110 0 -177 -97t-67 -249t85 -269t195 -117t178 100t68 251t-86 266t-196 115z" />
    <glyph glyph-name="odieresis" unicode="&#xf6;" horiz-adv-x="1020" 
d="M505 874q183 0 311 -130t128 -313t-125 -314t-307 -131t-310 131t-128 316t124 313t307 128zM490 796q-110 0 -177 -97t-67 -249t85 -269t195 -117t178 100t68 251t-86 266t-196 115zM326 1190q40 0 69 -30t29 -70t-30 -68t-70 -28t-70 29t-30 69t31 69t71 29zM692 1190
q40 0 69 -30t29 -70t-30 -68t-70 -28t-70 29t-30 69t31 69t71 29z" />
    <glyph glyph-name="divide" unicode="&#xf7;" horiz-adv-x="1056" 
d="M56 452q0 16 7 60t21 44h898q14 -2 14 -25t-10 -61t-18 -38l-4 -2h-896q-12 6 -12 22zM523 10q-39 0 -66 26t-31 68v8q0 38 30 68t69 30t66 -27t31 -69v-4q0 -36 -30 -68t-69 -32zM523 780q-39 0 -66 25t-31 65v8q0 38 30 67t69 29t66 -24t31 -64v-10q0 -36 -30 -66
t-69 -30z" />
    <glyph glyph-name="oslash" unicode="&#xf8;" horiz-adv-x="1066" 
d="M520 64q98 0 166 100t68 243t-70 251l-332 -523q70 -71 168 -71zM926 444q0 -196 -125 -327t-307 -131q-113 0 -205 50l-33 -52q-60 30 -54 42l30 48q-25 19 -48 43q-128 131 -128 316t124 313t310 128q119 0 216 -57l36 57q60 -26 54 -40l-35 -56q165 -138 165 -334z
M463 796q-101 0 -168 -97t-67 -246t79 -263l333 524q-76 82 -177 82z" />
    <glyph glyph-name="ugrave" unicode="&#xf9;" horiz-adv-x="1034" 
d="M870 682v-400q0 -86 14 -152q10 -34 100 -34l18 -2q6 -2 6 -15t-5 -26t-11 -13q-123 -8 -240 -52l-18 -4q-16 0 -16 32v102l-4 10q-132 -142 -262 -142q-74 0 -127 37t-78 98q-45 110 -45 237v252q0 78 -24 105t-53 36t-48 9t-19 4q0 48 12 50q212 32 245 42t41 12
q17 0 7 -69q-9 -69 -9 -121v-270q0 -154 46 -227t150 -73q60 0 114 47t54 81v374q0 78 -24 105t-53 36t-48 9t-19 4q0 48 12 50q212 32 245 42t41 12q17 0 7 -69q-9 -69 -9 -117zM306 1266q0 20 25 34t66 14t59 -18q74 -87 130 -179q56 -91 56 -97q0 -26 -25 -26t-168 111
t-143 161z" />
    <glyph glyph-name="uacute" unicode="&#xfa;" horiz-adv-x="1034" 
d="M870 682v-400q0 -86 14 -152q10 -34 100 -34l18 -2q6 -2 6 -15t-5 -26t-11 -13q-123 -8 -240 -52l-18 -4q-16 0 -16 32v102l-4 10q-132 -142 -262 -142q-74 0 -127 37t-78 98q-45 110 -45 237v252q0 78 -24 105t-53 36t-48 9t-19 4q0 48 12 50q212 32 245 42t41 12
q17 0 7 -69q-9 -69 -9 -121v-270q0 -154 46 -227t150 -73q60 0 114 47t54 81v374q0 78 -24 105t-53 36t-48 9t-19 4q0 48 12 50q212 32 245 42t41 12q17 0 7 -69q-9 -69 -9 -117zM703 1314q41 0 66 -14t25 -34q0 -50 -143 -161t-168 -111t-25 26q0 18 76 128t110 148
q18 18 59 18z" />
    <glyph glyph-name="ucircumflex" unicode="&#xfb;" horiz-adv-x="1034" 
d="M722 980q0 -46 -15 -46t-77 45t-108 87q-44 -42 -104 -87t-77 -45t-17 46q6 8 73 84t94 122t31 46q10 0 39 -49t52 -79t50 -60t43 -46t16 -18zM870 682v-400q0 -86 14 -152q10 -34 100 -34l18 -2q6 -2 6 -15t-5 -26t-11 -13q-123 -8 -240 -52l-18 -4q-16 0 -16 32v102
l-4 10q-132 -142 -262 -142q-74 0 -127 37t-78 98q-45 110 -45 237v252q0 78 -24 105t-53 36t-48 9t-19 4q0 48 12 50q212 32 245 42t41 12q17 0 7 -69q-9 -69 -9 -121v-270q0 -154 46 -227t150 -73q60 0 114 47t54 81v374q0 78 -24 105t-53 36t-48 9t-19 4q0 48 12 50
q212 32 245 42t41 12q17 0 7 -69q-9 -69 -9 -117z" />
    <glyph glyph-name="udieresis" unicode="&#xfc;" horiz-adv-x="1034" 
d="M870 682v-400q0 -86 14 -152q10 -34 100 -34l18 -2q6 -2 6 -15t-5 -26t-11 -13q-123 -8 -240 -52l-18 -4q-16 0 -16 32v102l-4 10q-132 -142 -262 -142q-74 0 -127 37t-78 98q-45 110 -45 237v252q0 78 -24 105t-53 36t-48 9t-19 4q0 48 12 50q212 32 245 42t41 12
q17 0 7 -69q-9 -69 -9 -121v-270q0 -154 46 -227t150 -73q60 0 114 47t54 81v374q0 78 -24 105t-53 36t-48 9t-19 4q0 48 12 50q212 32 245 42t41 12q17 0 7 -69q-9 -69 -9 -117zM346 1190q40 0 69 -30t29 -70t-30 -68t-70 -28t-70 29t-30 69t31 69t71 29zM712 1190
q40 0 69 -30t29 -70t-30 -68t-70 -28t-70 29t-30 69t31 69t71 29z" />
    <glyph glyph-name="yacute" unicode="&#xfd;" horiz-adv-x="908" 
d="M250 858q32 0 172 10q4 -12 4 -35t-8 -23q-16 0 -53 -14t-41 -28v-4q0 -36 214 -522l152 438q14 42 14 67t-31 44t-83 19q-8 0 -8 25t8 33l78 -6q52 -4 98 -4t98 4l78 6q4 -12 4 -35t-8 -23q-26 0 -71 -18t-59 -58l-358 -966q-46 -124 -104 -173t-103 -49t-65 26t-20 61
t28 55q166 0 220 172l24 72q14 42 22 68l-286 700q-22 48 -40 67t-55 31t-59 12q-8 0 -8 25t8 33q206 -10 238 -10zM709 1314q41 0 66 -14t25 -34q0 -50 -143 -161t-168 -111t-25 26q0 18 76 128t110 148q18 18 59 18z" />
    <glyph glyph-name="thorn" unicode="&#xfe;" horiz-adv-x="1026" 
d="M524 774q-62 0 -102 -33t-40 -95v-450q0 -54 58 -91t126 -37q118 0 188 106t70 256t-89 247t-211 97zM378 1388q8 0 16 -11t10 -21q-22 -64 -22 -174v-368q0 -10 6 -10q28 20 91 44t109 24q192 0 300 -129t108 -275q0 -192 -134 -338t-304 -146q-76 0 -114 15
q-37 15 -54 23q-8 -10 -8 -26v-172q0 -116 16 -178q4 -14 52 -27t68 -13q6 0 8 -25t-2 -33q-200 10 -214 10t-218 -10q-8 8 -8 33t8 25q24 0 71 13t51 27q14 58 14 140v1310q0 70 -12 130q-10 32 -102 32h-18q-12 0 -12 27t12 27q182 18 278 76h4z" />
    <glyph glyph-name="ydieresis" unicode="&#xff;" horiz-adv-x="908" 
d="M250 858q32 0 172 10q4 -12 4 -35t-8 -23q-16 0 -53 -14t-41 -28v-4q0 -36 214 -522l152 438q14 42 14 67t-31 44t-83 19q-8 0 -8 25t8 33l78 -6q52 -4 98 -4t98 4l78 6q4 -12 4 -35t-8 -23q-26 0 -71 -18t-59 -58l-358 -966q-46 -124 -104 -173t-103 -49t-65 26t-20 61
t28 55q166 0 220 172l24 72q14 42 22 68l-286 700q-22 48 -40 67t-55 31t-59 12q-8 0 -8 25t8 33q206 -10 238 -10zM322 1190q40 0 69 -30t29 -70t-30 -68t-70 -28t-70 29t-30 69t31 69t71 29zM688 1190q40 0 69 -30t29 -70t-30 -68t-70 -28t-70 29t-30 69t31 69t71 29z" />
    <glyph glyph-name="Amacron" unicode="&#x100;" 
d="M665 594q63 0 157 6l6 10l-162 442l-172 -446q0 -8 4 -8q104 -4 167 -4zM240 4q-22 0 -192 -10q-8 8 -8 33t8 25q24 0 62 10t52 28q42 54 94 188l348 894q4 10 11 32t11 33t12 28q29 61 74 61l18 -6l400 -1056q36 -94 53 -134t67 -59t74 -19q8 0 8 -23t-4 -35
q-200 10 -211 10t-241 -10q-8 8 -7 33t9 25q24 0 60 10t42 26q4 16 4 49t-20 99l-90 248q-10 14 -139 14t-279 -10l-10 -6l-86 -220q-34 -100 -34 -133t17 -46t57 -22t58 -9q6 0 7 -24t-3 -34q-200 10 -222 10zM432 1502q0 78 28 78h500q12 0 12 -20t-8 -45t-20 -31h-502
q-2 0 -6 5t-4 13z" />
    <glyph glyph-name="amacron" unicode="&#x101;" horiz-adv-x="846" 
d="M458 872q120 0 168 -53t48 -171v-462q0 -42 22 -70t55 -28t75 28q8 0 8 -21t-10 -37q-82 -70 -134 -70t-94 38t-58 80q-2 0 -15 -13q-31 -31 -92 -69q-62 -38 -147 -38q-86 0 -146 49t-60 147q0 151 245 237q37 13 97 33t81 28t21 32v150q0 64 -40 99t-98 35t-98 -41
t-40 -109t-82 -68q-56 0 -78 38q0 86 126 171t246 85zM368 100q54 0 104 33t50 67v206q-16 -8 -78 -28t-97 -35t-68 -50t-33 -85t34 -79t88 -29zM182 1044q0 74 24 74h416q10 0 10 -17t-7 -42t-15 -33h-416q-12 6 -12 18z" />
    <glyph glyph-name="Abreve" unicode="&#x102;" 
d="M665 594q63 0 157 6l6 10l-162 442l-172 -446q0 -8 4 -8q104 -4 167 -4zM240 4q-22 0 -192 -10q-8 8 -8 33t8 25q24 0 62 10t52 28q42 54 94 188l348 894q4 10 11 32t11 33t12 28q29 61 74 61l18 -6l400 -1056q36 -94 53 -134t67 -59t74 -19q8 0 8 -23t-4 -35
q-200 10 -211 10t-241 -10q-8 8 -7 33t9 25q24 0 60 10t42 26q4 16 4 49t-20 99l-90 248q-10 14 -139 14t-279 -10l-10 -6l-86 -220q-34 -100 -34 -133t17 -46t57 -22t58 -9q6 0 7 -24t-3 -34q-200 10 -222 10zM718 1546q64 0 112 31t62 85q0 4 9 4t22 -8t13 -14v-6
q-2 -6 -2 -8q-14 -72 -76 -126t-141 -54t-140 53t-75 129q0 2 -2 8v4q0 6 13 14t22 8t9 -4q14 -54 62 -85t112 -31z" />
    <glyph glyph-name="abreve" unicode="&#x103;" horiz-adv-x="846" 
d="M458 872q120 0 168 -53t48 -171v-462q0 -42 22 -70t55 -28t75 28q8 0 8 -21t-10 -37q-82 -70 -134 -70t-94 38t-58 80q-2 0 -15 -13q-31 -31 -92 -69q-62 -38 -147 -38q-86 0 -146 49t-60 147q0 151 245 237q37 13 97 33t81 28t21 32v150q0 64 -40 99t-98 35t-98 -41
t-40 -109t-82 -68q-56 0 -78 38q0 86 126 171t246 85zM368 100q54 0 104 33t50 67v206q-16 -8 -78 -28t-97 -35t-68 -50t-33 -85t34 -79t88 -29zM406 1086q62 0 110 40t64 104q0 6 9 6t22 -9t13 -17v-8q-2 -6 -2 -8q-14 -82 -75 -141t-141 -59t-141 58t-75 144q0 2 -2 8v6
q0 8 13 17t22 9t9 -6q16 -64 64 -104t110 -40z" />
    <glyph glyph-name="Aogonek" unicode="&#x104;" horiz-adv-x="1492" 
d="M717 594q63 0 157 6l6 10l-162 442l-172 -446q0 -8 4 -8q104 -4 167 -4zM292 4q-22 0 -192 -10q-8 8 -8 33t8 25q24 0 62 10t52 28q42 54 94 188l348 894q4 10 11 32t11 33t12 28q29 61 74 61l18 -6l400 -1056q36 -94 53 -134t67 -59t74 -19q8 0 8 -23t-4 -35
q-126 8 -198 10q-78 -46 -143 -116t-65 -130q0 -32 18 -59t63 -27t83 19t58 38t26 19t6 -24t-10 -38q-100 -132 -210 -132q-74 0 -108 50t-34 115t67 146t157 139q-144 -9 -162 -10q-8 8 -7 33t9 25q24 0 60 10t42 26q4 16 4 49t-20 99l-90 248q-11 14 -139 14
q-129 0 -279 -10l-10 -6l-86 -220q-34 -100 -34 -133t17 -46t57 -22t58 -9q6 0 7 -24t-3 -34q-200 10 -222 10z" />
    <glyph glyph-name="aogonek" unicode="&#x105;" horiz-adv-x="836" 
d="M556 -236q0 -92 82 -92q80 0 140 57q20 19 26 19t6 -24t-10 -38q-100 -132 -210 -132q-74 0 -108 50t-34 108t62 139t142 145q-66 36 -92 110q-2 0 -15 -13q-31 -31 -92 -69q-62 -38 -147 -38q-86 0 -146 49t-60 147q0 151 245 237q37 13 97 33t81 28t21 32v150
q0 64 -40 99t-98 35t-98 -41t-40 -109t-82 -68q-56 0 -78 38q0 86 126 171t246 85t168 -53t48 -171v-462q0 -42 22 -72t49 -30t43 7t26 14t16 7t6 -16t-12 -44l-66 -46q-146 -97 -185 -150q-39 -54 -39 -92zM390 100q54 0 104 33t50 67v206q-16 -8 -78 -28t-97 -35t-68 -50
t-33 -85t34 -79t88 -29z" />
    <glyph glyph-name="Cacute" unicode="&#x106;" horiz-adv-x="1312" 
d="M1202 384q36 0 66 -18q0 -22 -28 -153t-40 -137q-146 -88 -478 -88q-264 0 -449 194t-185 470t190 479t466 203q236 0 486 -50q-4 -268 -4 -288q0 -30 -42 -30q-20 0 -26 10q-29 126 -123 197q-41 31 -116 54t-169 23q-196 0 -334 -173t-138 -391q0 -352 233 -523
q121 -89 303 -89t290 116q43 46 81 161q11 33 17 33zM702 1482q0 14 92 104t146 130q12 6 50 6t64 -19t26 -41q0 -46 -160 -126t-198 -80q-20 0 -20 26z" />
    <glyph glyph-name="cacute" unicode="&#x107;" horiz-adv-x="810" 
d="M521 116q133 0 245 80q12 0 12 -21t-12 -41q-40 -56 -118 -101t-170 -45q-166 0 -285 125t-119 307t100 317t304 135t288 -102q0 -134 -74 -134q-34 0 -52 15t-46 55q-62 92 -146 92t-151 -78t-67 -235t79 -263t212 -106zM623 1314q41 0 66 -14t25 -34q0 -50 -143 -161
t-168 -111t-25 26q0 18 76 128t110 148q18 18 59 18z" />
    <glyph glyph-name="Ccircumflex" unicode="&#x108;" horiz-adv-x="1312" 
d="M1202 384q36 0 66 -18q0 -22 -28 -153t-40 -137q-146 -88 -478 -88q-264 0 -449 194t-185 470t190 479t466 203q236 0 486 -50q-4 -268 -4 -288q0 -30 -42 -30q-20 0 -26 10q-29 126 -123 197q-41 31 -116 54t-169 23q-196 0 -334 -173t-138 -391q0 -352 233 -523
q121 -89 303 -89t290 116q43 46 81 161q11 33 17 33zM994 1396q-38 0 -210 116q-48 -36 -118 -76t-89 -40t-19 40q8 8 51 47t85 78t70 79q14 16 23 16t35 -36q56 -78 172 -168q18 -14 18 -16q0 -40 -18 -40z" />
    <glyph glyph-name="ccircumflex" unicode="&#x109;" horiz-adv-x="810" 
d="M642 980q0 -46 -15 -46t-77 45t-108 87q-44 -42 -104 -87t-77 -45t-17 46q6 8 73 84t94 122t31 46q10 0 39 -49t52 -79t50 -60t43 -46t16 -18zM521 116q133 0 245 80q12 0 12 -21t-12 -41q-40 -56 -118 -101t-170 -45q-166 0 -285 125t-119 307t100 317t304 135t288 -102
q0 -134 -74 -134q-34 0 -52 15t-46 55q-62 92 -146 92t-151 -78t-67 -235t79 -263t212 -106z" />
    <glyph glyph-name="Cdotaccent" unicode="&#x10a;" horiz-adv-x="1312" 
d="M1202 384q36 0 66 -18q0 -22 -28 -153t-40 -137q-146 -88 -478 -88q-264 0 -449 194t-185 470t190 479t466 203q236 0 486 -50q-4 -268 -4 -288q0 -30 -42 -30q-20 0 -26 10q-29 126 -123 197q-41 31 -116 54t-169 23q-196 0 -334 -173t-138 -391q0 -352 233 -523
q121 -89 303 -89t290 116q43 46 81 161q11 33 17 33zM654 1556q0 42 29 71t71 29t71 -29t29 -71t-29 -71t-71 -29t-71 29t-29 71z" />
    <glyph glyph-name="cdotaccent" unicode="&#x10b;" horiz-adv-x="810" 
d="M521 116q133 0 245 80q12 0 12 -21t-12 -41q-40 -56 -118 -101t-170 -45q-166 0 -285 125t-119 307t100 317t304 135t288 -102q0 -134 -74 -134q-34 0 -52 15t-46 55q-62 92 -146 92t-151 -78t-67 -235t79 -263t212 -106zM356 1186q0 42 29 71t71 29t71 -29t29 -71
t-29 -71t-71 -29t-71 29t-29 71z" />
    <glyph glyph-name="Ccaron" unicode="&#x10c;" horiz-adv-x="1312" 
d="M1202 384q36 0 66 -18q0 -22 -28 -153t-40 -137q-146 -88 -478 -88q-264 0 -449 194t-185 470t190 479t466 203q236 0 486 -50q-4 -268 -4 -288q0 -30 -42 -30q-20 0 -26 10q-29 126 -123 197q-41 31 -116 54t-169 23q-196 0 -334 -173t-138 -391q0 -352 233 -523
q121 -89 303 -89t290 116q43 46 81 161q11 33 17 33zM962 1716q18 0 18 -40q0 -2 -29 -25t-95 -83q-40 -40 -66 -76t-38 -36q-6 0 -20 16q-28 40 -70 79t-85 78t-51 47q0 40 19 40t89 -40t118 -76q172 116 210 116z" />
    <glyph glyph-name="ccaron" unicode="&#x10d;" horiz-adv-x="810" 
d="M521 116q133 0 245 80q12 0 12 -21t-12 -41q-40 -56 -118 -101t-170 -45q-166 0 -285 125t-119 307t100 317t304 135t288 -102q0 -134 -74 -134q-34 0 -52 15t-46 55q-62 92 -146 92t-151 -78t-67 -235t79 -263t212 -106zM650 1292q16 0 16 -46q0 -2 -37 -39t-67 -76
t-59 -87t-37 -48t-26 31t-55 77t-75 89t-44 53q0 46 17 46t77 -45t104 -87q46 42 108 87t78 45z" />
    <glyph glyph-name="Dcaron" unicode="&#x10e;" horiz-adv-x="1444" 
d="M402 1070v-792q0 -84 30 -152q8 -20 107 -30t153 -10q460 0 460 594q0 228 -121 388t-353 160h-10q-216 0 -241 -34t-25 -124zM1352 657q0 -275 -184 -469t-508 -194q-24 0 -143 4t-199 2l-242 -6q-6 6 -6 32t6 26q26 0 77 14t63 35t12 185v756q0 118 -14 172
q-6 16 -59 30t-79 14q-8 0 -8 25t8 33q104 -4 238 -4l348 4q326 0 508 -192t182 -467zM928 1716q18 0 18 -40q0 -2 -29 -25t-95 -83q-40 -40 -66 -76t-38 -36q-6 0 -20 16q-28 40 -70 79t-85 78t-51 47q0 40 19 40t89 -40t118 -76q172 116 210 116z" />
    <glyph glyph-name="dcaron" unicode="&#x10f;" horiz-adv-x="994" 
d="M836 1388q8 0 16 -11t10 -21q-22 -64 -22 -174v-900q0 -96 12 -152q10 -34 96 -34l18 -2q6 -2 6 -28t-12 -26q-125 -8 -244 -48l-18 -4q-12 0 -12 34v24q0 12 -8 8q-112 -62 -212 -62q-166 0 -278 118t-112 297t137 326t309 147q86 0 150 -34q14 0 14 36v216
q0 68 -12 128q-10 32 -102 32h-18q-12 0 -12 27t12 27q204 20 278 76h4zM488 796q-108 0 -174 -104t-66 -246t78 -249t216 -107q68 0 106 31t38 83v476q0 42 -45 79t-153 37zM970 1292q0 38 37 66t99 28q30 -36 30 -111t-63 -169t-101 -94q-8 0 -18 9t-10 17l18 16
q52 58 52 124q0 12 -22 44t-22 70z" />
    <glyph glyph-name="Dcroat" unicode="&#x110;" horiz-adv-x="1462" 
d="M1444 657q0 -275 -184 -469t-508 -194q-24 0 -145 4t-197 2l-242 -6q-6 6 -6 32t6 26q26 0 77 14t63 35t12 185v330h-122q-10 0 -10 31t12 49h120v346q0 118 -14 172q-6 16 -59 30t-79 14q-8 0 -8 25t8 33q104 -4 238 -4l348 4q326 0 508 -192t182 -467zM494 616v-338
q0 -84 30 -152q8 -20 107 -30t153 -10q230 0 349 151t119 443q0 226 -125 387t-357 161h-10q-216 0 -241 -34t-25 -124v-374h396q12 0 12 -26t-12 -54h-396z" />
    <glyph glyph-name="dcroat" unicode="&#x111;" horiz-adv-x="982" 
d="M474 796q-108 0 -174 -104t-66 -246t78 -249t216 -107q68 0 106 31t38 83v476q0 42 -45 79t-153 37zM822 1388q8 0 16 -11t10 -21q-22 -64 -22 -174v-44h128q12 0 12 -27t-12 -53h-128v-776q0 -96 12 -152q10 -34 96 -34l18 -2q6 -2 6 -28t-12 -26q-125 -8 -244 -48
l-18 -4q-12 0 -12 34v24q0 12 -8 8q-112 -62 -212 -62q-166 0 -278 118t-112 297t137 326t309 147q86 0 150 -34q14 0 14 36v176h-250q-10 0 -10 31t12 49h247q-3 46 -11 88q-10 32 -102 32h-18q-12 0 -12 27t12 27q182 18 278 76h4z" />
    <glyph glyph-name="Emacron" unicode="&#x112;" horiz-adv-x="1142" 
d="M114 26q0 26 6 26q26 0 77 14t63 35t12 185v756q0 118 -14 172q-6 16 -59 30t-79 14q-8 0 -8 25t8 33q104 -4 238 -4l646 16q8 -58 31 -153t27 -119q-10 -10 -36 -10t-28 14q-30 110 -84 141t-148 31h-134q-172 0 -176 -26q-10 -48 -10 -168v-320q0 -12 90 -12h149
q59 0 87 8t36 10t21 26t15 35t14 57q2 14 28 14t36 -10v-378q-8 -8 -33 -8t-31 16q-26 100 -35 109t-28 21t-184 12t-165 -18v-310q0 -130 18 -182q6 -20 136 -20h96q186 0 252 34q30 16 67 71t59 131q4 12 35 12t43 -12q-98 -254 -108 -332l-682 8l-242 -6q-6 6 -6 32z
M324 1502q0 78 28 78h500q12 0 12 -20t-8 -45t-20 -31h-502q-2 0 -6 5t-4 13z" />
    <glyph glyph-name="emacron" unicode="&#x113;" horiz-adv-x="908" 
d="M547 116q135 0 247 80q12 0 12 -21t-12 -41q-40 -56 -118 -101t-170 -45q-166 0 -285 125t-119 320t113 317t283 122q92 0 162 -35t107 -90q71 -106 71 -225q0 -40 -12 -49t-46 -9h-504q-16 0 -16 -10q0 -126 76 -232t211 -106zM471 798q-97 0 -152 -89t-55 -147
q0 -14 12 -14h390q10 0 10 20q0 64 -54 147t-151 83zM224 1044q0 74 24 74h416q10 0 10 -17t-7 -42t-15 -33h-416q-12 6 -12 18z" />
    <glyph glyph-name="Ebreve" unicode="&#x114;" horiz-adv-x="1142" 
d="M60 26q0 26 6 26q26 0 77 14t63 35t12 185v756q0 118 -14 172q-6 16 -59 30t-79 14q-8 0 -8 25t8 33q104 -4 238 -4l646 16q8 -58 31 -153t27 -119q-10 -10 -36 -10t-28 14q-30 110 -84 141t-148 31h-134q-172 0 -176 -26q-10 -48 -10 -168v-320q0 -12 90 -12h149
q59 0 87 8t36 10t21 26t15 35t14 57q2 14 28 14t36 -10v-378q-8 -8 -33 -8t-31 16q-26 100 -35 109t-28 21t-184 12t-165 -18v-310q0 -130 18 -182q6 -20 136 -20h96q186 0 252 34q30 16 67 71t59 131q4 12 35 12t43 -12q-98 -254 -108 -332l-682 8l-242 -6q-6 6 -6 32z
M570 1546q64 0 112 31t62 85q0 4 9 4t22 -8t13 -14v-6q-2 -6 -2 -8q-14 -72 -76 -126t-141 -54t-140 53t-75 129q0 2 -2 8v4q0 6 13 14t22 8t9 -4q14 -54 62 -85t112 -31z" />
    <glyph glyph-name="ebreve" unicode="&#x115;" horiz-adv-x="860" 
d="M519 116q135 0 247 80q12 0 12 -21t-12 -41q-40 -56 -118 -101t-170 -45q-166 0 -285 125t-119 320t113 317t283 122q92 0 162 -35t107 -90q71 -106 71 -225q0 -40 -12 -49t-46 -9h-504q-16 0 -16 -10q0 -126 76 -232t211 -106zM443 798q-97 0 -152 -89t-55 -147
q0 -14 12 -14h390q10 0 10 20q0 64 -54 147t-151 83zM446 1086q62 0 110 40t64 104q0 6 9 6t22 -9t13 -17v-8q-2 -6 -2 -8q-14 -82 -75 -141t-141 -59t-141 58t-75 144q0 2 -2 8v6q0 8 13 17t22 9t9 -6q16 -64 64 -104t110 -40z" />
    <glyph glyph-name="Edotaccent" unicode="&#x116;" horiz-adv-x="1142" 
d="M60 26q0 26 6 26q26 0 77 14t63 35t12 185v756q0 118 -14 172q-6 16 -59 30t-79 14q-8 0 -8 25t8 33q104 -4 238 -4l646 16q8 -58 31 -153t27 -119q-10 -10 -36 -10t-28 14q-30 110 -84 141t-148 31h-134q-172 0 -176 -26q-10 -48 -10 -168v-320q0 -12 90 -12h149
q59 0 87 8t36 10t21 26t15 35t14 57q2 14 28 14t36 -10v-378q-8 -8 -33 -8t-31 16q-26 100 -35 109t-28 21t-184 12t-165 -18v-310q0 -130 18 -182q6 -20 136 -20h96q186 0 252 34q30 16 67 71t59 131q4 12 35 12t43 -12q-98 -254 -108 -332l-682 8l-242 -6q-6 6 -6 32z
M464 1556q0 42 29 71t71 29t71 -29t29 -71t-29 -71t-71 -29t-71 29t-29 71z" />
    <glyph glyph-name="edotaccent" unicode="&#x117;" horiz-adv-x="860" 
d="M519 116q135 0 247 80q12 0 12 -21t-12 -41q-40 -56 -118 -101t-170 -45q-166 0 -285 125t-119 320t113 317t283 122q92 0 162 -35t107 -90q71 -106 71 -225q0 -40 -12 -49t-46 -9h-504q-16 0 -16 -10q0 -126 76 -232t211 -106zM443 798q-97 0 -152 -89t-55 -147
q0 -14 12 -14h390q10 0 10 20q0 64 -54 147t-151 83zM358 1186q0 42 29 71t71 29t71 -29t29 -71t-29 -71t-71 -29t-71 29t-29 71z" />
    <glyph glyph-name="Eogonek" unicode="&#x118;" horiz-adv-x="1224" 
d="M1010 1038q-26 0 -28 14q-30 110 -84 141t-148 31h-134q-172 0 -176 -26q-10 -48 -10 -168v-320q0 -12 90 -12h149q59 0 87 8t36 10t21 26t15 35t14 57q2 14 28 14t36 -10v-378q-8 -8 -33 -8t-31 16q-26 100 -35 109t-28 21t-184 12t-165 -18v-310q0 -130 18 -182
q6 -20 136 -20h96q186 0 252 34q30 16 67 71t59 131q2 12 34 12t44 -12q-8 -22 -53 -141t-55 -187q-84 0 -169 -82t-85 -150q0 -32 18 -59t63 -27t83 19t58 38t25 19t5 -26t-8 -36q-100 -132 -210 -132q-74 0 -108 50t-34 113t61 139t147 136q-466 10 -528 10l-242 -6
q-6 6 -6 32t6 26q26 0 77 14t63 35t12 185v756q0 118 -14 172q-6 16 -59 30t-79 14q-8 0 -8 25t8 33q104 -4 238 -4l646 8q8 -58 31 -153t27 -119q-10 -10 -36 -10z" />
    <glyph glyph-name="eogonek" unicode="&#x119;" horiz-adv-x="822" 
d="M452 -12q-166 0 -285 125t-119 320t113 317t283 122q92 0 162 -35t107 -90q71 -106 71 -225q0 -40 -12 -49t-46 -9h-504q-16 0 -16 -10q0 -126 76 -232t211 -106t247 80q12 0 12 -21q0 -56 -98 -123q-106 -78 -157 -145t-51 -151q0 -32 18 -59t63 -27t83 19t58 38t25 19
t5 -26t-8 -36q-100 -132 -210 -132q-74 0 -108 50t-34 106t47 137t111 145l-8 -2h-36zM417 798q-97 0 -152 -89t-55 -147q0 -14 12 -14h390q10 0 10 20q0 64 -54 147t-151 83z" />
    <glyph glyph-name="Ecaron" unicode="&#x11a;" horiz-adv-x="1142" 
d="M60 26q0 26 6 26q26 0 77 14t63 35t12 185v756q0 118 -14 172q-6 16 -59 30t-79 14q-8 0 -8 25t8 33q104 -4 238 -4l646 16q8 -58 31 -153t27 -119q-10 -10 -36 -10t-28 14q-30 110 -84 141t-148 31h-134q-172 0 -176 -26q-10 -48 -10 -168v-320q0 -12 90 -12h149
q59 0 87 8t36 10t21 26t15 35t14 57q2 14 28 14t36 -10v-378q-8 -8 -33 -8t-31 16q-26 100 -35 109t-28 21t-184 12t-165 -18v-310q0 -130 18 -182q6 -20 136 -20h96q186 0 252 34q30 16 67 71t59 131q4 12 35 12t43 -12q-98 -254 -108 -332l-682 8l-242 -6q-6 6 -6 32z
M798 1716q18 0 18 -40q0 -2 -29 -25t-95 -83q-40 -40 -66 -76t-38 -36q-6 0 -20 16q-28 40 -70 79t-85 78t-51 47q0 40 19 40t89 -40t118 -76q172 116 210 116z" />
    <glyph glyph-name="ecaron" unicode="&#x11b;" horiz-adv-x="860" 
d="M519 116q135 0 247 80q12 0 12 -21t-12 -41q-40 -56 -118 -101t-170 -45q-166 0 -285 125t-119 320t113 317t283 122q92 0 162 -35t107 -90q71 -106 71 -225q0 -40 -12 -49t-46 -9h-504q-16 0 -16 -10q0 -126 76 -232t211 -106zM443 798q-97 0 -152 -89t-55 -147
q0 -14 12 -14h390q10 0 10 20q0 64 -54 147t-151 83zM634 1292q16 0 16 -46q0 -2 -37 -39t-67 -76t-59 -87t-37 -48t-26 31t-55 77t-75 89t-44 53q0 46 17 46t77 -45t104 -87q46 42 108 87t78 45z" />
    <glyph glyph-name="Gcircumflex" unicode="&#x11c;" horiz-adv-x="1430" 
d="M1272 118q0 -18 -62 -41t-72 -27t-45 -15t-56 -15t-60 -12q-97 -20 -255 -20q-264 0 -449 194t-185 470t190 479t466 203q142 0 474 -90q8 -228 8 -248q0 -30 -42 -30q-20 0 -26 10q-54 274 -408 274q-200 0 -334 -170t-134 -401t147 -418t369 -187q176 0 260 44
q14 6 14 30l-2 164v14q0 130 -16 172q-8 20 -65 32t-89 12q-8 0 -8 25t8 33q256 -10 267 -10t211 10q4 -12 4 -35t-8 -23q-12 0 -55 -13t-62 -25t-19 -132l6 -144q0 -36 14 -70t14 -40zM966 1396q-38 0 -210 116q-48 -36 -118 -76t-89 -40t-19 40q8 8 51 47t85 78t70 79
q14 16 23 16t35 -36q56 -78 172 -168q18 -14 18 -16q0 -40 -18 -40z" />
    <glyph glyph-name="gcircumflex" unicode="&#x11d;" horiz-adv-x="948" 
d="M434 864q74 0 170 -26t158 -26h116q12 -4 12 -41t-12 -37h-142q-8 0 -8 -6l20 -48q22 -48 22 -96q0 -108 -96 -194t-236 -86q-64 0 -112 8q-26 -14 -55 -50t-29 -64q0 -55 59 -68q59 -14 98 -14h43q248 -4 348 -51t100 -141q0 -154 -130 -265t-334 -113q-142 -2 -255 54
t-113 174t196 206q-54 8 -100 50t-46 98t45 112t101 92q-60 22 -111 95t-51 157q0 118 99 199t243 81zM246 588q0 -88 57 -152t134 -64t128 60t51 148t-57 152t-134 64t-128 -60t-51 -148zM758 -169q0 83 -82 112t-326 29q-4 0 -9 -3t-21 -10t-20 -9t-18 -11t-19 -12
t-17 -12t-16 -16t-12 -17q-20 -25 -20 -70q0 -86 89 -139t203 -53t191 64t77 147zM628 1040q0 -46 -15 -46t-77 45t-108 87q-44 -42 -104 -87t-77 -45t-17 46q6 8 73 84t94 122t31 46q10 0 39 -49t52 -79t50 -60t43 -46t16 -18z" />
    <glyph glyph-name="Gbreve" unicode="&#x11e;" horiz-adv-x="1430" 
d="M1272 118q0 -18 -62 -41t-72 -27t-45 -15t-56 -15t-60 -12q-97 -20 -255 -20q-264 0 -449 194t-185 470t190 479t466 203q142 0 474 -90q8 -228 8 -248q0 -30 -42 -30q-20 0 -26 10q-54 274 -408 274q-200 0 -334 -170t-134 -401t147 -418t369 -187q176 0 260 44
q14 6 14 30l-2 164v14q0 130 -16 172q-8 20 -65 32t-89 12q-8 0 -8 25t8 33q256 -10 267 -10t211 10q4 -12 4 -35t-8 -23q-12 0 -55 -13t-62 -25t-19 -132l6 -144q0 -36 14 -70t14 -40zM754 1546q64 0 112 31t62 85q0 4 9 4t22 -8t13 -14v-6q-2 -6 -2 -8q-14 -72 -76 -126
t-141 -54t-140 53t-75 129q0 2 -2 8v4q0 6 13 14t22 8t9 -4q14 -54 62 -85t112 -31z" />
    <glyph glyph-name="gbreve" unicode="&#x11f;" horiz-adv-x="948" 
d="M434 864q74 0 170 -26t158 -26h116q12 -4 12 -41t-12 -37h-142q-8 0 -8 -6l20 -48q22 -48 22 -96q0 -108 -96 -194t-236 -86q-64 0 -112 8q-26 -14 -55 -50t-29 -64q0 -55 59 -68q59 -14 98 -14h43q248 -4 348 -51t100 -141q0 -154 -130 -265t-334 -113q-142 -2 -255 54
t-113 174t196 206q-54 8 -100 50t-46 98t45 112t101 92q-60 22 -111 95t-51 157q0 118 99 199t243 81zM246 588q0 -88 57 -152t134 -64t128 60t51 148t-57 152t-134 64t-128 -60t-51 -148zM758 -169q0 83 -82 112t-326 29q-4 0 -9 -3t-21 -10t-20 -9t-18 -11t-19 -12
t-17 -12t-16 -16t-12 -17q-20 -25 -20 -70q0 -86 89 -139t203 -53t191 64t77 147zM426 1086q62 0 110 40t64 104q0 6 9 6t22 -9t13 -17v-8q-2 -6 -2 -8q-14 -82 -75 -141t-141 -59t-141 58t-75 144q0 2 -2 8v6q0 8 13 17t22 9t9 -6q16 -64 64 -104t110 -40z" />
    <glyph glyph-name="Gdotaccent" unicode="&#x120;" horiz-adv-x="1430" 
d="M1272 118q0 -18 -62 -41t-72 -27t-45 -15t-56 -15t-60 -12q-97 -20 -255 -20q-264 0 -449 194t-185 470t190 479t466 203q142 0 474 -90q8 -228 8 -248q0 -30 -42 -30q-20 0 -26 10q-54 274 -408 274q-200 0 -334 -170t-134 -401t147 -418t369 -187q176 0 260 44
q14 6 14 30l-2 164v14q0 130 -16 172q-8 20 -65 32t-89 12q-8 0 -8 25t8 33q256 -10 267 -10t211 10q4 -12 4 -35t-8 -23q-12 0 -55 -13t-62 -25t-19 -132l6 -144q0 -36 14 -70t14 -40zM654 1556q0 42 29 71t71 29t71 -29t29 -71t-29 -71t-71 -29t-71 29t-29 71z" />
    <glyph glyph-name="gdotaccent" unicode="&#x121;" horiz-adv-x="948" 
d="M434 864q74 0 170 -26t158 -26h116q12 -4 12 -41t-12 -37h-142q-8 0 -8 -6l20 -48q22 -48 22 -96q0 -108 -96 -194t-236 -86q-64 0 -112 8q-26 -14 -55 -50t-29 -64q0 -55 59 -68q59 -14 98 -14h43q248 -4 348 -51t100 -141q0 -154 -130 -265t-334 -113q-142 -2 -255 54
t-113 174t196 206q-54 8 -100 50t-46 98t45 112t101 92q-60 22 -111 95t-51 157q0 118 99 199t243 81zM246 588q0 -88 57 -152t134 -64t128 60t51 148t-57 152t-134 64t-128 -60t-51 -148zM758 -169q0 83 -82 112t-326 29q-4 0 -9 -3t-21 -10t-20 -9t-18 -11t-19 -12
t-17 -12t-16 -16t-12 -17q-20 -25 -20 -70q0 -86 89 -139t203 -53t191 64t77 147zM326 1186q0 42 29 71t71 29t71 -29t29 -71t-29 -71t-71 -29t-71 29t-29 71z" />
    <glyph glyph-name="Gcommaaccent" unicode="&#x122;" horiz-adv-x="1430" 
d="M1272 118q0 -18 -62 -41t-72 -27t-45 -15t-56 -15t-60 -12q-97 -20 -255 -20q-264 0 -449 194t-185 470t190 479t466 203q142 0 474 -90q8 -228 8 -248q0 -30 -42 -30q-20 0 -26 10q-54 274 -408 274q-200 0 -334 -170t-134 -401t147 -418t369 -187q176 0 260 44
q14 6 14 30l-2 164v14q0 130 -16 172q-8 20 -65 32t-89 12q-8 0 -8 25t8 33q256 -10 267 -10t211 10q4 -12 4 -35t-8 -23q-12 0 -55 -13t-62 -25t-19 -132l6 -144q0 -36 14 -70t14 -40zM638 -195q0 37 38 70t120 33q18 -14 31 -47t13 -59q0 -160 -164 -252q-4 -4 -30 -4
t-26 14l46 44q46 46 46 73t-37 59t-37 69z" />
    <glyph glyph-name="gcommaaccent" unicode="&#x123;" horiz-adv-x="948" 
d="M434 864q74 0 170 -26t158 -26h116q12 -4 12 -41t-12 -37h-142q-8 0 -8 -6l20 -48q22 -48 22 -96q0 -108 -96 -194t-236 -86q-64 0 -112 8q-26 -14 -55 -50t-29 -64q0 -55 59 -68q59 -14 98 -14h43q248 -4 348 -51t100 -141q0 -154 -130 -265t-334 -113q-142 -2 -255 54
t-113 174t196 206q-54 8 -100 50t-46 98t45 112t101 92q-60 22 -111 95t-51 157q0 118 99 199t243 81zM246 588q0 -88 57 -152t134 -64t128 60t51 148t-57 152t-134 64t-128 -60t-51 -148zM758 -169q0 83 -82 112t-326 29q-4 0 -9 -3t-21 -10t-20 -9t-18 -11t-19 -12
t-17 -12t-16 -16t-12 -17q-20 -25 -20 -70q0 -86 89 -139t203 -53t191 64t77 147zM528 1069q0 -37 -38 -70t-120 -33q-18 14 -31 47t-13 59q0 90 54 156t110 96q4 4 30 4t26 -14l-46 -44q-46 -46 -46 -73t37 -59t37 -69z" />
    <glyph glyph-name="Hcircumflex" unicode="&#x124;" horiz-adv-x="1414" 
d="M1089 1312q79 0 247 12q4 -12 4 -35t-8 -23q-20 0 -72 -14t-56 -28q-16 -62 -16 -186v-760q0 -124 16 -186q4 -14 56 -27t72 -13q8 0 8 -23t-4 -35q-200 10 -220 10t-250 -10q-8 8 -8 33t8 25q26 0 77 12t57 28q14 54 14 178v352l-4 8q-188 4 -396 4t-208 -10v-346
q0 -116 18 -186q4 -14 56 -27t72 -13q6 0 7 -24t-3 -34q-200 10 -221 10t-251 -10q-8 8 -8 33t8 25q26 0 77 12t57 28q14 54 14 178v776q0 124 -14 178q-6 16 -57 29t-77 13q-8 0 -8 25t8 33q156 -12 230 -12t242 12q4 -8 3 -33t-7 -25q-20 0 -72 -14t-56 -28
q-18 -70 -18 -186v-298l4 -6q196 -4 308 -4t292 4q4 4 4 8v304q0 124 -14 178q-6 16 -57 29t-77 13q-8 0 -8 25t8 33q144 -12 223 -12zM930 1396q-38 0 -210 116q-48 -36 -118 -76t-89 -40t-19 40q8 8 51 47t85 78t70 79q14 16 23 16t35 -36q56 -78 172 -168q18 -14 18 -16
q0 -40 -18 -40z" />
    <glyph glyph-name="hcircumflex" unicode="&#x125;" horiz-adv-x="1060" 
d="M330 1388q8 0 16 -11t10 -21q-22 -64 -22 -174v-438q0 -8 3 -8t7 4q44 48 125 92t155 44q134 0 192 -96t58 -296v-216q0 -114 16 -176q4 -14 52 -27t68 -13q6 0 8 -24t-2 -34q-200 10 -210 10t-214 -10q-8 8 -8 33t8 25q24 0 67 13t47 27q14 58 14 140v212q0 184 -51 247
t-157 63q-60 0 -119 -47t-59 -83v-354q0 -116 16 -178q4 -14 52 -27t68 -13q6 0 8 -24t-2 -34q-200 10 -213 10t-219 -10q-8 8 -8 33t8 25q24 0 71 13t51 27q14 58 14 138v868q0 68 -12 128q-10 32 -102 32h-18q-12 0 -12 27t12 27q182 18 278 76h4zM448 1404
q-38 0 -210 116q-48 -36 -118 -76t-89 -40t-19 40q8 8 51 47t85 78t70 79q14 16 23 16t35 -36q56 -78 172 -168q18 -14 18 -16q0 -40 -18 -40z" />
    <glyph glyph-name="Hbar" unicode="&#x126;" horiz-adv-x="1476" 
d="M738 942q-218 0 -308 -2v-236q0 -6 4 -6q196 -4 308 -4t292 4q4 4 4 8v234q-82 2 -300 2zM338 1312q74 0 242 12q4 -8 3 -33t-7 -25q-20 0 -72 -14t-56 -28q-18 -70 -18 -208q24 -2 276 -2t332 2q0 154 -14 208q-6 16 -57 29t-77 13q-8 0 -8 25t8 33q144 -12 223 -12
t247 12q4 -12 4 -35t-8 -23q-20 0 -72 -14t-56 -28q-16 -62 -16 -208h82q10 0 10 -29t-12 -47h-80v-662q0 -124 16 -186q4 -14 56 -27t72 -13q8 0 8 -23t-4 -35q-200 10 -220 10t-250 -10q-8 8 -8 33t8 25q26 0 77 12t57 28q14 54 14 178v316l-4 8q-188 4 -396 4t-208 -10
v-310q0 -116 18 -186q4 -14 56 -27t72 -13q6 0 7 -24t-3 -34q-200 10 -221 10t-251 -10q-8 8 -8 33t8 25q26 0 77 12t57 28q14 54 14 178v670h-68q-10 0 -10 29t12 47h66q0 154 -14 208q-6 16 -57 29t-77 13q-8 0 -8 25t8 33q156 -12 230 -12z" />
    <glyph glyph-name="hbar" unicode="&#x127;" horiz-adv-x="1070" 
d="M330 1388q8 0 16 -11t10 -21q-22 -64 -22 -174v-44h282q12 0 12 -27t-12 -53h-282v-314q0 -8 3 -8t7 4q44 48 125 92t155 44q134 0 192 -96t58 -296v-216q0 -114 16 -176q4 -14 52 -27t68 -13q6 0 8 -24t-2 -34q-200 10 -210 10t-214 -10q-8 8 -8 33t8 25q24 0 67 13
t47 27q14 58 14 140v212q0 184 -51 247t-157 63q-60 0 -119 -47t-59 -83v-354q0 -116 16 -178q4 -14 52 -27t68 -13q6 0 8 -24t-2 -34q-200 10 -213 10t-219 -10q-8 8 -8 33t8 25q24 0 71 13t51 27q14 58 14 138v828h-96q-10 0 -10 31t12 49h93q-3 46 -11 88q-10 32 -102 32
h-18q-12 0 -12 27t12 27q182 18 278 76h4z" />
    <glyph glyph-name="Itilde" unicode="&#x128;" horiz-adv-x="636" 
d="M498 1532q64 0 94 68q4 2 12 2q18 0 18 -32q0 -56 -55 -98t-107 -42t-136 43t-144 43t-92 -70q-4 -2 -12 -2q-18 0 -18 32q0 56 55 98t106 42t133 -42t146 -42zM232 1046q0 124 -14 178q-6 16 -57 29t-77 13q-8 0 -8 25t8 33q230 -10 251 -10t221 10q4 -12 4 -35t-8 -23
q-20 0 -72 -14t-56 -28q-18 -70 -18 -186v-760q0 -116 18 -186q4 -14 56 -27t72 -13q8 0 8 -23t-4 -35q-200 10 -221 10t-251 -10q-8 8 -8 33t8 25q26 0 77 12t57 28q14 54 14 178v776z" />
    <glyph glyph-name="itilde" unicode="&#x129;" horiz-adv-x="564" 
d="M356 682v-412q0 -116 16 -178q4 -14 52 -27t68 -13q6 0 8 -24t-2 -34q-200 10 -213 10t-219 -10q-8 8 -8 33t8 25q24 0 71 13t51 27q14 58 14 140v378q0 78 -24 105t-53 36t-48 9t-19 4q0 48 12 50q212 32 245 42t41 12q17 0 8 -61q-8 -61 -8 -125zM416 1096q64 0 94 68
q4 2 12 2q18 0 18 -32q0 -56 -55 -98t-107 -42t-136 43t-144 43t-92 -70q-4 -2 -12 -2q-18 0 -18 32q0 56 55 98t106 42t133 -42t146 -42z" />
    <glyph glyph-name="Imacron" unicode="&#x12a;" horiz-adv-x="636" 
d="M232 1046q0 124 -14 178q-6 16 -57 29t-77 13q-8 0 -8 25t8 33q230 -10 251 -10t221 10q4 -12 4 -35t-8 -23q-20 0 -72 -14t-56 -28q-18 -70 -18 -186v-760q0 -116 18 -186q4 -14 56 -27t72 -13q8 0 8 -23t-4 -35q-200 10 -221 10t-251 -10q-8 8 -8 33t8 25q26 0 77 12
t57 28q14 54 14 178v776zM64 1502q0 78 28 78h500q12 0 12 -20t-8 -45t-20 -31h-502q-2 0 -6 5t-4 13z" />
    <glyph glyph-name="imacron" unicode="&#x12b;" horiz-adv-x="564" 
d="M356 682v-412q0 -116 16 -178q4 -14 52 -27t68 -13q6 0 8 -24t-2 -34q-200 10 -213 10t-219 -10q-8 8 -8 33t8 25q24 0 71 13t51 27q14 58 14 140v378q0 78 -24 105t-53 36t-48 9t-19 4q0 48 12 50q212 32 245 42t41 12q17 0 8 -61q-8 -61 -8 -125zM12 1044q0 74 24 74
h416q10 0 10 -17t-7 -42t-15 -33h-416q-12 6 -12 18z" />
    <glyph glyph-name="Ibreve" unicode="&#x12c;" horiz-adv-x="636" 
d="M232 1046q0 124 -14 178q-6 16 -57 29t-77 13q-8 0 -8 25t8 33q230 -10 251 -10t221 10q4 -12 4 -35t-8 -23q-20 0 -72 -14t-56 -28q-18 -70 -18 -186v-760q0 -116 18 -186q4 -14 56 -27t72 -13q8 0 8 -23t-4 -35q-200 10 -221 10t-251 -10q-8 8 -8 33t8 25q26 0 77 12
t57 28q14 54 14 178v776zM330 1546q64 0 112 31t62 85q0 4 9 4t22 -8t13 -14v-6q-2 -6 -2 -8q-14 -72 -76 -126t-141 -54t-140 53t-75 129q0 2 -2 8v4q0 6 13 14t22 8t9 -4q14 -54 62 -85t112 -31z" />
    <glyph glyph-name="ibreve" unicode="&#x12d;" horiz-adv-x="564" 
d="M356 682v-412q0 -116 16 -178q4 -14 52 -27t68 -13q6 0 8 -24t-2 -34q-200 10 -213 10t-219 -10q-8 8 -8 33t8 25q24 0 71 13t51 27q14 58 14 140v378q0 78 -24 105t-53 36t-48 9t-19 4q0 48 12 50q212 32 245 42t41 12q17 0 8 -61q-8 -61 -8 -125zM250 1086q62 0 110 40
t64 104q0 6 9 6t22 -9t13 -17v-8q-2 -6 -2 -8q-14 -82 -75 -141t-141 -59t-141 58t-75 144q0 2 -2 8v6q0 8 13 17t22 9t9 -6q16 -64 64 -104t110 -40z" />
    <glyph glyph-name="Iogonek" unicode="&#x12e;" horiz-adv-x="694" 
d="M357 1314q21 0 221 10q4 -12 4 -35t-8 -23q-20 0 -72 -14t-56 -28q-18 -70 -18 -186v-760q0 -116 18 -186q4 -14 56 -27t72 -13q8 0 8 -23t-4 -35q-90 6 -106 6q-80 -48 -147 -116t-67 -128q0 -32 18 -59t63 -27t83 19t58 38t25 19t5 -26t-8 -36q-100 -132 -210 -132
q-74 0 -108 50t-34 114t70 145t162 143h-36q-10 0 -240 -10q-8 8 -8 33t8 25q26 0 77 12t57 28q14 54 14 178v776q0 124 -14 178q-6 16 -57 29t-77 13q-8 0 -8 25t8 33q230 -10 251 -10z" />
    <glyph glyph-name="iogonek" unicode="&#x12f;" horiz-adv-x="646" 
d="M98 27q0 25 8 25q24 0 71 13t51 27q14 58 14 140v378q0 78 -24 105t-53 36t-48 9t-19 4q0 48 12 50q212 32 245 42t41 12q17 0 8 -61q-8 -61 -8 -125v-412q0 -116 16 -178q4 -14 52 -27t68 -13q6 0 8 -24t-2 -34q-54 0 -74 4q-80 -50 -145 -117t-65 -125q0 -32 18 -59
t63 -27t83 19t58 38t25 19t5 -26t-8 -36q-100 -132 -210 -132q-74 0 -108 50t-34 114t69 144t163 142l-54 2q-12 0 -218 -10q-8 8 -8 33zM216 1186q0 42 29 71t71 29t71 -29t29 -71t-29 -71t-71 -29t-71 29t-29 71z" />
    <glyph glyph-name="Idotaccent" unicode="&#x130;" horiz-adv-x="636" 
d="M232 1046q0 124 -14 178q-6 16 -57 29t-77 13q-8 0 -8 25t8 33q230 -10 251 -10t221 10q4 -12 4 -35t-8 -23q-20 0 -72 -14t-56 -28q-18 -70 -18 -186v-760q0 -116 18 -186q4 -14 56 -27t72 -13q8 0 8 -23t-4 -35q-200 10 -221 10t-251 -10q-8 8 -8 33t8 25q26 0 77 12
t57 28q14 54 14 178v776zM230 1556q0 42 29 71t71 29t71 -29t29 -71t-29 -71t-71 -29t-71 29t-29 71z" />
    <glyph glyph-name="dotlessi" unicode="&#x131;" horiz-adv-x="564" 
d="M356 682v-412q0 -116 16 -178q4 -14 52 -27t68 -13q6 0 8 -24t-2 -34q-200 10 -213 10t-219 -10q-8 8 -8 33t8 25q24 0 71 13t51 27q14 58 14 140v378q0 78 -24 105t-53 36t-48 9t-19 4q0 48 12 50q212 32 245 42t41 12q17 0 8 -61q-8 -61 -8 -125z" />
    <glyph glyph-name="IJ" unicode="&#x132;" horiz-adv-x="1280" 
d="M725 1312q53 0 221 12q4 -12 4 -35t-8 -23q-20 0 -72 -14t-56 -28q-18 -70 -18 -186v-868q0 -252 -141 -438t-359 -186q-48 0 -104 32q-24 28 -24 73t37 73t80 28t88 -43t72 -43t56 28q92 88 114 312q-1 -7 -3 -12q-200 10 -221 10t-251 -10q-8 8 -8 33t8 25q26 0 77 12
t57 28q14 54 14 178v776q0 124 -14 178q-6 16 -57 29t-77 13q-8 0 -8 25t8 33q230 -10 244 -10t86 3q2 4 4 7q17 -1 58 -4q36 2 80 4q1 -4 2 -9q58 -3 111 -3zM462 1038v-760q0 -116 18 -186q4 -14 56 -27t72 -13q8 0 8 -16v-20q6 64 6 138v892q0 124 -14 178q-6 16 -33 22
t-31 7t-32 -7t-32 -22q-18 -70 -18 -186z" />
    <glyph glyph-name="ij" unicode="&#x133;" horiz-adv-x="1038" 
d="M416 270q0 -116 16 -178q4 -14 52 -27t68 -13q6 0 8 -24t-2 -34q-200 10 -214 10t-218 -10q-8 8 -8 33t8 25q24 0 71 13t51 27q14 58 14 140v378q0 78 -24 105t-53 36t-48 9t-19 4q0 48 12 50q246 37 280 54h6q17 0 8 -61q-8 -61 -8 -125v-412zM224 1186q0 42 29 71
t71 29t71 -29t29 -71t-29 -71t-71 -29t-71 29t-29 71zM640 1186q0 42 29 71t71 29t71 -29t29 -71t-29 -71t-71 -29t-71 29t-29 71zM846 682v-546q0 -254 -78 -376q-50 -78 -127 -138t-141 -84q-18 12 -24 26t-2 18l24 12q59 29 118 122q32 50 54 148t22 226v520
q0 78 -24 105t-53 36t-48 9t-19 4q0 48 12 50q212 32 245 42t41 12q17 0 8 -61q-8 -61 -8 -125z" />
    <glyph glyph-name="Jcircumflex" unicode="&#x134;" horiz-adv-x="644" 
d="M346 1312q74 0 242 12q4 -12 4 -35t-8 -23q-20 0 -72 -14t-56 -28q-18 -70 -18 -186v-868q0 -252 -141 -438t-359 -186q-48 0 -104 32q-24 28 -24 73t37 73t80 28t88 -43t72 -43q56 0 116 117q61 117 61 371v892q0 124 -14 178q-6 16 -57 29t-77 13q-8 0 -8 25t8 33
q156 -12 230 -12zM566 1456q-38 0 -210 116q-48 -36 -118 -76t-89 -40t-19 40q8 8 51 47t85 78t70 79q14 16 23 16t35 -36q56 -78 172 -168q18 -14 18 -16q0 -40 -18 -40z" />
    <glyph glyph-name="jcircumflex" unicode="&#x135;" horiz-adv-x="528" 
d="M516 980q0 -46 -15 -46t-77 45t-108 87q-44 -42 -104 -87t-77 -45t-17 46q6 8 73 84t94 122t31 46q10 0 39 -49t52 -79t50 -60t43 -46t16 -18zM264 610q0 78 -24 105t-53 36t-48 9t-19 4q0 48 12 50q246 37 280 54h6q17 0 8 -61q-8 -61 -8 -125v-546q0 -254 -78 -376
q-50 -78 -127 -138t-141 -84q-16 10 -23 25t-3 19l24 12q59 29 118 122q32 50 54 148t22 226v520z" />
    <glyph glyph-name="Kcommaaccent" unicode="&#x136;" horiz-adv-x="1386" 
d="M320 1312q74 0 242 12q4 -8 3 -33t-7 -25q-20 0 -72 -14t-56 -28q-18 -70 -18 -186v-326l14 -12h14q64 0 116 58q234 262 344 406q48 58 48 76q0 34 -114 34q-8 0 -8 18t4 32q156 -12 214 -12t202 12q4 -8 3 -29t-7 -21q-122 -14 -184 -84l-402 -468q-16 -18 14 -54
l482 -530q32 -34 93 -60t119 -26q10 0 10 -25t-4 -33q-200 10 -259 10t-259 -10q-8 8 -8 33t8 25q24 0 55 8t31 24q0 64 -454 530q-8 8 -58 8q-14 0 -14 -16v-328q0 -116 18 -186q4 -14 56 -27t72 -13q6 0 7 -24t-3 -34q-200 10 -221 10t-251 -10q-8 8 -8 33t8 25
q26 0 77 12t57 28q14 54 14 178v776q0 124 -14 178q-6 16 -57 29t-77 13q-8 0 -8 25t8 33q156 -12 230 -12zM600 -195q0 37 38 70t120 33q18 -14 31 -47t13 -59q0 -160 -164 -252q-4 -4 -30 -4t-26 14l46 44q46 46 46 73t-37 59t-37 69z" />
    <glyph glyph-name="kcommaaccent" unicode="&#x137;" horiz-adv-x="992" 
d="M694 816q50 0 220 10q18 -9 10 -32q-8 -24 -12 -24q-26 0 -74 -12t-73 -27t-121 -90t-166 -147q58 -62 187 -208t165 -177t88 -46t74 -15q8 0 8 -25t-2 -29q-200 10 -211 10t-215 -10q-8 8 -8 31t8 23q20 0 46 8t26 15t-2 9l-292 316l-24 -6v-120q4 -132 16 -178
q4 -14 52 -27t68 -13q6 0 8 -24t-2 -34q-200 10 -213 10t-219 -10q-8 8 -8 33t8 25q24 0 71 13t51 27q14 58 14 140v866q0 68 -12 128q-10 32 -102 32h-18q-12 0 -12 27t12 27q182 18 278 76h4q8 0 16 -11t10 -21q-22 -64 -22 -174v-700q42 10 50 18q44 38 92 78l72 60
q64 52 74 68t10 28q0 24 -44 28t-46 8q-14 40 2 46h158zM402 -195q0 37 38 70t120 33q18 -14 31 -47t13 -59q0 -160 -164 -252q-4 -4 -30 -4t-26 14l46 44q46 46 46 73t-37 59t-37 69z" />
    <glyph glyph-name="kgreenlandic" unicode="&#x138;" horiz-adv-x="1180" 
d="M394 868q8 0 16 -11t10 -21q-22 -64 -22 -174v-180q42 10 60 26t61 51t67 56t55 47q115 96 115 118t-44 26t-46 8q-14 40 2 46h158q58 0 218 10q20 -12 6 -54q-2 -4 -53 -7t-82 -23t-153 -121t-196 -169q60 -70 184 -219t152 -174t80 -40t76 -15q8 0 8 -25t-2 -29
q-200 10 -210 10t-216 -10q-8 8 -8 31t8 23q20 0 46 8t26 15t-2 9l-286 316l-24 -6v-120q-4 -104 16 -178q4 -14 52 -27t68 -13q6 0 8 -24t-2 -34q-200 10 -214 10t-218 -10q-8 8 -8 33t8 25q24 0 71 13t51 27q14 58 14 140v346q0 68 -12 128q-10 32 -102 32h-18
q-12 0 -12 27t12 27q182 18 278 76h4z" />
    <glyph glyph-name="Lacute" unicode="&#x139;" horiz-adv-x="1136" 
d="M312 1312q74 0 242 12q4 -12 4 -35t-8 -23q-20 0 -72 -14t-56 -28q-18 -70 -18 -186v-754q0 -106 18 -176q6 -20 136 -20h96q186 0 252 34q30 16 67 71t59 131q4 12 35 12t43 -12q-98 -254 -108 -332l-682 12l-242 -6q-6 6 -6 32t6 26q28 0 78 12t62 33t12 185v756
q0 128 -14 182q-6 16 -57 29t-77 13q-8 0 -8 25t8 33q156 -12 230 -12zM246 1482q0 14 92 104t146 130q12 6 50 6t64 -19t26 -41q0 -46 -160 -126t-198 -80q-20 0 -20 26z" />
    <glyph glyph-name="lacute" unicode="&#x13a;" horiz-adv-x="502" 
d="M324 1388q8 0 16 -11t10 -21q-22 -64 -22 -174v-912q0 -116 16 -178q4 -14 52 -27t68 -13q6 0 8 -24t-2 -34q-200 10 -213 10t-219 -10q-8 8 -8 33t8 25q24 0 71 13t51 27q14 58 14 140v866q0 68 -12 128q-10 32 -102 32h-18q-12 0 -12 27t12 27q204 20 278 76h4z
M140 1482q0 14 92 104t146 130q12 6 50 6t64 -19t26 -41q0 -46 -160 -126t-198 -80q-20 0 -20 26z" />
    <glyph glyph-name="Lcommaaccent" unicode="&#x13b;" horiz-adv-x="1136" 
d="M312 1312q74 0 242 12q4 -12 4 -35t-8 -23q-20 0 -72 -14t-56 -28q-18 -70 -18 -186v-754q0 -106 18 -176q6 -20 136 -20h96q186 0 252 34q30 16 67 71t59 131q4 12 35 12t43 -12q-98 -254 -108 -332l-682 12l-242 -6q-6 6 -6 32t6 26q28 0 78 12t62 33t12 185v756
q0 128 -14 182q-6 16 -57 29t-77 13q-8 0 -8 25t8 33q156 -12 230 -12zM508 -195q0 37 38 70t120 33q18 -14 31 -47t13 -59q0 -160 -164 -252q-4 -4 -30 -4t-26 14l46 44q46 46 46 73t-37 59t-37 69z" />
    <glyph glyph-name="lcommaaccent" unicode="&#x13c;" horiz-adv-x="502" 
d="M324 1388q8 0 16 -11t10 -21q-22 -64 -22 -174v-912q0 -116 16 -178q4 -14 52 -27t68 -13q6 0 8 -24t-2 -34q-200 10 -213 10t-219 -10q-8 8 -8 33t8 25q24 0 71 13t51 27q14 58 14 140v866q0 68 -12 128q-10 32 -102 32h-18q-12 0 -12 27t12 27q204 20 278 76h4z
M152 -195q0 37 38 70t120 33q18 -14 31 -47t13 -59q0 -160 -164 -252q-4 -4 -30 -4t-26 14l46 44q46 46 46 73t-37 59t-37 69z" />
    <glyph glyph-name="Lcaron" unicode="&#x13d;" horiz-adv-x="1136" 
d="M312 1312q74 0 242 12q4 -12 4 -35t-8 -23q-20 0 -72 -14t-56 -28q-18 -70 -18 -186v-754q0 -106 18 -176q6 -20 136 -20h96q186 0 252 34q30 16 67 71t59 131q4 12 35 12t43 -12q-98 -254 -108 -332l-682 12l-242 -6q-6 6 -6 32t6 26q28 0 78 12t62 33t12 185v756
q0 128 -14 182q-6 16 -57 29t-77 13q-8 0 -8 25t8 33q156 -12 230 -12zM938 1292q0 38 37 66t99 28q30 -36 30 -111t-63 -169t-101 -94q-8 0 -18 9t-10 17l18 16q52 58 52 124q0 12 -22 44t-22 70z" />
    <glyph glyph-name="lcaron" unicode="&#x13e;" horiz-adv-x="502" 
d="M324 1388q8 0 16 -11t10 -21q-22 -64 -22 -174v-912q0 -116 16 -178q4 -14 52 -27t68 -13q6 0 8 -24t-2 -34q-200 10 -213 10t-219 -10q-8 8 -8 33t8 25q24 0 71 13t51 27q14 58 14 140v866q0 68 -12 128q-10 32 -102 32h-18q-12 0 -12 27t12 27q204 20 278 76h4z
M438 1292q0 38 37 66t99 28q30 -36 30 -111t-63 -169t-101 -94q-8 0 -18 9t-10 17l18 16q52 58 52 124q0 12 -22 44t-22 70z" />
    <glyph glyph-name="Ldot" unicode="&#x13f;" horiz-adv-x="1136" 
d="M312 1312q74 0 242 12q4 -12 4 -35t-8 -23q-20 0 -72 -14t-56 -28q-18 -70 -18 -186v-754q0 -106 18 -176q6 -20 136 -20h96q186 0 252 34q30 16 67 71t59 131q4 12 35 12t43 -12q-98 -254 -108 -332l-682 12l-242 -6q-6 6 -6 32t6 26q28 0 78 12t62 33t12 185v756
q0 128 -14 182q-6 16 -57 29t-77 13q-8 0 -8 25t8 33q156 -12 230 -12zM770 628q0 42 29 71t71 29t71 -29t29 -71t-29 -71t-71 -29t-71 29t-29 71z" />
    <glyph glyph-name="ldot" unicode="&#x140;" horiz-adv-x="860" 
d="M370 1388q8 0 16 -11t10 -21q-22 -64 -22 -174v-912q0 -116 16 -178q4 -14 52 -27t68 -13q6 0 8 -24t-2 -34q-200 10 -213 10t-219 -10q-8 8 -8 33t8 25q24 0 71 13t51 27q14 58 14 140v866q0 68 -12 128q-10 32 -102 32h-18q-12 0 -12 27t12 27q204 20 278 76h4z
M580 588q0 42 29 71t71 29t71 -29t29 -71t-29 -71t-71 -29t-71 29t-29 71z" />
    <glyph glyph-name="Lslash" unicode="&#x141;" horiz-adv-x="1232" 
d="M344 1312q74 0 242 12q4 -12 4 -35t-8 -23q-20 0 -72 -14t-56 -28q-18 -70 -18 -186v-398l374 254q10 -10 26 -34t10 -28l-410 -272v-276q0 -106 18 -176q6 -20 136 -20h96q186 0 252 34q30 16 67 71t59 131q4 12 35 12t43 -12q-98 -254 -108 -332l-682 12l-242 -6
q-6 6 -6 32t6 26q28 0 78 12t62 33t12 185v154l-118 -84q-12 12 -26 33t-8 25l152 106v522q0 128 -14 182q-6 16 -57 29t-77 13q-8 0 -8 25t8 33q156 -12 230 -12z" />
    <glyph glyph-name="lslash" unicode="&#x142;" horiz-adv-x="570" 
d="M350 1388q8 0 16 -11t10 -21q-22 -64 -22 -174v-406l102 70q44 -42 32 -54l-134 -92v-430q0 -116 16 -178q4 -14 52 -27t68 -13q6 0 8 -24t-2 -34q-200 10 -214 10t-218 -10q-8 8 -8 33t8 25q24 0 71 13t51 27q14 58 14 140v362l-108 -74q-12 12 -24 31t-6 25l138 94v428
q0 68 -12 128q-10 32 -102 32h-18q-12 0 -12 27t12 27q182 18 278 76h4z" />
    <glyph glyph-name="Nacute" unicode="&#x143;" horiz-adv-x="1442" 
d="M1394 1291q0 -21 -8 -21q-20 0 -87 -16t-71 -30q-16 -62 -16 -186v-760q0 -124 6 -280q-8 -8 -40 -8t-64 46l-776 1100v-854q0 -132 14 -186q4 -14 67 -29t83 -15q6 0 7 -24t-3 -34q-200 10 -230 10l-230 -10q-6 6 -6 32t6 26q28 0 91 15t69 33q20 52 20 188v786
q0 98 -14 150q-6 16 -68 29t-90 13q-8 0 -8 25t8 33q156 -4 232 -4t132 4q74 -136 678 -980q6 34 6 82v622q0 122 -14 176q-6 16 -69 31t-89 15q-8 0 -8 23t8 31q156 -12 236 -12l224 12q4 -12 4 -33zM594 1482q0 14 92 104t146 130q12 6 50 6t64 -19t26 -41
q0 -46 -160 -126t-198 -80q-20 0 -20 26z" />
    <glyph glyph-name="nacute" unicode="&#x144;" horiz-adv-x="1086" 
d="M358 754q0 -16 3 -16t7 4q46 48 125 91t151 43q140 0 196 -100t56 -324v-182q0 -116 16 -178q4 -14 52 -27t68 -13q6 0 8 -24t-2 -34q-200 10 -209 10t-215 -10q-8 8 -8 33t8 25q24 0 67 13t47 27q14 58 14 140v200q0 186 -48 254t-156 68q-64 0 -123 -47t-59 -85v-352
q0 -116 16 -178q4 -14 52 -27t68 -13q6 0 8 -24t-2 -34q-200 10 -213 10t-219 -10q-8 8 -8 33t8 25q24 0 71 13t51 27q14 58 14 140v378q0 78 -24 105t-53 36t-48 9t-19 4q0 48 12 50q212 32 245 42t41 12q17 0 10 -49q-8 -49 -8 -65zM719 1318q41 0 66 -14t25 -34
q0 -50 -143 -161t-168 -111t-25 26q0 18 76 128t110 148q18 18 59 18z" />
    <glyph glyph-name="Ncommaaccent" unicode="&#x145;" horiz-adv-x="1442" 
d="M1394 1291q0 -21 -8 -21q-20 0 -87 -16t-71 -30q-16 -62 -16 -186v-760q0 -124 6 -280q-8 -8 -40 -8t-64 46l-776 1100v-854q0 -132 14 -186q4 -14 67 -29t83 -15q6 0 7 -24t-3 -34q-200 10 -230 10l-230 -10q-6 6 -6 32t6 26q28 0 91 15t69 33q20 52 20 188v786
q0 98 -14 150q-6 16 -68 29t-90 13q-8 0 -8 25t8 33q156 -4 232 -4t132 4q74 -136 678 -980q6 34 6 82v622q0 122 -14 176q-6 16 -69 31t-89 15q-8 0 -8 23t8 31q156 -12 236 -12l224 12q4 -12 4 -33zM646 -195q0 37 38 70t120 33q18 -14 31 -47t13 -59q0 -160 -164 -252
q-4 -4 -30 -4t-26 14l46 44q46 46 46 73t-37 59t-37 69z" />
    <glyph glyph-name="ncommaaccent" unicode="&#x146;" horiz-adv-x="1086" 
d="M358 754q0 -16 3 -16t7 4q46 48 125 91t151 43q140 0 196 -100t56 -324v-182q0 -116 16 -178q4 -14 52 -27t68 -13q6 0 8 -24t-2 -34q-200 10 -209 10t-215 -10q-8 8 -8 33t8 25q24 0 67 13t47 27q14 58 14 140v200q0 186 -48 254t-156 68q-64 0 -123 -47t-59 -85v-352
q0 -116 16 -178q4 -14 52 -27t68 -13q6 0 8 -24t-2 -34q-200 10 -213 10t-219 -10q-8 8 -8 33t8 25q24 0 71 13t51 27q14 58 14 140v378q0 78 -24 105t-53 36t-48 9t-19 4q0 48 12 50q212 32 245 42t41 12q17 0 10 -49q-8 -49 -8 -65zM438 -195q0 37 38 70t120 33
q18 -14 31 -47t13 -59q0 -160 -164 -252q-4 -4 -30 -4t-26 14l46 44q46 46 46 73t-37 59t-37 69z" />
    <glyph glyph-name="Ncaron" unicode="&#x147;" horiz-adv-x="1442" 
d="M1394 1291q0 -21 -8 -21q-20 0 -87 -16t-71 -30q-16 -62 -16 -186v-760q0 -124 6 -280q-8 -8 -40 -8t-64 46l-776 1100v-854q0 -132 14 -186q4 -14 67 -29t83 -15q6 0 7 -24t-3 -34q-200 10 -230 10l-230 -10q-6 6 -6 32t6 26q28 0 91 15t69 33q20 52 20 188v786
q0 98 -14 150q-6 16 -68 29t-90 13q-8 0 -8 25t8 33q156 -4 232 -4t132 4q74 -136 678 -980q6 34 6 82v622q0 122 -14 176q-6 16 -69 31t-89 15q-8 0 -8 23t8 31q156 -12 236 -12l224 12q4 -12 4 -33zM940 1716q18 0 18 -40q0 -2 -29 -25t-95 -83q-40 -40 -66 -76t-38 -36
q-6 0 -20 16q-28 40 -70 79t-85 78t-51 47q0 40 19 40t89 -40t118 -76q172 116 210 116z" />
    <glyph glyph-name="ncaron" unicode="&#x148;" horiz-adv-x="1086" 
d="M358 754q0 -16 3 -16t7 4q46 48 125 91t151 43q140 0 196 -100t56 -324v-182q0 -116 16 -178q4 -14 52 -27t68 -13q6 0 8 -24t-2 -34q-200 10 -209 10t-215 -10q-8 8 -8 33t8 25q24 0 67 13t47 27q14 58 14 140v200q0 186 -48 254t-156 68q-64 0 -123 -47t-59 -85v-352
q0 -116 16 -178q4 -14 52 -27t68 -13q6 0 8 -24t-2 -34q-200 10 -213 10t-219 -10q-8 8 -8 33t8 25q24 0 71 13t51 27q14 58 14 140v378q0 78 -24 105t-53 36t-48 9t-19 4q0 48 12 50q212 32 245 42t41 12q17 0 10 -49q-8 -49 -8 -65zM726 1296q16 0 16 -46q0 -2 -37 -39
t-67 -76t-59 -87t-37 -48t-26 31t-55 77t-75 89t-44 53q0 46 17 46t77 -45t104 -87q46 42 108 87t78 45z" />
    <glyph glyph-name="Eng" unicode="&#x14a;" horiz-adv-x="1548" 
d="M1452 1291q0 -21 -8 -21q-20 0 -87 -16t-71 -30q-16 -62 -16 -186v-868q0 -264 -112 -444t-324 -180q-48 0 -104 32q-24 28 -24 73t37 73t80 28t88 -43t71 -43q56 0 110 99t66 291l-762 1080v-854q0 -132 14 -186q4 -14 67 -29t83 -15q6 0 7 -24t-3 -34q-200 10 -230 10
l-230 -10q-6 6 -6 32t6 26q28 0 91 15t69 33q20 52 20 188v786q0 98 -14 150q-6 16 -68 29t-90 13q-8 0 -8 25t8 33q156 -4 232 -4t132 4q74 -136 678 -980q6 34 6 82v622q0 122 -14 176q-6 16 -69 31t-89 15q-8 0 -8 23t8 31q156 -12 236 -12l224 12q4 -12 4 -33z" />
    <glyph glyph-name="eng" unicode="&#x14b;" horiz-adv-x="1064" 
d="M938 502v-366q0 -254 -78 -376q-50 -78 -127 -138t-141 -84q-16 10 -23 25t-3 19l24 12q59 30 118 123q32 51 54 149t22 226v362q0 288 -196 288q-58 0 -120 -45t-70 -65v-362q0 -116 16 -178q4 -14 52 -27t68 -13q6 0 8 -24t-2 -34q-200 10 -214 10t-218 -10q-8 8 -8 33
t8 25q24 0 71 13t51 27q14 58 14 140v378q0 78 -24 105t-53 36t-48 9t-19 4q0 48 12 50q246 37 280 54h6q8 0 10 -17t0 -25l-10 -88l10 -4q136 142 262 142t197 -100t71 -274z" />
    <glyph glyph-name="Omacron" unicode="&#x14c;" horiz-adv-x="1456" 
d="M468 1502q0 78 28 78h500q12 0 12 -20t-8 -45t-20 -31h-502q-2 0 -6 5t-4 13zM88 656q0 280 187 479t451 199t452 -199t188 -479t-188 -478t-452 -198t-451 198t-187 478zM696 1250q-190 0 -300 -166t-110 -384q0 -160 52 -302t162 -237t248 -95t234 83q186 161 186 469
q0 160 -52 301t-162 236t-258 95z" />
    <glyph glyph-name="omacron" unicode="&#x14d;" horiz-adv-x="1020" 
d="M284 1044q0 74 24 74h416q10 0 10 -17t-7 -42t-15 -33h-416q-12 6 -12 18zM505 874q183 0 311 -130t128 -313t-125 -314t-307 -131t-310 131t-128 316t124 313t307 128zM490 796q-110 0 -177 -97t-67 -249t85 -269t195 -117t178 100t68 251t-86 266t-196 115z" />
    <glyph glyph-name="Obreve" unicode="&#x14e;" horiz-adv-x="1456" 
d="M736 1546q64 0 112 31t62 85q0 4 9 4t22 -8t13 -14v-6q-2 -6 -2 -8q-14 -72 -76 -126t-141 -54t-140 53t-75 129q0 2 -2 8v4q0 6 13 14t22 8t9 -4q14 -54 62 -85t112 -31zM88 656q0 280 187 479t451 199t452 -199t188 -479t-188 -478t-452 -198t-451 198t-187 478z
M696 1250q-190 0 -300 -166t-110 -384q0 -160 52 -302t162 -237t248 -95t234 83q186 161 186 469q0 160 -52 301t-162 236t-258 95z" />
    <glyph glyph-name="obreve" unicode="&#x14f;" horiz-adv-x="1066" 
d="M532 1086q62 0 110 40t64 104q0 6 9 6t22 -9t13 -17v-8q-2 -6 -2 -8q-14 -82 -75 -141t-141 -59t-141 58t-75 144q0 2 -2 8v6q0 8 13 17t22 9t9 -6q16 -64 64 -104t110 -40zM533 874q183 0 311 -130t128 -313t-125 -314t-307 -131t-310 131t-128 316t124 313t307 128z
M518 796q-110 0 -177 -97t-67 -249t85 -269t195 -117t178 100t68 251t-86 266t-196 115z" />
    <glyph glyph-name="Ohungarumlaut" unicode="&#x150;" horiz-adv-x="1456" 
d="M530 1482q0 14 92 104t146 130q12 6 50 6t64 -19t26 -41q0 -46 -160 -126t-198 -80q-20 0 -20 26zM830 1482q0 14 92 104t146 130q12 6 50 6t64 -19t26 -41q0 -46 -160 -126t-198 -80q-20 0 -20 26zM88 656q0 280 187 479t451 199t452 -199t188 -479t-188 -478t-452 -198
t-451 198t-187 478zM696 1250q-190 0 -300 -166t-110 -384q0 -160 52 -302t162 -237t248 -95t234 83q186 161 186 469q0 160 -52 301t-162 236t-258 95z" />
    <glyph glyph-name="ohungarumlaut" unicode="&#x151;" horiz-adv-x="1020" 
d="M553 1314q41 0 66 -14t25 -34q0 -50 -143 -161t-168 -111t-25 26q0 18 76 128t110 148q18 18 59 18zM807 1314q41 0 66 -14t25 -34q0 -50 -143 -161t-168 -111t-25 26q0 18 76 128t110 148q18 18 59 18zM505 874q183 0 311 -130t128 -313t-125 -314t-307 -131t-310 131
t-128 316t124 313t307 128zM490 796q-110 0 -177 -97t-67 -249t85 -269t195 -117t178 100t68 251t-86 266t-196 115z" />
    <glyph glyph-name="OE" unicode="&#x152;" horiz-adv-x="2070" 
d="M728 -14q-264 0 -446 195t-182 475t187 479t451 199q14 0 192 -11t256 -11l646 16q8 -58 31 -153t27 -119q-10 -10 -36 -10t-28 14q-30 110 -84 141t-148 31h-134q-172 0 -176 -26q-10 -48 -10 -168v-320q0 -12 90 -12h149q59 0 87 8t36 10t21 26t15 35t14 57q2 14 28 14
t36 -10v-378q-8 -8 -33 -8t-31 16q-26 100 -35 109t-28 21t-184 12t-165 -18v-310q0 -130 18 -182q6 -20 136 -20h96q186 0 252 34q30 16 67 71t59 131q2 12 34 12t44 -12q-98 -254 -108 -332l-682 12q-90 0 -223 -9t-239 -9zM708 1250q-190 0 -300 -166t-110 -384
q0 -160 57 -303t176 -240t273 -97q100 0 158 14q92 22 123 137q15 56 15 173v592q0 132 -70 196q-52 48 -126 63t-196 15z" />
    <glyph glyph-name="oe" unicode="&#x153;" horiz-adv-x="1614" 
d="M516 794q-110 0 -177 -97t-67 -248t85 -268t195 -117t178 100t68 251t-86 265t-196 114zM1179 798q-75 0 -125 -53q-80 -85 -80 -183q0 -14 12 -14h364q10 4 10 20q0 60 -53 145t-128 85zM1264 104q66 0 121 23t83 46t30 23q12 0 12 -25t-12 -37q-140 -150 -296 -150
q-210 0 -326 170q-126 -168 -338 -168q-182 0 -310 131t-128 316t124 312t310 127q216 0 348 -174q104 172 300 172q92 0 161 -34t104 -90q67 -107 67 -224q0 -40 -11 -48t-71 -9t-448 -1q-10 0 -12 -6t-4 -10v-16q-2 -16 -2 -28l2 -24q8 -106 85 -191t211 -85z" />
    <glyph glyph-name="Racute" unicode="&#x154;" horiz-adv-x="1320" 
d="M474 1482q0 14 92 104t146 130q12 6 50 6t64 -19t26 -41q0 -46 -160 -126t-198 -80q-20 0 -20 26zM1038 961q0 -91 -63 -183t-171 -142q-20 -8 -12 -20q100 -210 230 -352q192 -210 312 -210q6 -12 6 -29t-6 -29q-22 -6 -54 -6q-280 0 -486 288q-32 44 -73 105
q-67 99 -107 151q-40 51 -72 64q-32 14 -66 14t-42 -1q-24 -3 -24 -33v-294q0 -134 13 -167t74 -49t87 -16q8 0 8 -23t-4 -35q-200 10 -260 10l-244 -10q-6 6 -6 34t6 28q28 0 78 12t62 33t12 185v756q0 118 -14 172q-6 16 -59 30t-79 14q-8 0 -8 25t8 33l240 -4l282 8
q140 0 276 -80q68 -40 112 -114t44 -165zM574 1232q-90 0 -140 -14q-16 -4 -20 -63t-4 -157v-242q0 -58 174 -58h50q70 0 145 70t75 186q0 278 -280 278z" />
    <glyph glyph-name="racute" unicode="&#x155;" horiz-adv-x="760" 
d="M625 1324q41 0 66 -14t25 -34q0 -50 -143 -161t-168 -111t-25 26q0 18 76 128t110 148q18 18 59 18zM586 874q118 0 156 -58q0 -70 -22 -102t-56 -32t-64 34t-87 34t-103 -58t-46 -122v-300q0 -116 16 -178q4 -14 53 -27t69 -13q6 0 8 -24t-2 -34q-200 10 -214 10
t-220 -10q-8 8 -8 33t8 25q24 0 71 13t51 27q14 58 14 140v378q0 78 -24 105t-53 36t-48 9t-19 4q0 48 12 50q212 32 245 42t41 12q8 0 10 -17t0 -25l-12 -100q36 54 99 101t125 47z" />
    <glyph glyph-name="Rcommaaccent" unicode="&#x156;" horiz-adv-x="1320" 
d="M618 -195q0 37 38 70t120 33q18 -14 31 -47t13 -59q0 -160 -164 -252q-4 -4 -30 -4t-26 14l46 44q46 46 46 73t-37 59t-37 69zM1038 961q0 -91 -63 -183t-171 -142q-20 -8 -12 -20q100 -210 230 -352q192 -210 312 -210q6 -12 6 -29t-6 -29q-22 -6 -54 -6
q-280 0 -486 288q-32 44 -73 105q-67 99 -107 151q-40 51 -72 64q-32 14 -66 14t-42 -1q-24 -3 -24 -33v-294q0 -134 13 -167t74 -49t87 -16q8 0 8 -23t-4 -35q-200 10 -260 10l-244 -10q-6 6 -6 34t6 28q28 0 78 12t62 33t12 185v756q0 118 -14 172q-6 16 -59 30t-79 14
q-8 0 -8 25t8 33l240 -4l282 8q140 0 276 -80q68 -40 112 -114t44 -165zM574 1232q-90 0 -140 -14q-16 -4 -20 -63t-4 -157v-242q0 -58 174 -58h50q70 0 145 70t75 186q0 278 -280 278z" />
    <glyph glyph-name="rcommaaccent" unicode="&#x157;" horiz-adv-x="760" 
d="M178 -195q0 37 38 70t120 33q18 -14 31 -47t13 -59q0 -160 -164 -252q-4 -4 -30 -4t-26 14l46 44q46 46 46 73t-37 59t-37 69zM586 874q118 0 156 -58q0 -70 -22 -102t-56 -32t-64 34t-87 34t-103 -58t-46 -122v-300q0 -116 16 -178q4 -14 53 -27t69 -13q6 0 8 -24
t-2 -34q-200 10 -214 10t-220 -10q-8 8 -8 33t8 25q24 0 71 13t51 27q14 58 14 140v378q0 78 -24 105t-53 36t-48 9t-19 4q0 48 12 50q212 32 245 42t41 12q8 0 10 -17t0 -25l-12 -100q36 54 99 101t125 47z" />
    <glyph glyph-name="Rcaron" unicode="&#x158;" horiz-adv-x="1320" 
d="M824 1716q18 0 18 -40q0 -2 -29 -25t-95 -83q-40 -40 -66 -76t-38 -36q-6 0 -20 16q-28 40 -70 79t-85 78t-51 47q0 40 19 40t89 -40t118 -76q172 116 210 116zM1038 961q0 -91 -63 -183t-171 -142q-20 -8 -12 -20q100 -210 230 -352q192 -210 312 -210q6 -12 6 -29
t-6 -29q-22 -6 -54 -6q-280 0 -486 288q-32 44 -73 105q-67 99 -107 151q-40 51 -72 64q-32 14 -66 14t-42 -1q-24 -3 -24 -33v-294q0 -134 13 -167t74 -49t87 -16q8 0 8 -23t-4 -35q-200 10 -260 10l-244 -10q-6 6 -6 34t6 28q28 0 78 12t62 33t12 185v756q0 118 -14 172
q-6 16 -59 30t-79 14q-8 0 -8 25t8 33l240 -4l282 8q140 0 276 -80q68 -40 112 -114t44 -165zM574 1232q-90 0 -140 -14q-16 -4 -20 -63t-4 -157v-242q0 -58 174 -58h50q70 0 145 70t75 186q0 278 -280 278z" />
    <glyph glyph-name="rcaron" unicode="&#x159;" horiz-adv-x="760" 
d="M588 1302q16 0 16 -46q0 -2 -37 -39t-67 -76t-59 -87t-37 -48t-26 31t-55 77t-75 89t-44 53q0 46 17 46t77 -45t104 -87q46 42 108 87t78 45zM586 874q118 0 156 -58q0 -70 -22 -102t-56 -32t-64 34t-87 34t-103 -58t-46 -122v-300q0 -116 16 -178q4 -14 53 -27t69 -13
q6 0 8 -24t-2 -34q-200 10 -214 10t-220 -10q-8 8 -8 33t8 25q24 0 71 13t51 27q14 58 14 140v378q0 78 -24 105t-53 36t-48 9t-19 4q0 48 12 50q212 32 245 42t41 12q8 0 10 -17t0 -25l-12 -100q36 54 99 101t125 47z" />
    <glyph glyph-name="Sacute" unicode="&#x15a;" horiz-adv-x="982" 
d="M402 1482q0 14 92 104t146 130q12 6 50 6t64 -19t26 -41q0 -46 -160 -126t-198 -80q-20 0 -20 26zM122 980q0 154 118 253t274 99q80 0 126 -11t93 -24t83 -21q24 -106 24 -286q0 -14 -34 -14t-38 20q-10 88 -85 171t-189 83t-163 -60t-49 -135t41 -142t239 -181
q106 -63 140 -87q110 -75 159 -145t49 -154q0 -160 -125 -263t-293 -103q-110 0 -224 27t-136 31q-50 246 -50 318q0 12 34 12t48 -18q68 -288 332 -288q100 0 170 60t70 172t-83 175q-54 41 -109 71q-56 30 -94 52t-61 36t-76 49t-77 62t-56 66q-58 71 -58 175z" />
    <glyph glyph-name="sacute" unicode="&#x15b;" horiz-adv-x="718" 
d="M603 1316q41 0 66 -14t25 -34q0 -50 -143 -161t-168 -111t-25 26q0 18 76 128t110 148q18 18 59 18zM382 874q44 0 111 -11t93 -15q20 -92 24 -204q0 -10 -27 -10t-29 14q-10 56 -57 106t-107 50q-144 0 -144 -118q0 -61 31 -90q31 -28 43 -37t53 -32t50 -28t48 -28
t55 -33q132 -82 132 -192t-92 -189t-216 -79q-72 0 -140 17t-94 21q-12 32 -23 100t-11 108q16 12 35 12t21 -12q12 -60 75 -117t132 -57t110 35t41 85t-13 79t-42 52t-54 38t-71 39t-68 38q-156 90 -156 206t87 184t203 68z" />
    <glyph glyph-name="Scircumflex" unicode="&#x15c;" horiz-adv-x="982" 
d="M732 1396q-38 0 -210 116q-48 -36 -118 -76t-89 -40t-19 40q8 8 51 47t85 78t70 79q14 16 23 16t35 -36q56 -78 172 -168q18 -14 18 -16q0 -40 -18 -40zM122 980q0 154 118 253t274 99q80 0 126 -11t93 -24t83 -21q24 -106 24 -286q0 -14 -34 -14t-38 20q-10 88 -85 171
t-189 83t-163 -60t-49 -135t41 -142t239 -181q106 -63 140 -87q110 -75 159 -145t49 -154q0 -160 -125 -263t-293 -103q-110 0 -224 27t-136 31q-50 246 -50 318q0 12 34 12t48 -18q68 -288 332 -288q100 0 170 60t70 172t-83 175q-54 41 -109 71q-56 30 -94 52t-61 36
t-76 49t-77 62t-56 66q-58 71 -58 175z" />
    <glyph glyph-name="scircumflex" unicode="&#x15d;" horiz-adv-x="718" 
d="M554 980q0 -46 -15 -46t-77 45t-108 87q-44 -42 -104 -87t-77 -45t-17 46q6 8 73 84t94 122t31 46q10 0 39 -49t52 -79t50 -60t43 -46t16 -18zM382 874q44 0 111 -11t93 -15q20 -92 24 -204q0 -10 -27 -10t-29 14q-10 56 -57 106t-107 50q-144 0 -144 -118q0 -61 31 -90
q31 -28 43 -37t53 -32t50 -28t48 -28t55 -33q132 -82 132 -192t-92 -189t-216 -79q-72 0 -140 17t-94 21q-12 32 -23 100t-11 108q16 12 35 12t21 -12q12 -60 75 -117t132 -57t110 35t41 85t-13 79t-42 52t-54 38t-71 39t-68 38q-156 90 -156 206t87 184t203 68z" />
    <glyph glyph-name="Scedilla" unicode="&#x15e;" horiz-adv-x="982" 
d="M370 -270q12 0 39 -15t61 -15t61 23t27 58t-23 56t-48 21t-63 -16q-4 0 -15 12t-7 20t30 48t38 58q-99 3 -207 28q-109 26 -131 30q-50 246 -50 318q0 12 34 12t48 -18q68 -288 332 -288q100 0 170 60t70 172t-83 175q-54 41 -109 71q-56 30 -94 52t-61 36t-76 49t-77 62
t-56 66q-58 71 -58 175q0 154 118 253t274 99q80 0 126 -11t93 -24t83 -21q24 -106 24 -286q0 -14 -34 -14t-38 20q-10 88 -85 171t-189 83t-163 -60t-49 -135t41 -142t239 -181q106 -63 140 -87q110 -75 159 -145t49 -154q0 -160 -120 -259t-273 -106l-35 -43h60
q46 0 75 -34t29 -82q0 -80 -64 -129t-137 -49t-101 20l-8 34q0 12 11 22t23 10z" />
    <glyph glyph-name="scedilla" unicode="&#x15f;" horiz-adv-x="718" 
d="M239 -234q11 0 33 -13t51 -13t52 19t23 49t-20 48t-40 18t-54 -14q-4 0 -13 10t-4 19t26 41t30 49q-58 2 -119 18q-62 15 -88 19q-12 32 -23 100t-11 108q16 12 35 12t21 -12q12 -60 75 -117t132 -57t110 35t41 85t-13 79t-42 52t-54 38t-71 39t-68 38q-156 90 -156 206
t87 184t203 68q44 0 111 -11t93 -15q20 -92 24 -204q0 -10 -27 -10t-29 14q-10 56 -57 106t-107 50q-144 0 -144 -118q0 -61 31 -90q31 -28 43 -37t53 -32t50 -28t48 -28t55 -33q132 -82 132 -192t-90 -187t-206 -81l-28 -36h50q38 0 63 -29t25 -69q0 -68 -54 -110t-115 -42
t-87 18l-6 28q0 10 9 19t20 9z" />
    <glyph glyph-name="Scaron" unicode="&#x160;" horiz-adv-x="982" 
d="M732 1716q18 0 18 -40q0 -2 -29 -25t-95 -83q-40 -40 -66 -76t-38 -36q-6 0 -20 16q-28 40 -70 79t-85 78t-51 47q0 40 19 40t89 -40t118 -76q172 116 210 116zM122 980q0 154 118 253t274 99q80 0 126 -11t93 -24t83 -21q24 -106 24 -286q0 -14 -34 -14t-38 20
q-10 88 -85 171t-189 83t-163 -60t-49 -135t41 -142t239 -181q106 -63 140 -87q110 -75 159 -145t49 -154q0 -160 -125 -263t-293 -103q-110 0 -224 27t-136 31q-50 246 -50 318q0 12 34 12t48 -18q68 -288 332 -288q100 0 170 60t70 172t-83 175q-54 41 -109 71
q-56 30 -94 52t-61 36t-76 49t-77 62t-56 66q-58 71 -58 175z" />
    <glyph glyph-name="scaron" unicode="&#x161;" horiz-adv-x="766" 
d="M582 1294q16 0 16 -46q0 -2 -37 -39t-67 -76t-59 -87t-37 -48t-26 31t-55 77t-75 89t-44 53q0 46 17 46t77 -45t104 -87q46 42 108 87t78 45zM400 874q44 0 111 -11t93 -15q20 -92 24 -204q0 -10 -27 -10t-29 14q-10 56 -57 106t-107 50q-144 0 -144 -118q0 -61 31 -90
q31 -28 43 -37t53 -32t50 -28t48 -28t55 -33q132 -82 132 -192t-92 -189t-216 -79q-72 0 -140 17t-94 21q-12 32 -23 100t-11 108q16 12 35 12t21 -12q12 -60 75 -117t132 -57t110 35t41 85t-13 79t-42 52t-54 38t-71 39t-68 38q-156 90 -156 206t87 184t203 68z" />
    <glyph glyph-name="uni0162" unicode="&#x162;" horiz-adv-x="1338" 
d="M1246 1042q-26 0 -28 10q-28 112 -69 145t-155 33q-212 0 -220 -30q-18 -64 -18 -200v-722q0 -116 18 -186q4 -14 56 -27t72 -13q8 0 8 -23t-4 -35q-200 10 -221 10t-251 -10q-8 8 -8 33t8 25q26 0 77 12t57 28q14 54 14 178v724q0 174 -17 205t-217 31q-114 0 -155 -33
t-69 -145q-2 -10 -28 -10t-40 14l38 286q88 -22 138 -22l438 -8l440 8q50 0 138 22l38 -286q-14 -14 -40 -14zM590 -195q0 37 38 70t120 33q18 -14 31 -47t13 -59q0 -160 -164 -252q-4 -4 -30 -4t-26 14l46 44q46 46 46 73t-37 59t-37 69z" />
    <glyph glyph-name="uni0163" unicode="&#x163;" horiz-adv-x="628" 
d="M600 815q0 -27 -20 -67h-266v-490q0 -80 41 -128t104 -48t127 38q6 4 18 -17t10 -23q-30 -32 -92 -63t-145 -31t-150 66t-67 188v508h-116q-10 0 -10 27t2 29q58 26 109 86t80 110t29 52q60 0 60 -10v-198l270 -2q16 0 16 -27zM290 -195q0 37 38 70t120 33q18 -14 31 -47
t13 -59q0 -160 -164 -252q-4 -4 -30 -4t-26 14l46 44q46 46 46 73t-37 59t-37 69z" />
    <glyph glyph-name="Tcaron" unicode="&#x164;" horiz-adv-x="1338" 
d="M890 1724q18 0 18 -40q0 -2 -29 -25t-95 -83q-40 -40 -66 -76t-38 -36q-6 0 -20 16q-28 40 -70 79t-85 78t-51 47q0 40 19 40t89 -40t118 -76q172 116 210 116zM1246 1042q-26 0 -28 10q-28 112 -69 145t-155 33q-212 0 -220 -30q-18 -64 -18 -200v-722q0 -116 18 -186
q4 -14 56 -27t72 -13q8 0 8 -23t-4 -35q-200 10 -221 10t-251 -10q-8 8 -8 33t8 25q26 0 77 12t57 28q14 54 14 178v724q0 174 -17 205t-217 31q-114 0 -155 -33t-69 -145q-2 -10 -28 -10t-40 14l38 286q88 -22 138 -22l438 -8l440 8q50 0 138 22l38 -286q-14 -14 -40 -14z
" />
    <glyph glyph-name="tcaron" unicode="&#x165;" horiz-adv-x="628" 
d="M472 1230q0 38 37 66t99 28q30 -36 30 -111t-63 -169t-101 -94q-8 0 -18 9t-10 17l18 16q52 58 52 124q0 12 -22 44t-22 70zM600 815q0 -27 -20 -67h-266v-490q0 -80 41 -128t104 -48t127 38q6 4 18 -17t10 -23q-30 -32 -92 -63t-145 -31t-150 66t-67 188v508h-116
q-10 0 -10 27t2 29q58 26 109 86t80 110t29 52q60 0 60 -10v-198l270 -2q16 0 16 -27z" />
    <glyph glyph-name="Tbar" unicode="&#x166;" horiz-adv-x="1402" 
d="M1276 1042q-26 0 -28 10q-28 112 -69 145t-155 33q-212 0 -220 -30q-18 -64 -18 -200v-304h260q12 0 12 -26t-12 -54h-260v-338q0 -116 18 -186q4 -14 56 -27t72 -13q8 0 8 -23t-4 -35q-200 10 -221 10t-251 -10q-8 8 -8 33t8 25q26 0 77 12t57 28q14 54 14 178v346h-256
q-10 0 -10 31t12 49h254v298q0 174 -16 205t-218 31q-114 0 -155 -33t-69 -145q-2 -10 -28 -10t-40 14l38 286q88 -22 138 -22l438 -8l440 8q50 0 138 22l38 -286q-14 -14 -40 -14z" />
    <glyph glyph-name="tbar" unicode="&#x167;" horiz-adv-x="634" 
d="M586 815q0 -27 -20 -67h-266v-132h270q12 0 12 -26t-12 -54h-270v-278q0 -80 41 -128t104 -48t127 38q6 4 18 -17t10 -23q-30 -32 -92 -63t-145 -31t-150 66t-67 188v296h-114q-10 0 -10 31t12 49h112v132h-116q-10 0 -10 27t2 29q58 26 109 86t80 110t29 52q60 0 60 -10
v-198l270 -2q16 0 16 -27z" />
    <glyph glyph-name="Utilde" unicode="&#x168;" horiz-adv-x="1438" 
d="M918 1532q64 0 94 68q4 2 12 2q18 0 18 -32q0 -56 -55 -98t-107 -42t-136 43t-144 43t-92 -70q-4 -2 -12 -2q-18 0 -18 32q0 56 55 98t106 42t133 -42t146 -42zM1398 1291q0 -21 -8 -21q-20 0 -87 -16t-71 -30q-16 -62 -16 -186v-486q0 -310 -130 -431t-369 -121
t-367 140t-128 452v454q0 124 -14 178q-6 16 -57 29t-77 13q-8 0 -8 25t8 33q230 -10 251 -10t221 10q4 -12 4 -35t-8 -23q-20 0 -72 -14t-56 -28q-18 -70 -18 -186v-446q0 -226 96 -360t272 -134q342 0 342 450v500q0 122 -14 176q-6 16 -69 31t-89 15q-8 0 -8 23t8 31
q156 -12 236 -12l224 12q4 -12 4 -33z" />
    <glyph glyph-name="utilde" unicode="&#x169;" horiz-adv-x="1034" 
d="M638 1098q64 0 94 68q4 2 12 2q18 0 18 -32q0 -56 -55 -98t-107 -42t-136 43t-144 43t-92 -70q-4 -2 -12 -2q-18 0 -18 32q0 56 55 98t106 42t133 -42t146 -42zM870 682v-400q0 -86 14 -152q10 -34 100 -34l18 -2q6 -2 6 -15t-5 -26t-11 -13q-123 -8 -240 -52l-18 -4
q-16 0 -16 32v102l-4 10q-132 -142 -262 -142q-74 0 -127 37t-78 98q-45 110 -45 237v252q0 78 -24 105t-53 36t-48 9t-19 4q0 48 12 50q212 32 245 42t41 12q17 0 7 -69q-9 -69 -9 -121v-270q0 -154 46 -227t150 -73q60 0 114 47t54 81v374q0 78 -24 105t-53 36t-48 9
t-19 4q0 48 12 50q212 32 245 42t41 12q17 0 7 -69q-9 -69 -9 -117z" />
    <glyph glyph-name="Umacron" unicode="&#x16a;" horiz-adv-x="1438" 
d="M474 1502q0 78 28 78h500q12 0 12 -20t-8 -45t-20 -31h-502q-2 0 -6 5t-4 13zM1398 1291q0 -21 -8 -21q-20 0 -87 -16t-71 -30q-16 -62 -16 -186v-486q0 -310 -130 -431t-369 -121t-367 140t-128 452v454q0 124 -14 178q-6 16 -57 29t-77 13q-8 0 -8 25t8 33
q230 -10 251 -10t221 10q4 -12 4 -35t-8 -23q-20 0 -72 -14t-56 -28q-18 -70 -18 -186v-446q0 -226 96 -360t272 -134q342 0 342 450v500q0 122 -14 176q-6 16 -69 31t-89 15q-8 0 -8 23t8 31q156 -12 236 -12l224 12q4 -12 4 -33z" />
    <glyph glyph-name="umacron" unicode="&#x16b;" horiz-adv-x="1034" 
d="M304 1044q0 74 24 74h416q10 0 10 -17t-7 -42t-15 -33h-416q-12 6 -12 18zM870 682v-400q0 -86 14 -152q10 -34 100 -34l18 -2q6 -2 6 -15t-5 -26t-11 -13q-123 -8 -240 -52l-18 -4q-16 0 -16 32v102l-4 10q-132 -142 -262 -142q-74 0 -127 37t-78 98q-45 110 -45 237
v252q0 78 -24 105t-53 36t-48 9t-19 4q0 48 12 50q212 32 245 42t41 12q17 0 7 -69q-9 -69 -9 -121v-270q0 -154 46 -227t150 -73q60 0 114 47t54 81v374q0 78 -24 105t-53 36t-48 9t-19 4q0 48 12 50q212 32 245 42t41 12q17 0 7 -69q-9 -69 -9 -117z" />
    <glyph glyph-name="Ubreve" unicode="&#x16c;" horiz-adv-x="1438" 
d="M742 1546q64 0 112 31t62 85q0 4 9 4t22 -8t13 -14v-6q-2 -6 -2 -8q-14 -72 -76 -126t-141 -54t-140 53t-75 129q0 2 -2 8v4q0 6 13 14t22 8t9 -4q14 -54 62 -85t112 -31zM1398 1291q0 -21 -8 -21q-20 0 -87 -16t-71 -30q-16 -62 -16 -186v-486q0 -310 -130 -431
t-369 -121t-367 140t-128 452v454q0 124 -14 178q-6 16 -57 29t-77 13q-8 0 -8 25t8 33q230 -10 251 -10t221 10q4 -12 4 -35t-8 -23q-20 0 -72 -14t-56 -28q-18 -70 -18 -186v-446q0 -226 96 -360t272 -134q342 0 342 450v500q0 122 -14 176q-6 16 -69 31t-89 15
q-8 0 -8 23t8 31q156 -12 236 -12l224 12q4 -12 4 -33z" />
    <glyph glyph-name="ubreve" unicode="&#x16d;" horiz-adv-x="1034" 
d="M530 1086q62 0 110 40t64 104q0 6 9 6t22 -9t13 -17v-8q-2 -6 -2 -8q-14 -82 -75 -141t-141 -59t-141 58t-75 144q0 2 -2 8v6q0 8 13 17t22 9t9 -6q16 -64 64 -104t110 -40zM870 682v-400q0 -86 14 -152q10 -34 100 -34l18 -2q6 -2 6 -15t-5 -26t-11 -13
q-123 -8 -240 -52l-18 -4q-16 0 -16 32v102l-4 10q-132 -142 -262 -142q-74 0 -127 37t-78 98q-45 110 -45 237v252q0 78 -24 105t-53 36t-48 9t-19 4q0 48 12 50q212 32 245 42t41 12q17 0 7 -69q-9 -69 -9 -121v-270q0 -154 46 -227t150 -73q60 0 114 47t54 81v374
q0 78 -24 105t-53 36t-48 9t-19 4q0 48 12 50q212 32 245 42t41 12q17 0 7 -69q-9 -69 -9 -117z" />
    <glyph glyph-name="Uring" unicode="&#x16e;" horiz-adv-x="1438" 
d="M566 1636q0 74 53 126t125 52t123 -52t51 -126t-51 -127t-123 -53t-125 53t-53 127zM632 1636q0 -46 33 -79t78 -33t77 33t32 79t-31 78t-77 32t-79 -32t-33 -78zM1398 1291q0 -21 -8 -21q-20 0 -87 -16t-71 -30q-16 -62 -16 -186v-486q0 -310 -130 -431t-369 -121
t-367 140t-128 452v454q0 124 -14 178q-6 16 -57 29t-77 13q-8 0 -8 25t8 33q230 -10 251 -10t221 10q4 -12 4 -35t-8 -23q-20 0 -72 -14t-56 -28q-18 -70 -18 -186v-446q0 -226 96 -360t272 -134q342 0 342 450v500q0 122 -14 176q-6 16 -69 31t-89 15q-8 0 -8 23t8 31
q156 -12 236 -12l224 12q4 -12 4 -33z" />
    <glyph glyph-name="uring" unicode="&#x16f;" horiz-adv-x="1034" 
d="M350 1174q0 74 52 126t124 52t123 -52t51 -126t-51 -127t-123 -53t-124 53t-52 127zM416 1174q0 -46 32 -79t77 -33t77 33t32 79t-31 78t-77 32t-78 -32t-32 -78zM870 682v-400q0 -86 14 -152q10 -34 100 -34l18 -2q6 -2 6 -15t-5 -26t-11 -13q-123 -8 -240 -52l-18 -4
q-16 0 -16 32v102l-4 10q-132 -142 -262 -142q-74 0 -127 37t-78 98q-45 110 -45 237v252q0 78 -24 105t-53 36t-48 9t-19 4q0 48 12 50q212 32 245 42t41 12q17 0 7 -69q-9 -69 -9 -121v-270q0 -154 46 -227t150 -73q60 0 114 47t54 81v374q0 78 -24 105t-53 36t-48 9
t-19 4q0 48 12 50q212 32 245 42t41 12q17 0 7 -69q-9 -69 -9 -117z" />
    <glyph glyph-name="Uhungarumlaut" unicode="&#x170;" horiz-adv-x="1438" 
d="M500 1482q0 14 92 104t146 130q12 6 50 6t64 -19t26 -41q0 -46 -160 -126t-198 -80q-20 0 -20 26zM800 1482q0 14 92 104t146 130q12 6 50 6t64 -19t26 -41q0 -46 -160 -126t-198 -80q-20 0 -20 26zM1398 1291q0 -21 -8 -21q-20 0 -87 -16t-71 -30q-16 -62 -16 -186v-486
q0 -310 -130 -431t-369 -121t-367 140t-128 452v454q0 124 -14 178q-6 16 -57 29t-77 13q-8 0 -8 25t8 33q230 -10 251 -10t221 10q4 -12 4 -35t-8 -23q-20 0 -72 -14t-56 -28q-18 -70 -18 -186v-446q0 -226 96 -360t272 -134q342 0 342 450v500q0 122 -14 176q-6 16 -69 31
t-89 15q-8 0 -8 23t8 31q156 -12 236 -12l224 12q4 -12 4 -33z" />
    <glyph glyph-name="uhungarumlaut" unicode="&#x171;" horiz-adv-x="1034" 
d="M557 1314q41 0 66 -14t25 -34q0 -50 -143 -161t-168 -111t-25 26q0 18 76 128t110 148q18 18 59 18zM811 1314q41 0 66 -14t25 -34q0 -50 -143 -161t-168 -111t-25 26q0 18 76 128t110 148q18 18 59 18zM870 682v-400q0 -86 14 -152q10 -34 100 -34l18 -2q6 -2 6 -15
t-5 -26t-11 -13q-123 -8 -240 -52l-18 -4q-16 0 -16 32v102l-4 10q-132 -142 -262 -142q-74 0 -127 37t-78 98q-45 110 -45 237v252q0 78 -24 105t-53 36t-48 9t-19 4q0 48 12 50q212 32 245 42t41 12q17 0 7 -69q-9 -69 -9 -121v-270q0 -154 46 -227t150 -73q60 0 114 47
t54 81v374q0 78 -24 105t-53 36t-48 9t-19 4q0 48 12 50q212 32 245 42t41 12q17 0 7 -69q-9 -69 -9 -117z" />
    <glyph glyph-name="Uogonek" unicode="&#x172;" horiz-adv-x="1514" 
d="M744 -233q0 -97 82 -97q80 0 140 57q20 19 26 19t6 -23t-10 -37q-102 -134 -210 -134q-74 0 -108 50t-34 117t66 156t140 131q-50 -6 -106 -6q-238 0 -366 140t-128 452v454q0 124 -14 178q-6 16 -57 29t-77 13q-8 0 -8 25t8 33q230 -10 251 -10t221 10q4 -12 4 -35
t-8 -23q-20 0 -72 -14t-56 -28q-18 -70 -18 -186v-446q0 -226 96 -360t272 -134q342 0 342 450v500q0 122 -14 176q-6 16 -69 31t-89 15q-8 0 -8 23t8 31q156 -12 236 -12l224 12q4 -12 4 -33t-8 -21q-20 0 -87 -16t-71 -30q-16 -62 -16 -186v-486q0 -202 -52 -310
t-151 -174t-146 -102t-95 -96t-48 -103z" />
    <glyph glyph-name="uogonek" unicode="&#x173;" horiz-adv-x="1024" 
d="M964 94q6 -2 6 -28t-19 -26q-9 0 -37 -4q-62 -10 -150 -111t-88 -175q0 -32 18 -59t64 -27t83 19t57 38t26 19t6 -24t-10 -38q-100 -132 -210 -132q-74 0 -108 50t-34 108t66 156t134 144l-72 -20q-16 0 -16 32v102l-4 10q-132 -142 -262 -142q-74 0 -127 37t-78 98
q-45 110 -45 237v252q0 78 -24 105t-53 36t-48 9t-19 4q0 48 12 50q246 37 280 54h6q17 0 7 -69q-9 -69 -9 -121v-270q0 -154 46 -227t150 -73q60 0 114 47t54 81v374q0 78 -24 105t-53 36t-48 9t-19 4q0 48 12 50q246 37 280 54h6q17 0 7 -69q-9 -69 -9 -117v-400
q0 -86 14 -152q10 -34 98 -34z" />
    <glyph glyph-name="Wcircumflex" unicode="&#x174;" horiz-adv-x="2152" 
d="M1334 1396q-38 0 -210 116q-48 -36 -118 -76t-89 -40t-19 40q8 8 51 47t85 78t70 79q14 16 23 16t35 -36q56 -78 172 -168q18 -14 18 -16q0 -40 -18 -40zM1927 1314q51 0 191 10q4 -12 4 -35t-8 -23q-20 0 -64 -15t-66 -41q-58 -68 -116 -202l-424 -960q-30 -64 -78 -64
q-12 0 -18 10l-244 500l-216 -446q-30 -64 -78 -64q-12 0 -18 10l-520 1034q-58 118 -116 192q-16 20 -54 33t-62 13q-8 0 -8 25t8 33q230 -10 246 -10t216 10q4 -8 3 -33t-7 -25q-45 0 -72 -18q-28 -18 -28 -40q0 -60 46 -148l414 -820q6 -10 16 -5t14 15l166 346l-210 432
q-58 118 -116 192q-16 20 -54 33t-62 13q-8 0 -8 25t8 33q230 -10 245 -10t215 10q4 -8 3 -33t-7 -25q-42 0 -70 -17t-28 -41q0 -52 46 -148l132 -270l140 294q28 62 28 116q0 34 -43 50t-75 16q-8 0 -8 25t8 33q160 -10 185 -10t225 10q4 -8 3 -33t-7 -25q-20 0 -69 -16
t-77 -50t-108 -196l-154 -316l218 -448q12 -22 24 10l358 822q34 82 34 121t-41 56t-73 17q-8 0 -8 25t8 33q160 -10 211 -10z" />
    <glyph glyph-name="wcircumflex" unicode="&#x175;" horiz-adv-x="1468" 
d="M978 980q0 -46 -15 -46t-77 45t-108 87q-44 -42 -104 -87t-77 -45t-17 46q6 8 73 84t94 122t31 46q10 0 39 -49t52 -79t50 -60t43 -46t16 -18zM556 240q152 438 152 441q0 26 -28 71l-10 18q-27 40 -102 40q-8 0 -8 25t8 33q150 -10 200 -10t190 10q4 -12 4 -34t-6 -24
q-96 0 -96 -78q0 -42 220 -492q30 92 97 281t67 219q0 70 -132 70h-8q-8 0 -8 25t8 33q150 -10 190 -10t190 10q4 -12 4 -35t-10 -23q-26 0 -70 -17t-58 -55l-262 -716q-16 -44 -56 -44q-20 0 -24 8l-246 588l-202 -552q-6 -18 -23 -31t-34 -13t-21 8q-48 108 -145 348
t-205 432q-26 44 -108 44q-8 0 -8 25t8 33q150 -10 198 -10l200 10q4 -8 3 -33t-7 -25q-100 0 -100 -46q0 -7 87 -193q87 -187 151 -331z" />
    <glyph glyph-name="Ycircumflex" unicode="&#x176;" horiz-adv-x="1298" 
d="M872 1396q-38 0 -210 116q-48 -36 -118 -76t-89 -40t-19 40q8 8 51 47t85 78t70 79q14 16 23 16t35 -36q56 -78 172 -168q18 -14 18 -16q0 -40 -18 -40zM1078 1312l188 12q4 -12 4 -33t-8 -21q-24 0 -84 -18t-80 -44q-76 -118 -221 -358t-145 -268v-304q0 -124 16 -186
q4 -14 54 -29t68 -15q8 0 8 -21t-4 -33q-200 10 -215 10t-245 -10q-8 8 -8 31t8 23q24 0 73 14t55 30q16 62 16 192v250q0 28 -43 111t-162 298t-136 238t-44 42t-71 33t-64 14q-8 0 -8 23t8 31q192 -12 228 -12t276 12q4 -8 3 -31t-7 -23q-34 0 -77 -17t-43 -45t22 -66
l224 -424q10 -10 20 4q272 412 272 482q0 22 -40 44t-98 22q-8 0 -8 23t8 31q222 -12 260 -12z" />
    <glyph glyph-name="ycircumflex" unicode="&#x177;" horiz-adv-x="908" 
d="M702 980q0 -46 -15 -46t-77 45t-108 87q-44 -42 -104 -87t-77 -45t-17 46q6 8 73 84t94 122t31 46q10 0 39 -49t52 -79t50 -60t43 -46t16 -18zM250 858q32 0 172 10q4 -12 4 -35t-8 -23q-16 0 -53 -14t-41 -28v-4q0 -36 214 -522l152 438q14 42 14 67t-31 44t-83 19
q-8 0 -8 25t8 33l78 -6q52 -4 98 -4t98 4l78 6q4 -12 4 -35t-8 -23q-26 0 -71 -18t-59 -58l-358 -966q-46 -124 -104 -173t-103 -49t-65 26t-20 61t28 55q166 0 220 172l24 72q14 42 22 68l-286 700q-22 48 -40 67t-55 31t-59 12q-8 0 -8 25t8 33q206 -10 238 -10z" />
    <glyph glyph-name="Ydieresis" unicode="&#x178;" horiz-adv-x="1298" 
d="M390 1556q0 42 29 71t71 29t71 -29t29 -71t-29 -71t-71 -29t-71 29t-29 71zM752 1556q0 42 29 71t71 29t71 -29t29 -71t-29 -71t-71 -29t-71 29t-29 71zM1078 1312l188 12q4 -12 4 -33t-8 -21q-24 0 -84 -18t-80 -44q-76 -118 -221 -358t-145 -268v-304q0 -124 16 -186
q4 -14 54 -29t68 -15q8 0 8 -21t-4 -33q-200 10 -215 10t-245 -10q-8 8 -8 31t8 23q24 0 73 14t55 30q16 62 16 192v250q0 28 -43 111t-162 298t-136 238t-44 42t-71 33t-64 14q-8 0 -8 23t8 31q192 -12 228 -12t276 12q4 -8 3 -31t-7 -23q-34 0 -77 -17t-43 -45t22 -66
l224 -424q10 -10 20 4q272 412 272 482q0 22 -40 44t-98 22q-8 0 -8 23t8 31q222 -12 260 -12z" />
    <glyph glyph-name="Zacute" unicode="&#x179;" horiz-adv-x="1200" 
d="M474 1482q0 14 92 104t146 130q12 6 50 6t64 -19t26 -41q0 -46 -160 -126t-198 -80q-20 0 -20 26zM428 1312h218q140 0 420 20q6 -2 13 -26t7 -40l-748 -1114q-14 -20 -14 -30q0 -20 28 -20h452q144 0 209 86q50 66 83 156q4 6 31 6t45 -18q-64 -208 -88 -332h-992
q-16 18 -16 47t8 39l766 1130h-424q-132 0 -189 -55t-95 -193q-2 -8 -34 -8t-50 18q54 248 66 352q20 -6 145 -12t159 -6z" />
    <glyph glyph-name="zacute" unicode="&#x17a;" horiz-adv-x="828" 
d="M599 1314q41 0 66 -14t25 -34q0 -50 -143 -161t-168 -111t-25 26q0 18 76 128t110 148q18 18 59 18zM270 91q0 -11 24 -11h262q84 0 123 42t52 91t25 49q44 0 58 -24l-42 -238h-674q-40 24 -40 46q0 6 2 8l514 714l-298 2q-40 0 -66 -19t-35 -39t-18 -51t-13 -40t-36 -9
t-32 7t14 94t18 147q118 -12 190 -12h244q112 0 244 16q6 -10 6 -48l-508 -694q-14 -20 -14 -31z" />
    <glyph glyph-name="Zdotaccent" unicode="&#x17b;" horiz-adv-x="1200" 
d="M532 1556q0 42 29 71t71 29t71 -29t29 -71t-29 -71t-71 -29t-71 29t-29 71zM428 1312h218q140 0 420 20q6 -2 13 -26t7 -40l-748 -1114q-14 -20 -14 -30q0 -20 28 -20h452q144 0 209 86q50 66 83 156q4 6 31 6t45 -18q-64 -208 -88 -332h-992q-16 18 -16 47t8 39
l766 1130h-424q-132 0 -189 -55t-95 -193q-2 -8 -34 -8t-50 18q54 248 66 352q20 -6 145 -12t159 -6z" />
    <glyph glyph-name="zdotaccent" unicode="&#x17c;" horiz-adv-x="828" 
d="M362 1186q0 42 29 71t71 29t71 -29t29 -71t-29 -71t-71 -29t-71 29t-29 71zM270 91q0 -11 24 -11h262q84 0 123 42t52 91t25 49q44 0 58 -24l-42 -238h-674q-40 24 -40 46q0 6 2 8l514 714l-298 2q-40 0 -66 -19t-35 -39t-18 -51t-13 -40t-36 -9t-32 7t14 94t18 147
q118 -12 190 -12h244q112 0 244 16q6 -10 6 -48l-508 -694q-14 -20 -14 -31z" />
    <glyph glyph-name="Zcaron" unicode="&#x17d;" horiz-adv-x="1200" 
d="M844 1716q18 0 18 -40q0 -2 -29 -25t-95 -83q-40 -40 -66 -76t-38 -36q-6 0 -20 16q-28 40 -70 79t-85 78t-51 47q0 40 19 40t89 -40t118 -76q172 116 210 116zM428 1312h218q140 0 420 20q6 -2 13 -26t7 -40l-748 -1114q-14 -20 -14 -30q0 -20 28 -20h452q144 0 209 86
q50 66 83 156q4 6 31 6t45 -18q-64 -208 -88 -332h-992q-16 18 -16 47t8 39l766 1130h-424q-132 0 -189 -55t-95 -193q-2 -8 -34 -8t-50 18q54 248 66 352q20 -6 145 -12t159 -6z" />
    <glyph glyph-name="zcaron" unicode="&#x17e;" horiz-adv-x="828" 
d="M622 1290q16 0 16 -46q0 -2 -37 -39t-67 -76t-59 -87t-37 -48t-26 31t-55 77t-75 89t-44 53q0 46 17 46t77 -45t104 -87q46 42 108 87t78 45zM270 91q0 -11 24 -11h262q84 0 123 42t52 91t25 49q44 0 58 -24l-42 -238h-674q-40 24 -40 46q0 6 2 8l514 714l-298 2
q-40 0 -66 -19t-35 -39t-18 -51t-13 -40t-36 -9t-32 7t14 94t18 147q118 -12 190 -12h244q112 0 244 16q6 -10 6 -48l-508 -694q-14 -20 -14 -31z" />
    <glyph glyph-name="longs" unicode="&#x17f;" horiz-adv-x="586" 
d="M506 52q6 0 8 -24t-2 -34q-200 10 -210 10t-214 -10q-8 8 -8 33t8 25q24 0 68 13t48 27q18 70 19 265t1 373q0 14 -10 14h-106q-6 0 -6 15t32 47t68 32h12q10 0 10 12v26q0 210 125 362t271 152t192 -78q0 -126 -72 -126q-26 0 -50 31t-55 63t-75 32q-88 0 -136 -108
t-48 -254l2 -680q0 -116 16 -178q4 -14 49 -27t63 -13z" />
    <glyph glyph-name="uni0189" unicode="&#x189;" horiz-adv-x="1492" 
d="M436 1070v-364h284q2 0 5 1t10 -8t-17 -71l-14 -12h-268v-338q0 -84 30 -152q8 -20 107 -30t153 -10q230 0 349 151t119 443q0 226 -125 387t-357 161h-10q-216 0 -241 -34t-25 -124zM1386 657q0 -275 -184 -469t-508 -194q-24 0 -145 4t-197 2l-242 -6q-6 6 -6 32t6 26
q26 0 77 14t63 35t12 185v330h-144l-10 4q-2 4 -2 17t10 41t16 28h130v336q0 118 -14 172q-6 16 -59 30t-79 14q-8 0 -8 25t8 33q104 -4 238 -4l348 4q326 0 508 -192t182 -467z" />
    <glyph glyph-name="Ohorn" unicode="&#x1a0;" horiz-adv-x="1536" 
d="M664 1250q-190 0 -300 -166t-110 -384q0 -160 52 -302t162 -237t248 -95t234 83q186 161 186 469q0 160 -52 301t-162 236t-258 95zM1196 1196q76 0 76 64q0 12 -24 37t-24 51q0 66 136 66q40 -40 40 -114t-72 -126t-158 -52h-10q174 -212 174 -479t-188 -465t-452 -198
t-451 198t-187 478t187 479t451 199q128 0 262 -60q164 -78 240 -78z" />
    <glyph glyph-name="ohorn" unicode="&#x1a1;" horiz-adv-x="1092" 
d="M926 432q0 -184 -125 -315t-307 -131t-310 131t-128 316t124 313t310 128q102 0 215 -57t187 -57t74 60q0 10 -22 33t-22 47q0 62 126 62q36 -36 36 -105t-80 -119t-158 -50q80 -122 80 -256zM508 64q110 0 178 100t68 251t-86 266t-196 115t-177 -97t-67 -249t85 -269
t195 -117z" />
    <glyph glyph-name="Uhorn" unicode="&#x1af;" horiz-adv-x="1502" 
d="M1156 1312q190 0 190 46q0 14 -16 32t-16 42q0 36 51 51t103 15q24 -34 24 -88q0 -114 -236 -170q-30 -8 -38 -38q-16 -60 -16 -164v-486q0 -310 -130 -431t-369 -121t-367 140t-128 452v454q0 124 -14 178q-6 16 -57 29t-77 13q-8 0 -8 25t8 33q230 -10 251 -10t221 10
q4 -12 4 -35t-8 -23q-20 0 -72 -14t-56 -28q-18 -70 -18 -186v-446q0 -226 96 -360t272 -134q342 0 342 450v500q0 132 -14 176q-6 16 -69 31t-89 15q-8 0 -8 23t8 31q180 -12 236 -12z" />
    <glyph glyph-name="uhorn" unicode="&#x1b0;" horiz-adv-x="1128" 
d="M994 918q0 10 -22 33t-22 47q0 62 126 62q36 -36 36 -93t-40 -93t-85 -52t-113 -30q-10 -2 -10 -110v-400q0 -86 14 -152q10 -34 98 -34l20 -2q6 -2 6 -15t-5 -26t-11 -13q-108 -7 -242 -52l-16 -4q-16 0 -16 32v92l-4 10q-2 -2 -20 -18l-27 -24q-101 -90 -186 -90
t-144 37t-86 98q-49 111 -49 237v252q0 78 -24 105t-53 36t-48 9t-19 4q0 48 12 50q246 37 280 54h6q17 0 7 -69q-9 -69 -9 -121v-270q0 -154 48 -222t144 -68q60 0 116 39t56 69v384q0 78 -24 105t-53 36t-48 9t-19 4q0 48 12 50q183 29 236 41q54 11 74 15t48 12t42 17
t14 19z" />
    <glyph glyph-name="uni01CD" unicode="&#x1cd;" 
d="M932 1716q18 0 18 -40q0 -2 -29 -25t-95 -83q-40 -40 -66 -76t-38 -36q-6 0 -20 16q-28 40 -70 79t-85 78t-51 47q0 40 19 40t89 -40t118 -76q172 116 210 116zM665 594q63 0 157 6l6 10l-162 442l-172 -446q0 -8 4 -8q104 -4 167 -4zM240 4q-22 0 -192 -10q-8 8 -8 33
t8 25q24 0 62 10t52 28q42 54 94 188l348 894q4 10 11 32t11 33t12 28q29 61 74 61l18 -6l400 -1056q36 -94 53 -134t67 -59t74 -19q8 0 8 -23t-4 -35q-200 10 -211 10t-241 -10q-8 8 -7 33t9 25q24 0 60 10t42 26q4 16 4 49t-20 99l-90 248q-10 14 -139 14t-279 -10l-10 -6
l-86 -220q-34 -100 -34 -133t17 -46t57 -22t58 -9q6 0 7 -24t-3 -34q-200 10 -222 10z" />
    <glyph glyph-name="uni01CE" unicode="&#x1ce;" horiz-adv-x="846" 
d="M642 1292q16 0 16 -46q0 -2 -37 -39t-67 -76t-59 -87t-37 -48t-26 31t-55 77t-75 89t-44 53q0 46 17 46t77 -45t104 -87q46 42 108 87t78 45zM458 872q120 0 168 -53t48 -171v-462q0 -42 22 -70t55 -28t75 28q8 0 8 -21t-10 -37q-82 -70 -134 -70t-94 38t-58 80
q-2 0 -15 -13q-31 -31 -92 -69q-62 -38 -147 -38q-86 0 -146 49t-60 147q0 151 245 237q37 13 97 33t81 28t21 32v150q0 64 -40 99t-98 35t-98 -41t-40 -109t-82 -68q-56 0 -78 38q0 86 126 171t246 85zM368 100q54 0 104 33t50 67v206q-16 -8 -78 -28t-97 -35t-68 -50
t-33 -85t34 -79t88 -29z" />
    <glyph glyph-name="uni01CF" unicode="&#x1cf;" horiz-adv-x="636" 
d="M540 1716q18 0 18 -40q0 -2 -29 -25t-95 -83q-40 -40 -66 -76t-38 -36q-6 0 -20 16q-28 40 -70 79t-85 78t-51 47q0 40 19 40t89 -40t118 -76q172 116 210 116zM232 1046q0 124 -14 178q-6 16 -57 29t-77 13q-8 0 -8 25t8 33q230 -10 251 -10t221 10q4 -12 4 -35t-8 -23
q-20 0 -72 -14t-56 -28q-18 -70 -18 -186v-760q0 -116 18 -186q4 -14 56 -27t72 -13q8 0 8 -23t-4 -35q-200 10 -221 10t-251 -10q-8 8 -8 33t8 25q26 0 77 12t57 28q14 54 14 178v776z" />
    <glyph glyph-name="uni01D0" unicode="&#x1d0;" horiz-adv-x="564" 
d="M462 1292q16 0 16 -46q0 -2 -37 -39t-67 -76t-59 -87t-37 -48t-26 31t-55 77t-75 89t-44 53q0 46 17 46t77 -45t104 -87q46 42 108 87t78 45zM356 682v-412q0 -116 16 -178q4 -14 52 -27t68 -13q6 0 8 -24t-2 -34q-200 10 -213 10t-219 -10q-8 8 -8 33t8 25q24 0 71 13
t51 27q14 58 14 140v378q0 78 -24 105t-53 36t-48 9t-19 4q0 48 12 50q212 32 245 42t41 12q17 0 8 -61q-8 -61 -8 -125z" />
    <glyph glyph-name="uni01D1" unicode="&#x1d1;" horiz-adv-x="1456" 
d="M944 1716q18 0 18 -40q0 -2 -29 -25t-95 -83q-40 -40 -66 -76t-38 -36q-6 0 -20 16q-28 40 -70 79t-85 78t-51 47q0 40 19 40t89 -40t118 -76q172 116 210 116zM88 656q0 280 187 479t451 199t452 -199t188 -479t-188 -478t-452 -198t-451 198t-187 478zM696 1250
q-190 0 -300 -166t-110 -384q0 -160 52 -302t162 -237t248 -95t234 83q186 161 186 469q0 160 -52 301t-162 236t-258 95z" />
    <glyph glyph-name="uni01D2" unicode="&#x1d2;" horiz-adv-x="1020" 
d="M692 1292q16 0 16 -46q0 -2 -37 -39t-67 -76t-59 -87t-37 -48t-26 31t-55 77t-75 89t-44 53q0 46 17 46t77 -45t104 -87q46 42 108 87t78 45zM505 874q183 0 311 -130t128 -313t-125 -314t-307 -131t-310 131t-128 316t124 313t307 128zM490 796q-110 0 -177 -97
t-67 -249t85 -269t195 -117t178 100t68 251t-86 266t-196 115z" />
    <glyph glyph-name="uni01D3" unicode="&#x1d3;" horiz-adv-x="1438" 
d="M954 1716q18 0 18 -40q0 -2 -29 -25t-95 -83q-40 -40 -66 -76t-38 -36q-6 0 -20 16q-28 40 -70 79t-85 78t-51 47q0 40 19 40t89 -40t118 -76q172 116 210 116zM1398 1291q0 -21 -8 -21q-20 0 -87 -16t-71 -30q-16 -62 -16 -186v-486q0 -310 -130 -431t-369 -121
t-367 140t-128 452v454q0 124 -14 178q-6 16 -57 29t-77 13q-8 0 -8 25t8 33q230 -10 251 -10t221 10q4 -12 4 -35t-8 -23q-20 0 -72 -14t-56 -28q-18 -70 -18 -186v-446q0 -226 96 -360t272 -134q342 0 342 450v500q0 122 -14 176q-6 16 -69 31t-89 15q-8 0 -8 23t8 31
q156 -12 236 -12l224 12q4 -12 4 -33z" />
    <glyph glyph-name="uni01D4" unicode="&#x1d4;" horiz-adv-x="1034" 
d="M798 1292q16 0 16 -46q0 -2 -37 -39t-67 -76t-59 -87t-37 -48t-26 31t-55 77t-75 89t-44 53q0 46 17 46t77 -45t104 -87q46 42 108 87t78 45zM870 682v-400q0 -86 14 -152q10 -34 100 -34l18 -2q6 -2 6 -15t-5 -26t-11 -13q-123 -8 -240 -52l-18 -4q-16 0 -16 32v102
l-4 10q-132 -142 -262 -142q-74 0 -127 37t-78 98q-45 110 -45 237v252q0 78 -24 105t-53 36t-48 9t-19 4q0 48 12 50q212 32 245 42t41 12q17 0 7 -69q-9 -69 -9 -121v-270q0 -154 46 -227t150 -73q60 0 114 47t54 81v374q0 78 -24 105t-53 36t-48 9t-19 4q0 48 12 50
q212 32 245 42t41 12q17 0 7 -69q-9 -69 -9 -117z" />
    <glyph glyph-name="uni01D5" unicode="&#x1d5;" horiz-adv-x="1438" 
d="M472 1758q0 78 28 78h500q12 0 12 -20t-8 -45t-20 -31h-502q-2 0 -6 5t-4 13zM1398 1291q0 -21 -8 -21q-20 0 -87 -16t-71 -30q-16 -62 -16 -186v-486q0 -310 -130 -431t-369 -121t-367 140t-128 452v454q0 124 -14 178q-6 16 -57 29t-77 13q-8 0 -8 25t8 33
q230 -10 251 -10t221 10q4 -12 4 -35t-8 -23q-20 0 -72 -14t-56 -28q-18 -70 -18 -186v-446q0 -226 96 -360t272 -134q342 0 342 450v500q0 122 -14 176q-6 16 -69 31t-89 15q-8 0 -8 23t8 31q156 -12 236 -12l224 12q4 -12 4 -33zM462 1556q0 42 29 71t71 29t71 -29t29 -71
t-29 -71t-71 -29t-71 29t-29 71zM824 1556q0 42 29 71t71 29t71 -29t29 -71t-29 -71t-71 -29t-71 29t-29 71z" />
    <glyph glyph-name="uni01D6" unicode="&#x1d6;" horiz-adv-x="1034" 
d="M304 1330q0 74 24 74h416q10 0 10 -17t-7 -42t-15 -33h-416q-12 6 -12 18zM870 682v-400q0 -86 14 -152q10 -34 100 -34l18 -2q6 -2 6 -15t-5 -26t-11 -13q-123 -8 -240 -52l-18 -4q-16 0 -16 32v102l-4 10q-132 -142 -262 -142q-74 0 -127 37t-78 98q-45 110 -45 237
v252q0 78 -24 105t-53 36t-48 9t-19 4q0 48 12 50q212 32 245 42t41 12q17 0 7 -69q-9 -69 -9 -121v-270q0 -154 46 -227t150 -73q60 0 114 47t54 81v374q0 78 -24 105t-53 36t-48 9t-19 4q0 48 12 50q212 32 245 42t41 12q17 0 7 -69q-9 -69 -9 -117zM346 1190q40 0 69 -30
t29 -70t-30 -68t-70 -28t-70 29t-30 69t31 69t71 29zM712 1190q40 0 69 -30t29 -70t-30 -68t-70 -28t-70 29t-30 69t31 69t71 29z" />
    <glyph glyph-name="uni01D7" unicode="&#x1d7;" horiz-adv-x="1438" 
d="M724 1766q0 14 92 104t146 130q12 6 50 6t64 -19t26 -41q0 -46 -160 -126t-198 -80q-20 0 -20 26zM1398 1291q0 -21 -8 -21q-20 0 -87 -16t-71 -30q-16 -62 -16 -186v-486q0 -310 -130 -431t-369 -121t-367 140t-128 452v454q0 124 -14 178q-6 16 -57 29t-77 13
q-8 0 -8 25t8 33q230 -10 251 -10t221 10q4 -12 4 -35t-8 -23q-20 0 -72 -14t-56 -28q-18 -70 -18 -186v-446q0 -226 96 -360t272 -134q342 0 342 450v500q0 122 -14 176q-6 16 -69 31t-89 15q-8 0 -8 23t8 31q156 -12 236 -12l224 12q4 -12 4 -33zM462 1556q0 42 29 71
t71 29t71 -29t29 -71t-29 -71t-71 -29t-71 29t-29 71zM824 1556q0 42 29 71t71 29t71 -29t29 -71t-29 -71t-71 -29t-71 29t-29 71z" />
    <glyph glyph-name="uni01D8" unicode="&#x1d8;" horiz-adv-x="1034" 
d="M751 1632q41 0 66 -14t25 -34q0 -50 -143 -161t-168 -111t-25 26q0 18 76 128t110 148q18 18 59 18zM870 682v-400q0 -86 14 -152q10 -34 100 -34l18 -2q6 -2 6 -15t-5 -26t-11 -13q-123 -8 -240 -52l-18 -4q-16 0 -16 32v102l-4 10q-132 -142 -262 -142q-74 0 -127 37
t-78 98q-45 110 -45 237v252q0 78 -24 105t-53 36t-48 9t-19 4q0 48 12 50q212 32 245 42t41 12q17 0 7 -69q-9 -69 -9 -121v-270q0 -154 46 -227t150 -73q60 0 114 47t54 81v374q0 78 -24 105t-53 36t-48 9t-19 4q0 48 12 50q212 32 245 42t41 12q17 0 7 -69
q-9 -69 -9 -117zM346 1190q40 0 69 -30t29 -70t-30 -68t-70 -28t-70 29t-30 69t31 69t71 29zM712 1190q40 0 69 -30t29 -70t-30 -68t-70 -28t-70 29t-30 69t31 69t71 29z" />
    <glyph glyph-name="uni01D9" unicode="&#x1d9;" horiz-adv-x="1438" 
d="M952 1948q18 0 18 -40q0 -2 -29 -25t-95 -83q-40 -40 -66 -76t-38 -36q-6 0 -20 16q-28 40 -70 79t-85 78t-51 47q0 40 19 40t89 -40t118 -76q172 116 210 116zM1398 1291q0 -21 -8 -21q-20 0 -87 -16t-71 -30q-16 -62 -16 -186v-486q0 -310 -130 -431t-369 -121
t-367 140t-128 452v454q0 124 -14 178q-6 16 -57 29t-77 13q-8 0 -8 25t8 33q230 -10 251 -10t221 10q4 -12 4 -35t-8 -23q-20 0 -72 -14t-56 -28q-18 -70 -18 -186v-446q0 -226 96 -360t272 -134q342 0 342 450v500q0 122 -14 176q-6 16 -69 31t-89 15q-8 0 -8 23t8 31
q156 -12 236 -12l224 12q4 -12 4 -33zM462 1556q0 42 29 71t71 29t71 -29t29 -71t-29 -71t-71 -29t-71 29t-29 71zM824 1556q0 42 29 71t71 29t71 -29t29 -71t-29 -71t-71 -29t-71 29t-29 71z" />
    <glyph glyph-name="uni01DA" unicode="&#x1da;" horiz-adv-x="1034" 
d="M714 1608q16 0 16 -46q0 -2 -37 -39t-67 -76t-59 -87t-37 -48t-26 31t-55 77t-75 89t-44 53q0 46 17 46t77 -45t104 -87q46 42 108 87t78 45zM870 682v-400q0 -86 14 -152q10 -34 100 -34l18 -2q6 -2 6 -15t-5 -26t-11 -13q-123 -8 -240 -52l-18 -4q-16 0 -16 32v102
l-4 10q-132 -142 -262 -142q-74 0 -127 37t-78 98q-45 110 -45 237v252q0 78 -24 105t-53 36t-48 9t-19 4q0 48 12 50q212 32 245 42t41 12q17 0 7 -69q-9 -69 -9 -121v-270q0 -154 46 -227t150 -73q60 0 114 47t54 81v374q0 78 -24 105t-53 36t-48 9t-19 4q0 48 12 50
q212 32 245 42t41 12q17 0 7 -69q-9 -69 -9 -117zM346 1190q40 0 69 -30t29 -70t-30 -68t-70 -28t-70 29t-30 69t31 69t71 29zM712 1190q40 0 69 -30t29 -70t-30 -68t-70 -28t-70 29t-30 69t31 69t71 29z" />
    <glyph glyph-name="uni01DB" unicode="&#x1db;" horiz-adv-x="1438" 
d="M762 1804q0 -26 -20 -26q-38 0 -198 80t-160 126q0 22 26 41t64 19t50 -6q54 -40 146 -130t92 -104zM1398 1291q0 -21 -8 -21q-20 0 -87 -16t-71 -30q-16 -62 -16 -186v-486q0 -310 -130 -431t-369 -121t-367 140t-128 452v454q0 124 -14 178q-6 16 -57 29t-77 13
q-8 0 -8 25t8 33q230 -10 251 -10t221 10q4 -12 4 -35t-8 -23q-20 0 -72 -14t-56 -28q-18 -70 -18 -186v-446q0 -226 96 -360t272 -134q342 0 342 450v500q0 122 -14 176q-6 16 -69 31t-89 15q-8 0 -8 23t8 31q156 -12 236 -12l224 12q4 -12 4 -33zM462 1556q0 42 29 71
t71 29t71 -29t29 -71t-29 -71t-71 -29t-71 29t-29 71zM824 1556q0 42 29 71t71 29t71 -29t29 -71t-29 -71t-71 -29t-71 29t-29 71z" />
    <glyph glyph-name="uni01DC" unicode="&#x1dc;" horiz-adv-x="1034" 
d="M216 1584q0 20 25 34t66 14t59 -18q74 -87 130 -179q56 -91 56 -97q0 -26 -25 -26t-168 111t-143 161zM870 682v-400q0 -86 14 -152q10 -34 100 -34l18 -2q6 -2 6 -15t-5 -26t-11 -13q-123 -8 -240 -52l-18 -4q-16 0 -16 32v102l-4 10q-132 -142 -262 -142q-74 0 -127 37
t-78 98q-45 110 -45 237v252q0 78 -24 105t-53 36t-48 9t-19 4q0 48 12 50q212 32 245 42t41 12q17 0 7 -69q-9 -69 -9 -121v-270q0 -154 46 -227t150 -73q60 0 114 47t54 81v374q0 78 -24 105t-53 36t-48 9t-19 4q0 48 12 50q212 32 245 42t41 12q17 0 7 -69
q-9 -69 -9 -117zM346 1190q40 0 69 -30t29 -70t-30 -68t-70 -28t-70 29t-30 69t31 69t71 29zM712 1190q40 0 69 -30t29 -70t-30 -68t-70 -28t-70 29t-30 69t31 69t71 29z" />
    <glyph glyph-name="uni01E2" unicode="&#x1e2;" horiz-adv-x="1964" 
d="M1044 1474q0 78 28 78h500q12 0 12 -20t-8 -45t-20 -31h-502q-2 0 -6 5t-4 13zM994 466q0 28 -111 28t-265 -10l-10 -6l-138 -220q-58 -100 -65 -132t14 -53t101 -21q4 0 -1 -24t-9 -34q-120 6 -198 6t-216 -6q-4 4 1 31t13 27q88 0 132 42t128 180l554 894q14 24 14 44
t-32 33t-58 13q-8 0 -8 25t8 33q98 -4 232 -4l646 16q8 -58 31 -153t27 -119q-10 -10 -36 -10t-28 14q-30 110 -84 141t-148 31h-134q-172 0 -176 -26q-10 -48 -10 -168v-320q0 -12 90 -12h149q59 0 87 8t36 10t21 26t15 35t14 57q2 14 28 14t36 -10v-378q-8 -8 -33 -8
t-31 16q-26 100 -35 109t-28 21t-184 12t-165 -18v-310q0 -130 18 -182q6 -20 136 -20h96q186 0 252 34q30 16 67 71t59 131q4 12 35 12t43 -12q-98 -254 -108 -332l-682 12l-236 -10q-8 8 -8 33t8 25q24 0 75 15t57 31q14 54 14 172v196zM994 616v430q0 16 -18 16
q-8 0 -18 -14l-274 -446q-2 -8 2 -8q104 -4 142 -4t142 4q24 0 24 22z" />
    <glyph glyph-name="uni01E3" unicode="&#x1e3;" horiz-adv-x="1350" 
d="M490 872q66 0 120 -29t72 -79q108 108 254 108q92 0 160 -33t102 -88q64 -104 64 -221q0 -18 -3 -27t-4 -13t-6 -7t-6 -4t-9 -2t-9 -2t-10 -1h-11q-202 -16 -478 -30q-16 0 -16 -16q0 -128 87 -220t206 -92t215 63q26 17 28 17q12 0 12 -26t-14 -40q-120 -142 -284 -142
q-210 0 -324 168q-48 -58 -137 -114t-184 -56t-155 49t-60 131q0 148 155 227q124 63 271 89q18 2 18 30v168q0 50 -41 83t-98 33t-97 -41t-40 -109t-82 -68q-56 0 -78 38q0 86 126 171t256 85zM928 798q-98 0 -157 -90t-59 -174q0 -12 12 -12q82 4 222 17t151 16t11 19
q0 54 -54 139t-126 85zM544 200v206q-276 -52 -276 -194q0 -54 34 -83t88 -29t104 33t50 67zM256 1014q0 74 24 74h750q10 0 10 -17t-7 -44t-17 -31h-748q-12 6 -12 18z" />
    <glyph glyph-name="Aringacute" unicode="&#x1fa;" 
d="M766 1766q0 14 92 104t146 130q12 6 50 6t64 -19t26 -41q0 -46 -160 -126t-198 -80q-20 0 -20 26zM741 594q63 0 157 6l6 10l-162 442l-172 -446q0 -8 4 -8q104 -4 167 -4zM316 4q-22 0 -192 -10q-8 8 -8 33t8 25q24 0 62 10t52 28q42 54 94 188l348 894q4 10 11 32
t11 33q29 80 70 88q-64 5 -114 55t-50 124t53 126t125 52t123 -52t51 -126t-50 -126t-116 -54l12 -4l400 -1056q36 -94 53 -134t67 -59t74 -19q8 0 8 -23t-4 -35q-200 10 -211 10t-241 -10q-8 8 -7 33t9 25q24 0 60 10t42 26q4 16 4 49t-20 99l-90 248q-11 14 -139 14
q-129 0 -279 -10l-10 -6l-86 -220q-34 -100 -34 -133t17 -46t57 -22t58 -9q6 0 7 -24t-3 -34q-200 10 -222 10zM674 1504q0 -46 33 -79t78 -33t77 33t32 79t-31 78t-77 32t-79 -32t-33 -78z" />
    <glyph glyph-name="aringacute" unicode="&#x1fb;" horiz-adv-x="846" 
d="M631 1794q41 0 66 -14t25 -34q0 -50 -143 -161t-168 -111t-25 26q0 18 76 128t110 148q18 18 59 18zM458 872q120 0 168 -53t48 -171v-462q0 -42 22 -70t55 -28t75 28q8 0 8 -21t-10 -37q-82 -70 -134 -70t-94 38t-58 80q-2 0 -15 -13q-31 -31 -92 -69q-62 -38 -147 -38
q-86 0 -146 49t-60 147q0 151 245 237q37 13 97 33t81 28t21 32v150q0 64 -40 99t-98 35t-98 -41t-40 -109t-82 -68q-56 0 -78 38q0 86 126 171t246 85zM368 100q54 0 104 33t50 67v206q-16 -8 -78 -28t-97 -35t-68 -50t-33 -85t34 -79t88 -29zM234 1174q0 74 52 126t124 52
t123 -52t51 -126t-51 -127t-123 -53t-124 53t-52 127zM300 1174q0 -46 32 -79t77 -33t77 33t32 79t-31 78t-77 32t-78 -32t-32 -78z" />
    <glyph glyph-name="AEacute" unicode="&#x1fc;" horiz-adv-x="1964" 
d="M1170 1482q0 14 92 104t146 130q12 6 50 6t64 -19t26 -41q0 -46 -160 -126t-198 -80q-20 0 -20 26zM994 466q0 28 -111 28t-265 -10l-10 -6l-138 -220q-58 -100 -65 -132t14 -53t101 -21q4 0 -1 -24t-9 -34q-120 6 -198 6t-216 -6q-4 4 1 31t13 27q88 0 132 42t128 180
l554 894q14 24 14 44t-32 33t-58 13q-8 0 -8 25t8 33q98 -4 232 -4l646 16q8 -58 31 -153t27 -119q-10 -10 -36 -10t-28 14q-30 110 -84 141t-148 31h-134q-172 0 -176 -26q-10 -48 -10 -168v-320q0 -12 90 -12h149q59 0 87 8t36 10t21 26t15 35t14 57q2 14 28 14t36 -10
v-378q-8 -8 -33 -8t-31 16q-26 100 -35 109t-28 21t-184 12t-165 -18v-310q0 -130 18 -182q6 -20 136 -20h96q186 0 252 34q30 16 67 71t59 131q4 12 35 12t43 -12q-98 -254 -108 -332l-682 12l-236 -10q-8 8 -8 33t8 25q24 0 75 15t57 31q14 54 14 172v196zM994 616v430
q0 16 -18 16q-8 0 -18 -14l-274 -446q-2 -8 2 -8q104 -4 142 -4t142 4q24 0 24 22z" />
    <glyph glyph-name="aeacute" unicode="&#x1fd;" horiz-adv-x="1350" 
d="M877 1316q41 0 66 -14t25 -34q0 -50 -143 -161t-168 -111t-25 26q0 18 76 128t110 148q18 18 59 18zM490 872q66 0 120 -29t72 -79q108 108 254 108q92 0 160 -33t102 -88q64 -104 64 -221q0 -18 -3 -27t-4 -13t-6 -7t-6 -4t-9 -2t-9 -2t-10 -1h-11q-202 -16 -478 -30
q-16 0 -16 -16q0 -128 87 -220t206 -92t215 63q26 17 28 17q12 0 12 -26t-14 -40q-120 -142 -284 -142q-210 0 -324 168q-48 -58 -137 -114t-184 -56t-155 49t-60 131q0 148 155 227q124 63 271 89q18 2 18 30v168q0 50 -41 83t-98 33t-97 -41t-40 -109t-82 -68
q-56 0 -78 38q0 86 126 171t256 85zM928 798q-98 0 -157 -90t-59 -174q0 -12 12 -12q82 4 222 17t151 16t11 19q0 54 -54 139t-126 85zM544 200v206q-276 -52 -276 -194q0 -54 34 -83t88 -29t104 33t50 67z" />
    <glyph glyph-name="Oslashacute" unicode="&#x1fe;" horiz-adv-x="1392" 
d="M596 1482q0 14 92 104t146 130q12 6 50 6t64 -19t26 -41q0 -46 -160 -126t-198 -80q-20 0 -20 26zM1334 656q0 -280 -188 -478t-452 -198q-182 0 -328 95l-64 -101q-18 6 -41 22t-17 24l63 98q-33 27 -64 60q-187 198 -187 478t187 479t451 199q181 0 326 -94l60 94
q16 -4 40 -20t18 -24l-59 -93q35 -28 67 -62q188 -199 188 -479zM652 1250q-178 0 -288 -166t-110 -384q0 -160 42 -273t92 -181l562 883q-120 121 -298 121zM726 66q128 0 224 83q186 161 186 469q0 160 -42 274t-94 181l-562 -884q123 -123 288 -123z" />
    <glyph glyph-name="oslashacute" unicode="&#x1ff;" horiz-adv-x="1066" 
d="M673 1314q41 0 66 -14t25 -34q0 -50 -143 -161t-168 -111t-25 26q0 18 76 128t110 148q18 18 59 18zM520 64q98 0 166 100t68 243t-70 251l-332 -523q70 -71 168 -71zM926 444q0 -196 -125 -327t-307 -131q-113 0 -205 50l-33 -52q-60 30 -54 42l30 48q-25 19 -48 43
q-128 131 -128 316t124 313t310 128q119 0 216 -57l36 57q60 -26 54 -40l-35 -56q165 -138 165 -334zM463 796q-101 0 -168 -97t-67 -246t79 -263l333 524q-76 82 -177 82z" />
    <glyph glyph-name="uni0218" unicode="&#x218;" horiz-adv-x="936" 
d="M92 980q0 154 118 253t274 99q80 0 126 -11t93 -24t83 -21q24 -106 24 -286q0 -14 -34 -14t-38 20q-10 88 -85 171t-189 83t-163 -60t-49 -135t41 -142t239 -181q106 -63 140 -87q110 -75 159 -145t49 -154q0 -160 -125 -263t-293 -103q-110 0 -224 27t-136 31
q-50 246 -50 318q0 12 34 12t48 -18q68 -288 332 -288q100 0 170 60t70 172t-83 175q-54 41 -109 71q-56 30 -94 52t-61 36t-76 49t-77 62t-56 66q-58 71 -58 175zM372 -195q0 37 38 70t120 33q18 -14 31 -47t13 -59q0 -160 -164 -252q-4 -4 -30 -4t-26 14l46 44
q46 46 46 73t-37 59t-37 69z" />
    <glyph glyph-name="uni0219" unicode="&#x219;" horiz-adv-x="686" 
d="M354 874q44 0 111 -11t93 -15q20 -92 24 -204q0 -10 -27 -10t-29 14q-10 56 -57 106t-107 50q-144 0 -144 -118q0 -61 41 -96q41 -34 87 -58t58 -31l36 -21q118 -69 154 -121t36 -105q0 -118 -92 -197t-216 -79q-72 0 -140 17t-94 21q-12 32 -23 100t-11 108q16 12 35 12
t21 -12q12 -60 75 -117t132 -57t110 35t41 85t-14 79t-45 53t-57 39t-72 39t-70 38q-146 84 -146 202t87 186t203 68zM232 -195q0 37 38 70t120 33q18 -14 31 -47t13 -59q0 -160 -164 -252q-4 -4 -30 -4t-26 14l46 44q46 46 46 73t-37 59t-37 69z" />
    <glyph glyph-name="uni021A" unicode="&#x21a;" horiz-adv-x="1338" 
d="M1242 1042q-26 0 -28 10q-28 112 -69 145t-155 33q-212 0 -220 -30q-18 -64 -18 -200v-722q0 -116 18 -186q4 -14 56 -27t72 -13q8 0 8 -23t-4 -35q-200 10 -221 10t-251 -10q-8 8 -8 33t8 25q26 0 77 12t57 28q14 54 14 178v724q0 174 -17 205t-217 31q-114 0 -155 -33
t-69 -145q-2 -10 -28 -10t-40 14l38 286q88 -22 138 -22l438 -8l440 8q50 0 138 22l38 -286q-14 -14 -40 -14zM576 -195q0 37 38 70t120 33q18 -14 31 -47t13 -59q0 -160 -164 -252q-4 -4 -30 -4t-26 14l46 44q46 46 46 73t-37 59t-37 69z" />
    <glyph glyph-name="uni021B" unicode="&#x21b;" horiz-adv-x="704" 
d="M636 815q0 -27 -20 -67h-266v-490q0 -80 41 -128t104 -48t127 38q6 4 18 -17t10 -23q-30 -32 -92 -63t-145 -31t-150 66t-67 188v508h-134q-10 0 -10 25t2 31q78 48 119 94t69 83t45 60t21 23q42 0 42 -10v-210l270 -2q16 0 16 -27zM326 -195q0 37 38 70t120 33
q18 -14 31 -47t13 -59q0 -160 -164 -252q-4 -4 -30 -4t-26 14l46 44q46 46 46 73t-37 59t-37 69z" />
    <glyph glyph-name="uni0232" unicode="&#x232;" horiz-adv-x="1298" 
d="M400 1474q0 78 28 78h500q12 0 12 -20t-8 -45t-20 -31h-502q-2 0 -6 5t-4 13zM1078 1312l188 12q4 -12 4 -33t-8 -21q-24 0 -84 -18t-80 -44q-76 -118 -221 -358t-145 -268v-304q0 -124 16 -186q4 -14 54 -29t68 -15q8 0 8 -21t-4 -33q-200 10 -215 10t-245 -10
q-8 8 -8 31t8 23q24 0 73 14t55 30q16 62 16 192v250q0 28 -43 111t-162 298t-136 238t-44 42t-71 33t-64 14q-8 0 -8 23t8 31q192 -12 228 -12t276 12q4 -8 3 -31t-7 -23q-34 0 -77 -17t-43 -45t22 -66l224 -424q10 -10 20 4q272 412 272 482q0 22 -40 44t-98 22
q-8 0 -8 23t8 31q222 -12 260 -12z" />
    <glyph glyph-name="uni0233" unicode="&#x233;" horiz-adv-x="908" 
d="M304 1014q0 74 24 74h416q10 0 10 -17t-7 -42t-15 -33h-416q-12 6 -12 18zM250 858q32 0 172 10q4 -12 4 -35t-8 -23q-16 0 -53 -14t-41 -28v-4q0 -36 214 -522l152 438q14 42 14 67t-31 44t-83 19q-8 0 -8 25t8 33l78 -6q52 -4 98 -4t98 4l78 6q4 -12 4 -35t-8 -23
q-26 0 -71 -18t-59 -58l-358 -966q-46 -124 -104 -173t-103 -49t-65 26t-20 61t28 55q166 0 220 172l24 72q14 42 22 68l-286 700q-22 48 -40 67t-55 31t-59 12q-8 0 -8 25t8 33q206 -10 238 -10z" />
    <glyph glyph-name="uni0237" unicode="&#x237;" horiz-adv-x="528" 
d="M264 610q0 78 -24 105t-53 36t-48 9t-19 4q0 48 12 50q246 37 280 54h6q17 0 8 -61q-8 -61 -8 -125v-546q0 -254 -78 -376q-50 -78 -127 -138t-141 -84q-16 10 -23 25t-3 19l24 12q59 29 118 122q32 50 54 148t22 226v520z" />
    <glyph glyph-name="uni02BB" unicode="&#x2bb;" horiz-adv-x="920" 
d="M1186 1055q0 -37 -38 -70t-120 -33q-18 14 -31 47t-13 59q0 90 54 156t110 96q4 4 30 4t26 -14l-46 -44q-46 -46 -46 -73t37 -59t37 -69z" />
    <glyph glyph-name="afii57929" unicode="&#x2bc;" horiz-adv-x="920" 
d="M1020 1210q0 38 37 66t99 28q30 -36 30 -111t-63 -169t-101 -94q-8 0 -18 9t-10 17l18 16q52 58 52 124q0 12 -22 44t-22 70z" />
    <glyph glyph-name="uni02C0" unicode="&#x2c0;" horiz-adv-x="920" 
d="M1043 1158q-29 0 -63 -38t-48 -38q-36 0 -36 42q24 34 78 71t112 37t94 -29t36 -81t-71 -106q-71 -55 -71 -69q0 -15 10 -31q0 -4 -11 -10t-29 -6t-36 15t-18 32t16 35q17 18 68 52q38 32 38 60t-20 46t-49 18z" />
    <glyph glyph-name="circumflex" unicode="&#x2c6;" horiz-adv-x="920" 
d="M1478 1030q0 -46 -15 -46t-77 45t-108 87q-44 -42 -104 -87t-77 -45t-17 46q6 8 73 84t94 122t31 46q10 0 39 -49t52 -79t50 -60t43 -46t16 -18z" />
    <glyph glyph-name="caron" unicode="&#x2c7;" horiz-adv-x="920" 
d="M1464 1282q16 0 16 -46q0 -2 -37 -39t-67 -76t-59 -87t-37 -48t-26 31t-55 77t-75 89t-44 53q0 46 17 46t77 -45t104 -87q46 42 108 87t78 45z" />
    <glyph glyph-name="breve" unicode="&#x2d8;" horiz-adv-x="920" 
d="M1170 1132q62 0 110 40t64 104q0 6 9 6t22 -9t13 -17v-8q-2 -6 -2 -8q-14 -82 -75 -141t-141 -59t-141 58t-75 144q0 2 -2 8v6q0 8 13 17t22 9t9 -6q16 -64 64 -104t110 -40z" />
    <glyph glyph-name="dotaccent" unicode="&#x2d9;" horiz-adv-x="920" 
d="M1066 1090q0 42 29 71t71 29t71 -29t29 -71t-29 -71t-71 -29t-71 29t-29 71z" />
    <glyph glyph-name="ring" unicode="&#x2da;" horiz-adv-x="920" 
d="M1000 1184q0 74 52 126t124 52t123 -52t51 -126t-51 -127t-123 -53t-124 53t-52 127zM1066 1184q0 -46 32 -79t77 -33t77 33t32 79t-31 78t-77 32t-78 -32t-32 -78z" />
    <glyph glyph-name="ogonek" unicode="&#x2db;" horiz-adv-x="920" 
d="M1265 84q59 0 57 -22q0 -6 -6 -12t-81 -58q-177 -123 -177 -224q0 -32 18 -59t63 -27t83 19t58 38t26 19t6 -23t-10 -37q-102 -134 -210 -134q-74 0 -108 50t-34 104q0 90 128 228t187 138z" />
    <glyph glyph-name="tilde" unicode="&#x2dc;" horiz-adv-x="826" 
d="M1308 1112q64 0 94 68q4 2 12 2q18 0 18 -32q0 -56 -55 -98t-107 -42t-136 43t-144 43t-92 -70q-4 -2 -12 -2q-18 0 -18 32q0 56 55 98t106 42t133 -42t146 -42z" />
    <glyph glyph-name="hungarumlaut" unicode="&#x2dd;" horiz-adv-x="920" 
d="M1257 1374q41 0 66 -14t25 -34q0 -50 -143 -161t-168 -111t-25 26q0 18 76 128t110 148q18 18 59 18zM1511 1374q41 0 66 -14t25 -34q0 -50 -143 -161t-168 -111t-25 26q0 18 76 128t110 148q18 18 59 18z" />
    <glyph glyph-name="gravecomb" unicode="&#x300;" horiz-adv-x="494" 
d="M94 1326q0 20 25 34t66 14t59 -18q74 -87 130 -179q56 -91 56 -97q0 -26 -25 -26t-168 111t-143 161z" />
    <glyph glyph-name="acutecomb" unicode="&#x301;" horiz-adv-x="468" 
d="M337 1374q41 0 66 -14t25 -34q0 -50 -143 -161t-168 -111t-25 26q0 18 76 128t110 148q18 18 59 18z" />
    <glyph glyph-name="uni0302" unicode="&#x302;" horiz-adv-x="848" 
d="M558 1030q0 -46 -15 -46t-77 45t-108 87q-44 -42 -104 -87t-77 -45t-17 46q6 8 73 84t94 122t31 46q10 0 39 -49t52 -79t50 -60t43 -46t16 -18z" />
    <glyph glyph-name="tildecomb" unicode="&#x303;" horiz-adv-x="808" 
d="M504 1112q64 0 94 68q4 2 12 2q18 0 18 -32q0 -56 -55 -98t-107 -42t-136 43t-144 43t-92 -70q-4 -2 -12 -2q-18 0 -18 32q0 56 55 98t106 42t133 -42t146 -42z" />
    <glyph glyph-name="uni0304" unicode="&#x304;" horiz-adv-x="768" 
d="M160 1118q0 74 24 74h416q10 0 10 -17t-7 -42t-15 -33h-416q-12 6 -12 18z" />
    <glyph glyph-name="uni0305" unicode="&#x305;" horiz-adv-x="1130" 
d="M-30 1498q0 20 7 63t21 43h1164q12 0 12 -24t-9 -59t-13 -38t-8 -3l-2 -2h-1160q-12 0 -12 20z" />
    <glyph glyph-name="uni0306" unicode="&#x306;" horiz-adv-x="504" 
d="M250 1132q62 0 110 40t64 104q0 6 9 6t22 -9t13 -17v-8q-2 -6 -2 -8q-14 -82 -75 -141t-141 -59t-141 58t-75 144q0 2 -2 8v6q0 8 13 17t22 9t9 -6q16 -64 64 -104t110 -40z" />
    <glyph glyph-name="uni0307" unicode="&#x307;" horiz-adv-x="524" 
d="M146 1090q0 42 29 71t71 29t71 -29t29 -71t-29 -71t-71 -29t-71 29t-29 71z" />
    <glyph glyph-name="uni0308" unicode="&#x308;" horiz-adv-x="666" 
d="M156 1126q38 0 65 -28t27 -66t-28 -64t-66 -26t-66 27t-28 65t29 65t67 27zM522 1126q38 0 65 -28t27 -66t-28 -64t-66 -26t-66 27t-28 65t29 65t67 27z" />
    <glyph glyph-name="hookabovecomb" unicode="&#x309;" horiz-adv-x="360" 
d="M216 1310q58 0 86 -28t28 -74t-31 -80t-65 -49t-44 -25t-10 -30t16 -36q0 -8 -12 -18t-20 -10q-68 22 -68 66q0 22 20 43t31 26t39 19q62 28 62 74q0 26 -15 45t-41 19q-64 0 -64 -72q0 -40 -60 -40q-32 0 -32 18q0 52 61 102t119 50z" />
    <glyph glyph-name="uni030A" unicode="&#x30a;" horiz-adv-x="488" 
d="M80 1184q0 74 52 126t124 52t123 -52t51 -126t-51 -127t-123 -53t-124 53t-52 127zM146 1184q0 -46 32 -79t77 -33t77 33t32 79t-31 78t-77 32t-78 -32t-32 -78z" />
    <glyph glyph-name="uni030B" unicode="&#x30b;" horiz-adv-x="726" 
d="M337 1374q41 0 66 -14t25 -34q0 -50 -143 -161t-168 -111t-25 26q0 18 76 128t110 148q18 18 59 18zM591 1374q41 0 66 -14t25 -34q0 -50 -143 -161t-168 -111t-25 26q0 18 76 128t110 148q18 18 59 18z" />
    <glyph glyph-name="uni030C" unicode="&#x30c;" horiz-adv-x="848" 
d="M544 1282q16 0 16 -46q0 -2 -37 -39t-67 -76t-59 -87t-37 -48t-26 31t-55 77t-75 89t-44 53q0 46 17 46t77 -45t104 -87q46 42 108 87t78 45z" />
    <glyph glyph-name="uni0312" unicode="&#x312;" horiz-adv-x="430" 
d="M266 1055q0 -37 -38 -70t-120 -33q-18 14 -31 47t-13 59q0 90 54 156t110 96q4 4 30 4t26 -14l-46 -44q-46 -46 -46 -73t37 -59t37 -69z" />
    <glyph glyph-name="uni0314" unicode="&#x314;" horiz-adv-x="974" 
d="M450 1360q36 0 70 -23t34 -36t-4 -15t-31 -23t-40 -34t-28 -43t-15 -64t30 -66t78 -44q0 -10 -8 -18t-18 -8t-36 9t-62 30t-61 68t-25 108t40 110t76 49z" />
    <glyph glyph-name="uni0315" unicode="&#x315;" horiz-adv-x="320" 
d="M100 1210q0 38 37 66t99 28q30 -36 30 -111t-63 -169t-101 -94q-8 0 -18 9t-10 17l18 16q52 58 52 124q0 12 -22 44t-22 70z" />
    <glyph glyph-name="uni0323" unicode="&#x323;" horiz-adv-x="524" 
d="M188 -164q0 42 29 71t71 29t71 -29t29 -71t-29 -71t-71 -29t-71 29t-29 71z" />
    <glyph glyph-name="uni0326" unicode="&#x326;" horiz-adv-x="430" 
d="M82 -195q0 37 38 70t120 33q18 -14 31 -47t13 -59q0 -160 -164 -252q-4 -4 -30 -4t-26 14l46 44q46 46 46 73t-37 59t-37 69z" />
    <glyph glyph-name="uni0327" unicode="&#x327;" horiz-adv-x="886" 
d="M345 -230q11 0 33 -13t51 -13t52 19t23 49t-20 48t-40 18t-54 -14q-4 0 -13 10t-4 19t29 46t32 53h42l-36 -46h50q38 0 63 -29t25 -69q0 -68 -54 -110t-115 -42t-87 18l-6 28q0 10 9 19t20 9z" />
    <glyph glyph-name="uni0328" unicode="&#x328;" horiz-adv-x="440" 
d="M345 84q59 0 57 -22q0 -6 -6 -12t-81 -58q-177 -123 -177 -224q0 -32 18 -59t63 -27t83 19t58 38t26 19t6 -23t-10 -37q-102 -134 -210 -134q-74 0 -108 50t-34 104q0 90 128 228t187 138z" />
    <glyph glyph-name="uni0370" unicode="&#x370;" horiz-adv-x="1070" 
d="M554 1264q-18 0 -71 -13t-59 -27q-16 -64 -16 -186v-300l2 -6q196 -4 308 -4t292 4v-102q-184 4 -393 4t-209 -10v-346q0 -124 16 -186q6 -14 58 -27t72 -13q6 0 7 -24t-3 -34q-200 10 -221 10t-251 -10q-10 10 -10 34t10 24q26 0 77 12t57 28q14 54 14 178v776
q0 122 -14 178q-6 14 -58 27t-76 13q-10 0 -10 26t10 32l238 -10l234 10q4 -8 3 -33t-7 -25z" />
    <glyph glyph-name="uni0371" unicode="&#x371;" horiz-adv-x="772" 
d="M394 404v78h324v-78h-324zM394 404v-410q-88 10 -156 0v518q0 128 -18 170t-55 42t-61 -21t-34 -39q-8 0 -17 16t-9 26q20 68 71 114t115 46q164 -2 164 -260v-124h-40v-78h40z" />
    <glyph glyph-name="uni0372" unicode="&#x372;" horiz-adv-x="1298" 
d="M1207 654q-25 0 -27 10q-46 308 -72 394q-54 172 -154 172q-188 0 -200 -30q-18 -64 -18 -202v-720q0 -116 18 -186q6 -14 58 -27t72 -13q6 0 6 -23t-4 -35q-200 10 -220 10t-250 -10q-8 8 -8 33t8 25q26 0 76 12t56 28q14 54 14 178v722q0 174 -18 208q-12 30 -194 30
q-105 0 -153 -177q-36 -133 -52 -256q-17 -123 -19 -133t-29 -10t-41 14l40 672q80 -20 136 -20l418 -8l420 8q62 0 138 20l38 -672q-14 -14 -39 -14z" />
    <glyph glyph-name="uni0373" unicode="&#x373;" horiz-adv-x="964" 
d="M596 1066v-658q0 -104 15 -243t29 -171q-28 -34 -76 -34q-18 0 -82 26t-64 46q4 572 4 1054q0 92 -18 114q-6 12 -24 14q-78 6 -126 -31t-48 -110t60 -147q0 -10 -15 -24t-27 -14q-68 30 -114 99t-45 162t63 130t154 37t448 4q114 0 168 20l2 -424q-16 -20 -40 -20
t-26 14q-16 162 -49 236t-111 76q-46 0 -60 -24q-18 -36 -18 -132z" />
    <glyph glyph-name="uni0374" unicode="&#x374;" horiz-adv-x="468" 
d="M348 1390q30 0 49 -16t19 -26q0 -58 -117 -198t-149 -148q-24 0 -28 24q-6 18 52 151t82 177q6 12 34 24t58 12z" />
    <glyph glyph-name="uni0375" unicode="&#x375;" horiz-adv-x="464" 
d="M121 -162q-25 0 -50 13t-25 27q0 58 118 198t150 148q22 0 25 -17t-46 -144t-85 -191q-8 -10 -35 -22t-52 -12z" />
    <glyph glyph-name="uni0376" unicode="&#x376;" horiz-adv-x="1354" 
d="M1306 1289q0 -25 -8 -25q-20 0 -73 -13t-57 -27q-16 -64 -16 -186v-760q0 -124 16 -186q4 -14 57 -27t73 -13q8 0 8 -23t-4 -35q-200 10 -221 10t-251 -10q-8 8 -8 33t8 25q28 0 79 12t57 28q12 56 12 178v738l-690 -1008q-102 0 -240 -6q-8 8 -8 33t8 25q28 0 79 12
t57 28q14 54 14 178v776q0 122 -14 178q-6 14 -58 27t-78 13q-8 0 -8 27t8 31l240 -10l234 10q4 -8 3 -33t-7 -25q-20 0 -73 -13t-57 -27q-16 -64 -16 -186v-778l712 1052l218 10q4 -8 4 -33z" />
    <glyph glyph-name="uni0377" unicode="&#x377;" horiz-adv-x="1062" 
d="M936 136q26 0 50 21t34 39q8 0 17 -16t9 -26q-20 -68 -71 -114t-115 -46q-164 2 -164 260v360l-402 -630q-54 0 -100 -2q14 58 14 140v488q0 76 -24 103t-53 36t-48 10t-19 5q0 46 12 48q184 28 286 56q12 4 12 -28q0 -6 -6 -50t-6 -108v-438l392 620q46 -6 98 2l-2 -478
q0 -154 19 -203t67 -49z" />
    <glyph glyph-name="uni037A" unicode="&#x37a;" horiz-adv-x="444" 
d="M118 -148q18 0 52 -14t34 -38q0 -94 72 -94q48 0 64 8q14 -8 14 -29t-46 -63t-104 -42t-96 53t-38 131v64q0 8 15 16t33 8z" />
    <glyph glyph-name="uni037B" unicode="&#x37b;" horiz-adv-x="906" 
d="M390 878q190 0 316 -132t126 -320t-122 -315t-315 -127t-351 172q6 24 38 44q152 -130 287 -130t212 101t77 259t-69 263t-207 105q-186 0 -274 -234q-22 0 -46 16q-2 130 99 214t229 84z" />
    <glyph glyph-name="uni037C" unicode="&#x37c;" horiz-adv-x="906" 
d="M414 457q0 49 32 81t80 32t81 -32t33 -82t-31 -79t-81 -29t-82 30t-32 79zM524 798q-138 0 -207 -105t-69 -263t77 -259t212 -101t287 130q32 -20 38 -44q-158 -172 -351 -172t-315 127t-122 315t126 320t316 132q128 0 229 -84t99 -214q-24 -16 -46 -16
q-88 234 -274 234z" />
    <glyph glyph-name="uni037D" unicode="&#x37d;" horiz-adv-x="906" 
d="M492 457q0 -49 -32 -79t-82 -30t-81 29t-31 79t33 82t81 32t80 -32t32 -81zM390 878q190 0 316 -132t126 -320t-122 -315t-315 -127t-351 172q6 24 38 44q152 -130 287 -130t212 101t77 259t-69 263t-207 105q-186 0 -274 -234q-22 0 -46 16q-2 130 99 214t229 84z" />
    <glyph glyph-name="uni037E" unicode="&#x37e;" horiz-adv-x="440" 
d="M104 741q0 49 36 84t86 35t84 -35t34 -84t-35 -85t-84 -36t-85 36t-36 85zM332 98q0 -104 -21 -167t-72 -119t-153 -142q-8 -4 -18 -4t-24 22t-14 29t37 37t73 88t36 123t-27 114t-27 57q0 40 43 76t97 36q14 0 36 -14q34 -32 34 -136z" />
    <glyph glyph-name="tonos" unicode="&#x384;" horiz-adv-x="386" 
d="M256 1408q52 0 52 -46q0 -66 -89 -217t-109 -159h-6q-6 0 -15 6t-9 19t29 142t55 205q6 16 36 33t56 17z" />
    <glyph glyph-name="Alphatonos" unicode="&#x386;" 
d="M774 1878q52 0 52 -46q0 -66 -89 -217t-109 -159h-6q-6 0 -15 6t-9 19t29 142t55 205q6 16 36 33t56 17zM665 594q63 0 157 6l6 10l-162 442l-172 -446q0 -8 4 -8q104 -4 167 -4zM240 4q-22 0 -192 -10q-8 8 -8 33t8 25q24 0 62 10t52 28q42 54 94 188l348 894
q4 10 11 32t11 33t12 28q29 61 74 61l18 -6l400 -1056q36 -94 53 -134t67 -59t74 -19q8 0 8 -23t-4 -35q-200 10 -211 10t-241 -10q-8 8 -7 33t9 25q24 0 60 10t42 26q4 16 4 49t-20 99l-90 248q-10 14 -139 14t-279 -10l-10 -6l-86 -220q-34 -100 -34 -133t17 -46t57 -22
t58 -9q6 0 7 -24t-3 -34q-200 10 -222 10z" />
    <glyph glyph-name="anoteleia" unicode="&#x387;" horiz-adv-x="100" 
 />
    <glyph glyph-name="Epsilontonos" unicode="&#x388;" horiz-adv-x="1142" 
d="M600 1878q52 0 52 -46q0 -66 -89 -217t-109 -159h-6q-6 0 -15 6t-9 19t29 142t55 205q6 16 36 33t56 17zM-352 26q0 26 6 26q26 0 77 14t63 35t12 185v756q0 118 -14 172q-6 16 -59 30t-79 14q-8 0 -8 25t8 33q104 -4 238 -4l646 16q8 -58 31 -153t27 -119
q-10 -10 -36 -10t-28 14q-30 110 -84 141t-148 31h-134q-172 0 -176 -26q-10 -48 -10 -168v-320q0 -12 90 -12h149q59 0 87 8t36 10t21 26t15 35t14 57q2 14 28 14t36 -10v-378q-8 -8 -33 -8t-31 16q-26 100 -35 109t-28 21t-184 12t-165 -18v-310q0 -130 18 -182
q6 -20 136 -20h96q186 0 252 34q30 16 67 71t59 131q4 12 35 12t43 -12q-98 -254 -108 -332l-682 8l-242 -6q-6 6 -6 32z" />
    <glyph glyph-name="Etatonos" unicode="&#x389;" horiz-adv-x="1414" 
d="M342 1878q52 0 52 -46q0 -66 -89 -217t-109 -159h-6q-6 0 -15 6t-9 19t29 142t55 205q6 16 36 33t56 17zM659 1312q79 0 247 12q4 -12 4 -35t-8 -23q-20 0 -72 -14t-56 -28q-16 -62 -16 -186v-760q0 -124 16 -186q4 -14 56 -27t72 -13q8 0 8 -23t-4 -35q-200 10 -220 10
t-250 -10q-8 8 -8 33t8 25q26 0 77 12t57 28q14 54 14 178v352l-4 8q-188 4 -396 4t-208 -10v-346q0 -116 18 -186q4 -14 56 -27t72 -13q6 0 7 -24t-3 -34q-200 10 -221 10t-251 -10q-8 8 -8 33t8 25q26 0 77 12t57 28q14 54 14 178v776q0 124 -14 178q-6 16 -57 29t-77 13
q-8 0 -8 25t8 33q156 -12 230 -12t242 12q4 -8 3 -33t-7 -25q-20 0 -72 -14t-56 -28q-18 -70 -18 -186v-298l4 -6q196 -4 308 -4t292 4q4 4 4 8v304q0 124 -14 178q-6 16 -57 29t-77 13q-8 0 -8 25t8 33q144 -12 223 -12z" />
    <glyph glyph-name="Iotatonos" unicode="&#x38a;" horiz-adv-x="636" 
d="M-48 1878q52 0 52 -46q0 -66 -89 -217t-109 -159h-6q-6 0 -15 6t-9 19t29 142t55 205q6 16 36 33t56 17zM-198 1046q0 124 -14 178q-6 16 -57 29t-77 13q-8 0 -8 25t8 33q230 -10 251 -10t221 10q4 -12 4 -35t-8 -23q-20 0 -72 -14t-56 -28q-18 -70 -18 -186v-760
q0 -116 18 -186q4 -14 56 -27t72 -13q8 0 8 -23t-4 -35q-200 10 -221 10t-251 -10q-8 8 -8 33t8 25q26 0 77 12t57 28q14 54 14 178v776z" />
    <glyph glyph-name="Omicrontonos" unicode="&#x38c;" horiz-adv-x="1456" 
d="M534 1878q52 0 52 -46q0 -66 -89 -217t-109 -159h-6q-6 0 -15 6t-9 19t29 142t55 205q6 16 36 33t56 17zM-166 656q0 280 187 479t451 199t452 -199t188 -479t-188 -478t-452 -198t-451 198t-187 478zM442 1250q-190 0 -300 -166t-110 -384q0 -160 52 -302t162 -237
t248 -95t234 83q186 161 186 469q0 160 -52 301t-162 236t-258 95z" />
    <glyph glyph-name="Upsilontonos" unicode="&#x38e;" horiz-adv-x="1298" 
d="M350 1878q52 0 52 -46q0 -66 -89 -217t-109 -159h-6q-6 0 -15 6t-9 19t29 142t55 205q6 16 36 33t56 17zM714 1312l188 12q4 -12 4 -33t-8 -21q-24 0 -84 -18t-80 -44q-76 -118 -221 -358t-145 -268v-304q0 -124 16 -186q4 -14 54 -29t68 -15q8 0 8 -21t-4 -33
q-200 10 -215 10t-245 -10q-8 8 -8 31t8 23q24 0 73 14t55 30q16 62 16 192v250q0 28 -43 111t-162 298t-136 238t-44 42t-71 33t-64 14q-8 0 -8 23t8 31q192 -12 228 -12t276 12q4 -8 3 -31t-7 -23q-34 0 -77 -17t-43 -45t22 -66l224 -424q10 -10 20 4q272 412 272 482
q0 22 -40 44t-98 22q-8 0 -8 23t8 31q222 -12 260 -12z" />
    <glyph glyph-name="Omegatonos" unicode="&#x38f;" horiz-adv-x="1720" 
d="M776 1878q52 0 52 -46q0 -66 -89 -217t-109 -159h-6q-6 0 -15 6t-9 19t29 142t55 205q6 16 36 33t56 17zM866 33q0 29 9 64t17 41q108 50 193 211t85 360t-134 370t-338 171t-323 -152t-119 -353t106 -382t206 -225q12 -10 22 -44t9 -64t-15 -30l-530 -4q-10 64 -53 175
t-55 143q12 12 42 12t36 -12q58 -126 142 -158q50 -20 268 -20q-81 19 -215 153q-67 67 -114 180t-47 243q0 244 197 433t460 189t458 -176t195 -416q0 -130 -45 -248t-107 -190t-118 -116t-88 -52q218 0 268 20t82 54t60 104q2 12 34 12t44 -12q-2 -8 -51 -137t-57 -181
l-512 4q-12 4 -12 33z" />
    <glyph glyph-name="iotadieresistonos" unicode="&#x390;" horiz-adv-x="444" 
d="M296 1736q52 0 52 -46q0 -66 -89 -217t-109 -159h-6q-6 0 -15 6t-9 19t29 142t55 205q6 16 36 33t56 17zM314 -6q-58 0 -95 52t-37 132v654q24 34 44 34t63 -26t43 -46q-2 -70 -8 -273t-8 -319q-2 -82 72 -82q50 0 64 10q14 -10 14 -31t-47 -63t-105 -42zM52 1192
q40 0 69 -30t29 -70t-30 -68t-70 -28t-70 29t-30 69t31 69t71 29zM418 1192q40 0 69 -30t29 -70t-30 -68t-70 -28t-70 29t-30 69t31 69t71 29z" />
    <glyph glyph-name="Alpha" unicode="&#x391;" 
d="M665 594q63 0 157 6l6 10l-162 442l-172 -446q0 -8 4 -8q104 -4 167 -4zM240 4q-22 0 -192 -10q-8 8 -8 33t8 25q24 0 62 10t52 28q42 54 94 188l348 894q4 10 11 32t11 33t12 28q29 61 74 61l18 -6l400 -1056q36 -94 53 -134t67 -59t74 -19q8 0 8 -23t-4 -35
q-200 10 -211 10t-241 -10q-8 8 -7 33t9 25q24 0 60 10t42 26q4 16 4 49t-20 99l-90 248q-10 14 -139 14t-279 -10l-10 -6l-86 -220q-34 -100 -34 -133t17 -46t57 -22t58 -9q6 0 7 -24t-3 -34q-200 10 -222 10z" />
    <glyph glyph-name="Beta" unicode="&#x392;" horiz-adv-x="1184" 
d="M842 940q0 138 -69 215t-205 77q-92 0 -142 -14q-12 -2 -12 -18l-8 -202v-238q0 -14 98 -14t163 7t120 56t55 131zM1018 986q0 -72 -56 -148t-142 -106q-16 -6 -10 -12q78 -14 186 -113t108 -233q0 -172 -139 -273t-369 -101h-274l-242 -6q-6 6 -6 32t6 26q26 0 77 14
t63 35t12 185v756q0 118 -14 172q-6 16 -59 30t-79 14q-8 0 -8 25t8 33q104 -4 238 -4l282 2q193 0 318 -102q44 -36 72 -95t28 -131zM914 352q0 128 -86 219t-270 91q-44 0 -144 -8q-8 -24 -8 -66v-292q0 -152 31 -179t95 -27t113 8t117 31t110 80t42 143z" />
    <glyph glyph-name="Gamma" unicode="&#x393;" horiz-adv-x="1020" 
d="M972 1046q-26 0 -28 14q-30 110 -84 141t-148 31h-134q-172 0 -176 -26q-10 -48 -10 -168v-760q0 -116 18 -186q4 -14 56 -27t72 -13q8 0 8 -23t-4 -35q-200 10 -221 10t-251 -10q-8 8 -8 33t8 25q26 0 77 12t57 28q14 54 14 180v770q0 118 -14 172q-6 16 -59 30t-79 14
q-8 0 -8 25t8 33q104 -4 238 -4l646 16q8 -58 31 -153t27 -119q-10 -10 -36 -10z" />
    <glyph glyph-name="Delta" unicode="&#x394;" horiz-adv-x="1270" 
d="M92 0l-16 32l550 1194h30l538 -1198q-10 -12 -14 -28h-1088zM248 122h708q12 0 6 14l-350 788q-14 10 -22 -4l-356 -776q-6 -22 14 -22z" />
    <glyph glyph-name="Epsilon" unicode="&#x395;" horiz-adv-x="1142" 
d="M60 26q0 26 6 26q26 0 77 14t63 35t12 185v756q0 118 -14 172q-6 16 -59 30t-79 14q-8 0 -8 25t8 33q104 -4 238 -4l646 16q8 -58 31 -153t27 -119q-10 -10 -36 -10t-28 14q-30 110 -84 141t-148 31h-134q-172 0 -176 -26q-10 -48 -10 -168v-320q0 -12 90 -12h149
q59 0 87 8t36 10t21 26t15 35t14 57q2 14 28 14t36 -10v-378q-8 -8 -33 -8t-31 16q-26 100 -35 109t-28 21t-184 12t-165 -18v-310q0 -130 18 -182q6 -20 136 -20h96q186 0 252 34q30 16 67 71t59 131q4 12 35 12t43 -12q-98 -254 -108 -332l-682 8l-242 -6q-6 6 -6 32z" />
    <glyph glyph-name="Zeta" unicode="&#x396;" horiz-adv-x="1200" 
d="M428 1312h218q140 0 420 20q6 -2 13 -26t7 -40l-748 -1114q-14 -20 -14 -30q0 -20 28 -20h452q144 0 209 86q50 66 83 156q4 6 31 6t45 -18q-64 -208 -88 -332h-992q-16 18 -16 47t8 39l766 1130h-424q-132 0 -189 -55t-95 -193q-2 -8 -34 -8t-50 18q54 248 66 352
q20 -6 145 -12t159 -6z" />
    <glyph glyph-name="Eta" unicode="&#x397;" horiz-adv-x="1414" 
d="M1089 1312q79 0 247 12q4 -12 4 -35t-8 -23q-20 0 -72 -14t-56 -28q-16 -62 -16 -186v-760q0 -124 16 -186q4 -14 56 -27t72 -13q8 0 8 -23t-4 -35q-200 10 -220 10t-250 -10q-8 8 -8 33t8 25q26 0 77 12t57 28q14 54 14 178v352l-4 8q-188 4 -396 4t-208 -10v-346
q0 -116 18 -186q4 -14 56 -27t72 -13q6 0 7 -24t-3 -34q-200 10 -221 10t-251 -10q-8 8 -8 33t8 25q26 0 77 12t57 28q14 54 14 178v776q0 124 -14 178q-6 16 -57 29t-77 13q-8 0 -8 25t8 33q156 -12 230 -12t242 12q4 -8 3 -33t-7 -25q-20 0 -72 -14t-56 -28
q-18 -70 -18 -186v-298l4 -6q196 -4 308 -4t292 4q4 4 4 8v304q0 124 -14 178q-6 16 -57 29t-77 13q-8 0 -8 25t8 33q144 -12 223 -12z" />
    <glyph glyph-name="Theta" unicode="&#x398;" horiz-adv-x="1456" 
d="M88 656q0 280 187 479t451 199t452 -199t188 -479t-188 -478t-452 -198t-451 198t-187 478zM696 1250q-190 0 -300 -166t-110 -384q0 -160 52 -302t162 -237t248 -95t234 83q186 161 186 469q0 160 -52 301t-162 236t-258 95zM924 588h-422q-22 0 -41 -26t-21 -26
q-18 0 -18 24q0 6 12 75t14 88q7 71 25 71q11 0 29 -36t32 -36h422q22 0 41 26t21 26q18 0 18 -24q0 -6 -12 -75t-14 -88q-7 -71 -25 -71q-11 0 -29 36t-32 36z" />
    <glyph glyph-name="Iota" unicode="&#x399;" horiz-adv-x="636" 
d="M232 1046q0 124 -14 178q-6 16 -57 29t-77 13q-8 0 -8 25t8 33q230 -10 251 -10t221 10q4 -12 4 -35t-8 -23q-20 0 -72 -14t-56 -28q-18 -70 -18 -186v-760q0 -116 18 -186q4 -14 56 -27t72 -13q8 0 8 -23t-4 -35q-200 10 -221 10t-251 -10q-8 8 -8 33t8 25q26 0 77 12
t57 28q14 54 14 178v776z" />
    <glyph glyph-name="Kappa" unicode="&#x39a;" horiz-adv-x="1386" 
d="M320 1312q74 0 242 12q4 -8 3 -33t-7 -25q-20 0 -72 -14t-56 -28q-18 -70 -18 -186v-326l14 -12h14q64 0 116 58q234 262 344 406q48 58 48 76q0 34 -114 34q-8 0 -8 18t4 32q156 -12 214 -12t202 12q4 -8 3 -29t-7 -21q-122 -14 -184 -84l-402 -468q-16 -18 14 -54
l482 -530q32 -34 93 -60t119 -26q10 0 10 -25t-4 -33q-200 10 -259 10t-259 -10q-8 8 -8 33t8 25q24 0 55 8t31 24q0 64 -454 530q-8 8 -58 8q-14 0 -14 -16v-328q0 -116 18 -186q4 -14 56 -27t72 -13q6 0 7 -24t-3 -34q-200 10 -221 10t-251 -10q-8 8 -8 33t8 25
q26 0 77 12t57 28q14 54 14 178v776q0 124 -14 178q-6 16 -57 29t-77 13q-8 0 -8 25t8 33q156 -12 230 -12z" />
    <glyph glyph-name="Lambda" unicode="&#x39b;" horiz-adv-x="1422" 
d="M1165 -8q-59 0 -259 -10q-4 10 -3 34t7 24q110 0 116 38q2 10 2 28q0 58 -252 674q-54 136 -86 212q-6 10 -17 5t-15 -15l-300 -724q-34 -86 -34 -115t14 -61q10 -20 52 -31t70 -11q8 0 8 -25t-8 -33q-184 10 -200 10t-216 -10q-4 12 -4 35t8 23q90 0 120 56
q46 84 98 206l400 956q26 66 70 66q14 0 20 -12l410 -1034q50 -132 90 -192q14 -22 58 -34t70 -12q8 0 8 -25t-8 -33q-160 10 -219 10z" />
    <glyph glyph-name="Mu" unicode="&#x39c;" horiz-adv-x="1820" 
d="M344 1314q64 0 174 10q14 -46 396 -1002q2 -4 9 -4t9 8q196 460 312 758l80 240q128 -8 209 -8t181 8q6 -18 6 -38t-10 -20h-4q-22 0 -58 -13t-57 -29t-21 -90t18 -854q2 -114 30 -184q8 -18 60 -31t74 -13q8 0 8 -23t-4 -35q-200 10 -224 10t-254 -10q-8 8 -8 33t8 25
q20 0 61 10t62 22t21 84v106l-24 704q-2 32 -11 75t-19 43q-4 0 -10 -14l-418 -1000q-38 -86 -74 -86q-6 0 -18 4l-458 1164l-32 -1014q0 -36 12 -52t73 -31t81 -15q8 0 8 -23t-4 -35q-200 10 -218 10t-248 -10q-10 10 -10 34t10 24q28 0 83 13t73 31q32 36 36 209t9 375
t9 317t4 156t-8 71q-6 16 -68 29t-90 13q-8 0 -8 25t8 33q170 -10 234 -10z" />
    <glyph glyph-name="Nu" unicode="&#x39d;" horiz-adv-x="1442" 
d="M1394 1291q0 -21 -8 -21q-20 0 -87 -16t-71 -30q-16 -62 -16 -186v-760q0 -124 6 -280q-8 -8 -40 -8t-64 46l-776 1100v-854q0 -132 14 -186q4 -14 67 -29t83 -15q6 0 7 -24t-3 -34q-200 10 -230 10l-230 -10q-6 6 -6 32t6 26q28 0 91 15t69 33q20 52 20 188v786
q0 98 -14 150q-6 16 -68 29t-90 13q-8 0 -8 25t8 33q156 -4 232 -4t132 4q74 -136 678 -980q6 34 6 82v622q0 122 -14 176q-6 16 -69 31t-89 15q-8 0 -8 23t8 31q156 -12 236 -12l224 12q4 -12 4 -33z" />
    </font>
</defs>
</svg>
