<?xml version="1.0" standalone="no"?>
<!DOCTYPE svg PUBLIC "-//W3C//DTD SVG 1.1//EN" "http://www.w3.org/Graphics/SVG/1.1/DTD/svg11.dtd" >
<svg xmlns="http://www.w3.org/2000/svg">
<metadata>
Created by FontPrep 20130207 at Tue Nov 22 10:26:29 2016
 By Alexander McMillan
Copyright (c) 2010, Sebastian Kosch (sebastian@aldusleaf.org),
with Reserved Font Name "Crimson Text".
This Font Software is licensed under the SIL Open Font License, Version 1.1.
This license is available with a FAQ at: http://scripts.sil.org/OFL
</metadata>
<defs>
<font id="a0ae1b4dc4cbc79571b025e54460add4" horiz-adv-x='1024' >
  <font-face 
    font-family="CrimsonText-SemiboldItalic"
    font-weight="600"
    font-style="italic"
    font-stretch="normal"
    units-per-em="2048"
    panose-1="2 0 7 3 0 0 0 0 0 0"
    ascent="1434"
    descent="-614"
    x-height="884"
    cap-height="1324"
    bbox="-184 -490 2390 2098"
    underline-thickness="100"
    underline-position="-200"
    slope="-11"
    unicode-range="U+0020-F89F"
  />
<missing-glyph horiz-adv-x="748" 
d="M136 68h408v1228h-408v-1228zM68 0v1364h544v-1364h-544z" />
    <glyph glyph-name=".notdef" horiz-adv-x="748" 
d="M136 68h408v1228h-408v-1228zM68 0v1364h544v-1364h-544z" />
    <glyph glyph-name=".null" 
 />
    <glyph glyph-name="nonmarkingreturn" horiz-adv-x="682" 
 />
    <glyph glyph-name="space" unicode=" " horiz-adv-x="312" 
 />
    <glyph glyph-name="exclam" unicode="!" horiz-adv-x="440" 
d="M354 1272q42 0 64 -31t18 -67t-39 -161t-94 -328t-85 -293q-6 -24 -27 -39t-35 -15t-12 57t31 341t51 416q10 46 48 83t80 37zM147 242q51 0 79 -36t22 -90t-48 -97t-93 -43t-80 36t-23 93t49 97t94 40z" />
    <glyph glyph-name="quotedbl" unicode="&#x22;" horiz-adv-x="356" 
d="M124 1272l8 -227q0 -71 -8 -151q-2 -12 8 -19t20 -7q-12 0 -23 7t-9 19q8 80 8 151l-8 227q6 34 49 79t91 45q-46 -2 -88 -46t-48 -78zM264 1396q46 0 57 -21t-1 -109q-12 -62 -60 -186t-64 -182q-8 -30 -40 -30q28 2 36 30q16 58 64 182t60 186q12 88 1 108
q-11 21 -53 22z" />
    <glyph glyph-name="numbersign" unicode="#" horiz-adv-x="886" 
d="M554 628h-164l-60 -160h164zM854 752q14 0 14 -19t-17 -62t-33 -43h-148l-60 -160h148q14 0 14 -19t-17 -62t-33 -43h-148l-104 -296q-6 -16 -63 -16t-57 10q4 4 4 6l104 296h-164l-104 -296q-6 -16 -63 -16t-57 10q4 4 4 6l104 296h-148q-14 0 -14 19t17 62t33 43h148
l60 160h-148q-14 0 -14 19t17 62t33 43h148l104 296q6 16 63 16t57 -12q-4 -2 -4 -4l-104 -296h164l104 296q6 16 63 16t57 -12q-4 -2 -4 -4l-104 -296h148z" />
    <glyph glyph-name="dollar" unicode="$" horiz-adv-x="878" 
d="M566 1178q-100 0 -154 -67t-54 -145t62 -136q9 -14 31 -32q21 -18 23 -20l140 394q-24 6 -48 6zM212 -132q-30 0 -54 30l34 98q-74 12 -174 36q-2 26 -2 95t12 213q2 16 36 16t46 -10q0 -72 28 -141t92 -103l160 446q-18 18 -98 78q-138 114 -138 240q0 174 137 290
t303 116q38 0 56 -2l36 100q2 10 32 10t56 -34l-34 -94q72 -20 114 -26q-6 -50 -13 -118l-12 -120q-8 -76 -15 -76q-34 0 -50 10q-10 4 -10 22q0 104 -60 176l-144 -402q12 -8 62 -46t58 -44q116 -90 116 -234t-128 -276q-60 -60 -148 -97t-178 -37h-48l-40 -108
q-2 -8 -32 -8zM342 78q92 0 161 73t69 159t-72 150q-2 2 -17 15t-17 15l-148 -412h24z" />
    <glyph glyph-name="percent" unicode="%" horiz-adv-x="1288" 
d="M479 1316q125 0 188 -84t51 -212t-118 -236t-230 -108t-188 82t-52 211t118 238t231 109zM462 1252q-70 0 -115 -79t-61 -185q-4 -56 -2 -110t30 -95t76 -41q68 0 111 80t53 160t9 134t-27 95t-74 41zM40 -16q-44 0 -48 24l1166 1276q24 24 40 24q56 0 74 -28
q-1152 -1260 -1170 -1278t-62 -18zM964 636q126 0 188 -83t50 -211t-117 -237t-229 -109t-189 83t-53 212t118 237t232 108zM946 572q-70 0 -116 -79t-56 -160t-7 -135t31 -95t76 -41q68 0 111 79t59 187q4 54 3 108t-27 95t-74 41z" />
    <glyph glyph-name="ampersand" unicode="&#x26;" horiz-adv-x="1298" 
d="M1208 888q0 28 -20 47t-44 19t-53 -20t-55 -20t-47 24t-21 66t48 80q130 0 201 -51t71 -142t-60 -147t-160 -56q-12 0 -52 4q112 -100 112 -244q0 -198 -180 -337t-395 -139t-366 118t-151 302q0 122 82 228t178 142q-88 98 -88 196q0 140 119 226t257 86q92 0 160 -50
t68 -121t-43 -124t-71 -53t-28 16q0 2 9 29t9 76t-43 90t-120 41t-137 -69t-60 -163t60 -146q42 12 88 12t91 -24t45 -63t-39 -60t-102 -21t-111 42q-118 -100 -118 -258t88 -257t241 -99t270 120t117 286q0 76 -37 133t-96 57t-98 -28t-39 -76q0 -38 58 -52q82 -20 82 -74
q0 -86 -76 -106q-46 0 -101 55t-55 131q0 110 86 184t202 74l152 -4q68 0 120 31t52 89z" />
    <glyph glyph-name="quotesingle" unicode="'" horiz-adv-x="352" 
d="M259 1396q47 0 58 -21t-1 -109q-12 -62 -60 -186t-64 -182q-8 -30 -44 -30q-12 0 -21 7t-7 19q8 80 8 151l-8 227q6 34 49 79t90 45z" />
    <glyph glyph-name="parenleft" unicode="(" horiz-adv-x="662" 
d="M230 303q0 -189 42 -333t84 -170v-12q-2 -12 -12 -29t-20 -17q-30 0 -73 47t-86 127t-73 205t-30 259q0 210 76 425t178 361t200 238t148 92q14 0 14 -40v-12q0 -4 -4 -4q-58 -32 -133 -141t-145 -259t-118 -349t-48 -388z" />
    <glyph glyph-name="parenright" unicode=")" horiz-adv-x="644" 
d="M594 853q0 -179 -52 -358t-129 -310t-163 -234t-155 -156t-103 -53q-14 0 -14 36v10q0 8 6 12q38 18 108 112t146 239t132 361t56 418t-36 337t-88 173q-9 0 7 28q15 28 25 28q48 0 107 -79t106 -232t47 -332z" />
    <glyph glyph-name="asterisk" unicode="*" horiz-adv-x="754" 
d="M378 1020q0 20 -52 96t-52 119t23 68t51 25q50 0 62 -54q8 -37 8 -141q0 -103 18 -103t46 37t56 82t68 82t76 37q50 0 50 -55t-66 -98t-132 -74t-66 -58t123 -47q47 -8 85 -32t38 -58t-27 -59t-60 -25t-71 41t-69 83t-51 42t-26 -35t-12 -102t-20 -111q-24 -80 -84 -80
q-22 0 -39 17t-17 52t67 136t67 121t-17 20t-109 -43t-126 -43t-52 15t-18 36t7 40t37 38t80 19l156 -14q48 0 48 26z" />
    <glyph glyph-name="plus" unicode="+" horiz-adv-x="964" 
d="M534 967q50 9 74 9t20 -18q-46 -260 -70 -384q-4 -10 6 -10h354q8 0 8 -39t-46 -89h-346q-8 0 -8 -8l-70 -368q-2 -14 -43 -25t-65 -11t-32 6t-6 12l72 384q0 10 -8 10h-350q-8 0 -8 36t48 92h342q8 0 8 8q12 58 32 177t34 191q4 18 54 27z" />
    <glyph glyph-name="comma" unicode="," horiz-adv-x="490" 
d="M10 -276q0 4 44 39t88 95t44 128q0 24 -14 73t-14 69q0 58 51 96t105 38t70 -10q6 -36 6 -56q0 -96 -42 -180q-74 -202 -304 -348q-10 4 -22 23t-12 33z" />
    <glyph glyph-name="hyphen" unicode="-" horiz-adv-x="654" 
d="M574 529q0 -23 -18 -68t-32 -47l-452 -22q-10 0 -10 25t16 67t30 44l452 24q14 0 14 -23z" />
    <glyph glyph-name="period" unicode="." horiz-adv-x="392" 
d="M145 -24q-51 0 -80 36t-23 91t50 97t95 42t80 -34t23 -88t-50 -99t-95 -45z" />
    <glyph glyph-name="slash" unicode="/" horiz-adv-x="970" 
d="M31 -68q-33 0 -45 12l850 1534q24 44 81 44t69 -12l-848 -1534q-6 -12 -40 -28t-67 -16z" />
    <glyph glyph-name="zero" unicode="0" horiz-adv-x="976" 
d="M620 1250q154 0 241 -154t61 -382q-26 -278 -193 -499t-355 -221q-154 0 -243 155t-63 383q26 280 195 499t357 219zM604 1164q-108 0 -205 -199t-121 -461q-24 -186 10 -304t106 -118q110 0 202 208t118 462q24 188 -6 300t-104 112z" />
    <glyph glyph-name="one" unicode="1" horiz-adv-x="572" 
d="M209 6q-61 0 -217 -12q-4 4 -4 32t18 28t61 16t55 37t38 141l128 646q12 60 12 93t-20 33q-28 0 -144 -60q-20 8 -20 30t8 30q414 254 427 254t13 -38q-32 -62 -56 -188l-152 -788q-16 -92 -16 -133t35 -57t59 -16q2 0 2 -20t-10 -40q-156 12 -217 12z" />
    <glyph glyph-name="two" unicode="2" horiz-adv-x="888" 
d="M496 1126q-68 0 -126 -37t-92 -73t-38 -36q-24 0 -24 32t8 40q66 80 183 152t223 72t168 -67t62 -175t-51 -217t-155 -224t-195 -199t-235 -204q-4 -4 -4 -13t8 -9h344q78 0 112 44q14 18 19 24t17 31t14 27q10 18 40 18t36 -14q-12 -30 -56 -134t-64 -164l-270 2
q-404 -2 -418 -2q-14 20 -14 33t4 33q616 598 644 862q0 22 2 20q2 -12 2 -26v38q0 74 -38 120t-106 46z" />
    <glyph glyph-name="three" unicode="3" horiz-adv-x="852" 
d="M626 1276q70 0 129 -59t30 -200q-5 -25 -16 -48t-19 -40t-26 -39t-26 -33q-13 -18 -64 -62t-58 -47q66 0 143 -82t63 -210q-20 -194 -194 -329t-388 -135q-80 0 -132 20t-70 48q-4 10 -4 47t27 65t64 28t91 -58t102 -58q122 0 201 91t91 225q12 102 -36 167t-128 65
q-50 0 -136 -14q-22 39 6 80q140 30 228 117t100 197q8 58 -27 95t-85 37t-106 -26t-92 -52t-44 -26q-16 0 -16 30t8 38q150 168 384 168z" />
    <glyph glyph-name="four" unicode="4" horiz-adv-x="888" 
d="M186 494q0 -10 8 -10h312q16 6 20 16l80 428q4 16 -4 16l-412 -436q-4 -4 -4 -14zM832 1288q16 0 23 -9t5 -19l-150 -760q-4 -16 14 -16h82q16 0 16 -40t-24 -88h-104q-10 0 -12 -12l-66 -340q-52 -12 -122 -12t-64 20l64 334q0 10 -12 10h-456q-16 16 -16 42t4 46
l768 810q34 34 50 34z" />
    <glyph glyph-name="five" unicode="5" horiz-adv-x="872" 
d="M627 1092q-131 0 -184 -3t-57 -17l-92 -270q98 14 164 14q138 0 238 -107t86 -245q-22 -192 -182 -332t-398 -140q-80 0 -132 20t-70 48q-4 10 -4 47t28 65t64 28t89 -58t101 -58q132 0 204 83t84 203t-44 200t-148 80q-58 0 -126 -10l-70 -10q-12 0 -24 28q8 20 103 313
t105 293q432 0 484 12q10 -18 4 -48q-8 -78 -46 -136h-177z" />
    <glyph glyph-name="six" unicode="6" horiz-adv-x="886" 
d="M320 684q-84 -198 -84 -401t139 -203q75 0 142 106t67 265t-116 171q-56 12 -80 10q-12 6 -12 32t53 48t95 22q112 0 186 -83t74 -205q0 -172 -140 -315t-304 -143q-134 0 -217 95t-83 253t106 352q60 110 149 213t233 204t324 173q28 -8 28 -54q-404 -172 -560 -540z
" />
    <glyph glyph-name="seven" unicode="7" horiz-adv-x="938" 
d="M948 1226q0 -30 -80 -142l-788 -1104q-6 -2 -22 -2t-31 15t-15 33t8 30l726 1000l-484 -2q-35 0 -54 -17q-18 -17 -28 -26t-20 -27t-24 -40t-14 -32h-20q-26 0 -36 12q16 50 54 149t46 128t42 29h606l122 6q12 0 12 -10z" />
    <glyph glyph-name="eight" unicode="8" horiz-adv-x="876" 
d="M563 1266q137 0 216 -61t79 -169q0 -214 -264 -360q-4 0 -4 -3t2 -5t27 -25q143 -132 143 -268q0 -137 -134 -262t-308 -125q-128 0 -212 70t-84 183t53 198t109 126t120 71q10 4 4 10t-31 32t-42 49t-34 69t-17 96q0 160 120 267t257 107zM564 1176q-84 0 -133 -85
t-49 -169t118 -176q14 -10 20 -10t14 8q80 76 107 144t27 141q0 147 -104 147zM345 74q59 0 104 30t65 75q38 86 38 129q0 44 -5 66t-16 43t-19 36t-28 34t-28 27t-32 28t-32 28t-14 8t-12 -6q-64 -34 -104 -136t-40 -186t32 -130t91 -46z" />
    <glyph glyph-name="nine" unicode="9" horiz-adv-x="870" 
d="M516 602q0 -26 -54 -48t-96 -22q-114 0 -187 83t-73 205q0 172 140 316t304 144q132 0 216 -96t84 -254t-106 -352q-60 -110 -149 -213t-233 -204t-324 -173q-28 8 -28 56q404 172 560 538q84 198 84 402t-128 204q-84 0 -152 -107t-68 -266t118 -171q56 -12 78 -10
q14 -6 14 -32z" />
    <glyph glyph-name="colon" unicode=":" horiz-adv-x="436" 
d="M20 94q0 54 48 104t99 50t78 -31t27 -85t-47 -105t-97 -51t-79 32t-29 86zM138 711q0 55 49 104t100 49t78 -30t27 -84t-47 -106t-98 -52t-80 32t-29 87z" />
    <glyph glyph-name="semicolon" unicode=";" horiz-adv-x="348" 
d="M66 142q-16 0 -7 14t-3 18t-12 12q0 12 18 56t26 98q4 58 15 87t41 65q2 0 12 6q-5 -6 -10 -14q-34 -32 -42 -76t20 -64q40 -12 92 26q2 8 11 27t13 30q2 -9 14 -31t-7 -33t-16 -42t-15 -31q-22 -22 -39 -53t-39 -52t-70 -43h-2zM156 498q38 45 86 28q-40 3 -86 -28z
M242 526q14 0 34 -10q6 -28 -4 -51t-28 -29q2 8 8 22q23 57 0 64zM240 427q0 7 4 9q-2 -4 -4 -9z" />
    <glyph glyph-name="less" unicode="&#x3c;" horiz-adv-x="866" 
d="M722 76q0 -12 -22 -58t-28 -46t-10 2l-624 380q-26 16 -20 62t46 66l774 378q12 0 12 -58t-10 -64l-662 -320l540 -326q4 -4 4 -16z" />
    <glyph glyph-name="equal" unicode="=" horiz-adv-x="1042" 
d="M960 638q14 0 14 -26t-17 -61t-31 -41h-806q-14 0 -14 26t17 61t31 41h806zM906 356q14 0 14 -26t-17 -61t-31 -41h-806q-14 0 -14 26t17 61t31 41h806z" />
    <glyph glyph-name="greater" unicode="&#x3e;" horiz-adv-x="876" 
d="M0 78q0 10 8 14h2l668 326l-538 320l-2 14q10 34 28 71t24 37l626 -378q28 -14 24 -44q-12 -64 -50 -84l-768 -380q-8 -4 -12 -4q-10 0 -10 108z" />
    <glyph glyph-name="question" unicode="?" horiz-adv-x="654" 
d="M328 410q0 -20 -22 -34q-48 0 -131 65t-83 139q0 120 110 186l220 130q104 56 104 134q0 50 -28 82t-73 32t-85 -46t-78 -46t-61 41t-13 93q48 90 164 90t207 -81t91 -193q0 -164 -118 -238q-82 -56 -220 -132q-72 -40 -72 -100q0 -36 44 -76t44 -46zM22 91q0 55 45 103
t95 48t80 -30t30 -84t-48 -103t-97 -49t-77 30t-28 85z" />
    <glyph glyph-name="at" unicode="@" horiz-adv-x="1496" 
d="M576 106q66 0 160 99t106 147l86 292q14 50 2 58t-26 10q-108 26 -224 -91t-158 -335q-36 -180 54 -180zM954 1156q176 0 297 -108t161 -264t8 -318q-52 -262 -176 -377t-258 -115q-92 0 -143 60t-37 126q0 6 -10 -4q-36 -52 -128 -111t-179 -59t-125 91t-16 205
q42 214 215 376t409 162l172 -18q-22 -62 -34 -106l-124 -428q-60 -206 36 -206q66 0 120 40t99 127t67 199q50 260 -56 440t-350 180t-454 -171t-260 -431q-60 -316 62 -507t454 -191q64 0 134 26v-18q-6 -34 -62 -62t-150 -34q-156 -2 -281 61t-196 165t-98 230t-3 254
q70 360 327 573t579 213z" />
    <glyph glyph-name="A" unicode="A" horiz-adv-x="1296" 
d="M657 570q71 0 157 6q8 0 8 8q-6 40 -34 206t-32 194l-230 -404v-4q60 -6 131 -6zM193 6q-57 0 -213 -12q-4 8 -4 34t12 26q22 0 75 20t75 48t94 150l554 948q62 108 104 108q12 0 20 -8l188 -1048q6 -32 28 -146q6 -30 47 -51t61 -21q4 0 4 -22t-8 -38q-222 12 -236 12
t-242 -12q-2 2 -2 31t12 29q20 0 60 15t50 31q12 24 12 51t-40 295q0 10 -23 13t-136 3t-227 -6q-8 0 -15 -13t-90 -146t-83 -171t48 -55t72 -17q4 0 4 -18t-12 -42q-132 12 -189 12z" />
    <glyph glyph-name="B" unicode="B" horiz-adv-x="1120" 
d="M874 1046q0 176 -176 176q-126 0 -134 -30l-84 -420q-6 -28 104 -28q290 0 290 302zM1100 1046q0 -177 -177 -302q-27 -19 -61 -36q56 -10 119 -84t63 -182q0 -182 -153 -312t-395 -130h-140q-138 2 -161 2t-207 -8q-4 4 -4 32t12 28q22 0 69 16t57 34q28 54 52 180
l146 752q20 108 20 170q0 18 -52 37t-56 21t-4 23t16 37q112 -10 236 -10l276 4q132 0 238 -67t106 -205zM814 434q0 212 -232 212q-128 0 -134 -30l-82 -424q-6 -30 -6 -55t27 -33t115 -8t146 27t112 109t54 202z" />
    <glyph glyph-name="C" unicode="C" horiz-adv-x="1220" 
d="M798 1334q180 0 430 -74q0 -12 -14 -134t-18 -138q-6 -30 -50 -30q-18 0 -26 6q-4 81 -52 160q-30 50 -100 81t-172 31q-200 0 -355 -218t-155 -512q0 -186 89 -304t257 -118q238 0 350 138q34 42 50 70t18 28q8 0 27 -12t21 -24q-2 -4 -36 -95t-52 -109
q-44 -42 -162 -67t-250 -25q-250 0 -399 157t-149 368t107 399t284 305t357 117z" />
    <glyph glyph-name="D" unicode="D" horiz-adv-x="1372" 
d="M789 1216q-181 0 -211 -35t-46 -137l-148 -768q-26 -130 -8 -148q26 -32 224 -32t332 183t164 475q22 200 -52 331t-255 131zM-16 26q0 28 14 28q20 0 69 17t57 33q28 60 48 172l148 760q24 122 20 170q-2 16 -45 37t-63 21q-2 0 -2 24t12 36q114 -8 238 -8h326
q262 0 396 -144t134 -364q0 -136 -53 -277t-149 -262t-250 -198t-338 -77l-316 10l-242 -10q-4 4 -4 32z" />
    <glyph glyph-name="E" unicode="E" horiz-adv-x="1088" 
d="M-16 26q0 28 14 28q20 0 69 17t57 33q28 60 48 172l148 760q24 122 20 170q-2 16 -45 37t-63 21q-2 0 -2 24t12 36q203 -14 474 -5q270 9 360 9q-4 -44 -4 -130l2 -154q-10 -10 -37 -10t-27 14q-24 178 -210 178h-90q-130 0 -138 -26q-32 -90 -40 -144l-60 -330
q0 -14 76 -14h124q90 0 113 18t65 114q6 16 31 16t33 -12l-72 -380q-8 -8 -34 -8t-28 16q-4 94 -26 115t-164 21t-146 -16l-58 -304q-18 -86 -18 -132t17 -54t103 -8h70q146 0 230 42q32 16 80 69t84 123q6 12 37 12t39 -12q-148 -286 -166 -338l-632 10l-242 -10
q-4 4 -4 32z" />
    <glyph glyph-name="F" unicode="F" horiz-adv-x="1064" 
d="M544 712h124q90 0 114 18t66 114q6 16 31 16t33 -12l-74 -380q-8 -8 -34 -8t-28 16q-4 96 -25 116t-164 20t-147 -16l-62 -328q-16 -88 -16 -146q0 -28 45 -48t101 -20q4 0 4 -25t-12 -37q-260 14 -270 14l-242 -12q-4 4 -4 32t14 28q20 0 69 17t57 33q28 60 48 172
l148 760q24 122 20 170q-2 16 -45 37t-63 21q-2 0 -2 24t12 36q202 -14 471 -5t359 9q-4 -44 -4 -130l4 -154q-10 -10 -37 -10t-27 14q-24 178 -212 178h-88q-132 0 -140 -26q-28 -80 -38 -144l-62 -330q0 -14 76 -14z" />
    <glyph glyph-name="G" unicode="G" horiz-adv-x="1290" 
d="M800 1334q182 0 432 -74q-6 -44 -18 -162t-15 -134t-35 -16t-44 12q0 62 -25 116t-57 84t-94 53t-155 23t-182 -56t-146 -140t-98 -185q-77 -190 -77 -353q0 -164 89 -291t255 -127q136 0 198 46q16 12 20 38q52 266 52 320q0 24 -56 39t-82 15q-4 0 -4 23t14 37
q230 -10 267 -10t227 10q0 -60 -14 -60q-54 0 -112 -34q-28 -18 -34 -48q-38 -215 -38 -256v-54q0 -38 -68 -68t-106 -44t-141 -34t-223 -20q-210 0 -344 161t-134 373t105 398t283 302t360 116z" />
    <glyph glyph-name="H" unicode="H" horiz-adv-x="1418" 
d="M-16 26q0 28 12 28q24 0 69 13t55 31q32 62 52 178l148 764q20 104 20 164q0 26 -40 43t-64 17q-4 0 -4 23t14 37q210 -10 244 -10t224 10v-8q0 -52 -15 -52t-64 -17t-57 -31q-32 -70 -50 -178l-54 -286v-2q0 -14 252 -14t254 12l56 292q20 104 20 168q0 28 -38 42
t-66 14q-4 0 -4 22t16 38q210 -10 244 -10t224 10v-10q0 -50 -14 -50t-63 -17t-57 -31q-26 -58 -50 -178l-148 -760q-24 -114 -24 -170q0 -22 43 -38t61 -16q4 0 4 -18t-14 -42q-222 12 -230 12l-236 -12q-4 4 -4 32t12 28q22 0 68 14t56 32q32 64 52 176l64 336l2 2
q0 14 -204 14t-253 -3t-51 -17l-64 -330q-22 -122 -22 -170q0 -22 43 -38t61 -16q4 0 4 -18t-14 -42q-222 12 -230 12l-236 -12q-4 4 -4 32z" />
    <glyph glyph-name="I" unicode="I" horiz-adv-x="700" 
d="M-16 26q0 28 12 28q24 0 69 13t55 31q32 62 52 178l148 764q20 104 20 164q0 26 -40 43t-64 17q-4 0 -4 23t14 37q210 -10 244 -10t224 10v-8q0 -52 -15 -52t-64 -17t-57 -31q-20 -44 -50 -178l-146 -760q-22 -122 -22 -170q0 -22 43 -38t61 -16q4 0 4 -18t-14 -42
q-222 12 -230 12l-236 -12q-4 4 -4 32z" />
    <glyph glyph-name="J" unicode="J" horiz-adv-x="862" 
d="M500 1204q0 26 -40 43t-64 17q-4 0 -4 22t16 38q210 -10 244 -10t224 10v-8q0 -14 -5 -33t-11 -19q-16 0 -64 -17t-56 -31q-24 -54 -52 -178l-156 -814q-24 -130 -79 -241t-113 -181q-140 -169 -338 -254q-26 10 -26 37t4 35q266 204 336 568l164 852q20 104 20 164z" />
    <glyph glyph-name="K" unicode="K" horiz-adv-x="1382" 
d="M1046 1232q0 32 -98 32q-10 0 -10 22t10 38q136 -8 216 -8t232 8q0 -60 -16 -60q-150 -16 -216 -84l-460 -470q-14 -14 -14 -28t10 -30l358 -468q48 -66 112 -96t110 -30q4 0 4 -17t-12 -41q-36 -6 -134 -6q-214 0 -298 126l-384 540q160 102 548 508q42 42 42 64z
M-16 26q0 28 12 28q24 0 69 13t55 31q32 62 52 178l148 764q20 104 20 164q0 26 -40 43t-64 17q-4 0 -4 23t14 37q210 -10 244 -10t224 10v-8q0 -52 -15 -52t-64 -17t-57 -31q-20 -44 -50 -178l-146 -760q-22 -122 -22 -170q0 -22 43 -38t61 -16q4 0 4 -18t-14 -42
q-222 12 -228 12l-238 -12q-4 4 -4 32z" />
    <glyph glyph-name="L" unicode="L" horiz-adv-x="1056" 
d="M-16 26q0 28 14 28q20 0 69 17t57 33q28 60 48 172l148 760q24 122 20 170q-2 16 -45 37t-63 21q-2 0 -2 24t12 36q146 -8 234 -8t240 8v-8q0 -14 -5 -33t-11 -19q-16 0 -64 -17t-56 -31q-36 -78 -52 -178l-146 -760q-16 -74 -16 -119t18 -53t104 -8h70q146 0 230 42
q32 16 80 69t84 123q6 12 37 12t39 -12q-148 -286 -166 -338l-632 10l-242 -10q-4 4 -4 32z" />
    <glyph glyph-name="M" unicode="M" horiz-adv-x="1712" 
d="M1100 27q0 27 12 27q22 0 72 14t60 32q24 40 40 176l68 652q4 40 4 72t-6 32t-12 -10l-494 -960q-10 -18 -37 -42t-43 -24t-24 4l-176 1050q-2 8 -4 8t-6 -8q-246 -888 -246 -926q0 -28 65 -49t87 -21q4 0 4 -18t-12 -42q-184 10 -218 10t-248 -10q-4 8 -4 34t14 26
q28 0 95 22t84 49t41 113l232 860q20 80 20 112q0 24 -52 39t-82 15q-2 0 -2 24t14 36q168 -8 205 -8t189 8q8 -78 152 -932h2q6 0 6 4q302 586 346 676l112 250q48 -6 131 -6t235 8q0 -60 -16 -60q-64 0 -94 -40t-48 -180q-76 -696 -84 -783t-8 -137q0 -62 106 -70
q4 0 4 -20t-14 -40q-222 12 -226 12l-240 -12q-4 6 -4 33z" />
    <glyph glyph-name="N" unicode="N" horiz-adv-x="1526" 
d="M507 1316q85 0 165 8q23 -99 92 -241q70 -141 89 -181t56 -113t55 -109t59 -116t55 -110q10 26 20 82l96 500q20 116 20 148t-61 56t-91 24q-4 0 -4 25t14 35q168 -8 242 -8t226 8q0 -60 -14 -60q-22 0 -83 -19t-85 -45q-30 -46 -52 -164l-150 -760q-14 -66 -29 -170
t-17 -110q-8 -8 -33 -8t-53 44q-426 852 -522 1072l-164 -822q-20 -100 -20 -142t60 -64t88 -22q4 0 4 -18t-12 -42q-186 10 -220 10t-248 -10q-4 8 -4 17t5 26t9 17q30 0 93 18t83 48q22 38 50 168l152 764q16 80 16 150q0 28 -55 45t-85 17q-6 0 -6 25t14 35
q160 -8 245 -8z" />
    <glyph glyph-name="O" unicode="O" horiz-adv-x="1312" 
d="M809 1334q195 0 331 -151t136 -369t-106 -410t-279 -308t-374 -116t-333 152t-132 372t109 411t281 305t367 114zM748 1236q-188 0 -324 -219t-136 -513q0 -184 74 -304t215 -120t250 128t161 296t52 336t-73 282t-219 114z" />
    <glyph glyph-name="P" unicode="P" horiz-adv-x="1074" 
d="M1088 1014q0 -172 -134 -305t-322 -133q-94 0 -134 30q-4 8 -4 27t16 27q40 -4 56 -4q124 0 210 105t86 275q0 90 -46 143t-126 53q-132 0 -138 -44l-180 -920q-18 -96 -18 -134t47 -59t101 -21q4 0 4 -24t-12 -36q-222 12 -272 12t-242 -12q-4 8 -4 20t5 26t9 14
q28 0 71 11t53 35q18 36 48 176l158 800q14 70 14 124q0 26 -41 45t-61 19q-4 0 -4 24t16 36q210 -10 230 -10l264 10q182 0 289 -130q61 -74 61 -180z" />
    <glyph glyph-name="Q" unicode="Q" horiz-adv-x="1248" 
d="M814 1334q208 0 344 -151t136 -368t-107 -409t-275 -308q-68 -46 -174 -94t-200 -66q64 -10 184 -57t247 -88t216 -41t169 38t122 74q48 -16 48 -44q-40 -52 -168 -129t-244 -77q-202 0 -455 106t-501 172q0 8 14 29t26 25l266 42q-178 30 -284 176t-106 352
q0 156 65 307t168 263t239 180t270 68zM779 1236q-135 0 -242 -101t-168 -269t-61 -357t73 -309t219 -120q104 0 194 74t146 189q118 242 118 487q0 178 -72 292t-207 114z" />
    <glyph glyph-name="R" unicode="R" horiz-adv-x="1242" 
d="M614 700q96 0 173 101t77 243q0 90 -46 136t-129 46t-109 -10t-32 -40l-80 -420l-2 -8q0 -48 148 -48zM-24 14q0 12 5 26t9 14q28 0 71 11t53 35q18 36 48 176l158 800q14 70 14 124q0 26 -41 45t-61 19q-4 0 -4 24t16 36q210 -10 230 -10l260 10q186 0 295 -119
q63 -69 63 -184t-91 -226t-195 -149q-16 -6 -8 -26q84 -262 244 -456q40 -48 93 -77t95 -31q0 -28 -18 -60l-90 -4q-146 0 -228 70t-170 238l-130 272q-18 32 -79 32t-71 -8t-14 -24l-56 -294q-20 -110 -20 -170q0 -22 42 -38t60 -16q4 0 4 -18t-14 -42l-202 12
q-72 0 -264 -12q-4 8 -4 20z" />
    <glyph glyph-name="S" unicode="S" horiz-adv-x="910" 
d="M69 374q33 0 51 -18q0 -98 58 -186t174 -88t186 84t70 167t-85 160q-85 76 -139 109q-168 131 -200 214q-16 42 -16 92q0 184 143 306t317 122q60 0 152 -23t128 -29q-36 -328 -50 -328q-62 0 -62 36q0 86 -55 165t-150 79t-153 -71t-58 -151q0 -104 156 -226
q20 -16 98 -72t106 -82t60 -84t32 -124q0 -178 -144 -310t-336 -132q-116 0 -324 50q10 160 10 170l-2 154q0 16 33 16z" />
    <glyph glyph-name="T" unicode="T" horiz-adv-x="1152" 
d="M124 25q0 29 14 29q22 0 67 13t55 31q28 56 50 178l140 718q26 126 26 161t-8 45q-18 22 -138 22t-171 -38t-99 -148q-6 -12 -30 -12t-34 16l94 304q70 -20 124 -20l404 -14l412 14q52 0 132 20l-24 -306q-18 -14 -43 -14t-25 10q-2 108 -43 148t-125 40q-172 0 -188 -34
q-24 -52 -52 -188l-140 -722q-20 -110 -20 -170q0 -22 41 -38t59 -16q4 0 4 -20t-12 -40q-222 12 -232 12l-236 -12q-2 2 -2 31z" />
    <glyph glyph-name="U" unicode="U" horiz-adv-x="1334" 
d="M200 1204q0 26 -40 43t-62 17q-2 0 -2 24t12 36q210 -10 244 -10t224 10v-8q0 -52 -15 -52t-64 -17t-57 -31q-12 -28 -48 -178l-88 -444q-20 -104 -20 -190q0 -280 244 -280q152 0 253 90t147 330l92 484q28 142 26 184q-2 24 -60 38t-90 14q-2 0 -2 23t14 37
q168 -8 229 -8t213 8q0 -60 -14 -60q-20 0 -85 -14t-73 -26q-16 -34 -50 -196l-92 -476q-60 -314 -201 -435t-375 -121q-180 0 -284 103t-104 307q0 76 24 202l84 432q20 104 20 164z" />
    <glyph glyph-name="V" unicode="V" horiz-adv-x="1198" 
d="M396 1310q56 0 236 10q2 -4 2 -14t-5 -30t-11 -20q-50 0 -87 -18t-40 -47t11 -107l138 -748l436 740q38 66 44 116q2 28 -32 46t-82 18q-4 0 -4 24t14 40q164 -8 194 -8t214 8q2 -10 -2 -37t-12 -27q-38 0 -91 -24t-87 -84l-652 -1102q-42 -70 -84 -70q-20 0 -28 20
l-192 1064q-4 22 -30 138q-8 28 -48 43t-64 15q-6 0 -6 24t16 40q196 -10 252 -10z" />
    <glyph glyph-name="W" unicode="W" horiz-adv-x="1988" 
d="M602 1312q0 -56 -14 -56q-36 0 -67 -18t-33 -44t10 -78l230 -812q10 8 98 134t114 168l-134 482q-26 92 -42 115t-46 38t-54 15q-4 0 -2 28t14 36l234 -12q68 0 224 12v-8q0 -16 -5 -36t-11 -20q-38 0 -67 -19t-32 -45t11 -72l76 -278l148 234q50 82 53 110t-29 49
t-78 21q-4 0 -4 26t14 38q174 -12 210 -12q56 0 147 7l65 5q2 -18 -3 -41t-11 -23q-30 0 -79 -21t-67 -41q-52 -52 -140 -186l-192 -292q110 -394 120 -412q2 0 208 339t270 435q48 80 50 107t-29 49t-77 22q-4 0 -4 26t16 38q174 -12 214 -12t208 12q0 -64 -14 -64
q-32 0 -79 -20t-65 -40q-64 -62 -142 -188l-606 -970q-20 -32 -43 -48t-37 -16t-18 10l-138 494l-298 -440q-44 -64 -80 -64q-10 0 -16 10l-290 1052q-32 114 -62 174q-12 20 -46 33t-54 13q-6 0 -3 28t13 36l228 -12q8 0 236 12v-8z" />
    <glyph glyph-name="X" unicode="X" horiz-adv-x="1418" 
d="M832 1308q0 -16 -5 -34t-11 -18q-30 0 -72 -15q-65 -23 -36 -93q144 -336 146 -336q6 12 60 66t92 96q88 97 132 149t45 75q1 22 -38 40t-83 18q-4 0 -4 26t16 38q204 -12 260 -12t200 12v-10q0 -16 -5 -35t-9 -19q-26 0 -91 -18t-97 -52l-436 -474q222 -528 247 -570
t79 -64t80 -22q2 0 0 -24t-8 -40q-204 12 -252 12t-276 -12q-2 4 -2 18t5 30t11 16q24 0 67 18t45 42q4 16 -2 30l-174 414q-72 -78 -219 -248t-150 -198t36 -43t83 -15q6 0 4 -26t-10 -38q-112 8 -220 8t-240 -8q-4 12 -2 38t12 26q28 0 89 17t89 47q482 546 482 548
l-162 388q-57 132 -83 155q-25 23 -59 34t-52 11q-4 0 -4 26t16 38l248 -12q30 0 258 12v-12z" />
    <glyph glyph-name="Y" unicode="Y" horiz-adv-x="1184" 
d="M652 1306q0 -16 -5 -33t-11 -17q-28 0 -71 -16t-45 -48q-2 -18 6 -44l134 -390q66 88 128 168t127 167t66 110t-34 38t-83 15q-4 0 -4 26t14 38q186 -12 210 -12t220 12q2 -10 0 -37t-14 -27q-26 0 -79 -18t-83 -48q-40 -44 -242 -311t-206 -291l-60 -304
q-20 -106 -20 -176q2 -20 47 -36t59 -16q6 0 3 -24t-11 -40q-4 2 -94 8t-168 6t-218 -14q-4 6 -1 35t13 29q22 0 72 16t58 32q26 48 48 172l60 312q4 18 -116 376l-40 118q-34 106 -76 138q-18 12 -51 24t-51 12q-4 0 -4 26t16 38l248 -12q30 0 258 12v-14z" />
    <glyph glyph-name="Z" unicode="Z" horiz-adv-x="1162" 
d="M257 960q-13 0 -17 2q9 86 36 190q17 25 29 75q11 51 27 101q18 -6 138 -11t161 -5h205q132 0 408 20q6 -2 8 -29t-1 -36q-7 -22 -677 -835l-226 -274q-16 -20 -16 -32q-2 -18 20 -18h358q216 0 322 218q6 14 40 14t44 -12q-105 -223 -142 -328h-942q-10 18 -8 45t16 41
l916 1122h-200q-114 -2 -199 -35t-113 -81q-81 -4 -121 -59q-15 -21 -43 -71q-10 -2 -23 -2z" />
    <glyph glyph-name="bracketleft" unicode="[" horiz-adv-x="702" 
d="M352 1510q168 0 368 32q8 0 8 -16t-11 -38t-32 -33t-86 -25t-117 -14q-18 0 -18 -18l-290 -1498q0 -16 10 -16q90 0 190 -50q12 -6 13 -27t-6 -38t-13 -17q-210 36 -350 36q-26 0 -26 34v12l316 1630q0 15 14 31q14 15 30 15z" />
    <glyph glyph-name="backslash" unicode="\" horiz-adv-x="452" 
d="M70 1522q84 0 92 -44l252 -1452l2 -14q0 -40 -21 -64t-45 -26l-46 4l-274 1584q24 12 40 12z" />
    <glyph glyph-name="bracketright" unicode="]" horiz-adv-x="702" 
d="M680 1510q26 0 26 -34v-12l-316 -1630q0 -15 -14 -31q-14 -15 -30 -15q-142 0 -364 -36q-8 0 -8 35t32 47q118 50 210 50q16 0 16 16l292 1498q0 18 -12 18q-52 0 -111 14t-75 24t-19 31t3 39t14 18q192 -32 356 -32z" />
    <glyph glyph-name="asciicircum" unicode="^" horiz-adv-x="682" 
d="M426 1380q12 0 18 -13t24 -70t41 -102t52 -87t52 -73t23 -35q-18 -56 -34 -56q-26 0 -101 83t-115 153q-68 -78 -174 -157t-128 -79q-14 0 -14 54q4 6 56 50t129 126t114 143t41 62t16 1z" />
    <glyph glyph-name="underscore" unicode="_" horiz-adv-x="1062" 
d="M116 30h832q8 0 8 -18t-18 -59t-26 -41h-832l-12 16q0 10 17 56t31 46z" />
    <glyph glyph-name="grave" unicode="`" horiz-adv-x="400" 
d="M76 1312q0 20 22 40t69 20t59 -16q40 -63 80 -166q40 -104 40 -111t-11 -19t-21 -12q-22 0 -130 105t-108 159z" />
    <glyph glyph-name="a" unicode="a" horiz-adv-x="900" 
d="M574 774q-114 0 -209 -173t-95 -327t82 -154q68 0 145 144t107 298l38 192q-18 20 -68 20zM674 884q98 0 166 -36l-118 -614q-6 -18 -6 -58t20 -40t54 27t55 49t31 32q4 0 18 -19t14 -27q-22 -48 -125 -130t-175 -82q-38 0 -63 29t-25 67t16 118q-34 -60 -82 -114
q-87 -98 -178 -98q-90 0 -147 80t-57 211t83 273t225 237t294 95z" />
    <glyph glyph-name="b" unicode="b" horiz-adv-x="802" 
d="M548 744q-64 0 -151 -142t-113 -278q-22 -96 -3 -169t79 -73q102 0 182 165t80 331t-74 166zM628 884q92 0 141 -73t49 -203q0 -258 -169 -441t-349 -183q-86 0 -150 62t-64 166q0 38 10 88l156 804q20 88 20 112q0 40 -112 40q-4 0 -4 20t16 36q62 4 153 27t139 41
q14 -8 14 -36t-30 -168l-104 -528q66 108 143 172t141 64z" />
    <glyph glyph-name="c" unicode="c" horiz-adv-x="696" 
d="M531 884q115 0 197 -80q8 -32 8 -64t-22 -62t-54 -30t-52 22t-29 48t-28 48t-47 22q-52 0 -108 -65t-94 -173t-38 -218q0 -208 128 -208q44 0 92 28t69 49l35 35q4 0 18 -19t14 -27q-26 -52 -121 -127t-183 -75q-126 0 -189 84t-63 225t67 277t176 223t224 87z" />
    <glyph glyph-name="d" unicode="d" horiz-adv-x="928" 
d="M582 774q-80 0 -153 -87t-113 -202t-40 -211q0 -154 82 -154q68 0 144 142t108 302l26 136q6 32 -10 53t-44 21zM78 278q0 130 79 270t215 235t282 99h16l2 2l48 240q12 68 12 92q0 40 -110 40q-6 0 -6 20t16 36q62 4 155 27t139 41q16 -8 16 -29t-6 -51t-15 -69t-11 -55
l-182 -942q-6 -18 -6 -58t20 -40t54 27t55 49t31 32q4 0 18 -19t14 -27q-24 -48 -126 -130t-174 -82q-38 0 -63 29t-25 68t16 119q-128 -214 -250 -214q-102 0 -158 80t-56 210z" />
    <glyph glyph-name="e" unicode="e" horiz-adv-x="712" 
d="M564 709q0 79 -48 79q-72 0 -149 -121t-77 -211q0 -8 8 -8q82 0 174 91t92 170zM528 884q104 0 163 -49t59 -131t-95 -168t-203 -130t-172 -44q-8 0 -8 -46q0 -192 128 -192q44 0 92 28t69 49l35 35q4 0 18 -19t14 -27q-26 -52 -121 -127t-183 -75q-124 0 -188 83
t-64 225t67 277t176 223t213 88z" />
    <glyph glyph-name="f" unicode="f" horiz-adv-x="946" 
d="M962 1394q128 0 176 -66q0 -166 -96 -166q-46 0 -78 70q-12 26 -33 47t-45 21q-64 0 -130 -122t-104 -330v-4q0 -8 6 -8h230q16 0 16 -32t-26 -72h-236q-12 0 -14 -16l-114 -602q-28 -148 -82 -262t-122 -177q-133 -123 -274 -123q-70 0 -116 25t-54 55q-2 62 23 103
t69 41t73 -66t74 -66q82 0 138 138q47 115 67 234l132 700v4q0 12 -6 12h-124q-8 0 -8 16t35 52t71 36h46q10 0 14 26q42 238 180 385t312 147z" />
    <glyph glyph-name="g" unicode="g" horiz-adv-x="898" 
d="M422 189q-42 -23 -42 -44t103 -48t163 -51t102 -68t42 -104q0 -130 -124 -228t-354 -98q-140 0 -231 57t-91 145q0 136 260 230q-20 4 -60 33t-40 68t70 85t146 72q-82 14 -140 82t-58 158q0 164 120 285t278 121q54 0 126 -26t142 -26h96q14 0 15 -32t-21 -60h-106
q-12 0 -12 -12l10 -104q0 -181 -131 -293q-27 -23 -55 -43q-32 -18 -99 -47t-109 -52zM524 786q-50 0 -90 -53q-78 -103 -78 -269q0 -64 26 -103t77 -39t91 53q76 101 76 249q0 68 -26 115t-76 47zM616 -216q0 98 -282 164q-126 -52 -154 -99q-16 -27 -16 -57
q0 -152 228 -152q106 0 165 42t59 102z" />
    <glyph glyph-name="h" unicode="h" horiz-adv-x="930" 
d="M698 884q136 0 136 -176q0 -72 -30 -216l-52 -258q-6 -18 -6 -58t20 -40t63 34t75 74q6 0 19 -19t13 -27q-22 -48 -124 -130t-176 -82q-36 0 -61 29t-25 75t18 132l56 284q18 92 18 112q0 84 -48 84q-36 0 -101 -81t-127 -205t-82 -232l-40 -184q-32 -10 -86 -10t-94 10
q222 1154 222 1162q6 50 -40 74q0 15 -30 21q-30 7 -34 7q-2 14 6 28q115 33 174 60q22 0 68 4t68 2q4 -15 -4 -60q-8 -44 -8 -48t-16 -86t-32 -170t-18 -98q14 28 2 -30q-38 -185 -54 -232q20 42 -2 -38l-16 -54q44 90 158 216t190 126z" />
    <glyph glyph-name="i" unicode="i" horiz-adv-x="560" 
d="M437 1332q47 0 74 -29t27 -79t-39 -94t-86 -44t-73 31t-26 81t38 92t85 42zM384 884q36 0 61 -29t25 -79t-16 -128l-82 -414q-4 -18 -4 -58t20 -40t54 27t55 49t31 32q4 0 18 -19t14 -27q-24 -48 -126 -130t-174 -82q-38 0 -63 29t-25 77t16 130l78 398q8 42 8 77t-22 35
t-64 -38t-62 -62q-4 0 -18 20t-14 28q22 46 121 125t169 79z" />
    <glyph glyph-name="j" unicode="j" horiz-adv-x="634" 
d="M547 1336q47 0 74 -31t27 -81t-40 -93t-87 -43t-72 30t-25 81t38 94t85 43zM480 884q38 0 62 -29t24 -78t-16 -129l-94 -484q-48 -250 -152 -390q-56 -76 -149 -141t-153 -85q-6 2 -14 23t-8 33q118 88 182 205t102 313l100 498q6 44 6 78t-22 34t-64 -38t-62 -62
q-4 0 -18 20t-14 28q22 46 122 125t168 79z" />
    <glyph glyph-name="k" unicode="k" horiz-adv-x="950" 
d="M624 764q-48 0 -111 -60t-104 -127t-41 -93q0 -12 23 -12t54 5t80 17t89 42t50 72q22 32 9 94t-49 62zM854 61q-76 -69 -142 -69t-102 27t-57 46t-45 51t-40 53t-38 59t-50 83t-40 77l-76 -388q-34 -12 -81 -12t-99 12l212 1104q20 88 20 112q0 40 -112 40q-4 0 -4 20
t16 36q62 4 153 27t139 41q14 -8 14 -27t-30 -177l-96 -508q31 52 83 106q105 110 225 110q76 0 135 -45t59 -115q0 -126 -113 -213t-257 -107q167 -282 242 -282q36 0 77 35t57 61q6 0 24 -18t18 -24q-16 -46 -92 -115z" />
    <glyph glyph-name="l" unicode="l" horiz-adv-x="476" 
d="M296 1216q0 40 -110 40q-6 0 -6 20t16 36q62 4 154 27t140 41q16 -8 16 -32t-30 -172l-184 -942q-4 -22 -4 -60t19 -38t53 27t55 49t31 32q4 0 18 -19t14 -27q-22 -48 -125 -130t-175 -82q-38 0 -62 29t-24 77t16 130l176 906q12 62 12 88z" />
    <glyph glyph-name="m" unicode="m" horiz-adv-x="1450" 
d="M756 884q148 0 148 -204q0 -22 -18 -122q60 108 163 217t171 109q144 0 144 -176q0 -72 -32 -216l-52 -258q-4 -18 -4 -58t19 -40t53 27t55 49t31 32q4 0 18 -19t14 -27q-22 -48 -125 -130t-175 -82q-38 0 -62 29t-24 75t16 132l58 284q18 82 18 118q0 78 -48 78
q-60 0 -167 -174t-137 -328l-40 -200q-52 -8 -97 -8t-87 8l104 526q14 68 14 96q0 80 -50 80q-38 0 -103 -86t-122 -207t-75 -217l-40 -192q-46 -10 -89 -10t-93 10l120 620q8 44 8 78t-22 34t-65 -38t-61 -62q-6 0 -19 20t-13 28q22 46 121 125t167 79q38 0 63 -29t25 -73
t-14 -124l-24 -118q62 114 161 229t167 115z" />
    <glyph glyph-name="n" unicode="n" horiz-adv-x="1004" 
d="M376 884q38 0 63 -29t25 -73t-8 -88t-10 -56t-7 -38t-11 -60q44 90 157 217t189 127q136 0 136 -176q0 -72 -30 -216l-52 -258q-6 -18 -6 -58t20 -40t63 34t75 74q6 0 19 -19t13 -27q-22 -48 -124 -130t-176 -82q-36 0 -61 29t-25 75t18 132l58 284q16 82 16 112
q0 84 -48 84q-36 0 -101 -81t-127 -205t-82 -232l-40 -184q-32 -10 -86 -10t-94 10l120 620q8 44 8 78t-22 34t-65 -38t-61 -62q-6 0 -19 20t-13 28q22 46 121 125t167 79z" />
    <glyph glyph-name="o" unicode="o" horiz-adv-x="804" 
d="M557 884q125 0 192 -85t67 -229t-66 -279t-173 -219t-233 -84t-193 84t-67 224t66 276t174 224t233 88zM515 790q-53 0 -110 -85t-89 -205t-31 -219q2 -197 99 -197q64 0 120 89t85 208t27 223q0 186 -101 186z" />
    <glyph glyph-name="p" unicode="p" horiz-adv-x="936" 
d="M882 799q54 -85 54 -199q0 -222 -175 -416t-337 -194q-48 0 -78 20l-52 -270q-6 -28 -6 -50q0 -50 36 -58q30 -8 84 -8q8 0 8 -24t-8 -38h-148q-124 -2 -268 -18q-8 4 -8 29t10 35q62 0 90 32q14 20 28 92l142 732l-86 -78q-16 22 -16 42t10 30q92 96 112 114l60 304
q44 10 92 10t90 -14q-24 -112 -26 -118q4 2 23 22t30 30q86 78 185 78q100 0 154 -85zM740 571q0 177 -96 177q-48 0 -96 -36t-82 -88l-80 -420q-22 -108 66 -108q64 0 132 74t112 192t44 209z" />
    <glyph glyph-name="q" unicode="q" horiz-adv-x="830" 
d="M684 884q104 0 176 -36l-164 -852q-2 -12 -25 -142t-23 -148t9 -32t41 -18q13 -48 52 -48q2 -12 -2 -24q-32 -18 -54 -22q-110 0 -234 -10q-132 6 -150 6q0 30 4 32l2 2q60 24 76 88q11 0 57 106q47 106 51 134q-4 -10 -6 10q-2 10 -6 44q-14 142 -38 142
q-62 -22 -103 -32t-89 -2t-76 46q-31 82 -78 66q-6 -2 -12 4t-6 66q0 146 85 290t225 237t288 93zM578 774q-70 0 -141 -81t-112 -194t-41 -211q0 -166 80 -166q66 0 146 135t106 263l46 232q-14 22 -84 22z" />
    <glyph glyph-name="r" unicode="r" horiz-adv-x="810" 
d="M384 884q38 0 62 -29t24 -80t-17 -141t-19 -94q56 128 146 236t167 108t127 -72q0 -166 -98 -166q-24 0 -54 35t-61 35t-93 -82t-120 -207t-80 -233l-36 -194q-44 -8 -91 -8t-93 8l120 620q6 44 6 78t-22 34t-64 -38t-62 -62q-4 0 -18 20t-14 28q22 46 122 125t168 79z
" />
    <glyph glyph-name="s" unicode="s" horiz-adv-x="644" 
d="M416 794q-80 0 -80 -85t123 -224q47 -53 86 -122t39 -127q0 -110 -90 -180t-216 -70t-196 70q-14 20 -14 59t21 70t51 31t53 -22t37 -47t41 -46t64 -21t59 24t22 72t-62 129t-124 170t-62 174t90 162t214 77t192 -68q16 -24 16 -64t-21 -69t-58 -29t-83 68t-102 68z" />
    <glyph glyph-name="t" unicode="t" horiz-adv-x="554" 
d="M444 1092q30 0 50 -4l-50 -240h180q14 0 14 -33t-22 -67h-190l-100 -514q-6 -18 -6 -58t20 -40t54 27t55 49t31 32q4 0 18 -19t14 -27q-22 -48 -125 -130t-175 -82q-38 0 -63 29t-25 77t18 130l102 526h-128q-6 0 -6 22t9 46t17 32h128l44 220q4 24 136 24z" />
    <glyph glyph-name="u" unicode="u" horiz-adv-x="984" 
d="M366 884q38 0 62 -29t24 -83t-16 -124l-58 -284q-16 -86 -16 -112q0 -84 48 -84q34 0 98 81t123 205t81 234l38 182q34 10 87 10t93 -10l-122 -636q-4 -22 -4 -60t19 -38t53 27t55 49t31 32q4 0 18 -19t14 -27q-22 -48 -125 -130t-175 -82q-38 0 -62 29t-24 71t8 88
t10 58t7 38t11 60q-72 -144 -211 -274q-75 -70 -127 -70q-136 0 -136 174q0 74 30 216l48 244q8 36 8 74t-22 38t-64 -38t-62 -62q-4 0 -18 20t-14 28q22 46 122 125t168 79z" />
    <glyph glyph-name="v" unicode="v" horiz-adv-x="858" 
d="M368 884q38 0 63 -29t25 -79t-14 -118l-62 -316q-12 -60 -12 -100q0 -92 68 -92q58 0 132 76t127 183t53 171t-32 114t-32 91t33 70t78 29t71 -20q24 -40 24 -142t-59 -242t-143 -244t-177 -172t-166 -68t-121 49t-48 117t8 110l68 348q8 32 8 72t-22 40t-64 -38t-62 -62
q-4 0 -18 20t-14 28q22 46 121 125t167 79z" />
    <glyph glyph-name="w" unicode="w" horiz-adv-x="1318" 
d="M368 884q38 0 63 -29t25 -79t-14 -118l-62 -316q-12 -60 -12 -100q0 -92 68 -92q48 0 104 45t104 125q36 316 68 440t104 124q94 0 94 -121t-78 -371q-10 -64 -10 -123t14 -89t63 -30t121 76t122 182t50 170t-34 117t-34 94t34 68t80 27t70 -20q24 -40 24 -116
q0 -170 -94 -350t-218 -291t-209 -111t-133 47t-50 131q-158 -178 -280 -178q-76 0 -124 49t-48 117t8 110l68 348q8 32 8 72t-22 40t-64 -38t-62 -62q-4 0 -18 20t-14 28q22 46 121 125t167 79z" />
    <glyph glyph-name="x" unicode="x" horiz-adv-x="978" 
d="M432 884q74 0 122 -164l36 -124l102 168q72 120 178 120q74 0 130 -38q14 -28 14 -60t-24 -60t-58 -28t-66 25t-61 25t-53 -44l-128 -222l82 -282q20 -60 50 -60t73 36t57 60q6 0 20 -18t14 -26q-14 -44 -108 -123t-169 -79t-123 166l-42 146l-116 -194
q-74 -120 -178 -120q-76 0 -130 38q-14 26 -14 59t23 61t57 28t67 -25t61 -25t52 44l146 246l-78 258q-18 64 -49 64t-74 -37t-57 -61q-6 0 -20 18t-14 26q14 44 109 123t169 79z" />
    <glyph glyph-name="y" unicode="y" horiz-adv-x="968" 
d="M424 884q42 0 75 -52t54 -137q41 -165 56 -350t15 -251q56 68 130 213t74 257t-62 216q6 44 39 74t79 30t71 -43t25 -91q0 -152 -65 -328t-170 -326t-226 -276t-242 -199t-209 -73q-52 0 -86 25t-34 76t40 83q66 -24 144 -24q158 0 260 140q44 60 44 227t-29 357t-85 272
q-20 14 -78 -18q-21 0 -53 -15q-33 -15 -35 -15q4 10 48 64t111 109t109 55z" />
    <glyph glyph-name="z" unicode="z" horiz-adv-x="838" 
d="M780 228q-107 -232 -230 -232q-42 0 -150 25t-158 25t-99 -25t-71 -25q-30 0 -36 52q0 14 453 488l151 158q-2 0 -28 -14t-62 -14t-108 29t-106 29t-63 -27t-50 -58t-27 -35q-22 -7 -40 46q26 68 92 151t120 83t161 -24t156 -24t91 24t71 24t29 -60q0 -14 -451 -480
l-151 -156q6 0 37 14t67 14t115 -29t112 -29t62 27t51 58t26 33q12 4 22 -12t14 -36z" />
    <glyph glyph-name="braceleft" unicode="{" horiz-adv-x="624" 
d="M204 616q44 0 79 -51t35 -135t-70 -225t-70 -214t43 -124t87 -55q12 -4 10 -33t-14 -29q-108 0 -191 84t-83 210q0 90 66 231t66 194t-42 74q-42 22 -98 41q-2 8 2 33t14 39q108 28 153 72t45 148l-12 188q0 194 134 315t286 121q6 0 6 -11t-8 -30t-18 -21
q-47 -6 -120 -58q-42 -30 -71 -94t-29 -148l10 -172q0 -160 -75 -255t-135 -95z" />
    <glyph glyph-name="bar" unicode="|" horiz-adv-x="458" 
d="M416 1550q52 0 50 -18l-336 -1744q-14 -12 -51 -24t-67 -12t-26 18q270 1404 340 1744q38 36 90 36z" />
    <glyph glyph-name="braceright" unicode="}" horiz-adv-x="634" 
d="M-20 -250q-6 0 -6 10t8 30t18 22q34 0 81 34t75 67q66 78 66 205l-12 164q0 150 72 242t136 92q-44 0 -78 53t-34 137t72 238t72 225t-44 118t-88 51q-12 2 -10 32t12 30q114 0 199 -74t85 -204q0 -94 -71 -241t-71 -201t35 -80t101 -44q2 -4 2 -30t-14 -42
q-96 -24 -116 -39t-35 -27t-20 -25t-16 -39t-11 -86l10 -174q0 -130 -73 -236t-167 -157t-178 -51z" />
    <glyph glyph-name="asciitilde" unicode="~" horiz-adv-x="1068" 
d="M376 712q84 0 204 -52t194 -52t140 43q20 13 62 45q10 -10 10 -26q0 -58 -87 -116t-179 -58t-216 52t-212 52q-28 0 -43 -5t-23 -7t-21 -10t-18 -10t-20 -13t-33 -23t-26 -20q-12 12 -12 26q0 62 98 118t182 56z" />
    <glyph glyph-name="uni00A0" unicode="&#xa0;" horiz-adv-x="292" 
 />
    <glyph glyph-name="exclamdown" unicode="&#xa1;" horiz-adv-x="448" 
d="M69 -416q-43 0 -65 32t-18 68t40 163t95 327t85 294q6 24 27 38t35 14t12 -57t-31 -341t-51 -416q-10 -48 -48 -85t-81 -37zM275 616q-51 0 -79 36t-22 90t48 97t93 43t80 -36t23 -93t-49 -97t-94 -40z" />
    <glyph glyph-name="cent" unicode="&#xa2;" horiz-adv-x="830" 
d="M244 325q0 -103 60 -163l226 630q-20 4 -36 4q-76 0 -136 -83t-87 -184t-27 -204zM28 330q0 218 159 390t353 172h26q28 80 34 100q24 12 56 12t40 -7t4 -15l-38 -102q54 -12 105 -44t52 -77t-35 -81t-68 -36t-47 13t-34 41t-25 36l-224 -626q28 -10 78 -10t104 28t80 56
l26 26q18 0 18 -14q0 -34 -6 -48q-24 -40 -123 -99t-203 -59h-16q-28 -80 -34 -102q-20 -10 -52 -10t-41 6t-7 12l40 108q-104 30 -163 119t-59 211z" />
    <glyph glyph-name="sterling" unicode="&#xa3;" horiz-adv-x="914" 
d="M726 1272q66 0 121 -19t69 -53q-26 -142 -106 -142q-40 0 -78 57t-74 57q-106 0 -165 -98q-85 -141 -73 -350q0 -6 6 -6h302q14 0 14 -38t-34 -72h-278q-10 0 -10 -6q0 -207 -186 -424q62 34 136 34t147 -33t98 -33t45 6t33 12q24 11 69 56q44 44 52 56q6 0 16 -10
t10 -19t-11 -31t-42 -70t-95 -102t-129 -54t-173 31t-146 31t-72 -8t-51 -16t-46 -24t-33 -18q-26 6 -42 21t-16 27l10 10q80 62 148 177t84 229t16 136t-8 22h-144q-6 12 -6 34t13 49t27 27h114q6 0 6 27t8 79q18 210 148 329t326 119z" />
    <glyph glyph-name="currency" unicode="&#xa4;" horiz-adv-x="950" 
d="M554 994q112 0 190 -78l122 104q2 2 8 2q16 0 34 -32t20 -62l-122 -102q26 -66 26 -134q0 -170 -120 -304l72 -104q2 -2 2 -12t-36 -38t-68 -36l-70 106q-102 -64 -216 -64t-194 76l-116 -98q-2 -2 -8 -2q-16 0 -35 32t-21 62l118 98q-24 56 -24 130q0 170 126 310
l-72 108q-2 2 -2 4q0 16 35 44t67 36l72 -108q100 62 212 62zM514 916q-96 0 -157 -132t-61 -243t36 -168t102 -57q96 0 158 130t62 241t-37 170t-103 59z" />
    <glyph glyph-name="yen" unicode="&#xa5;" horiz-adv-x="1186" 
d="M360 4q-74 0 -242 -12q-4 4 -4 16t6 28t10 16q20 0 65 16t55 32q26 46 40 116h-204q-10 0 -10 19t11 46t23 35h200l18 96h-208q-10 0 -10 19t11 46t23 35h202l8 44q0 6 -4 22l-144 478q-49 164 -178 164q-6 0 -6 24t16 36q220 -10 275 -10t241 10v-8q0 -14 -5 -33
t-11 -19q-28 0 -68 -16t-40 -52q0 -14 10 -44l112 -356q4 -6 6 -6q10 0 14 10q304 364 304 412q0 24 -41 38t-85 14q-4 0 -4 25t14 35q170 -10 213 -10t229 10q0 -58 -12 -58q-18 0 -79 -20t-94 -53t-240 -292t-215 -305l-8 -40h218q8 0 8 -19t-11 -46t-23 -35h-210l-18 -96
h220q8 0 8 -19t-11 -46t-23 -35h-214q-12 -64 -12 -110q0 -22 42 -38t52 -16t10 -18t-12 -42q-144 12 -218 12z" />
    <glyph glyph-name="brokenbar" unicode="&#xa6;" horiz-adv-x="458" 
d="M219 532q53 0 51 -18l-140 -726q-14 -12 -51 -24t-67 -12t-26 18l142 726q38 36 91 36zM414 1540q54 0 52 -16l-140 -726q-14 -12 -51 -25t-67 -13t-24 20q70 386 140 726q36 34 90 34z" />
    <glyph glyph-name="section" unicode="&#xa7;" horiz-adv-x="772" 
d="M202 726q0 -74 41 -122t93 -75t106 -76t76 -109q62 48 62 122t-41 123t-92 79t-106 78t-75 106q-64 -52 -64 -126zM578 1304q64 0 103 -24t51 -52q-14 -130 -86 -130q-32 0 -61 55t-86 55t-100 -40t-43 -101t36 -104t88 -75t104 -67q124 -83 124 -204t-57 -211t-117 -134
q4 -20 4 -36q0 -144 -93 -242t-241 -98q-66 0 -106 22t-50 50q4 46 26 89t56 43t70 -55t86 -55t94 41t44 101t-36 105t-88 78t-103 69q-123 87 -123 216q0 90 44 179t128 149q-2 10 -2 32q0 148 94 246t240 98z" />
    <glyph glyph-name="dieresis" unicode="&#xa8;" horiz-adv-x="734" 
d="M202 1186q48 0 74 -33t26 -83t-40 -92t-87 -42t-70 32t-23 82t36 93t84 43zM582 1186q48 0 74 -33t26 -83t-40 -92t-87 -42t-70 32t-23 82t36 93t84 43z" />
    <glyph glyph-name="copyright" unicode="&#xa9;" horiz-adv-x="1134" 
d="M676 1230q182 0 298 -123t116 -311q0 -258 -194 -458t-434 -200q-182 0 -296 123t-114 311q0 258 192 458t432 200zM658 1138q-200 0 -361 -167t-161 -381q0 -158 96 -261t248 -103q200 0 361 168t161 382q0 158 -96 260t-248 102zM519 398q-99 0 -155 63t-56 173t94 219
t224 109q88 0 174 -24q2 0 2 -53t-10 -83q-2 -8 -15 -8t-25 4q-2 36 -32 70t-105 34t-126 -94t-51 -180q0 -170 118 -170q85 0 136 59q6 7 11 13t9 10l2 4l8 2q18 0 24 -10q-2 -14 -21 -52t-33 -46q-74 -40 -173 -40z" />
    <glyph glyph-name="ordfeminine" unicode="&#xaa;" horiz-adv-x="696" 
d="M434 1042q-68 0 -151 -133t-83 -227t46 -94t106 92t78 190l22 128q4 16 4 24q0 20 -22 20zM186 496q-132 0 -132 145t141 307t269 162q40 0 84 -8t54 -16l-76 -402q-6 -30 -6 -44q0 -42 30 -42q16 0 46 44l32 44q6 0 16 -11t12 -23q-18 -44 -67 -99t-107 -55
q-74 0 -86 88v24l2 38v4l-4 -4q-34 -50 -94 -101t-114 -51z" />
    <glyph glyph-name="guillemotleft" unicode="&#xab;" horiz-adv-x="940" 
d="M566 807q0 -9 -11 -24t-143 -127l-182 -160l116 -162q85 -107 93 -121q7 -15 7 -21q0 -24 -64 -46q-29 41 -136 140q-106 98 -196 168q-10 6 -10 31t26 51q215 122 394 260q52 40 62 50q16 -4 30 -17t14 -22zM918 809q0 -11 -11 -26t-143 -127l-182 -160l116 -162
q87 -112 93 -125q7 -13 7 -19q0 -28 -64 -44q-29 41 -136 140q-106 98 -196 168q-10 4 -10 30t26 52q286 164 454 310q12 -2 29 -14t17 -23z" />
    <glyph glyph-name="logicalnot" unicode="&#xac;" horiz-adv-x="1020" 
d="M104 848h832q22 0 18 -24l-94 -492q-32 -20 -69 -20t-47 5t-8 13l72 370l2 2q0 18 -18 18h-728l-6 28q0 16 17 58t29 42z" />
    <glyph glyph-name="registered" unicode="&#xae;" horiz-adv-x="1132" 
d="M784 993q0 -57 -34 -103t-86 -70q-4 -4 -4 -6v-4q16 -60 58 -136q52 -100 102 -100q0 -14 -6 -26q-6 -4 -30 -4q-80 0 -116 31t-59 80t-37 87t-19 51t-24 13t-21 -14l-32 -164q-2 -6 -2 -21t12 -25t22 -10t10 -4q0 -12 -6 -24l-104 8l-116 -8v16q0 8 4 12q42 8 54 24
q12 22 20 66l62 334q10 44 10 57t-16 20t-28 7q-2 0 -2 10t4 18q68 -4 104 -4l126 4q60 0 107 -29t47 -86zM606 1060q-26 0 -36 -3t-14 -19l-30 -154q-2 -4 -2 -12q0 -18 48 -18t74 41t26 91q0 74 -66 74zM688 1364q182 0 298 -123t116 -311q0 -258 -194 -458t-434 -200
q-182 0 -296 123t-114 311q0 258 192 458t432 200zM670 1272q-200 0 -361 -167t-161 -381q0 -158 96 -261t248 -103q200 0 361 168t161 382q0 158 -96 260t-248 102z" />
    <glyph glyph-name="macron" unicode="&#xaf;" horiz-adv-x="642" 
d="M568 1194q12 0 12 -22t-13 -58t-29 -46h-428q-14 0 -14 28t13 57t27 41h432z" />
    <glyph glyph-name="degree" unicode="&#xb0;" horiz-adv-x="498" 
d="M298 1268q74 0 115 -45t41 -125t-70 -152t-145 -72t-117 46t-42 127t72 151t146 70zM160 1055q0 -99 92 -99q46 0 84 43t38 97q0 92 -91 92q-47 0 -85 -43t-38 -90z" />
    <glyph glyph-name="plusminus" unicode="&#xb1;" horiz-adv-x="1016" 
d="M548 304l70 368q-26 -144 -70 -368zM650 820l70 384q-46 -260 -70 -384zM-10 102l48 102z" />
    <glyph glyph-name="uni00B2" unicode="&#xb2;" horiz-adv-x="632" 
d="M425 1292q77 0 121 -47t44 -124t-58 -166t-120 -144t-140 -113t-81 -61t-3 -6t2 -3h232q58 0 97 66q13 22 28 22t25 -10q-34 -60 -86 -198h-448q-12 12 -12 30t8 38q398 368 398 508q0 40 -20 68t-55 28t-74 -22t-67 -44t-32 -22t-12 16t-8 28q0 40 92 98t169 58z" />
    <glyph glyph-name="uni00B3" unicode="&#xb3;" horiz-adv-x="588" 
d="M212 564q80 0 130 70t50 148q0 102 -110 102q-26 0 -70 -6q-8 16 -8 34t16 26q121 25 155 88q35 63 35 97q0 33 -20 51t-54 18t-83 -37t-53 -37q-10 0 -18 24t-2 30q42 50 111 85t126 35t98 -31t41 -94t-52 -120t-116 -91q46 0 100 -41t54 -113q0 -116 -111 -213
t-271 -97q-44 0 -90 16t-48 38q0 30 24 58t51 28t55 -34t60 -34z" />
    <glyph glyph-name="acute" unicode="&#xb4;" horiz-adv-x="478" 
d="M383 1372q63 0 63 -45t-159 -162t-183 -117q-8 0 -15 13t-7 23t87 119t119 139t95 30z" />
    <glyph glyph-name="uni00B5" unicode="&#xb5;" horiz-adv-x="894" 
d="M339 884q17 0 57 -29t36 -47q-18 -92 -98 -296l-22 -66q-26 -118 -16 -205t56 -87q140 0 260 272q0 4 26 112t50 214l24 106q58 53 135 -4q35 -26 29 -46q-12 -76 -106 -316l-18 -46q-32 -122 -27 -212t63 -90q30 0 66 21t54 41q4 0 11 -19t1 -35q-30 -66 -88 -113
t-112 -47q-58 2 -79 78t-13 186q-74 -124 -149 -199t-159 -75q-46 0 -67 54t-21 116q0 -6 -17 -84t-30 -152t-10 -164t33 -136q-6 -18 -40 -41t-58 -23q-42 0 -68 54t-26 134q0 128 166 668q6 28 18 102t12 86q14 54 50 248q10 12 35 26t42 14z" />
    <glyph glyph-name="paragraph" unicode="&#xb6;" horiz-adv-x="778" 
d="M400 660q28 0 44 10q12 4 14 14q88 454 94 512q0 6 -10 13t-22 7q-38 0 -42 -24l-10 -46q-14 -64 -39 -191t-38 -191t-19 -96q0 -8 28 -8zM558 40q0 -14 -6 -26q-28 -2 -74 -8t-80 -8q-134 2 -264 0q-20 2 -52 14t-49 12q7 0 27 8t23 17t9 35t15 62l15 60q6 0 38 42
t40 61t22 127t8 112q-78 2 -116 60t-32 144q-32 70 5 203t118 241t161 108l204 -8q82 0 194 8l26 4q2 -4 -1 -20t-7 -20q-44 -22 -62 -40q-16 -10 -44 -46t-36 -70q-22 -94 -52 -254t-30 -165t4 -5l44 10l40 -10q0 -22 -22 -38q-12 -28 -50 -40q-2 0 -16 -4t-14 -6
q-8 -28 -27 -127t-21 -129t-3 -131t7 -137q2 -10 30 -22t28 -14zM350 548l-84 -442q-2 -6 4 -11t12 -5q14 -14 36 4q32 58 64 226q16 54 48 248q-10 10 -44 -2t-36 -18zM33 24h-3h3z" />
    <glyph glyph-name="periodcentered" unicode="&#xb7;" horiz-adv-x="394" 
d="M62 510q0 54 47 102t97 48t78 -30t28 -83t-47 -104t-97 -51t-78 32t-28 86z" />
    <glyph glyph-name="cedilla" unicode="&#xb8;" horiz-adv-x="490" 
d="M320 -58q22 0 45 -25t23 -75t-60 -114t-172 -64q-56 0 -82 18q-4 12 -4 33t12 33t25 12t38 -17t57 -17t60 25t28 53q0 56 -46 56q-22 0 -60 -14q-4 0 -12 12t-4 21t35 51t47 64h54l-42 -54q36 2 58 2z" />
    <glyph glyph-name="uni00B9" unicode="&#xb9;" horiz-adv-x="504" 
d="M122 1090q-18 6 -18 29t8 27q334 154 338 154t10 -18t6 -26q-48 -144 -52 -164l-80 -420q-8 -40 -8 -55t9 -27t41 -21t46 -9q4 0 4 -22t-12 -34l-184 8l-200 -8q-2 2 -2 12t5 26t9 16q18 0 57 10t47 20q22 30 32 82l72 372q8 56 8 62q0 24 -20 24q-12 0 -116 -38z" />
    <glyph glyph-name="ordmasculine" unicode="&#xba;" horiz-adv-x="628" 
d="M400 1110q82 0 140 -68t58 -156q0 -154 -99 -272t-243 -118q-84 0 -141 69t-57 159q0 148 107 267t235 119zM372 1040q-54 0 -111 -97t-57 -209q0 -168 80 -168q52 0 109 100t57 208q0 166 -78 166z" />
    <glyph glyph-name="guillemotright" unicode="&#xbb;" horiz-adv-x="940" 
d="M890 496q0 -30 -26 -40q-243 -147 -400 -269q-50 -39 -50 -41q-12 2 -29 14t-17 24t22 33t132 117l180 162l-118 162q-98 124 -98 140q0 32 62 48q37 -50 147 -151q109 -101 187 -159q8 -10 8 -40zM538 508q0 -42 -24 -52q-248 -147 -404 -270q-48 -38 -48 -40
q-12 2 -29 14t-17 24t22 33t132 117l180 162l-120 162q-96 124 -96 140q0 24 62 48q24 -32 123 -129t211 -181q8 -16 8 -28z" />
    <glyph glyph-name="onequarter" unicode="&#xbc;" horiz-adv-x="1206" 
d="M744 316h164q10 0 12 8l48 228q0 12 -4 12l-4 -2l-220 -232q-2 -2 -2 -8t6 -6zM1132 794q30 0 28 -14l-92 -458v-2q0 -4 8 -4h44q14 0 14 -41t-22 -59h-56q-4 0 -8 -12l-42 -202q-20 -10 -52 -10t-45 1q-49 4 -49 15l38 200l2 2q0 6 -8 6h-284q-14 14 -12 48l490 514
q16 16 46 16zM182 10q0 8 4 12l890 1264q8 2 38 -12t30 -26t-2 -14l-890 -1262q-12 0 -41 12t-29 26zM12 514q0 44 12 44q18 0 57 10t47 20q22 30 32 82l72 372q8 56 8 71t-15 15t-119 -38q-6 2 -13 14t-7 24t10 18q334 154 338 154t10 -18t6 -23q0 -6 -20 -56t-34 -111
l-80 -420q-6 -30 -6 -52t8 -32t40 -19t46 -9q6 0 6 -22t-12 -34l-186 8l-200 -8v10z" />
    <glyph glyph-name="onehalf" unicode="&#xbd;" horiz-adv-x="1324" 
d="M182 10q0 8 4 12l890 1264q8 2 38 -12t30 -26t-2 -14l-890 -1262q-12 0 -41 12t-29 26zM12 514q0 44 12 44q18 0 57 10t47 20q22 30 32 82l72 372q8 56 8 71t-15 15t-119 -38q-6 2 -13 14t-7 24t10 18q334 154 338 154t10 -18t6 -23q0 -6 -20 -56t-34 -111l-80 -420
q-6 -30 -6 -52t8 -32t40 -19t46 -9q6 0 6 -22t-12 -34l-186 8l-200 -8v10zM1112 786q76 0 121 -47t45 -124t-58 -166t-120 -144t-140 -113t-82 -62t-4 -8t4 -4h232q59 0 96 68q12 22 20 22q28 0 34 -8q-32 -56 -86 -200l-208 2q-236 -2 -240 -2q-14 14 -14 31t8 37
q400 370 400 508q0 40 -21 69t-56 29t-73 -23t-66 -45t-32 -22t-12 17t-8 30q0 42 92 98q92 57 168 57z" />
    <glyph glyph-name="threequarters" unicode="&#xbe;" horiz-adv-x="1236" 
d="M774 316h164q10 0 12 8l48 228q0 12 -4 12l-4 -2l-220 -232q-2 -2 -2 -8t6 -6zM1162 794q30 0 28 -14l-92 -458v-2q0 -4 8 -4h44q14 0 14 -41t-22 -59h-56q-4 0 -8 -12l-42 -202q-20 -10 -52 -10t-45 1q-49 4 -49 15l38 200l2 2q0 6 -8 6h-284q-14 14 -12 48l490 514
q16 16 46 16zM212 10q0 8 4 12l890 1264q8 2 38 -12t30 -26t-2 -14l-890 -1262q-12 0 -41 12t-29 26zM200 564q80 0 130 70t50 148q0 102 -110 102q-26 0 -70 -6q-8 16 -8 34t16 26q121 25 155 88q35 63 35 97q0 33 -20 51t-54 18t-83 -37t-53 -37q-10 0 -17 24t-3 30
q42 50 111 85t126 35t98 -31t41 -94t-52 -120t-116 -91q46 0 100 -41t54 -113q0 -116 -111 -213t-271 -97q-44 0 -90 16t-48 38q0 30 23 58t51 28t56 -34t60 -34z" />
    <glyph glyph-name="questiondown" unicode="&#xbf;" horiz-adv-x="668" 
d="M326 455q0 15 24 29q48 0 131 -65t83 -139q0 -126 -110 -188l-220 -128q-104 -56 -104 -136q0 -50 28 -82t73 -32t85 47t78 47t60 -42t12 -94q-48 -90 -164 -90t-207 81t-91 193q0 166 118 240q66 44 220 130q72 40 72 93t-66 104q-22 17 -22 32zM634 767q0 -55 -46 -102
t-96 -47t-79 29t-29 83t47 104t96 50t78 -31t29 -86z" />
    <glyph glyph-name="Agrave" unicode="&#xc0;" horiz-adv-x="1296" 
d="M950 1430q-40 0 -200 59t-160 95q0 30 38 46t79 16t61 -10q52 -32 130 -99t78 -78t-9 -20t-17 -9zM657 570q71 0 157 6q8 0 8 8q-6 40 -34 206t-32 194l-230 -404v-4q60 -6 131 -6zM193 6q-57 0 -213 -12q-4 8 -4 34t12 26q22 0 75 20t75 48t94 150l554 948
q62 108 104 108q12 0 20 -8l188 -1048q6 -32 28 -146q6 -30 47 -51t61 -21q4 0 4 -22t-8 -38q-222 12 -236 12t-242 -12q-2 2 -2 31t12 29q20 0 60 15t50 31q12 24 12 51t-40 295q0 10 -23 13t-136 3t-227 -6q-8 0 -15 -13t-90 -146t-83 -171t48 -55t72 -17q4 0 4 -18
t-12 -42q-132 12 -189 12z" />
    <glyph glyph-name="Aacute" unicode="&#xc1;" horiz-adv-x="1296" 
d="M828 1430q-8 0 -17 10t-9 21t78 77t132 98q20 10 60 10t79 -16t39 -46q0 -36 -161 -95t-201 -59zM657 570q71 0 157 6q8 0 8 8q-6 40 -34 206t-32 194l-230 -404v-4q60 -6 131 -6zM193 6q-57 0 -213 -12q-4 8 -4 34t12 26q22 0 75 20t75 48t94 150l554 948
q62 108 104 108q12 0 20 -8l188 -1048q6 -32 28 -146q6 -30 47 -51t61 -21q4 0 4 -22t-8 -38q-222 12 -236 12t-242 -12q-2 2 -2 31t12 29q20 0 60 15t50 31q12 24 12 51t-40 295q0 10 -23 13t-136 3t-227 -6q-8 0 -15 -13t-90 -146t-83 -171t48 -55t72 -17q4 0 4 -18
t-12 -42q-132 12 -189 12z" />
    <glyph glyph-name="Acircumflex" unicode="&#xc2;" horiz-adv-x="1296" 
d="M1074 1456q-38 0 -212 120q-60 -36 -152 -78t-110 -42q-24 0 -12 38q2 2 104 73t174 143q22 18 33 18t18 -13q42 -77 97 -133q56 -56 72 -71t18 -17q-10 -38 -30 -38zM657 570q71 0 157 6q8 0 8 8q-6 40 -34 206t-32 194l-230 -404v-4q60 -6 131 -6zM193 6
q-57 0 -213 -12q-4 8 -4 34t12 26q22 0 75 20t75 48t94 150l554 948q62 108 104 108q12 0 20 -8l188 -1048q6 -32 28 -146q6 -30 47 -51t61 -21q4 0 4 -22t-8 -38q-222 12 -236 12t-242 -12q-2 2 -2 31t12 29q20 0 60 15t50 31q12 24 12 51t-40 295q0 10 -23 13t-136 3
t-227 -6q-8 0 -15 -13t-90 -146t-83 -171t48 -55t72 -17q4 0 4 -18t-12 -42q-132 12 -189 12z" />
    <glyph glyph-name="Atilde" unicode="&#xc3;" horiz-adv-x="1296" 
d="M552 1476q-16 0 -6 40t48 86q86 92 162 92t168 -61t158 -61q34 0 89 51t59 51q14 0 8 -37t-52 -91q-78 -90 -157 -90t-169 61t-158 61q-32 0 -88 -51t-62 -51zM657 570q71 0 157 6q8 0 8 8q-6 40 -34 206t-32 194l-230 -404v-4q60 -6 131 -6zM193 6q-57 0 -213 -12
q-4 8 -4 34t12 26q22 0 75 20t75 48t94 150l554 948q62 108 104 108q12 0 20 -8l188 -1048q6 -32 28 -146q6 -30 47 -51t61 -21q4 0 4 -22t-8 -38q-222 12 -236 12t-242 -12q-2 2 -2 31t12 29q20 0 60 15t50 31q12 24 12 51t-40 295q0 10 -23 13t-136 3t-227 -6
q-8 0 -15 -13t-90 -146t-83 -171t48 -55t72 -17q4 0 4 -18t-12 -42q-132 12 -189 12z" />
    <glyph glyph-name="Adieresis" unicode="&#xc4;" horiz-adv-x="1296" 
d="M758 1704q48 0 76 -36t19 -87t-52 -88t-91 -37t-74 36t-16 88t50 88t88 36zM1140 1704q48 0 75 -36t18 -87t-51 -88t-90 -37t-75 36t-18 87t51 88t90 37zM657 570q71 0 157 6q8 0 8 8q-6 40 -34 206t-32 194l-230 -404v-4q60 -6 131 -6zM193 6q-57 0 -213 -12q-4 8 -4 34
t12 26q22 0 75 20t75 48t94 150l554 948q62 108 104 108q12 0 20 -8l188 -1048q6 -32 28 -146q6 -30 47 -51t61 -21q4 0 4 -22t-8 -38q-222 12 -236 12t-242 -12q-2 2 -2 31t12 29q20 0 60 15t50 31q12 24 12 51t-40 295q0 10 -23 13t-136 3t-227 -6q-8 0 -15 -13t-90 -146
t-83 -171t48 -55t72 -17q4 0 4 -18t-12 -42q-132 12 -189 12z" />
    <glyph glyph-name="Aring" unicode="&#xc5;" horiz-adv-x="1296" 
d="M193 6q-57 0 -213 -12q-4 8 -4 34t12 26q22 0 75 20t75 48t94 150l554 948q45 79 80 100q-64 0 -106 46t-42 127t72 151t146 70t115 -45t41 -125t-62 -144t-125 -76q2 -2 5 -4l188 -1048q6 -32 28 -146q6 -30 47 -51t61 -21q4 0 4 -22t-8 -38q-222 12 -236 12t-242 -12
q-2 2 -2 31t12 29q20 0 60 15t50 31q12 24 12 51t-40 295q0 10 -23 13t-136 3t-227 -6q-8 0 -15 -13t-90 -146t-83 -171t48 -55t72 -17q4 0 4 -18t-12 -42q-132 12 -189 12zM798 1501q0 -99 92 -99q46 0 84 43t38 97q0 92 -91 92q-47 0 -85 -43t-38 -90zM657 570q71 0 157 6
q8 0 8 8q-6 40 -34 206t-32 194l-230 -404v-4q60 -6 131 -6z" />
    <glyph glyph-name="AE" unicode="&#xc6;" horiz-adv-x="1746" 
d="M662 616q36 -4 148 -4t112 14l44 390q-252 -318 -304 -392v-8zM1681 1036q-27 0 -27 14q-8 94 -65 135t-129 41h-110q-136 0 -144 -26q-16 -52 -28 -176l-32 -308v-2q0 -14 72 -14h82q108 0 132 16t62 116q6 14 33 14t33 -10q-10 -42 -25 -178t-19 -202q-8 -8 -34 -8
t-28 14q-6 63 -11 79q-5 15 -6 20t-5 9l-16 14q-22 16 -151 16t-131 -20l-28 -284q-12 -130 -8 -164t124 -34h40q134 0 226 46q70 36 142 188q6 12 38 12t40 -12q-112 -234 -148 -338l-590 10l-256 -12q-4 8 -4 23t6 32t10 17q22 0 69 13t55 27q22 44 28 107t26 281
q4 12 -12 12q-60 4 -127 4t-187 -4q-8 0 -16 -8q-122 -170 -153 -208t-45 -56t-22 -28t-17 -24t-15 -23t-13 -22t-7 -28t20 -27q48 -26 96 -26q2 0 2 -18t-16 -44q-108 12 -183 12t-231 -12q-4 8 -4 19t6 26t10 15q22 0 70 17t88 57t122 146l628 808q76 84 79 115t-13 42
t-42 11q-10 0 -10 29t16 39h32l146 -2l624 14q-12 -192 -12 -282q-10 -10 -37 -10z" />
    <glyph glyph-name="Ccedilla" unicode="&#xc7;" horiz-adv-x="1220" 
d="M384 -260q8 0 36 -16t62 -16t61 21t33 52t-7 52t-41 21t-62 -14q-4 0 -13 13t-5 19q64 87 83 119q-205 19 -343 165t-138 357t107 399t284 305t357 117t430 -74q0 -12 -14 -134t-18 -138q-6 -30 -50 -30q-18 0 -26 6q-4 81 -52 160q-30 50 -100 81t-172 31
q-200 0 -355 -218t-155 -512q0 -186 89 -304t257 -118q238 0 350 138q34 42 50 70t18 28q8 0 27 -12t21 -24q-2 -4 -36 -95t-52 -109q-44 -42 -162 -67t-250 -25h-12l-38 -48h48q44 0 69 -34t15 -82q-16 -82 -83 -132t-141 -50t-104 30q0 68 32 68z" />
    <glyph glyph-name="Egrave" unicode="&#xc8;" horiz-adv-x="1088" 
d="M818 1430q-40 0 -200 59t-160 95q0 30 38 46t79 16t61 -10q52 -32 130 -99t78 -78t-9 -20t-17 -9zM-16 26q0 28 14 28q20 0 69 17t57 33q28 60 48 172l148 760q24 122 20 170q-2 16 -45 37t-63 21q-2 0 -2 24t12 36q203 -14 474 -5q270 9 360 9q-4 -44 -4 -130l2 -154
q-10 -10 -37 -10t-27 14q-24 178 -210 178h-90q-130 0 -138 -26q-32 -90 -40 -144l-60 -330q0 -14 76 -14h124q90 0 113 18t65 114q6 16 31 16t33 -12l-72 -380q-8 -8 -34 -8t-28 16q-4 94 -26 115t-164 21t-146 -16l-58 -304q-18 -86 -18 -132t17 -54t103 -8h70
q146 0 230 42q32 16 80 69t84 123q6 12 37 12t39 -12q-148 -286 -166 -338l-632 10l-242 -10q-4 4 -4 32z" />
    <glyph glyph-name="Eacute" unicode="&#xc9;" horiz-adv-x="1088" 
d="M618 1430q-8 0 -17 10t-9 21t78 77t132 98q20 10 60 10t79 -16t39 -46q0 -36 -161 -95t-201 -59zM-16 26q0 28 14 28q20 0 69 17t57 33q28 60 48 172l148 760q24 122 20 170q-2 16 -45 37t-63 21q-2 0 -2 24t12 36q203 -14 474 -5q270 9 360 9q-4 -44 -4 -130l2 -154
q-10 -10 -37 -10t-27 14q-24 178 -210 178h-90q-130 0 -138 -26q-32 -90 -40 -144l-60 -330q0 -14 76 -14h124q90 0 113 18t65 114q6 16 31 16t33 -12l-72 -380q-8 -8 -34 -8t-28 16q-4 94 -26 115t-164 21t-146 -16l-58 -304q-18 -86 -18 -132t17 -54t103 -8h70
q146 0 230 42q32 16 80 69t84 123q6 12 37 12t39 -12q-148 -286 -166 -338l-632 10l-242 -10q-4 4 -4 32z" />
    <glyph glyph-name="Ecircumflex" unicode="&#xca;" horiz-adv-x="1088" 
d="M940 1456q-38 0 -212 120q-60 -36 -152 -78t-110 -42q-24 0 -12 38q2 2 104 73t174 143q22 18 33 18t18 -13q41 -77 97 -133t72 -71t18 -17q-10 -38 -30 -38zM-16 26q0 28 14 28q20 0 69 17t57 33q28 60 48 172l148 760q24 122 20 170q-2 16 -45 37t-63 21q-2 0 -2 24
t12 36q203 -14 474 -5q270 9 360 9q-4 -44 -4 -130l2 -154q-10 -10 -37 -10t-27 14q-24 178 -210 178h-90q-130 0 -138 -26q-32 -90 -40 -144l-60 -330q0 -14 76 -14h124q90 0 113 18t65 114q6 16 31 16t33 -12l-72 -380q-8 -8 -34 -8t-28 16q-4 94 -26 115t-164 21
t-146 -16l-58 -304q-18 -86 -18 -132t17 -54t103 -8h70q146 0 230 42q32 16 80 69t84 123q6 12 37 12t39 -12q-148 -286 -166 -338l-632 10l-242 -10q-4 4 -4 32z" />
    <glyph glyph-name="Edieresis" unicode="&#xcb;" horiz-adv-x="1088" 
d="M560 1704q48 0 76 -36t19 -87t-52 -88t-91 -37t-74 36t-16 88t50 88t88 36zM942 1704q48 0 75 -36t18 -87t-51 -88t-90 -37t-75 36t-18 87t51 88t90 37zM-16 26q0 28 14 28q20 0 69 17t57 33q28 60 48 172l148 760q24 122 20 170q-2 16 -45 37t-63 21q-2 0 -2 24t12 36
q203 -14 474 -5q270 9 360 9q-4 -44 -4 -130l2 -154q-10 -10 -37 -10t-27 14q-24 178 -210 178h-90q-130 0 -138 -26q-32 -90 -40 -144l-60 -330q0 -14 76 -14h124q90 0 113 18t65 114q6 16 31 16t33 -12l-72 -380q-8 -8 -34 -8t-28 16q-4 94 -26 115t-164 21t-146 -16
l-58 -304q-18 -86 -18 -132t17 -54t103 -8h70q146 0 230 42q32 16 80 69t84 123q6 12 37 12t39 -12q-148 -286 -166 -338l-632 10l-242 -10q-4 4 -4 32z" />
    <glyph glyph-name="Igrave" unicode="&#xcc;" horiz-adv-x="700" 
d="M636 1430q-40 0 -200 59t-160 95q0 30 38 46t79 16t61 -10q52 -32 130 -99t78 -78t-9 -20t-17 -9zM-16 26q0 28 12 28q24 0 69 13t55 31q32 62 52 178l148 764q20 104 20 164q0 26 -40 43t-64 17q-4 0 -4 23t14 37q210 -10 244 -10t224 10v-8q0 -52 -15 -52t-64 -17
t-57 -31q-20 -44 -50 -178l-146 -760q-22 -122 -22 -170q0 -22 43 -38t61 -16q4 0 4 -18t-14 -42q-222 12 -230 12l-236 -12q-4 4 -4 32z" />
    <glyph glyph-name="Iacute" unicode="&#xcd;" horiz-adv-x="700" 
d="M372 1430q-8 0 -17 10t-9 21t78 77t132 98q20 10 60 10t79 -16t39 -46q0 -36 -161 -95t-201 -59zM-16 26q0 28 12 28q24 0 69 13t55 31q32 62 52 178l148 764q20 104 20 164q0 26 -40 43t-64 17q-4 0 -4 23t14 37q210 -10 244 -10t224 10v-8q0 -52 -15 -52t-64 -17
t-57 -31q-20 -44 -50 -178l-146 -760q-22 -122 -22 -170q0 -22 43 -38t61 -16q4 0 4 -18t-14 -42q-222 12 -230 12l-236 -12q-4 4 -4 32z" />
    <glyph glyph-name="Icircumflex" unicode="&#xce;" horiz-adv-x="700" 
d="M734 1456q-38 0 -212 120q-60 -36 -152 -78t-110 -42q-24 0 -12 38q2 2 104 73t174 143q22 18 33 18t18 -13q42 -78 98 -134q55 -55 71 -70t18 -17q-10 -38 -30 -38zM-16 26q0 28 12 28q24 0 69 13t55 31q32 62 52 178l148 764q20 104 20 164q0 26 -40 43t-64 17
q-4 0 -4 23t14 37q210 -10 244 -10t224 10v-8q0 -52 -15 -52t-64 -17t-57 -31q-20 -44 -50 -178l-146 -760q-22 -122 -22 -170q0 -22 43 -38t61 -16q4 0 4 -18t-14 -42q-222 12 -230 12l-236 -12q-4 4 -4 32z" />
    <glyph glyph-name="Idieresis" unicode="&#xcf;" horiz-adv-x="700" 
d="M348 1704q48 0 76 -36t19 -87t-52 -88t-91 -37t-74 36t-16 88t50 88t88 36zM730 1704q48 0 75 -36t18 -87t-51 -88t-90 -37t-75 36t-18 87t51 88t90 37zM-16 26q0 28 12 28q24 0 69 13t55 31q32 62 52 178l148 764q20 104 20 164q0 26 -40 43t-64 17q-4 0 -4 23t14 37
q210 -10 244 -10t224 10v-8q0 -52 -15 -52t-64 -17t-57 -31q-20 -44 -50 -178l-146 -760q-22 -122 -22 -170q0 -22 43 -38t61 -16q4 0 4 -18t-14 -42q-222 12 -230 12l-236 -12q-4 4 -4 32z" />
    <glyph glyph-name="Eth" unicode="&#xd0;" horiz-adv-x="1380" 
d="M-8 11q0 15 6 34t10 19q24 0 70 12t54 28q28 60 48 172l62 320h-136q-12 0 -12 27t16 63t28 46h130l60 304q24 122 20 170q-2 16 -45 33t-63 17q-2 0 -2 25t18 43q108 -8 232 -8h326q262 0 396 -144t134 -364q0 -136 -53 -277t-149 -262t-250 -198t-338 -77l-316 10
l-242 -12q-4 4 -4 19zM797 1216q-179 0 -207 -32q-36 -44 -50 -140l-62 -312h230q12 0 12 -28t-16 -63t-28 -45h-224l-60 -320q-26 -130 -8 -148q26 -32 224 -32t332 183t164 475q20 200 -54 331t-253 131z" />
    <glyph glyph-name="Ntilde" unicode="&#xd1;" horiz-adv-x="1526" 
d="M528 1476q-16 0 -6 40t48 86q86 92 162 92t168 -61t158 -61q34 0 89 51t59 51q14 0 8 -37t-52 -91q-78 -90 -157 -90t-169 61t-158 61q-32 0 -88 -51t-62 -51zM507 1316q85 0 165 8q23 -99 92 -241q70 -141 89 -181t56 -113t55 -109t59 -116t55 -110q10 26 20 82l96 500
q20 116 20 148t-61 56t-91 24q-4 0 -4 25t14 35q168 -8 242 -8t226 8q0 -60 -14 -60q-22 0 -83 -19t-85 -45q-30 -46 -52 -164l-150 -760q-14 -66 -29 -170t-17 -110q-8 -8 -33 -8t-53 44q-426 852 -522 1072l-164 -822q-20 -100 -20 -142t60 -64t88 -22q4 0 4 -18t-12 -42
q-186 10 -220 10t-248 -10q-4 8 -4 17t5 26t9 17q30 0 93 18t83 48q22 38 50 168l152 764q16 80 16 150q0 28 -55 45t-85 17q-6 0 -6 25t14 35q160 -8 245 -8z" />
    <glyph glyph-name="Ograve" unicode="&#xd2;" horiz-adv-x="1312" 
d="M860 1430q-40 0 -200 59t-160 95q0 30 38 46t79 16t61 -10q52 -32 130 -99t78 -78t-9 -20t-17 -9zM809 1334q195 0 331 -151t136 -369t-106 -410t-279 -308t-374 -116t-333 152t-132 372t109 411t281 305t367 114zM748 1236q-188 0 -324 -219t-136 -513q0 -184 74 -304
t215 -120t250 128t161 296t52 336t-73 282t-219 114z" />
    <glyph glyph-name="Oacute" unicode="&#xd3;" horiz-adv-x="1312" 
d="M650 1430q-8 0 -17 10t-9 21t78 77t132 98q20 10 60 10t79 -16t39 -46q0 -36 -161 -95t-201 -59zM809 1334q195 0 331 -151t136 -369t-106 -410t-279 -308t-374 -116t-333 152t-132 372t109 411t281 305t367 114zM748 1236q-188 0 -324 -219t-136 -513q0 -184 74 -304
t215 -120t250 128t161 296t52 336t-73 282t-219 114z" />
    <glyph glyph-name="Ocircumflex" unicode="&#xd4;" horiz-adv-x="1312" 
d="M1030 1456q-38 0 -212 120q-60 -36 -152 -78t-110 -42q-24 0 -12 38q2 2 104 73t174 143q22 18 33 18t18 -13q41 -77 97 -133t72 -71t18 -17q-10 -38 -30 -38zM809 1334q195 0 331 -151t136 -369t-106 -410t-279 -308t-374 -116t-333 152t-132 372t109 411t281 305
t367 114zM748 1236q-188 0 -324 -219t-136 -513q0 -184 74 -304t215 -120t250 128t161 296t52 336t-73 282t-219 114z" />
    <glyph glyph-name="Otilde" unicode="&#xd5;" horiz-adv-x="1312" 
d="M486 1476q-16 0 -6 40t48 86q86 92 162 92t168 -61t158 -61q34 0 89 51t59 51q14 0 8 -37t-52 -91q-78 -90 -157 -90t-169 61t-158 61q-32 0 -88 -51t-62 -51zM809 1334q195 0 331 -151t136 -369t-106 -410t-279 -308t-374 -116t-333 152t-132 372t109 411t281 305
t367 114zM748 1236q-188 0 -324 -219t-136 -513q0 -184 74 -304t215 -120t250 128t161 296t52 336t-73 282t-219 114z" />
    <glyph glyph-name="Odieresis" unicode="&#xd6;" horiz-adv-x="1312" 
d="M668 1704q48 0 76 -36t19 -87t-52 -88t-91 -37t-74 36t-16 88t50 88t88 36zM1050 1704q48 0 75 -36t18 -87t-51 -88t-90 -37t-75 36t-18 87t51 88t90 37zM809 1334q195 0 331 -151t136 -369t-106 -410t-279 -308t-374 -116t-333 152t-132 372t109 411t281 305t367 114z
M748 1236q-188 0 -324 -219t-136 -513q0 -184 74 -304t215 -120t250 128t161 296t52 336t-73 282t-219 114z" />
    <glyph glyph-name="multiply" unicode="&#xd7;" horiz-adv-x="820" 
d="M74 114q-10 0 -26 39t-16 63l306 270q4 4 4 8t-4 8l-196 266q0 20 37 62t45 42t16 -8l202 -272q4 -4 7 -4t5 2l308 274q8 8 15 8t24 -40t17 -66l-300 -268q-2 -2 -2 -5t2 -5l194 -268q0 -20 -35 -62t-45 -42t-14 8l-200 272q-4 4 -8 4t-8 -4l-312 -276q-6 -6 -16 -6z" />
    <glyph glyph-name="Oslash" unicode="&#xd8;" horiz-adv-x="1312" 
d="M584 80q134 0 243 128t161 296t52 313t-46 243l-618 -878q74 -102 208 -102zM796 1334q132 0 242 -66l48 68q8 2 38 -13t30 -29q0 -8 -2 -12l-46 -66q170 -154 170 -408q0 -212 -106 -404t-279 -308t-363 -116q-134 0 -246 70l-42 -60q-14 0 -42 11t-28 25q0 8 6 14
l40 60q-164 152 -164 416q0 208 109 399t281 305t354 114zM748 1236q-188 0 -324 -219t-136 -513q0 -136 46 -240l616 878q-74 94 -202 94z" />
    <glyph glyph-name="Ugrave" unicode="&#xd9;" horiz-adv-x="1334" 
d="M814 1430q-40 0 -200 59t-160 95q0 30 38 46t79 16t61 -10q52 -32 130 -99t78 -78t-9 -20t-17 -9zM200 1204q0 26 -40 43t-62 17q-2 0 -2 24t12 36q210 -10 244 -10t224 10v-8q0 -52 -15 -52t-64 -17t-57 -31q-12 -28 -48 -178l-88 -444q-20 -104 -20 -190
q0 -280 244 -280q152 0 253 90t147 330l92 484q28 142 26 184q-2 24 -60 38t-90 14q-2 0 -2 23t14 37q168 -8 229 -8t213 8q0 -60 -14 -60q-20 0 -85 -14t-73 -26q-16 -34 -50 -196l-92 -476q-60 -314 -201 -435t-375 -121q-180 0 -284 103t-104 307q0 76 24 202l84 432
q20 104 20 164z" />
    <glyph glyph-name="Uacute" unicode="&#xda;" horiz-adv-x="1334" 
d="M536 1430q-8 0 -17 10t-9 21t78 77t132 98q20 10 60 10t79 -16t39 -46q0 -36 -161 -95t-201 -59zM200 1204q0 26 -40 43t-62 17q-2 0 -2 24t12 36q210 -10 244 -10t224 10v-8q0 -52 -15 -52t-64 -17t-57 -31q-12 -28 -48 -178l-88 -444q-20 -104 -20 -190
q0 -280 244 -280q152 0 253 90t147 330l92 484q28 142 26 184q-2 24 -60 38t-90 14q-2 0 -2 23t14 37q168 -8 229 -8t213 8q0 -60 -14 -60q-20 0 -85 -14t-73 -26q-16 -34 -50 -196l-92 -476q-60 -314 -201 -435t-375 -121q-180 0 -284 103t-104 307q0 76 24 202l84 432
q20 104 20 164z" />
    <glyph glyph-name="Ucircumflex" unicode="&#xdb;" horiz-adv-x="1334" 
d="M966 1456q-38 0 -212 120q-60 -36 -152 -78t-110 -42q-24 0 -12 38q2 2 104 73t174 143q22 18 33 18t18 -13q42 -77 98 -133q55 -56 71 -71t18 -17q-10 -38 -30 -38zM200 1204q0 26 -40 43t-62 17q-2 0 -2 24t12 36q210 -10 244 -10t224 10v-8q0 -52 -15 -52t-64 -17
t-57 -31q-12 -28 -48 -178l-88 -444q-20 -104 -20 -190q0 -280 244 -280q152 0 253 90t147 330l92 484q28 142 26 184q-2 24 -60 38t-90 14q-2 0 -2 23t14 37q168 -8 229 -8t213 8q0 -60 -14 -60q-20 0 -85 -14t-73 -26q-16 -34 -50 -196l-92 -476q-60 -314 -201 -435
t-375 -121q-180 0 -284 103t-104 307q0 76 24 202l84 432q20 104 20 164z" />
    <glyph glyph-name="Udieresis" unicode="&#xdc;" horiz-adv-x="1334" 
d="M562 1704q48 0 76 -36t19 -87t-52 -88t-91 -37t-74 36t-16 88t50 88t88 36zM944 1704q48 0 75 -36t18 -87t-51 -88t-90 -37t-75 36t-18 87t51 88t90 37zM200 1204q0 26 -40 43t-62 17q-2 0 -2 24t12 36q210 -10 244 -10t224 10v-8q0 -52 -15 -52t-64 -17t-57 -31
q-12 -28 -48 -178l-88 -444q-20 -104 -20 -190q0 -280 244 -280q152 0 253 90t147 330l92 484q28 142 26 184q-2 24 -60 38t-90 14q-2 0 -2 23t14 37q168 -8 229 -8t213 8q0 -60 -14 -60q-20 0 -85 -14t-73 -26q-16 -34 -50 -196l-92 -476q-60 -314 -201 -435t-375 -121
q-180 0 -284 103t-104 307q0 76 24 202l84 432q20 104 20 164z" />
    <glyph glyph-name="Yacute" unicode="&#xdd;" horiz-adv-x="1184" 
d="M560 1430q-8 0 -17 10t-9 21t78 77t132 98q20 10 60 10t79 -16t39 -46q0 -36 -161 -95t-201 -59zM652 1306q0 -16 -5 -33t-11 -17q-28 0 -71 -16t-45 -48q-2 -18 6 -44l134 -390q66 88 128 168t127 167t66 110t-34 38t-83 15q-4 0 -4 26t14 38q186 -12 210 -12t220 12
q2 -10 0 -37t-14 -27q-26 0 -79 -18t-83 -48q-40 -44 -242 -311t-206 -291l-60 -304q-20 -106 -20 -176q2 -20 47 -36t59 -16q6 0 3 -24t-11 -40q-4 2 -94 8t-168 6t-218 -14q-4 6 -1 35t13 29q22 0 72 16t58 32q26 48 48 172l60 312q4 18 -116 376l-40 118q-34 106 -76 138
q-18 12 -51 24t-51 12q-4 0 -4 26t16 38l248 -12q30 0 258 12v-14z" />
    <glyph glyph-name="Thorn" unicode="&#xde;" horiz-adv-x="1040" 
d="M649 962q-83 0 -110 -9t-35 -45l-92 -472q-2 -4 0 -9t2 -9q0 -38 150 -38q84 0 153 88t77 202q14 122 -24 207t-121 85zM526 288q-44 0 -85 8t-45 8q-14 0 -14 -28q-20 -88 -20 -172q0 -20 42 -35t58 -15q4 0 4 -18t-12 -42q-222 12 -228 12l-238 -12q-2 4 -2 32t12 28
q28 0 71 11t53 35q30 70 48 176l150 764q22 118 18 172q-2 18 -42 35t-62 17q-2 0 -2 23t14 37q210 -10 244 -10t224 10v-20q0 -40 -15 -40t-65 -17t-56 -31q-18 -40 -46 -166q0 -10 6 -10l136 8q154 0 250 -99t82 -245q-14 -170 -159 -293t-321 -123z" />
    <glyph glyph-name="germandbls" unicode="&#xdf;" horiz-adv-x="1130" 
d="M822 1390q122 0 212 -65t78 -182t-84 -183q-72 -67 -146 -108q-73 -42 -82 -55q-10 -13 -22 -30t-12 -55q0 -70 118 -160q80 -64 123 -121t43 -135q0 -114 -87 -209t-194 -95t-181 29t-84 57q14 152 96 152q53 0 80 -73t90 -73q38 0 65 35t33 67t6 58t-8 48
q-21 57 -113 129q-45 35 -77 69t-37 44t-16 33t-11 54t4 52t7 35t16 32t18 27t27 28t34 31t68 54q122 98 140 258t-154 160q-136 0 -204 -350l-170 -880q-100 -520 -410 -520q-70 0 -116 26t-56 56q10 154 98 154q45 0 63 -71t71 -71q82 0 152 350q2 12 4 18l136 706v4l2 4
q0 8 -8 8h-124q-8 0 -8 16t35 52t71 36h46q8 0 14 26q42 220 164 374t290 154z" />
    <glyph glyph-name="agrave" unicode="&#xe0;" horiz-adv-x="900" 
d="M692 1008q-32 0 -178 86t-146 134q0 28 35 51t63 23t42 -10q34 -32 122 -133t88 -112t-9 -25t-17 -14zM574 774q-114 0 -209 -173t-95 -327t82 -154q68 0 145 144t107 298l38 192q-18 20 -68 20zM674 884q98 0 166 -36l-118 -614q-6 -18 -6 -58t20 -40t54 27t55 49t31 32
q4 0 18 -19t14 -27q-22 -48 -125 -130t-175 -82q-38 0 -63 29t-25 67t16 118q-34 -60 -82 -114q-87 -98 -178 -98q-90 0 -147 80t-57 211t83 273t225 237t294 95z" />
    <glyph glyph-name="aacute" unicode="&#xe1;" horiz-adv-x="900" 
d="M472 1008q-6 0 -14 12t-8 22t85 109t135 141q16 8 46 8t58 -21t28 -47q0 -48 -151 -136t-179 -88zM574 774q-114 0 -209 -173t-95 -327t82 -154q68 0 145 144t107 298l38 192q-18 20 -68 20zM674 884q98 0 166 -36l-118 -614q-6 -18 -6 -58t20 -40t54 27t55 49t31 32
q4 0 18 -19t14 -27q-22 -48 -125 -130t-175 -82q-38 0 -63 29t-25 67t16 118q-34 -60 -82 -114q-87 -98 -178 -98q-90 0 -147 80t-57 211t83 273t225 237t294 95z" />
    <glyph glyph-name="acircumflex" unicode="&#xe2;" horiz-adv-x="900" 
d="M759 1008q-15 0 -75 47t-100 85q-50 -38 -129 -85t-93 -47q-8 0 -11 16t1 26q4 4 36 31t99 94t103 113q20 20 27 20t29 -43t42 -76t44 -67t37 -51t15 -21q-10 -42 -25 -42zM574 774q-114 0 -209 -173t-95 -327t82 -154q68 0 145 144t107 298l38 192q-18 20 -68 20z
M674 884q98 0 166 -36l-118 -614q-6 -18 -6 -58t20 -40t54 27t55 49t31 32q4 0 18 -19t14 -27q-22 -48 -125 -130t-175 -82q-38 0 -63 29t-25 67t16 118q-34 -60 -82 -114q-87 -98 -178 -98q-90 0 -147 80t-57 211t83 273t225 237t294 95z" />
    <glyph glyph-name="atilde" unicode="&#xe3;" horiz-adv-x="900" 
d="M477 1200q61 0 138 -57t133 -57q28 0 76 46l48 46q12 0 12 -31t-62 -100t-124 -69t-139 56t-135 56q-26 0 -74 -48t-55 -48t-7 26q0 50 64 115t125 65zM574 774q-114 0 -209 -173t-95 -327t82 -154q68 0 145 144t107 298l38 192q-18 20 -68 20zM674 884q98 0 166 -36
l-118 -614q-6 -18 -6 -58t20 -40t54 27t55 49t31 32q4 0 18 -19t14 -27q-22 -48 -125 -130t-175 -82q-38 0 -63 29t-25 67t16 118q-34 -60 -82 -114q-87 -98 -178 -98q-90 0 -147 80t-57 211t83 273t225 237t294 95z" />
    <glyph glyph-name="adieresis" unicode="&#xe4;" horiz-adv-x="900" 
d="M368 1256q48 0 74 -33t26 -83t-40 -92t-87 -42t-70 32t-23 82t36 93t84 43zM748 1256q48 0 74 -33t26 -83t-40 -92t-87 -42t-70 32t-23 82t36 93t84 43zM574 774q-114 0 -209 -173t-95 -327t82 -154q68 0 145 144t107 298l38 192q-18 20 -68 20zM674 884q98 0 166 -36
l-118 -614q-6 -18 -6 -58t20 -40t54 27t55 49t31 32q4 0 18 -19t14 -27q-22 -48 -125 -130t-175 -82q-38 0 -63 29t-25 67t16 118q-34 -60 -82 -114q-87 -98 -178 -98q-90 0 -147 80t-57 211t83 273t225 237t294 95z" />
    <glyph glyph-name="aring" unicode="&#xe5;" horiz-adv-x="900" 
d="M670 1400q74 0 115 -45t41 -125t-70 -152t-145 -72t-117 46t-42 127t72 151t146 70zM532 1187q0 -99 92 -99q46 0 84 43t38 97q0 92 -91 92q-47 0 -85 -43t-38 -90zM574 774q-114 0 -209 -173t-95 -327t82 -154q68 0 145 144t107 298l38 192q-18 20 -68 20zM674 884
q98 0 166 -36l-118 -614q-6 -18 -6 -58t20 -40t54 27t55 49t31 32q4 0 18 -19t14 -27q-22 -48 -125 -130t-175 -82q-38 0 -63 29t-25 67t16 118q-34 -60 -82 -114q-87 -98 -178 -98q-90 0 -147 80t-57 211t83 273t225 237t294 95z" />
    <glyph glyph-name="ae" unicode="&#xe6;" horiz-adv-x="1154" 
d="M232 198q0 -80 82 -80q52 0 91 43t49 95l22 122q-244 -50 -244 -180zM954 884q88 0 136 -54t48 -131t-90 -151t-191 -109t-167 -35q-16 0 -16 -30q0 -134 47 -198t109 -64q38 0 81 35t72 70t31 35q4 -2 16 -23t12 -29q-16 -48 -105 -130t-175 -82t-147 42t-93 106
q-84 -152 -264 -152q-94 0 -159 50t-65 142t66 150q34 30 64 52q35 26 133 58q98 33 183 50q18 6 22 30l24 132q6 20 6 54t-21 60t-61 26t-85 -47t-57 -119q-6 -28 -37 -45t-69 -17q-68 0 -68 52q0 82 130 178t262 96t168 -100q120 98 260 98zM954 707q0 81 -49 81t-106 -49
t-84 -112t-27 -115q0 -8 10 -8q88 0 172 61t84 142z" />
    <glyph glyph-name="ccedilla" unicode="&#xe7;" horiz-adv-x="696" 
d="M531 884q115 0 197 -80q8 -32 8 -64t-22 -62t-54 -30t-52 22t-29 48t-28 48t-47 22q-52 0 -108 -65t-94 -173t-38 -218q0 -208 128 -208q44 0 92 28t69 49l35 35q4 0 18 -19t14 -27q-26 -52 -121 -127t-183 -75q-10 0 -19 1l-35 -45q36 2 58 2t45 -25t23 -75t-60 -114
t-172 -64q-56 0 -82 18q-4 12 -4 33t12 33t25 12t38 -17t57 -17t60 25t28 53q0 56 -46 56q-22 0 -60 -14q-4 0 -12 12t-4 21t34 49t46 63q-76 17 -130 89t-54 213t67 277t176 223t224 87z" />
    <glyph glyph-name="egrave" unicode="&#xe8;" horiz-adv-x="712" 
d="M590 1008q-32 0 -178 86t-146 134q0 28 35 51t63 23t42 -10q34 -32 122 -133t88 -112t-9 -25t-17 -14zM564 709q0 79 -48 79q-72 0 -149 -121t-77 -211q0 -8 8 -8q82 0 174 91t92 170zM528 884q104 0 163 -49t59 -131t-95 -168t-203 -130t-172 -44q-8 0 -8 -46
q0 -192 128 -192q44 0 92 28t69 49l35 35q4 0 18 -19t14 -27q-26 -52 -121 -127t-183 -75q-124 0 -188 83t-64 225t67 277t176 223t213 88z" />
    <glyph glyph-name="eacute" unicode="&#xe9;" horiz-adv-x="712" 
d="M432 1008q-6 0 -14 12t-8 22t85 109t135 141q16 8 46 8t58 -21t28 -47q0 -48 -151 -136t-179 -88zM564 709q0 79 -48 79q-72 0 -149 -121t-77 -211q0 -8 8 -8q82 0 174 91t92 170zM528 884q104 0 163 -49t59 -131t-95 -168t-203 -130t-172 -44q-8 0 -8 -46
q0 -192 128 -192q44 0 92 28t69 49l35 35q4 0 18 -19t14 -27q-26 -52 -121 -127t-183 -75q-124 0 -188 83t-64 225t67 277t176 223t213 88z" />
    <glyph glyph-name="ecircumflex" unicode="&#xea;" horiz-adv-x="712" 
d="M665 1008q-15 0 -75 47t-100 85q-50 -38 -129 -85t-93 -47q-8 0 -11 16t1 26q4 4 36 31t99 94t103 113q20 20 27 20t29 -43t42 -76t44 -67t37 -51t15 -21q-10 -42 -25 -42zM564 709q0 79 -48 79q-72 0 -149 -121t-77 -211q0 -8 8 -8q82 0 174 91t92 170zM528 884
q104 0 163 -49t59 -131t-95 -168t-203 -130t-172 -44q-8 0 -8 -46q0 -192 128 -192q44 0 92 28t69 49l35 35q4 0 18 -19t14 -27q-26 -52 -121 -127t-183 -75q-124 0 -188 83t-64 225t67 277t176 223t213 88z" />
    <glyph glyph-name="edieresis" unicode="&#xeb;" horiz-adv-x="712" 
d="M260 1256q48 0 74 -33t26 -83t-40 -92t-87 -42t-70 32t-23 82t36 93t84 43zM640 1256q48 0 74 -33t26 -83t-40 -92t-87 -42t-70 32t-23 82t36 93t84 43zM564 709q0 79 -48 79q-72 0 -149 -121t-77 -211q0 -8 8 -8q82 0 174 91t92 170zM528 884q104 0 163 -49t59 -131
t-95 -168t-203 -130t-172 -44q-8 0 -8 -46q0 -192 128 -192q44 0 92 28t69 49l35 35q4 0 18 -19t14 -27q-26 -52 -121 -127t-183 -75q-124 0 -188 83t-64 225t67 277t176 223t213 88z" />
    <glyph glyph-name="igrave" unicode="&#xec;" horiz-adv-x="558" 
d="M384 1008q-32 0 -178 86t-146 134q0 28 35 51t63 23t42 -10q34 -32 122 -133t88 -112t-9 -25t-17 -14zM288 884q58 0 95 -41t37 -110t-86 -499q-2 -8 -2 -34q0 -68 40 -68q22 0 68 66l48 66q6 0 22 -18t20 -34q-26 -66 -98 -147t-146 -81q-142 0 -142 170q0 48 10 98
l72 368q6 30 6 44q0 72 -48 72q-20 0 -66 -66l-46 -66q-6 0 -21 18t-19 34q26 66 98 147t158 81z" />
    <glyph glyph-name="iacute" unicode="&#xed;" horiz-adv-x="558" 
d="M212 1008q-6 0 -14 12t-8 22t85 109t135 141q16 8 46 8t58 -21t28 -47q0 -48 -151 -136t-179 -88zM288 884q58 0 95 -41t37 -110t-86 -499q-2 -8 -2 -34q0 -68 40 -68q22 0 68 66l48 66q6 0 22 -18t20 -34q-26 -66 -98 -147t-146 -81q-142 0 -142 170q0 48 10 98l72 368
q6 30 6 44q0 72 -48 72q-20 0 -66 -66l-46 -66q-6 0 -21 18t-19 34q26 66 98 147t158 81z" />
    <glyph glyph-name="icircumflex" unicode="&#xee;" horiz-adv-x="558" 
d="M503 1008q-15 0 -75 47t-100 85q-50 -38 -129 -85t-93 -47q-8 0 -11 16t1 26q4 4 36 31t99 94t103 113q20 20 27 20t29 -43t42 -76t44 -67t37 -51t15 -21q-10 -42 -25 -42zM288 884q58 0 95 -41t37 -110t-86 -499q-2 -8 -2 -34q0 -68 40 -68q22 0 68 66l48 66q6 0 22 -18
t20 -34q-26 -66 -98 -147t-146 -81q-142 0 -142 170q0 48 10 98l72 368q6 30 6 44q0 72 -48 72q-20 0 -66 -66l-46 -66q-6 0 -21 18t-19 34q26 66 98 147t158 81z" />
    <glyph glyph-name="idieresis" unicode="&#xef;" horiz-adv-x="558" 
d="M182 1256q48 0 75 -31t27 -81t-40 -94t-88 -44t-74 32t-26 82t39 93t87 43zM510 1254q48 0 75 -30t27 -80t-40 -95t-87 -45t-73 32t-26 82t38 93t86 43zM288 884q58 0 95 -41t37 -110t-86 -499q-2 -8 -2 -34q0 -68 40 -68q22 0 68 66l48 66q6 0 22 -18t20 -34
q-26 -66 -98 -147t-146 -81q-142 0 -142 170q0 48 10 98l72 368q6 30 6 44q0 72 -48 72q-20 0 -66 -66l-46 -66q-6 0 -21 18t-19 34q26 66 98 147t158 81z" />
    <glyph glyph-name="eth" unicode="&#xf0;" horiz-adv-x="840" 
d="M466 796q86 0 136 -50l4 -2q8 0 8 34q0 204 -132 374l-208 -200q-18 6 -36 25t-18 32t6 19l196 190q-56 54 -136 98q0 20 16 42t38 26q122 -68 156 -94l214 208q10 -4 31 -23t21 -33t-6 -22l-192 -188q248 -232 248 -570q0 -166 -48 -300t-122 -213q-151 -161 -316 -161
q-128 0 -209 90t-81 228q0 188 134 339t296 151zM498 700q-86 0 -150 -74q-120 -139 -120 -380q0 -80 31 -119t79 -39q86 0 148 88t88 222t26 184t-31 84t-71 34z" />
    <glyph glyph-name="ntilde" unicode="&#xf1;" horiz-adv-x="1004" 
d="M441 1200q61 0 138 -57t133 -57q28 0 76 46l48 46q12 0 12 -31t-62 -100t-124 -69t-139 56t-135 56q-26 0 -74 -48t-55 -48t-7 26q0 50 64 115t125 65zM376 884q38 0 63 -29t25 -73t-8 -88t-10 -56t-7 -38t-11 -60q44 90 157 217t189 127q136 0 136 -176q0 -72 -30 -216
l-52 -258q-6 -18 -6 -58t20 -40t63 34t75 74q6 0 19 -19t13 -27q-22 -48 -124 -130t-176 -82q-36 0 -61 29t-25 75t18 132l58 284q16 82 16 112q0 84 -48 84q-36 0 -101 -81t-127 -205t-82 -232l-40 -184q-32 -10 -86 -10t-94 10l120 620q8 44 8 78t-22 34t-65 -38t-61 -62
q-6 0 -19 20t-13 28q22 46 121 125t167 79z" />
    <glyph glyph-name="ograve" unicode="&#xf2;" horiz-adv-x="804" 
d="M612 1008q-32 0 -178 86t-146 134q0 28 35 51t63 23t42 -10q34 -32 122 -133t88 -112t-9 -25t-17 -14zM557 884q125 0 192 -85t67 -229t-66 -279t-173 -219t-233 -84t-193 84t-67 224t66 276t174 224t233 88zM515 790q-53 0 -110 -85t-89 -205t-31 -219q2 -197 99 -197
q64 0 120 89t85 208t27 223q0 186 -101 186z" />
    <glyph glyph-name="oacute" unicode="&#xf3;" horiz-adv-x="804" 
d="M412 1008q-6 0 -14 12t-8 22t85 109t135 141q16 8 46 8t58 -21t28 -47q0 -48 -151 -136t-179 -88zM557 884q125 0 192 -85t67 -229t-66 -279t-173 -219t-233 -84t-193 84t-67 224t66 276t174 224t233 88zM515 790q-53 0 -110 -85t-89 -205t-31 -219q2 -197 99 -197
q64 0 120 89t85 208t27 223q0 186 -101 186z" />
    <glyph glyph-name="ocircumflex" unicode="&#xf4;" horiz-adv-x="804" 
d="M705 1008q-15 0 -75 47t-100 85q-50 -38 -129 -85t-93 -47q-8 0 -11 16t1 26q4 4 36 31t99 94t103 113q20 20 27 20t29 -43t42 -76t44 -67t37 -51t15 -21q-10 -42 -25 -42zM557 884q125 0 192 -85t67 -229t-66 -279t-173 -219t-233 -84t-193 84t-67 224t66 276t174 224
t233 88zM515 790q-53 0 -110 -85t-89 -205t-31 -219q2 -197 99 -197q64 0 120 89t85 208t27 223q0 186 -101 186z" />
    <glyph glyph-name="otilde" unicode="&#xf5;" horiz-adv-x="804" 
d="M413 1200q61 0 138 -57t133 -57q28 0 76 46l48 46q12 0 12 -31t-62 -100t-124 -69t-139 56t-135 56q-26 0 -74 -48t-55 -48t-7 26q0 50 64 115t125 65zM557 884q125 0 192 -85t67 -229t-66 -279t-173 -219t-233 -84t-193 84t-67 224t66 276t174 224t233 88zM515 790
q-53 0 -110 -85t-89 -205t-31 -219q2 -197 99 -197q64 0 120 89t85 208t27 223q0 186 -101 186z" />
    <glyph glyph-name="odieresis" unicode="&#xf6;" horiz-adv-x="804" 
d="M324 1256q48 0 74 -33t26 -83t-40 -92t-87 -42t-70 32t-23 82t36 93t84 43zM704 1256q48 0 74 -33t26 -83t-40 -92t-87 -42t-70 32t-23 82t36 93t84 43zM557 884q125 0 192 -85t67 -229t-66 -279t-173 -219t-233 -84t-193 84t-67 224t66 276t174 224t233 88zM515 790
q-53 0 -110 -85t-89 -205t-31 -219q2 -197 99 -197q64 0 120 89t85 208t27 223q0 186 -101 186z" />
    <glyph glyph-name="divide" unicode="&#xf7;" horiz-adv-x="918" 
d="M908 564q8 0 8 -43t-46 -93h-856q-8 0 -8 40t48 96h854zM395 230q43 0 67 -26t24 -72t-35 -87t-78 -41t-67 29t-24 74t35 84t78 39zM541 988q43 0 67 -26t24 -72t-35 -87t-78 -41t-67 29t-24 74t35 84t78 39z" />
    <glyph glyph-name="oslash" unicode="&#xf8;" horiz-adv-x="812" 
d="M520 884q72 0 128 -38l28 38q8 2 38 -13t30 -27t-2 -14l-32 -44q72 -98 72 -230q0 -226 -141 -397t-333 -171q-74 0 -132 42l-32 -42q-14 0 -42 11t-28 25q0 6 6 12l38 54q-70 98 -70 234q0 218 140 389t332 171zM480 784q-90 0 -164 -148t-74 -312q0 -34 2 -52l318 452
q-28 60 -82 60zM356 88q90 0 161 148t71 316q0 40 -2 60l-320 -452q30 -72 90 -72z" />
    <glyph glyph-name="ugrave" unicode="&#xf9;" horiz-adv-x="984" 
d="M654 1008q-32 0 -178 86t-146 134q0 28 35 51t63 23t42 -10q34 -32 122 -133t88 -112t-9 -25t-17 -14zM366 884q38 0 62 -29t24 -83t-16 -124l-58 -284q-16 -86 -16 -112q0 -84 48 -84q34 0 98 81t123 205t81 234l38 182q34 10 87 10t93 -10l-122 -636q-4 -22 -4 -60
t19 -38t53 27t55 49t31 32q4 0 18 -19t14 -27q-22 -48 -125 -130t-175 -82q-38 0 -62 29t-24 71t8 88t10 58t7 38t11 60q-72 -144 -211 -274q-75 -70 -127 -70q-136 0 -136 174q0 74 30 216l48 244q8 36 8 74t-22 38t-64 -38t-62 -62q-4 0 -18 20t-14 28q22 46 122 125
t168 79z" />
    <glyph glyph-name="uacute" unicode="&#xfa;" horiz-adv-x="984" 
d="M470 1008q-6 0 -14 12t-8 22t85 109t135 141q16 8 46 8t58 -21t28 -47q0 -48 -151 -136t-179 -88zM366 884q38 0 62 -29t24 -83t-16 -124l-58 -284q-16 -86 -16 -112q0 -84 48 -84q34 0 98 81t123 205t81 234l38 182q34 10 87 10t93 -10l-122 -636q-4 -22 -4 -60t19 -38
t53 27t55 49t31 32q4 0 18 -19t14 -27q-22 -48 -125 -130t-175 -82q-38 0 -62 29t-24 71t8 88t10 58t7 38t11 60q-72 -144 -211 -274q-75 -70 -127 -70q-136 0 -136 174q0 74 30 216l48 244q8 36 8 74t-22 38t-64 -38t-62 -62q-4 0 -18 20t-14 28q22 46 122 125t168 79z" />
    <glyph glyph-name="ucircumflex" unicode="&#xfb;" horiz-adv-x="984" 
d="M733 1008q-15 0 -75 47t-100 85q-50 -38 -129 -85t-93 -47q-8 0 -11 16t1 26q4 4 36 31t99 94t103 113q20 20 27 20t29 -43t42 -76t44 -67t37 -51t15 -21q-10 -42 -25 -42zM366 884q38 0 62 -29t24 -83t-16 -124l-58 -284q-16 -86 -16 -112q0 -84 48 -84q34 0 98 81
t123 205t81 234l38 182q34 10 87 10t93 -10l-122 -636q-4 -22 -4 -60t19 -38t53 27t55 49t31 32q4 0 18 -19t14 -27q-22 -48 -125 -130t-175 -82q-38 0 -62 29t-24 71t8 88t10 58t7 38t11 60q-72 -144 -211 -274q-75 -70 -127 -70q-136 0 -136 174q0 74 30 216l48 244
q8 36 8 74t-22 38t-64 -38t-62 -62q-4 0 -18 20t-14 28q22 46 122 125t168 79z" />
    <glyph glyph-name="udieresis" unicode="&#xfc;" horiz-adv-x="984" 
d="M360 1256q48 0 74 -33t26 -83t-40 -92t-87 -42t-70 32t-23 82t36 93t84 43zM740 1256q48 0 74 -33t26 -83t-40 -92t-87 -42t-70 32t-23 82t36 93t84 43zM366 884q38 0 62 -29t24 -83t-16 -124l-58 -284q-16 -86 -16 -112q0 -84 48 -84q34 0 98 81t123 205t81 234l38 182
q34 10 87 10t93 -10l-122 -636q-4 -22 -4 -60t19 -38t53 27t55 49t31 32q4 0 18 -19t14 -27q-22 -48 -125 -130t-175 -82q-38 0 -62 29t-24 71t8 88t10 58t7 38t11 60q-72 -144 -211 -274q-75 -70 -127 -70q-136 0 -136 174q0 74 30 216l48 244q8 36 8 74t-22 38t-64 -38
t-62 -62q-4 0 -18 20t-14 28q22 46 122 125t168 79z" />
    <glyph glyph-name="yacute" unicode="&#xfd;" horiz-adv-x="968" 
d="M612 1008q-6 0 -14 12t-8 22t85 109t135 141q16 8 46 8t58 -21t28 -47q0 -48 -151 -136t-179 -88zM424 884q42 0 75 -52t54 -137q41 -165 56 -350t15 -251q56 68 130 213t74 257t-62 216q6 44 39 74t79 30t71 -43t25 -91q0 -152 -65 -328t-170 -326t-226 -276t-242 -199
t-209 -73q-52 0 -86 25t-34 76t40 83q66 -24 144 -24q158 0 260 140q44 60 44 227t-29 357t-85 272q-20 14 -78 -18q-21 0 -53 -15q-33 -15 -35 -15q4 10 48 64t111 109t109 55z" />
    <glyph glyph-name="thorn" unicode="&#xfe;" horiz-adv-x="996" 
d="M761 870q99 0 155 -68t56 -158q0 -158 -81 -313t-203 -249t-242 -94q-58 0 -81 14t-28 14t-11 -24l-46 -242q-4 -28 -4 -58q0 -52 54 -64q18 -4 64 -4q12 0 12 -24t-8 -36h-88q-142 0 -330 -20q-8 4 -8 32t10 28q56 0 72 20t42 126l158 810l-102 -60q-18 28 -18 48t10 26
q94 70 132 94l82 432q18 78 18 112q0 44 -98 44q-8 0 -8 12t8 28t12 16q52 0 159 29t141 47h8q16 0 16 -32q-36 -70 -58 -182l-80 -410q32 34 109 70t176 36zM656 742q-42 0 -92 -20t-79 -42t-31 -32l-76 -388q-10 -48 -10 -84t26 -68t66 -32q106 0 199 162t93 386
q0 54 -27 86t-69 32z" />
    <glyph glyph-name="ydieresis" unicode="&#xff;" horiz-adv-x="968" 
d="M482 1256q48 0 74 -33t26 -83t-40 -92t-87 -42t-70 32t-23 82t36 93t84 43zM862 1256q48 0 74 -33t26 -83t-40 -92t-87 -42t-70 32t-23 82t36 93t84 43zM424 884q42 0 75 -52t54 -137q41 -165 56 -350t15 -251q56 68 130 213t74 257t-62 216q6 44 39 74t79 30t71 -43
t25 -91q0 -152 -65 -328t-170 -326t-226 -276t-242 -199t-209 -73q-52 0 -86 25t-34 76t40 83q66 -24 144 -24q158 0 260 140q44 60 44 227t-29 357t-85 272q-20 14 -78 -18q-21 0 -53 -15q-33 -15 -35 -15q4 10 48 64t111 109t109 55z" />
    <glyph glyph-name="Amacron" unicode="&#x100;" horiz-adv-x="1296" 
d="M642 1464q-14 0 -14 16t17 55t29 39h500q18 0 3 -38t-24 -53t-11 -19h-500zM657 570q71 0 157 6q8 0 8 8q-6 40 -34 206t-32 194l-230 -404v-4q60 -6 131 -6zM193 6q-57 0 -213 -12q-4 8 -4 34t12 26q22 0 75 20t75 48t94 150l554 948q62 108 104 108q12 0 20 -8
l188 -1048q6 -32 28 -146q6 -30 47 -51t61 -21q4 0 4 -22t-8 -38q-222 12 -236 12t-242 -12q-2 2 -2 31t12 29q20 0 60 15t50 31q12 24 12 51t-40 295q0 10 -23 13t-136 3t-227 -6q-8 0 -15 -13t-90 -146t-83 -171t48 -55t72 -17q4 0 4 -18t-12 -42q-132 12 -189 12z" />
    <glyph glyph-name="amacron" unicode="&#x101;" horiz-adv-x="900" 
d="M410 1122h424q23 0 -22 -100l-16 -16h-427q-7 0 -3 20q24 96 44 96zM574 774q-114 0 -209 -173t-95 -327t82 -154q68 0 145 144t107 298l38 192q-18 20 -68 20zM674 884q98 0 166 -36l-118 -614q-6 -18 -6 -58t20 -40t54 27t55 49t31 32q4 0 18 -19t14 -27
q-22 -48 -125 -130t-175 -82q-38 0 -63 29t-25 67t16 118q-34 -60 -82 -114q-87 -98 -178 -98q-90 0 -147 80t-57 211t83 273t225 237t294 95z" />
    <glyph glyph-name="Abreve" unicode="&#x102;" horiz-adv-x="1296" 
d="M903 1456q-65 0 -112 46t-59 130q0 8 27 29t27 7q10 -44 49 -74t89 -30t100 30t76 74q0 4 11 3t21 -16t4 -37q-40 -70 -104 -116t-129 -46zM657 570q71 0 157 6q8 0 8 8q-6 40 -34 206t-32 194l-230 -404v-4q60 -6 131 -6zM193 6q-57 0 -213 -12q-4 8 -4 34t12 26
q22 0 75 20t75 48t94 150l554 948q62 108 104 108q12 0 20 -8l188 -1048q6 -32 28 -146q6 -30 47 -51t61 -21q4 0 4 -22t-8 -38q-222 12 -236 12t-242 -12q-2 2 -2 31t12 29q20 0 60 15t50 31q12 24 12 51t-40 295q0 10 -23 13t-136 3t-227 -6q-8 0 -15 -13t-90 -146
t-83 -171t48 -55t72 -17q4 0 4 -18t-12 -42q-132 12 -189 12z" />
    <glyph glyph-name="abreve" unicode="&#x103;" horiz-adv-x="900" 
d="M595 1004q-73 0 -121 55t-48 139v14q2 8 22 22t29 14t9 -8q2 -58 41 -94t91 -36t101 35t75 95q0 8 9 8t24 -14t13 -22q-35 -94 -104 -151q-68 -57 -141 -57zM574 774q-114 0 -209 -173t-95 -327t82 -154q68 0 145 144t107 298l38 192q-18 20 -68 20zM674 884
q98 0 166 -36l-118 -614q-6 -18 -6 -58t20 -40t54 27t55 49t31 32q4 0 18 -19t14 -27q-22 -48 -125 -130t-175 -82q-38 0 -63 29t-25 67t16 118q-34 -60 -82 -114q-87 -98 -178 -98q-90 0 -147 80t-57 211t83 273t225 237t294 95z" />
    <glyph glyph-name="Aogonek" unicode="&#x104;" horiz-adv-x="1298" 
d="M883 1328q17 0 25 -8l188 -1048q14 -84 26 -146q6 -30 52 -51t66 -21q4 0 4 -19t-12 -43q-186 12 -198 12q-104 0 -211 -92t-107 -172q0 -54 66 -54t129 48q21 16 27 15t-2 -29t-14 -34q-118 -132 -228 -132q-46 0 -77 32t-31 80q0 130 248 358q68 58 68 108
q0 20 -44 314q0 6 -16 11t-197 5t-181 -10q-2 -2 -72 -118t-70 -148q-15 -50 4 -73q18 -23 18 -29t10 -14t21 -11t22 -7t13 -4q0 -16 -2 -24q-14 -2 -45 -13t-55 -13q-142 4 -206 2h-120q0 24 4 28l64 48q116 84 146 134q4 6 38 62l548 948q22 38 53 73t48 35zM639 570
q101 0 187 6q8 0 8 8q-6 40 -33 206t-31 194l-232 -404q0 -10 101 -10z" />
    <glyph glyph-name="aogonek" unicode="&#x105;" horiz-adv-x="930" 
d="M622 884q60 0 115 -12t69 -24l-116 -612q-4 -20 -4 -40q0 -62 42 -62q22 0 68 66l48 64q6 0 22 -18t20 -34q-37 -90 -208 -248q-52 -48 -76 -74t-49 -68t-25 -78q0 -58 66 -58t129 48q21 16 27 15t-1 -29t-13 -34q-46 -52 -109 -92t-115 -40t-83 32t-31 78q0 130 192 330
q-72 14 -88 122q-2 20 2 56l2 34l-4 4l-4 -4q-152 -222 -280 -222q-100 0 -142 54t-42 175t97 285t237 275t254 111zM576 784q-66 0 -148 -93t-138 -221t-56 -222q0 -128 66 -128t153 139t111 273l34 188l4 36q0 28 -26 28z" />
    <glyph glyph-name="Cacute" unicode="&#x106;" horiz-adv-x="1220" 
d="M734 1430q-8 0 -17 10t-9 21t78 77t132 98q20 10 60 10t79 -16t39 -46q0 -36 -161 -95t-201 -59zM798 1334q180 0 430 -74q0 -12 -14 -134t-18 -138q-6 -30 -50 -30q-18 0 -26 6q-4 81 -52 160q-30 50 -100 81t-172 31q-200 0 -355 -218t-155 -512q0 -186 89 -304
t257 -118q238 0 350 138q34 42 50 70t18 28q8 0 27 -12t21 -24q-2 -4 -36 -95t-52 -109q-44 -42 -162 -67t-250 -25q-250 0 -399 157t-149 368t107 399t284 305t357 117z" />
    <glyph glyph-name="cacute" unicode="&#x107;" horiz-adv-x="696" 
d="M430 1008q-6 0 -14 12t-8 22t85 109t135 141q16 8 46 8t58 -21t28 -47q0 -48 -151 -136t-179 -88zM531 884q115 0 197 -80q8 -32 8 -64t-22 -62t-54 -30t-52 22t-29 48t-28 48t-47 22q-52 0 -108 -65t-94 -173t-38 -218q0 -208 128 -208q44 0 92 28t69 49l35 35
q4 0 18 -19t14 -27q-26 -52 -121 -127t-183 -75q-126 0 -189 84t-63 225t67 277t176 223t224 87z" />
    <glyph glyph-name="Ccircumflex" unicode="&#x108;" horiz-adv-x="1220" 
d="M1038 1456q-38 0 -212 120q-60 -36 -152 -78t-110 -42q-24 0 -12 38q2 2 104 73t174 143q22 18 33 18t18 -13q42 -78 98 -134q55 -55 71 -70t18 -17q-10 -38 -30 -38zM798 1334q180 0 430 -74q0 -12 -14 -134t-18 -138q-6 -30 -50 -30q-18 0 -26 6q-4 81 -52 160
q-30 50 -100 81t-172 31q-200 0 -355 -218t-155 -512q0 -186 89 -304t257 -118q238 0 350 138q34 42 50 70t18 28q8 0 27 -12t21 -24q-2 -4 -36 -95t-52 -109q-44 -42 -162 -67t-250 -25q-250 0 -399 157t-149 368t107 399t284 305t357 117z" />
    <glyph glyph-name="ccircumflex" unicode="&#x109;" horiz-adv-x="696" 
d="M687 1008q-15 0 -75 47t-100 85q-50 -38 -129 -85t-93 -47q-8 0 -11 16t1 26q4 4 36 31t99 94t103 113q20 20 27 20t29 -43t42 -76t44 -67t37 -51t15 -21q-10 -42 -25 -42zM531 884q115 0 197 -80q8 -32 8 -64t-22 -62t-54 -30t-52 22t-29 48t-28 48t-47 22
q-52 0 -108 -65t-94 -173t-38 -218q0 -208 128 -208q44 0 92 28t69 49l35 35q4 0 18 -19t14 -27q-26 -52 -121 -127t-183 -75q-126 0 -189 84t-63 225t67 277t176 223t224 87z" />
    <glyph glyph-name="Cdotaccent" unicode="&#x10a;" horiz-adv-x="1220" 
d="M870 1704q48 0 75 -36t18 -87t-51 -88t-90 -37t-75 36t-18 87t51 88t90 37zM798 1334q180 0 430 -74q0 -12 -14 -134t-18 -138q-6 -30 -50 -30q-18 0 -26 6q-4 81 -52 160q-30 50 -100 81t-172 31q-200 0 -355 -218t-155 -512q0 -186 89 -304t257 -118q238 0 350 138
q34 42 50 70t18 28q8 0 27 -12t21 -24q-2 -4 -36 -95t-52 -109q-44 -42 -162 -67t-250 -25q-250 0 -399 157t-149 368t107 399t284 305t357 117z" />
    <glyph glyph-name="cdotaccent" unicode="&#x10b;" horiz-adv-x="696" 
d="M526 1312q48 0 76 -37t19 -88t-51 -88t-90 -37t-75 36t-17 88t50 89t88 37zM531 884q115 0 197 -80q8 -32 8 -64t-22 -62t-54 -30t-52 22t-29 48t-28 48t-47 22q-52 0 -108 -65t-94 -173t-38 -218q0 -208 128 -208q44 0 92 28t69 49l35 35q4 0 18 -19t14 -27
q-26 -52 -121 -127t-183 -75q-126 0 -189 84t-63 225t67 277t176 223t224 87z" />
    <glyph glyph-name="Ccaron" unicode="&#x10c;" horiz-adv-x="1220" 
d="M1050 1728q20 0 10 -40q-89 -57 -246 -214q-18 -18 -26 -18t-21 25t-51 77t-73 90t-35 40q14 40 28 40t79 -44t103 -78q202 122 232 122zM798 1334q180 0 430 -74q0 -12 -14 -134t-18 -138q-6 -30 -50 -30q-18 0 -26 6q-4 81 -52 160q-30 50 -100 81t-172 31
q-200 0 -355 -218t-155 -512q0 -186 89 -304t257 -118q238 0 350 138q34 42 50 70t18 28q8 0 27 -12t21 -24q-2 -4 -36 -95t-52 -109q-44 -42 -162 -67t-250 -25q-250 0 -399 157t-149 368t107 399t284 305t357 117z" />
    <glyph glyph-name="ccaron" unicode="&#x10d;" horiz-adv-x="696" 
d="M743 1322q15 0 5 -46q-2 -2 -16 -15t-63 -59t-95 -105t-59 -75t-23 -16t-31 56t-119 214q12 46 26 46t70 -50t88 -90q50 40 126 90t91 50zM531 884q115 0 197 -80q8 -32 8 -64t-22 -62t-54 -30t-52 22t-29 48t-28 48t-47 22q-52 0 -108 -65t-94 -173t-38 -218
q0 -208 128 -208q44 0 92 28t69 49l35 35q4 0 18 -19t14 -27q-26 -52 -121 -127t-183 -75q-126 0 -189 84t-63 225t67 277t176 223t224 87z" />
    <glyph glyph-name="Dcaron" unicode="&#x10e;" horiz-adv-x="1372" 
d="M1028 1728q20 0 10 -40q-89 -57 -246 -214q-18 -18 -26 -18t-21 25t-51 77t-73 90t-35 40q14 40 28 40t79 -44t103 -78q202 122 232 122zM789 1216q-181 0 -211 -35t-46 -137l-148 -768q-26 -130 -8 -148q26 -32 224 -32t332 183t164 475q22 200 -52 331t-255 131z
M-16 26q0 28 14 28q20 0 69 17t57 33q28 60 48 172l148 760q24 122 20 170q-2 16 -45 37t-63 21q-2 0 -2 24t12 36q114 -8 238 -8h326q262 0 396 -144t134 -364q0 -136 -53 -277t-149 -262t-250 -198t-338 -77l-316 10l-242 -10q-4 4 -4 32z" />
    <glyph glyph-name="dcaron" unicode="&#x10f;" horiz-adv-x="928" 
d="M1118 1260q0 68 49 98t117 30q8 -16 8 -55t-11 -96t-79 -144t-124 -119h-8q-8 0 -17 12t-9 18t25 28q77 68 77 132q0 14 -14 43t-14 53zM582 774q-80 0 -153 -87t-113 -202t-40 -211q0 -154 82 -154q68 0 144 142t108 302l26 136q6 32 -10 53t-44 21zM78 278
q0 130 79 270t215 235t282 99h16l2 2l48 240q12 68 12 92q0 40 -110 40q-6 0 -6 20t16 36q62 4 155 27t139 41q16 -8 16 -29t-6 -51t-15 -69t-11 -55l-182 -942q-6 -18 -6 -58t20 -40t54 27t55 49t31 32q4 0 18 -19t14 -27q-24 -48 -126 -130t-174 -82q-38 0 -63 29t-25 68
t16 119q-128 -214 -250 -214q-102 0 -158 80t-56 210z" />
    <glyph glyph-name="Dcroat" unicode="&#x110;" horiz-adv-x="1380" 
d="M-8 11q0 15 6 34t10 19q24 0 70 12t54 28q28 60 48 172l62 320h-136q-12 0 -12 27t16 63t28 46h130l60 304q24 122 20 170q-2 16 -45 33t-63 17q-2 0 -2 25t18 43q108 -8 232 -8h326q262 0 396 -144t134 -364q0 -136 -53 -277t-149 -262t-250 -198t-338 -77l-316 10
l-242 -12q-4 4 -4 19zM797 1216q-179 0 -207 -32q-36 -44 -50 -140l-62 -312h230q12 0 12 -28t-16 -63t-28 -45h-224l-60 -320q-26 -130 -8 -148q26 -32 224 -32t332 183t164 475q20 200 -54 331t-253 131z" />
    <glyph glyph-name="dcroat" unicode="&#x111;" horiz-adv-x="1016" 
d="M554 790q-98 0 -202 -182t-104 -364q0 -124 80 -124q72 0 160 137t116 267l32 144q6 20 6 48t-25 51t-63 23zM572 880q44 0 92 -24q4 0 19 75t15 82t-6 7h-204l-6 2q-2 4 8 45t18 57l12 8h196q2 0 8 12q10 44 10 68q0 44 -98 44q-8 0 -8 13t8 28t12 15q54 0 158 28
t125 38t25 10q16 0 16 -32q-40 -70 -60 -180q-6 -28 -6 -36t8 -8h102q10 0 8 -16q-19 -87 -24 -92q-6 -4 -8 -4h-100q-8 0 -12 -12l-146 -756q-8 -32 -8 -50q0 -68 46 -68q22 0 68 66l44 64q6 0 22 -17t20 -33q-26 -70 -99 -150t-157 -80q-56 0 -90 38t-34 76t2 70l2 30
q0 8 -3 8t-7 -8q-38 -58 -128 -136t-179 -78t-143 59t-54 181t84 281t211 267t241 108z" />
    <glyph glyph-name="Emacron" unicode="&#x112;" horiz-adv-x="1088" 
d="M454 1464q-14 0 -14 16t17 55t29 39h500q18 0 3 -38t-24 -53t-11 -19h-500zM-16 26q0 28 14 28q20 0 69 17t57 33q28 60 48 172l148 760q24 122 20 170q-2 16 -45 37t-63 21q-2 0 -2 24t12 36q203 -14 474 -5q270 9 360 9q-4 -44 -4 -130l2 -154q-10 -10 -37 -10t-27 14
q-24 178 -210 178h-90q-130 0 -138 -26q-32 -90 -40 -144l-60 -330q0 -14 76 -14h124q90 0 113 18t65 114q6 16 31 16t33 -12l-72 -380q-8 -8 -34 -8t-28 16q-4 94 -26 115t-164 21t-146 -16l-58 -304q-18 -86 -18 -132t17 -54t103 -8h70q146 0 230 42q32 16 80 69t84 123
q6 12 37 12t39 -12q-148 -286 -166 -338l-632 10l-242 -10q-4 4 -4 32z" />
    <glyph glyph-name="emacron" unicode="&#x113;" horiz-adv-x="712" 
d="M304 1122h424q23 0 -22 -100l-16 -16h-427q-7 0 -3 20q24 96 44 96zM564 709q0 79 -48 79q-72 0 -149 -121t-77 -211q0 -8 8 -8q82 0 174 91t92 170zM528 884q104 0 163 -49t59 -131t-95 -168t-203 -130t-172 -44q-8 0 -8 -46q0 -192 128 -192q44 0 92 28t69 49l35 35
q4 0 18 -19t14 -27q-26 -52 -121 -127t-183 -75q-124 0 -188 83t-64 225t67 277t176 223t213 88z" />
    <glyph glyph-name="Ebreve" unicode="&#x114;" horiz-adv-x="1088" 
d="M691 1456q-65 0 -112 46t-59 130q0 8 27 29t27 7q10 -44 49 -74t89 -30t100 30t76 74q0 4 11 3t21 -16t4 -37q-40 -70 -104 -116t-129 -46zM-16 26q0 28 14 28q20 0 69 17t57 33q28 60 48 172l148 760q24 122 20 170q-2 16 -45 37t-63 21q-2 0 -2 24t12 36
q203 -14 474 -5q270 9 360 9q-4 -44 -4 -130l2 -154q-10 -10 -37 -10t-27 14q-24 178 -210 178h-90q-130 0 -138 -26q-32 -90 -40 -144l-60 -330q0 -14 76 -14h124q90 0 113 18t65 114q6 16 31 16t33 -12l-72 -380q-8 -8 -34 -8t-28 16q-4 94 -26 115t-164 21t-146 -16
l-58 -304q-18 -86 -18 -132t17 -54t103 -8h70q146 0 230 42q32 16 80 69t84 123q6 12 37 12t39 -12q-148 -286 -166 -338l-632 10l-242 -10q-4 4 -4 32z" />
    <glyph glyph-name="ebreve" unicode="&#x115;" horiz-adv-x="712" 
d="M499 1004q-73 0 -121 55t-48 139v14q2 8 22 22t29 14t9 -8q2 -58 41 -94t91 -36t101 35t75 95q0 8 9 8t24 -14t13 -22q-35 -94 -104 -151q-68 -57 -141 -57zM564 709q0 79 -48 79q-72 0 -149 -121t-77 -211q0 -8 8 -8q82 0 174 91t92 170zM528 884q104 0 163 -49t59 -131
t-95 -168t-203 -130t-172 -44q-8 0 -8 -46q0 -192 128 -192q44 0 92 28t69 49l35 35q4 0 18 -19t14 -27q-26 -52 -121 -127t-183 -75q-124 0 -188 83t-64 225t67 277t176 223t213 88z" />
    <glyph glyph-name="Edotaccent" unicode="&#x116;" horiz-adv-x="1088" 
d="M754 1704q48 0 75 -36t18 -87t-51 -88t-90 -37t-75 36t-18 87t51 88t90 37zM-16 26q0 28 14 28q20 0 69 17t57 33q28 60 48 172l148 760q24 122 20 170q-2 16 -45 37t-63 21q-2 0 -2 24t12 36q203 -14 474 -5q270 9 360 9q-4 -44 -4 -130l2 -154q-10 -10 -37 -10t-27 14
q-24 178 -210 178h-90q-130 0 -138 -26q-32 -90 -40 -144l-60 -330q0 -14 76 -14h124q90 0 113 18t65 114q6 16 31 16t33 -12l-72 -380q-8 -8 -34 -8t-28 16q-4 94 -26 115t-164 21t-146 -16l-58 -304q-18 -86 -18 -132t17 -54t103 -8h70q146 0 230 42q32 16 80 69t84 123
q6 12 37 12t39 -12q-148 -286 -166 -338l-632 10l-242 -10q-4 4 -4 32z" />
    <glyph glyph-name="edotaccent" unicode="&#x117;" horiz-adv-x="712" 
d="M538 1312q48 0 76 -37t19 -88t-51 -88t-90 -37t-75 36t-17 88t50 89t88 37zM564 709q0 79 -48 79q-72 0 -149 -121t-77 -211q0 -8 8 -8q82 0 174 91t92 170zM528 884q104 0 163 -49t59 -131t-95 -168t-203 -130t-172 -44q-8 0 -8 -46q0 -192 128 -192q44 0 92 28t69 49
l35 35q4 0 18 -19t14 -27q-26 -52 -121 -127t-183 -75q-124 0 -188 83t-64 225t67 277t176 223t213 88z" />
    <glyph glyph-name="Eogonek" unicode="&#x118;" horiz-adv-x="1084" 
d="M544 712h124q90 0 113 18t65 114q6 16 31 16t33 -12l-72 -380q-8 -8 -34 -8t-28 16q-4 94 -26 116q-26 20 -165 20t-143 -16l-60 -304q-16 -80 -16 -129t17 -57t103 -8h68q148 0 232 42q32 16 79 69t83 123q6 12 38 12t40 -12q-10 -20 -75 -139t-93 -199q-120 0 -217 -86
t-97 -168q0 -54 66 -54t129 48q21 16 27 15t-2 -29t-14 -34q-118 -132 -228 -132q-46 0 -77 31t-31 79q0 78 80 186t154 146l-434 8q-108 0 -162 -6t-68 -6q-2 2 -2 31t12 29q20 0 68 17t58 35q26 52 50 180l146 752q22 148 22 170q-2 16 -45 35t-63 19q-4 0 -4 23t14 37
q126 -6 238 -6l594 14q-2 -22 -2 -130v-154q-10 -10 -37 -10t-27 14q-24 178 -210 178h-90q-130 0 -138 -26q-28 -80 -38 -144l-62 -330q0 -14 76 -14z" />
    <glyph glyph-name="eogonek" unicode="&#x119;" horiz-adv-x="736" 
d="M472 790q-76 0 -164 -154q-24 -42 -42 -99t-18 -72t12 -15q82 0 169 86t87 170t-44 84zM244 -256q0 -58 67 -58t130 48q21 16 27 15t-2 -29t-14 -34q-46 -52 -109 -92t-115 -40t-83 32t-31 78q0 130 188 326q-116 6 -188 100t-72 232q0 218 149 390t325 172q88 0 136 -54
t48 -131t-91 -162t-196 -130t-169 -45q-6 0 -6 -18q0 -124 45 -177t96 -53t93 33t70 67t32 34t17 -17t11 -32t-38 -58t-82 -83q-238 -204 -238 -314z" />
    <glyph glyph-name="Ecaron" unicode="&#x11a;" horiz-adv-x="1088" 
d="M988 1728q20 0 10 -40q-89 -57 -246 -214q-18 -18 -26 -18t-21 25t-51 77t-73 90t-35 40q14 40 28 40t79 -44t103 -78q202 122 232 122zM-16 26q0 28 14 28q20 0 69 17t57 33q28 60 48 172l148 760q24 122 20 170q-2 16 -45 37t-63 21q-2 0 -2 24t12 36q203 -14 474 -5
q270 9 360 9q-4 -44 -4 -130l2 -154q-10 -10 -37 -10t-27 14q-24 178 -210 178h-90q-130 0 -138 -26q-32 -90 -40 -144l-60 -330q0 -14 76 -14h124q90 0 113 18t65 114q6 16 31 16t33 -12l-72 -380q-8 -8 -34 -8t-28 16q-4 94 -26 115t-164 21t-146 -16l-58 -304
q-18 -86 -18 -132t17 -54t103 -8h70q146 0 230 42q32 16 80 69t84 123q6 12 37 12t39 -12q-148 -286 -166 -338l-632 10l-242 -10q-4 4 -4 32z" />
    <glyph glyph-name="ecaron" unicode="&#x11b;" horiz-adv-x="712" 
d="M729 1322q15 0 5 -46q-2 -2 -16 -15t-63 -59t-95 -105t-59 -75t-23 -16t-31 56t-119 214q12 46 26 46t70 -50t88 -90q50 40 126 90t91 50zM564 709q0 79 -48 79q-72 0 -149 -121t-77 -211q0 -8 8 -8q82 0 174 91t92 170zM528 884q104 0 163 -49t59 -131t-95 -168
t-203 -130t-172 -44q-8 0 -8 -46q0 -192 128 -192q44 0 92 28t69 49l35 35q4 0 18 -19t14 -27q-26 -52 -121 -127t-183 -75q-124 0 -188 83t-64 225t67 277t176 223t213 88z" />
    <glyph glyph-name="Gcircumflex" unicode="&#x11c;" horiz-adv-x="1290" 
d="M1028 1456q-38 0 -212 120q-60 -36 -152 -78t-110 -42q-24 0 -12 38q2 2 104 73t174 143q22 18 33 18t18 -13q41 -77 97 -133t72 -71t18 -17q-10 -38 -30 -38zM800 1334q182 0 432 -74q-6 -44 -18 -162t-15 -134t-35 -16t-44 12q0 62 -25 116t-57 84t-94 53t-155 23
t-182 -56t-146 -140t-98 -185q-77 -190 -77 -353q0 -164 89 -291t255 -127q136 0 198 46q16 12 20 38q52 266 52 320q0 24 -56 39t-82 15q-4 0 -4 23t14 37q230 -10 267 -10t227 10q0 -60 -14 -60q-54 0 -112 -34q-28 -18 -34 -48q-38 -215 -38 -256v-54q0 -38 -68 -68
t-106 -44t-141 -34t-223 -20q-210 0 -344 161t-134 373t105 398t283 302t360 116z" />
    <glyph glyph-name="gcircumflex" unicode="&#x11d;" horiz-adv-x="898" 
d="M707 1008q-15 0 -75 47t-100 85q-50 -38 -129 -85t-93 -47q-8 0 -11 16t1 26q4 4 36 31t99 94t103 113q20 20 27 20t29 -43t42 -76t44 -67t37 -51t15 -21q-10 -42 -25 -42zM422 189q-42 -23 -42 -44t103 -48t163 -51t102 -68t42 -104q0 -130 -124 -228t-354 -98
q-140 0 -231 57t-91 145q0 136 260 230q-20 4 -60 33t-40 68t70 85t146 72q-82 14 -140 82t-58 158q0 164 120 285t278 121q54 0 126 -26t142 -26h96q14 0 15 -32t-21 -60h-106q-12 0 -12 -12l10 -104q0 -181 -131 -293q-27 -23 -55 -43q-32 -18 -99 -47t-109 -52zM524 786
q-50 0 -90 -53q-78 -103 -78 -269q0 -64 26 -103t77 -39t91 53q76 101 76 249q0 68 -26 115t-76 47zM616 -216q0 98 -282 164q-126 -52 -154 -99q-16 -27 -16 -57q0 -152 228 -152q106 0 165 42t59 102z" />
    <glyph glyph-name="Gbreve" unicode="&#x11e;" horiz-adv-x="1290" 
d="M793 1456q-65 0 -112 46t-59 130q0 8 27 29t27 7q10 -44 49 -74t89 -30t100 30t76 74q0 4 11 3t21 -16t4 -37q-40 -70 -104 -116t-129 -46zM800 1334q182 0 432 -74q-6 -44 -18 -162t-15 -134t-35 -16t-44 12q0 62 -25 116t-57 84t-94 53t-155 23t-182 -56t-146 -140
t-98 -185q-77 -190 -77 -353q0 -164 89 -291t255 -127q136 0 198 46q16 12 20 38q52 266 52 320q0 24 -56 39t-82 15q-4 0 -4 23t14 37q230 -10 267 -10t227 10q0 -60 -14 -60q-54 0 -112 -34q-28 -18 -34 -48q-38 -215 -38 -256v-54q0 -38 -68 -68t-106 -44t-141 -34
t-223 -20q-210 0 -344 161t-134 373t105 398t283 302t360 116z" />
    <glyph glyph-name="gbreve" unicode="&#x11f;" horiz-adv-x="898" 
d="M567 1006q-73 0 -121 55t-48 139v14q2 8 22 22t29 14t9 -8q2 -58 41 -94t91 -36t101 35t75 95q0 8 9 8t24 -14t13 -22q-35 -94 -104 -151q-68 -57 -141 -57zM422 189q-42 -23 -42 -44t103 -48t163 -51t102 -68t42 -104q0 -130 -124 -228t-354 -98q-140 0 -231 57t-91 145
q0 136 260 230q-20 4 -60 33t-40 68t70 85t146 72q-82 14 -140 82t-58 158q0 164 120 285t278 121q54 0 126 -26t142 -26h96q14 0 15 -32t-21 -60h-106q-12 0 -12 -12l10 -104q0 -181 -131 -293q-27 -23 -55 -43q-32 -18 -99 -47t-109 -52zM524 786q-50 0 -90 -53
q-78 -103 -78 -269q0 -64 26 -103t77 -39t91 53q76 101 76 249q0 68 -26 115t-76 47zM616 -216q0 98 -282 164q-126 -52 -154 -99q-16 -27 -16 -57q0 -152 228 -152q106 0 165 42t59 102z" />
    <glyph glyph-name="Gdotaccent" unicode="&#x120;" horiz-adv-x="1290" 
d="M818 1704q48 0 75 -36t18 -87t-51 -88t-90 -37t-75 36t-18 87t51 88t90 37zM800 1334q182 0 432 -74q-6 -44 -18 -162t-15 -134t-35 -16t-44 12q0 62 -25 116t-57 84t-94 53t-155 23t-182 -56t-146 -140t-98 -185q-77 -190 -77 -353q0 -164 89 -291t255 -127
q136 0 198 46q16 12 20 38q52 266 52 320q0 24 -56 39t-82 15q-4 0 -4 23t14 37q230 -10 267 -10t227 10q0 -60 -14 -60q-54 0 -112 -34q-28 -18 -34 -48q-38 -215 -38 -256v-54q0 -38 -68 -68t-106 -44t-141 -34t-223 -20q-210 0 -344 161t-134 373t105 398t283 302
t360 116z" />
    <glyph glyph-name="gdotaccent" unicode="&#x121;" horiz-adv-x="898" 
d="M586 1312q48 0 76 -37t19 -88t-51 -88t-90 -37t-75 36t-17 88t50 89t88 37zM422 189q-42 -23 -42 -44t103 -48t163 -51t102 -68t42 -104q0 -130 -124 -228t-354 -98q-140 0 -231 57t-91 145q0 136 260 230q-20 4 -60 33t-40 68t70 85t146 72q-82 14 -140 82t-58 158
q0 164 120 285t278 121q54 0 126 -26t142 -26h96q14 0 15 -32t-21 -60h-106q-12 0 -12 -12l10 -104q0 -181 -131 -293q-27 -23 -55 -43q-32 -18 -99 -47t-109 -52zM524 786q-50 0 -90 -53q-78 -103 -78 -269q0 -64 26 -103t77 -39t91 53q76 101 76 249q0 68 -26 115t-76 47z
M616 -216q0 98 -282 164q-126 -52 -154 -99q-16 -27 -16 -57q0 -152 228 -152q106 0 165 42t59 102z" />
    <glyph glyph-name="Gcommaaccent" unicode="&#x122;" horiz-adv-x="1290" 
d="M478 -204q0 46 58 72t126 26q24 -28 24 -97t-67 -145t-139 -106h-4q-6 -2 -13 -2t-20 8t-13 12t26 23q78 57 78 98t-28 63t-28 48zM800 1334q182 0 432 -74q-6 -44 -18 -162t-15 -134t-35 -16t-44 12q0 62 -25 116t-57 84t-94 53t-155 23t-182 -56t-146 -140t-98 -185
q-77 -190 -77 -353q0 -164 89 -291t255 -127q136 0 198 46q16 12 20 38q52 266 52 320q0 24 -56 39t-82 15q-4 0 -4 23t14 37q230 -10 267 -10t227 10q0 -60 -14 -60q-54 0 -112 -34q-28 -18 -34 -48q-38 -215 -38 -256v-54q0 -38 -68 -68t-106 -44t-141 -34t-223 -20
q-210 0 -344 161t-134 373t105 398t283 302t360 116z" />
    <glyph glyph-name="gcommaaccent" unicode="&#x123;" horiz-adv-x="898" 
d="M696 1116q0 -46 -58 -72t-126 -26q-24 28 -24 97t67 145t139 106l4 2h8q12 0 25 -8t13 -12t-26 -23q-78 -57 -78 -97t28 -62t28 -50zM422 189q-42 -23 -42 -44t103 -48t163 -51t102 -68t42 -104q0 -130 -124 -228t-354 -98q-140 0 -231 57t-91 145q0 136 260 230
q-20 4 -60 33t-40 68t70 85t146 72q-82 14 -140 82t-58 158q0 164 120 285t278 121q54 0 126 -26t142 -26h96q14 0 15 -32t-21 -60h-106q-12 0 -12 -12l10 -104q0 -181 -131 -293q-27 -23 -55 -43q-32 -18 -99 -47t-109 -52zM524 786q-50 0 -90 -53q-78 -103 -78 -269
q0 -64 26 -103t77 -39t91 53q76 101 76 249q0 68 -26 115t-76 47zM616 -216q0 98 -282 164q-126 -52 -154 -99q-16 -27 -16 -57q0 -152 228 -152q106 0 165 42t59 102z" />
    <glyph glyph-name="Hcircumflex" unicode="&#x124;" horiz-adv-x="1418" 
d="M1088 1456q-38 0 -212 120q-60 -36 -152 -78t-110 -42q-24 0 -12 38q2 2 104 73t174 143q22 18 33 18t18 -13q42 -78 97 -133q56 -56 72 -71t18 -17q-10 -38 -30 -38zM-16 26q0 28 12 28q24 0 69 13t55 31q32 62 52 178l148 764q20 104 20 164q0 26 -40 43t-64 17
q-4 0 -4 23t14 37q210 -10 244 -10t224 10v-8q0 -52 -15 -52t-64 -17t-57 -31q-32 -70 -50 -178l-54 -286v-2q0 -14 252 -14t254 12l56 292q20 104 20 168q0 28 -38 42t-66 14q-4 0 -4 22t16 38q210 -10 244 -10t224 10v-10q0 -50 -14 -50t-63 -17t-57 -31q-26 -58 -50 -178
l-148 -760q-24 -114 -24 -170q0 -22 43 -38t61 -16q4 0 4 -18t-14 -42q-222 12 -230 12l-236 -12q-4 4 -4 32t12 28q22 0 68 14t56 32q32 64 52 176l64 336l2 2q0 14 -204 14t-253 -3t-51 -17l-64 -330q-22 -122 -22 -170q0 -22 43 -38t61 -16q4 0 4 -18t-14 -42
q-222 12 -230 12l-236 -12q-4 4 -4 32z" />
    <glyph glyph-name="hcircumflex" unicode="&#x125;" horiz-adv-x="930" 
d="M600 1456q-38 0 -212 120q-60 -36 -152 -78t-110 -42q-24 0 -12 38q2 2 104 73t174 143q22 18 33 18t18 -13q42 -78 98 -134q55 -55 71 -70t18 -17q-10 -38 -30 -38zM698 884q136 0 136 -176q0 -72 -30 -216l-52 -258q-6 -18 -6 -58t20 -40t63 34t75 74q6 0 19 -19
t13 -27q-22 -48 -124 -130t-176 -82q-36 0 -61 29t-25 75t18 132l56 284q18 92 18 112q0 84 -48 84q-36 0 -101 -81t-127 -205t-82 -232l-40 -184q-32 -10 -86 -10t-94 10q222 1154 222 1162q6 50 -40 74q0 15 -30 21q-30 7 -34 7q-2 14 6 28q115 33 174 60q22 0 68 4t68 2
q4 -15 -4 -60q-8 -44 -8 -48t-16 -86t-32 -170t-18 -98q14 28 2 -30q-38 -185 -54 -232q20 42 -2 -38l-16 -54q44 90 158 216t190 126z" />
    <glyph glyph-name="Hbar" unicode="&#x126;" horiz-adv-x="1418" 
d="M716 1312q0 -14 -5 -33t-11 -19q-16 0 -64 -16t-56 -30q-26 -52 -52 -182l252 -4l254 4q22 118 22 178q-2 24 -39 37t-65 13q-6 0 -6 23t14 37q180 -12 244 -12l228 12v-20q0 -40 -16 -40t-64 -16t-56 -30q-20 -38 -48 -182l98 2h5q12 0 9 -14q-14 -58 -38 -82l-22 -8
l-72 2l-128 -656q-20 -114 -20 -172q0 -18 43 -35t61 -17q2 0 2 -21t-14 -39q-222 12 -228 12l-240 -12q-4 4 -4 32t12 28q22 0 70 15t58 31q18 36 48 170l60 310v6q0 8 -251 8t-255 -14l-58 -302q-20 -114 -20 -172q0 -18 43 -35t61 -17q2 0 2 -20t-12 -40q-222 12 -234 12
l-240 -12v22q0 38 12 38q22 0 68 14t56 30q22 42 50 172l130 664l-100 -2h-4t-6 3t4 36t30 55l22 10q62 -2 70 -2q24 128 24 174q-2 24 -43 39t-65 15v16q0 32 12 44l232 -12q12 0 240 12v-8zM466 708q0 -10 253 -10t255 10l42 224l-252 2l-256 -2l-42 -220v-4z" />
    <glyph glyph-name="hbar" unicode="&#x127;" horiz-adv-x="944" 
d="M440 1130h200q10 0 10 -5v-9q-2 -4 -4 -33t-11 -47t-19 -18h-200q-8 0 -10 -10q-88 -454 -88 -456l2 -2l2 2q41 76 105 161q130 171 231 171q68 0 100 -49t32 -119t-28 -200l-52 -282q-2 -6 -2 -34q0 -68 42 -68q22 0 70 66l46 66q6 0 21 -18t19 -34q-26 -66 -98 -147
t-158 -81q-58 0 -94 42t-36 112t39 248t39 228q0 88 -48 88q-58 0 -162 -177t-146 -373l-32 -152q-34 -10 -92 -10t-88 10q194 1006 194 1012t-8 6h-100l-4 -2q-10 0 -6 20q18 68 24 84l12 10h98q6 0 10 12q2 12 7 39t5 31q0 44 -98 44q-10 0 -10 13t7 28t13 15q54 0 158 29
t142 47h10q14 0 14 -32q-38 -80 -58 -176q0 -26 -6 -38q0 -12 6 -12z" />
    <glyph glyph-name="Itilde" unicode="&#x128;" horiz-adv-x="700" 
d="M166 1476q-16 0 -6 40t48 86q86 92 162 92t168 -61t158 -61q34 0 89 51t59 51q14 0 8 -37t-52 -91q-78 -90 -157 -90t-169 61t-158 61q-32 0 -88 -51t-62 -51zM-16 26q0 28 12 28q24 0 69 13t55 31q32 62 52 178l148 764q20 104 20 164q0 26 -40 43t-64 17q-4 0 -4 23
t14 37q210 -10 244 -10t224 10v-8q0 -52 -15 -52t-64 -17t-57 -31q-20 -44 -50 -178l-146 -760q-22 -122 -22 -170q0 -22 43 -38t61 -16q4 0 4 -18t-14 -42q-222 12 -230 12l-236 -12q-4 4 -4 32z" />
    <glyph glyph-name="itilde" unicode="&#x129;" horiz-adv-x="558" 
d="M223 1200q61 0 138 -57t133 -57q28 0 76 46l48 46q12 0 12 -31t-62 -100t-124 -69t-139 56t-135 56q-26 0 -74 -48t-55 -48t-7 26q0 50 64 115t125 65zM288 884q58 0 95 -41t37 -110t-86 -499q-2 -8 -2 -34q0 -68 40 -68q22 0 68 66l48 66q6 0 22 -18t20 -34
q-26 -66 -98 -147t-146 -81q-142 0 -142 170q0 48 10 98l72 368q6 30 6 44q0 72 -48 72q-20 0 -66 -66l-46 -66q-6 0 -21 18t-19 34q26 66 98 147t158 81z" />
    <glyph glyph-name="Imacron" unicode="&#x12a;" horiz-adv-x="700" 
d="M244 1464q-14 0 -14 16t17 55t29 39h500q18 0 3 -38t-24 -53t-11 -19h-500zM-16 26q0 28 12 28q24 0 69 13t55 31q32 62 52 178l148 764q20 104 20 164q0 26 -40 43t-64 17q-4 0 -4 23t14 37q210 -10 244 -10t224 10v-8q0 -52 -15 -52t-64 -17t-57 -31q-20 -44 -50 -178
l-146 -760q-22 -122 -22 -170q0 -22 43 -38t61 -16q4 0 4 -18t-14 -42q-222 12 -230 12l-236 -12q-4 4 -4 32z" />
    <glyph glyph-name="imacron" unicode="&#x12b;" horiz-adv-x="558" 
d="M136 1122h424q23 0 -22 -100l-16 -16h-427q-7 0 -3 20q24 96 44 96zM288 884q58 0 95 -41t37 -110t-86 -499q-2 -8 -2 -34q0 -68 40 -68q22 0 68 66l48 66q6 0 22 -18t20 -34q-26 -66 -98 -147t-146 -81q-142 0 -142 170q0 48 10 98l72 368q6 30 6 44q0 72 -48 72
q-20 0 -66 -66l-46 -66q-6 0 -21 18t-19 34q26 66 98 147t158 81z" />
    <glyph glyph-name="Ibreve" unicode="&#x12c;" horiz-adv-x="700" 
d="M483 1456q-65 0 -112 46t-59 130q0 8 27 29t27 7q10 -44 49 -74t89 -30t100 30t76 74q0 4 11 3t21 -16t4 -37q-40 -70 -104 -116t-129 -46zM-16 26q0 28 12 28q24 0 69 13t55 31q32 62 52 178l148 764q20 104 20 164q0 26 -40 43t-64 17q-4 0 -4 23t14 37
q210 -10 244 -10t224 10v-8q0 -52 -15 -52t-64 -17t-57 -31q-20 -44 -50 -178l-146 -760q-22 -122 -22 -170q0 -22 43 -38t61 -16q4 0 4 -18t-14 -42q-222 12 -230 12l-236 -12q-4 4 -4 32z" />
    <glyph glyph-name="ibreve" unicode="&#x12d;" horiz-adv-x="558" 
d="M309 1004q-73 0 -121 55t-48 139v14q2 8 22 22t29 14t9 -8q2 -58 41 -94t91 -36t101 35t75 95q0 8 9 8t24 -14t13 -22q-35 -94 -104 -151q-68 -57 -141 -57zM288 884q58 0 95 -41t37 -110t-86 -499q-2 -8 -2 -34q0 -68 40 -68q22 0 68 66l48 66q6 0 22 -18t20 -34
q-26 -66 -98 -147t-146 -81q-142 0 -142 170q0 48 10 98l72 368q6 30 6 44q0 72 -48 72q-20 0 -66 -66l-46 -66q-6 0 -21 18t-19 34q26 66 98 147t158 81z" />
    <glyph glyph-name="Iogonek" unicode="&#x12e;" horiz-adv-x="712" 
d="M726 1312q0 -14 -5 -33t-11 -19q-16 0 -64 -17t-56 -31q-24 -54 -52 -178l-144 -756q-20 -110 -20 -170q0 -22 43 -39t53 -17t10 -18t-14 -42q-60 0 -92 -4q-90 -16 -176 -99t-86 -143t66 -60t129 48q21 16 27 15t-1 -29t-13 -34q-46 -52 -109 -92t-115 -40t-83 31
t-31 79q0 84 85 197t161 143q-60 0 -228 -12q-2 2 -2 31t12 29q22 0 68 14t56 32q28 56 50 178l146 760q20 104 20 164q0 26 -40 43t-64 17q-4 0 -4 22t16 38l228 -12q12 0 240 12v-8z" />
    <glyph glyph-name="iogonek" unicode="&#x12f;" horiz-adv-x="572" 
d="M404 1310q48 0 73 -29t25 -80t-39 -95t-86 -44t-73 31t-26 81t39 93t87 43zM200 -251q0 -63 67 -63t130 48q21 16 27 15t-2 -29t-14 -34q-46 -52 -109 -92t-115 -40t-83 32t-31 89t53 149t119 166q-100 20 -100 164q0 38 12 98l70 368q6 30 6 44q0 72 -48 72
q-20 0 -66 -66l-44 -66q-6 0 -22 18t-20 34q26 66 98 147t158 81q58 0 95 -41t37 -117t-44 -289q-44 -212 -44 -237q0 -66 42 -66q22 0 68 66l48 64q6 0 21 -18t19 -34q-28 -83 -155 -199q-173 -158 -173 -264z" />
    <glyph glyph-name="Idotaccent" unicode="&#x130;" horiz-adv-x="700" 
d="M536 1704q48 0 75 -36t18 -87t-51 -88t-90 -37t-75 36t-18 87t51 88t90 37zM-16 26q0 28 12 28q24 0 69 13t55 31q32 62 52 178l148 764q20 104 20 164q0 26 -40 43t-64 17q-4 0 -4 23t14 37q210 -10 244 -10t224 10v-8q0 -52 -15 -52t-64 -17t-57 -31q-20 -44 -50 -178
l-146 -760q-22 -122 -22 -170q0 -22 43 -38t61 -16q4 0 4 -18t-14 -42q-222 12 -230 12l-236 -12q-4 4 -4 32z" />
    <glyph glyph-name="dotlessi" unicode="&#x131;" horiz-adv-x="558" 
d="M288 884q58 0 95 -41t37 -110t-86 -499q-2 -8 -2 -34q0 -68 40 -68q22 0 68 66l48 66q6 0 22 -18t20 -34q-26 -66 -98 -147t-146 -81q-142 0 -142 170q0 48 10 98l72 368q6 30 6 44q0 72 -48 72q-20 0 -66 -66l-46 -66q-6 0 -21 18t-19 34q26 66 98 147t158 81z" />
    <glyph glyph-name="IJ" unicode="&#x132;" horiz-adv-x="1276" 
d="M912 1204q0 26 -40 43t-64 17q-4 0 -4 22t16 38q210 -10 244 -10t224 10v-8q0 -14 -5 -33t-11 -19q-16 0 -64 -17t-56 -31q-24 -54 -52 -178l-156 -814q-24 -130 -79 -241t-113 -181q-140 -169 -338 -254q-26 10 -26 37t4 35q266 204 336 568l164 852q20 104 20 164z
M-18 26q0 28 12 28q24 0 69 13t55 31q32 62 52 178l148 764q20 104 20 164q0 26 -40 43t-64 17q-4 0 -4 23t14 37q210 -10 244 -10t224 10v-8q0 -52 -15 -52t-64 -17t-57 -31q-20 -44 -50 -178l-146 -760q-22 -122 -22 -170q0 -22 43 -38t61 -16q4 0 4 -18t-14 -42
q-222 12 -230 12l-236 -12q-4 4 -4 32z" />
    <glyph glyph-name="ij" unicode="&#x133;" horiz-adv-x="1066" 
d="M971 1336q47 0 74 -31t27 -81t-40 -93t-87 -43t-72 30t-25 81t38 94t85 43zM904 884q38 0 62 -29t24 -78t-16 -129l-94 -484q-48 -250 -152 -390q-56 -76 -149 -141t-153 -85q-6 2 -14 23t-8 33q118 88 182 205t102 313l100 498q6 44 6 78t-22 34t-64 -38t-62 -62
q-4 0 -18 20t-14 28q22 46 122 125t168 79zM433 1332q47 0 74 -29t27 -79t-39 -94t-86 -44t-73 31t-26 81t38 92t85 42zM380 884q36 0 61 -29t25 -79t-16 -128l-82 -414q-4 -18 -4 -58t20 -40t54 27t55 49t31 32q4 0 18 -19t14 -27q-24 -48 -126 -130t-174 -82q-38 0 -63 29
t-25 77t16 130l78 398q8 42 8 77t-22 35t-64 -38t-62 -62q-4 0 -18 20t-14 28q22 46 121 125t169 79z" />
    <glyph glyph-name="Jcircumflex" unicode="&#x134;" horiz-adv-x="862" 
d="M872 1456q-38 0 -212 120q-60 -36 -152 -78t-110 -42q-24 0 -12 38q2 2 104 73t174 143q22 18 33 18t18 -13q42 -78 97 -133q56 -56 72 -71t18 -17q-10 -38 -30 -38zM500 1204q0 26 -40 43t-64 17q-4 0 -4 22t16 38q210 -10 244 -10t224 10v-8q0 -14 -5 -33t-11 -19
q-16 0 -64 -17t-56 -31q-24 -54 -52 -178l-156 -814q-24 -130 -79 -241t-113 -181q-140 -169 -338 -254q-26 10 -26 37t4 35q266 204 336 568l164 852q20 104 20 164z" />
    <glyph glyph-name="jcircumflex" unicode="&#x135;" horiz-adv-x="604" 
d="M621 1008q-15 0 -75 47t-100 85q-50 -38 -129 -85t-93 -47q-8 0 -11 16t1 26q4 4 36 31t99 94t103 113q20 20 27 20t29 -43t42 -76t44 -67t37 -51t15 -21q-10 -42 -25 -42zM424 884q58 0 95 -41t37 -110t-100 -569q-50 -250 -152 -390q-56 -76 -150 -141t-152 -85
q-24 18 -24 35t12 29q122 100 178 206t96 304l98 498q6 30 6 44q0 72 -48 72q-20 0 -66 -66l-46 -66q-6 0 -21 18t-19 34q26 66 98 147t158 81z" />
    <glyph glyph-name="Kcommaaccent" unicode="&#x136;" horiz-adv-x="1382" 
d="M436 -204q0 46 58 72t126 26q24 -28 24 -97t-67 -145t-139 -106h-4q-6 -2 -13 -2t-20 8t-13 12t26 23q78 57 78 98t-28 63t-28 48zM1046 1232q0 32 -98 32q-10 0 -10 22t10 38q136 -8 216 -8t232 8q0 -60 -16 -60q-150 -16 -216 -84l-460 -470q-14 -14 -14 -28t10 -30
l358 -468q48 -66 112 -96t110 -30q4 0 4 -17t-12 -41q-36 -6 -134 -6q-214 0 -298 126l-384 540q160 102 548 508q42 42 42 64zM-16 26q0 28 12 28q24 0 69 13t55 31q32 62 52 178l148 764q20 104 20 164q0 26 -40 43t-64 17q-4 0 -4 23t14 37q210 -10 244 -10t224 10v-8
q0 -52 -15 -52t-64 -17t-57 -31q-20 -44 -50 -178l-146 -760q-22 -122 -22 -170q0 -22 43 -38t61 -16q4 0 4 -18t-14 -42q-222 12 -228 12l-238 -12q-4 4 -4 32z" />
    <glyph glyph-name="kcommaaccent" unicode="&#x137;" horiz-adv-x="950" 
d="M272 -204q0 46 58 72t126 26q24 -28 24 -97t-67 -145t-139 -106h-4q-6 -2 -13 -2t-20 8t-13 12t26 23q78 57 78 98t-28 63t-28 48zM624 764q-48 0 -111 -60t-104 -127t-41 -93q0 -12 23 -12t54 5t80 17t89 42t50 72q22 32 9 94t-49 62zM854 61q-76 -69 -142 -69t-102 27
t-57 46t-45 51t-40 53t-38 59t-50 83t-40 77l-76 -388q-34 -12 -81 -12t-99 12l212 1104q20 88 20 112q0 40 -112 40q-4 0 -4 20t16 36q62 4 153 27t139 41q14 -8 14 -27t-30 -177l-96 -508q31 52 83 106q105 110 225 110q76 0 135 -45t59 -115q0 -126 -113 -213t-257 -107
q167 -282 242 -282q36 0 77 35t57 61q6 0 24 -18t18 -24q-16 -46 -92 -115z" />
    <glyph glyph-name="kgreenlandic" unicode="&#x138;" horiz-adv-x="970" 
d="M590 764q-72 0 -164 -117t-92 -163q0 -14 31 -14t103 17t120 47q80 54 80 132q0 38 -21 68t-57 30zM660 884q82 0 143 -48t61 -124q0 -128 -105 -205t-253 -99q92 -150 148 -218t99 -68t88 73q13 21 15 23t14 2t24 -8t16 -18q-20 -62 -78 -130t-157 -68t-213 134
q-64 76 -130 214l-22 44l-2 2q-2 0 -2 -4l-74 -386q-36 -12 -86 -12t-98 12l116 600q18 90 18 108q0 44 -96 44q-8 0 -8 12t7 28t11 16q52 0 160 29t142 47h8q14 0 14 -32q-36 -70 -58 -180q0 -10 4 -10l10 16q128 206 284 206z" />
    <glyph glyph-name="Lacute" unicode="&#x139;" horiz-adv-x="1056" 
d="M366 1430q-8 0 -17 10t-9 21t78 77t132 98q20 10 60 10t79 -16t39 -46q0 -36 -161 -95t-201 -59zM-16 26q0 28 14 28q20 0 69 17t57 33q28 60 48 172l148 760q24 122 20 170q-2 16 -45 37t-63 21q-2 0 -2 24t12 36q146 -8 234 -8t240 8v-8q0 -14 -5 -33t-11 -19
q-16 0 -64 -17t-56 -31q-36 -78 -52 -178l-146 -760q-16 -74 -16 -119t18 -53t104 -8h70q146 0 230 42q32 16 80 69t84 123q6 12 37 12t39 -12q-148 -286 -166 -338l-632 10l-242 -10q-4 4 -4 32z" />
    <glyph glyph-name="lacute" unicode="&#x13a;" horiz-adv-x="476" 
d="M286 1430q-8 0 -17 10t-9 21t78 77t132 98q20 10 60 10t79 -16t39 -46q0 -36 -161 -95t-201 -59zM296 1216q0 40 -110 40q-6 0 -6 20t16 36q62 4 154 27t140 41q16 -8 16 -32t-30 -172l-184 -942q-4 -22 -4 -60t19 -38t53 27t55 49t31 32q4 0 18 -19t14 -27
q-22 -48 -125 -130t-175 -82q-38 0 -62 29t-24 77t16 130l176 906q12 62 12 88z" />
    <glyph glyph-name="Lcommaaccent" unicode="&#x13b;" horiz-adv-x="1056" 
d="M382 -204q0 46 58 72t126 26q24 -28 24 -97t-67 -145t-139 -106h-4q-6 -2 -13 -2t-20 8t-13 12t26 23q78 57 78 98t-28 63t-28 48zM-16 26q0 28 14 28q20 0 69 17t57 33q28 60 48 172l148 760q24 122 20 170q-2 16 -45 37t-63 21q-2 0 -2 24t12 36q146 -8 234 -8t240 8
v-8q0 -14 -5 -33t-11 -19q-16 0 -64 -17t-56 -31q-36 -78 -52 -178l-146 -760q-16 -74 -16 -119t18 -53t104 -8h70q146 0 230 42q32 16 80 69t84 123q6 12 37 12t39 -12q-148 -286 -166 -338l-632 10l-242 -10q-4 4 -4 32z" />
    <glyph glyph-name="lcommaaccent" unicode="&#x13c;" horiz-adv-x="476" 
d="M42 -204q0 46 58 72t126 26q24 -28 24 -97t-67 -145t-139 -106h-4q-6 -2 -13 -2t-20 8t-13 12t26 23q78 57 78 98t-28 63t-28 48zM296 1216q0 40 -110 40q-6 0 -6 20t16 36q62 4 154 27t140 41q16 -8 16 -32t-30 -172l-184 -942q-4 -22 -4 -60t19 -38t53 27t55 49t31 32
q4 0 18 -19t14 -27q-22 -48 -125 -130t-175 -82q-38 0 -62 29t-24 77t16 130l176 906q12 62 12 88z" />
    <glyph glyph-name="Lcaron" unicode="&#x13d;" horiz-adv-x="1056" 
d="M1066 1260q0 68 49 98t117 30q8 -16 8 -55t-11 -96t-79 -144t-124 -119h-8q-8 0 -17 12t-9 18t25 28q77 68 77 132q0 14 -14 43t-14 53zM-16 26q0 28 14 28q20 0 69 17t57 33q28 60 48 172l148 760q24 122 20 170q-2 16 -45 37t-63 21q-2 0 -2 24t12 36q146 -8 234 -8
t240 8v-8q0 -14 -5 -33t-11 -19q-16 0 -64 -17t-56 -31q-36 -78 -52 -178l-146 -760q-16 -74 -16 -119t18 -53t104 -8h70q146 0 230 42q32 16 80 69t84 123q6 12 37 12t39 -12q-148 -286 -166 -338l-632 10l-242 -10q-4 4 -4 32z" />
    <glyph glyph-name="lcaron" unicode="&#x13e;" horiz-adv-x="476" 
d="M608 1260q0 68 49 98t117 30q8 -16 8 -55t-11 -96t-79 -144t-124 -119h-8q-8 0 -17 12t-9 18t25 28q77 68 77 132q0 14 -14 43t-14 53zM296 1216q0 40 -110 40q-6 0 -6 20t16 36q62 4 154 27t140 41q16 -8 16 -32t-30 -172l-184 -942q-4 -22 -4 -60t19 -38t53 27t55 49
t31 32q4 0 18 -19t14 -27q-22 -48 -125 -130t-175 -82q-38 0 -62 29t-24 77t16 130l176 906q12 62 12 88z" />
    <glyph glyph-name="Ldot" unicode="&#x13f;" horiz-adv-x="1056" 
d="M878 790q48 0 76 -37t19 -88t-51 -88t-90 -37t-75 36t-17 88t50 89t88 37zM-16 26q0 28 14 28q20 0 69 17t57 33q28 60 48 172l148 760q24 122 20 170q-2 16 -45 37t-63 21q-2 0 -2 24t12 36q146 -8 234 -8t240 8v-8q0 -14 -5 -33t-11 -19q-16 0 -64 -17t-56 -31
q-36 -78 -52 -178l-146 -760q-16 -74 -16 -119t18 -53t104 -8h70q146 0 230 42q32 16 80 69t84 123q6 12 37 12t39 -12q-148 -286 -166 -338l-632 10l-242 -10q-4 4 -4 32z" />
    <glyph glyph-name="ldot" unicode="&#x140;" horiz-adv-x="756" 
d="M634 736q48 0 76 -37t19 -88t-51 -88t-90 -37t-75 36t-17 88t50 89t88 37zM288 1216q0 40 -110 40q-6 0 -6 20t16 36q62 4 154 27t140 41q16 -8 16 -32t-30 -172l-184 -942q-4 -22 -4 -60t19 -38t53 27t55 49t31 32q4 0 18 -19t14 -27q-22 -48 -125 -130t-175 -82
q-38 0 -62 29t-24 77t16 130l176 906q12 62 12 88z" />
    <glyph glyph-name="Lslash" unicode="&#x141;" horiz-adv-x="1062" 
d="M465 1308q39 0 267 12q0 -60 -16 -60t-69 -17t-59 -31q-36 -80 -52 -174l-64 -346l340 224q10 0 23 -29t13 -46t-12 -25l-390 -250l-54 -282q-20 -102 -16 -160q2 -26 122 -26h68q146 0 230 42q34 16 82 70t82 122q6 12 37 12t39 -12q-148 -286 -166 -338l-634 10
l-248 -12q-6 6 -2 28q0 34 10 34q22 0 74 16t62 34q20 38 48 182l24 126l-106 -70q-6 0 -16 16t-15 41q-6 26 5 33l158 102l98 510q22 132 18 166q-4 16 -47 33t-63 17q-8 0 -4 25t14 35q180 -12 219 -12z" />
    <glyph glyph-name="lslash" unicode="&#x142;" horiz-adv-x="548" 
d="M514 778q0 -2 -8 -10l-146 -104l-82 -430q-4 -16 -4 -34q0 -68 42 -68q22 0 68 66l48 66q6 0 21 -18t19 -34q-26 -66 -98 -147t-146 -81q-142 0 -142 170q0 50 12 98l54 274l-102 -70q-4 0 -18 24t-12 43t8 23l148 102q88 434 88 456q18 99 18 108q0 44 -98 44
q-8 0 -8 12t7 28t11 16q52 0 160 29t142 47h8q14 0 14 -32q-36 -70 -58 -180l-76 -390l24 18q24 16 49 34t29 20q28 -28 28 -80z" />
    <glyph glyph-name="Nacute" unicode="&#x143;" horiz-adv-x="1526" 
d="M686 1430q-8 0 -17 10t-9 21t78 77t132 98q20 10 60 10t79 -16t39 -46q0 -36 -161 -95t-201 -59zM507 1316q85 0 165 8q23 -99 92 -241q70 -141 89 -181t56 -113t55 -109t59 -116t55 -110q10 26 20 82l96 500q20 116 20 148t-61 56t-91 24q-4 0 -4 25t14 35
q168 -8 242 -8t226 8q0 -60 -14 -60q-22 0 -83 -19t-85 -45q-30 -46 -52 -164l-150 -760q-14 -66 -29 -170t-17 -110q-8 -8 -33 -8t-53 44q-426 852 -522 1072l-164 -822q-20 -100 -20 -142t60 -64t88 -22q4 0 4 -18t-12 -42q-186 10 -220 10t-248 -10q-4 8 -4 17t5 26t9 17
q30 0 93 18t83 48q22 38 50 168l152 764q16 80 16 150q0 28 -55 45t-85 17q-6 0 -6 25t14 35q160 -8 245 -8z" />
    <glyph glyph-name="nacute" unicode="&#x144;" horiz-adv-x="1004" 
d="M490 1008q-6 0 -14 12t-8 22t85 109t135 141q16 8 46 8t58 -21t28 -47q0 -48 -151 -136t-179 -88zM376 884q38 0 63 -29t25 -73t-8 -88t-10 -56t-7 -38t-11 -60q44 90 157 217t189 127q136 0 136 -176q0 -72 -30 -216l-52 -258q-6 -18 -6 -58t20 -40t63 34t75 74
q6 0 19 -19t13 -27q-22 -48 -124 -130t-176 -82q-36 0 -61 29t-25 75t18 132l58 284q16 82 16 112q0 84 -48 84q-36 0 -101 -81t-127 -205t-82 -232l-40 -184q-32 -10 -86 -10t-94 10l120 620q8 44 8 78t-22 34t-65 -38t-61 -62q-6 0 -19 20t-13 28q22 46 121 125t167 79z
" />
    <glyph glyph-name="Ncommaaccent" unicode="&#x145;" horiz-adv-x="1526" 
d="M564 -204q0 46 58 72t126 26q24 -28 24 -97t-67 -145t-139 -106h-4q-6 -2 -13 -2t-20 8t-13 12t26 23q78 57 78 98t-28 63t-28 48zM507 1316q85 0 165 8q23 -99 92 -241q70 -141 89 -181t56 -113t55 -109t59 -116t55 -110q10 26 20 82l96 500q20 116 20 148t-61 56
t-91 24q-4 0 -4 25t14 35q168 -8 242 -8t226 8q0 -60 -14 -60q-22 0 -83 -19t-85 -45q-30 -46 -52 -164l-150 -760q-14 -66 -29 -170t-17 -110q-8 -8 -33 -8t-53 44q-426 852 -522 1072l-164 -822q-20 -100 -20 -142t60 -64t88 -22q4 0 4 -18t-12 -42q-186 10 -220 10
t-248 -10q-4 8 -4 17t5 26t9 17q30 0 93 18t83 48q22 38 50 168l152 764q16 80 16 150q0 28 -55 45t-85 17q-6 0 -6 25t14 35q160 -8 245 -8z" />
    <glyph glyph-name="ncommaaccent" unicode="&#x146;" horiz-adv-x="1004" 
d="M386 -204q0 46 58 72t126 26q24 -28 24 -97t-67 -145t-139 -106h-4q-6 -2 -13 -2t-20 8t-13 12t26 23q78 57 78 98t-28 63t-28 48zM376 884q38 0 63 -29t25 -73t-8 -88t-10 -56t-7 -38t-11 -60q44 90 157 217t189 127q136 0 136 -176q0 -72 -30 -216l-52 -258
q-6 -18 -6 -58t20 -40t63 34t75 74q6 0 19 -19t13 -27q-22 -48 -124 -130t-176 -82q-36 0 -61 29t-25 75t18 132l58 284q16 82 16 112q0 84 -48 84q-36 0 -101 -81t-127 -205t-82 -232l-40 -184q-32 -10 -86 -10t-94 10l120 620q8 44 8 78t-22 34t-65 -38t-61 -62
q-6 0 -19 20t-13 28q22 46 121 125t167 79z" />
    <glyph glyph-name="Ncaron" unicode="&#x147;" horiz-adv-x="1526" 
d="M1150 1728q20 0 10 -40q-89 -57 -246 -214q-18 -18 -26 -18t-21 25t-51 77t-73 90t-35 40q14 40 28 40t79 -44t103 -78q202 122 232 122zM507 1316q85 0 165 8q23 -99 92 -241q70 -141 89 -181t56 -113t55 -109t59 -116t55 -110q10 26 20 82l96 500q20 116 20 148t-61 56
t-91 24q-4 0 -4 25t14 35q168 -8 242 -8t226 8q0 -60 -14 -60q-22 0 -83 -19t-85 -45q-30 -46 -52 -164l-150 -760q-14 -66 -29 -170t-17 -110q-8 -8 -33 -8t-53 44q-426 852 -522 1072l-164 -822q-20 -100 -20 -142t60 -64t88 -22q4 0 4 -18t-12 -42q-186 10 -220 10
t-248 -10q-4 8 -4 17t5 26t9 17q30 0 93 18t83 48q22 38 50 168l152 764q16 80 16 150q0 28 -55 45t-85 17q-6 0 -6 25t14 35q160 -8 245 -8z" />
    <glyph glyph-name="ncaron" unicode="&#x148;" horiz-adv-x="1004" 
d="M837 1322q15 0 5 -46q-2 -2 -16 -15t-63 -59t-95 -105t-59 -75t-23 -16t-31 56t-119 214q12 46 26 46t70 -50t88 -90q50 40 126 90t91 50zM376 884q38 0 63 -29t25 -73t-8 -88t-10 -56t-7 -38t-11 -60q44 90 157 217t189 127q136 0 136 -176q0 -72 -30 -216l-52 -258
q-6 -18 -6 -58t20 -40t63 34t75 74q6 0 19 -19t13 -27q-22 -48 -124 -130t-176 -82q-36 0 -61 29t-25 75t18 132l58 284q16 82 16 112q0 84 -48 84q-36 0 -101 -81t-127 -205t-82 -232l-40 -184q-32 -10 -86 -10t-94 10l120 620q8 44 8 78t-22 34t-65 -38t-61 -62
q-6 0 -19 20t-13 28q22 46 121 125t167 79z" />
    <glyph glyph-name="Eng" unicode="&#x14a;" horiz-adv-x="1524" 
d="M316 140q0 -42 60 -64t88 -22q4 0 4 -18t-12 -42q-184 10 -218 10t-250 -10q-4 8 -4 17t5 26t9 17q30 0 93 18t83 48q22 38 50 168l152 764q16 80 16 150q0 28 -55 45t-85 17q-6 0 -6 25t14 35q160 -8 245 -8t165 8q23 -99 92 -241q70 -141 89 -181t56 -113t55 -109
t59 -116t55 -110q8 26 20 82l96 500q20 116 20 148t-61 56t-91 24q-4 0 -4 25t14 35q168 -8 242 -8t226 8q0 -60 -14 -60q-22 0 -83 -19t-85 -45q-30 -46 -52 -164l-160 -812q-26 -130 -80 -241t-113 -181q-145 -172 -337 -254q-26 10 -26 37t4 35q146 112 216 196
q116 142 160 326q-394 796 -468 962l-164 -822q-20 -100 -20 -142z" />
    <glyph glyph-name="eng" unicode="&#x14b;" horiz-adv-x="928" 
d="M680 590q0 70 -15 91t-51 21q-54 0 -155 -173t-129 -319l-40 -210q-40 -12 -87 -12t-95 12l122 632q2 8 2 32q0 72 -46 72q-20 0 -66 -66l-46 -66q-6 0 -21 18t-19 34q26 66 98 147t147 81t110 -46t35 -112t-24 -162v-2q0 -2 4 -2v2q0 2 2 2q62 118 147 219t149 101
q88 0 127 -62t39 -141t-26 -215l-56 -302q-44 -244 -152 -390q-56 -76 -150 -141t-152 -85q-24 18 -24 35t12 29q126 102 183 208t91 302q86 398 86 468z" />
    <glyph glyph-name="Omacron" unicode="&#x14c;" horiz-adv-x="1312" 
d="M532 1464q-14 0 -14 16t17 55t29 39h500q18 0 3 -38t-24 -53t-11 -19h-500zM809 1334q195 0 331 -151t136 -369t-106 -410t-279 -308t-374 -116t-333 152t-132 372t109 411t281 305t367 114zM748 1236q-188 0 -324 -219t-136 -513q0 -184 74 -304t215 -120t250 128
t161 296t52 336t-73 282t-219 114z" />
    <glyph glyph-name="omacron" unicode="&#x14d;" horiz-adv-x="804" 
d="M326 1122h424q23 0 -22 -100l-16 -16h-427q-7 0 -3 20q24 96 44 96zM557 884q125 0 192 -85t67 -229t-66 -279t-173 -219t-233 -84t-193 84t-67 224t66 276t174 224t233 88zM515 790q-53 0 -110 -85t-89 -205t-31 -219q2 -197 99 -197q64 0 120 89t85 208t27 223
q0 186 -101 186z" />
    <glyph glyph-name="Obreve" unicode="&#x14e;" horiz-adv-x="1312" 
d="M797 1456q-65 0 -112 46t-59 130q0 8 27 29t27 7q10 -44 49 -74t89 -30t100 30t76 74q0 4 11 3t21 -16t4 -37q-40 -70 -104 -116t-129 -46zM809 1334q195 0 331 -151t136 -369t-106 -410t-279 -308t-374 -116t-333 152t-132 372t109 411t281 305t367 114zM748 1236
q-188 0 -324 -219t-136 -513q0 -184 74 -304t215 -120t250 128t161 296t52 336t-73 282t-219 114z" />
    <glyph glyph-name="obreve" unicode="&#x14f;" horiz-adv-x="804" 
d="M541 1004q-73 0 -121 55t-48 139v14q2 8 22 22t29 14t9 -8q2 -58 41 -94t91 -36t101 35t75 95q0 8 9 8t24 -14t13 -22q-35 -94 -104 -151q-68 -57 -141 -57zM557 884q125 0 192 -85t67 -229t-66 -279t-173 -219t-233 -84t-193 84t-67 224t66 276t174 224t233 88zM515 790
q-53 0 -110 -85t-89 -205t-31 -219q2 -197 99 -197q64 0 120 89t85 208t27 223q0 186 -101 186z" />
    <glyph glyph-name="Ohungarumlaut" unicode="&#x150;" horiz-adv-x="1312" 
d="M572 1420q-8 0 -17 10t-9 21t78 77t132 98q20 10 60 10t78 -16t38 -46q0 -36 -160 -95t-200 -59zM902 1420q-8 0 -18 10t-10 21t78 77t132 98q20 10 61 10t79 -16t38 -46q0 -36 -160 -95t-200 -59zM809 1334q195 0 331 -151t136 -369t-106 -410t-279 -308t-374 -116
t-333 152t-132 372t109 411t281 305t367 114zM748 1236q-188 0 -324 -219t-136 -513q0 -184 74 -304t215 -120t250 128t161 296t52 336t-73 282t-219 114z" />
    <glyph glyph-name="ohungarumlaut" unicode="&#x151;" horiz-adv-x="804" 
d="M344 1008q-6 0 -14 12t-8 22t85 109t135 141q16 8 46 8t59 -21t29 -47q0 -48 -152 -136t-180 -88zM616 1008q-6 0 -14 12t-8 22t85 109t135 141q16 8 46 8t58 -21t28 -47q0 -48 -151 -136t-179 -88zM557 884q125 0 192 -85t67 -229t-66 -279t-173 -219t-233 -84t-193 84
t-67 224t66 276t174 224t233 88zM515 790q-53 0 -110 -85t-89 -205t-31 -219q2 -197 99 -197q64 0 120 89t85 208t27 223q0 186 -101 186z" />
    <glyph glyph-name="OE" unicode="&#x152;" horiz-adv-x="1886" 
d="M528 -20q-212 0 -344 152t-132 372t108 412t280 306t356 114q92 0 252 -11t234 -11l592 14q-2 -22 -2 -130l2 -154q-10 -10 -37 -10t-27 14q-24 178 -212 178h-88q-132 0 -140 -26q-24 -68 -36 -144l-64 -330q0 -14 76 -14h124q90 0 114 18t66 114q6 16 31 16t33 -12
l-74 -380q-8 -8 -34 -8t-28 16q-4 96 -24 116q-26 20 -166 20t-144 -16l-58 -304q-20 -96 -20 -137t19 -50t105 -9h68q144 0 232 44q32 16 77 69t83 123q6 12 38 12t40 -12q-148 -286 -166 -338l-646 10q-189 0 -315 -12q-125 -12 -173 -12zM580 80q204 0 289 58t109 174
l130 664q30 154 -30 192q-108 68 -330 68q-188 0 -324 -219t-136 -513q0 -184 74 -304t218 -120z" />
    <glyph glyph-name="oe" unicode="&#x153;" horiz-adv-x="1258" 
d="M1036 884q88 0 137 -54t49 -131t-91 -162t-196 -130t-169 -45q-8 0 -8 -18q0 -124 46 -178t97 -54t93 34t70 68t32 34t16 -17t12 -31q-10 -42 -102 -127t-186 -85q-150 0 -226 144q-134 -144 -304 -144q-120 0 -190 100t-70 236q0 218 140 389t332 171q144 0 214 -150
q140 150 304 150zM994 790q-58 0 -119 -85t-81 -159q-10 -18 -15 -51t-1 -41q36 -2 91 41t57 89q20 0 46 8t29 11t12 9t11 15t8 22t6 59q0 82 -44 82zM478 788q-90 0 -164 -150t-74 -314q0 -240 110 -240q90 0 161 150t71 318q0 236 -104 236z" />
    <glyph glyph-name="Racute" unicode="&#x154;" horiz-adv-x="1242" 
d="M616 1430q-8 0 -17 10t-9 21t78 77t132 98q20 10 60 10t79 -16t39 -46q0 -36 -161 -95t-201 -59zM614 700q96 0 173 101t77 243q0 90 -46 136t-129 46t-109 -10t-32 -40l-80 -420l-2 -8q0 -48 148 -48zM-24 14q0 12 5 26t9 14q28 0 71 11t53 35q18 36 48 176l158 800
q14 70 14 124q0 26 -41 45t-61 19q-4 0 -4 24t16 36q210 -10 230 -10l260 10q186 0 295 -119q63 -69 63 -184t-91 -226t-195 -149q-16 -6 -8 -26q84 -262 244 -456q40 -48 93 -77t95 -31q0 -28 -18 -60l-90 -4q-146 0 -228 70t-170 238l-130 272q-18 32 -79 32t-71 -8
t-14 -24l-56 -294q-20 -110 -20 -170q0 -22 42 -38t60 -16q4 0 4 -18t-14 -42l-202 12q-72 0 -264 -12q-4 8 -4 20z" />
    <glyph glyph-name="racute" unicode="&#x155;" horiz-adv-x="810" 
d="M430 1008q-6 0 -14 12t-8 22t85 109t135 141q16 8 46 8t58 -21t28 -47q0 -48 -151 -136t-179 -88zM384 884q38 0 62 -29t24 -80t-17 -141t-19 -94q56 128 146 236t167 108t127 -72q0 -166 -98 -166q-24 0 -54 35t-61 35t-93 -82t-120 -207t-80 -233l-36 -194
q-44 -8 -91 -8t-93 8l120 620q6 44 6 78t-22 34t-64 -38t-62 -62q-4 0 -18 20t-14 28q22 46 122 125t168 79z" />
    <glyph glyph-name="Rcommaaccent" unicode="&#x156;" horiz-adv-x="1242" 
d="M478 -204q0 46 58 72t126 26q24 -28 24 -97t-67 -145t-139 -106h-4q-6 -2 -13 -2t-20 8t-13 12t26 23q78 57 78 98t-28 63t-28 48zM614 700q96 0 173 101t77 243q0 90 -46 136t-129 46t-109 -10t-32 -40l-80 -420l-2 -8q0 -48 148 -48zM-24 14q0 12 5 26t9 14q28 0 71 11
t53 35q18 36 48 176l158 800q14 70 14 124q0 26 -41 45t-61 19q-4 0 -4 24t16 36q210 -10 230 -10l260 10q186 0 295 -119q63 -69 63 -184t-91 -226t-195 -149q-16 -6 -8 -26q84 -262 244 -456q40 -48 93 -77t95 -31q0 -28 -18 -60l-90 -4q-146 0 -228 70t-170 238l-130 272
q-18 32 -79 32t-71 -8t-14 -24l-56 -294q-20 -110 -20 -170q0 -22 42 -38t60 -16q4 0 4 -18t-14 -42l-202 12q-72 0 -264 -12q-4 8 -4 20z" />
    <glyph glyph-name="rcommaaccent" unicode="&#x157;" horiz-adv-x="810" 
d="M110 -204q0 46 58 72t126 26q24 -28 24 -97t-67 -145t-139 -106h-4q-6 -2 -13 -2t-20 8t-13 12t26 23q78 57 78 98t-28 63t-28 48zM384 884q38 0 62 -29t24 -80t-17 -141t-19 -94q56 128 146 236t167 108t127 -72q0 -166 -98 -166q-24 0 -54 35t-61 35t-93 -82t-120 -207
t-80 -233l-36 -194q-44 -8 -91 -8t-93 8l120 620q6 44 6 78t-22 34t-64 -38t-62 -62q-4 0 -18 20t-14 28q22 46 122 125t168 79z" />
    <glyph glyph-name="Rcaron" unicode="&#x158;" horiz-adv-x="1242" 
d="M878 1728q20 0 10 -40q-89 -57 -246 -214q-18 -18 -26 -18t-21 25t-51 77t-73 90t-35 40q14 40 28 40t79 -44t103 -78q202 122 232 122zM614 700q96 0 173 101t77 243q0 90 -46 136t-129 46t-109 -10t-32 -40l-80 -420l-2 -8q0 -48 148 -48zM-24 14q0 12 5 26t9 14
q28 0 71 11t53 35q18 36 48 176l158 800q14 70 14 124q0 26 -41 45t-61 19q-4 0 -4 24t16 36q210 -10 230 -10l260 10q186 0 295 -119q63 -69 63 -184t-91 -226t-195 -149q-16 -6 -8 -26q84 -262 244 -456q40 -48 93 -77t95 -31q0 -28 -18 -60l-90 -4q-146 0 -228 70
t-170 238l-130 272q-18 32 -79 32t-71 -8t-14 -24l-56 -294q-20 -110 -20 -170q0 -22 42 -38t60 -16q4 0 4 -18t-14 -42l-202 12q-72 0 -264 -12q-4 8 -4 20z" />
    <glyph glyph-name="rcaron" unicode="&#x159;" horiz-adv-x="810" 
d="M713 1322q15 0 5 -46q-2 -2 -16 -15t-63 -59t-95 -105t-59 -75t-23 -16t-31 56t-119 214q12 46 26 46t70 -50t88 -90q50 40 126 90t91 50zM384 884q38 0 62 -29t24 -80t-17 -141t-19 -94q56 128 146 236t167 108t127 -72q0 -166 -98 -166q-24 0 -54 35t-61 35t-93 -82
t-120 -207t-80 -233l-36 -194q-44 -8 -91 -8t-93 8l120 620q6 44 6 78t-22 34t-64 -38t-62 -62q-4 0 -18 20t-14 28q22 46 122 125t168 79z" />
    <glyph glyph-name="Sacute" unicode="&#x15a;" horiz-adv-x="910" 
d="M584 1432q-8 0 -17 10t-9 21t78 77t132 98q20 10 60 10t79 -16t39 -46q0 -36 -161 -95t-201 -59zM69 374q33 0 51 -18q0 -98 58 -186t174 -88t186 84t70 167t-85 160q-85 76 -139 109q-168 131 -200 214q-16 42 -16 92q0 184 143 306t317 122q60 0 152 -23t128 -29
q-36 -328 -50 -328q-62 0 -62 36q0 86 -55 165t-150 79t-153 -71t-58 -151q0 -104 156 -226q20 -16 98 -72t106 -82t60 -84t32 -124q0 -178 -144 -310t-336 -132q-116 0 -324 50q10 160 10 170l-2 154q0 16 33 16z" />
    <glyph glyph-name="sacute" unicode="&#x15b;" horiz-adv-x="644" 
d="M402 1010q-6 0 -14 12t-8 22t85 109t135 141q16 8 46 8t58 -21t28 -47q0 -48 -151 -136t-179 -88zM416 794q-80 0 -80 -85t123 -224q47 -53 86 -122t39 -127q0 -110 -90 -180t-216 -70t-196 70q-14 20 -14 59t21 70t51 31t53 -22t37 -47t41 -46t64 -21t59 24t22 72
t-62 129t-124 170t-62 174t90 162t214 77t192 -68q16 -24 16 -64t-21 -69t-58 -29t-83 68t-102 68z" />
    <glyph glyph-name="Scircumflex" unicode="&#x15c;" horiz-adv-x="910" 
d="M846 1458q-38 0 -212 120q-60 -36 -152 -78t-110 -42q-24 0 -12 38q2 2 104 73t174 143q22 18 33 18t18 -13q41 -77 97 -133t72 -71t18 -17q-10 -38 -30 -38zM69 374q33 0 51 -18q0 -98 58 -186t174 -88t186 84t70 167t-85 160q-85 76 -139 109q-168 131 -200 214
q-16 42 -16 92q0 184 143 306t317 122q60 0 152 -23t128 -29q-36 -328 -50 -328q-62 0 -62 36q0 86 -55 165t-150 79t-153 -71t-58 -151q0 -104 156 -226q20 -16 98 -72t106 -82t60 -84t32 -124q0 -178 -144 -310t-336 -132q-116 0 -324 50q10 160 10 170l-2 154q0 16 33 16
z" />
    <glyph glyph-name="scircumflex" unicode="&#x15d;" horiz-adv-x="644" 
d="M643 1010q-15 0 -75 47t-100 85q-50 -38 -129 -85t-93 -47q-8 0 -11 16t1 26q4 4 36 31t99 94t103 113q20 20 27 20t29 -43t42 -76t44 -67t37 -51t15 -21q-10 -42 -25 -42zM416 794q-80 0 -80 -85t123 -224q47 -53 86 -122t39 -127q0 -110 -90 -180t-216 -70t-196 70
q-14 20 -14 59t21 70t51 31t53 -22t37 -47t41 -46t64 -21t59 24t22 72t-62 129t-124 170t-62 174t90 162t214 77t192 -68q16 -24 16 -64t-21 -69t-58 -29t-83 68t-102 68z" />
    <glyph glyph-name="Scedilla" unicode="&#x15e;" horiz-adv-x="910" 
d="M796 992q0 86 -55 165t-150 79t-153 -71t-58 -151q0 -104 156 -226q20 -16 98 -72t106 -82t60 -84t32 -124q0 -178 -144 -310t-336 -132h-17l-37 -46h48q44 0 69 -34t15 -82q-16 -82 -83 -132t-141 -50t-104 30q0 68 32 68q8 0 36 -16t62 -16t61 21t33 52t-7 52t-41 21
t-62 -14q-4 0 -13 13t-5 19q27 37 83 118q-102 10 -253 46q10 160 10 170l-2 154q0 16 33 16t51 -18q0 -98 58 -186t174 -88t186 84t70 167t-85 160q-85 76 -139 109q-168 131 -200 214q-16 42 -16 92q0 184 143 306t317 122q60 0 152 -23t128 -29q-36 -328 -50 -328
q-62 0 -62 36z" />
    <glyph glyph-name="scedilla" unicode="&#x15f;" horiz-adv-x="644" 
d="M416 794q-80 0 -80 -85t123 -224q47 -53 86 -122t39 -127q0 -110 -90 -180t-220 -70l-34 -44q36 2 58 2t45 -25t23 -75t-60 -114t-172 -64q-56 0 -82 18q-4 12 -4 33t12 33t25 12t38 -17t57 -17t60 25t28 53q0 56 -46 56q-22 0 -60 -14q-4 0 -12 12t-2 25t75 104
q-86 12 -141 67q-14 20 -14 59t21 70t51 31t53 -22t37 -47t41 -46t64 -21t59 24t22 72t-62 129t-124 170t-62 174t90 162t214 77t192 -68q16 -24 16 -64t-21 -69t-58 -29t-83 68t-102 68z" />
    <glyph glyph-name="Scaron" unicode="&#x160;" horiz-adv-x="910" 
d="M920 1730q20 0 10 -40q-89 -57 -246 -214q-18 -18 -26 -18t-21 25t-51 77t-73 90t-35 40q14 40 28 40t79 -44t103 -78q202 122 232 122zM69 374q33 0 51 -18q0 -98 58 -186t174 -88t186 84t70 167t-85 160q-85 76 -139 109q-168 131 -200 214q-16 42 -16 92
q0 184 143 306t317 122q60 0 152 -23t128 -29q-36 -328 -50 -328q-62 0 -62 36q0 86 -55 165t-150 79t-153 -71t-58 -151q0 -104 156 -226q20 -16 98 -72t106 -82t60 -84t32 -124q0 -178 -144 -310t-336 -132q-116 0 -324 50q10 160 10 170l-2 154q0 16 33 16z" />
    <glyph glyph-name="scaron" unicode="&#x161;" horiz-adv-x="644" 
d="M701 1326q15 0 5 -46q-2 -2 -16 -15t-63 -59t-95 -105t-59 -75t-23 -16t-31 56t-119 214q12 46 26 46t70 -50t88 -90q50 40 126 90t91 50zM416 794q-80 0 -80 -85t123 -224q47 -53 86 -122t39 -127q0 -110 -90 -180t-216 -70t-196 70q-14 20 -14 59t21 70t51 31t53 -22
t37 -47t41 -46t64 -21t59 24t22 72t-62 129t-124 170t-62 174t90 162t214 77t192 -68q16 -24 16 -64t-21 -69t-58 -29t-83 68t-102 68z" />
    <glyph glyph-name="Tcommaaccent" unicode="&#x162;" horiz-adv-x="1152" 
d="M124 25q0 29 14 29q22 0 67 13t55 31q28 56 50 178l140 718q26 126 26 161t-8 45q-18 22 -138 22t-171 -38t-99 -148q-6 -12 -30 -12t-34 16l94 304q70 -20 124 -20l404 -14l412 14q52 0 132 20l-24 -306q-18 -14 -43 -14t-25 10q-2 108 -43 148t-125 40q-172 0 -188 -34
q-24 -52 -52 -188l-140 -722q-20 -110 -20 -170q0 -22 41 -38t59 -16q4 0 4 -20t-12 -40q-222 12 -232 12l-236 -12q-2 2 -2 31zM220 -204q0 46 58 72t126 26q24 -28 24 -97t-67 -145t-139 -106h-4q-6 -2 -13 -2t-20 8t-13 12t26 23q78 57 78 98t-28 63t-28 48z" />
    <glyph glyph-name="tcommaaccent" unicode="&#x163;" horiz-adv-x="554" 
d="M444 1092q30 0 50 -4l-50 -240h180q14 0 14 -33t-22 -67h-190l-100 -514q-6 -18 -6 -58t20 -40t54 27t55 49t31 32q4 0 18 -19t14 -27q-22 -48 -125 -130t-175 -82q-38 0 -63 29t-25 77t18 130l102 526h-128q-6 0 -6 22t9 46t17 32h128l44 220q4 24 136 24zM96 -204
q0 46 58 72t126 26q24 -28 24 -97t-67 -145t-139 -106h-4q-6 -2 -13 -2t-20 8t-13 12t26 23q78 57 78 98t-28 63t-28 48z" />
    <glyph glyph-name="Tcaron" unicode="&#x164;" horiz-adv-x="1152" 
d="M868 1738q20 0 10 -40q-89 -57 -246 -214q-18 -18 -26 -18t-21 25t-51 77t-73 90t-35 40q14 40 28 40t79 -44t103 -78q202 122 232 122zM124 25q0 29 14 29q22 0 67 13t55 31q28 56 50 178l140 718q26 126 26 161t-8 45q-18 22 -138 22t-171 -38t-99 -148q-6 -12 -30 -12
t-34 16l94 304q70 -20 124 -20l404 -14l412 14q52 0 132 20l-24 -306q-18 -14 -43 -14t-25 10q-2 108 -43 148t-125 40q-172 0 -188 -34q-24 -52 -52 -188l-140 -722q-20 -110 -20 -170q0 -22 41 -38t59 -16q4 0 4 -20t-12 -40q-222 12 -232 12l-236 -12q-2 2 -2 31z" />
    <glyph glyph-name="tcaron" unicode="&#x165;" horiz-adv-x="554" 
d="M622 1260q0 68 49 98t117 30q8 -16 8 -55t-11 -96t-79 -144t-124 -119h-8q-8 0 -17 12t-9 18t25 28q77 68 77 132q0 14 -14 43t-14 53zM444 1092q30 0 50 -4l-50 -240h180q14 0 14 -33t-22 -67h-190l-100 -514q-6 -18 -6 -58t20 -40t54 27t55 49t31 32q4 0 18 -19t14 -27
q-22 -48 -125 -130t-175 -82q-38 0 -63 29t-25 77t18 130l102 526h-128q-6 0 -6 22t9 46t17 32h128l44 220q4 24 136 24z" />
    <glyph glyph-name="Tbar" unicode="&#x166;" horiz-adv-x="1176" 
d="M1119 1024q-27 0 -27 10q-4 110 -40 149t-128 39q-174 0 -186 -34q-32 -70 -54 -188l-58 -304h206q14 7 1 -37q-22 -75 -37 -75h-194l-60 -306q-18 -92 -18 -170q0 -20 46 -38t60 -18q4 0 4 -18t-12 -42q-222 12 -261 12t-219 -12q-2 4 -2 32t14 28q20 0 72 18t60 34
q26 62 46 172l60 308h-196l-6 18q25 109 40 94h184l56 298q34 168 24 194q-8 34 -170 34q-92 0 -142 -38t-98 -148q-6 -12 -31 -12t-35 16l92 304q70 -20 124 -20l406 -10l412 10q54 0 134 20l-26 -306q-14 -14 -41 -14z" />
    <glyph glyph-name="tbar" unicode="&#x167;" horiz-adv-x="624" 
d="M416 1068q38 0 50 -4l-48 -228h172q14 0 14 -37t-20 -67h-188l-20 -104h184q26 0 -12 -92q-4 -12 -12 -12h-180l-58 -292q-2 -8 -2 -32q0 -68 42 -68q32 0 92 99q20 33 24 33t21 -19t19 -33q-116 -228 -260 -228q-56 0 -91 44t-35 112t10 112l52 272h-118l-8 16
q0 22 14 55t22 33h110l20 104h-126q-8 0 -8 22t10 48t18 34h132l42 208q6 24 138 24z" />
    <glyph glyph-name="Utilde" unicode="&#x168;" horiz-adv-x="1334" 
d="M384 1476q-16 0 -6 40t48 86q86 92 162 92t168 -61t158 -61q34 0 89 51t59 51q14 0 8 -37t-52 -91q-78 -90 -157 -90t-169 61t-158 61q-32 0 -88 -51t-62 -51zM200 1204q0 26 -40 43t-62 17q-2 0 -2 24t12 36q210 -10 244 -10t224 10v-8q0 -52 -15 -52t-64 -17t-57 -31
q-12 -28 -48 -178l-88 -444q-20 -104 -20 -190q0 -280 244 -280q152 0 253 90t147 330l92 484q28 142 26 184q-2 24 -60 38t-90 14q-2 0 -2 23t14 37q168 -8 229 -8t213 8q0 -60 -14 -60q-20 0 -85 -14t-73 -26q-16 -34 -50 -196l-92 -476q-60 -314 -201 -435t-375 -121
q-180 0 -284 103t-104 307q0 76 24 202l84 432q20 104 20 164z" />
    <glyph glyph-name="utilde" unicode="&#x169;" horiz-adv-x="984" 
d="M461 1200q61 0 138 -57t133 -57q28 0 76 46l48 46q12 0 12 -31t-62 -100t-124 -69t-139 56t-135 56q-26 0 -74 -48t-55 -48t-7 26q0 50 64 115t125 65zM366 884q38 0 62 -29t24 -83t-16 -124l-58 -284q-16 -86 -16 -112q0 -84 48 -84q34 0 98 81t123 205t81 234l38 182
q34 10 87 10t93 -10l-122 -636q-4 -22 -4 -60t19 -38t53 27t55 49t31 32q4 0 18 -19t14 -27q-22 -48 -125 -130t-175 -82q-38 0 -62 29t-24 71t8 88t10 58t7 38t11 60q-72 -144 -211 -274q-75 -70 -127 -70q-136 0 -136 174q0 74 30 216l48 244q8 36 8 74t-22 38t-64 -38
t-62 -62q-4 0 -18 20t-14 28q22 46 122 125t168 79z" />
    <glyph glyph-name="Umacron" unicode="&#x16a;" horiz-adv-x="1334" 
d="M468 1464q-14 0 -14 16t17 55t29 39h500q18 0 3 -38t-24 -53t-11 -19h-500zM200 1204q0 26 -40 43t-62 17q-2 0 -2 24t12 36q210 -10 244 -10t224 10v-8q0 -52 -15 -52t-64 -17t-57 -31q-12 -28 -48 -178l-88 -444q-20 -104 -20 -190q0 -280 244 -280q152 0 253 90
t147 330l92 484q28 142 26 184q-2 24 -60 38t-90 14q-2 0 -2 23t14 37q168 -8 229 -8t213 8q0 -60 -14 -60q-20 0 -85 -14t-73 -26q-16 -34 -50 -196l-92 -476q-60 -314 -201 -435t-375 -121q-180 0 -284 103t-104 307q0 76 24 202l84 432q20 104 20 164z" />
    <glyph glyph-name="umacron" unicode="&#x16b;" horiz-adv-x="984" 
d="M362 1122h424q23 0 -22 -100l-16 -16h-427q-7 0 -3 20q24 96 44 96zM366 884q38 0 62 -29t24 -83t-16 -124l-58 -284q-16 -86 -16 -112q0 -84 48 -84q34 0 98 81t123 205t81 234l38 182q34 10 87 10t93 -10l-122 -636q-4 -22 -4 -60t19 -38t53 27t55 49t31 32q4 0 18 -19
t14 -27q-22 -48 -125 -130t-175 -82q-38 0 -62 29t-24 71t8 88t10 58t7 38t11 60q-72 -144 -211 -274q-75 -70 -127 -70q-136 0 -136 174q0 74 30 216l48 244q8 36 8 74t-22 38t-64 -38t-62 -62q-4 0 -18 20t-14 28q22 46 122 125t168 79z" />
    <glyph glyph-name="Ubreve" unicode="&#x16c;" horiz-adv-x="1334" 
d="M735 1456q-65 0 -112 46t-59 130q0 8 27 29t27 7q10 -44 49 -74t89 -30t100 30t76 74q0 4 11 3t21 -16t4 -37q-40 -70 -104 -116t-129 -46zM200 1204q0 26 -40 43t-62 17q-2 0 -2 24t12 36q210 -10 244 -10t224 10v-8q0 -52 -15 -52t-64 -17t-57 -31q-12 -28 -48 -178
l-88 -444q-20 -104 -20 -190q0 -280 244 -280q152 0 253 90t147 330l92 484q28 142 26 184q-2 24 -60 38t-90 14q-2 0 -2 23t14 37q168 -8 229 -8t213 8q0 -60 -14 -60q-20 0 -85 -14t-73 -26q-16 -34 -50 -196l-92 -476q-60 -314 -201 -435t-375 -121q-180 0 -284 103
t-104 307q0 76 24 202l84 432q20 104 20 164z" />
    <glyph glyph-name="ubreve" unicode="&#x16d;" horiz-adv-x="984" 
d="M551 1004q-73 0 -121 55t-48 139v14q2 8 22 22t29 14t9 -8q2 -58 41 -94t91 -36t101 35t75 95q0 8 9 8t24 -14t13 -22q-35 -94 -104 -151q-68 -57 -141 -57zM366 884q38 0 62 -29t24 -83t-16 -124l-58 -284q-16 -86 -16 -112q0 -84 48 -84q34 0 98 81t123 205t81 234
l38 182q34 10 87 10t93 -10l-122 -636q-4 -22 -4 -60t19 -38t53 27t55 49t31 32q4 0 18 -19t14 -27q-22 -48 -125 -130t-175 -82q-38 0 -62 29t-24 71t8 88t10 58t7 38t11 60q-72 -144 -211 -274q-75 -70 -127 -70q-136 0 -136 174q0 74 30 216l48 244q8 36 8 74t-22 38
t-64 -38t-62 -62q-4 0 -18 20t-14 28q22 46 122 125t168 79z" />
    <glyph glyph-name="Uring" unicode="&#x16e;" horiz-adv-x="1334" 
d="M754 1832q72 0 111 -54t24 -132t-75 -134t-132 -56t-113 56t-27 134t77 132t135 54zM698 1536q42 0 76 32t44 78t-13 77t-65 31t-77 -31t-45 -77t14 -78t66 -32zM200 1204q0 26 -40 43t-62 17q-2 0 -2 24t12 36q210 -10 244 -10t224 10v-8q0 -52 -15 -52t-64 -17t-57 -31
q-12 -28 -48 -178l-88 -444q-20 -104 -20 -190q0 -280 244 -280q152 0 253 90t147 330l92 484q28 142 26 184q-2 24 -60 38t-90 14q-2 0 -2 23t14 37q168 -8 229 -8t213 8q0 -60 -14 -60q-20 0 -85 -14t-73 -26q-16 -34 -50 -196l-92 -476q-60 -314 -201 -435t-375 -121
q-180 0 -284 103t-104 307q0 76 24 202l84 432q20 104 20 164z" />
    <glyph glyph-name="uring" unicode="&#x16f;" horiz-adv-x="984" 
d="M632 1400q74 0 115 -45t41 -125t-70 -152t-145 -72t-117 46t-42 127t72 151t146 70zM494 1187q0 -99 92 -99q46 0 84 43t38 97q0 92 -91 92q-47 0 -85 -43t-38 -90zM366 884q38 0 62 -29t24 -83t-16 -124l-58 -284q-16 -86 -16 -112q0 -84 48 -84q34 0 98 81t123 205
t81 234l38 182q34 10 87 10t93 -10l-122 -636q-4 -22 -4 -60t19 -38t53 27t55 49t31 32q4 0 18 -19t14 -27q-22 -48 -125 -130t-175 -82q-38 0 -62 29t-24 71t8 88t10 58t7 38t11 60q-72 -144 -211 -274q-75 -70 -127 -70q-136 0 -136 174q0 74 30 216l48 244q8 36 8 74
t-22 38t-64 -38t-62 -62q-4 0 -18 20t-14 28q22 46 122 125t168 79z" />
    <glyph glyph-name="Uhungarumlaut" unicode="&#x170;" horiz-adv-x="1334" 
d="M480 1420q-8 0 -17 10t-9 21t78 77t132 98q20 10 60 10t78 -16t38 -46q0 -36 -160 -95t-200 -59zM810 1420q-8 0 -18 10t-10 21t78 77t132 98q20 10 61 10t79 -16t38 -46q0 -36 -160 -95t-200 -59zM200 1204q0 26 -40 43t-62 17q-2 0 -2 24t12 36q210 -10 244 -10t224 10
v-8q0 -52 -15 -52t-64 -17t-57 -31q-12 -28 -48 -178l-88 -444q-20 -104 -20 -190q0 -280 244 -280q152 0 253 90t147 330l92 484q28 142 26 184q-2 24 -60 38t-90 14q-2 0 -2 23t14 37q168 -8 229 -8t213 8q0 -60 -14 -60q-20 0 -85 -14t-73 -26q-16 -34 -50 -196l-92 -476
q-60 -314 -201 -435t-375 -121q-180 0 -284 103t-104 307q0 76 24 202l84 432q20 104 20 164z" />
    <glyph glyph-name="uhungarumlaut" unicode="&#x171;" horiz-adv-x="984" 
d="M366 1008q-6 0 -14 12t-8 22t85 109t135 141q16 8 46 8t59 -21t29 -47q0 -48 -152 -136t-180 -88zM638 1008q-6 0 -14 12t-8 22t85 109t135 141q16 8 46 8t58 -21t28 -47q0 -48 -151 -136t-179 -88zM366 884q38 0 62 -29t24 -83t-16 -124l-58 -284q-16 -86 -16 -112
q0 -84 48 -84q34 0 98 81t123 205t81 234l38 182q34 10 87 10t93 -10l-122 -636q-4 -22 -4 -60t19 -38t53 27t55 49t31 32q4 0 18 -19t14 -27q-22 -48 -125 -130t-175 -82q-38 0 -62 29t-24 71t8 88t10 58t7 38t11 60q-72 -144 -211 -274q-75 -70 -127 -70q-136 0 -136 174
q0 74 30 216l48 244q8 36 8 74t-22 38t-64 -38t-62 -62q-4 0 -18 20t-14 28q22 46 122 125t168 79z" />
    <glyph glyph-name="Uogonek" unicode="&#x172;" horiz-adv-x="1342" 
d="M1338 1260q-18 0 -82 -14t-72 -26q-14 -26 -48 -196l-92 -472q-66 -340 -244 -470q-314 -230 -314 -338q0 -58 66 -58t129 48q21 16 27 15t-1 -29t-13 -34q-46 -52 -109 -92t-114 -40t-83 34t-32 91t70 157t152 166q-50 -6 -110 -6q-180 0 -284 103t-104 309q0 74 24 200
l84 428q20 104 20 164q0 26 -40 43t-64 17q-4 0 -4 22t16 38l228 -12q12 0 240 12v-8q0 -14 -5 -33t-11 -19q-16 0 -64 -17t-56 -31q-24 -54 -52 -178l-84 -440q-20 -104 -20 -190q0 -280 244 -280q152 0 253 90t147 330l92 480q26 158 24 183t-59 39t-89 14q-4 0 -4 24
t16 36l224 -12q60 0 216 12q0 -60 -18 -60z" />
    <glyph glyph-name="uogonek" unicode="&#x173;" horiz-adv-x="1024" 
d="M346 256q0 -90 64 -90q54 0 148 177t122 317l44 212q40 12 86 12t94 -12l-122 -636q-2 -8 -2 -36t13 -47t34 -19t65 66l44 64q8 0 24 -18t20 -34q-10 -30 -49 -83t-67 -78t-55 -49t-37 -33t-32 -30t-32 -33t-27 -31q-22 -24 -40 -62q-19 -37 -19 -69q0 -58 67 -58t130 48
q21 16 27 15t-1 -29t-13 -34q-46 -52 -110 -92t-116 -40t-83 32t-31 78q0 126 192 326q-46 14 -71 58t-25 106t11 104t7 42q-2 -2 -2 -4q-52 -118 -129 -215t-155 -97q-162 0 -162 220q0 64 26 200l44 228q4 20 4 46t-14 42t-30 16q-22 0 -68 -66l-46 -66q-6 0 -22 18
t-20 34q26 66 97 147t159 81q132 0 132 -170q0 -22 -37 -210t-37 -248z" />
    <glyph glyph-name="Wcircumflex" unicode="&#x174;" horiz-adv-x="1988" 
d="M1266 1456q-38 0 -212 120q-60 -36 -152 -78t-110 -42q-24 0 -12 38q2 2 104 73t174 143q22 18 33 18t18 -13q42 -78 97 -133q56 -56 72 -71t18 -17q-10 -38 -30 -38zM602 1312q0 -56 -14 -56q-36 0 -67 -18t-33 -44t10 -78l230 -812q10 8 98 134t114 168l-134 482
q-26 92 -42 115t-46 38t-54 15q-4 0 -2 28t14 36l234 -12q68 0 224 12v-8q0 -16 -5 -36t-11 -20q-38 0 -67 -19t-32 -45t11 -72l76 -278l148 234q50 82 53 110t-29 49t-78 21q-4 0 -4 26t14 38q174 -12 210 -12q56 0 147 7l65 5q2 -18 -3 -41t-11 -23q-30 0 -79 -21t-67 -41
q-52 -52 -140 -186l-192 -292q110 -394 120 -412q2 0 208 339t270 435q48 80 50 107t-29 49t-77 22q-4 0 -4 26t16 38q174 -12 214 -12t208 12q0 -64 -14 -64q-32 0 -79 -20t-65 -40q-64 -62 -142 -188l-606 -970q-20 -32 -43 -48t-37 -16t-18 10l-138 494l-298 -440
q-44 -64 -80 -64q-10 0 -16 10l-290 1052q-32 114 -62 174q-12 20 -46 33t-54 13q-6 0 -3 28t13 36l228 -12q8 0 236 12v-8z" />
    <glyph glyph-name="wcircumflex" unicode="&#x175;" horiz-adv-x="1318" 
d="M881 1008q-15 0 -75 47t-100 85q-50 -38 -129 -85t-93 -47q-8 0 -11 16t1 26q4 4 36 31t99 94t103 113q20 20 27 20t29 -43t42 -76t44 -67t37 -51t15 -21q-10 -42 -25 -42zM368 884q38 0 63 -29t25 -79t-14 -118l-62 -316q-12 -60 -12 -100q0 -92 68 -92q48 0 104 45
t104 125q36 316 68 440t104 124q94 0 94 -121t-78 -371q-10 -64 -10 -123t14 -89t63 -30t121 76t122 182t50 170t-34 117t-34 94t34 68t80 27t70 -20q24 -40 24 -116q0 -170 -94 -350t-218 -291t-209 -111t-133 47t-50 131q-158 -178 -280 -178q-76 0 -124 49t-48 117t8 110
l68 348q8 32 8 72t-22 40t-64 -38t-62 -62q-4 0 -18 20t-14 28q22 46 121 125t167 79z" />
    <glyph glyph-name="Ycircumflex" unicode="&#x176;" horiz-adv-x="1184" 
d="M888 1456q-38 0 -212 120q-60 -36 -152 -78t-110 -42q-24 0 -12 38q2 2 104 73t174 143q22 18 33 18t18 -13q41 -77 97 -133t72 -71t18 -17q-10 -38 -30 -38zM652 1306q0 -16 -5 -33t-11 -17q-28 0 -71 -16t-45 -48q-2 -18 6 -44l134 -390q66 88 128 168t127 167t66 110
t-34 38t-83 15q-4 0 -4 26t14 38q186 -12 210 -12t220 12q2 -10 0 -37t-14 -27q-26 0 -79 -18t-83 -48q-40 -44 -242 -311t-206 -291l-60 -304q-20 -106 -20 -176q2 -20 47 -36t59 -16q6 0 3 -24t-11 -40q-4 2 -94 8t-168 6t-218 -14q-4 6 -1 35t13 29q22 0 72 16t58 32
q26 48 48 172l60 312q4 18 -116 376l-40 118q-34 106 -76 138q-18 12 -51 24t-51 12q-4 0 -4 26t16 38l248 -12q30 0 258 12v-14z" />
    <glyph glyph-name="ycircumflex" unicode="&#x177;" horiz-adv-x="968" 
d="M887 1012q-15 0 -75 47t-100 85q-50 -38 -129 -85t-93 -47q-8 0 -11 16t1 26q4 4 36 31t99 94t103 113q20 20 27 20t29 -43t42 -76t44 -67t37 -51t15 -21q-10 -42 -25 -42zM424 884q42 0 75 -52t54 -137q41 -165 56 -350t15 -251q56 68 130 213t74 257t-62 216
q6 44 39 74t79 30t71 -43t25 -91q0 -152 -65 -328t-170 -326t-226 -276t-242 -199t-209 -73q-52 0 -86 25t-34 76t40 83q66 -24 144 -24q158 0 260 140q44 60 44 227t-29 357t-85 272q-20 14 -78 -18q-21 0 -53 -15q-33 -15 -35 -15q4 10 48 64t111 109t109 55z" />
    <glyph glyph-name="Ydieresis" unicode="&#x178;" horiz-adv-x="1184" 
d="M464 1704q48 0 76 -36t19 -87t-52 -88t-91 -37t-74 36t-16 88t50 88t88 36zM846 1704q48 0 75 -36t18 -87t-51 -88t-90 -37t-75 36t-18 87t51 88t90 37zM652 1306q0 -16 -5 -33t-11 -17q-28 0 -71 -16t-45 -48q-2 -18 6 -44l134 -390q66 88 128 168t127 167t66 110
t-34 38t-83 15q-4 0 -4 26t14 38q186 -12 210 -12t220 12q2 -10 0 -37t-14 -27q-26 0 -79 -18t-83 -48q-40 -44 -242 -311t-206 -291l-60 -304q-20 -106 -20 -176q2 -20 47 -36t59 -16q6 0 3 -24t-11 -40q-4 2 -94 8t-168 6t-218 -14q-4 6 -1 35t13 29q22 0 72 16t58 32
q26 48 48 172l60 312q4 18 -116 376l-40 118q-34 106 -76 138q-18 12 -51 24t-51 12q-4 0 -4 26t16 38l248 -12q30 0 258 12v-14z" />
    <glyph glyph-name="Zacute" unicode="&#x179;" horiz-adv-x="1162" 
d="M646 1430q-8 0 -17 10t-9 21t78 77t132 98q20 10 60 10t79 -16t39 -46q0 -36 -161 -95t-201 -59zM257 960q-13 0 -17 2q9 86 36 190q17 25 29 75q11 51 27 101q18 -6 138 -11t161 -5h205q132 0 408 20q6 -2 8 -29t-1 -36q-7 -22 -677 -835l-226 -274q-16 -20 -16 -32
q-2 -18 20 -18h358q216 0 322 218q6 14 40 14t44 -12q-105 -223 -142 -328h-942q-10 18 -8 45t16 41l916 1122h-200q-114 -2 -199 -35t-113 -81q-81 -4 -121 -59q-15 -21 -43 -71q-10 -2 -23 -2z" />
    <glyph glyph-name="zacute" unicode="&#x17a;" horiz-adv-x="838" 
d="M454 1008q-6 0 -14 12t-8 22t85 109t135 141q16 8 46 8t58 -21t28 -47q0 -48 -151 -136t-179 -88zM780 228q-107 -232 -230 -232q-42 0 -150 25t-158 25t-99 -25t-71 -25q-30 0 -36 52q0 14 453 488l151 158q-2 0 -28 -14t-62 -14t-108 29t-106 29t-63 -27t-50 -58
t-27 -35q-22 -7 -40 46q26 68 92 151t120 83t161 -24t156 -24t91 24t71 24t29 -60q0 -14 -451 -480l-151 -156q6 0 37 14t67 14t115 -29t112 -29t62 27t51 58t26 33q12 4 22 -12t14 -36z" />
    <glyph glyph-name="Zdotaccent" unicode="&#x17b;" horiz-adv-x="1162" 
d="M814 1704q48 0 75 -36t18 -87t-51 -88t-90 -37t-75 36t-18 87t51 88t90 37zM257 960q-13 0 -17 2q9 86 36 190q17 25 29 75q11 51 27 101q18 -6 138 -11t161 -5h205q132 0 408 20q6 -2 8 -29t-1 -36q-7 -22 -677 -835l-226 -274q-16 -20 -16 -32q-2 -18 20 -18h358
q216 0 322 218q6 14 40 14t44 -12q-105 -223 -142 -328h-942q-10 18 -8 45t16 41l916 1122h-200q-114 -2 -199 -35t-113 -81q-81 -4 -121 -59q-15 -21 -43 -71q-10 -2 -23 -2z" />
    <glyph glyph-name="zdotaccent" unicode="&#x17c;" horiz-adv-x="838" 
d="M536 1312q48 0 76 -37t19 -88t-51 -88t-90 -37t-75 36t-17 88t50 89t88 37zM780 228q-107 -232 -230 -232q-42 0 -150 25t-158 25t-99 -25t-71 -25q-30 0 -36 52q0 14 453 488l151 158q-2 0 -28 -14t-62 -14t-108 29t-106 29t-63 -27t-50 -58t-27 -35q-22 -7 -40 46
q26 68 92 151t120 83t161 -24t156 -24t91 24t71 24t29 -60q0 -14 -451 -480l-151 -156q6 0 37 14t67 14t115 -29t112 -29t62 27t51 58t26 33q12 4 22 -12t14 -36z" />
    <glyph glyph-name="Zcaron" unicode="&#x17d;" horiz-adv-x="1162" 
d="M1020 1728q20 0 10 -40q-89 -57 -246 -214q-18 -18 -26 -18t-21 25t-51 77t-73 90t-35 40q14 40 28 40t79 -44t103 -78q202 122 232 122zM257 960q-13 0 -17 2q9 86 36 190q17 25 29 75q11 51 27 101q18 -6 138 -11t161 -5h205q132 0 408 20q6 -2 8 -29t-1 -36
q-7 -22 -677 -835l-226 -274q-16 -20 -16 -32q-2 -18 20 -18h358q216 0 322 218q6 14 40 14t44 -12q-105 -223 -142 -328h-942q-10 18 -8 45t16 41l916 1122h-200q-114 -2 -199 -35t-113 -81q-81 -4 -121 -59q-15 -21 -43 -71q-10 -2 -23 -2z" />
    <glyph glyph-name="zcaron" unicode="&#x17e;" horiz-adv-x="838" 
d="M735 1322q15 0 5 -46q-2 -2 -16 -15t-63 -59t-95 -105t-59 -75t-23 -16t-31 56t-119 214q12 46 26 46t70 -50t88 -90q50 40 126 90t91 50zM780 228q-107 -232 -230 -232q-42 0 -150 25t-158 25t-99 -25t-71 -25q-30 0 -36 52q0 14 453 488l151 158q-2 0 -28 -14t-62 -14
t-108 29t-106 29t-63 -27t-50 -58t-27 -35q-22 -7 -40 46q26 68 92 151t120 83t161 -24t156 -24t91 24t71 24t29 -60q0 -14 -451 -480l-151 -156q6 0 37 14t67 14t115 -29t112 -29t62 27t51 58t26 33q12 4 22 -12t14 -36z" />
    <glyph glyph-name="uni01CD" unicode="&#x1cd;" horiz-adv-x="1296" 
d="M1176 1728q20 0 10 -40q-89 -57 -246 -214q-18 -18 -26 -18t-21 25t-51 77t-73 90t-35 40q14 40 28 40t79 -44t103 -78q202 122 232 122zM657 570q71 0 157 6q8 0 8 8q-6 40 -34 206t-32 194l-230 -404v-4q60 -6 131 -6zM193 6q-57 0 -213 -12q-4 8 -4 34t12 26
q22 0 75 20t75 48t94 150l554 948q62 108 104 108q12 0 20 -8l188 -1048q6 -32 28 -146q6 -30 47 -51t61 -21q4 0 4 -22t-8 -38q-222 12 -236 12t-242 -12q-2 2 -2 31t12 29q20 0 60 15t50 31q12 24 12 51t-40 295q0 10 -23 13t-136 3t-227 -6q-8 0 -15 -13t-90 -146
t-83 -171t48 -55t72 -17q4 0 4 -18t-12 -42q-132 12 -189 12z" />
    <glyph glyph-name="uni01CE" unicode="&#x1ce;" horiz-adv-x="900" 
d="M901 1322q15 0 5 -46q-2 -2 -16 -15t-63 -59t-95 -105t-59 -75t-23 -16t-31 56t-119 214q12 46 26 46t70 -50t88 -90q50 40 126 90t91 50zM574 774q-114 0 -209 -173t-95 -327t82 -154q68 0 145 144t107 298l38 192q-18 20 -68 20zM674 884q98 0 166 -36l-118 -614
q-6 -18 -6 -58t20 -40t54 27t55 49t31 32q4 0 18 -19t14 -27q-22 -48 -125 -130t-175 -82q-38 0 -63 29t-25 67t16 118q-34 -60 -82 -114q-87 -98 -178 -98q-90 0 -147 80t-57 211t83 273t225 237t294 95z" />
    <glyph glyph-name="uni01CF" unicode="&#x1cf;" horiz-adv-x="700" 
d="M768 1728q20 0 10 -40q-89 -57 -246 -214q-18 -18 -26 -18t-21 25t-51 77t-73 90t-35 40q14 40 28 40t79 -44t103 -78q202 122 232 122zM-16 26q0 28 12 28q24 0 69 13t55 31q32 62 52 178l148 764q20 104 20 164q0 26 -40 43t-64 17q-4 0 -4 23t14 37q210 -10 244 -10
t224 10v-8q0 -52 -15 -52t-64 -17t-57 -31q-20 -44 -50 -178l-146 -760q-22 -122 -22 -170q0 -22 43 -38t61 -16q4 0 4 -18t-14 -42q-222 12 -230 12l-236 -12q-4 4 -4 32z" />
    <glyph glyph-name="uni01D0" unicode="&#x1d0;" horiz-adv-x="558" 
d="M513 1322q15 0 5 -46q-2 -2 -16 -15t-63 -59t-95 -105t-59 -75t-23 -16t-31 56t-119 214q12 46 26 46t70 -50t88 -90q50 40 126 90t91 50zM288 884q58 0 95 -41t37 -110t-86 -499q-2 -8 -2 -34q0 -68 40 -68q22 0 68 66l48 66q6 0 22 -18t20 -34q-26 -66 -98 -147
t-146 -81q-142 0 -142 170q0 48 10 98l72 368q6 30 6 44q0 72 -48 72q-20 0 -66 -66l-46 -66q-6 0 -21 18t-19 34q26 66 98 147t158 81z" />
    <glyph glyph-name="uni01D1" unicode="&#x1d1;" horiz-adv-x="1312" 
d="M1082 1728q20 0 10 -40q-89 -57 -246 -214q-18 -18 -26 -18t-21 25t-51 77t-73 90t-35 40q14 40 28 40t79 -44t103 -78q202 122 232 122zM809 1334q195 0 331 -151t136 -369t-106 -410t-279 -308t-374 -116t-333 152t-132 372t109 411t281 305t367 114zM748 1236
q-188 0 -324 -219t-136 -513q0 -184 74 -304t215 -120t250 128t161 296t52 336t-73 282t-219 114z" />
    <glyph glyph-name="uni01D2" unicode="&#x1d2;" horiz-adv-x="804" 
d="M797 1322q15 0 5 -46q-2 -2 -16 -15t-63 -59t-95 -105t-59 -75t-23 -16t-31 56t-119 214q12 46 26 46t70 -50t88 -90q50 40 126 90t91 50zM557 884q125 0 192 -85t67 -229t-66 -279t-173 -219t-233 -84t-193 84t-67 224t66 276t174 224t233 88zM515 790q-53 0 -110 -85
t-89 -205t-31 -219q2 -197 99 -197q64 0 120 89t85 208t27 223q0 186 -101 186z" />
    <glyph glyph-name="uni01D3" unicode="&#x1d3;" horiz-adv-x="1334" 
d="M1016 1728q20 0 10 -40q-89 -57 -246 -214q-18 -18 -26 -18t-21 25t-51 77t-73 90t-35 40q14 40 28 40t79 -44t103 -78q202 122 232 122zM200 1204q0 26 -40 43t-62 17q-2 0 -2 24t12 36q210 -10 244 -10t224 10v-8q0 -52 -15 -52t-64 -17t-57 -31q-12 -28 -48 -178
l-88 -444q-20 -104 -20 -190q0 -280 244 -280q152 0 253 90t147 330l92 484q28 142 26 184q-2 24 -60 38t-90 14q-2 0 -2 23t14 37q168 -8 229 -8t213 8q0 -60 -14 -60q-20 0 -85 -14t-73 -26q-16 -34 -50 -196l-92 -476q-60 -314 -201 -435t-375 -121q-180 0 -284 103
t-104 307q0 76 24 202l84 432q20 104 20 164z" />
    <glyph glyph-name="uni01D4" unicode="&#x1d4;" horiz-adv-x="984" 
d="M823 1322q15 0 5 -46q-2 -2 -16 -15t-63 -59t-95 -105t-59 -75t-23 -16t-31 56t-119 214q12 46 26 46t70 -50t88 -90q50 40 126 90t91 50zM366 884q38 0 62 -29t24 -83t-16 -124l-58 -284q-16 -86 -16 -112q0 -84 48 -84q34 0 98 81t123 205t81 234l38 182q34 10 87 10
t93 -10l-122 -636q-4 -22 -4 -60t19 -38t53 27t55 49t31 32q4 0 18 -19t14 -27q-22 -48 -125 -130t-175 -82q-38 0 -62 29t-24 71t8 88t10 58t7 38t11 60q-72 -144 -211 -274q-75 -70 -127 -70q-136 0 -136 174q0 74 30 216l48 244q8 36 8 74t-22 38t-64 -38t-62 -62
q-4 0 -18 20t-14 28q22 46 122 125t168 79z" />
    <glyph glyph-name="uni01D5" unicode="&#x1d5;" horiz-adv-x="1334" 
d="M524 1826q-14 0 -14 16t17 55t29 39h500q18 0 3 -38t-24 -53t-11 -19h-500zM562 1704q48 0 76 -36t19 -87t-52 -88t-91 -37t-74 36t-16 88t50 88t88 36zM944 1704q48 0 75 -36t18 -87t-51 -88t-90 -37t-75 36t-18 87t51 88t90 37zM200 1204q0 26 -40 43t-62 17
q-2 0 -2 24t12 36q210 -10 244 -10t224 10v-8q0 -52 -15 -52t-64 -17t-57 -31q-12 -28 -48 -178l-88 -444q-20 -104 -20 -190q0 -280 244 -280q152 0 253 90t147 330l92 484q28 142 26 184q-2 24 -60 38t-90 14q-2 0 -2 23t14 37q168 -8 229 -8t213 8q0 -60 -14 -60
q-20 0 -85 -14t-73 -26q-16 -34 -50 -196l-92 -476q-60 -314 -201 -435t-375 -121q-180 0 -284 103t-104 307q0 76 24 202l84 432q20 104 20 164z" />
    <glyph glyph-name="uni01D6" unicode="&#x1d6;" horiz-adv-x="984" 
d="M400 1494h424q23 0 -22 -100l-16 -16h-427q-7 0 -3 20q24 96 44 96zM360 1256q48 0 74 -33t26 -83t-40 -92t-87 -42t-70 32t-23 82t36 93t84 43zM740 1256q48 0 74 -33t26 -83t-40 -92t-87 -42t-70 32t-23 82t36 93t84 43zM366 884q38 0 62 -29t24 -83t-16 -124l-58 -284
q-16 -86 -16 -112q0 -84 48 -84q34 0 98 81t123 205t81 234l38 182q34 10 87 10t93 -10l-122 -636q-4 -22 -4 -60t19 -38t53 27t55 49t31 32q4 0 18 -19t14 -27q-22 -48 -125 -130t-175 -82q-38 0 -62 29t-24 71t8 88t10 58t7 38t11 60q-72 -144 -211 -274q-75 -70 -127 -70
q-136 0 -136 174q0 74 30 216l48 244q8 36 8 74t-22 38t-64 -38t-62 -62q-4 0 -18 20t-14 28q22 46 122 125t168 79z" />
    <glyph glyph-name="uni01D7" unicode="&#x1d7;" horiz-adv-x="1334" 
d="M778 1826q-8 0 -17 10t-9 21t78 77t132 98q20 10 60 10t79 -16t39 -46q0 -36 -161 -95t-201 -59zM562 1704q48 0 76 -36t19 -87t-52 -88t-91 -37t-74 36t-16 88t50 88t88 36zM944 1704q48 0 75 -36t18 -87t-51 -88t-90 -37t-75 36t-18 87t51 88t90 37zM200 1204
q0 26 -40 43t-62 17q-2 0 -2 24t12 36q210 -10 244 -10t224 10v-8q0 -52 -15 -52t-64 -17t-57 -31q-12 -28 -48 -178l-88 -444q-20 -104 -20 -190q0 -280 244 -280q152 0 253 90t147 330l92 484q28 142 26 184q-2 24 -60 38t-90 14q-2 0 -2 23t14 37q168 -8 229 -8t213 8
q0 -60 -14 -60q-20 0 -85 -14t-73 -26q-16 -34 -50 -196l-92 -476q-60 -314 -201 -435t-375 -121q-180 0 -284 103t-104 307q0 76 24 202l84 432q20 104 20 164z" />
    <glyph glyph-name="uni01D8" unicode="&#x1d8;" horiz-adv-x="984" 
d="M582 1378q-6 0 -14 12t-8 22t85 109t135 141q16 8 46 8t58 -21t28 -47q0 -48 -151 -136t-179 -88zM360 1256q48 0 74 -33t26 -83t-40 -92t-87 -42t-70 32t-23 82t36 93t84 43zM740 1256q48 0 74 -33t26 -83t-40 -92t-87 -42t-70 32t-23 82t36 93t84 43zM366 884
q38 0 62 -29t24 -83t-16 -124l-58 -284q-16 -86 -16 -112q0 -84 48 -84q34 0 98 81t123 205t81 234l38 182q34 10 87 10t93 -10l-122 -636q-4 -22 -4 -60t19 -38t53 27t55 49t31 32q4 0 18 -19t14 -27q-22 -48 -125 -130t-175 -82q-38 0 -62 29t-24 71t8 88t10 58t7 38
t11 60q-72 -144 -211 -274q-75 -70 -127 -70q-136 0 -136 174q0 74 30 216l48 244q8 36 8 74t-22 38t-64 -38t-62 -62q-4 0 -18 20t-14 28q22 46 122 125t168 79z" />
    <glyph glyph-name="uni01D9" unicode="&#x1d9;" horiz-adv-x="1334" 
d="M1038 2098q20 0 10 -40q-89 -57 -246 -214q-18 -18 -26 -18t-21 25t-51 77t-73 90t-35 40q14 40 28 40t79 -44t103 -78q202 122 232 122zM562 1704q48 0 76 -36t19 -87t-52 -88t-91 -37t-74 36t-16 88t50 88t88 36zM944 1704q48 0 75 -36t18 -87t-51 -88t-90 -37t-75 36
t-18 87t51 88t90 37zM200 1204q0 26 -40 43t-62 17q-2 0 -2 24t12 36q210 -10 244 -10t224 10v-8q0 -52 -15 -52t-64 -17t-57 -31q-12 -28 -48 -178l-88 -444q-20 -104 -20 -190q0 -280 244 -280q152 0 253 90t147 330l92 484q28 142 26 184q-2 24 -60 38t-90 14q-2 0 -2 23
t14 37q168 -8 229 -8t213 8q0 -60 -14 -60q-20 0 -85 -14t-73 -26q-16 -34 -50 -196l-92 -476q-60 -314 -201 -435t-375 -121q-180 0 -284 103t-104 307q0 76 24 202l84 432q20 104 20 164z" />
    <glyph glyph-name="uni01DA" unicode="&#x1da;" horiz-adv-x="984" 
d="M833 1694q15 0 5 -46q-2 -2 -16 -15t-63 -59t-95 -105t-59 -75t-23 -16t-31 56t-119 214q12 46 26 46t70 -50t88 -90q50 40 126 90t91 50zM360 1256q48 0 74 -33t26 -83t-40 -92t-87 -42t-70 32t-23 82t36 93t84 43zM740 1256q48 0 74 -33t26 -83t-40 -92t-87 -42t-70 32
t-23 82t36 93t84 43zM366 884q38 0 62 -29t24 -83t-16 -124l-58 -284q-16 -86 -16 -112q0 -84 48 -84q34 0 98 81t123 205t81 234l38 182q34 10 87 10t93 -10l-122 -636q-4 -22 -4 -60t19 -38t53 27t55 49t31 32q4 0 18 -19t14 -27q-22 -48 -125 -130t-175 -82q-38 0 -62 29
t-24 71t8 88t10 58t7 38t11 60q-72 -144 -211 -274q-75 -70 -127 -70q-136 0 -136 174q0 74 30 216l48 244q8 36 8 74t-22 38t-64 -38t-62 -62q-4 0 -18 20t-14 28q22 46 122 125t168 79z" />
    <glyph glyph-name="uni01DB" unicode="&#x1db;" horiz-adv-x="1334" 
d="M778 1826q-40 0 -200 59t-160 95q0 30 38 46t79 16t61 -10q52 -32 130 -99t78 -78t-9 -20t-17 -9zM562 1704q48 0 76 -36t19 -87t-52 -88t-91 -37t-74 36t-16 88t50 88t88 36zM944 1704q48 0 75 -36t18 -87t-51 -88t-90 -37t-75 36t-18 87t51 88t90 37zM200 1204
q0 26 -40 43t-62 17q-2 0 -2 24t12 36q210 -10 244 -10t224 10v-8q0 -52 -15 -52t-64 -17t-57 -31q-12 -28 -48 -178l-88 -444q-20 -104 -20 -190q0 -280 244 -280q152 0 253 90t147 330l92 484q28 142 26 184q-2 24 -60 38t-90 14q-2 0 -2 23t14 37q168 -8 229 -8t213 8
q0 -60 -14 -60q-20 0 -85 -14t-73 -26q-16 -34 -50 -196l-92 -476q-60 -314 -201 -435t-375 -121q-180 0 -284 103t-104 307q0 76 24 202l84 432q20 104 20 164z" />
    <glyph glyph-name="uni01DC" unicode="&#x1dc;" horiz-adv-x="984" 
d="M582 1378q-32 0 -178 86t-146 134q0 28 35 51t63 23t42 -10q34 -32 122 -133t88 -112t-9 -25t-17 -14zM360 1256q48 0 74 -33t26 -83t-40 -92t-87 -42t-70 32t-23 82t36 93t84 43zM740 1256q48 0 74 -33t26 -83t-40 -92t-87 -42t-70 32t-23 82t36 93t84 43zM366 884
q38 0 62 -29t24 -83t-16 -124l-58 -284q-16 -86 -16 -112q0 -84 48 -84q34 0 98 81t123 205t81 234l38 182q34 10 87 10t93 -10l-122 -636q-4 -22 -4 -60t19 -38t53 27t55 49t31 32q4 0 18 -19t14 -27q-22 -48 -125 -130t-175 -82q-38 0 -62 29t-24 71t8 88t10 58t7 38
t11 60q-72 -144 -211 -274q-75 -70 -127 -70q-136 0 -136 174q0 74 30 216l48 244q8 36 8 74t-22 38t-64 -38t-62 -62q-4 0 -18 20t-14 28q22 46 122 125t168 79z" />
    <glyph glyph-name="Scommaaccent" unicode="&#x218;" horiz-adv-x="910" 
d="M220 -204q0 46 58 72t126 26q24 -28 24 -97t-67 -145t-139 -106h-4q-6 -2 -13 -2t-20 8t-13 12t26 23q78 57 78 98t-28 63t-28 48zM69 374q33 0 51 -18q0 -98 58 -186t174 -88t186 84t70 167t-85 160q-85 76 -139 109q-168 131 -200 214q-16 42 -16 92q0 184 143 306
t317 122q60 0 152 -23t128 -29q-36 -328 -50 -328q-62 0 -62 36q0 86 -55 165t-150 79t-153 -71t-58 -151q0 -104 156 -226q20 -16 98 -72t106 -82t60 -84t32 -124q0 -178 -144 -310t-336 -132q-116 0 -324 50q10 160 10 170l-2 154q0 16 33 16z" />
    <glyph glyph-name="scommaaccent" unicode="&#x219;" horiz-adv-x="644" 
d="M132 -204q0 46 58 72t126 26q24 -28 24 -97t-67 -145t-139 -106h-4q-6 -2 -13 -2t-20 8t-13 12t26 23q78 57 78 98t-28 63t-28 48zM416 794q-80 0 -80 -85t123 -224q47 -53 86 -122t39 -127q0 -110 -90 -180t-216 -70t-196 70q-14 20 -14 59t21 70t51 31t53 -22t37 -47
t41 -46t64 -21t59 24t22 72t-62 129t-124 170t-62 174t90 162t214 77t192 -68q16 -24 16 -64t-21 -69t-58 -29t-83 68t-102 68z" />
    <glyph glyph-name="uni021A" unicode="&#x21a;" horiz-adv-x="1152" 
d="M220 -204q0 46 58 72t126 26q24 -28 24 -97t-67 -145t-139 -106h-4q-6 -2 -13 -2t-20 8t-13 12t26 23q78 57 78 98t-28 63t-28 48zM124 25q0 29 14 29q22 0 67 13t55 31q28 56 50 178l140 718q26 126 26 161t-8 45q-18 22 -138 22t-171 -38t-99 -148q-6 -12 -30 -12
t-34 16l94 304q70 -20 124 -20l404 -14l412 14q52 0 132 20l-24 -306q-18 -14 -43 -14t-25 10q-2 108 -43 148t-125 40q-172 0 -188 -34q-24 -52 -52 -188l-140 -722q-20 -110 -20 -170q0 -22 41 -38t59 -16q4 0 4 -20t-12 -40q-222 12 -232 12l-236 -12q-2 2 -2 31z" />
    <glyph glyph-name="uni021B" unicode="&#x21b;" horiz-adv-x="554" 
d="M96 -204q0 46 58 72t126 26q24 -28 24 -97t-67 -145t-139 -106h-4q-6 -2 -13 -2t-20 8t-13 12t26 23q78 57 78 98t-28 63t-28 48zM444 1092q30 0 50 -4l-50 -240h180q14 0 14 -33t-22 -67h-190l-100 -514q-6 -18 -6 -58t20 -40t54 27t55 49t31 32q4 0 18 -19t14 -27
q-22 -48 -125 -130t-175 -82q-38 0 -63 29t-25 77t18 130l102 526h-128q-6 0 -6 22t9 46t17 32h128l44 220q4 24 136 24z" />
    <glyph glyph-name="uni0237" unicode="&#x237;" horiz-adv-x="604" 
d="M424 884q58 0 95 -41t37 -110t-100 -569q-50 -250 -152 -390q-56 -76 -150 -141t-152 -85q-24 18 -24 35t12 29q122 100 178 206t96 304l98 498q6 30 6 44q0 72 -48 72q-20 0 -66 -66l-46 -66q-6 0 -21 18t-19 34q26 66 98 147t158 81z" />
    <glyph glyph-name="gravecomb" unicode="&#x300;" horiz-adv-x="540" 
d="M430 1036q-32 0 -178 86t-146 134q0 28 35 51t63 23t42 -10q34 -32 122 -133t88 -112t-9 -25t-17 -14z" />
    <glyph glyph-name="acutecomb" unicode="&#x301;" horiz-adv-x="540" 
d="M136 1036q-6 0 -14 12t-8 22t85 109t135 141q16 8 46 8t58 -21t28 -47q0 -48 -151 -136t-179 -88z" />
    <glyph glyph-name="uni0302" unicode="&#x302;" horiz-adv-x="624" 
d="M517 1200q-15 0 -75 47t-100 85q-50 -38 -129 -85t-93 -47q-8 0 -11 16t1 26q4 4 36 31t99 94t103 113q20 20 27 20t29 -43t42 -76t44 -67t37 -51t15 -21q-10 -42 -25 -42z" />
    <glyph glyph-name="tildecomb" unicode="&#x303;" horiz-adv-x="784" 
d="M301 1454q61 0 138 -57t133 -57q28 0 76 46l48 46q12 0 12 -31t-62 -100t-124 -69t-139 56t-135 56q-26 0 -74 -48t-55 -48t-7 26q0 50 64 115t125 65z" />
    <glyph glyph-name="uni0304" unicode="&#x304;" horiz-adv-x="688" 
d="M162 1196h424q23 0 -22 -100l-16 -16h-427q-7 0 -3 20q24 96 44 96z" />
    <glyph glyph-name="uni0305" unicode="&#x305;" horiz-adv-x="1428" 
d="M196 1608h1082q10 0 3 -38q-15 -83 -45 -98h-1080l-8 20q0 10 18 63t30 53z" />
    <glyph glyph-name="uni0306" unicode="&#x306;" horiz-adv-x="614" 
d="M287 1040q-73 0 -121 55t-48 139v14q2 8 22 22t29 14t9 -8q2 -58 41 -94t91 -36t101 35t75 95q0 8 9 8t24 -14t13 -22q-35 -94 -104 -151q-68 -57 -141 -57z" />
    <glyph glyph-name="uni0307" unicode="&#x307;" horiz-adv-x="436" 
d="M254 1286q48 0 76 -37t19 -88t-51 -88t-90 -37t-75 36t-17 88t50 89t88 37z" />
    <glyph glyph-name="uni0308" unicode="&#x308;" horiz-adv-x="762" 
d="M239 1168q45 0 70 -34t15 -82t-47 -82t-82 -34t-70 34t-17 82t47 82t84 34zM587 1168q45 0 69 -34t14 -82t-48 -82t-82 -34t-70 34t-16 82q8 48 48 82t85 34z" />
    <glyph glyph-name="hookabovecomb" unicode="&#x309;" horiz-adv-x="498" 
d="M317 1330q59 0 84 -30t16 -79t-44 -87t-87 -58q-68 -26 -54 -76q-2 -6 -22 -14t-34 -8q-10 4 -21 19q-42 57 93 123q64 30 76 80q8 62 -36 62q-60 0 -72 -72q-8 -42 -76 -42q-12 0 -21 7t-7 19q12 62 79 109t126 47z" />
    <glyph glyph-name="uni030A" unicode="&#x30a;" horiz-adv-x="556" 
d="M334 1388q72 0 112 -55t25 -133t-78 -133t-135 -55t-112 55t-24 133q14 78 77 133t135 55zM274 1092q42 0 77 31t45 77t-13 78t-65 32t-78 -32t-45 -77t14 -77t65 -32z" />
    <glyph glyph-name="uni030B" unicode="&#x30b;" horiz-adv-x="812" 
d="M136 1036q-6 0 -14 12t-8 22t85 109t135 141q16 8 46 8t59 -21t29 -47q0 -48 -152 -136t-180 -88zM408 1036q-6 0 -14 12t-8 22t85 109t135 141q16 8 46 8t58 -21t28 -47q0 -48 -151 -136t-179 -88z" />
    <glyph glyph-name="uni030C" unicode="&#x30c;" horiz-adv-x="588" 
d="M509 1302q15 0 5 -46q-2 -2 -16 -15t-63 -59t-95 -105t-59 -75t-23 -16t-31 56t-119 214q12 46 26 46t70 -50t88 -90q50 40 126 90t91 50z" />
    <glyph glyph-name="uni0312" unicode="&#x312;" horiz-adv-x="496" 
d="M518 1036q0 -46 -58 -72t-126 -26q-24 28 -24 97t67 145t139 106l4 2h8q12 0 25 -8t13 -12t-26 -23q-78 -57 -78 -97t28 -62t28 -50z" />
    <glyph glyph-name="uni0315" unicode="&#x315;" horiz-adv-x="278" 
d="M308 1206q0 68 49 98t117 30q8 -16 8 -55t-11 -96t-79 -144t-124 -119h-8q-8 0 -17 12t-9 18t25 28q77 68 77 132q0 14 -14 43t-14 53z" />
    <glyph glyph-name="dotbelowcomb" unicode="&#x323;" horiz-adv-x="508" 
d="M268 -76q48 0 75 -36t18 -87t-52 -88t-91 -37t-74 36t-17 87t51 88t90 37z" />
    <glyph glyph-name="uni0326" unicode="&#x326;" horiz-adv-x="496" 
d="M154 -90q0 46 58 72t126 26q24 -28 24 -97t-67 -145t-139 -106h-4q-6 -2 -13 -2t-20 8t-13 12t26 23q78 57 78 98t-28 63t-28 48z" />
    <glyph glyph-name="uni0327" unicode="&#x327;" horiz-adv-x="482" 
d="M290 -54q38 0 59 -30t10 -85t-69 -97t-123 -42t-85 24v32q2 10 11 19t15 9t30 -14t53 -14t53 18t29 45t-6 44t-35 17t-54 -12q-4 0 -12 11t-4 17l76 106h48l-38 -50q34 2 42 2z" />
    <glyph glyph-name="mu" unicode="&#x3bc;" horiz-adv-x="894" 
d="M339 884q17 0 57 -29t36 -47q-18 -92 -98 -296l-22 -66q-26 -118 -16 -205t56 -87q140 0 260 272q0 4 26 112t50 214l24 106q58 53 135 -4q35 -26 29 -46q-12 -76 -106 -316l-18 -46q-32 -122 -27 -212t63 -90q30 0 66 21t54 41q4 0 11 -19t1 -35q-30 -66 -88 -113
t-112 -47q-58 2 -79 78t-13 186q-74 -124 -149 -199t-159 -75q-46 0 -67 54t-21 116q0 -6 -17 -84t-30 -152t-10 -164t33 -136q-6 -18 -40 -41t-58 -23q-42 0 -68 54t-26 134q0 128 166 668q6 28 18 102t12 86q14 54 50 248q10 12 35 26t42 14z" />
    <glyph glyph-name="uni2010" unicode="&#x2010;" horiz-adv-x="714" 
d="M606 529q0 -23 -18 -68t-32 -47l-452 -22q-10 0 -10 25t16 67t30 44l452 24q14 0 14 -23z" />
    <glyph glyph-name="uni2011" unicode="&#x2011;" horiz-adv-x="714" 
d="M606 529q0 -23 -18 -68t-32 -47l-452 -22q-10 0 -10 25t16 67t30 44l452 24q14 0 14 -23z" />
    <glyph glyph-name="figuredash" unicode="&#x2012;" horiz-adv-x="1018" 
d="M894 530q14 0 14 -28t-16 -63t-28 -45h-756q-14 0 -14 28t16 63t28 45h756z" />
    <glyph glyph-name="endash" unicode="&#x2013;" horiz-adv-x="1062" 
d="M940 530q12 0 12 -28t-16 -63t-28 -45h-800q-14 0 -14 28t16 63t28 45h802z" />
    <glyph glyph-name="emdash" unicode="&#x2014;" horiz-adv-x="1652" 
d="M1528 530q14 0 14 -28t-16 -63t-28 -45h-1390q-14 0 -14 28t16 63t28 45h1390z" />
    <glyph glyph-name="afii00208" unicode="&#x2015;" horiz-adv-x="2106" 
d="M1984 530q12 0 12 -28t-16 -63t-28 -45h-1844q-14 0 -14 28t16 63t28 45h1846z" />
    <glyph glyph-name="quoteleft" unicode="&#x2018;" horiz-adv-x="482" 
d="M377 1412q13 0 28 -14t17 -30q-56 -32 -105 -82t-63 -98q-4 -26 26 -71t23 -77t-49 -58t-80 -26t-58 14q-22 48 -4 136t82 163t117 109t66 34z" />
    <glyph glyph-name="quoteright" unicode="&#x2019;" horiz-adv-x="476" 
d="M135 958q-13 0 -28 14t-17 30q56 32 105 84t61 98q4 26 -26 71t-23 77t50 57t79 25t58 -14q20 -44 2 -134t-81 -165t-115 -109t-65 -34z" />
    <glyph glyph-name="quotesinglbase" unicode="&#x201a;" horiz-adv-x="490" 
d="M109 -204q-13 0 -28 13t-17 29q56 32 105 84t63 98q4 26 -27 71t-24 77t50 58t78 26t59 -16q24 -50 6 -137t-82 -162t-117 -108t-66 -33z" />
    <glyph glyph-name="quotedblleft" unicode="&#x201c;" horiz-adv-x="752" 
d="M377 1412q13 0 28 -14t17 -30q-56 -32 -105 -82t-63 -98q-4 -26 26 -71t23 -77t-49 -58t-80 -26t-58 14q-22 48 -4 136t82 163t117 109t66 34zM648 1412q12 0 27 -14t17 -30q-56 -32 -104 -83t-62 -97q-4 -26 26 -71t23 -77t-49 -58t-80 -26t-60 14q-20 44 -2 134t82 165
t117 109t65 34z" />
    <glyph glyph-name="quotedblright" unicode="&#x201d;" horiz-adv-x="760" 
d="M135 958q-13 0 -28 14t-17 30q56 32 105 84t61 98q4 26 -26 71t-23 77t50 57t79 25t58 -14q20 -44 2 -134t-81 -165t-115 -109t-65 -34zM415 958q-13 0 -28 14t-17 30q56 32 105 84t63 98q4 26 -26 71t-23 77t49 57t80 25t58 -14q20 -44 2 -134t-82 -165t-116 -109
t-65 -34z" />
    <glyph glyph-name="quotedblbase" unicode="&#x201e;" horiz-adv-x="770" 
d="M109 -204q-13 0 -28 13t-17 29q56 32 105 84t63 98q4 26 -27 71t-24 77t50 57t80 25t59 -14q22 -48 4 -136t-82 -163t-117 -108t-66 -33zM389 -204q-13 0 -27 13t-16 29q56 32 105 84t61 98q4 26 -26 71t-23 77t49 57t81 25t59 -14q20 -44 2 -134t-82 -165t-117 -108
t-66 -33z" />
    <glyph glyph-name="dagger" unicode="&#x2020;" horiz-adv-x="614" 
d="M239 856q37 0 41 14q12 64 58 388q44 -8 72 -8t76 8q-82 -338 -92 -388v-4q0 -10 36 -10t192 8q-21 -75 -28 -144q-180 12 -204 12t-28 -20q-20 -104 -124 -732q-22 10 -70 10t-78 -10q150 676 160 732v4q0 16 -22 16q-128 -8 -206 -12q21 64 28 144q152 -8 189 -8z" />
    <glyph glyph-name="daggerdbl" unicode="&#x2021;" horiz-adv-x="678" 
d="M293 856q37 0 41 14q12 64 58 388q44 -8 72 -8t76 8q-82 -338 -92 -388v-4q0 -10 36 -10t192 8q-21 -75 -28 -144q-180 12 -204 12t-28 -20q-34 -178 -34 -191t20 -13q128 4 206 8q-21 -55 -28 -142q-190 10 -208 10t-22 -16q-12 -64 -58 -388q-44 8 -72 8t-76 -8
q82 340 92 388v4q0 12 -16 12t-212 -10q21 73 28 142q152 -8 187 -8t40 14t41 190v4q0 16 -22 16q-128 -8 -206 -12q21 64 28 144q152 -8 189 -8z" />
    <glyph glyph-name="bullet" unicode="&#x2022;" horiz-adv-x="670" 
d="M378 774q96 0 149 -73t33 -175t-101 -175t-177 -73t-149 73t-33 175t101 175t177 73z" />
    <glyph glyph-name="onedotenleader" unicode="&#x2024;" horiz-adv-x="438" 
d="M181 -24q-51 0 -80 36t-23 90t52 96t97 42t78 -33t21 -87t-50 -99t-95 -45z" />
    <glyph glyph-name="ellipsis" unicode="&#x2026;" horiz-adv-x="1494" 
d="M181 -24q-51 0 -80 36t-23 91t50 97t95 42t80 -34t23 -88t-50 -99t-95 -45zM713 -24q-51 0 -80 36t-23 90t52 97t97 43t78 -34t21 -88t-50 -99t-95 -45zM1237 -24q-51 0 -80 36t-23 91t50 97t95 42t80 -34t23 -88t-50 -99t-95 -45z" />
    <glyph glyph-name="perthousand" unicode="&#x2030;" horiz-adv-x="1880" 
d="M471 1316q125 0 188 -84t51 -212t-118 -236t-230 -108t-188 82t-52 211t118 238t231 109zM454 1252q-70 0 -115 -79t-61 -185q-4 -56 -2 -110t30 -95t76 -41q68 0 111 80t53 160t9 134t-27 95t-74 41zM32 -16q-44 0 -48 24l1166 1276q24 24 40 24q56 0 74 -28
q-1152 -1260 -1170 -1278t-62 -18zM956 636q126 0 188 -83t50 -211t-117 -237t-229 -109t-189 83t-53 212t118 237t232 108zM938 572q-70 0 -116 -79t-56 -160t-7 -135t31 -95t76 -41q68 0 111 79t59 187q4 54 3 108t-27 95t-74 41zM1598 636q126 0 189 -83t51 -211
t-118 -237t-230 -109t-188 83t-52 212t117 237t231 108zM1581 572q-69 0 -115 -79t-56 -160t-7 -135t31 -95t76 -41q68 0 110 79t57 181t-6 176t-90 74z" />
    <glyph glyph-name="minute" unicode="&#x2032;" horiz-adv-x="362" 
d="M275 1398q62 0 55 -67q-4 -41 -69 -147t-129 -188q-12 -18 -30 -18t-14 24q0 2 6 26t15 62q34 142 67 242q6 20 40 43t59 23z" />
    <glyph glyph-name="second" unicode="&#x2033;" horiz-adv-x="606" 
d="M275 1398q62 0 55 -67q-4 -41 -69 -147t-129 -188q-12 -18 -30 -18t-14 24q0 2 6 26t15 62q34 142 67 242q6 20 40 43t59 23zM523 1398q58 0 51 -67q-4 -41 -69 -149t-125 -186q-12 -18 -28 -18q-24 0 -20 24q0 2 7 26t16 62t33 122t33 112t43 51t59 23z" />
    <glyph glyph-name="uni2038" unicode="&#x2038;" horiz-adv-x="608" 
d="M477 -96q-13 0 -70 56t-97 116q-56 -58 -137 -115t-101 -57q-10 0 -10 36q2 8 41 38t101 91t92 108t38 47q23 0 31 -38t34 -85q27 -47 51 -77t44 -53t19 -28t-12 -22t-24 -17z" />
    <glyph glyph-name="guilsinglleft" unicode="&#x2039;" horiz-adv-x="650" 
d="M598 807q0 -9 -11 -24t-143 -127l-182 -160l116 -162q85 -107 93 -121q7 -15 7 -21q0 -24 -64 -46q-29 41 -136 140q-106 98 -196 168q-10 6 -10 31t26 51q215 122 394 260q52 40 62 50q16 -4 30 -17t14 -22z" />
    <glyph glyph-name="guilsinglright" unicode="&#x203a;" horiz-adv-x="660" 
d="M576 508q0 -42 -24 -52q-248 -147 -404 -270q-48 -38 -48 -40q-12 2 -29 14t-17 24t22 33t132 117l180 162l-120 162q-96 124 -96 140q0 24 62 48q24 -32 123 -129t211 -181q8 -16 8 -28z" />
    <glyph glyph-name="uni203E" unicode="&#x203e;" horiz-adv-x="1380" 
d="M1224 1608q14 0 14 -27t-16 -63t-28 -46h-1032q-14 0 -14 27t16 63t28 46h1032z" />
    <glyph glyph-name="Euro" unicode="&#x20ac;" horiz-adv-x="1256" 
d="M736 578q8 0 8 -19t-11 -46t-23 -35h-346q-2 -178 77 -284t239 -106q92 0 165 22t109 47t68 53t47 44t25 26t14 10t20 -14t16 -21t-15 -31t-56 -65t-97 -77q-132 -86 -356 -86t-353 138t-131 344h-104q-10 0 -10 19t11 46t23 35h88q6 46 22 98h-100q-10 0 -10 19t11 46
t23 35h112q90 210 268 354t384 144q160 0 398 -70q0 -12 -13 -129t-15 -129t-19 -21t-27 -9t-28 6q0 59 -24 109q-24 49 -55 78t-91 50t-138 21q-140 0 -255 -113t-175 -291h358q8 0 8 -19t-11 -46t-23 -35h-358q-12 -64 -16 -98h366z" />
    <glyph glyph-name="arrowleft" unicode="&#x2190;" horiz-adv-x="1434" 
d="M1356 562q12 0 12 -23t-16 -62t-32 -51h-1038l64 -92q86 -111 92 -124q6 -12 6 -18q0 -24 -64 -46q-6 17 -116 121q-110 103 -216 187q-8 6 -8 31t26 51q125 72 189 116q63 44 102 71q91 63 163 123q14 -4 30 -16t15 -24t-54 -59t-103 -93l-100 -92h1048z" />
    <glyph glyph-name="arrowup" unicode="&#x2191;" horiz-adv-x="662" 
d="M44 904q-18 0 -28 60q17 6 140 143q122 137 226 269q8 12 34 12t40 -16q76 -208 212 -412q-6 -18 -24 -37t-27 -19t-16 4t-14 13t-12 15t-13 18q-18 28 -33 50t-29 40l-64 88l-232 -1184q-4 -12 -26 -12t-59 11t-41 17l230 1168l-104 -92q-146 -132 -152 -134t-8 -2z" />
    <glyph glyph-name="arrowright" unicode="&#x2192;" horiz-adv-x="1424" 
d="M58 426q-14 0 -14 23t16 63t32 52h1044l-68 94q-35 45 -48 61q-14 17 -22 28t-13 17t-10 16t-5 14v8q4 24 64 44q41 -57 131 -145q89 -87 189 -165q12 -14 8 -36q0 -28 -22 -46q-260 -156 -395 -267q-45 -37 -47 -41q-16 4 -32 16t-14 26t66 70t94 82l94 86h-1048z" />
    <glyph glyph-name="arrowdown" unicode="&#x2193;" horiz-adv-x="658" 
d="M480 1414q22 0 57 -11t41 -19l-230 -1168l104 96q20 18 67 61t65 58t30 15q18 0 28 -58q-16 -5 -140 -143q-124 -137 -228 -269q-8 -14 -33 -14t-41 18q-80 218 -208 410q24 58 52 58q12 0 20 -12t17 -24t21 -31t56 -77l64 -84l232 1182q4 12 26 12z" />
    <glyph glyph-name="partialdiff" unicode="&#x2202;" horiz-adv-x="866" 
d="M537 1276q123 0 199 -128t76 -291t-33 -305t-97 -268t-175 -205t-244 -79t-201 86t-48 240q16 156 140 284t296 128q74 0 114 -19t42 -19q12 0 20 24q18 64 18 172q0 162 -64 216q-58 60 -149 60t-217 -86q-18 36 0 58q38 48 119 90t204 42zM408 648q-74 0 -134 -84
t-68 -206q-18 -122 12 -194t101 -72t126 68q97 120 117 296q12 96 -34 144t-120 48z" />
    <glyph glyph-name="summation" unicode="&#x2211;" horiz-adv-x="1140" 
d="M-18 11q0 15 6 34t10 19q16 0 45 18t43 34l472 512q4 4 4 14l-242 528q-40 84 -86 84q-8 0 -8 21t16 41q172 -4 220 -4l664 12l-2 -130l6 -154q-10 -10 -37 -10t-27 14q-24 178 -216 178h-134q-176 0 -172 -18l224 -482q8 -20 8 -36t-10 -26q-72 -82 -204 -213t-211 -214
t-79 -104t214 -21h70q222 0 286 32q32 16 80 69t84 123q6 12 37 12t39 -12q-148 -286 -166 -338l-690 10l-240 -12q-4 4 -4 19z" />
    <glyph glyph-name="minus" unicode="&#x2212;" horiz-adv-x="994" 
d="M900 530q12 0 12 -28t-16 -63t-28 -45h-800q-14 0 -14 28t16 63t28 45h802z" />
    <glyph glyph-name="uni2213" unicode="&#x2213;" horiz-adv-x="1056" 
d="M410 618q8 0 8 8q12 58 32 177t34 191q4 18 54 27t74 9t20 -18q-46 -260 -70 -384q-4 -10 6 -10h354q8 0 8 -39t-46 -89h-346q-8 0 -8 -8l-70 -368q-2 -14 -43 -25t-65 -11t-32 6t-6 12l72 384q0 10 -8 10h-350q-8 0 -8 36t48 92h342zM1042 1232q8 0 8 -39t-46 -89h-856
q-8 0 -8 36t48 92h854z" />
    <glyph glyph-name="radical" unicode="&#x221a;" horiz-adv-x="1146" 
d="M366 626q16 0 18 -12q2 -46 20 -138l100 -460l576 1566l86 -6l-692 -1882q-44 -46 -86 -46q-16 0 -16 8l-172 760l-180 -98q-36 20 -32 52q4 18 52 48q206 126 296 198q14 10 30 10z" />
    <glyph glyph-name="proportional" unicode="&#x221d;" horiz-adv-x="1320" 
d="M740 342h-2q-194 -200 -320 -243q-62 -21 -126 -21q-120 0 -185 96t-51 230q14 176 150 310t298 134q129 0 216 -97q63 -70 92 -118q30 -49 34 -50t6 1q244 264 436 264q8 -24 8 -40q0 -80 -32 -80q-144 0 -372 -236q-2 -2 0 -4t31 -59q34 -67 89 -142t132 -75
q30 0 -1 -56t-63 -74q-68 0 -126 27t-94 65t-61 76t-40 65t-19 27zM456 714q-90 0 -164 -87t-84 -191t37 -167t125 -63q106 0 277 179q45 47 49 51t2 6t-20 39t-29 59q-87 174 -193 174z" />
    <glyph glyph-name="infinity" unicode="&#x221e;" horiz-adv-x="1618" 
d="M504 848q129 0 216 -97q63 -70 92 -118q30 -49 34 -50t6 1q244 264 436 264q120 0 191 -96t57 -228q-14 -176 -153 -309t-303 -133q-68 0 -126 27t-94 65t-61 76t-40 65t-19 27h-2q-194 -200 -320 -243q-62 -21 -126 -21q-120 0 -185 96t-51 230q14 176 150 310t298 134z
M456 714q-90 0 -164 -87t-84 -191t37 -166t123 -62t135 48t78 64t67 66l48 50q4 4 2 6t-20 39t-29 59q-87 174 -193 174zM1214 724q-48 0 -90 -27t-65 -44t-52 -45t-44 -42t-42 -43t-29 -31t0 -4l30 -60q35 -67 77 -124q43 -56 76 -73t69 -17q90 0 158 88t78 189t-38 167
t-128 66z" />
    <glyph glyph-name="notequal" unicode="&#x2260;" horiz-adv-x="1018" 
d="M106 510q-14 0 -14 26t17 61t31 41h434l116 164q8 2 38 -13t30 -29l-2 -12l-78 -110h268q14 0 14 -26t-17 -61t-31 -41h-326l-108 -154h414q14 0 14 -26t-17 -61t-31 -41h-470l-114 -160q-14 0 -42 11t-28 25q0 8 6 14l76 110h-234q-14 0 -14 26t17 61t31 41h290l108 154
h-378z" />
    <glyph glyph-name="lessequal" unicode="&#x2264;" horiz-adv-x="940" 
d="M934 986q0 -42 -8 -46l-668 -322l552 -326q0 -26 -19 -73t-26 -47t-15 4l-632 372q-28 18 -28 56q0 60 64 92l756 362q24 -30 24 -72zM750 128q12 0 12 -33t-48 -85h-708q-12 0 -12 31t48 87h708z" />
    <glyph glyph-name="greaterequal" unicode="&#x2265;" horiz-adv-x="908" 
d="M38 245q0 43 8 47l668 320l-552 328q0 26 19 72t28 46t13 -2l632 -372q28 -18 28 -56q0 -60 -64 -92l-756 -364q-24 30 -24 73zM750 128q12 0 12 -33t-48 -85h-708q-12 0 -12 31t48 87h708z" />
    <glyph glyph-name="f_f" unicode="&#xf100;" horiz-adv-x="1786" 
d="M712 -304q90 0 157 101t95 255l122 658v4q0 12 -6 12h-334q-12 0 -14 -16l-112 -596q-44 -224 -102 -300q20 -58 84 -88t110 -30zM1110 1370q58 0 128 -27t98 -53q126 104 272 104t190 -66q0 -166 -94 -166q-38 0 -79 69t-79 69q-66 0 -139 -126t-111 -332v-4q0 -8 6 -8
h244q14 0 14 -32t-24 -72h-250q-12 0 -14 -16l-102 -548q-42 -228 -207 -405t-339 -177q-68 0 -124 30t-82 58q-118 -116 -276 -116q-72 0 -116 25t-54 55q0 144 96 144q39 0 69 -66q11 -24 32 -45t47 -21q50 0 94 69q69 108 106 303l130 694v4q0 12 -8 12h-124q-6 0 -6 16
t36 52t70 36h44q12 0 16 26q40 232 197 373t339 141zM1052 1276q-98 0 -186 -120t-110 -314v-4q0 -8 6 -8h338q10 0 19 56t46 149t37 104t-2 21q-24 116 -148 116z" />
    <glyph glyph-name="f_i" unicode="&#xf101;" horiz-adv-x="1422" 
d="M1194 200q0 -66 42 -66q22 0 68 66l48 64q6 0 22 -18t20 -34q-26 -66 -98 -147t-146 -81q-144 0 -144 170q0 38 12 98l66 352q6 30 6 44q0 88 -82 88l-260 -10q-12 0 -14 -16l-112 -596q-56 -286 -193 -424t-287 -138q-72 0 -116 25t-54 55q0 64 25 104t68 40t74 -66
q11 -24 32 -45t47 -21q72 0 124 118t76 254l132 694v4q0 12 -8 12h-124q-8 0 -8 16t36 52t70 36h46q12 0 16 26q42 238 184 388t318 150q112 0 182 -44q62 -36 90 -92q0 -68 -31 -110t-75 -42t-76 62q-66 132 -164 132q-62 0 -132 -106t-102 -270l-14 -82v-4q0 -8 8 -8
q158 0 248 10l244 16q8 0 21 -24t13 -51t-49 -284t-49 -297z" />
    <glyph glyph-name="f_f_i" unicode="&#xf102;" horiz-adv-x="1944" 
d="M712 -304q90 0 157 101t95 255l122 658v4q0 12 -6 12h-334q-12 0 -14 -16l-112 -596q-40 -218 -102 -300q20 -58 84 -88t110 -30zM1052 1276q-98 0 -186 -120t-110 -314v-4q0 -8 6 -8h338q10 0 19 56t46 149t37 104t-2 21q-24 116 -148 116zM1716 200q0 -66 42 -66
q22 0 70 66l46 64q6 0 21 -18t19 -34q-26 -66 -98 -147t-146 -81q-142 0 -142 170q0 38 12 98l66 352q4 20 4 48t-23 56t-69 28l-232 -10q-12 0 -14 -16l-102 -548q-42 -228 -207 -405t-339 -177q-68 0 -124 30t-82 58q-118 -116 -276 -116q-72 0 -116 25t-54 55
q0 144 96 144q39 0 69 -66q11 -24 32 -45t47 -21q50 0 94 69q69 108 106 303l130 694v4q0 12 -8 12h-124q-6 0 -6 16t36 52t70 36h44q12 0 16 26q40 232 197 373t339 141q58 0 128 -27t98 -53q126 104 288 104q110 0 177 -41t95 -95q0 -68 -31 -110t-75 -42t-76 62
q-66 132 -162 132q-66 0 -143 -127t-113 -331v-4q0 -8 6 -8l222 10l254 16q8 0 22 -24t14 -60t-49 -286t-49 -286z" />
    <glyph glyph-name="f_l" unicode="&#xf103;" horiz-adv-x="1444" 
d="M1005 1300q-63 0 -132 -106t-101 -270l-14 -82v-4q0 -8 8 -8h242q14 0 14 -32t-24 -72h-250q-12 0 -14 -16l-112 -596q-56 -286 -193 -424t-287 -138q-72 0 -116 25t-54 55q0 64 25 104t68 40t74 -66q11 -24 32 -45t47 -21q72 0 124 118t76 254l132 694v4q0 12 -8 12
h-124q-8 0 -8 16t36 52t70 36h46q12 0 16 26q42 238 183 387t319 149q52 0 108 -18t78 -18t59 8t63 16t28 8h8q14 0 14 -32q-36 -70 -58 -180l-182 -942q-4 -16 -4 -34q0 -68 42 -68q22 0 68 66l48 66q6 0 22 -18t20 -34q-26 -66 -98 -147t-146 -81q-144 0 -144 170
q0 38 12 98l166 852l2 22q0 78 -59 126t-122 48z" />
    <glyph glyph-name="f_f_l" unicode="&#xf104;" horiz-adv-x="1986" 
d="M712 -304q90 0 157 101t95 255l122 658v4q0 12 -6 12h-334q-12 0 -14 -16l-112 -596q-40 -218 -102 -300q20 -58 84 -88t110 -30zM1052 1276q-98 0 -186 -120t-110 -314v-4q0 -8 6 -8h338q10 0 19 56t46 149t37 104t-2 21q-24 116 -148 116zM1547 1300q-63 0 -139 -127
t-112 -331v-4q0 -8 12 -8h242q14 0 14 -32t-24 -72h-250q-16 0 -18 -16l-102 -548q-42 -228 -207 -405t-339 -177q-68 0 -124 30t-82 58q-118 -116 -276 -116q-72 0 -116 25t-54 55q0 144 96 144q39 0 69 -66q11 -24 32 -45t47 -21q50 0 94 69q69 108 106 303l130 694v4
q0 12 -8 12h-124q-6 0 -6 16t36 52t70 36h44q12 0 16 26q40 232 197 373t339 141q58 0 128 -27t98 -53q124 102 286 102q54 0 110 -18t77 -18t58 8t63 16t28 8h8q14 0 14 -32q-36 -70 -58 -180l-182 -942q-4 -16 -4 -34q0 -68 42 -68q22 0 70 66l46 66q6 0 22 -18t20 -34
q-26 -66 -98 -147t-146 -81q-144 0 -144 170q0 38 12 98l166 852l2 22q0 78 -59 126t-122 48z" />
    <glyph glyph-name="f_b" unicode="&#xf105;" horiz-adv-x="1818" 
d="M1186 1126q0 78 -59 126t-122 48t-132 -106t-101 -270l-14 -82v-4q0 -8 8 -8h242q14 0 14 -32t-24 -72h-250q-12 0 -14 -16l-112 -596q-56 -286 -193 -424t-287 -138q-72 0 -116 25t-54 55q0 64 25 104t68 40t74 -66q11 -24 32 -45t47 -21q72 0 124 118t76 254l132 694v4
q0 12 -8 12h-124q-8 0 -8 16t36 52t70 36h46q12 0 16 26q42 238 183 388t319 150q52 0 108 -19t78 -19t59 8t63 16t28 8h8q14 0 14 -32q-36 -68 -58 -180l-98 -516q0 -12 5 -12t11 8q66 92 159 160t166 68t123 -55t50 -190t-93 -295t-226 -260t-241 -100t-163 53t-55 131
t16 152l150 784q2 12 2 22zM1526 736q-84 0 -181 -125t-119 -235l-16 -80q-14 -76 -14 -124q0 -84 66 -84q78 0 155 88t124 216t47 248q0 36 -15 66t-47 30z" />
    <glyph glyph-name="f_f_b" unicode="&#xf106;" horiz-adv-x="2360" 
d="M712 -304q90 0 157 101t95 255l122 658v4q0 12 -6 12h-334q-12 0 -14 -16l-112 -596q-40 -218 -102 -300q20 -58 84 -88t110 -30zM1052 1276q-98 0 -186 -120t-110 -314v-4q0 -8 6 -8h338q10 0 19 56t46 149t37 104t-2 21q-24 116 -148 116zM1728 1126q0 78 -59 126
t-122 48t-139 -127t-112 -331v-4q0 -8 12 -8h242q14 0 14 -32t-24 -72h-250q-16 0 -18 -16l-102 -548q-42 -228 -207 -405t-339 -177q-68 0 -124 30t-82 58q-118 -116 -276 -116q-72 0 -116 25t-54 55q0 144 96 144q39 0 69 -66q11 -24 32 -45t47 -21q50 0 94 69
q69 108 106 303l130 694v4q0 12 -8 12h-124q-6 0 -6 16t36 52t70 36h44q12 0 16 26q40 232 197 373t339 141q58 0 128 -27t98 -53q126 104 286 104q54 0 110 -19t77 -19t58 8t63 16t28 8h8q14 0 14 -32q-36 -68 -58 -180l-98 -516q0 -12 5 -12t11 8q66 92 159 160t166 68
t123 -55t50 -190t-93 -295t-226 -260t-241 -100t-163 53t-55 131t16 152l150 784q2 4 2 22zM2068 736q-84 0 -181 -125t-119 -235l-16 -80q-14 -76 -14 -124q0 -84 66 -84q78 0 155 88t124 216t47 248q0 36 -15 66t-47 30z" />
    <glyph glyph-name="f_k" unicode="&#xf107;" horiz-adv-x="1864" 
d="M1512 764q-72 0 -164 -117t-92 -163q0 -14 31 -14t103 17q198 47 198 179q0 38 -20 68t-56 30zM1005 1300q-63 0 -132 -106t-101 -270l-14 -82v-4q0 -8 8 -8h242q14 0 14 -32t-24 -72h-250q-12 0 -14 -16l-112 -596q-56 -286 -193 -424t-287 -138q-72 0 -116 25t-54 55
q0 64 25 104t68 40t74 -66q11 -24 32 -45t47 -21q72 0 124 118t76 254l132 694v4q0 12 -8 12h-124q-8 0 -8 16t36 52t70 36h46q12 0 16 26q42 238 183 387t319 149q52 0 108 -18t78 -18t59 8t63 16t28 8h8q14 0 14 -32q-36 -68 -58 -180l-98 -504q0 -10 3 -10t13 16
q128 206 284 206q82 0 142 -48t60 -124q0 -128 -105 -205t-253 -99q90 -148 148 -217t101 -69t88 73q13 21 15 23t13 2t23 -8t16 -18q-20 -62 -78 -130t-157 -68t-213 134q-59 71 -128 214l-22 44l-2 2q-4 0 -4 -4l-74 -386q-36 -12 -85 -12t-97 12l214 1104l2 22
q0 78 -59 126t-122 48z" />
    <glyph glyph-name="f_f_k" unicode="&#xf108;" horiz-adv-x="2406" 
d="M712 -304q90 0 157 101t95 255l122 658v4q0 12 -6 12h-334q-12 0 -14 -16l-112 -596q-40 -218 -102 -300q20 -58 84 -88t110 -30zM1052 1276q-98 0 -186 -120t-110 -314v-4q0 -8 6 -8h338q10 0 19 56t46 149t37 104t-2 21q-24 116 -148 116zM2054 764q-72 0 -164 -117
t-92 -163q0 -14 31 -14t103 17q198 47 198 179q0 38 -20 68t-56 30zM1547 1300q-63 0 -139 -127t-112 -331v-4q0 -8 12 -8h242q14 0 14 -32t-24 -72h-250q-16 0 -18 -16l-102 -548q-42 -228 -207 -405t-339 -177q-68 0 -124 30t-82 58q-118 -116 -276 -116q-72 0 -116 25
t-54 55q0 144 96 144q39 0 69 -66q11 -24 32 -45t47 -21q50 0 94 69q69 108 106 303l130 694v4q0 12 -8 12h-124q-6 0 -6 16t36 52t70 36h44q12 0 16 26q40 232 197 373t339 141q58 0 128 -27t98 -53q124 102 286 102q54 0 110 -18t77 -18t58 8t63 16t28 8h8q14 0 14 -32
q-36 -68 -58 -180l-98 -504q0 -10 3 -10t13 16q128 206 284 206q82 0 142 -48t60 -124q0 -128 -105 -205t-253 -99q90 -148 148 -217t101 -69t88 73q13 21 15 23t13 2t23 -8t16 -18q-20 -62 -78 -130t-157 -68t-213 134q-72 86 -128 214l-22 44l-2 2q-4 0 -4 -4l-74 -386
q-36 -12 -85 -12t-97 12l214 1104l2 22q0 78 -59 126t-122 48z" />
    <glyph glyph-name="f_h" unicode="&#xf109;" horiz-adv-x="1872" 
d="M1005 1300q-63 0 -132 -106t-101 -270l-14 -82v-4q0 -8 8 -8h242q14 0 14 -32t-24 -72h-250q-12 0 -14 -16l-112 -596q-56 -286 -193 -424t-287 -138q-72 0 -116 25t-54 55q0 64 25 104t68 40t74 -66q11 -24 32 -45t47 -21q72 0 124 118t76 254l132 694v4q0 12 -8 12
h-124q-8 0 -8 16t36 52t70 36h46q12 0 16 26q42 238 183 387t319 149q52 0 108 -18t78 -18t59 8t63 16t28 8h8q14 0 14 -32q-36 -70 -58 -180q-122 -622 -122 -624l2 -2h2q39 74 105 161q130 173 231 173q68 0 100 -49t32 -114t-26 -205l-52 -282q-4 -12 -4 -34
q0 -68 42 -68q22 0 70 66l46 66q6 0 22 -18t20 -34q-26 -66 -98 -147t-158 -81q-58 0 -95 42t-37 112t39 248t39 228q0 88 -46 88q-58 0 -163 -177t-147 -373l-32 -152q-34 -10 -92 -10t-88 10l214 1104l2 22q0 78 -59 126t-122 48z" />
    <glyph glyph-name="f_f_h" unicode="&#xf10a;" horiz-adv-x="2414" 
d="M712 -304q90 0 157 101t95 255l122 658v4q0 12 -6 12h-334q-12 0 -14 -16l-112 -596q-40 -218 -102 -300q20 -58 84 -88t110 -30zM1052 1276q-98 0 -186 -120t-110 -314v-4q0 -8 6 -8h338q10 0 19 56t46 149t37 104t-2 21q-24 116 -148 116zM1547 1300q-63 0 -139 -127
t-112 -331v-4q0 -8 12 -8h242q14 0 14 -32t-24 -72h-250q-16 0 -18 -16l-102 -548q-42 -228 -207 -405t-339 -177q-68 0 -124 30t-82 58q-118 -116 -276 -116q-72 0 -116 25t-54 55q0 144 96 144q39 0 69 -66q11 -24 32 -45t47 -21q50 0 94 69q69 108 106 303l130 694v4
q0 12 -8 12h-124q-6 0 -6 16t36 52t70 36h44q12 0 16 26q40 232 197 373t339 141q58 0 128 -27t98 -53q124 102 286 102q54 0 110 -18t77 -18t58 8t63 16t28 8h8q14 0 14 -32q-36 -70 -58 -180q-122 -622 -122 -624l2 -2h2q39 74 105 161q130 173 231 173q68 0 100 -49
t32 -114t-26 -205l-52 -282q-4 -12 -4 -34q0 -68 42 -68q22 0 68 66l48 66q6 0 22 -18t20 -34q-26 -66 -98 -147t-158 -81q-58 0 -95 42t-37 112t39 248t39 228q0 88 -46 88q-58 0 -163 -177t-147 -373l-32 -152q-34 -10 -92 -10t-88 10l214 1104l2 22q0 78 -59 126t-122 48
z" />
    <glyph glyph-name="f_j" unicode="&#xf10b;" horiz-adv-x="1356" 
d="M1279 832q13 -24 13 -65t-110 -603q-50 -250 -152 -390q-56 -76 -150 -141t-152 -85q-24 18 -24 35t12 29q122 100 178 206t96 304l94 482q6 30 6 44q0 88 -82 88l-260 -10q-12 0 -14 -16l-112 -596q-56 -286 -193 -424t-287 -138q-72 0 -116 25t-54 55q0 64 25 104
t68 40t74 -66q11 -24 32 -45t47 -21q72 0 124 118t76 254l132 694v4q0 12 -8 12h-124q-8 0 -8 16t36 52t70 36h46q12 0 16 26q42 238 184 388t318 150q112 0 182 -44q62 -36 90 -92q0 -68 -31 -110t-75 -42t-76 62q-66 132 -164 132q-62 0 -132 -106t-102 -270l-14 -82v-4
q0 -8 8 -8q158 0 248 10l244 16q8 0 21 -24z" />
    <glyph glyph-name="f_f_j" unicode="&#xf10c;" horiz-adv-x="1888" 
d="M712 -304q90 0 157 101t95 255l122 658v4q0 12 -6 12h-334q-12 0 -14 -16l-112 -596q-40 -218 -102 -300q20 -58 84 -88t110 -30zM1052 1276q-98 0 -186 -120t-110 -314v-4q0 -8 6 -8h338q10 0 19 56t46 149t37 104t-2 21q-24 116 -148 116zM1802 785q0 -23 -37 -235
t-73 -386q-50 -250 -152 -390q-56 -76 -150 -141t-152 -85q-24 18 -24 35t12 29q122 100 178 206t96 304l94 482q6 30 6 44q0 88 -82 88l-232 -10q-12 0 -14 -16l-102 -548q-42 -228 -207 -405t-339 -177q-68 0 -124 30t-82 58q-118 -116 -276 -116q-72 0 -116 25t-54 55
q0 144 96 144q39 0 69 -66q11 -24 32 -45t47 -21q50 0 94 69q69 108 106 303l130 694v4q0 12 -8 12h-124q-6 0 -6 16t36 52t70 36h44q12 0 16 26q40 232 197 373t339 141q58 0 128 -27t98 -53q126 104 288 104q110 0 177 -41t95 -95q0 -68 -31 -110t-75 -42t-76 62
q-66 132 -162 132q-66 0 -143 -127t-113 -331v-4q0 -8 6 -8l222 10l244 16q8 0 21 -24t13 -47z" />
    <glyph glyph-name="T_h" unicode="&#xf10d;" horiz-adv-x="1850" 
d="M883 1222q-153 0 -169 -34q-24 -52 -52 -188l-140 -722q-20 -110 -20 -170q0 -22 42 -39t52 -17t10 -8q0 -32 -12 -52l-232 14q-40 0 -236 -14q-2 2 -2 31t14 29q22 0 67 14t55 32q28 56 50 178l140 718q26 126 26 161t-8 45q-18 22 -138 22t-171 -38t-99 -148
q-6 -12 -30 -12t-34 16l94 304q78 -22 124 -22l404 -10q440 0 531 17t127 26t76 21t42 12h8q16 0 16 -32q-44 -94 -62 -190q-118 -602 -118 -614v-2h4q37 70 103 159q128 175 231 175q68 0 100 -49t32 -114t-26 -205l-52 -282q-4 -12 -4 -34q0 -68 44 -68q22 0 70 66l46 66
q6 0 21 -18t19 -34q-26 -66 -98 -147t-158 -81q-58 0 -95 42t-37 112t39 248t39 228q0 88 -46 88q-58 0 -163 -177t-147 -373l-32 -152q-34 -10 -92 -10t-88 10l216 1108q0 66 -64 90t-217 24z" />
    <glyph glyph-name="uniF730" unicode="&#xf730;" horiz-adv-x="946" 
d="M647 900q177 0 275 -133t62 -323t-185 -324t-327 -134t-275 134t-60 325t185 323t325 132zM614 784q-98 0 -179 -97t-107 -236t26 -244t150 -105t179 97t107 236t-26 244t-150 105z" />
    <glyph glyph-name="uniF731" unicode="&#xf731;" horiz-adv-x="532" 
d="M66 60q20 0 66 17t52 33q18 42 38 134l74 382q16 84 14 150q-2 14 -32 25t-54 13h-12q-14 0 -6 31t8 35q240 8 283 14t87 12t72 10q10 -14 4 -40t-12 -26q-20 -2 -65 -22t-51 -34q-20 -56 -38 -142l-74 -382q-18 -94 -16 -160q2 -14 40 -32t52 -18q6 0 2 -29t-10 -37
q-156 12 -216 12l-218 -12q-6 8 -1 37t13 29z" />
    <glyph glyph-name="uniF732" unicode="&#xf732;" horiz-adv-x="786" 
d="M579 914q117 0 175 -75q135 -174 -130 -407q-114 -96 -300 -236q-6 -6 -6 -15t6 -9h240q20 0 37 3t29 5t25 12t20 14q11 6 32 41t32 53t33 18t32 -16q-16 -38 -61 -141t-65 -161h-622q-14 4 -6 40q241 212 338 306q170 167 190 270q10 56 -18 100t-87 44t-103 -20
t-69 -41t-58 -53t-41 -38q-24 -3 -24 52l10 18q54 76 164 156t227 80z" />
    <glyph glyph-name="uniF733" unicode="&#xf733;" horiz-adv-x="760" 
d="M616 916q72 0 124 -54t34 -148t-90 -181t-154 -145q82 -4 158 -79t52 -201t-139 -240t-255 -177t-254 -63q-52 0 -108 24q-17 69 36 117q32 29 62 29t62 -35t72 -35q100 0 189 93t111 208t-15 181t-119 66q-54 0 -120 -22q-18 6 -11 36t17 46q112 40 202 118t110 184
q14 66 -13 104t-62 38t-58 -6t-39 -13t-36 -22t-29 -21t-27 -22l-16 -16q-8 -8 -14 -8q-20 0 -14 40q0 4 4 12q158 192 340 192z" />
    <glyph glyph-name="uniF734" unicode="&#xf734;" horiz-adv-x="886" 
d="M560 156l82 422q2 4 0 11t-4 7l-404 -430q-2 -2 -4 -13t10 -11l298 -2q18 6 22 16zM536 -374q-80 0 -74 30l68 344q0 12 -18 12h-442q-20 24 -12 76l756 804q22 26 43 26t30 -6t7 -14l-144 -740q-2 -14 12 -16h82q28 0 10 -102q-2 -8 -22 -28h-102q-8 0 -12 -16l-68 -352
q-34 -18 -114 -18z" />
    <glyph glyph-name="uniF735" unicode="&#xf735;" horiz-adv-x="670" 
d="M429 716h-55q-16 0 -22 -16l-40 -118q-4 -20 28 -28q150 -38 242 -152t64 -264q-44 -230 -243 -370t-425 -140q-8 18 -3 39t17 21q118 0 261 103t179 281q28 140 -40 225t-202 117q-18 4 -20 26q0 2 71 204t81 228t20 26q384 0 446 14q10 -20 0 -81t-42 -105
q-163 -10 -317 -10z" />
    <glyph glyph-name="uniF736" unicode="&#xf736;" horiz-adv-x="832" 
d="M548 664q-82 0 -148 -66q-117 -291 -64 -436q30 -82 116 -82q60 0 115 66t81 206q30 128 6 220t-106 92zM618 762q142 0 207 -114t34 -271t-160 -273t-278 -116t-238 122t-57 285q62 315 334 554q233 205 498 325q32 -8 22 -62q-156 -74 -296 -207t-234 -301
q82 58 168 58z" />
    <glyph glyph-name="uniF737" unicode="&#xf737;" horiz-adv-x="864" 
d="M298 896h562l124 8q14 0 8 -29t-74 -123l-796 -1124q-6 -2 -22 -2t-28 19q-16 26 0 59l726 1018l-430 -2q-84 0 -154 -140q-44 -6 -58 12q14 44 53 142t48 130t41 32z" />
    <glyph glyph-name="uniF738" unicode="&#xf738;" horiz-adv-x="808" 
d="M649 1260q131 0 216 -79t59 -213q-18 -96 -93 -171t-161 -121q-6 -2 -2 -12q141 -134 161 -224q11 -50 1 -104q-30 -148 -159 -248t-275 -100t-233 90t-57 244q38 196 278 314q8 4 0 12q-120 112 -120 204q0 42 6 108q26 126 137 213t242 87zM593 736q9 0 15 6
q96 68 126 224q18 90 -6 147t-90 57t-113 -53t-61 -127t6 -122t41 -68t47 -42t35 -22zM422 74q74 0 128 55t68 129t1 122t-58 99t-71 73t-34 22t-12 -2q-102 -50 -140 -256q-20 -102 12 -172t106 -70z" />
    <glyph glyph-name="uniF739" unicode="&#xf739;" horiz-adv-x="834" 
d="M560 820q-60 0 -115 -65t-81 -205q-30 -128 -6 -220t106 -92t148 66q48 114 70 234t-7 201t-115 81zM590 912q148 0 237 -121t57 -284q-62 -313 -333 -554q-230 -204 -497 -325q-30 14 -22 60q154 74 294 206t234 302q-80 -56 -166 -56q-142 0 -208 113t-35 270t161 273
t278 116z" />
    <glyph glyph-name="gravecomb.cap" unicode="&#xf890;" horiz-adv-x="654" 
d="M494 1400q-40 0 -200 59t-160 95q0 30 38 46t79 16t61 -10q52 -32 130 -99t78 -78t-9 -20t-17 -9z" />
    <glyph glyph-name="acutecomb.cap" unicode="&#xf891;" horiz-adv-x="660" 
d="M168 1400q-8 0 -17 10t-9 21t78 77t132 98q20 10 60 10t79 -16t39 -46q0 -36 -161 -95t-201 -59z" />
    <glyph glyph-name="uni0302.cap" unicode="&#xf892;" horiz-adv-x="800" 
d="M630 1430q-38 0 -212 120q-60 -36 -152 -78t-110 -42q-24 0 -12 38q2 2 104 73t174 143q22 18 33 18t18 -13q41 -77 97 -133t72 -71t18 -17q-10 -38 -30 -38z" />
    <glyph glyph-name="uni030A.cap" unicode="&#xf893;" horiz-adv-x="546" 
d="M332 1538q72 0 111 -54t24 -132t-75 -134t-132 -56t-113 56t-27 134t77 132t135 54zM276 1242q42 0 76 32t44 78t-13 77t-65 31t-77 -31t-45 -77t14 -78t66 -32z" />
    <glyph glyph-name="tildecomb.cap" unicode="&#xf894;" horiz-adv-x="974" 
d="M152 1462q-16 0 -6 40t48 86q86 92 162 92t168 -61t158 -61q34 0 89 51t59 51q14 0 8 -37t-52 -91q-78 -90 -157 -90t-169 61t-158 61q-32 0 -88 -51t-62 -51z" />
    <glyph glyph-name="uni0304.cap" unicode="&#xf895;" horiz-adv-x="802" 
d="M150 1290q-14 0 -14 16t17 55t29 39h500q18 0 3 -38t-24 -53t-11 -19h-500z" />
    <glyph glyph-name="uni0306.cap" unicode="&#xf896;" horiz-adv-x="588" 
d="M277 1230q-65 0 -112 46t-59 130q0 8 27 29t27 7q10 -44 49 -74t89 -30t100 30t76 74q0 4 11 3t21 -16t4 -37q-40 -70 -104 -116t-129 -46z" />
    <glyph glyph-name="uni0327.cap" unicode="&#xf897;" horiz-adv-x="530" 
d="M114 -260q8 0 36 -16t62 -16t61 21t33 52t-7 52t-41 21t-62 -14q-4 0 -13 13t-5 19q80 110 88 126h58l-46 -58h48q44 0 69 -34t15 -82q-16 -82 -83 -132t-141 -50t-104 30q0 68 32 68z" />
    <glyph glyph-name="uni0307.cap" unicode="&#xf898;" horiz-adv-x="520" 
d="M288 1684q48 0 75 -36t18 -87t-51 -88t-90 -37t-75 36t-18 87t51 88t90 37z" />
    <glyph glyph-name="uni0323.cap" unicode="&#xf899;" horiz-adv-x="506" 
d="M268 -68q48 0 74 -36t16 -88t-50 -88t-88 -36t-75 36t-18 87t51 88t90 37z" />
    </font>
</defs>
</svg>
