<?xml version="1.0" standalone="no"?>
<!DOCTYPE svg PUBLIC "-//W3C//DTD SVG 1.1//EN" "http://www.w3.org/Graphics/SVG/1.1/DTD/svg11.dtd" >
<svg xmlns="http://www.w3.org/2000/svg">
<metadata>
Created by FontPrep 20130207 at Tue Nov 22 10:26:07 2016
 By Alexander McMillan
Copyright (c) 2010, Sebastian Kosch (sebastian@aldusleaf.org),
with Reserved Font Name "Crimson Text".
This Font Software is licensed under the SIL Open Font License, Version 1.1.
This license is available with a FAQ at: http://scripts.sil.org/OFL
</metadata>
<defs>
<font id="25df70ecdc24859f98685389d9497763" horiz-adv-x='1024' >
  <font-face 
    font-family="CrimsonText-BoldItalic"
    font-weight="700"
    font-style="italic"
    font-stretch="normal"
    units-per-em="2048"
    panose-1="2 0 8 3 0 0 0 0 0 0"
    ascent="1434"
    descent="-614"
    x-height="898"
    cap-height="1324"
    bbox="-336 -476 2532 1878"
    underline-thickness="102"
    underline-position="-204"
    slope="-11"
    unicode-range="U+0020-F89F"
  />
<missing-glyph horiz-adv-x="748" 
d="M136 68h408v1228h-408v-1228zM68 0v1364h544v-1364h-544z" />
    <glyph glyph-name=".notdef" horiz-adv-x="748" 
d="M136 68h408v1228h-408v-1228zM68 0v1364h544v-1364h-544z" />
    <glyph glyph-name=".null" 
 />
    <glyph glyph-name="nonmarkingreturn" horiz-adv-x="682" 
 />
    <glyph glyph-name="space" unicode=" " horiz-adv-x="380" 
 />
    <glyph glyph-name="exclam" unicode="!" horiz-adv-x="460" 
d="M367 1284q49 0 77 -37t12 -123t-212 -682q-22 -62 -74 -62q-12 0 -12 44q6 120 28 388t35 333t55 102t91 37zM168 278q56 0 88 -42t20 -104t-60 -108t-102 -46t-88 45t-22 108t60 105t104 42z" />
    <glyph glyph-name="quotedbl" unicode="&#x22;" horiz-adv-x="680" 
d="M268 1396q48 0 59 -21t-1 -109q-12 -60 -62 -184t-68 -184q-8 -30 -42 -30q-12 0 -22 7t-8 19q8 80 8 151l-8 227q6 34 51 79t93 45zM576 1396q48 0 59 -21t-1 -109q-12 -60 -62 -184t-68 -184q-8 -30 -42 -30q-12 0 -22 7t-8 19q8 80 8 151l-8 227q6 34 51 79t93 45z
" />
    <glyph glyph-name="numbersign" unicode="#" horiz-adv-x="884" 
d="M548 622h-154l-58 -148h154zM854 756q14 0 14 -10q0 -28 -17 -76t-33 -48h-144l-58 -148h142q14 0 14 -20t-17 -67t-33 -47h-144l-102 -292q-6 -16 -68 -16t-61 7t1 9l104 292h-154l-102 -292q-6 -16 -68 -16t-61 7t1 9l104 292h-142q-14 0 -14 20t17 67t33 47h144
l58 148h-142q-14 0 -14 20t17 67t33 47h144l102 292q6 16 68 16t62 -12q-2 -2 -2 -4l-104 -292h154l102 292q6 16 68 16t62 -12q-2 -2 -2 -4l-104 -292h142z" />
    <glyph glyph-name="dollar" unicode="$" horiz-adv-x="904" 
d="M580 1178q-94 0 -136 -68t-42 -124t32 -102q10 -16 56 -62l128 352q-24 4 -38 4zM215 -148q-29 0 -67 32l40 110q-72 12 -176 38v52q0 122 16 266q2 20 41 20t49 -8q0 -68 30 -139t86 -105l148 414q-16 16 -49 42q-110 87 -150 148q-39 60 -39 142q0 178 149 300t307 122
q20 0 56 -4l38 106q4 12 39 12t67 -36l-40 -102q46 -14 114 -26q-22 -344 -38 -344q-42 0 -58 8q-14 4 -14 24q0 112 -56 190l-134 -366q22 -18 62 -47t76 -58q92 -74 92 -205q0 -174 -118 -302q-68 -74 -163 -114t-187 -40h-44l-44 -120q-4 -10 -33 -10zM340 92
q86 0 143 77t57 148t-74 145l-134 -370h8z" />
    <glyph glyph-name="percent" unicode="%" horiz-adv-x="1254" 
d="M67 -8q-79 0 -79 28l1138 1244q28 28 40 28q58 0 92 -34l-1136 -1244q-22 -22 -55 -22zM894 612q122 0 190 -90t44 -216t-127 -215t-225 -89t-190 89t-44 215t127 216t225 90zM862 536q-98 0 -134 -188q-50 -272 76 -272q52 0 87 55t49 129q54 276 -78 276zM472 1284
q122 0 190 -90t44 -216t-127 -215t-225 -89t-190 89t-44 215t127 216t225 90zM440 1210q-98 0 -134 -190q-50 -270 76 -270q52 0 87 55t49 127q54 278 -78 278z" />
    <glyph glyph-name="ampersand" unicode="&#x26;" horiz-adv-x="1298" 
d="M1206 888q0 26 -19 43t-43 17t-52 -22t-57 -22t-53 28t-24 78t44 82q290 0 290 -204q0 -90 -57 -147t-157 -57q-12 0 -52 4q114 -102 114 -240q0 -198 -183 -337t-400 -139t-370 117t-153 303q0 124 84 228t182 142q-81 81 -94 138q-6 26 -6 58q0 148 123 230t265 82
q92 0 161 -50t69 -121t-43 -125t-74 -54t-31 18q0 2 8 29t8 75t-41 87t-115 39t-132 -71t-58 -159t58 -138q50 14 92 14t85 -26t43 -66t-40 -61t-103 -21t-111 42q-90 -76 -90 -274q0 -138 76 -233t226 -95t255 117t105 277q0 74 -28 129t-82 55t-91 -27t-37 -71
q0 -32 56 -46q30 -8 59 -30t29 -50q0 -98 -86 -120q-46 0 -102 61t-56 137q0 110 88 185t204 75l152 -4q66 0 115 32t49 88z" />
    <glyph glyph-name="quotesingle" unicode="'" horiz-adv-x="372" 
d="M268 1396q48 0 59 -21t-1 -109q-12 -60 -62 -184t-68 -184q-8 -30 -42 -30q-12 0 -22 7t-8 19q8 80 8 151l-8 227q6 34 51 79t93 45z" />
    <glyph glyph-name="parenleft" unicode="(" horiz-adv-x="706" 
d="M278 282q0 -192 40 -330t80 -164q2 0 1 -12t-11 -31t-25 -19t-51 29q-83 67 -168 238q-86 171 -86 378t59 384t145 306t179 230t167 153t104 52q14 0 14 -38l-2 -16q0 -2 -4 -6q-136 -88 -289 -433t-153 -721z" />
    <glyph glyph-name="parenright" unicode=")" horiz-adv-x="688" 
d="M638 801q0 -157 -57 -331t-142 -303t-178 -232t-167 -156t-108 -53q-14 0 -14 38v12q0 8 6 12q40 20 110 117t145 244t130 363t55 413t-35 333t-85 178q-7 7 7 34q15 26 25 26q32 0 82 -51t101 -136t88 -218t37 -290z" />
    <glyph glyph-name="asterisk" unicode="*" horiz-adv-x="752" 
d="M422 1115q0 -83 20 -83t56 60q107 178 184 178q54 0 54 -60t-66 -101t-131 -71t-65 -54q0 -18 38 -27t83 -15t83 -29t38 -61t-29 -67t-63 -29t-71 42t-67 84t-50 42t-25 -35t-9 -100t-18 -111q-22 -76 -88 -76q-24 0 -44 20t-20 55t68 132t68 116t-16 19t-107 -44
t-125 -44t-53 18t-19 39t7 41t37 41t80 21l160 -16q38 0 41 6t3 20t-53 86t-53 115t26 73t56 30t45 -11q27 -20 27 -151v-18q-2 -18 -2 -35z" />
    <glyph glyph-name="plus" unicode="+" horiz-adv-x="970" 
d="M533 967q57 9 82 9t21 -18l-70 -376q-4 -10 6 -10h346q8 0 8 -46t-52 -98h-332q-8 0 -8 -8l-70 -360q-2 -14 -50 -25t-73 -11t-33 6t-6 12l72 376q0 10 -8 10h-342q-8 0 -8 46t52 98h330q8 0 8 8q12 58 32 173t34 187q4 18 61 27z" />
    <glyph glyph-name="comma" unicode="," horiz-adv-x="486" 
d="M4 -268q0 4 17 15q46 30 97 87q50 57 50 148q0 20 -16 66t-16 74q0 64 53 105t117 41t82 -16q2 -14 2 -62q0 -130 -59 -232t-119 -161t-176 -133q-32 24 -32 68z" />
    <glyph glyph-name="hyphen" unicode="-" horiz-adv-x="660" 
d="M572 535q0 -23 -19 -74t-33 -53l-452 -22q-10 0 -10 26t17 73t31 49l454 24q12 0 12 -23z" />
    <glyph glyph-name="period" unicode="." horiz-adv-x="406" 
d="M149 -22q-57 0 -90 47t-21 107t61 103t105 43t88 -43t20 -104t-59 -107t-104 -46z" />
    <glyph glyph-name="slash" unicode="/" horiz-adv-x="972" 
d="M16 -70q-36 0 -36 10l-2 4l848 1534q24 44 86 44t80 -12l-848 -1534q-6 -12 -49 -29t-79 -17z" />
    <glyph glyph-name="zero" unicode="0" horiz-adv-x="1004" 
d="M632 1250q170 0 261 -185t41 -443t-214 -443t-334 -185t-265 185t-45 443t218 443t338 185zM614 1150q-82 0 -156 -144t-120 -381t-23 -382t95 -145q160 0 266 536q46 236 30 376t-92 140z" />
    <glyph glyph-name="one" unicode="1" horiz-adv-x="618" 
d="M231 8q-85 0 -245 -16q-2 2 -2 35t16 33q22 0 69 17t55 35q16 34 32 114l132 678q8 32 8 66t-26 34t-142 -66q-24 14 -18 48q0 16 8 24q448 276 478 276q18 0 18 -38q-28 -58 -54 -188l-156 -808q-14 -78 -14 -112t29 -57t69 -23q2 0 2 -20t-14 -48q-160 16 -245 16z" />
    <glyph glyph-name="two" unicode="2" horiz-adv-x="904" 
d="M-16 35q0 19 2 31q220 212 419 473t199 427q0 68 -28 110t-87 42t-118 -43t-96 -85t-39 -42q-12 0 -20 16t-8 34l8 34q56 74 177 163t228 89t180 -70t73 -192q0 -75 -26 -150q-26 -74 -60 -124t-56 -83t-71 -84t-73 -76t-84 -77t-80 -69t-84 -70t-72 -60t-8 -16t6 -9h318
q67 0 101 36t51 70q16 34 22 44t39 10t43 -16l-148 -348l-286 2q-398 -2 -412 -2q-10 16 -10 35z" />
    <glyph glyph-name="three" unicode="3" horiz-adv-x="860" 
d="M620 1284q76 0 134 -59t36 -171q-14 -68 -48 -124t-66 -86t-102 -88q72 0 152 -94t54 -231t-122 -239t-217 -151t-252 -49t-195 64q-6 16 -6 58t30 68t67 26t94 -56t105 -56q88 0 149 72t86 198t-14 199t-121 73t-144 -10q-10 18 -2 50t12 40q260 44 312 284
q14 62 -16 102t-80 40t-108 -24t-94 -48t-40 -24q-16 0 -16 33t6 39q72 82 165 123t241 41z" />
    <glyph glyph-name="four" unicode="4" horiz-adv-x="928" 
d="M598 904q-6 0 -10 -4l-376 -388q-4 -4 -4 -14t10 -10h288q18 6 22 18l72 384q4 14 -2 14zM870 1292q18 0 28 -7t8 -17l-150 -764q-4 -16 14 -16h60q16 0 16 -33t-24 -87l-8 -20h-76q-10 0 -14 -16l-64 -324q-48 -18 -141 -18t-87 26l62 320q0 10 -16 10l-446 2
q-14 18 -14 42t6 54l796 816q32 32 50 32z" />
    <glyph glyph-name="five" unicode="5" horiz-adv-x="890" 
d="M472 844q144 0 248 -111t76 -263q-40 -206 -212 -342t-386 -136q-138 0 -202 64q-6 16 -6 58t30 68t67 26t94 -56t105 -56q96 0 157 84t84 200t-24 196t-135 80t-136 -14t-52 -14q-16 0 -28 28l52 156q159 464 174 464q430 0 474 10q10 -20 -3 -95t-45 -121h-170
q-154 2 -193 -2t-45 -22l-78 -222q80 20 154 20z" />
    <glyph glyph-name="six" unicode="6" horiz-adv-x="934" 
d="M462 688q0 16 35 31t77 15q100 0 172 -88t72 -210q0 -172 -145 -310t-300 -138t-246 89t-91 258t136 387t408 397q150 99 330 171q10 -4 16 -27t4 -41q-394 -168 -558 -554q-84 -198 -84 -428q0 -148 98 -148q76 0 128 113t52 236t-30 153t-72 42q-2 10 -2 52z" />
    <glyph glyph-name="seven" unicode="7" horiz-adv-x="942" 
d="M958 1218q0 -18 -78 -134l-792 -1104q-6 -2 -21 -2t-31 16t-16 35t8 27l694 970h-440q-94 0 -174 -158l-22 -2q-34 0 -46 14q30 85 81 196q51 110 59 132t40 22h602l126 6q10 0 10 -18z" />
    <glyph glyph-name="eight" unicode="8" horiz-adv-x="916" 
d="M579 1266q137 0 229 -63t92 -175q0 -192 -266 -346q-4 -2 -4 -7t2 -7l20 -18q69 -63 90 -95q20 -33 42 -71t22 -102q0 -144 -141 -269t-329 -125q-138 0 -229 62t-91 192q0 242 286 388q12 6 7 12t-34 36q-33 34 -65 86q-32 53 -32 132q0 172 132 271t269 99zM572 1160
q-56 0 -91 -49q-53 -74 -53 -171q0 -37 9 -57q9 -19 12 -27t17 -23t16 -19t19 -20t23 -22t15 -6t15 6q106 140 106 276q0 112 -88 112zM370 92q62 0 104 45q68 73 68 171q0 60 -21 92t-27 43t-23 29t-22 24t-24 24t-28 27t-14 9t-17 -8q-30 -22 -65 -121t-35 -183
q0 -152 104 -152z" />
    <glyph glyph-name="nine" unicode="9" horiz-adv-x="902" 
d="M466 588q0 -16 -34 -30t-78 -14q-100 0 -172 88t-72 210q0 172 145 310t300 138t246 -89t91 -258t-136 -387t-408 -397q-150 -99 -330 -171q-10 4 -16 27t-4 41q394 168 558 554q84 198 84 428q0 148 -98 148q-76 0 -128 -113t-52 -236t30 -153t72 -42q2 -10 2 -54z" />
    <glyph glyph-name="colon" unicode=":" horiz-adv-x="452" 
d="M184 280q114 0 114 -123q0 -59 -51 -119t-107 -60t-88 37t-32 98t54 114t110 53zM140 731q0 61 54 114t110 53t86 -32t30 -91t-52 -119t-108 -60t-88 37t-32 98z" />
    <glyph glyph-name="semicolon" unicode=";" horiz-adv-x="524" 
d="M283 268q65 0 83 -16q10 -86 1 -133t-57 -159q-52 -94 -116 -158t-180 -138h-4q-10 0 -21 27t-7 41q0 2 34 29t74 81q82 111 38 193t44 181q46 52 111 52zM210 731q0 61 54 114t110 53t86 -32t30 -91t-52 -119t-108 -60t-88 37t-32 98z" />
    <glyph glyph-name="less" unicode="&#x3c;" horiz-adv-x="854" 
d="M841 860q5 0 5 -88l-8 -44l-652 -310l532 -316l2 -12q-2 -14 -23 -67t-29 -53l-632 384q-28 20 -18 80q6 30 42 48l768 374q8 4 13 4z" />
    <glyph glyph-name="equal" unicode="=" horiz-adv-x="1062" 
d="M152 646h836q8 0 2 -30t-40 -102l-12 -12h-828l-10 20q34 124 52 124zM96 362h828q14 0 14 -4v-6q-12 -58 -42 -122q0 -2 -16 -12h-826l-8 20q33 124 50 124z" />
    <glyph glyph-name="greater" unicode="&#x3e;" horiz-adv-x="882" 
d="M3 -30q-5 0 -6 55t1 65l8 12l656 316l-532 310l-2 18q44 114 54 114l630 -378q30 -18 24 -48q-10 -60 -50 -80l-770 -380q-8 -4 -13 -4z" />
    <glyph glyph-name="question" unicode="?" horiz-adv-x="692" 
d="M358 430q0 -24 -26 -40q-48 0 -140 68t-92 146t42 129t94 75l202 90q104 46 104 132q0 104 -98 104q-30 0 -75 -45t-75 -45q-66 0 -89 58t3 116q60 74 178 74t214 -82t96 -210q0 -82 -44 -161t-121 -121t-193 -94q-78 -32 -78 -82q0 -34 49 -70t49 -42zM12 110
q0 62 52 115t108 53t88 -32t32 -93t-51 -118t-105 -57t-89 35t-35 97z" />
    <glyph glyph-name="at" unicode="@" horiz-adv-x="1498" 
d="M864 718q-80 0 -182 -119t-140 -313q-20 -106 -12 -143t44 -37q60 0 148 105t102 153l84 280q12 24 7 49t-51 25zM566 -342q-128 0 -245 66t-182 169t-91 229t-2 248q70 360 327 572t579 212q178 0 298 -107t160 -263t8 -318q-52 -262 -176 -377t-258 -115q-94 0 -149 50
t-43 114q0 6 -10 -4q-34 -52 -115 -100t-174 -48t-136 92t-21 204q42 212 219 375t415 163q64 0 154 -12l30 -6q-22 -62 -34 -106l-118 -410q-62 -218 22 -218q66 0 117 39t92 127t61 194q50 260 -52 435t-345 175t-444 -165t-251 -427q-62 -318 54 -508t446 -190
q64 0 134 26v-18q-6 -38 -74 -68t-196 -30z" />
    <glyph glyph-name="A" unicode="A" horiz-adv-x="1268" 
d="M627 546q79 0 137 4q8 0 8 10l-64 356l-216 -356q-2 -2 -1 -5t29 -6t107 -3zM716 27q0 33 16 33t52 17q60 28 60 61q0 18 -44 276q0 8 -12 8q-72 4 -179 4t-152 -1t-55 -11l-90 -152q-66 -98 -66 -132t51 -52t79 -18q4 0 4 -24t-10 -44q-168 14 -204 14t-232 -14
q-2 4 -2 36t10 32q20 0 86 29t84 54t78 125l544 904q24 48 58 94t48 57t29 11t21 -16l210 -1036q8 -52 28 -150q6 -32 52 -52t68 -20q4 0 4 -25t-14 -43l-244 14q-38 0 -276 -14q-2 2 -2 35z" />
    <glyph glyph-name="B" unicode="B" horiz-adv-x="1122" 
d="M786 820q68 78 68 235t-138 157q-66 0 -93 -6t-33 -26l-80 -410q-6 -28 101 -28t175 78zM1134 1054q0 -231 -222 -358q52 -10 102 -76t50 -168q0 -200 -156 -326t-386 -126l-308 4q-68 0 -142 -6t-96 -6q-4 4 -4 17t5 32t11 19q20 0 64 16t54 34q24 42 50 176l146 756
q22 128 20 150t-43 43t-59 21q-4 0 -4 27t14 41q138 -6 262 -6l288 4q131 0 235 -65q53 -33 86 -90t33 -113zM782 448q0 182 -184 182q-116 0 -120 -28l-88 -450v-8q0 -23 41 -29q41 -5 97 -5t98 18q58 24 107 105t49 215z" />
    <glyph glyph-name="C" unicode="C" horiz-adv-x="1174" 
d="M782 1334q204 0 414 -58q0 -24 -9 -153t-12 -143q-6 -30 -55 -30q-4 0 -28 6q-5 64 -33 115q-85 151 -282 151q-135 0 -241 -100t-165 -267t-59 -354t75 -297t223 -110q84 0 166 20t122 48t70 71t45 73t17 30q52 0 58 -26q-6 -28 -35 -118t-45 -104q-114 -102 -394 -102
t-436 151t-156 381q0 164 69 318t178 261t245 172t268 65z" />
    <glyph glyph-name="D" unicode="D" horiz-adv-x="1356" 
d="M804 1206q-164 0 -195 -35t-45 -123l-150 -776q-26 -130 -12 -140q34 -26 198 -26t277 144t169 430q43 202 -16 367q-26 73 -85 116t-141 43zM-28 9q0 13 5 32t11 19q20 0 64 16t54 34q24 42 50 176l146 756q22 128 20 150t-43 43t-59 21q-4 0 -4 27t14 41q138 -6 262 -6
h324q134 0 238 -41t167 -112q127 -143 127 -369t-144 -445t-376 -308q-128 -49 -272 -49l-342 10q-68 0 -142 -6t-96 -6q-4 4 -4 17z" />
    <glyph glyph-name="E" unicode="E" horiz-adv-x="1084" 
d="M-28 9q0 13 5 32t11 19q20 0 64 16t54 34q24 42 50 176l146 756q22 128 20 150t-43 43t-59 21q-4 0 -4 27t14 41q160 -6 262 -6l602 10q-4 -60 -4 -182v-114q-10 -10 -38 -10t-30 14q-22 76 -87 130t-137 54h-70q-64 0 -92 -5t-34 -21q-24 -66 -40 -156l-60 -308
q-4 -12 78 -12h158q44 0 60 17t56 107q6 14 35 14t35 -10l-72 -378q-8 -8 -36 -8t-32 16q-4 90 -25 111t-151 21t-134 -18l-58 -308q-16 -80 -16 -117t19 -47t103 -10h48q116 0 220 52q34 18 84 68t84 112q6 12 40 12t42 -12q-8 -16 -44 -83q-97 -181 -124 -261l-658 8
q-68 0 -142 -6t-96 -6q-4 4 -4 17z" />
    <glyph glyph-name="F" unicode="F" horiz-adv-x="1074" 
d="M1088 1146v-114q-10 -10 -38 -10t-30 14q-22 76 -87 130t-137 54h-70q-64 0 -92 -5t-34 -21q-24 -66 -40 -156l-60 -308q-4 -12 78 -12h158q44 0 60 17t56 107q6 14 35 14t35 -10l-72 -378q-8 -8 -36 -8t-32 16q-4 90 -25 111t-151 21t-134 -18l-58 -308
q-18 -90 -18 -127q0 -68 79 -84q55 -11 87 -11q8 0 2 -31t-10 -37q-260 14 -315 14t-94 -2t-87 -6t-82 -6q-4 4 -4 17t5 32t11 19q20 0 64 16t54 34q24 42 50 176l146 756q22 128 20 150t-43 43t-59 21q-4 0 -4 27t14 41q160 -6 262 -6l600 10q-4 -60 -4 -182z" />
    <glyph glyph-name="G" unicode="G" horiz-adv-x="1232" 
d="M598 -16q-254 0 -415 150t-161 374q0 170 69 326t178 264t245 172t268 64q204 0 414 -58q0 -32 -8 -156t-12 -140q-6 -30 -58 -30q-8 0 -26 6q-5 64 -33 115q-85 151 -274 151q-127 0 -219 -72t-146 -184q-110 -228 -110 -472q0 -172 78 -286t234 -114q86 0 172 24
l54 258q12 58 12 102q0 28 -57 42t-85 14q-4 0 -4 29t14 39q282 -12 308 -12t254 12q0 -68 -12 -68t-55 -12t-69 -26t-34 -50l-48 -222q-12 -48 -12 -71q0 -42 -80 -85q-168 -84 -382 -84z" />
    <glyph glyph-name="H" unicode="H" horiz-adv-x="1428" 
d="M1450 1312q0 -56 -24 -56q-8 0 -54 -17t-54 -31q-24 -44 -48 -170l-148 -760q-22 -114 -22 -160q0 -20 40 -39t58 -19q4 0 4 -22t-16 -46l-246 14q-104 0 -258 -14q-2 2 -2 35t10 33q22 0 66 14t58 39t44 157l68 338v2q0 12 -222 12t-226 -16l-64 -328q-20 -104 -20 -160
q0 -20 39 -39t57 -19q4 0 4 -24t-14 -44q-168 14 -253 14t-253 -14q-2 2 -2 14t4 33t8 21q22 0 65 13t53 31q32 52 50 166l150 776q18 96 18 136t-37 57t-59 17q-2 0 -2 28t12 40q168 -12 224 -12t284 12v-10q0 -16 -5 -37t-11 -21q-16 0 -63 -17t-57 -34q-23 -38 -46 -167
l-54 -282v-4q0 -14 86 -14h138q222 0 224 12l56 296q18 108 18 154q0 56 -96 56q-4 0 -4 26t16 42q252 -12 265 -12t241 12v-12z" />
    <glyph glyph-name="I" unicode="I" horiz-adv-x="720" 
d="M458 1312q56 0 284 12v-10q0 -16 -5 -37t-11 -21q-16 0 -63 -17t-57 -34q-23 -38 -46 -167l-146 -760q-20 -104 -20 -160q0 -20 39 -39t57 -19q4 0 4 -24t-14 -44l-240 14l-266 -14q-2 2 -2 14t4 33t8 21q22 0 65 13t53 31q32 52 50 166l150 776q18 96 18 136t-37 57
t-59 17q-2 0 -2 28t12 40q168 -12 224 -12z" />
    <glyph glyph-name="J" unicode="J" horiz-adv-x="842" 
d="M580 1312q56 0 284 12v-10q0 -16 -5 -37t-11 -21q-16 0 -63 -17t-57 -34q-23 -38 -46 -167l-146 -752q-64 -330 -211 -488t-329 -234q-28 12 -28 44t4 40q116 96 185 237t117 385l150 776q18 96 18 136t-37 57t-59 17q-2 0 -2 28t12 40q168 -12 224 -12z" />
    <glyph glyph-name="K" unicode="K" horiz-adv-x="1422" 
d="M458 1312q56 0 284 12v-10q0 -16 -5 -37t-11 -21q-16 0 -63 -17t-57 -34q-23 -38 -46 -167l-71 -372q83 54 187 151t362 355q24 24 24 48q0 18 -41 29t-63 11q-6 0 -6 25t8 39q204 -12 230 -12t254 12q0 -18 -5 -41t-11 -23q-150 -16 -222 -90l-426 -444q-20 -20 -20 -35
t6 -23l310 -444q66 -94 119 -129t115 -35q6 0 6 -20t-14 -40q-32 -8 -105 -8t-105 2q-98 6 -158 39q-61 32 -118 119l-328 513l-74 -387q-20 -104 -20 -160q0 -20 39 -39t57 -19q4 0 4 -24t-14 -44q-168 14 -253 14t-253 -14q-2 2 -2 14t4 33t8 21q22 0 65 13t53 31
q32 52 50 166l150 776q18 96 18 136t-37 57t-59 17q-2 0 -2 28t12 40q168 -12 224 -12z" />
    <glyph glyph-name="L" unicode="L" horiz-adv-x="1044" 
d="M458 1312q56 0 284 12v-10q0 -16 -5 -37t-11 -21q-16 0 -63 -17t-57 -34q-23 -38 -46 -167l-146 -760q-14 -84 -14 -116t19 -43t103 -11h48q116 0 220 52q34 18 84 68t84 112q6 12 40 12t42 -12q-8 -16 -44 -83q-97 -181 -124 -261l-634 8q-52 0 -220 -8l-42 -4
q-4 8 -4 19t5 30t9 19q20 0 68 18t56 34q22 46 42 158l150 776q18 96 18 136t-37 57t-59 17q-2 0 -2 28t12 40q168 -12 224 -12z" />
    <glyph glyph-name="M" unicode="M" horiz-adv-x="1722" 
d="M914 458q4 0 4 4l334 630l108 232q64 -8 148 -8t236 8q0 -68 -14 -68q-66 0 -98 -37t-46 -171q-68 -618 -82 -816l-4 -37q-4 -37 -4 -62t32 -49t74 -24q4 0 4 -25t-14 -43l-236 14l-270 -14q-4 8 -4 20t4 30t10 18q20 0 66 18t58 37t21 36t19 139l54 514q4 36 4 77t-6 41
t-14 -14l-460 -846q-10 -18 -37 -42t-40 -24t-25 4l-186 960q-2 8 -6 8t-8 -10q-180 -646 -196 -724t-16 -94q0 -26 72 -53t94 -27q4 0 4 -25t-12 -43q-168 14 -253 14t-253 -14q-4 8 -4 18t5 30t9 20q34 0 115 29t93 71q4 16 12 42l242 930q14 64 14 72q0 26 -50 39t-82 13
q-2 0 -2 26t16 42q168 -8 213 -8t197 8q12 -120 156 -864q0 -2 4 -2z" />
    <glyph glyph-name="N" unicode="N" horiz-adv-x="1350" 
d="M229 6q-85 0 -253 -14q-4 8 -4 18t3 22l5 20q2 8 4 8q36 0 100 19t94 58t50 151l152 786q12 64 12 118q0 30 -56 47t-90 17q-6 0 -6 29t14 39q210 -10 283 -10t151 10q28 -106 197 -403t231 -419q4 12 20 82l88 464q12 66 12 108t-63 71t-97 29q-4 0 -4 28t12 40
q210 -10 266 -10t242 10q0 -68 -15 -68t-41 -4t-71 -22t-74 -48t-51 -144l-148 -760q-16 -82 -46 -280q-8 -8 -48 -8q-22 0 -50 46l-554 1012l-148 -766q-16 -80 -16 -111t22 -55t67 -40t71 -16q4 0 4 -22t-12 -46q-168 14 -253 14z" />
    <glyph glyph-name="O" unicode="O" horiz-adv-x="1252" 
d="M766 1334q212 0 347 -151t135 -383q0 -156 -64 -307t-167 -263t-239 -181t-274 -69q-212 0 -346 151t-134 381q0 156 64 308t166 264t238 181t274 69zM718 1222q-162 0 -283 -214t-121 -509t127 -376q49 -31 124 -31t146 57q123 99 187 322t64 399q0 352 -244 352z" />
    <glyph glyph-name="P" unicode="P" horiz-adv-x="1092" 
d="M1114 1017q0 -77 -31 -158t-88 -147t-146 -108t-185 -42t-138 42q-2 2 -2 15t6 28t12 15l64 -6q114 0 170 108t56 276q0 68 -33 121t-97 53q-108 0 -116 -38l-172 -894q-18 -106 -18 -135t23 -49q44 -38 143 -38q8 0 2 -31t-10 -37q-258 14 -298 14l-282 -14q-4 12 0 40
t10 28q98 0 122 50q20 38 44 160l152 776q16 76 16 144q0 28 -39 47t-57 19q-4 0 -4 12t6 32t10 24q210 -10 254 -10l264 10q261 0 337 -173q25 -57 25 -134z" />
    <glyph glyph-name="Q" unicode="Q" horiz-adv-x="1248" 
d="M766 1334q212 0 347 -151t135 -374t-114 -418t-290 -305q-60 -38 -162 -83t-158 -57q52 -8 302 -91t386 -83q74 0 148 32t114 66q12 -2 31 -14t19 -26q-42 -56 -175 -143t-263 -87t-281 46t-360 123t-381 119q0 8 17 31t27 27q132 28 322 40q-182 26 -294 172t-112 354
q0 156 64 308t166 264t238 181t274 69zM718 1222q-162 0 -283 -214t-121 -509t127 -376q49 -31 124 -31t146 57q123 99 187 322t64 399q0 352 -244 352z" />
    <glyph glyph-name="R" unicode="R" horiz-adv-x="1264" 
d="M836 1050q0 164 -134 164q-66 0 -88 -9t-28 -41l-80 -414q-2 -6 -2 -14q0 -26 28 -33t96 -7t117 58q91 108 91 296zM1124 1046q0 -124 -88 -247t-212 -165q-10 -4 -4 -20q94 -278 218 -434q96 -122 188 -122q0 -36 -20 -66q-28 -4 -73 -4t-87 6t-73 13t-62 24t-50 28
t-41 38t-33 39q-29 32 -111 211t-110 209t-61 30t-37 -32l-54 -276q-20 -104 -20 -160q0 -20 39 -39t57 -19q4 0 4 -24t-14 -44q-168 14 -253 14t-253 -14q-2 2 -2 14t4 33t8 21q22 0 65 13t53 31q32 52 50 166l152 776q18 102 18 137t-37 54t-61 19q-4 0 -4 12t6 32t10 24
q210 -10 254 -10l262 10q119 0 237 -60q59 -30 97 -87t38 -131z" />
    <glyph glyph-name="S" unicode="S" horiz-adv-x="898" 
d="M826 930q-44 0 -44 33t-10 75t-31 86t-61 74t-91 30t-90 -24t-68 -76t-29 -88t4 -53t13 -34t17 -31t25 -31t27 -28t32 -29t40 -34t45 -36t68 -51q60 -46 105 -98q44 -53 44 -163t-47 -205t-121 -151q-153 -116 -303 -116q-149 0 -347 52q10 86 10 147t-1 123l-1 62
q0 16 48 16q8 0 26 -5t22 -11q0 -92 60 -181t152 -89q56 0 100 23q70 37 99 108t29 111t-25 80t-49 63t-82 69t-85 69t-34 29t-30 27t-30 31t-24 30t-23 36t-18 45t-12 105t46 161t118 140q156 119 310 119q71 0 166 -24q94 -24 136 -32q-50 -354 -58 -354h-28z" />
    <glyph glyph-name="T" unicode="T" horiz-adv-x="1146" 
d="M108 6q0 12 4 33t8 21q22 0 65 13t53 31q30 52 50 166l140 724q26 134 26 167t-26 43t-113 10t-145 -45t-104 -151q-6 -10 -19 -10t-31 5t-20 9l98 326q76 -22 124 -22l404 -12l412 12q46 0 134 22l-30 -328q-4 -4 -24 -9t-34 -5t-14 10q-7 198 -162 198q-130 0 -156 -23
t-58 -191l-140 -722q-20 -104 -20 -160q0 -20 39 -39t57 -19q4 0 4 -24t-14 -44q-168 14 -260 14t-246 -14q-2 2 -2 14z" />
    <glyph glyph-name="U" unicode="U" horiz-adv-x="1358" 
d="M1138 1308q58 0 250 16q7 -26 -4 -50q-10 -24 -14 -24q-43 0 -91 -19q-49 -19 -78 -49t-51 -144l-90 -456q-56 -292 -218 -442t-378 -150t-326 144q-109 144 -50 488l82 422q22 136 16 154t-46 35t-60 17q-6 0 0 35t10 39q252 -12 277 -12t253 12v-36q-6 -38 -16 -38
q-16 0 -70 -17t-60 -31q-26 -58 -46 -170l-92 -474q-36 -184 20 -296t186 -112t240 92t158 330l92 476q0 2 4 23q18 92 2 118q-16 25 -65 43t-71 18q-10 3 -3 37q7 33 13 37q168 -16 226 -16z" />
    <glyph glyph-name="V" unicode="V" horiz-adv-x="1096" 
d="M319 1312q61 0 265 12q2 -4 2 -17t-5 -35t-11 -22q-32 0 -81 -18t-55 -54q-6 -20 16 -132l122 -660l390 658q54 92 62 129t-26 57t-90 20q-4 0 -4 25t12 49q184 -10 200 -10t232 10q4 -10 -1 -41t-9 -31q-79 0 -141 -52q-31 -26 -53 -64l-650 -1082q-48 -74 -99 -74
q-23 0 -33 26l-184 1014q-4 24 -16 82t-14 82q-6 34 -51 50t-71 16q-6 0 -6 25t16 49q222 -12 283 -12z" />
    <glyph glyph-name="W" unicode="W" horiz-adv-x="2030" 
d="M1844 1312q68 0 212 12q0 -72 -14 -72q-28 0 -74 -18t-68 -38q-62 -58 -142 -176l-650 -982q-20 -30 -42 -47t-35 -17t-17 10l-136 482l-306 -428q-20 -28 -42 -46t-33 -18t-15 10l-296 1070q-30 106 -56 154q-10 20 -45 31t-59 11q-6 0 0 35t10 39q252 -12 271 -12
t247 12v-10q0 -64 -14 -64q-88 0 -100 -68q-2 -16 10 -62q206 -736 210 -738t134 178l44 60l-120 434q-36 128 -50 146q-36 50 -98 50q-6 0 0 35t10 39q252 -12 264 -12t240 12v-12q0 -62 -14 -62q-30 0 -61 -15t-35 -40t8 -71l64 -230l124 190q54 84 58 104t-12 34
q-34 30 -112 30q-4 0 -4 30t16 42q174 -12 200 -12t254 12q2 -12 -3 -42t-11 -30q-28 0 -77 -20t-71 -40q-64 -62 -138 -172l-184 -276l104 -350q4 2 195 286t255 381t69 124t-30 47t-89 20q-4 0 -4 30t16 42q174 -12 242 -12z" />
    <glyph glyph-name="X" unicode="X" horiz-adv-x="1522" 
d="M836 1308q0 -18 -6 -38t-12 -20q-28 0 -64 -11t-42 -31q-4 -24 6 -44l142 -336q28 30 77 81q105 110 170 182t69 96q4 25 -36 44t-90 19q-2 0 -2 30t16 44q204 -12 227 -12t251 12q2 -2 2 -17t-6 -36t-12 -21q-26 0 -84 -19t-98 -59l-436 -460q224 -524 247 -564t69 -61
t70 -21q2 -4 2 -8l-6 -36q-2 -10 -12 -30q-222 12 -279 12t-285 -12q-2 2 -2 18t7 36t13 20q24 0 67 16t47 40q4 10 0 22l-166 394q-4 -4 -49 -56t-88 -100q-197 -220 -203 -250t36 -48t90 -18q6 0 2 -29t-12 -45q-180 12 -217 12t-265 -12q-2 22 2 48t12 26q24 0 87 19
t89 49l462 530l-170 410q-54 130 -79 153t-85 23q-2 0 -2 30t16 44l260 -12q42 0 270 12v-16z" />
    <glyph glyph-name="Y" unicode="Y" horiz-adv-x="1180" 
d="M570 1304q0 -16 -6 -35t-10 -19q-28 0 -66 -11t-42 -31t6 -44l126 -358q280 356 290 400q4 20 -25 32t-85 12q-4 0 -4 30t16 44q168 -12 221 -12t215 12q0 -72 -16 -72q-96 0 -174 -88q-46 -52 -232 -291t-190 -265l-62 -318q-22 -104 -18 -174q0 -14 44 -32t60 -18
q6 0 0 -34t-10 -40l-256 16q-80 0 -272 -16q-6 12 -1 43t13 31q20 0 71 17t61 33q22 54 46 162l66 340q5 33 -108 348l-36 108q-38 120 -64 139q-51 37 -102 37q-4 0 -4 30t20 44l260 -12q38 0 266 12q2 -4 2 -20z" />
    <glyph glyph-name="Z" unicode="Z" horiz-adv-x="1230" 
d="M606 1312h204q170 0 434 20q6 -2 8 -27t-2 -39t-670 -830l-222 -272q-28 -35 -19 -42q9 -8 21 -8h296q130 0 227 68t147 166q6 12 39 12t43 -12q-16 -34 -80 -155t-88 -193h-962q-14 24 -8 50t16 36l902 1112h-318q-132 0 -196 -64q-54 -54 -110 -166q-8 -12 -44 -12
t-42 8q86 224 126 360q42 -12 298 -12z" />
    <glyph glyph-name="bracketleft" unicode="[" horiz-adv-x="782" 
d="M20 -220q-28 0 -28 46l326 1668q0 15 14 31q14 15 30 15q204 0 434 46q8 0 8 -18q0 -48 -32 -64q-48 -24 -117 -44t-94 -20t-29 -18l-296 -1526q-4 -16 12 -16q32 0 92 -19t104 -45q14 -8 11 -42t-19 -40q-244 46 -416 46z" />
    <glyph glyph-name="backslash" unicode="\" horiz-adv-x="500" 
d="M76 1522q90 0 102 -44l252 -1452l2 -4v-8q0 -48 -26 -70t-52 -22l-44 4l-274 1584q14 12 40 12z" />
    <glyph glyph-name="bracketright" unicode="]" horiz-adv-x="770" 
d="M213 -120q23 0 27 16l298 1526q4 18 -14 18q-36 0 -97 20t-99 44q-22 26 -3 67q7 15 11 15q210 -46 418 -46q26 0 26 -34v-12l-324 -1668q0 -15 -14 -31q-14 -15 -30 -15q-174 0 -436 -46q-6 2 -6 14q0 52 30 68q52 26 121 45t92 19z" />
    <glyph glyph-name="asciicircum" unicode="^" horiz-adv-x="704" 
d="M100 938q-12 0 -12 60q4 8 38 37t77 68q118 107 209 251q2 4 5 9t4 8t4 6t17 3t21 -14t24 -70t40 -101t52 -87t52 -73t23 -35q-21 -62 -36 -62q-24 0 -96 73t-120 153q-72 -80 -174 -153t-128 -73z" />
    <glyph glyph-name="underscore" unicode="_" horiz-adv-x="1038" 
d="M90 34h836q4 0 4 -23t-16 -59t-21 -39t-9 -3h-830l-10 20q18 104 46 104z" />
    <glyph glyph-name="grave" unicode="`" horiz-adv-x="420" 
d="M96 1308q0 22 28 44t71 22t57 -18q34 -56 77 -159t43 -113t-14 -25t-24 -15q-22 0 -130 105t-108 159z" />
    <glyph glyph-name="a" unicode="a" horiz-adv-x="924" 
d="M520 770q-50 0 -103 -61t-86 -147q-69 -180 -69 -303t63 -123t127 139t96 301l36 180q-14 14 -64 14zM646 898q64 0 115 -14t73 -30l-116 -598q-4 -12 -4 -53t20 -41q28 0 78 42t68 64q4 0 21 -20t17 -28q-22 -54 -143 -145t-205 -91q-46 0 -76 29t-30 79v26q2 24 4 34
q-94 -168 -211 -168t-179 82t-62 199t49 226t130 200t201 149t250 58z" />
    <glyph glyph-name="b" unicode="b" horiz-adv-x="820" 
d="M558 592q0 134 -62 134t-132 -125t-96 -267q-22 -84 -11 -162t61 -78q60 0 117 85t90 200t33 213zM598 898q204 0 204 -292q0 -132 -55 -253t-138 -200t-179 -126t-187 -47t-156 66t-65 168q0 46 12 110l148 764q18 92 18 118q0 44 -98 44q-6 0 -6 22t18 40q48 0 163 28
t167 50q20 -10 20 -40t-34 -182l-92 -476q27 54 81 110q55 56 95 76t84 20z" />
    <glyph glyph-name="c" unicode="c" horiz-adv-x="742" 
d="M514 898q134 0 214 -90q14 -42 14 -79t-26 -73t-64 -36t-60 26t-31 58q-24 84 -78 84q-55 0 -105 -72t-79 -176t-29 -202q0 -202 128 -202q60 0 120 43t82 73q4 0 21 -20t17 -28q-24 -56 -130 -136t-200 -80q-148 0 -219 87t-71 236t68 286t181 219t247 82z" />
    <glyph glyph-name="d" unicode="d" horiz-adv-x="930" 
d="M524 770q-58 0 -112 -61t-86 -147q-70 -188 -70 -307t64 -119t126 135t98 305l28 144q4 26 -12 38t-36 12zM660 1206q0 44 -98 44q-6 0 -6 22t18 40q50 0 165 28t165 50q20 -10 20 -33t-7 -58t-16 -75t-11 -52l-178 -916q-4 -12 -4 -53t20 -41q30 0 80 42t66 64
q6 0 22 -20t16 -28q-20 -54 -141 -145t-207 -91q-44 0 -75 29t-31 69t6 70q-96 -168 -212 -168t-179 82t-63 198t44 221t120 193t187 149t233 69h10l38 186q18 108 18 124z" />
    <glyph glyph-name="e" unicode="e" horiz-adv-x="786" 
d="M530 710q0 80 -50 80t-119 -109t-69 -215q0 -8 8 -8q94 0 162 86t68 166zM492 898q114 0 190 -50t76 -130t-60 -150t-142 -114t-159 -70t-119 -26q-8 0 -8 -20q0 -118 35 -160t94 -42t119 43t82 73q4 0 21 -20t17 -28q-24 -56 -130 -136t-200 -80q-144 0 -217 85t-73 235
t67 286t180 220t227 84z" />
    <glyph glyph-name="f" unicode="f" horiz-adv-x="834" 
d="M812 1390q128 0 186 -66q0 -200 -118 -200q-52 0 -78 78t-72 78q-64 0 -123 -114t-95 -298v-2q0 -8 6 -8h230q20 0 20 -35t-28 -83h-240q-10 0 -14 -12l-118 -608q-30 -156 -93 -271t-139 -174q-143 -111 -292 -111q-72 0 -122 25t-58 53q0 174 112 174q50 0 76 -71
t74 -71q72 0 114 91t70 239l144 722v4q0 10 -8 10h-118q-10 0 -10 21t37 60t77 39h34q12 0 18 32q44 228 188 363t340 135z" />
    <glyph glyph-name="g" unicode="g" horiz-adv-x="930" 
d="M84 64q0 66 234 168q-172 46 -172 262q0 160 125 282t293 122q50 0 123 -27t143 -27h106q18 0 18 -33t-20 -69h-102q-12 0 -12 -12l8 -106q0 -214 -188 -336q-40 -26 -117 -55t-125 -53t-48 -48q0 -12 68 -26t151 -30t151 -61t68 -104t-25 -114t-78 -109t-153 -89
t-236 -35t-232 60t-96 146q0 125 230 176q-34 10 -74 39t-40 79zM514 776q-42 0 -76 -58q-64 -109 -64 -284q0 -102 76 -102q40 0 71 35t53 116t22 187t-82 106zM570 -194q0 34 -102 65t-184 39q-116 -34 -116 -108q0 -62 45 -101t154 -39t156 42t47 102z" />
    <glyph glyph-name="h" unicode="h" horiz-adv-x="938" 
d="M508 682q-50 0 -131 -170t-107 -302l-42 -210q-40 -12 -111 -12t-123 12q230 1188 230 1206q0 44 -98 44q-6 0 -6 22t18 40q48 0 163 28t167 50q20 -10 20 -33t-7 -59t-16 -77t-64 -324t-55 -289q50 104 135 197t163 93t120 -62t42 -133t-32 -237l-40 -210q-4 -12 -4 -53
t20 -41q28 0 78 42t68 64q4 0 21 -20t17 -28q-22 -54 -143 -145t-205 -91q-46 0 -76 29t-30 86t20 147l46 238l20 116q0 42 -13 62t-45 20z" />
    <glyph glyph-name="i" unicode="i" horiz-adv-x="572" 
d="M408 1374q56 0 89 -36t33 -95t-47 -111t-103 -52t-89 36t-33 96t47 111t103 51zM350 898q46 0 76 -29t30 -68q0 -85 -20 -165l-74 -380q-4 -12 -4 -53t20 -41q28 0 79 42t67 64q6 0 22 -20t16 -28q-22 -54 -143 -145t-205 -91q-44 0 -75 29t-31 68q0 85 20 165l74 380
q4 20 4 57t-20 37q-28 0 -79 -42t-67 -64q-4 0 -21 20t-17 28q22 54 143 145t205 91z" />
    <glyph glyph-name="j" unicode="j" horiz-adv-x="682" 
d="M583 1378q57 0 89 -36t32 -96t-46 -112t-103 -52t-90 36t-33 96t47 112t104 52zM498 898q46 0 76 -29t30 -68q0 -85 -20 -165l-76 -396q-54 -286 -172 -444q-56 -76 -164 -146t-164 -86q-6 0 -16 29t-10 45q134 118 188 226t98 336l82 426q4 20 4 57t-20 37
q-28 0 -78 -42t-68 -64q-4 0 -21 20t-17 28q22 54 143 145t205 91z" />
    <glyph glyph-name="k" unicode="k" horiz-adv-x="924" 
d="M554 752q-78 0 -152 -98t-74 -148q0 -24 81 -24t145 42q34 24 54 63t20 74t-21 63t-53 28zM655 898q77 0 150 -50t73 -133t-58 -156t-132 -112t-138 -47q34 -88 92 -177t96 -89t87 39t69 65q4 0 27 -20t23 -26q-22 -56 -110 -128t-193 -72t-225 190q-48 75 -79 139
q-31 63 -35 71l-76 -392q-36 -16 -102 -16t-130 16l210 1088q18 92 18 118q0 44 -98 44q-6 0 -6 22t18 40q48 0 163 28t167 50q20 -10 20 -33t-7 -59t-16 -77t-11 -53l-90 -476q25 58 70 109q46 51 96 74t127 23z" />
    <glyph glyph-name="l" unicode="l" horiz-adv-x="482" 
d="M212 1206q0 44 -98 44q-6 0 -6 22t18 40q50 0 165 28t165 50q20 -10 20 -33q0 -53 -34 -189l-178 -912q-4 -20 -4 -57t20 -37q30 0 80 42t66 64q6 0 22 -20t16 -28q-20 -54 -141 -145t-207 -91q-44 0 -75 29t-31 68q0 85 20 165l164 842q18 94 18 118z" />
    <glyph glyph-name="m" unicode="m" horiz-adv-x="1496" 
d="M731 898q77 0 119 -62t42 -156q0 -26 -4 -64q54 102 141 192t151 90q88 0 130 -62t42 -133t-32 -237l-40 -210q-4 -12 -4 -53t20 -41q28 0 79 42t67 64q6 0 22 -20t16 -28q-22 -54 -143 -145t-205 -91q-44 0 -75 29t-31 86t20 147l46 238q20 100 20 116q4 82 -58 82
q-50 0 -130 -170t-108 -302l-42 -210q-40 -12 -117 -12t-119 12l96 484q20 86 20 116q0 82 -60 82q-50 0 -130 -170t-108 -302l-42 -210q-40 -12 -111 -12t-119 12l120 626q4 20 4 57t-20 37q-28 0 -79 -42t-67 -64q-4 0 -21 20t-17 28q22 54 143 145t205 91q46 0 76 -29
t30 -69t-16 -144l-8 -52q52 106 136 200t161 94z" />
    <glyph glyph-name="n" unicode="n" horiz-adv-x="1026" 
d="M352 898q46 0 76 -29t30 -69q0 -68 -10 -118t-14 -78q52 106 136 200t161 94t119 -62t42 -133t-32 -237l-40 -210q-4 -12 -4 -53t20 -41q28 0 79 42t67 64q6 0 22 -20t16 -28q-22 -54 -143 -145t-205 -91q-44 0 -75 29t-31 86t20 147l46 238q20 100 20 129q0 69 -58 69
q-50 0 -130 -170t-108 -302l-42 -210q-40 -12 -111 -12t-119 12l120 626q4 20 4 57t-20 37q-28 0 -79 -42t-67 -64q-4 0 -21 20t-17 28q22 54 143 145t205 91z" />
    <glyph glyph-name="o" unicode="o" horiz-adv-x="814" 
d="M512 898q142 0 212 -89t70 -236t-64 -282t-176 -219t-255 -84t-212 89t-69 230t63 276t176 225t255 90zM482 792q-60 0 -111 -93t-79 -225t-25 -256t65 -124t114 101t77 230t22 248t-63 119z" />
    <glyph glyph-name="p" unicode="p" horiz-adv-x="946" 
d="M-86 -411q0 29 10 37q72 4 98 36q6 10 24 94l128 652l-76 -62q-22 28 -22 52t14 38q68 66 108 102l68 348q60 12 117 12t115 -12l-28 -128q4 4 20 26q21 29 74 71q53 43 132 43q106 0 164 -92t58 -209t-50 -232t-125 -196t-167 -131t-157 -50t-91 24l-48 -244
q-4 -28 -4 -42q0 -62 44 -72q32 -8 70 -8q14 0 14 -28t-8 -40q-290 0 -476 -20q-6 2 -6 31zM594 744q-38 0 -80 -46t-72 -100l-76 -394q-10 -52 2 -74t59 -22t106 78t99 202t40 244q0 42 -20 77t-58 35z" />
    <glyph glyph-name="q" unicode="q" horiz-adv-x="832" 
d="M230 -402q0 28 10 28q117 0 148 142l72 364q-26 -52 -87 -100t-119 -48q-112 0 -175 79t-63 217t83 283t230 240t311 95q110 0 190 -44l-206 -1076q-6 -26 -6 -60t20 -52t84 -18q12 0 12 -29t-8 -41l-98 2q-188 0 -390 -22q-8 12 -8 40zM516 770q-58 0 -121 -90t-98 -209
t-35 -226t56 -107q42 0 89 66q88 124 123 288l54 262q-10 16 -68 16z" />
    <glyph glyph-name="r" unicode="r" horiz-adv-x="874" 
d="M352 898q46 0 76 -29t30 -103t-26 -178q58 136 139 223t181 87q72 0 132 -78q0 -78 -29 -139t-93 -61q-32 0 -70 44t-70 44q-50 0 -144 -181t-128 -349l-36 -178q-56 -12 -114 -12t-116 12l120 626q4 20 4 57t-20 37q-28 0 -79 -42t-67 -64q-4 0 -21 20t-17 28
q22 54 143 145t205 91z" />
    <glyph glyph-name="s" unicode="s" horiz-adv-x="650" 
d="M423 898q133 0 201 -58q22 -28 22 -79t-22 -83t-57 -32t-60 24t-38 53q-35 77 -91 77q-38 0 -54 -20t-16 -62q0 -68 124 -227t124 -261t-99 -174t-230 -72t-207 64q-18 22 -18 73t22 83t57 32t62 -24t41 -53q37 -77 92 -77q64 0 64 86q0 64 -124 223t-124 262t99 174
t232 71z" />
    <glyph glyph-name="t" unicode="t" horiz-adv-x="578" 
d="M392 1080q46 0 70 -8l-46 -214h174q20 0 20 -41t-24 -77h-192l-94 -484q-4 -12 -4 -53t20 -41q28 0 78 42t68 64q4 0 21 -20t17 -28q-22 -54 -143 -145t-205 -91q-46 0 -76 29t-30 68q0 85 20 165l96 494h-112q-8 0 -8 23t9 54t19 41h116l38 196q2 12 62 19t106 7z" />
    <glyph glyph-name="u" unicode="u" horiz-adv-x="1026" 
d="M350 898q46 0 76 -29t30 -86t-20 -147l-46 -238q-20 -80 -20 -119q0 -79 58 -79q50 0 131 170t107 302l42 210q40 12 111 12t119 -12l-120 -626q-4 -20 -4 -57t20 -37q28 0 79 42t67 64q6 0 22 -20t16 -28q-22 -54 -143 -145t-205 -91q-44 0 -75 29t-31 73q0 64 10 114
t14 78q-52 -106 -136 -200t-161 -94t-119 62t-42 133t32 237l40 210q4 12 4 53t-20 41q-28 0 -79 -42t-67 -64q-4 0 -21 20t-17 28q22 54 143 145t205 91z" />
    <glyph glyph-name="v" unicode="v" horiz-adv-x="886" 
d="M350 898q46 0 76 -29t30 -85t-16 -128l-64 -326q-6 -30 -6 -74q0 -80 53 -80t121 63t117 159t49 163t-36 118t-36 103t41 84t95 32t82 -22q20 -34 20 -141t-59 -249t-144 -249t-181 -176t-175 -69t-136 49t-57 137q0 52 10 104l68 344q4 20 4 57t-20 37q-28 0 -79 -42
t-67 -64q-4 0 -21 20t-17 28q22 54 143 145t205 91z" />
    <glyph glyph-name="w" unicode="w" horiz-adv-x="1372" 
d="M350 898q46 0 76 -29t30 -85t-16 -128l-64 -326q-6 -30 -6 -74q0 -80 52 -80q114 0 202 154q44 435 121 528q33 40 86 40q101 0 101 -140q0 -106 -76 -394q-4 -28 -4 -84t11 -80t55 -24t112 63t117 159t49 160t-37 123t-37 110t43 79t98 28t79 -22q20 -34 20 -141
t-59 -249t-144 -249t-181 -176t-175 -69t-136 44t-59 130q-160 -174 -286 -174q-84 0 -141 49t-57 137q0 52 10 104l68 344q4 20 4 57t-20 37q-28 0 -79 -42t-67 -64q-4 0 -21 20t-17 28q22 54 143 145t205 91z" />
    <glyph glyph-name="x" unicode="x" horiz-adv-x="966" 
d="M410 898q70 0 112 -156l30 -106l76 134q82 128 190 128q82 0 142 -36q14 -24 14 -64t-27 -74t-71 -34t-75 18t-62 18t-51 -34l-98 -190l78 -278q18 -56 47 -56t80 42t67 64q6 0 22 -20t16 -28q-22 -54 -143 -145t-205 -91q-68 0 -112 158l-38 136l-100 -168
q-84 -128 -190 -128q-82 0 -142 36q-14 24 -14 64t27 74t71 34t75 -18t62 -18t51 34l124 220l-72 250q-18 56 -47 56t-80 -42t-67 -64q-4 0 -21 20t-17 28q22 54 143 145t205 91z" />
    <glyph glyph-name="y" unicode="y" horiz-adv-x="1018" 
d="M88 -436q-120 0 -120 106q0 50 36 90q88 -24 152 -24t113 17t71 36t46 49q42 54 42 173t-28 297t-78 356q-16 56 -46 56t-81 -42t-67 -64q-6 0 -22 20t-16 28q22 54 143 145t204 91t150 -259q45 -177 66 -413q3 -34 6 -64l3 -30q32 40 101 181t69 214t-24 142t-48 109
q0 46 40 83t88 37t81 -32t33 -78q0 -172 -64 -355t-166 -334t-222 -274t-243 -192t-219 -69z" />
    <glyph glyph-name="z" unicode="z" horiz-adv-x="862" 
d="M342 898q68 0 176 -22t158 -22t95 22t75 22q38 0 38 -68l-608 -614q12 2 42 12t65 10t109 -22t114 -22t70 25t52 50t30 25q24 0 42 -56l-26 -52q-60 -120 -153 -173q-37 -21 -92 -21t-162 24t-161 24t-112 -24t-77 -24t-31 19t-14 35l610 628q-40 -18 -78 -18t-99 22
t-101 22t-70 -26t-53 -51t-34 -25t-26 16t-23 34q34 82 105 166t139 84z" />
    <glyph glyph-name="braceleft" unicode="{" horiz-adv-x="708" 
d="M64 62q0 64 50 215t50 181t-6 46t-13 25t-24 18t-26 13t-33 11t-32 11q-2 8 2 34t14 40q78 20 120 47q69 44 74 163q9 202 27 294q17 92 100 176t178 124t179 40q4 0 4 -11t-7 -32t-15 -23q-52 -4 -115 -62t-79 -137t-20 -180t-21 -191t-81 -169t-116 -79q42 0 75 -53
t33 -129t-54 -230t-54 -220t39 -115t79 -53q12 -4 7 -35t-15 -31q-116 0 -218 92t-102 220z" />
    <glyph glyph-name="bar" unicode="|" horiz-adv-x="484" 
d="M435 1552q63 0 61 -20l-340 -1744q-16 -14 -63 -27t-69 -13t-29 8t-5 14q200 1068 340 1744q42 38 105 38z" />
    <glyph glyph-name="braceright" unicode="}" horiz-adv-x="692" 
d="M428 1279q0 63 -38 107t-80 48q-12 2 -7 34t15 32q120 0 224 -82t104 -214q0 -68 -55 -225t-55 -205t34 -74t98 -44q2 -4 2 -29t-16 -45q-6 -2 -35 -10t-36 -11t-30 -12t-31 -18t-26 -26t-28 -67t-15 -156t-17 -166q-28 -146 -178 -256t-280 -110q-6 0 -6 12t7 32t15 22
q50 4 116 67t82 143t18 171t19 181t80 164t115 74q-42 0 -75 56t-33 133t56 244t56 230z" />
    <glyph glyph-name="asciitilde" unicode="~" horiz-adv-x="1000" 
d="M339 718q81 0 203 -53t197 -53t134 42q17 12 63 46q8 -4 8 -30q0 -66 -90 -123t-179 -57t-212 53t-199 53t-135 -42q-17 -12 -63 -46q-8 4 -8 30q0 68 100 124t181 56z" />
    <glyph glyph-name="uni00A0" unicode="&#xa0;" horiz-adv-x="380" 
 />
    <glyph glyph-name="exclamdown" unicode="&#xa1;" horiz-adv-x="482" 
d="M182 713q0 61 56 117t111 56t84 -34t29 -96t-53 -116t-109 -54t-87 33t-31 94zM-8 -374q0 48 95 369t137 445q14 44 33 44t33 -16t14 -52t-31 -373t-41 -391t-52 -91t-87 -37t-73 27t-28 75z" />
    <glyph glyph-name="cent" unicode="&#xa2;" horiz-adv-x="742" 
d="M584 898q144 0 224 -90q14 -42 14 -79t-26 -73t-64 -36t-60 26t-31 58q-24 84 -79 84q-80 0 -146 -148t-66 -302q0 -202 128 -202q62 0 121 43t81 73q4 0 21 -20t17 -28q-22 -56 -129 -136t-201 -80q-148 0 -219 87t-71 237q0 228 148 407t338 179z" />
    <glyph glyph-name="sterling" unicode="&#xa3;" horiz-adv-x="978" 
d="M762 1284q78 0 145 -18t81 -52q-16 -76 -51 -121t-78 -45t-65 30t-42 61t-52 31q-174 0 -226 -272q-10 -60 -6 -176q0 -6 6 -6h302q16 0 16 -42t-30 -72h-286q-8 0 -8 -6q0 -34 -14 -100q-30 -142 -166 -304q50 30 134 30t157 -29t91 -29t30 2t22 3t21 7t17 8t18 12
t16 13t17 16t16 15t18 19t17 19q10 0 20 -8t10 -20t-2 -14q-44 -86 -120 -166t-151 -80t-192 29t-158 29t-77 -7q-39 -8 -98 -37l-36 -18q-28 6 -43 23t-15 27t10 16q106 84 159 173t69 235q2 14 7 64l7 70q0 8 -8 8h-144q-6 14 -6 36t11 50t25 28h118q6 0 6 8q-2 72 18 170
q36 180 170 285t320 105z" />
    <glyph glyph-name="currency" unicode="&#xa4;" horiz-adv-x="950" 
d="M561 994q113 0 193 -70l114 96q4 4 8 4q16 0 34 -34t20 -66l-108 -92q30 -70 30 -140q0 -172 -130 -312l66 -96q2 -2 2 -12t-38 -39t-70 -37l-66 100q-100 -58 -215 -58t-197 76l-116 -98q-4 -4 -8 -4q-16 0 -35 34t-21 66l114 96q-26 64 -26 130q0 168 128 310l-70 104
q-2 2 -2 12t38 39t70 37l70 -106q102 60 215 60zM518 904q-66 0 -112 -80q-76 -132 -76 -328q0 -168 112 -168q66 0 112 78q78 132 78 328q0 170 -114 170z" />
    <glyph glyph-name="yen" unicode="&#xa5;" horiz-adv-x="1254" 
d="M1051 1312q59 0 215 12q0 -66 -16 -66t-81 -23t-89 -47q-62 -62 -266 -305t-214 -299l-8 -44h196q16 0 16 -39t-32 -67h-200l-18 -100h194q16 0 16 -39t-32 -67h-198q-10 -60 -10 -110q0 -20 38 -39t56 -19q4 0 4 -24t-12 -44q-222 12 -235 12t-271 -12q-2 2 -2 14t4 33
t8 21q20 0 65 16t58 39t35 113h-178q-18 0 -18 38t24 68h192l20 100h-182q-18 0 -18 33t24 73h196q12 36 12 50t-4 38l-136 464q-30 102 -73 133t-99 31q-6 0 -6 28t16 40q180 -12 262 -12t310 12v-10q0 -14 -6 -36t-12 -22q-26 0 -62 -15t-36 -45q0 -8 12 -44l104 -308
q2 -6 8 -6t12 10q276 310 276 360q0 24 -43 36t-91 12q-4 0 -4 28t16 40q204 -12 263 -12z" />
    <glyph glyph-name="brokenbar" unicode="&#xa6;" horiz-adv-x="480" 
d="M250 536q14 0 31 -6t15 -16l-142 -726q-16 -14 -63 -27t-69 -13t-29 8t-5 14q2 50 142 726q46 40 120 40zM444 1542q27 0 37 -8q11 -8 11 -14l-142 -724q-18 -14 -64 -28t-68 -14t-29 8t-5 14q2 52 142 728q42 38 118 38z" />
    <glyph glyph-name="section" unicode="&#xa7;" horiz-adv-x="792" 
d="M222 736q0 -76 39 -120t89 -69t103 -71t75 -106q52 48 52 111t-40 111t-91 77t-105 77t-74 102q-48 -36 -48 -112zM584 1302q62 0 107 -25t55 -51l-2 -18q0 -78 -41 -108q-19 -14 -43 -14t-44 25t-46 50t-62 25q-140 0 -140 -112q0 -84 130 -159q54 -31 107 -66t91 -90
t38 -136t-60 -183t-124 -144q4 -20 4 -46q0 -164 -103 -248t-237 -84q-64 0 -110 24t-56 50q0 32 23 85t61 53t79 -48t88 -48t89 26t42 81t-37 96t-90 75t-106 71t-90 93t-37 108t8 96t52 120t118 126q-4 10 -4 38q0 158 102 248t238 90z" />
    <glyph glyph-name="dieresis" unicode="&#xa8;" horiz-adv-x="772" 
d="M390 1184q56 0 89 -36t33 -96t-47 -111t-103 -51t-89 36t-33 95t47 111t103 52zM830 1180q56 0 89 -36t33 -95t-47 -111t-103 -52t-89 36t-33 96t47 111t103 51z" />
    <glyph glyph-name="copyright" unicode="&#xa9;" horiz-adv-x="1148" 
d="M692 1230q182 0 297 -123t115 -311q0 -258 -193 -458t-433 -200q-182 0 -296 123t-114 311q0 258 192 458t432 200zM674 1138q-200 0 -361 -167t-161 -381q0 -158 96 -261t248 -103q200 0 361 168t161 382q0 158 -96 260t-248 102zM535 398q-99 0 -155 63t-56 173t94 219
t224 109q88 0 174 -24q2 0 2 -53t-10 -83q-2 -8 -15 -8t-25 4q-2 36 -32 70t-105 34t-125 -93t-50 -199q0 -152 116 -152q85 0 136 59q6 7 11 13t9 10l2 4l8 2q18 0 24 -10q-2 -14 -21 -52t-33 -46q-74 -40 -173 -40z" />
    <glyph glyph-name="ordfeminine" unicode="&#xaa;" horiz-adv-x="738" 
d="M426 1024q-46 0 -113 -129t-67 -214t32 -85q44 0 94 81t66 179l20 114q4 28 4 32q0 22 -36 22zM478 1108q44 0 97 -11t65 -19l-76 -400q-4 -16 -4 -28q0 -36 28 -36q19 0 54 58q12 20 14 20q8 0 23 -13t19 -27q-20 -50 -72 -104t-122 -54t-96 76q-6 30 -6 32t-2 2l-2 -2
q-98 -108 -186 -108q-140 0 -140 142q0 134 138 303t268 169z" />
    <glyph glyph-name="guillemotleft" unicode="&#xab;" horiz-adv-x="950" 
d="M572 799q0 -15 -168 -161l-164 -142l106 -142q108 -140 108 -157t-29 -32t-47 -19q-8 17 -123 119q-115 103 -221 189q-8 8 -8 32t26 50q274 158 464 310q12 -2 34 -17t22 -30zM942 799q0 -15 -168 -161l-164 -142l106 -142q108 -140 108 -157t-29 -32t-47 -19
q-8 17 -123 119q-115 103 -221 189q-8 2 -8 29t26 53q274 158 464 310q12 -2 34 -17t22 -30z" />
    <glyph glyph-name="logicalnot" unicode="&#xac;" horiz-adv-x="1020" 
d="M106 854h836q22 0 18 -22l-94 -506q-38 -20 -77 -20t-50 5t-9 15l72 366v4q0 16 -16 16h-724l-6 20q32 122 50 122z" />
    <glyph glyph-name="registered" unicode="&#xae;" horiz-adv-x="1136" 
d="M702 1364q182 0 297 -123t115 -311q0 -258 -193 -458t-433 -200q-182 0 -296 123t-114 311q0 258 192 458t432 200zM684 1272q-200 0 -361 -167t-161 -381q0 -158 96 -261t248 -103q200 0 361 168t161 382q0 158 -96 260t-248 102zM798 996q0 -58 -38 -112t-84 -74l-4 -4
q0 -2 1 -2t1 -2q89 -226 160 -226q0 -16 -6 -28q-6 -4 -47 -4t-83 24t-57 46t-32 58q-25 54 -39 90t-28 36q-8 0 -10 -12l-30 -150q-2 -8 -2 -28t34 -32h6q2 0 2 -9t-8 -21l-46 4q-44 4 -66 4l-120 -8v14q0 16 4 16q8 0 28 8t24 14q16 36 20 66l62 328q8 56 8 64t-17 16
t-25 8q-2 0 -2 12t6 18q72 -4 122 -4l110 2q58 0 107 -27t49 -85zM616 1064q-29 0 -36 -28l-30 -158q-2 -4 -2 -12q0 -16 38 -16t60 44t22 96q0 74 -52 74z" />
    <glyph glyph-name="macron" unicode="&#xaf;" horiz-adv-x="708" 
d="M816 1198q10 0 10 -16t-5 -36q-17 -67 -47 -86h-454q-14 0 -14 29t13 62t31 47h466z" />
    <glyph glyph-name="degree" unicode="&#xb0;" horiz-adv-x="430" 
d="M455 1268q75 0 116 -45t41 -125t-71 -152t-146 -72t-116 45t-41 126t71 152t146 71zM526 1091q0 89 -86 89q-46 0 -81 -42t-35 -85q0 -89 80 -89q52 0 87 42t35 85z" />
    <glyph glyph-name="plusminus" unicode="&#xb1;" horiz-adv-x="976" 
d="M570 840q8 0 8 8q12 58 32 173t34 187q4 18 61 27t82 9t21 -18l-70 -376q-4 -10 6 -10h346q8 0 8 -46t-52 -98h-332q-8 0 -8 -8l-70 -360q-2 -14 -50 -25t-73 -11t-33 6t-6 12l72 376q0 10 -8 10h-342q-8 0 -8 46t52 98h330zM972 222q8 0 8 -46t-52 -98h-850q-8 0 -8 46
t52 98h850z" />
    <glyph glyph-name="uni00B2" unicode="&#xb2;" horiz-adv-x="624" 
d="M413 1288q79 0 124 -45t45 -122t-47 -160t-143 -169t-194 -148q-4 -4 -4 -8t4 -4h212q70 0 109 78q13 26 25 26q30 0 36 -10l-96 -220l-190 2q-228 -2 -238 -2q-16 22 -16 38t6 32q180 160 274 292t94 210q0 38 -19 66t-57 28t-76 -23t-62 -46t-28 -23t-12 17t-8 30
q0 41 91 101t170 60z" />
    <glyph glyph-name="uni00B3" unicode="&#xb3;" horiz-adv-x="580" 
d="M392 1130q0 62 -59 62q-29 0 -77 -37t-56 -37t-20 17t-4 25q40 50 113 90t127 40t95 -29t41 -89t-55 -127t-121 -101q48 0 106 -36t58 -110q0 -116 -109 -211t-267 -95q-38 0 -84 13t-46 41t23 56t51 28t54 -33t56 -33q82 0 120 74t38 142q0 100 -122 100h-42
q-11 37 4 60q74 16 117 59t51 73t8 58z" />
    <glyph glyph-name="acute" unicode="&#xb4;" horiz-adv-x="432" 
d="M512 1374q46 0 72 -26t26 -44q0 -48 -134 -154t-160 -106q-6 0 -15 13t-9 24t63 123t101 158q10 12 56 12z" />
    <glyph glyph-name="uni00B5" unicode="&#xb5;" horiz-adv-x="934" 
d="M368 892q18 0 61 -28t39 -46q-26 -128 -86 -286l-28 -86q-22 -118 -6 -192t62 -74q124 0 192 228l96 458q44 30 97 26t87 -28t28 -46q-16 -96 -104 -326l-18 -46q-30 -122 -27 -206t57 -84q30 0 67 22t53 40q6 0 16 -26q4 -20 -2 -40q-30 -66 -86 -113t-112 -46t-85 80
t-21 183q-50 -86 -84 -136t-89 -94t-97 -44t-52 11t-16 18t-10 20t-7 22q-15 45 -15 99q0 -8 -19 -84t-34 -151t-14 -164t31 -135q-12 -16 -49 -44t-59 -28q-108 0 -108 200q0 112 164 662q9 44 30 188q2 6 50 256q8 12 44 26t54 14z" />
    <glyph glyph-name="paragraph" unicode="&#xb6;" horiz-adv-x="868" 
d="M664 654q22 0 38 8t18 18q90 470 95 501t-26 31t-35 -24l-106 -524q-6 -10 16 -10zM530 4q-80 0 -236 -12q-2 10 4 37t12 27q16 0 57 15t47 29q14 36 60 266l28 146q2 10 -7 12t-27 2q-156 0 -224 112t-33 295t162 277t263 94l204 -8l228 12q6 -8 -2 -36t-16 -28
q-24 0 -62 -10t-48 -26q-11 -25 -56 -259q-44 -235 -47 -249t7 -14l82 18q4 -16 -3 -45q-12 -48 -97 -71q-12 -6 -12 -8q-16 -78 -48 -260t-30 -216q2 -16 37 -30t55 -14q6 0 1 -29t-15 -39q-204 12 -284 12zM572 88q28 0 32 28q24 90 90 424q2 8 -6 8q-62 0 -68 -26
l-76 -408q-2 -12 6 -19t22 -7z" />
    <glyph glyph-name="periodcentered" unicode="&#xb7;" horiz-adv-x="378" 
d="M156 509q0 61 53 114t109 53t87 -33t31 -91t-52 -117t-108 -59t-88 36t-32 97z" />
    <glyph glyph-name="cedilla" unicode="&#xb8;" 
d="M486 -62q30 0 57 -29t27 -62t-12 -64t-38 -66t-79 -59t-129 -24t-102 16q-10 22 -10 46t15 40t31 16t46 -21t67 -21t64 26t27 58q0 50 -42 50q-34 0 -68 -14q-4 0 -17 15t-4 27t40 61t43 65h72l-44 -62q26 2 56 2z" />
    <glyph glyph-name="uni00B9" unicode="&#xb9;" horiz-adv-x="534" 
d="M40 517q0 7 5 26t7 19q16 0 54 10q68 18 80 88l78 398q4 32 4 36q0 26 -17 26t-113 -44q-6 2 -13 14t-7 27t2 17q342 162 352 162t19 -17t9 -23q-42 -92 -58 -170l-82 -424q-4 -16 -4 -37t8 -34t40 -21t42 -8t10 -8q0 -36 -14 -50l-188 10l-212 -10l-2 4v9z" />
    <glyph glyph-name="ordmasculine" unicode="&#xba;" horiz-adv-x="684" 
d="M78 734q0 146 108 260t240 114q100 0 164 -69t64 -173q0 -138 -105 -255t-243 -117q-100 0 -164 68t-64 172zM332 568q148 0 148 332q0 134 -84 134q-146 0 -146 -338q0 -128 82 -128z" />
    <glyph glyph-name="guillemotright" unicode="&#xbb;" horiz-adv-x="978" 
d="M922 512q0 -44 -28 -56q-260 -160 -359 -233t-101 -77q-12 2 -34 17t-22 28t23 35t145 128l162 142l-108 142q-106 136 -106 154t29 34t45 20q172 -172 346 -308q8 -16 8 -26zM550 512q0 -44 -26 -56q-260 -160 -359 -233t-101 -77q-12 2 -34 17t-22 28t23 35t145 128
l162 142l-108 142q-106 136 -106 154t29 34t45 20q172 -172 346 -308q6 -12 6 -26z" />
    <glyph glyph-name="onequarter" unicode="&#xbc;" horiz-adv-x="1264" 
d="M792 312h148q10 0 12 8l40 202q0 12 -2 12l-4 -2l-198 -204q-2 -2 -2 -9t6 -7zM1208 782l-90 -462v-2q0 -6 8 -6h38q12 0 12 -40t-26 -72h-48q-4 0 -8 -10l-38 -186q-44 -10 -72 -10t-40 1q-54 4 -54 11l38 186v2q0 6 -10 6h-290q-14 8 -6 46l516 530q18 18 44 18t26 -12
zM212 12q0 8 4 12l886 1264q14 4 44 -12t30 -32q0 -10 -2 -12l-890 -1258q-16 -2 -44 10t-28 28zM18 517q0 7 5 26t7 19q16 0 54 10q68 18 80 88l78 398q4 32 4 36q0 26 -17 26t-113 -44q-6 2 -13 14t-7 27t2 17q342 162 352 162t19 -17t9 -23q-42 -92 -58 -170l-82 -424
q-4 -16 -4 -37t8 -34t40 -21t42 -8t10 -8q0 -36 -14 -50l-188 10l-212 -10v4q-2 2 -2 9z" />
    <glyph glyph-name="onehalf" unicode="&#xbd;" horiz-adv-x="1334" 
d="M28 562q16 0 53 10t47 22q28 34 34 66l78 398q12 62 -12 62q-14 0 -88 -34q-6 2 -14 15t-7 26t5 17q320 152 326 152h2q6 0 15 -17t9 -23q-42 -92 -58 -170l-82 -424q-10 -50 1 -67t43 -25t48 -8q2 0 4 -21t-14 -37l-190 10l-212 -10q-4 4 2 31t10 27zM1016 664
q-42 0 -80 -23t-62 -46t-26 -23q-10 0 -18 20t2 48q30 42 103 91t159 49t131 -61t24 -167t-135 -221t-242 -195q-12 -12 0 -12h212q44 0 61 17t23 24t19 28t18 28t24 7t25 -10l-96 -220l-190 2q-228 -2 -238 -2q-26 32 -10 70q330 294 366 480q8 42 -10 79t-60 37zM176 12
q0 8 4 12l886 1264q14 4 44 -12t30 -32q0 -10 -2 -12l-890 -1258q-16 -2 -44 10t-28 28z" />
    <glyph glyph-name="threequarters" unicode="&#xbe;" horiz-adv-x="1256" 
d="M978 -6q-28 0 -40 1q-54 4 -54 11l36 188q0 6 -10 6h-290q-14 8 -6 46l516 530q20 20 38 20t26 -3t6 -11l-90 -466q-2 -4 0 -5t10 -3h36q10 -6 8 -29t-10 -71l-14 -12h-46q-6 0 -10 -10l-34 -182q-44 -10 -72 -10zM402 1290q58 0 102 -36t30 -104t-69 -124t-105 -82
q56 0 116 -44t42 -136q-26 -130 -136 -201t-218 -71t-144 40q-4 12 0 37t29 43t47 18t48 -33t69 -33t84 42t57 124t-15 116t-103 34h-42q-6 20 -4 32q0 12 10 28q148 34 174 168q6 40 -10 62t-47 22t-77 -37t-54 -37t-21 17t-5 25q40 50 112 90t130 40zM206 12q0 8 4 12
l886 1264q14 4 44 -12t30 -32q0 -10 -2 -12l-890 -1258q-16 -2 -44 10t-28 28zM780 319q0 -7 6 -7h146q14 6 14 8l38 202q0 11 2 12l-6 -2l-198 -204q-2 -2 -2 -9z" />
    <glyph glyph-name="questiondown" unicode="&#xbf;" horiz-adv-x="692" 
d="M318 448q0 24 26 40q48 0 140 -68t92 -146t-42 -129t-94 -75l-202 -90q-104 -46 -104 -132q0 -104 98 -104q30 0 75 45t75 45q66 0 89 -59t-3 -115q-60 -74 -178 -74t-214 82t-96 210q0 82 44 161t121 121t193 94q78 32 78 82q0 34 -49 70t-49 42zM664 768
q0 -62 -52 -115t-108 -53t-88 32t-32 93t51 118t105 57t89 -35t35 -97z" />
    <glyph glyph-name="Agrave" unicode="&#xc0;" horiz-adv-x="1268" 
d="M917 1430q-25 0 -204 62t-179 100t46 56t88 18t77 -20t89 -62t90 -76t36 -42t-9 -22t-34 -14zM627 546q79 0 137 4q8 0 8 10l-64 356l-216 -356q-2 -2 -1 -5t29 -6t107 -3zM716 27q0 33 16 33t52 17q60 28 60 61q0 18 -44 276q0 8 -12 8q-72 4 -179 4t-152 -1t-55 -11
l-90 -152q-66 -98 -66 -132t51 -52t79 -18q4 0 4 -24t-10 -44q-168 14 -204 14t-232 -14q-2 4 -2 36t10 32q20 0 86 29t84 54t78 125l544 904q24 48 58 94t48 57t29 11t21 -16l210 -1036q8 -52 28 -150q6 -32 52 -52t68 -20q4 0 4 -25t-14 -43l-244 14q-38 0 -276 -14
q-2 2 -2 35z" />
    <glyph glyph-name="Aacute" unicode="&#xc1;" horiz-adv-x="1268" 
d="M869 1430q-25 0 -34 14t-9 22t36 42q167 158 250 158q48 0 94 -18t46 -56t-179 -100t-204 -62zM627 546q79 0 137 4q8 0 8 10l-64 356l-216 -356q-2 -2 -1 -5t29 -6t107 -3zM716 27q0 33 16 33t52 17q60 28 60 61q0 18 -44 276q0 8 -12 8q-72 4 -179 4t-152 -1t-55 -11
l-90 -152q-66 -98 -66 -132t51 -52t79 -18q4 0 4 -24t-10 -44q-168 14 -204 14t-232 -14q-2 4 -2 36t10 32q20 0 86 29t84 54t78 125l544 904q24 48 58 94t48 57t29 11t21 -16l210 -1036q8 -52 28 -150q6 -32 52 -52t68 -20q4 0 4 -25t-14 -43l-244 14q-38 0 -276 -14
q-2 2 -2 35z" />
    <glyph glyph-name="Acircumflex" unicode="&#xc2;" horiz-adv-x="1268" 
d="M1172 1456q-18 0 -99 45t-127 79q-62 -34 -162 -79t-116 -45q-24 0 -14 38q64 38 159 112t125 103t40 29q14 0 55 -54l39 -52q80 -96 128 -138q-10 -38 -28 -38zM627 546q79 0 137 4q8 0 8 10l-64 356l-216 -356q-2 -2 -1 -5t29 -6t107 -3zM716 27q0 33 16 33t52 17
q60 28 60 61q0 18 -44 276q0 8 -12 8q-72 4 -179 4t-152 -1t-55 -11l-90 -152q-66 -98 -66 -132t51 -52t79 -18q4 0 4 -24t-10 -44q-168 14 -204 14t-232 -14q-2 4 -2 36t10 32q20 0 86 29t84 54t78 125l544 904q24 48 58 94t48 57t29 11t21 -16l210 -1036q8 -52 28 -150
q6 -32 52 -52t68 -20q4 0 4 -25t-14 -43l-244 14q-38 0 -276 -14q-2 2 -2 35z" />
    <glyph glyph-name="Atilde" unicode="&#xc3;" horiz-adv-x="1268" 
d="M558 1478q-14 0 -5 48t51 96q90 102 173 102t177 -68t164 -68q36 0 91 57t65 57q16 0 7 -47t-53 -99q-84 -100 -168 -100t-177 68t-165 68q-34 0 -93 -57t-67 -57zM627 546q79 0 137 4q8 0 8 10l-64 356l-216 -356q-2 -2 -1 -5t29 -6t107 -3zM716 27q0 33 16 33t52 17
q60 28 60 61q0 18 -44 276q0 8 -12 8q-72 4 -179 4t-152 -1t-55 -11l-90 -152q-66 -98 -66 -132t51 -52t79 -18q4 0 4 -24t-10 -44q-168 14 -204 14t-232 -14q-2 4 -2 36t10 32q20 0 86 29t84 54t78 125l544 904q24 48 58 94t48 57t29 11t21 -16l210 -1036q8 -52 28 -150
q6 -32 52 -52t68 -20q4 0 4 -25t-14 -43l-244 14q-38 0 -276 -14q-2 2 -2 35z" />
    <glyph glyph-name="Adieresis" unicode="&#xc4;" horiz-adv-x="1268" 
d="M733 1752q57 0 89 -43t20 -105t-61 -105t-106 -43t-89 43t-20 105t61 105t106 43zM1161 1752q57 0 89 -43t20 -105t-61 -105t-106 -43t-89 43t-20 105t61 105t106 43zM627 546q79 0 137 4q8 0 8 10l-64 356l-216 -356q-2 -2 -1 -5t29 -6t107 -3zM716 27q0 33 16 33t52 17
q60 28 60 61q0 18 -44 276q0 8 -12 8q-72 4 -179 4t-152 -1t-55 -11l-90 -152q-66 -98 -66 -132t51 -52t79 -18q4 0 4 -24t-10 -44q-168 14 -204 14t-232 -14q-2 4 -2 36t10 32q20 0 86 29t84 54t78 125l544 904q24 48 58 94t48 57t29 11t21 -16l210 -1036q8 -52 28 -150
q6 -32 52 -52t68 -20q4 0 4 -25t-14 -43l-244 14q-38 0 -276 -14q-2 2 -2 35z" />
    <glyph glyph-name="Aring" unicode="&#xc5;" horiz-adv-x="1268" 
d="M166 6q-36 0 -232 -14q-2 4 -2 36t10 32q20 0 86 29t84 54t78 125l544 904q24 48 58 94t47 56q-55 10 -95 62t-25 133t81 139t142 58t118 -58t28 -138t-75 -134t-124 -63q1 -2 1 -3l210 -1036q8 -52 28 -150q6 -32 52 -52t68 -20q4 0 4 -25t-14 -43l-244 14
q-38 0 -276 -14q-2 2 -2 35t16 33t52 17q60 28 60 61q0 18 -44 276q0 8 -12 8q-72 4 -179 4t-152 -1t-55 -11l-90 -152q-66 -98 -66 -132t51 -52t79 -18q4 0 4 -24t-10 -44q-168 14 -204 14zM884 1410q42 0 76 31t44 77t-13 77t-65 31t-76 -31t-44 -77t13 -77t65 -31z
M627 546q79 0 137 4q8 0 8 10l-64 356l-216 -356q-2 -2 -1 -5t29 -6t107 -3z" />
    <glyph glyph-name="AE" unicode="&#xc6;" horiz-adv-x="1862" 
d="M808 546q84 0 144 4q6 0 10 10l44 378l-330 -378q-5 -5 -2 -8q50 -6 134 -6zM1784 1022q-28 0 -30 14q-12 84 -79 134t-145 50h-102q-118 0 -124 -26q-18 -54 -26 -156l-32 -302v-2q0 -16 80 -16h98q88 0 110 15t54 109q6 14 35 14t35 -10l-38 -378q-8 -8 -36 -8t-32 16
q-4 28 -8 48l-6 30q-4 22 -14 30t-12 8q-22 16 -150 16t-130 -18l-32 -308q-10 -94 0 -142q6 -32 124 -32h50q122 0 230 56q32 16 74 65t72 111q6 12 40 12t42 -12q-134 -300 -148 -344l-634 8l-262 -12q-6 14 -3 43t11 29q20 0 60 15t46 31q22 72 36 304q2 8 -12 8
q-68 4 -180 4t-178 -2q-8 0 -18 -10l-136 -152q-8 -10 -27 -31q-75 -83 -75 -110t26 -37q62 -24 104 -24q4 0 4 -14t-16 -54l-200 12q-70 0 -250 -12q-2 4 -2 19t5 31t7 16q26 0 79 20t87 56l746 854q142 160 152 208q4 24 -8 37t-21 14t-23 1t-14 16t5 36t7 20
q60 -6 182 -6l648 14q-8 -176 -8 -296q-10 -10 -38 -10z" />
    <glyph glyph-name="Ccedilla" unicode="&#xc7;" horiz-adv-x="1174" 
d="M470 -62q48 0 77 -37t19 -83q-16 -84 -82 -134t-151 -50t-113 38q0 20 6 46t18 26q2 0 39 -17t65 -17q86 0 98 67t-40 67q-34 0 -68 -14q-4 0 -15 16t-7 22q16 20 47 69t39 61h55q-167 31 -279 139q-156 151 -156 381q0 164 69 318t178 261t245 172t268 65q204 0 414 -58
q0 -24 -9 -153t-12 -143q-6 -30 -55 -30q-4 0 -28 6q-5 64 -33 115q-85 151 -282 151q-135 0 -241 -100t-165 -267t-59 -354t75 -297t223 -110q84 0 166 20t122 48t70 71t45 73t17 30q52 0 58 -26q-6 -28 -35 -118t-45 -104q-114 -102 -412 -102q-67 0 -127 10l-39 -60
q26 2 40 2z" />
    <glyph glyph-name="Egrave" unicode="&#xc8;" horiz-adv-x="1084" 
d="M885 1430q-25 0 -204 62t-179 100t46 56t88 18t77 -20t89 -62t90 -76t36 -42t-9 -22t-34 -14zM-28 9q0 13 5 32t11 19q20 0 64 16t54 34q24 42 50 176l146 756q22 128 20 150t-43 43t-59 21q-4 0 -4 27t14 41q160 -6 262 -6l602 10q-4 -60 -4 -182v-114q-10 -10 -38 -10
t-30 14q-22 76 -87 130t-137 54h-70q-64 0 -92 -5t-34 -21q-24 -66 -40 -156l-60 -308q-4 -12 78 -12h158q44 0 60 17t56 107q6 14 35 14t35 -10l-72 -378q-8 -8 -36 -8t-32 16q-4 90 -25 111t-151 21t-134 -18l-58 -308q-16 -80 -16 -117t19 -47t103 -10h48q116 0 220 52
q34 18 84 68t84 112q6 12 40 12t42 -12q-8 -16 -44 -83q-97 -181 -124 -261l-658 8q-68 0 -142 -6t-96 -6q-4 4 -4 17z" />
    <glyph glyph-name="Eacute" unicode="&#xc9;" horiz-adv-x="1084" 
d="M643 1430q-25 0 -34 14t-9 22t36 42q167 158 250 158q48 0 94 -18t46 -56t-179 -100t-204 -62zM-28 9q0 13 5 32t11 19q20 0 64 16t54 34q24 42 50 176l146 756q22 128 20 150t-43 43t-59 21q-4 0 -4 27t14 41q160 -6 262 -6l602 10q-4 -60 -4 -182v-114q-10 -10 -38 -10
t-30 14q-22 76 -87 130t-137 54h-70q-64 0 -92 -5t-34 -21q-24 -66 -40 -156l-60 -308q-4 -12 78 -12h158q44 0 60 17t56 107q6 14 35 14t35 -10l-72 -378q-8 -8 -36 -8t-32 16q-4 90 -25 111t-151 21t-134 -18l-58 -308q-16 -80 -16 -117t19 -47t103 -10h48q116 0 220 52
q34 18 84 68t84 112q6 12 40 12t42 -12q-8 -16 -44 -83q-97 -181 -124 -261l-658 8q-68 0 -142 -6t-96 -6q-4 4 -4 17z" />
    <glyph glyph-name="Ecircumflex" unicode="&#xca;" horiz-adv-x="1084" 
d="M968 1456q-18 0 -99 45t-127 79q-62 -34 -162 -79t-116 -45q-24 0 -14 38q64 38 159 112t125 103t40 29q14 0 55 -54l39 -52q80 -96 128 -138q-10 -38 -28 -38zM-28 9q0 13 5 32t11 19q20 0 64 16t54 34q24 42 50 176l146 756q22 128 20 150t-43 43t-59 21q-4 0 -4 27
t14 41q160 -6 262 -6l602 10q-4 -60 -4 -182v-114q-10 -10 -38 -10t-30 14q-22 76 -87 130t-137 54h-70q-64 0 -92 -5t-34 -21q-24 -66 -40 -156l-60 -308q-4 -12 78 -12h158q44 0 60 17t56 107q6 14 35 14t35 -10l-72 -378q-8 -8 -36 -8t-32 16q-4 90 -25 111t-151 21
t-134 -18l-58 -308q-16 -80 -16 -117t19 -47t103 -10h48q116 0 220 52q34 18 84 68t84 112q6 12 40 12t42 -12q-8 -16 -44 -83q-97 -181 -124 -261l-658 8q-68 0 -142 -6t-96 -6q-4 4 -4 17z" />
    <glyph glyph-name="Edieresis" unicode="&#xcb;" horiz-adv-x="1084" 
d="M559 1752q57 0 89 -43t20 -105t-61 -105t-106 -43t-89 43t-20 105t61 105t106 43zM987 1752q57 0 89 -43t20 -105t-61 -105t-106 -43t-89 43t-20 105t61 105t106 43zM-28 9q0 13 5 32t11 19q20 0 64 16t54 34q24 42 50 176l146 756q22 128 20 150t-43 43t-59 21
q-4 0 -4 27t14 41q160 -6 262 -6l602 10q-4 -60 -4 -182v-114q-10 -10 -38 -10t-30 14q-22 76 -87 130t-137 54h-70q-64 0 -92 -5t-34 -21q-24 -66 -40 -156l-60 -308q-4 -12 78 -12h158q44 0 60 17t56 107q6 14 35 14t35 -10l-72 -378q-8 -8 -36 -8t-32 16q-4 90 -25 111
t-151 21t-134 -18l-58 -308q-16 -80 -16 -117t19 -47t103 -10h48q116 0 220 52q34 18 84 68t84 112q6 12 40 12t42 -12q-8 -16 -44 -83q-97 -181 -124 -261l-658 8q-68 0 -142 -6t-96 -6q-4 4 -4 17z" />
    <glyph glyph-name="Igrave" unicode="&#xcc;" horiz-adv-x="720" 
d="M621 1430q-25 0 -204 62t-179 100t46 56t88 18t77 -20t89 -62t90 -76t36 -42t-9 -22t-34 -14zM458 1312q56 0 284 12v-10q0 -16 -5 -37t-11 -21q-16 0 -63 -17t-57 -34q-23 -38 -46 -167l-146 -760q-20 -104 -20 -160q0 -20 39 -39t57 -19q4 0 4 -24t-14 -44l-240 14
l-266 -14q-2 2 -2 14t4 33t8 21q22 0 65 13t53 31q32 52 50 166l150 776q18 96 18 136t-37 57t-59 17q-2 0 -2 28t12 40q168 -12 224 -12z" />
    <glyph glyph-name="Iacute" unicode="&#xcd;" horiz-adv-x="720" 
d="M397 1430q-25 0 -34 14t-9 22t36 42q167 158 250 158q48 0 94 -18t46 -56t-179 -100t-204 -62zM458 1312q56 0 284 12v-10q0 -16 -5 -37t-11 -21q-16 0 -63 -17t-57 -34q-23 -38 -46 -167l-146 -760q-20 -104 -20 -160q0 -20 39 -39t57 -19q4 0 4 -24t-14 -44l-240 14
l-266 -14q-2 2 -2 14t4 33t8 21q22 0 65 13t53 31q32 52 50 166l150 776q18 96 18 136t-37 57t-59 17q-2 0 -2 28t12 40q168 -12 224 -12z" />
    <glyph glyph-name="Icircumflex" unicode="&#xce;" horiz-adv-x="720" 
d="M754 1456q-18 0 -99 45t-127 79q-62 -34 -162 -79t-116 -45q-24 0 -14 38q64 38 159 112t125 103t40 29q14 0 55 -54l39 -52q80 -96 128 -138q-10 -38 -28 -38zM458 1312q56 0 284 12v-10q0 -16 -5 -37t-11 -21q-16 0 -63 -17t-57 -34q-23 -38 -46 -167l-146 -760
q-20 -104 -20 -160q0 -20 39 -39t57 -19q4 0 4 -24t-14 -44l-240 14l-266 -14q-2 2 -2 14t4 33t8 21q22 0 65 13t53 31q32 52 50 166l150 776q18 96 18 136t-37 57t-59 17q-2 0 -2 28t12 40q168 -12 224 -12z" />
    <glyph glyph-name="Idieresis" unicode="&#xcf;" horiz-adv-x="720" 
d="M357 1752q57 0 89 -43t20 -105t-61 -105t-106 -43t-89 43t-20 105t61 105t106 43zM785 1752q57 0 89 -43t20 -105t-61 -105t-106 -43t-89 43t-20 105t61 105t106 43zM458 1312q56 0 284 12v-10q0 -16 -5 -37t-11 -21q-16 0 -63 -17t-57 -34q-23 -38 -46 -167l-146 -760
q-20 -104 -20 -160q0 -20 39 -39t57 -19q4 0 4 -24t-14 -44l-240 14l-266 -14q-2 2 -2 14t4 33t8 21q22 0 65 13t53 31q32 52 50 166l150 776q18 96 18 136t-37 57t-59 17q-2 0 -2 28t12 40q168 -12 224 -12z" />
    <glyph glyph-name="Eth" unicode="&#xd0;" horiz-adv-x="1378" 
d="M0 64q22 0 66 14t54 30q22 52 42 162l56 288h-114l-6 20q30 116 42 122q4 2 8 2h98l66 340q22 122 20 156q-2 16 -41 37t-57 21q-4 0 0 31t14 41q130 -10 254 -10h324q254 0 388 -138q133 -138 139 -318q3 -92 -11 -190q-56 -290 -266 -484t-510 -194l-316 10l-264 -12
q-6 14 1 43t13 29zM768 702q14 0 12 -14q-12 -50 -28 -87t-20 -40t-8 -3h-246l-54 -286q-26 -130 -12 -140q34 -26 198 -26t279 144t171 430q42 220 -20 373t-222 153h-8q-160 0 -191 -35t-45 -123l-68 -346h262z" />
    <glyph glyph-name="Ntilde" unicode="&#xd1;" horiz-adv-x="1350" 
d="M636 1478q-14 0 -5 48t51 96q90 102 173 102t177 -68t164 -68q36 0 91 57t65 57q16 0 7 -47t-53 -99q-84 -100 -168 -100t-177 68t-165 68q-34 0 -93 -57t-67 -57zM229 6q-85 0 -253 -14q-4 8 -4 18t3 22l5 20q2 8 4 8q36 0 100 19t94 58t50 151l152 786q12 64 12 118
q0 30 -56 47t-90 17q-6 0 -6 29t14 39q210 -10 283 -10t151 10q28 -106 197 -403t231 -419q4 12 20 82l88 464q12 66 12 108t-63 71t-97 29q-4 0 -4 28t12 40q210 -10 266 -10t242 10q0 -68 -15 -68t-41 -4t-71 -22t-74 -48t-51 -144l-148 -760q-16 -82 -46 -280
q-8 -8 -48 -8q-22 0 -50 46l-554 1012l-148 -766q-16 -80 -16 -111t22 -55t67 -40t71 -16q4 0 4 -22t-12 -46q-168 14 -253 14z" />
    <glyph glyph-name="Ograve" unicode="&#xd2;" horiz-adv-x="1252" 
d="M897 1430q-25 0 -204 62t-179 100t46 56t88 18t77 -20t89 -62t90 -76t36 -42t-9 -22t-34 -14zM766 1334q212 0 347 -151t135 -383q0 -156 -64 -307t-167 -263t-239 -181t-274 -69q-212 0 -346 151t-134 381q0 156 64 308t166 264t238 181t274 69zM718 1222
q-162 0 -283 -214t-121 -509t127 -376q49 -31 124 -31t146 57q123 99 187 322t64 399q0 352 -244 352z" />
    <glyph glyph-name="Oacute" unicode="&#xd3;" horiz-adv-x="1252" 
d="M769 1430q-25 0 -34 14t-9 22t36 42q167 158 250 158q48 0 94 -18t46 -56t-179 -100t-204 -62zM766 1334q212 0 347 -151t135 -383q0 -156 -64 -307t-167 -263t-239 -181t-274 -69q-212 0 -346 151t-134 381q0 156 64 308t166 264t238 181t274 69zM718 1222
q-162 0 -283 -214t-121 -509t127 -376q49 -31 124 -31t146 57q123 99 187 322t64 399q0 352 -244 352z" />
    <glyph glyph-name="Ocircumflex" unicode="&#xd4;" horiz-adv-x="1252" 
d="M1042 1456q-18 0 -99 45t-127 79q-62 -34 -162 -79t-116 -45q-24 0 -14 38q64 38 159 112t125 103t40 29q14 0 55 -54l39 -52q80 -96 128 -138q-10 -38 -28 -38zM766 1334q212 0 347 -151t135 -383q0 -156 -64 -307t-167 -263t-239 -181t-274 -69q-212 0 -346 151
t-134 381q0 156 64 308t166 264t238 181t274 69zM718 1222q-162 0 -283 -214t-121 -509t127 -376q49 -31 124 -31t146 57q123 99 187 322t64 399q0 352 -244 352z" />
    <glyph glyph-name="Otilde" unicode="&#xd5;" horiz-adv-x="1252" 
d="M458 1478q-14 0 -5 48t51 96q90 102 173 102t177 -68t164 -68q36 0 91 57t65 57q16 0 7 -47t-53 -99q-84 -100 -168 -100t-177 68t-165 68q-34 0 -93 -57t-67 -57zM766 1334q212 0 347 -151t135 -383q0 -156 -64 -307t-167 -263t-239 -181t-274 -69q-212 0 -346 151
t-134 381q0 156 64 308t166 264t238 181t274 69zM718 1222q-162 0 -283 -214t-121 -509t127 -376q49 -31 124 -31t146 57q123 99 187 322t64 399q0 352 -244 352z" />
    <glyph glyph-name="Odieresis" unicode="&#xd6;" horiz-adv-x="1252" 
d="M588 1754q56 0 89 -36t33 -96t-47 -111t-103 -51t-89 36t-33 95t47 111t103 52zM1028 1750q56 0 89 -36t33 -95t-47 -111t-103 -52t-89 36t-33 96t47 111t103 51zM766 1334q212 0 347 -151t135 -383q0 -156 -64 -307t-167 -263t-239 -181t-274 -69q-212 0 -346 151
t-134 381q0 156 64 308t166 264t238 181t274 69zM718 1222q-162 0 -283 -214t-121 -509t127 -376q49 -31 124 -31t146 57q123 99 187 322t64 399q0 352 -244 352z" />
    <glyph glyph-name="multiply" unicode="&#xd7;" horiz-adv-x="842" 
d="M86 108q-12 0 -32 43t-20 67l302 268q4 4 4 9t-2 7l-192 258q0 20 41 68t52 48t19 -8l194 -264q4 -4 7 -4t5 2l302 268q6 6 12 6q12 0 34 -43t22 -69l-294 -264q-4 -4 -4 -6t2 -4l190 -266q0 -20 -42 -65t-54 -45t-14 6l-194 264q-4 4 -7 4t-7 -4l-306 -270q-6 -6 -18 -6
z" />
    <glyph glyph-name="Oslash" unicode="&#xd8;" horiz-adv-x="1300" 
d="M577 92q113 0 196 85t128 212q91 257 91 481q0 86 -14 150l-578 -818q64 -110 177 -110zM796 1334q136 0 246 -66l48 70q14 4 44 -13t30 -33q0 -8 -2 -12l-48 -68q164 -152 164 -412q0 -208 -107 -399t-280 -306t-357 -115q-134 0 -244 66l-32 -46q-16 -2 -44 11t-28 25
t4 16l32 46q-168 152 -168 414q0 208 107 400t279 307t356 115zM748 1222q-160 0 -282 -214t-122 -532q0 -100 20 -178l574 822q-62 102 -190 102z" />
    <glyph glyph-name="Ugrave" unicode="&#xd9;" horiz-adv-x="1358" 
d="M679 1430q-25 0 -204 62t-179 100t46 56t88 18t77 -20t89 -62t90 -76t36 -42t-9 -22t-34 -14zM1138 1308q58 0 250 16q7 -26 -4 -50q-10 -24 -14 -24q-43 0 -91 -19q-49 -19 -78 -49t-51 -144l-90 -456q-56 -292 -218 -442t-378 -150t-326 144q-109 144 -50 488l82 422
q22 136 16 154t-46 35t-60 17q-6 0 0 35t10 39q252 -12 277 -12t253 12v-36q-6 -38 -16 -38q-16 0 -70 -17t-60 -31q-26 -58 -46 -170l-92 -474q-36 -184 20 -296t186 -112t240 92t158 330l92 476q0 2 4 23q18 92 2 118q-16 25 -65 43t-71 18q-10 3 -3 37q7 33 13 37
q168 -16 226 -16z" />
    <glyph glyph-name="Uacute" unicode="&#xda;" horiz-adv-x="1358" 
d="M551 1430q-25 0 -34 14t-9 22t36 42q167 158 250 158q48 0 94 -18t46 -56t-179 -100t-204 -62zM1138 1308q58 0 250 16q7 -26 -4 -50q-10 -24 -14 -24q-43 0 -91 -19q-49 -19 -78 -49t-51 -144l-90 -456q-56 -292 -218 -442t-378 -150t-326 144q-109 144 -50 488l82 422
q22 136 16 154t-46 35t-60 17q-6 0 0 35t10 39q252 -12 277 -12t253 12v-36q-6 -38 -16 -38q-16 0 -70 -17t-60 -31q-26 -58 -46 -170l-92 -474q-36 -184 20 -296t186 -112t240 92t158 330l92 476q0 2 4 23q18 92 2 118q-16 25 -65 43t-71 18q-10 3 -3 37q7 33 13 37
q168 -16 226 -16z" />
    <glyph glyph-name="Ucircumflex" unicode="&#xdb;" horiz-adv-x="1358" 
d="M854 1456q-18 0 -99 45t-127 79q-62 -34 -162 -79t-116 -45q-24 0 -14 38q64 38 159 112t125 103t40 29q14 0 55 -54l39 -52q80 -96 128 -138q-10 -38 -28 -38zM1138 1308q58 0 250 16q7 -26 -4 -50q-10 -24 -14 -24q-43 0 -91 -19q-49 -19 -78 -49t-51 -144l-90 -456
q-56 -292 -218 -442t-378 -150t-326 144q-109 144 -50 488l82 422q22 136 16 154t-46 35t-60 17q-6 0 0 35t10 39q252 -12 277 -12t253 12v-36q-6 -38 -16 -38q-16 0 -70 -17t-60 -31q-26 -58 -46 -170l-92 -474q-36 -184 20 -296t186 -112t240 92t158 330l92 476q0 2 4 23
q18 92 2 118q-16 25 -65 43t-71 18q-10 3 -3 37q7 33 13 37q168 -16 226 -16z" />
    <glyph glyph-name="Udieresis" unicode="&#xdc;" horiz-adv-x="1358" 
d="M415 1752q57 0 89 -43t20 -105t-61 -105t-106 -43t-89 43t-20 105t61 105t106 43zM843 1752q57 0 89 -43t20 -105t-61 -105t-106 -43t-89 43t-20 105t61 105t106 43zM1138 1308q58 0 250 16q7 -26 -4 -50q-10 -24 -14 -24q-43 0 -91 -19q-49 -19 -78 -49t-51 -144
l-90 -456q-56 -292 -218 -442t-378 -150t-326 144q-109 144 -50 488l82 422q22 136 16 154t-46 35t-60 17q-6 0 0 35t10 39q252 -12 277 -12t253 12v-36q-6 -38 -16 -38q-16 0 -70 -17t-60 -31q-26 -58 -46 -170l-92 -474q-36 -184 20 -296t186 -112t240 92t158 330l92 476
q0 2 4 23q18 92 2 118q-16 25 -65 43t-71 18q-10 3 -3 37q7 33 13 37q168 -16 226 -16z" />
    <glyph glyph-name="Yacute" unicode="&#xdd;" horiz-adv-x="1180" 
d="M381 1430q-25 0 -34 14t-9 22t36 42q167 158 250 158q48 0 94 -18t46 -56t-179 -100t-204 -62zM570 1304q0 -16 -6 -35t-10 -19q-28 0 -66 -11t-42 -31t6 -44l126 -358q280 356 290 400q4 20 -25 32t-85 12q-4 0 -4 30t16 44q168 -12 221 -12t215 12q0 -72 -16 -72
q-96 0 -174 -88q-46 -52 -232 -291t-190 -265l-62 -318q-22 -104 -18 -174q0 -14 44 -32t60 -18q6 0 0 -34t-10 -40l-256 16q-80 0 -272 -16q-6 12 -1 43t13 31q20 0 71 17t61 33q22 54 46 162l66 340q5 33 -108 348l-36 108q-38 120 -64 139q-51 37 -102 37q-4 0 -4 30
t20 44l260 -12q38 0 266 12q2 -4 2 -20z" />
    <glyph glyph-name="Thorn" unicode="&#xde;" horiz-adv-x="1074" 
d="M566 384q82 0 141 114t59 244q0 196 -102 196q-118 0 -134 -78l-78 -404l-2 -22q0 -50 116 -50zM-22 27q0 33 12 33q98 0 123 53t43 157l152 780q18 134 18 143q0 25 -39 44t-59 19q-11 4 10 68q252 -12 266 -12t242 12q0 -68 -15 -68t-64 -17t-55 -31q-16 -36 -31 -97
t-15 -72t3 -11t39 6t100 6q150 0 246 -90t96 -212q0 -234 -153 -345t-337 -111l-132 8q-6 0 -6 -4q-4 -8 -13 -54t-9 -108v-14q2 -14 41 -32t53 -18q6 -4 1 -32t-9 -36l-244 16q-38 0 -262 -16q-2 2 -2 35z" />
    <glyph glyph-name="germandbls" unicode="&#xdf;" horiz-adv-x="1074" 
d="M596 260q40 0 65 -24t35 -53q27 -77 86 -77q24 0 42 16t27 48t9 64t-14 59t-30 43t-48 43q-51 43 -100 97q-48 54 -48 138t30 127t51 67t89 82q92 88 116 208q34 186 -132 186q-96 0 -144 -147q-22 -68 -46 -187l-176 -908q-44 -226 -164 -352t-310 -126q-72 0 -122 25
t-58 53q-2 70 25 132t86 62t82 -81q24 -81 69 -81q63 0 97 105t55 223l140 722v6q2 6 2 10t-8 4h-118q-12 0 -12 21t38 58t78 37h34q12 0 18 32q40 202 198 351t318 149q126 0 210 -72t63 -185t-77 -164q-56 -50 -108 -79q-52 -30 -73 -46q-55 -42 -55 -131t118 -173
q56 -36 102 -104t46 -140q0 -108 -91 -210t-206 -102t-197 29t-92 57q0 188 100 188z" />
    <glyph glyph-name="agrave" unicode="&#xe0;" horiz-adv-x="924" 
d="M692 964q-34 0 -176 81t-142 131q0 28 33 58t64 30t41 -6q42 -40 125 -138t83 -110t-10 -29t-18 -17zM520 770q-50 0 -103 -61t-86 -147q-69 -180 -69 -303t63 -123t127 139t96 301l36 180q-14 14 -64 14zM646 898q64 0 115 -14t73 -30l-116 -598q-4 -12 -4 -53t20 -41
q28 0 78 42t68 64q4 0 21 -20t17 -28q-22 -54 -143 -145t-205 -91q-46 0 -76 29t-30 79v26q2 24 4 34q-94 -168 -211 -168t-179 82t-62 199t49 226t130 200t201 149t250 58z" />
    <glyph glyph-name="aacute" unicode="&#xe1;" horiz-adv-x="924" 
d="M530 964q-8 0 -18 17t-10 29t83 110t125 138q8 6 40 6t65 -30t33 -58q0 -50 -142 -131t-176 -81zM520 770q-50 0 -103 -61t-86 -147q-69 -180 -69 -303t63 -123t127 139t96 301l36 180q-14 14 -64 14zM646 898q64 0 115 -14t73 -30l-116 -598q-4 -12 -4 -53t20 -41
q28 0 78 42t68 64q4 0 21 -20t17 -28q-22 -54 -143 -145t-205 -91q-46 0 -76 29t-30 79v26q2 24 4 34q-94 -168 -211 -168t-179 82t-62 199t49 226t130 200t201 149t250 58z" />
    <glyph glyph-name="acircumflex" unicode="&#xe2;" horiz-adv-x="924" 
d="M789 1020q-15 0 -78 55t-97 93q-52 -40 -135 -94t-98 -54t-5 46q40 34 118 120t110 128t44 42t17 -11q89 -195 149 -279q-10 -46 -25 -46zM520 770q-50 0 -103 -61t-86 -147q-69 -180 -69 -303t63 -123t127 139t96 301l36 180q-14 14 -64 14zM646 898q64 0 115 -14
t73 -30l-116 -598q-4 -12 -4 -53t20 -41q28 0 78 42t68 64q4 0 21 -20t17 -28q-22 -54 -143 -145t-205 -91q-46 0 -76 29t-30 79v26q2 24 4 34q-94 -168 -211 -168t-179 82t-62 199t49 226t130 200t201 149t250 58z" />
    <glyph glyph-name="atilde" unicode="&#xe3;" horiz-adv-x="924" 
d="M492 1258q58 0 135 -61t135 -61q30 0 78 49t50 49q12 -6 12 -36t-69 -104t-129 -74t-136 60t-136 60q-26 0 -76 -51t-58 -51t-8 44t72 110t130 66zM520 770q-50 0 -103 -61t-86 -147q-69 -180 -69 -303t63 -123t127 139t96 301l36 180q-14 14 -64 14zM646 898
q64 0 115 -14t73 -30l-116 -598q-4 -12 -4 -53t20 -41q28 0 78 42t68 64q4 0 21 -20t17 -28q-22 -54 -143 -145t-205 -91q-46 0 -76 29t-30 79v26q2 24 4 34q-94 -168 -211 -168t-179 82t-62 199t49 226t130 200t201 149t250 58z" />
    <glyph glyph-name="adieresis" unicode="&#xe4;" horiz-adv-x="924" 
d="M386 1318q56 0 89 -36t33 -96t-47 -111t-103 -51t-89 36t-33 95t47 111t103 52zM826 1314q56 0 89 -36t33 -95t-47 -111t-103 -52t-89 36t-33 96t47 111t103 51zM520 770q-50 0 -103 -61t-86 -147q-69 -180 -69 -303t63 -123t127 139t96 301l36 180q-14 14 -64 14z
M646 898q64 0 115 -14t73 -30l-116 -598q-4 -12 -4 -53t20 -41q28 0 78 42t68 64q4 0 21 -20t17 -28q-22 -54 -143 -145t-205 -91q-46 0 -76 29t-30 79v26q2 24 4 34q-94 -168 -211 -168t-179 82t-62 199t49 226t130 200t201 149t250 58z" />
    <glyph glyph-name="aring" unicode="&#xe5;" horiz-adv-x="924" 
d="M671 1414q75 0 116 -45t41 -125t-71 -152t-146 -72t-116 45t-41 126t71 152t146 71zM742 1237q0 89 -86 89q-46 0 -81 -42t-35 -85q0 -89 80 -89q52 0 87 42t35 85zM520 770q-50 0 -103 -61t-86 -147q-69 -180 -69 -303t63 -123t127 139t96 301l36 180q-14 14 -64 14z
M646 898q64 0 115 -14t73 -30l-116 -598q-4 -12 -4 -53t20 -41q28 0 78 42t68 64q4 0 21 -20t17 -28q-22 -54 -143 -145t-205 -91q-46 0 -76 29t-30 79v26q2 24 4 34q-94 -168 -211 -168t-179 82t-62 199t49 226t130 200t201 149t250 58z" />
    <glyph glyph-name="ae" unicode="&#xe6;" horiz-adv-x="1242" 
d="M944 788q-36 0 -80 -33t-75 -98t-31 -143q0 -8 8 -8q98 0 162 65t64 141t-48 76zM278 209q0 -33 22 -54t57 -21t67 24t40 62l28 154q-8 -2 -40 -9t-44 -10t-39 -12t-38 -19t-26 -25t-21 -36t-6 -54zM970 898q116 0 183 -52t67 -144t-97 -167t-199 -105t-168 -30
q-8 0 -8 -20q0 -140 49 -202t110 -62t149 103q30 35 34 35q6 -2 19 -27t13 -31q-18 -48 -110 -129t-202 -81q-170 0 -254 136q-86 -138 -264 -138q-116 0 -184 62t-68 142t32 128t89 75t111 43t124 31t102 25q16 6 20 28l18 96q6 36 6 70q0 94 -52 94q-44 0 -89 -47
t-57 -119q-4 -20 -39 -38t-73 -18q-86 0 -86 78q0 90 133 177t265 87t188 -86q122 86 238 86z" />
    <glyph glyph-name="ccedilla" unicode="&#xe7;" horiz-adv-x="742" 
d="M514 898q134 0 214 -90q14 -42 14 -79t-26 -73t-64 -36t-60 26t-31 58q-24 84 -78 84q-55 0 -105 -72t-79 -176t-29 -202q0 -202 128 -202q60 0 120 43t82 73q4 0 21 -20t17 -28q-24 -56 -125 -132t-188 -83l-37 -53q26 2 56 2t57 -29t27 -62t-12 -64t-38 -66t-79 -59
t-129 -24t-102 16q-10 22 -10 46t15 40t31 16t46 -21t67 -21t64 26t27 58q0 50 -42 50q-34 0 -68 -14q-4 0 -17 15t-4 27t37 56t41 63q-109 13 -173 92t-64 228t68 286t181 219t247 82z" />
    <glyph glyph-name="egrave" unicode="&#xe8;" horiz-adv-x="786" 
d="M586 964q-34 0 -176 81t-142 131q0 28 33 58t64 30t41 -6q42 -40 125 -138t83 -110t-10 -29t-18 -17zM530 710q0 80 -50 80t-119 -109t-69 -215q0 -8 8 -8q94 0 162 86t68 166zM492 898q114 0 190 -50t76 -130t-60 -150t-142 -114t-159 -70t-119 -26q-8 0 -8 -20
q0 -118 35 -160t94 -42t119 43t82 73q4 0 21 -20t17 -28q-24 -56 -130 -136t-200 -80q-144 0 -217 85t-73 235t67 286t180 220t227 84z" />
    <glyph glyph-name="eacute" unicode="&#xe9;" horiz-adv-x="786" 
d="M544 964q-8 0 -18 17t-10 29t83 110t125 138q8 6 40 6t65 -30t33 -58q0 -50 -142 -131t-176 -81zM530 710q0 80 -50 80t-119 -109t-69 -215q0 -8 8 -8q94 0 162 86t68 166zM492 898q114 0 190 -50t76 -130t-60 -150t-142 -114t-159 -70t-119 -26q-8 0 -8 -20
q0 -118 35 -160t94 -42t119 43t82 73q4 0 21 -20t17 -28q-24 -56 -130 -136t-200 -80q-144 0 -217 85t-73 235t67 286t180 220t227 84z" />
    <glyph glyph-name="ecircumflex" unicode="&#xea;" horiz-adv-x="786" 
d="M705 1020q-15 0 -78 55t-97 93q-52 -40 -135 -94t-98 -54t-5 46q40 34 118 120t110 128t44 42t17 -11q89 -195 149 -279q-10 -46 -25 -46zM530 710q0 80 -50 80t-119 -109t-69 -215q0 -8 8 -8q94 0 162 86t68 166zM492 898q114 0 190 -50t76 -130t-60 -150t-142 -114
t-159 -70t-119 -26q-8 0 -8 -20q0 -118 35 -160t94 -42t119 43t82 73q4 0 21 -20t17 -28q-24 -56 -130 -136t-200 -80q-144 0 -217 85t-73 235t67 286t180 220t227 84z" />
    <glyph glyph-name="edieresis" unicode="&#xeb;" horiz-adv-x="786" 
d="M358 1318q56 0 89 -36t33 -96t-47 -111t-103 -51t-89 36t-33 95t47 111t103 52zM798 1314q56 0 89 -36t33 -95t-47 -111t-103 -52t-89 36t-33 96t47 111t103 51zM530 710q0 80 -50 80t-119 -109t-69 -215q0 -8 8 -8q94 0 162 86t68 166zM492 898q114 0 190 -50t76 -130
t-60 -150t-142 -114t-159 -70t-119 -26q-8 0 -8 -20q0 -118 35 -160t94 -42t119 43t82 73q4 0 21 -20t17 -28q-24 -56 -130 -136t-200 -80q-144 0 -217 85t-73 235t67 286t180 220t227 84z" />
    <glyph glyph-name="igrave" unicode="&#xec;" horiz-adv-x="628" 
d="M438 964q-34 0 -176 81t-142 131q0 28 33 58t64 30t41 -6q42 -40 125 -138t83 -110t-10 -29t-18 -17zM326 898q60 0 105 -45t45 -147q0 -50 -42 -256t-42 -226q0 -60 40 -60q14 0 39 28t43 57t20 29q12 0 34 -19t28 -39q-30 -74 -108 -156t-184 -82q-66 0 -108 49
t-42 143q0 14 10 74l70 376q4 12 4 32q0 60 -40 60q-14 0 -39 -28t-43 -57t-20 -29q-12 0 -34 19t-28 39q30 74 108 156t184 82z" />
    <glyph glyph-name="iacute" unicode="&#xed;" horiz-adv-x="628" 
d="M318 964q-8 0 -18 17t-10 29t83 110t125 138q8 6 40 6t65 -30t33 -58q0 -50 -142 -131t-176 -81zM326 898q60 0 105 -45t45 -147q0 -50 -42 -256t-42 -226q0 -60 40 -60q14 0 39 28t43 57t20 29q12 0 34 -19t28 -39q-30 -74 -108 -156t-184 -82q-66 0 -108 49t-42 143
q0 14 10 74l70 376q4 12 4 32q0 60 -40 60q-14 0 -39 -28t-43 -57t-20 -29q-12 0 -34 19t-28 39q30 74 108 156t184 82z" />
    <glyph glyph-name="icircumflex" unicode="&#xee;" horiz-adv-x="628" 
d="M559 1020q-15 0 -78 55t-97 93q-52 -40 -135 -94t-98 -54t-5 46q40 34 118 120t110 128t44 42t17 -11q89 -195 149 -279q-10 -46 -25 -46zM326 898q60 0 105 -45t45 -147q0 -50 -42 -256t-42 -226q0 -60 40 -60q14 0 39 28t43 57t20 29q12 0 34 -19t28 -39
q-30 -74 -108 -156t-184 -82q-66 0 -108 49t-42 143q0 14 10 74l70 376q4 12 4 32q0 60 -40 60q-14 0 -39 -28t-43 -57t-20 -29q-12 0 -34 19t-28 39q30 74 108 156t184 82z" />
    <glyph glyph-name="idieresis" unicode="&#xef;" horiz-adv-x="628" 
d="M220 1318q56 0 89 -36t33 -96t-47 -111t-103 -51t-89 36t-33 95t47 111t103 52zM604 1314q56 0 89 -36t33 -95t-47 -111t-103 -52t-89 36t-33 96t47 111t103 51zM326 898q60 0 105 -45t45 -147q0 -50 -42 -256t-42 -226q0 -60 40 -60q14 0 39 28t43 57t20 29q12 0 34 -19
t28 -39q-30 -74 -108 -156t-184 -82q-66 0 -108 49t-42 143q0 14 10 74l70 376q4 12 4 32q0 60 -40 60q-14 0 -39 -28t-43 -57t-20 -29q-12 0 -34 19t-28 39q30 74 108 156t184 82z" />
    <glyph glyph-name="eth" unicode="&#xf0;" horiz-adv-x="862" 
d="M470 798q60 0 112 -26q10 0 10 46q0 162 -116 320l-184 -206q-18 0 -43 23t-25 33t4 14l186 208q-66 66 -140 106q0 22 14 46t34 28q92 -50 160 -102l186 212q6 6 36 -20t30 -35t-6 -19l-174 -200q274 -256 274 -608q0 -152 -47 -277t-122 -199q-156 -154 -327 -154
q-126 0 -209 97t-83 237q0 184 137 330t293 146zM514 684q-94 0 -166 -136t-72 -336q0 -112 78 -112q138 0 198 314q30 162 30 201t-21 54t-47 15z" />
    <glyph glyph-name="ntilde" unicode="&#xf1;" horiz-adv-x="1026" 
d="M470 1258q58 0 135 -61t135 -61q30 0 78 49t50 49q12 -6 12 -36t-69 -104t-129 -74t-136 60t-136 60q-26 0 -76 -51t-58 -51t-8 44t72 110t130 66zM352 898q46 0 76 -29t30 -69q0 -68 -10 -118t-14 -78q52 106 136 200t161 94t119 -62t42 -133t-32 -237l-40 -210
q-4 -12 -4 -53t20 -41q28 0 79 42t67 64q6 0 22 -20t16 -28q-22 -54 -143 -145t-205 -91q-44 0 -75 29t-31 86t20 147l46 238q20 100 20 129q0 69 -58 69q-50 0 -130 -170t-108 -302l-42 -210q-40 -12 -111 -12t-119 12l120 626q4 20 4 57t-20 37q-28 0 -79 -42t-67 -64
q-4 0 -21 20t-17 28q22 54 143 145t205 91z" />
    <glyph glyph-name="ograve" unicode="&#xf2;" horiz-adv-x="814" 
d="M594 964q-34 0 -176 81t-142 131q0 28 33 58t64 30t41 -6q42 -40 125 -138t83 -110t-10 -29t-18 -17zM512 898q142 0 212 -89t70 -236t-64 -282t-176 -219t-255 -84t-212 89t-69 230t63 276t176 225t255 90zM482 792q-60 0 -111 -93t-79 -225t-25 -256t65 -124t114 101
t77 230t22 248t-63 119z" />
    <glyph glyph-name="oacute" unicode="&#xf3;" horiz-adv-x="814" 
d="M462 964q-8 0 -18 17t-10 29t83 110t125 138q8 6 40 6t65 -30t33 -58q0 -50 -142 -131t-176 -81zM512 898q142 0 212 -89t70 -236t-64 -282t-176 -219t-255 -84t-212 89t-69 230t63 276t176 225t255 90zM482 792q-60 0 -111 -93t-79 -225t-25 -256t65 -124t114 101
t77 230t22 248t-63 119z" />
    <glyph glyph-name="ocircumflex" unicode="&#xf4;" horiz-adv-x="814" 
d="M745 1020q-15 0 -78 55t-97 93q-52 -40 -135 -94t-98 -54t-5 46q40 34 118 120t110 128t44 42t17 -11q89 -195 149 -279q-10 -46 -25 -46zM512 898q142 0 212 -89t70 -236t-64 -282t-176 -219t-255 -84t-212 89t-69 230t63 276t176 225t255 90zM482 792q-60 0 -111 -93
t-79 -225t-25 -256t65 -124t114 101t77 230t22 248t-63 119z" />
    <glyph glyph-name="otilde" unicode="&#xf5;" horiz-adv-x="814" 
d="M460 1258q58 0 135 -61t135 -61q30 0 78 49t50 49q12 -6 12 -36t-69 -104t-129 -74t-136 60t-136 60q-26 0 -76 -51t-58 -51t-8 44t72 110t130 66zM512 898q142 0 212 -89t70 -236t-64 -282t-176 -219t-255 -84t-212 89t-69 230t63 276t176 225t255 90zM482 792
q-60 0 -111 -93t-79 -225t-25 -256t65 -124t114 101t77 230t22 248t-63 119z" />
    <glyph glyph-name="odieresis" unicode="&#xf6;" horiz-adv-x="814" 
d="M350 1318q56 0 89 -36t33 -96t-47 -111t-103 -51t-89 36t-33 95t47 111t103 52zM790 1314q56 0 89 -36t33 -95t-47 -111t-103 -52t-89 36t-33 96t47 111t103 51zM512 898q142 0 212 -89t70 -236t-64 -282t-176 -219t-255 -84t-212 89t-69 230t63 276t176 225t255 90z
M482 792q-60 0 -111 -93t-79 -225t-25 -256t65 -124t114 101t77 230t22 248t-63 119z" />
    <glyph glyph-name="divide" unicode="&#xf7;" horiz-adv-x="928" 
d="M910 570q8 0 8 -46t-52 -98h-850q-8 0 -8 46t52 98h850zM397 252q49 0 77 -30t28 -81t-40 -96t-89 -45t-77 31t-28 82t40 95t89 44zM541 996q49 0 77 -30t28 -81t-40 -96t-89 -45t-77 31t-28 82t40 95t89 44z" />
    <glyph glyph-name="oslash" unicode="&#xf8;" horiz-adv-x="878" 
d="M552 898q70 0 132 -36l24 36q14 4 44 -13t30 -33q0 -8 -2 -10l-26 -38q90 -102 90 -244q0 -232 -143 -403t-355 -171q-82 0 -142 42l-32 -44q-16 -2 -44 11t-28 25t4 16l36 50q-86 106 -86 248q0 228 143 396t355 168zM510 778q-78 0 -148 -148t-70 -320v-6l288 412
q-24 62 -70 62zM388 106q84 0 150 146t66 322v20l-292 -414q28 -74 76 -74z" />
    <glyph glyph-name="ugrave" unicode="&#xf9;" horiz-adv-x="1026" 
d="M568 964q-34 0 -176 81t-142 131q0 28 33 58t64 30t41 -6q42 -40 125 -138t83 -110t-10 -29t-18 -17zM350 898q46 0 76 -29t30 -86t-20 -147l-46 -238q-20 -80 -20 -119q0 -79 58 -79q50 0 131 170t107 302l42 210q40 12 111 12t119 -12l-120 -626q-4 -20 -4 -57t20 -37
q28 0 79 42t67 64q6 0 22 -20t16 -28q-22 -54 -143 -145t-205 -91q-44 0 -75 29t-31 73q0 64 10 114t14 78q-52 -106 -136 -200t-161 -94t-119 62t-42 133t32 237l40 210q4 12 4 53t-20 41q-28 0 -79 -42t-67 -64q-4 0 -21 20t-17 28q22 54 143 145t205 91z" />
    <glyph glyph-name="uacute" unicode="&#xfa;" horiz-adv-x="1026" 
d="M514 964q-8 0 -18 17t-10 29t83 110t125 138q8 6 40 6t65 -30t33 -58q0 -50 -142 -131t-176 -81zM350 898q46 0 76 -29t30 -86t-20 -147l-46 -238q-20 -80 -20 -119q0 -79 58 -79q50 0 131 170t107 302l42 210q40 12 111 12t119 -12l-120 -626q-4 -20 -4 -57t20 -37
q28 0 79 42t67 64q6 0 22 -20t16 -28q-22 -54 -143 -145t-205 -91q-44 0 -75 29t-31 73q0 64 10 114t14 78q-52 -106 -136 -200t-161 -94t-119 62t-42 133t32 237l40 210q4 12 4 53t-20 41q-28 0 -79 -42t-67 -64q-4 0 -21 20t-17 28q22 54 143 145t205 91z" />
    <glyph glyph-name="ucircumflex" unicode="&#xfb;" horiz-adv-x="1026" 
d="M773 1020q-15 0 -78 55t-97 93q-52 -40 -135 -94t-98 -54t-5 46q40 34 118 120t110 128t44 42t17 -11q89 -195 149 -279q-10 -46 -25 -46zM350 898q46 0 76 -29t30 -86t-20 -147l-46 -238q-20 -80 -20 -119q0 -79 58 -79q50 0 131 170t107 302l42 210q40 12 111 12
t119 -12l-120 -626q-4 -20 -4 -57t20 -37q28 0 79 42t67 64q6 0 22 -20t16 -28q-22 -54 -143 -145t-205 -91q-44 0 -75 29t-31 73q0 64 10 114t14 78q-52 -106 -136 -200t-161 -94t-119 62t-42 133t32 237l40 210q4 12 4 53t-20 41q-28 0 -79 -42t-67 -64q-4 0 -21 20
t-17 28q22 54 143 145t205 91z" />
    <glyph glyph-name="udieresis" unicode="&#xfc;" horiz-adv-x="1026" 
d="M376 1318q56 0 89 -36t33 -96t-47 -111t-103 -51t-89 36t-33 95t47 111t103 52zM816 1314q56 0 89 -36t33 -95t-47 -111t-103 -52t-89 36t-33 96t47 111t103 51zM350 898q46 0 76 -29t30 -86t-20 -147l-46 -238q-20 -80 -20 -119q0 -79 58 -79q50 0 131 170t107 302
l42 210q40 12 111 12t119 -12l-120 -626q-4 -20 -4 -57t20 -37q28 0 79 42t67 64q6 0 22 -20t16 -28q-22 -54 -143 -145t-205 -91q-44 0 -75 29t-31 73q0 64 10 114t14 78q-52 -106 -136 -200t-161 -94t-119 62t-42 133t32 237l40 210q4 12 4 53t-20 41q-28 0 -79 -42
t-67 -64q-4 0 -21 20t-17 28q22 54 143 145t205 91z" />
    <glyph glyph-name="yacute" unicode="&#xfd;" horiz-adv-x="1018" 
d="M598 964q-8 0 -18 17t-10 29t83 110t125 138q8 6 40 6t65 -30t33 -58q0 -50 -142 -131t-176 -81zM88 -436q-120 0 -120 106q0 50 36 90q88 -24 152 -24t113 17t71 36t46 49q42 54 42 173t-28 297t-78 356q-16 56 -46 56t-81 -42t-67 -64q-6 0 -22 20t-16 28
q22 54 143 145t204 91t150 -259q45 -177 66 -413q3 -34 6 -64l3 -30q32 40 101 181t69 214t-24 142t-48 109q0 46 40 83t88 37t81 -32t33 -78q0 -172 -64 -355t-166 -334t-222 -274t-243 -192t-219 -69z" />
    <glyph glyph-name="thorn" unicode="&#xfe;" horiz-adv-x="900" 
d="M584 710q-62 0 -97 -32t-51 -114l-66 -338q-10 -52 6 -82q18 -40 76 -40t107 42q95 81 127 254q62 310 -102 310zM354 -438q-160 16 -220 16t-236 -16l12 68q18 0 62 18t50 32q30 76 40 150l240 1234q18 102 18 140t-82 38h-16q-16 0 -5 31t17 31q117 13 193 35t163 51h4
q14 0 14 -38q-38 -96 -83 -329t-48 -245t1 -15t21 13t76 47t103 31q148 0 226 -118t46 -278q-40 -212 -186 -338t-330 -126q-40 0 -68 10t-32 10t-10 -32l-24 -120q-24 -118 -22 -182q0 -14 36 -32t50 -18q6 -2 1 -30t-11 -38z" />
    <glyph glyph-name="ydieresis" unicode="&#xff;" horiz-adv-x="1018" 
d="M464 1318q56 0 89 -36t33 -96t-47 -111t-103 -51t-89 36t-33 95t47 111t103 52zM904 1314q56 0 89 -36t33 -95t-47 -111t-103 -52t-89 36t-33 96t47 111t103 51zM88 -436q-120 0 -120 106q0 50 36 90q88 -24 152 -24t113 17t71 36t46 49q42 54 42 173t-28 297t-78 356
q-16 56 -46 56t-81 -42t-67 -64q-6 0 -22 20t-16 28q22 54 143 145t204 91t150 -259q45 -177 66 -413q3 -34 6 -64l3 -30q32 40 101 181t69 214t-24 142t-48 109q0 46 40 83t88 37t81 -32t33 -78q0 -172 -64 -355t-166 -334t-222 -274t-243 -192t-219 -69z" />
    <glyph glyph-name="Amacron" unicode="&#x100;" horiz-adv-x="1268" 
d="M658 1594h534q24 0 -14 -93q-12 -29 -28 -45h-539q-1 0 -4 5t1 17q26 116 50 116zM627 546q79 0 137 4q8 0 8 10l-64 356l-216 -356q-2 -2 -1 -5t29 -6t107 -3zM716 27q0 33 16 33t52 17q60 28 60 61q0 18 -44 276q0 8 -12 8q-72 4 -179 4t-152 -1t-55 -11l-90 -152
q-66 -98 -66 -132t51 -52t79 -18q4 0 4 -24t-10 -44q-168 14 -204 14t-232 -14q-2 4 -2 36t10 32q20 0 86 29t84 54t78 125l544 904q24 48 58 94t48 57t29 11t21 -16l210 -1036q8 -52 28 -150q6 -32 52 -52t68 -20q4 0 4 -25t-14 -43l-244 14q-38 0 -276 -14q-2 2 -2 35z
" />
    <glyph glyph-name="amacron" unicode="&#x101;" horiz-adv-x="924" 
d="M396 1158h462q14 0 8 -20q-17 -73 -50 -118h-467q-1 0 -4 5t1 17q26 116 50 116zM520 770q-50 0 -103 -61t-86 -147q-69 -180 -69 -303t63 -123t127 139t96 301l36 180q-14 14 -64 14zM646 898q64 0 115 -14t73 -30l-116 -598q-4 -12 -4 -53t20 -41q28 0 78 42t68 64
q4 0 21 -20t17 -28q-22 -54 -143 -145t-205 -91q-46 0 -76 29t-30 79v26q2 24 4 34q-94 -168 -211 -168t-179 82t-62 199t49 226t130 200t201 149t250 58z" />
    <glyph glyph-name="Abreve" unicode="&#x102;" horiz-adv-x="1268" 
d="M914 1576q40 0 90 29t67 50t24 17t21 -26t11 -28t-5 -11t-4 -7q-108 -144 -228 -144t-172 144q-2 4 -2 14t27 37t35 17q16 -34 56 -63t80 -29zM627 546q79 0 137 4q8 0 8 10l-64 356l-216 -356q-2 -2 -1 -5t29 -6t107 -3zM716 27q0 33 16 33t52 17q60 28 60 61
q0 18 -44 276q0 8 -12 8q-72 4 -179 4t-152 -1t-55 -11l-90 -152q-66 -98 -66 -132t51 -52t79 -18q4 0 4 -24t-10 -44q-168 14 -204 14t-232 -14q-2 4 -2 36t10 32q20 0 86 29t84 54t78 125l544 904q24 48 58 94t48 57t29 11t21 -16l210 -1036q8 -52 28 -150q6 -32 52 -52
t68 -20q4 0 4 -25t-14 -43l-244 14q-38 0 -276 -14q-2 2 -2 35z" />
    <glyph glyph-name="abreve" unicode="&#x103;" horiz-adv-x="924" 
d="M635 1140q45 0 91 31t72 85q4 6 11 6t27 -17t19 -23t-7 -18q-38 -82 -101 -133t-136 -51t-123 52t-56 132v14q2 10 29 27t35 17t8 -6q4 -54 45 -85t86 -31zM520 770q-50 0 -103 -61t-86 -147q-69 -180 -69 -303t63 -123t127 139t96 301l36 180q-14 14 -64 14zM646 898
q64 0 115 -14t73 -30l-116 -598q-4 -12 -4 -53t20 -41q28 0 78 42t68 64q4 0 21 -20t17 -28q-22 -54 -143 -145t-205 -91q-46 0 -76 29t-30 79v26q2 24 4 34q-94 -168 -211 -168t-179 82t-62 199t49 226t130 200t201 149t250 58z" />
    <glyph glyph-name="Aogonek" unicode="&#x104;" horiz-adv-x="1354" 
d="M-14 28q0 32 10 32q20 0 86 29t84 54t78 125l544 904q19 38 40 66q20 28 44 62t45 34t27 -16l210 -1036q8 -52 28 -150q6 -32 52 -52t68 -20q4 0 4 -25t-14 -43l-244 14q-106 0 -199 -83t-93 -163q0 -18 14 -33t49 -15t70 14t55 27t26 12t-1 -32t-13 -37
q-44 -50 -112 -89t-120 -39t-86 34t-34 97t70 150t210 221q32 32 32 59t-44 285q0 8 -12 8q-72 4 -188 4t-182 -2q-10 0 -16 -10l-90 -152q-66 -98 -66 -132t51 -52t79 -18q4 0 4 -24t-10 -44l-218 14q-40 0 -236 -14q-2 4 -2 36zM699 546q79 0 137 4q8 0 8 10l-64 356
l-216 -356q-2 -2 -1 -5t29 -6t107 -3z" />
    <glyph glyph-name="aogonek" unicode="&#x105;" horiz-adv-x="980" 
d="M628 898q66 0 133 -15t87 -29l-112 -596q-6 -30 -6 -42q0 -52 40 -52q14 0 39 28t43 57t20 29q12 0 34 -19t28 -39q-38 -95 -214 -249q-109 -95 -130 -152q-10 -27 -10 -55q0 -52 62 -52t126 41q20 13 26 12t-1 -32t-13 -37q-44 -50 -112 -89t-120 -39t-86 33t-34 85
q0 124 164 304q-62 18 -92 106q-8 28 -8 40t-2 12l-73 -77q-27 -27 -81 -57t-106 -30q-106 0 -151 54t-45 170t91 281t233 287t270 122zM590 740q0 34 -42 34t-107 -92t-113 -216t-48 -227t48 -103q62 0 135 129t93 257l28 170q6 24 6 48z" />
    <glyph glyph-name="Cacute" unicode="&#x106;" horiz-adv-x="1174" 
d="M785 1430q-25 0 -34 14t-9 22t36 42q167 158 250 158q48 0 94 -18t46 -56t-179 -100t-204 -62zM782 1334q204 0 414 -58q0 -24 -9 -153t-12 -143q-6 -30 -55 -30q-4 0 -28 6q-5 64 -33 115q-85 151 -282 151q-135 0 -241 -100t-165 -267t-59 -354t75 -297t223 -110
q84 0 166 20t122 48t70 71t45 73t17 30q52 0 58 -26q-6 -28 -35 -118t-45 -104q-114 -102 -394 -102t-436 151t-156 381q0 164 69 318t178 261t245 172t268 65z" />
    <glyph glyph-name="cacute" unicode="&#x107;" horiz-adv-x="742" 
d="M458 964q-8 0 -18 17t-10 29t83 110t125 138q8 6 40 6t65 -30t33 -58q0 -50 -142 -131t-176 -81zM514 898q134 0 214 -90q14 -42 14 -79t-26 -73t-64 -36t-60 26t-31 58q-24 84 -78 84q-55 0 -105 -72t-79 -176t-29 -202q0 -202 128 -202q60 0 120 43t82 73q4 0 21 -20
t17 -28q-24 -56 -130 -136t-200 -80q-148 0 -219 87t-71 236t68 286t181 219t247 82z" />
    <glyph glyph-name="Ccircumflex" unicode="&#x108;" horiz-adv-x="1174" 
d="M1088 1456q-18 0 -99 45t-127 79q-62 -34 -162 -79t-116 -45q-24 0 -14 38q64 38 159 112t125 103t40 29q14 0 55 -54l39 -52q80 -96 128 -138q-10 -38 -28 -38zM782 1334q204 0 414 -58q0 -24 -9 -153t-12 -143q-6 -30 -55 -30q-4 0 -28 6q-5 64 -33 115
q-85 151 -282 151q-135 0 -241 -100t-165 -267t-59 -354t75 -297t223 -110q84 0 166 20t122 48t70 71t45 73t17 30q52 0 58 -26q-6 -28 -35 -118t-45 -104q-114 -102 -394 -102t-436 151t-156 381q0 164 69 318t178 261t245 172t268 65z" />
    <glyph glyph-name="ccircumflex" unicode="&#x109;" horiz-adv-x="742" 
d="M729 1020q-15 0 -78 55t-97 93q-52 -40 -135 -94t-98 -54t-5 46q40 34 118 120t110 128t44 42t17 -11q89 -195 149 -279q-10 -46 -25 -46zM514 898q134 0 214 -90q14 -42 14 -79t-26 -73t-64 -36t-60 26t-31 58q-24 84 -78 84q-55 0 -105 -72t-79 -176t-29 -202
q0 -202 128 -202q60 0 120 43t82 73q4 0 21 -20t17 -28q-24 -56 -130 -136t-200 -80q-148 0 -219 87t-71 236t68 286t181 219t247 82z" />
    <glyph glyph-name="Cdotaccent" unicode="&#x10a;" horiz-adv-x="1174" 
d="M865 1752q57 0 89 -43t20 -105t-61 -105t-106 -43t-89 43t-20 105t61 105t106 43zM782 1334q204 0 414 -58q0 -24 -9 -153t-12 -143q-6 -30 -55 -30q-4 0 -28 6q-5 64 -33 115q-85 151 -282 151q-135 0 -241 -100t-165 -267t-59 -354t75 -297t223 -110q84 0 166 20
t122 48t70 71t45 73t17 30q52 0 58 -26q-6 -28 -35 -118t-45 -104q-114 -102 -394 -102t-436 151t-156 381q0 164 69 318t178 261t245 172t268 65z" />
    <glyph glyph-name="cdotaccent" unicode="&#x10b;" horiz-adv-x="742" 
d="M550 1374q58 0 90 -42t20 -104t-61 -105t-106 -43t-89 43t-20 105t60 104t106 42zM514 898q134 0 214 -90q14 -42 14 -79t-26 -73t-64 -36t-60 26t-31 58q-24 84 -78 84q-55 0 -105 -72t-79 -176t-29 -202q0 -202 128 -202q60 0 120 43t82 73q4 0 21 -20t17 -28
q-24 -56 -130 -136t-200 -80q-148 0 -219 87t-71 236t68 286t181 219t247 82z" />
    <glyph glyph-name="Ccaron" unicode="&#x10c;" horiz-adv-x="1174" 
d="M1084 1738q22 0 12 -38q-48 -32 -168 -140l-92 -86q-22 -18 -33 -18t-26 30t-69 101t-96 113q10 38 26 38t87 -45t113 -79q56 34 143 79t103 45zM782 1334q204 0 414 -58q0 -24 -9 -153t-12 -143q-6 -30 -55 -30q-4 0 -28 6q-5 64 -33 115q-85 151 -282 151
q-135 0 -241 -100t-165 -267t-59 -354t75 -297t223 -110q84 0 166 20t122 48t70 71t45 73t17 30q52 0 58 -26q-6 -28 -35 -118t-45 -104q-114 -102 -394 -102t-436 151t-156 381q0 164 69 318t178 261t245 172t268 65z" />
    <glyph glyph-name="ccaron" unicode="&#x10d;" horiz-adv-x="742" 
d="M796 1356q16 0 6 -46q-93 -80 -180 -185t-99 -105q-11 0 -27 44q-45 122 -134 246q10 46 25 46t78 -55t97 -93q52 40 135 94t99 54zM514 898q134 0 214 -90q14 -42 14 -79t-26 -73t-64 -36t-60 26t-31 58q-24 84 -78 84q-55 0 -105 -72t-79 -176t-29 -202
q0 -202 128 -202q60 0 120 43t82 73q4 0 21 -20t17 -28q-24 -56 -130 -136t-200 -80q-148 0 -219 87t-71 236t68 286t181 219t247 82z" />
    <glyph glyph-name="Dcaron" unicode="&#x10e;" horiz-adv-x="1356" 
d="M1060 1738q22 0 12 -38q-48 -32 -168 -140l-92 -86q-22 -18 -33 -18t-26 30t-69 101t-96 113q10 38 26 38t87 -45t113 -79q56 34 143 79t103 45zM804 1206q-164 0 -195 -35t-45 -123l-150 -776q-26 -130 -12 -140q34 -26 198 -26t277 144t169 430q43 202 -16 367
q-26 73 -85 116t-141 43zM-28 9q0 13 5 32t11 19q20 0 64 16t54 34q24 42 50 176l146 756q22 128 20 150t-43 43t-59 21q-4 0 -4 27t14 41q138 -6 262 -6h324q134 0 238 -41t167 -112q127 -143 127 -369t-144 -445t-376 -308q-128 -49 -272 -49l-342 10q-68 0 -142 -6
t-96 -6q-4 4 -4 17z" />
    <glyph glyph-name="dcaron" unicode="&#x10f;" horiz-adv-x="930" 
d="M1042 977q0 7 30 32q90 75 90 137q0 18 -21 50t-21 64q0 130 188 130q6 -18 6 -60q0 -141 -82 -247q-82 -107 -150 -147h-4q-8 0 -22 17t-14 24zM524 770q-58 0 -112 -61t-86 -147q-70 -188 -70 -307t64 -119t126 135t98 305l28 144q4 26 -12 38t-36 12zM660 1206
q0 44 -98 44q-6 0 -6 22t18 40q50 0 165 28t165 50q20 -10 20 -33t-7 -58t-16 -75t-11 -52l-178 -916q-4 -12 -4 -53t20 -41q30 0 80 42t66 64q6 0 22 -20t16 -28q-20 -54 -141 -145t-207 -91q-44 0 -75 29t-31 69t6 70q-96 -168 -212 -168t-179 82t-63 198t44 221t120 193
t187 149t233 69h10l38 186q18 108 18 124z" />
    <glyph glyph-name="Dcroat" unicode="&#x110;" horiz-adv-x="1378" 
d="M0 64q22 0 66 14t54 30q22 52 42 162l56 288h-114l-6 20q30 116 42 122q4 2 8 2h98l66 340q22 122 20 156q-2 16 -41 37t-57 21q-4 0 0 31t14 41q130 -10 254 -10h324q254 0 388 -138q133 -138 139 -318q3 -92 -11 -190q-56 -290 -266 -484t-510 -194l-316 10l-264 -12
q-6 14 1 43t13 29zM768 702q14 0 12 -14q-12 -50 -28 -87t-20 -40t-8 -3h-246l-54 -286q-26 -130 -12 -140q34 -26 198 -26t279 144t171 430q42 220 -20 373t-222 153h-8q-160 0 -191 -35t-45 -123l-68 -346h262z" />
    <glyph glyph-name="dcroat" unicode="&#x111;" horiz-adv-x="1054" 
d="M682 864q4 0 15 55t11 62t-6 7h-200l-6 20q0 2 2 14t6 35t14 45t18 22h194q6 0 11 28t5 54q0 44 -98 44q-6 0 -6 15t7 31t11 16q50 0 181 31t165 47h10q6 0 12 -13t6 -21q-38 -76 -58 -188q-6 -26 -6 -35t6 -9h120q12 0 11 -32t-15 -68t-22 -36h-122q-6 0 -10 -10
l-142 -720q-6 -30 -6 -42q0 -52 40 -52q14 0 39 28t43 57t20 29q12 0 34 -19t28 -39q-30 -74 -108 -156t-178 -82t-142 114q-8 28 -8 36t-4 8l-4 -8q-32 -40 -126 -94t-182 -54t-148 64t-60 188t77 280t208 264t269 110q42 0 66 -13t28 -13zM568 782q-54 0 -116 -80
t-103 -205t-41 -242t48 -117q80 0 153 118t103 238l24 88q12 42 12 80q0 120 -80 120z" />
    <glyph glyph-name="Emacron" unicode="&#x112;" horiz-adv-x="1084" 
d="M456 1594h534q24 0 -14 -93q-12 -29 -28 -45h-539q-1 0 -4 5t1 17q26 116 50 116zM-28 9q0 13 5 32t11 19q20 0 64 16t54 34q24 42 50 176l146 756q22 128 20 150t-43 43t-59 21q-4 0 -4 27t14 41q160 -6 262 -6l602 10q-4 -60 -4 -182v-114q-10 -10 -38 -10t-30 14
q-22 76 -87 130t-137 54h-70q-64 0 -92 -5t-34 -21q-24 -66 -40 -156l-60 -308q-4 -12 78 -12h158q44 0 60 17t56 107q6 14 35 14t35 -10l-72 -378q-8 -8 -36 -8t-32 16q-4 90 -25 111t-151 21t-134 -18l-58 -308q-16 -80 -16 -117t19 -47t103 -10h48q116 0 220 52
q34 18 84 68t84 112q6 12 40 12t42 -12q-8 -16 -44 -83q-97 -181 -124 -261l-658 8q-68 0 -142 -6t-96 -6q-4 4 -4 17z" />
    <glyph glyph-name="emacron" unicode="&#x113;" horiz-adv-x="786" 
d="M290 1158h462q14 0 8 -20q-17 -73 -50 -118h-467q-1 0 -4 5t1 17q26 116 50 116zM530 710q0 80 -50 80t-119 -109t-69 -215q0 -8 8 -8q94 0 162 86t68 166zM492 898q114 0 190 -50t76 -130t-60 -150t-142 -114t-159 -70t-119 -26q-8 0 -8 -20q0 -118 35 -160t94 -42
t119 43t82 73q4 0 21 -20t17 -28q-24 -56 -130 -136t-200 -80q-144 0 -217 85t-73 235t67 286t180 220t227 84z" />
    <glyph glyph-name="Ebreve" unicode="&#x114;" horiz-adv-x="1084" 
d="M718 1576q40 0 90 29t67 50t24 17t21 -26t11 -28t-5 -11t-4 -7q-108 -144 -228 -144t-172 144q-2 4 -2 14t27 37t35 17q16 -34 56 -63t80 -29zM-28 9q0 13 5 32t11 19q20 0 64 16t54 34q24 42 50 176l146 756q22 128 20 150t-43 43t-59 21q-4 0 -4 27t14 41
q160 -6 262 -6l602 10q-4 -60 -4 -182v-114q-10 -10 -38 -10t-30 14q-22 76 -87 130t-137 54h-70q-64 0 -92 -5t-34 -21q-24 -66 -40 -156l-60 -308q-4 -12 78 -12h158q44 0 60 17t56 107q6 14 35 14t35 -10l-72 -378q-8 -8 -36 -8t-32 16q-4 90 -25 111t-151 21t-134 -18
l-58 -308q-16 -80 -16 -117t19 -47t103 -10h48q116 0 220 52q34 18 84 68t84 112q6 12 40 12t42 -12q-8 -16 -44 -83q-97 -181 -124 -261l-658 8q-68 0 -142 -6t-96 -6q-4 4 -4 17z" />
    <glyph glyph-name="ebreve" unicode="&#x115;" horiz-adv-x="786" 
d="M501 1140q45 0 91 31t72 85q4 6 11 6t27 -17t19 -23t-7 -18q-38 -82 -101 -133t-136 -51t-123 52t-56 132v14q2 10 29 27t35 17t8 -6q4 -54 45 -85t86 -31zM530 710q0 80 -50 80t-119 -109t-69 -215q0 -8 8 -8q94 0 162 86t68 166zM492 898q114 0 190 -50t76 -130
t-60 -150t-142 -114t-159 -70t-119 -26q-8 0 -8 -20q0 -118 35 -160t94 -42t119 43t82 73q4 0 21 -20t17 -28q-24 -56 -130 -136t-200 -80q-144 0 -217 85t-73 235t67 286t180 220t227 84z" />
    <glyph glyph-name="Edotaccent" unicode="&#x116;" horiz-adv-x="1084" 
d="M785 1752q57 0 89 -43t20 -105t-61 -105t-106 -43t-89 43t-20 105t61 105t106 43zM-28 9q0 13 5 32t11 19q20 0 64 16t54 34q24 42 50 176l146 756q22 128 20 150t-43 43t-59 21q-4 0 -4 27t14 41q160 -6 262 -6l602 10q-4 -60 -4 -182v-114q-10 -10 -38 -10t-30 14
q-22 76 -87 130t-137 54h-70q-64 0 -92 -5t-34 -21q-24 -66 -40 -156l-60 -308q-4 -12 78 -12h158q44 0 60 17t56 107q6 14 35 14t35 -10l-72 -378q-8 -8 -36 -8t-32 16q-4 90 -25 111t-151 21t-134 -18l-58 -308q-16 -80 -16 -117t19 -47t103 -10h48q116 0 220 52
q34 18 84 68t84 112q6 12 40 12t42 -12q-8 -16 -44 -83q-97 -181 -124 -261l-658 8q-68 0 -142 -6t-96 -6q-4 4 -4 17z" />
    <glyph glyph-name="edotaccent" unicode="&#x117;" horiz-adv-x="786" 
d="M550 1374q58 0 90 -42t20 -104t-61 -105t-106 -43t-89 43t-20 105t60 104t106 42zM530 710q0 80 -50 80t-119 -109t-69 -215q0 -8 8 -8q94 0 162 86t68 166zM492 898q114 0 190 -50t76 -130t-60 -150t-142 -114t-159 -70t-119 -26q-8 0 -8 -20q0 -118 35 -160t94 -42
t119 43t82 73q4 0 21 -20t17 -28q-24 -56 -130 -136t-200 -80q-144 0 -217 85t-73 235t67 286t180 220t227 84z" />
    <glyph glyph-name="Eogonek" unicode="&#x118;" horiz-adv-x="1156" 
d="M547 718h205q44 0 60 17t56 107q6 14 35 14t35 -10l-72 -378q-8 -8 -36 -8t-32 16q-4 90 -25 111t-151 21t-134 -18l-58 -308q-16 -80 -16 -117t19 -47t103 -10h48q116 0 220 52q34 18 84 68t84 112q6 12 40 12t42 -12q-148 -286 -168 -344q-108 0 -198 -78t-90 -158
q0 -18 14 -33t49 -15t70 14t55 27t26 12t-1 -32t-13 -37q-44 -50 -112 -89t-120 -39t-86 34t-34 97t80 162t148 137l-446 6q-68 0 -142 -6t-96 -6q-4 4 -4 17t5 32t11 19q20 0 64 16t54 34q24 42 50 176l146 756q22 128 20 150t-42 43t-60 21q-4 0 -4 27t14 41
q160 -6 262 -6l602 10q-4 -60 -4 -182v-114q-10 -10 -38 -10t-30 14q-22 76 -87 130t-137 54h-70q-118 0 -126 -26q-24 -66 -40 -156l-60 -308q0 -12 31 -12z" />
    <glyph glyph-name="eogonek" unicode="&#x119;" horiz-adv-x="796" 
d="M532 898q96 0 163 -52t67 -144t-96 -177t-201 -126t-167 -41q-8 0 -8 -20q0 -116 49 -169t97 -53t88 33t68 66t35 33t22 -18t15 -34t-49 -70t-115 -99t-131 -120t-65 -135t62 -60t126 41q20 13 26 12t-1 -32t-13 -37q-44 -50 -112 -89t-120 -39t-86 33t-34 91t54 145
t126 149q-134 8 -210 111t-76 243q0 242 151 400t335 158zM486 788q-60 0 -136 -144q-16 -30 -33 -90t-17 -75t8 -15q94 0 160 83t66 162t-48 79z" />
    <glyph glyph-name="Ecaron" unicode="&#x11a;" horiz-adv-x="1084" 
d="M996 1738q22 0 12 -38q-48 -32 -168 -140l-92 -86q-22 -18 -33 -18t-26 30t-69 101t-96 113q10 38 26 38t87 -45t113 -79q56 34 143 79t103 45zM-28 9q0 13 5 32t11 19q20 0 64 16t54 34q24 42 50 176l146 756q22 128 20 150t-43 43t-59 21q-4 0 -4 27t14 41
q160 -6 262 -6l602 10q-4 -60 -4 -182v-114q-10 -10 -38 -10t-30 14q-22 76 -87 130t-137 54h-70q-64 0 -92 -5t-34 -21q-24 -66 -40 -156l-60 -308q-4 -12 78 -12h158q44 0 60 17t56 107q6 14 35 14t35 -10l-72 -378q-8 -8 -36 -8t-32 16q-4 90 -25 111t-151 21t-134 -18
l-58 -308q-16 -80 -16 -117t19 -47t103 -10h48q116 0 220 52q34 18 84 68t84 112q6 12 40 12t42 -12q-8 -16 -44 -83q-97 -181 -124 -261l-658 8q-68 0 -142 -6t-96 -6q-4 4 -4 17z" />
    <glyph glyph-name="ecaron" unicode="&#x11b;" horiz-adv-x="786" 
d="M754 1356q16 0 6 -46q-93 -80 -180 -185t-99 -105q-11 0 -27 44q-45 122 -134 246q10 46 25 46t78 -55t97 -93q52 40 135 94t99 54zM530 710q0 80 -50 80t-119 -109t-69 -215q0 -8 8 -8q94 0 162 86t68 166zM492 898q114 0 190 -50t76 -130t-60 -150t-142 -114t-159 -70
t-119 -26q-8 0 -8 -20q0 -118 35 -160t94 -42t119 43t82 73q4 0 21 -20t17 -28q-24 -56 -130 -136t-200 -80q-144 0 -217 85t-73 235t67 286t180 220t227 84z" />
    <glyph glyph-name="Gcircumflex" unicode="&#x11c;" horiz-adv-x="1232" 
d="M1058 1456q-18 0 -99 45t-127 79q-62 -34 -162 -79t-116 -45q-24 0 -14 38q64 38 159 112t125 103t40 29q14 0 55 -54l39 -52q80 -96 128 -138q-10 -38 -28 -38zM598 -16q-254 0 -415 150t-161 374q0 170 69 326t178 264t245 172t268 64q204 0 414 -58q0 -32 -8 -156
t-12 -140q-6 -30 -58 -30q-8 0 -26 6q-5 64 -33 115q-85 151 -274 151q-127 0 -219 -72t-146 -184q-110 -228 -110 -472q0 -172 78 -286t234 -114q86 0 172 24l54 258q12 58 12 102q0 28 -57 42t-85 14q-4 0 -4 29t14 39q282 -12 308 -12t254 12q0 -68 -12 -68t-55 -12
t-69 -26t-34 -50l-48 -222q-12 -48 -12 -71q0 -42 -80 -85q-168 -84 -382 -84z" />
    <glyph glyph-name="gcircumflex" unicode="&#x11d;" horiz-adv-x="930" 
d="M771 1020q-15 0 -78 55t-97 93q-52 -40 -135 -94t-98 -54t-5 46q40 34 118 120t110 128t44 42t17 -11q89 -195 149 -279q-10 -46 -25 -46zM84 64q0 66 234 168q-172 46 -172 262q0 160 125 282t293 122q50 0 123 -27t143 -27h106q18 0 18 -33t-20 -69h-102q-12 0 -12 -12
l8 -106q0 -214 -188 -336q-40 -26 -117 -55t-125 -53t-48 -48q0 -12 68 -26t151 -30t151 -61t68 -104t-25 -114t-78 -109t-153 -89t-236 -35t-232 60t-96 146q0 125 230 176q-34 10 -74 39t-40 79zM514 776q-42 0 -76 -58q-64 -109 -64 -284q0 -102 76 -102q40 0 71 35
t53 116t22 187t-82 106zM570 -194q0 34 -102 65t-184 39q-116 -34 -116 -108q0 -62 45 -101t154 -39t156 42t47 102z" />
    <glyph glyph-name="Gbreve" unicode="&#x11e;" horiz-adv-x="1232" 
d="M810 1576q40 0 90 29t67 50t24 17t21 -26t11 -28t-5 -11t-4 -7q-108 -144 -228 -144t-172 144q-2 4 -2 14t27 37t35 17q16 -34 56 -63t80 -29zM598 -16q-254 0 -415 150t-161 374q0 170 69 326t178 264t245 172t268 64q204 0 414 -58q0 -32 -8 -156t-12 -140
q-6 -30 -58 -30q-8 0 -26 6q-5 64 -33 115q-85 151 -274 151q-127 0 -219 -72t-146 -184q-110 -228 -110 -472q0 -172 78 -286t234 -114q86 0 172 24l54 258q12 58 12 102q0 28 -57 42t-85 14q-4 0 -4 29t14 39q282 -12 308 -12t254 12q0 -68 -12 -68t-55 -12t-69 -26
t-34 -50l-48 -222q-12 -48 -12 -71q0 -42 -80 -85q-168 -84 -382 -84z" />
    <glyph glyph-name="gbreve" unicode="&#x11f;" horiz-adv-x="930" 
d="M599 1140q45 0 91 31t72 85q4 6 11 6t27 -17t19 -23t-7 -18q-38 -82 -101 -133t-136 -51t-123 52t-56 132v14q2 10 29 27t35 17t8 -6q4 -54 45 -85t86 -31zM84 64q0 66 234 168q-172 46 -172 262q0 160 125 282t293 122q50 0 123 -27t143 -27h106q18 0 18 -33t-20 -69
h-102q-12 0 -12 -12l8 -106q0 -214 -188 -336q-40 -26 -117 -55t-125 -53t-48 -48q0 -12 68 -26t151 -30t151 -61t68 -104t-25 -114t-78 -109t-153 -89t-236 -35t-232 60t-96 146q0 125 230 176q-34 10 -74 39t-40 79zM514 776q-42 0 -76 -58q-64 -109 -64 -284
q0 -102 76 -102q40 0 71 35t53 116t22 187t-82 106zM570 -194q0 34 -102 65t-184 39q-116 -34 -116 -108q0 -62 45 -101t154 -39t156 42t47 102z" />
    <glyph glyph-name="Gdotaccent" unicode="&#x120;" horiz-adv-x="1232" 
d="M863 1752q57 0 89 -43t20 -105t-61 -105t-106 -43t-89 43t-20 105t61 105t106 43zM598 -16q-254 0 -415 150t-161 374q0 170 69 326t178 264t245 172t268 64q204 0 414 -58q0 -32 -8 -156t-12 -140q-6 -30 -58 -30q-8 0 -26 6q-5 64 -33 115q-85 151 -274 151
q-127 0 -219 -72t-146 -184q-110 -228 -110 -472q0 -172 78 -286t234 -114q86 0 172 24l54 258q12 58 12 102q0 28 -57 42t-85 14q-4 0 -4 29t14 39q282 -12 308 -12t254 12q0 -68 -12 -68t-55 -12t-69 -26t-34 -50l-48 -222q-12 -48 -12 -71q0 -42 -80 -85
q-168 -84 -382 -84z" />
    <glyph glyph-name="gdotaccent" unicode="&#x121;" horiz-adv-x="930" 
d="M644 1374q58 0 90 -42t20 -104t-61 -105t-106 -43t-89 43t-20 105t60 104t106 42zM84 64q0 66 234 168q-172 46 -172 262q0 160 125 282t293 122q50 0 123 -27t143 -27h106q18 0 18 -33t-20 -69h-102q-12 0 -12 -12l8 -106q0 -214 -188 -336q-40 -26 -117 -55t-125 -53
t-48 -48q0 -12 68 -26t151 -30t151 -61t68 -104t-25 -114t-78 -109t-153 -89t-236 -35t-232 60t-96 146q0 125 230 176q-34 10 -74 39t-40 79zM514 776q-42 0 -76 -58q-64 -109 -64 -284q0 -102 76 -102q40 0 71 35t53 116t22 187t-82 106zM570 -194q0 34 -102 65t-184 39
q-116 -34 -116 -108q0 -62 45 -101t154 -39t156 42t47 102z" />
    <glyph glyph-name="Gcommaaccent" unicode="&#x122;" horiz-adv-x="1232" 
d="M388 -202q0 48 71 69t157 21q24 -26 24 -93t-92 -141t-168 -90h-6q-12 0 -27 9t-15 19q0 2 29 18t57 41t28 46t-29 47t-29 54zM598 -16q-254 0 -415 150t-161 374q0 170 69 326t178 264t245 172t268 64q204 0 414 -58q0 -32 -8 -156t-12 -140q-6 -30 -58 -30q-8 0 -26 6
q-5 64 -33 115q-85 151 -274 151q-127 0 -219 -72t-146 -184q-110 -228 -110 -472q0 -172 78 -286t234 -114q86 0 172 24l54 258q12 58 12 102q0 28 -57 42t-85 14q-4 0 -4 29t14 39q282 -12 308 -12t254 12q0 -68 -12 -68t-55 -12t-69 -26t-34 -50l-48 -222
q-12 -48 -12 -71q0 -42 -80 -85q-168 -84 -382 -84z" />
    <glyph glyph-name="gcommaaccent" unicode="&#x123;" horiz-adv-x="930" 
d="M744 1116q0 -48 -71 -69t-157 -21q-24 26 -24 93t92 141t168 90h6q12 0 27 -9t15 -19q0 -2 -29 -18t-57 -41t-28 -46t29 -47t29 -54zM84 64q0 66 234 168q-172 46 -172 262q0 160 125 282t293 122q50 0 123 -27t143 -27h106q18 0 18 -33t-20 -69h-102q-12 0 -12 -12
l8 -106q0 -214 -188 -336q-40 -26 -117 -55t-125 -53t-48 -48q0 -12 68 -26t151 -30t151 -61t68 -104t-25 -114t-78 -109t-153 -89t-236 -35t-232 60t-96 146q0 125 230 176q-34 10 -74 39t-40 79zM514 776q-42 0 -76 -58q-64 -109 -64 -284q0 -102 76 -102q40 0 71 35
t53 116t22 187t-82 106zM570 -194q0 34 -102 65t-184 39q-116 -34 -116 -108q0 -62 45 -101t154 -39t156 42t47 102z" />
    <glyph glyph-name="Hcircumflex" unicode="&#x124;" horiz-adv-x="1428" 
d="M1090 1456q-18 0 -99 45t-127 79q-62 -34 -162 -79t-116 -45q-24 0 -14 38q64 38 159 112t125 103t40 29q14 0 55 -54l39 -52q80 -96 128 -138q-10 -38 -28 -38zM1450 1312q0 -56 -24 -56q-8 0 -54 -17t-54 -31q-24 -44 -48 -170l-148 -760q-22 -114 -22 -160
q0 -20 40 -39t58 -19q4 0 4 -22t-16 -46l-246 14q-104 0 -258 -14q-2 2 -2 35t10 33q22 0 66 14t58 39t44 157l68 338v2q0 12 -222 12t-226 -16l-64 -328q-20 -104 -20 -160q0 -20 39 -39t57 -19q4 0 4 -24t-14 -44q-168 14 -253 14t-253 -14q-2 2 -2 14t4 33t8 21
q22 0 65 13t53 31q32 52 50 166l150 776q18 96 18 136t-37 57t-59 17q-2 0 -2 28t12 40q168 -12 224 -12t284 12v-10q0 -16 -5 -37t-11 -21q-16 0 -63 -17t-57 -34q-23 -38 -46 -167l-54 -282v-4q0 -14 86 -14h138q222 0 224 12l56 296q18 108 18 154q0 56 -96 56
q-4 0 -4 26t16 42q252 -12 265 -12t241 12v-12z" />
    <glyph glyph-name="hcircumflex" unicode="&#x125;" horiz-adv-x="938" 
d="M638 1456q-18 0 -99 45t-127 79q-62 -34 -162 -79t-116 -45q-24 0 -14 38q64 38 159 112t125 103t40 29q14 0 55 -54l39 -52q80 -96 128 -138q-10 -38 -28 -38zM508 682q-50 0 -131 -170t-107 -302l-42 -210q-40 -12 -111 -12t-123 12q230 1188 230 1206q0 44 -98 44
q-6 0 -6 22t18 40q48 0 163 28t167 50q20 -10 20 -33t-7 -59t-16 -77t-64 -324t-55 -289q50 104 135 197t163 93t120 -62t42 -133t-32 -237l-40 -210q-4 -12 -4 -53t20 -41q28 0 78 42t68 64q4 0 21 -20t17 -28q-22 -54 -143 -145t-205 -91q-46 0 -76 29t-30 86t20 147
l46 238l20 116q0 42 -13 62t-45 20z" />
    <glyph glyph-name="Hbar" unicode="&#x126;" horiz-adv-x="1458" 
d="M480 1312q50 0 278 12v-10q0 -16 -5 -37t-11 -21q-16 0 -63 -17t-55 -31q-20 -36 -46 -162q132 -2 218 -2l228 2q20 126 20 154q0 56 -96 56q-4 0 -4 26t16 42q252 -12 265 -12t241 12v-12q0 -56 -16 -56t-62 -17t-54 -31q-22 -38 -46 -160l122 2h5q12 0 9 -14
q-18 -74 -42 -98l-22 -8l-94 2l-128 -654q-22 -114 -22 -160q0 -20 40 -39t58 -19q4 0 4 -22t-16 -46l-246 14q-104 0 -258 -14q-2 2 -2 35t10 33q22 0 66 14t58 39t44 157l60 300v2q0 12 -222 12t-226 -16l-56 -290q-20 -104 -20 -160q0 -20 39 -39t57 -19q4 0 4 -24
t-14 -44q-168 14 -253 14t-253 -14q-2 2 -2 14t4 33t8 21q22 0 65 13t59 40t44 157l132 662l-124 -2h-5q-12 0 -9 14q20 78 40 98l22 8l94 -2q18 90 18 144q0 30 -37 47t-59 17q-2 0 -2 28t12 40q180 -12 230 -12zM514 714q0 -14 223 -14t225 12l44 222q-138 2 -226 2
l-224 -2l-42 -216v-4z" />
    <glyph glyph-name="hbar" unicode="&#x127;" horiz-adv-x="996" 
d="M482 1124h204q12 0 11 -32t-15 -68t-22 -36h-206q-6 0 -10 -10q-68 -344 -68 -356l2 -2h2q88 170 157 224t140 54t112 -64t41 -140t-18 -166l-50 -272q-4 -12 -4 -32q0 -60 40 -60q14 0 39 28t43 57t20 29q12 0 34 -19t28 -39q-30 -74 -108 -156t-184 -82q-60 0 -105 45
t-45 147q0 46 36 206t36 210t-12 71t-44 21q-52 0 -130 -165t-122 -371l-30 -146q-40 -12 -115 -12t-115 12q188 972 188 980t-4 8h-116l-6 20q0 2 2 14t6 35t14 45t18 22h110q16 0 16 82q0 44 -98 44q-6 0 -6 15t7 31t11 16q50 0 181 31t165 47h10q6 0 12 -13t6 -21
q-57 -169 -64 -222q0 -10 6 -10z" />
    <glyph glyph-name="Itilde" unicode="&#x128;" horiz-adv-x="720" 
d="M182 1478q-14 0 -5 48t51 96q90 102 173 102t177 -68t164 -68q36 0 91 57t65 57q16 0 7 -47t-53 -99q-84 -100 -168 -100t-177 68t-165 68q-34 0 -93 -57t-67 -57zM458 1312q56 0 284 12v-10q0 -16 -5 -37t-11 -21q-16 0 -63 -17t-57 -34q-23 -38 -46 -167l-146 -760
q-20 -104 -20 -160q0 -20 39 -39t57 -19q4 0 4 -24t-14 -44l-240 14l-266 -14q-2 2 -2 14t4 33t8 21q22 0 65 13t53 31q32 52 50 166l150 776q18 96 18 136t-37 57t-59 17q-2 0 -2 28t12 40q168 -12 224 -12z" />
    <glyph glyph-name="itilde" unicode="&#x129;" horiz-adv-x="628" 
d="M298 1258q58 0 135 -61t135 -61q30 0 78 49t50 49q12 -6 12 -36t-69 -104t-129 -74t-136 60t-136 60q-26 0 -76 -51t-58 -51t-8 44t72 110t130 66zM326 898q60 0 105 -45t45 -147q0 -50 -42 -256t-42 -226q0 -60 40 -60q14 0 39 28t43 57t20 29q12 0 34 -19t28 -39
q-30 -74 -108 -156t-184 -82q-66 0 -108 49t-42 143q0 14 10 74l70 376q4 12 4 32q0 60 -40 60q-14 0 -39 -28t-43 -57t-20 -29q-12 0 -34 19t-28 39q30 74 108 156t184 82z" />
    <glyph glyph-name="Imacron" unicode="&#x12a;" horiz-adv-x="720" 
d="M282 1594h534q24 0 -14 -93q-12 -29 -28 -45h-539q-1 0 -4 5t1 17q26 116 50 116zM458 1312q56 0 284 12v-10q0 -16 -5 -37t-11 -21q-16 0 -63 -17t-57 -34q-23 -38 -46 -167l-146 -760q-20 -104 -20 -160q0 -20 39 -39t57 -19q4 0 4 -24t-14 -44l-240 14l-266 -14
q-2 2 -2 14t4 33t8 21q22 0 65 13t53 31q32 52 50 166l150 776q18 96 18 136t-37 57t-59 17q-2 0 -2 28t12 40q168 -12 224 -12z" />
    <glyph glyph-name="imacron" unicode="&#x12b;" horiz-adv-x="628" 
d="M184 1158h462q14 0 8 -20q-17 -73 -50 -118h-467q-1 0 -4 5t1 17q26 116 50 116zM326 898q60 0 105 -45t45 -147q0 -50 -42 -256t-42 -226q0 -60 40 -60q14 0 39 28t43 57t20 29q12 0 34 -19t28 -39q-30 -74 -108 -156t-184 -82q-66 0 -108 49t-42 143q0 14 10 74l70 376
q4 12 4 32q0 60 -40 60q-14 0 -39 -28t-43 -57t-20 -29q-12 0 -34 19t-28 39q30 74 108 156t184 82z" />
    <glyph glyph-name="Ibreve" unicode="&#x12c;" horiz-adv-x="720" 
d="M538 1576q40 0 90 29t67 50t24 17t21 -26t11 -28t-5 -11t-4 -7q-108 -144 -228 -144t-172 144q-2 4 -2 14t27 37t35 17q16 -34 56 -63t80 -29zM458 1312q56 0 284 12v-10q0 -16 -5 -37t-11 -21q-16 0 -63 -17t-57 -34q-23 -38 -46 -167l-146 -760q-20 -104 -20 -160
q0 -20 39 -39t57 -19q4 0 4 -24t-14 -44l-240 14l-266 -14q-2 2 -2 14t4 33t8 21q22 0 65 13t53 31q32 52 50 166l150 776q18 96 18 136t-37 57t-59 17q-2 0 -2 28t12 40q168 -12 224 -12z" />
    <glyph glyph-name="ibreve" unicode="&#x12d;" horiz-adv-x="628" 
d="M411 1140q45 0 91 31t72 85q4 6 11 6t27 -17t19 -23t-7 -18q-38 -82 -101 -133t-136 -51t-123 52t-56 132v14q2 10 29 27t35 17t8 -6q4 -54 45 -85t86 -31zM326 898q60 0 105 -45t45 -147q0 -50 -42 -256t-42 -226q0 -60 40 -60q14 0 39 28t43 57t20 29q12 0 34 -19
t28 -39q-30 -74 -108 -156t-184 -82q-66 0 -108 49t-42 143q0 14 10 74l70 376q4 12 4 32q0 60 -40 60q-14 0 -39 -28t-43 -57t-20 -29q-12 0 -34 19t-28 39q30 74 108 156t184 82z" />
    <glyph glyph-name="Iogonek" unicode="&#x12e;" horiz-adv-x="750" 
d="M480 1312q50 0 278 12v-10q0 -16 -5 -37t-11 -21q-16 0 -63 -17t-55 -31q-28 -50 -48 -170l-146 -760q-20 -104 -20 -160q0 -20 39 -39t57 -19q4 0 4 -24t-14 -44q-48 4 -92 4q-76 0 -174 -83t-98 -153q0 -18 14 -33t49 -15t70 14t55 27t26 12t-1 -32t-13 -37
q-44 -50 -112 -89t-120 -39t-86 34t-34 86q0 78 90 187t156 129q-20 0 -236 -12q-2 2 -2 14t4 33t8 21q22 0 65 13t53 31q32 52 50 166l150 776q18 96 18 136t-37 57t-59 17q-2 0 -2 28t12 40q180 -12 230 -12z" />
    <glyph glyph-name="iogonek" unicode="&#x12f;" horiz-adv-x="638" 
d="M436 1374q56 0 89 -36t33 -95t-47 -111t-103 -52t-89 36t-33 96t47 111t103 51zM250 -236q0 -52 62 -52t126 41q20 13 26 12t-1 -32t-13 -37q-44 -50 -112 -89t-120 -39t-86 33t-34 85q0 120 162 302q-110 30 -110 186q0 14 10 74l70 376q4 12 4 32q0 60 -40 60
q-14 0 -39 -28t-43 -57t-20 -29q-12 0 -34 19t-28 39q30 74 108 156t184 82q60 0 105 -45t45 -147q0 -50 -42 -256t-42 -226q0 -60 40 -60q14 0 39 28t43 57t20 29q12 0 34 -19t28 -39q-14 -36 -54 -91t-92 -97q-196 -156 -196 -268z" />
    <glyph glyph-name="Idotaccent" unicode="&#x130;" horiz-adv-x="720" 
d="M571 1752q57 0 89 -43t20 -105t-61 -105t-106 -43t-89 43t-20 105t61 105t106 43zM458 1312q56 0 284 12v-10q0 -16 -5 -37t-11 -21q-16 0 -63 -17t-57 -34q-23 -38 -46 -167l-146 -760q-20 -104 -20 -160q0 -20 39 -39t57 -19q4 0 4 -24t-14 -44l-240 14l-266 -14
q-2 2 -2 14t4 33t8 21q22 0 65 13t53 31q32 52 50 166l150 776q18 96 18 136t-37 57t-59 17q-2 0 -2 28t12 40q168 -12 224 -12z" />
    <glyph glyph-name="dotlessi" unicode="&#x131;" horiz-adv-x="628" 
d="M326 898q60 0 105 -45t45 -147q0 -50 -42 -256t-42 -226q0 -60 40 -60q14 0 39 28t43 57t20 29q12 0 34 -19t28 -39q-30 -74 -108 -156t-184 -82q-66 0 -108 49t-42 143q0 14 10 74l70 376q4 12 4 32q0 60 -40 60q-14 0 -39 -28t-43 -57t-20 -29q-12 0 -34 19t-28 39
q30 74 108 156t184 82z" />
    <glyph glyph-name="IJ" unicode="&#x132;" horiz-adv-x="1206" 
d="M1084 1312q56 0 284 12v-10q0 -16 -5 -37t-11 -21q-16 0 -63 -17t-57 -34q-23 -38 -46 -167l-146 -752q-64 -330 -211 -488t-329 -234q-28 12 -28 44t4 40q116 96 185 237t117 385l150 776q18 96 18 136t-37 57t-59 17q-2 0 -2 28t12 40q168 -12 224 -12zM458 1312
q56 0 284 12v-10q0 -16 -5 -37t-11 -21q-16 0 -63 -17t-57 -34q-23 -38 -46 -167l-146 -760q-20 -104 -20 -160q0 -20 39 -39t57 -19q4 0 4 -24t-14 -44l-240 14l-266 -14q-2 2 -2 14t4 33t8 21q22 0 65 13t53 31q32 52 50 166l150 776q18 96 18 136t-37 57t-59 17
q-2 0 -2 28t12 40q168 -12 224 -12z" />
    <glyph glyph-name="ij" unicode="&#x133;" horiz-adv-x="1118" 
d="M1055 1378q57 0 89 -36t32 -96t-46 -112t-103 -52t-90 36t-33 96t47 112t104 52zM970 898q46 0 76 -29t30 -68q0 -85 -20 -165l-76 -396q-54 -286 -172 -444q-56 -76 -164 -146t-164 -86q-6 0 -16 29t-10 45q134 118 188 226t98 336l82 426q4 20 4 57t-20 37
q-28 0 -78 -42t-68 -64q-4 0 -21 20t-17 28q22 54 143 145t205 91zM408 1374q56 0 89 -36t33 -95t-47 -111t-103 -52t-89 36t-33 96t47 111t103 51zM350 898q46 0 76 -29t30 -68q0 -85 -20 -165l-74 -380q-4 -12 -4 -53t20 -41q28 0 79 42t67 64q6 0 22 -20t16 -28
q-22 -54 -143 -145t-205 -91q-44 0 -75 29t-31 68q0 85 20 165l74 380q4 20 4 57t-20 37q-28 0 -79 -42t-67 -64q-4 0 -21 20t-17 28q22 54 143 145t205 91z" />
    <glyph glyph-name="Jcircumflex" unicode="&#x134;" horiz-adv-x="842" 
d="M918 1456q-18 0 -99 45t-127 79q-62 -34 -162 -79t-116 -45q-24 0 -14 38q64 38 159 112t125 103t40 29q14 0 55 -54l39 -52q80 -96 128 -138q-10 -38 -28 -38zM580 1312q56 0 284 12v-10q0 -16 -5 -37t-11 -21q-16 0 -63 -17t-57 -34q-23 -38 -46 -167l-146 -752
q-64 -330 -211 -488t-329 -234q-28 12 -28 44t4 40q116 96 185 237t117 385l150 776q18 96 18 136t-37 57t-59 17q-2 0 -2 28t12 40q168 -12 224 -12z" />
    <glyph glyph-name="jcircumflex" unicode="&#x135;" horiz-adv-x="726" 
d="M713 1020q-15 0 -78 55t-97 93q-52 -40 -135 -94t-98 -54t-5 46q40 34 118 120t110 128t44 42t17 -11q89 -195 149 -279q-10 -46 -25 -46zM456 898q60 0 105 -45t45 -147q0 -56 -82 -466q-54 -286 -172 -444q-58 -76 -166 -146t-162 -86q-32 20 -32 44t6 30
q134 118 188 226t98 336l80 424q4 12 4 32q0 60 -40 60q-14 0 -39 -28t-43 -57t-20 -29q-12 0 -34 19t-28 39q30 74 108 156t184 82z" />
    <glyph glyph-name="Kcommaaccent" unicode="&#x136;" horiz-adv-x="1422" 
d="M438 -202q0 48 71 69t157 21q24 -26 24 -93t-92 -141t-168 -90h-6q-12 0 -27 9t-15 19q0 2 29 18t57 41t28 46t-29 47t-29 54zM458 1312q56 0 284 12v-10q0 -16 -5 -37t-11 -21q-16 0 -63 -17t-57 -34q-23 -38 -46 -167l-71 -372q83 54 187 151t362 355q24 24 24 48
q0 18 -41 29t-63 11q-6 0 -6 25t8 39q204 -12 230 -12t254 12q0 -18 -5 -41t-11 -23q-150 -16 -222 -90l-426 -444q-20 -20 -20 -35t6 -23l310 -444q66 -94 119 -129t115 -35q6 0 6 -20t-14 -40q-32 -8 -105 -8t-105 2q-98 6 -158 39q-61 32 -118 119l-328 513l-74 -387
q-20 -104 -20 -160q0 -20 39 -39t57 -19q4 0 4 -24t-14 -44q-168 14 -253 14t-253 -14q-2 2 -2 14t4 33t8 21q22 0 65 13t53 31q32 52 50 166l150 776q18 96 18 136t-37 57t-59 17q-2 0 -2 28t12 40q168 -12 224 -12z" />
    <glyph glyph-name="kcommaaccent" unicode="&#x137;" horiz-adv-x="924" 
d="M264 -202q0 48 71 69t157 21q24 -26 24 -93t-92 -141t-168 -90h-6q-12 0 -27 9t-15 19q0 2 29 18t57 41t28 46t-29 47t-29 54zM554 752q-78 0 -152 -98t-74 -148q0 -24 81 -24t145 42q34 24 54 63t20 74t-21 63t-53 28zM655 898q77 0 150 -50t73 -133t-58 -156t-132 -112
t-138 -47q34 -88 92 -177t96 -89t87 39t69 65q4 0 27 -20t23 -26q-22 -56 -110 -128t-193 -72t-225 190q-48 75 -79 139q-31 63 -35 71l-76 -392q-36 -16 -102 -16t-130 16l210 1088q18 92 18 118q0 44 -98 44q-6 0 -6 22t18 40q48 0 163 28t167 50q20 -10 20 -33t-7 -59
t-16 -77t-11 -53l-90 -476q25 58 70 109q46 51 96 74t127 23z" />
    <glyph glyph-name="kgreenlandic" unicode="&#x138;" horiz-adv-x="1000" 
d="M584 752q-78 0 -152 -98t-74 -148q0 -24 81 -24t150 46t69 138q0 30 -21 58t-53 28zM668 898q94 0 167 -50t73 -134q0 -118 -105 -208t-209 -102q36 -94 90 -183t93 -89t67 40q10 14 23 35t16 24t26 3t41 -30q-78 -212 -262 -212q-66 0 -113 27t-105 95t-116 226l-18 52
l-2 2q-2 0 -2 -2l-76 -392q-34 -16 -101 -16t-131 16l118 598q18 94 18 118q0 44 -98 44q-6 0 -6 15t7 31t11 16q50 0 181 31t165 47h10q6 0 12 -13t6 -21q-61 -182 -54 -182q2 0 8 14q92 200 266 200z" />
    <glyph glyph-name="Lacute" unicode="&#x139;" horiz-adv-x="1044" 
d="M381 1430q-25 0 -34 14t-9 22t36 42q167 158 250 158q48 0 94 -18t46 -56t-179 -100t-204 -62zM458 1312q56 0 284 12v-10q0 -16 -5 -37t-11 -21q-16 0 -63 -17t-57 -34q-23 -38 -46 -167l-146 -760q-14 -84 -14 -116t19 -43t103 -11h48q116 0 220 52q34 18 84 68t84 112
q6 12 40 12t42 -12q-8 -16 -44 -83q-97 -181 -124 -261l-634 8q-52 0 -220 -8l-42 -4q-4 8 -4 19t5 30t9 19q20 0 68 18t56 34q22 46 42 158l150 776q18 96 18 136t-37 57t-59 17q-2 0 -2 28t12 40q168 -12 224 -12z" />
    <glyph glyph-name="lacute" unicode="&#x13a;" horiz-adv-x="482" 
d="M281 1430q-25 0 -34 14t-9 22t36 42q167 158 250 158q48 0 94 -18t46 -56t-179 -100t-204 -62zM212 1206q0 44 -98 44q-6 0 -6 22t18 40q50 0 165 28t165 50q20 -10 20 -33q0 -53 -34 -189l-178 -912q-4 -20 -4 -57t20 -37q30 0 80 42t66 64q6 0 22 -20t16 -28
q-20 -54 -141 -145t-207 -91q-44 0 -75 29t-31 68q0 85 20 165l164 842q18 94 18 118z" />
    <glyph glyph-name="Lcommaaccent" unicode="&#x13b;" horiz-adv-x="1044" 
d="M418 -202q0 48 71 69t157 21q24 -26 24 -93t-92 -141t-168 -90h-6q-12 0 -27 9t-15 19q0 2 29 18t57 41t28 46t-29 47t-29 54zM458 1312q56 0 284 12v-10q0 -16 -5 -37t-11 -21q-16 0 -63 -17t-57 -34q-23 -38 -46 -167l-146 -760q-14 -84 -14 -116t19 -43t103 -11h48
q116 0 220 52q34 18 84 68t84 112q6 12 40 12t42 -12q-8 -16 -44 -83q-97 -181 -124 -261l-634 8q-52 0 -220 -8l-42 -4q-4 8 -4 19t5 30t9 19q20 0 68 18t56 34q22 46 42 158l150 776q18 96 18 136t-37 57t-59 17q-2 0 -2 28t12 40q168 -12 224 -12z" />
    <glyph glyph-name="lcommaaccent" unicode="&#x13c;" horiz-adv-x="482" 
d="M68 -202q0 48 71 69t157 21q24 -26 24 -93t-92 -141t-168 -90h-6q-12 0 -27 9t-15 19q0 2 29 18t57 41t28 46t-29 47t-29 54zM212 1206q0 44 -98 44q-6 0 -6 22t18 40q50 0 165 28t165 50q20 -10 20 -33q0 -53 -34 -189l-178 -912q-4 -20 -4 -57t20 -37q30 0 80 42t66 64
q6 0 22 -20t16 -28q-20 -54 -141 -145t-207 -91q-44 0 -75 29t-31 68q0 85 20 165l164 842q18 94 18 118z" />
    <glyph glyph-name="Lcaron" unicode="&#x13d;" horiz-adv-x="1044" 
d="M1008 977q0 7 30 32q90 75 90 137q0 18 -21 50t-21 64q0 130 188 130q6 -18 6 -60q0 -141 -82 -247q-82 -107 -150 -147h-4q-8 0 -22 17t-14 24zM458 1312q56 0 284 12v-10q0 -16 -5 -37t-11 -21q-16 0 -63 -17t-57 -34q-23 -38 -46 -167l-146 -760q-14 -84 -14 -116
t19 -43t103 -11h48q116 0 220 52q34 18 84 68t84 112q6 12 40 12t42 -12q-8 -16 -44 -83q-97 -181 -124 -261l-634 8q-52 0 -220 -8l-42 -4q-4 8 -4 19t5 30t9 19q20 0 68 18t56 34q22 46 42 158l150 776q18 96 18 136t-37 57t-59 17q-2 0 -2 28t12 40q168 -12 224 -12z" />
    <glyph glyph-name="lcaron" unicode="&#x13e;" horiz-adv-x="482" 
d="M584 977q0 7 30 32q90 75 90 137q0 18 -21 50t-21 64q0 130 188 130q6 -18 6 -60q0 -141 -82 -247q-82 -107 -150 -147h-4q-8 0 -22 17t-14 24zM212 1206q0 44 -98 44q-6 0 -6 22t18 40q50 0 165 28t165 50q20 -10 20 -33q0 -53 -34 -189l-178 -912q-4 -20 -4 -57t20 -37
q30 0 80 42t66 64q6 0 22 -20t16 -28q-20 -54 -141 -145t-207 -91q-44 0 -75 29t-31 68q0 85 20 165l164 842q18 94 18 118z" />
    <glyph glyph-name="Ldot" unicode="&#x13f;" horiz-adv-x="1044" 
d="M870 806q58 0 90 -42t20 -104t-61 -105t-106 -43t-89 43t-20 105t60 104t106 42zM458 1312q56 0 284 12v-10q0 -16 -5 -37t-11 -21q-16 0 -63 -17t-57 -34q-23 -38 -46 -167l-146 -760q-14 -84 -14 -116t19 -43t103 -11h48q116 0 220 52q34 18 84 68t84 112q6 12 40 12
t42 -12q-8 -16 -44 -83q-97 -181 -124 -261l-634 8q-52 0 -220 -8l-42 -4q-4 8 -4 19t5 30t9 19q20 0 68 18t56 34q22 46 42 158l150 776q18 96 18 136t-37 57t-59 17q-2 0 -2 28t12 40q168 -12 224 -12z" />
    <glyph glyph-name="ldot" unicode="&#x140;" horiz-adv-x="932" 
d="M776 766q58 0 90 -42t20 -104t-61 -105t-106 -43t-89 43t-20 105t60 104t106 42zM212 1206q0 44 -98 44q-6 0 -6 22t18 40q50 0 165 28t165 50q20 -10 20 -33q0 -53 -34 -189l-178 -912q-4 -20 -4 -57t20 -37q30 0 80 42t66 64q6 0 22 -20t16 -28q-20 -54 -141 -145
t-207 -91q-44 0 -75 29t-31 68q0 85 20 165l164 842q18 94 18 118z" />
    <glyph glyph-name="Lslash" unicode="&#x141;" horiz-adv-x="1066" 
d="M34 60q22 0 73 17t61 33q22 52 46 176l22 114l-90 -58q-10 0 -25 35q-23 54 -1 71l144 94l98 508q22 128 15 147t-48 39t-59 20q-4 0 1 31t11 37q252 -12 277 -12t253 12q0 -68 -16 -68t-70 -20t-60 -34q-28 -62 -46 -160l-58 -304l296 194q6 0 30 -50t-4 -66l-352 -226
l-58 -306q-20 -108 -14 -144q2 -32 120 -32h48q116 0 220 52q34 18 84 68t84 112q6 12 40 12t42 -12q-148 -286 -168 -344l-634 8l-274 -12q-6 6 0 37t12 31z" />
    <glyph glyph-name="lslash" unicode="&#x142;" horiz-adv-x="548" 
d="M448 224q0 -60 40 -60q14 0 39 28t43 57t20 29q12 0 34 -19t28 -39q-30 -74 -108 -156t-184 -82q-66 0 -108 49t-42 143q0 32 10 72l46 242l-96 -68q-8 0 -27 45t5 61l146 104l88 458q18 92 18 118q0 44 -98 44q-6 0 -6 15t7 31t11 16q50 0 181 31t165 47h10q6 0 12 -13
t6 -21q-36 -78 -58 -188l-68 -354l82 58q6 0 29 -45t-7 -69l-134 -92l-78 -410q-6 -18 -6 -32z" />
    <glyph glyph-name="Nacute" unicode="&#x143;" horiz-adv-x="1350" 
d="M947 1430q-25 0 -34 14t-9 22t36 42q167 158 250 158q48 0 94 -18t46 -56t-179 -100t-204 -62zM229 6q-85 0 -253 -14q-4 8 -4 18t3 22l5 20q2 8 4 8q36 0 100 19t94 58t50 151l152 786q12 64 12 118q0 30 -56 47t-90 17q-6 0 -6 29t14 39q210 -10 283 -10t151 10
q28 -106 197 -403t231 -419q4 12 20 82l88 464q12 66 12 108t-63 71t-97 29q-4 0 -4 28t12 40q210 -10 266 -10t242 10q0 -68 -15 -68t-41 -4t-71 -22t-74 -48t-51 -144l-148 -760q-16 -82 -46 -280q-8 -8 -48 -8q-22 0 -50 46l-554 1012l-148 -766q-16 -80 -16 -111t22 -55
t67 -40t71 -16q4 0 4 -22t-12 -46q-168 14 -253 14z" />
    <glyph glyph-name="nacute" unicode="&#x144;" horiz-adv-x="1026" 
d="M538 964q-8 0 -18 17t-10 29t83 110t125 138q8 6 40 6t65 -30t33 -58q0 -50 -142 -131t-176 -81zM352 898q46 0 76 -29t30 -69q0 -68 -10 -118t-14 -78q52 106 136 200t161 94t119 -62t42 -133t-32 -237l-40 -210q-4 -12 -4 -53t20 -41q28 0 79 42t67 64q6 0 22 -20
t16 -28q-22 -54 -143 -145t-205 -91q-44 0 -75 29t-31 86t20 147l46 238q20 100 20 129q0 69 -58 69q-50 0 -130 -170t-108 -302l-42 -210q-40 -12 -111 -12t-119 12l120 626q4 20 4 57t-20 37q-28 0 -79 -42t-67 -64q-4 0 -21 20t-17 28q22 54 143 145t205 91z" />
    <glyph glyph-name="Ncommaaccent" unicode="&#x145;" horiz-adv-x="1350" 
d="M564 -202q0 48 71 69t157 21q24 -26 24 -93t-92 -141t-168 -90h-6q-12 0 -27 9t-15 19q0 2 29 18t57 41t28 46t-29 47t-29 54zM229 6q-85 0 -253 -14q-4 8 -4 18t3 22l5 20q2 8 4 8q36 0 100 19t94 58t50 151l152 786q12 64 12 118q0 30 -56 47t-90 17q-6 0 -6 29t14 39
q210 -10 283 -10t151 10q28 -106 197 -403t231 -419q4 12 20 82l88 464q12 66 12 108t-63 71t-97 29q-4 0 -4 28t12 40q210 -10 266 -10t242 10q0 -68 -15 -68t-41 -4t-71 -22t-74 -48t-51 -144l-148 -760q-16 -82 -46 -280q-8 -8 -48 -8q-22 0 -50 46l-554 1012l-148 -766
q-16 -80 -16 -111t22 -55t67 -40t71 -16q4 0 4 -22t-12 -46q-168 14 -253 14z" />
    <glyph glyph-name="ncommaaccent" unicode="&#x146;" horiz-adv-x="1026" 
d="M366 -202q0 48 71 69t157 21q24 -26 24 -93t-92 -141t-168 -90h-6q-12 0 -27 9t-15 19q0 2 29 18t57 41t28 46t-29 47t-29 54zM352 898q46 0 76 -29t30 -69q0 -68 -10 -118t-14 -78q52 106 136 200t161 94t119 -62t42 -133t-32 -237l-40 -210q-4 -12 -4 -53t20 -41
q28 0 79 42t67 64q6 0 22 -20t16 -28q-22 -54 -143 -145t-205 -91q-44 0 -75 29t-31 86t20 147l46 238q20 100 20 129q0 69 -58 69q-50 0 -130 -170t-108 -302l-42 -210q-40 -12 -111 -12t-119 12l120 626q4 20 4 57t-20 37q-28 0 -79 -42t-67 -64q-4 0 -21 20t-17 28
q22 54 143 145t205 91z" />
    <glyph glyph-name="Ncaron" unicode="&#x147;" horiz-adv-x="1350" 
d="M1246 1738q22 0 12 -38q-48 -32 -168 -140l-92 -86q-22 -18 -33 -18t-26 30t-69 101t-96 113q10 38 26 38t87 -45t113 -79q56 34 143 79t103 45zM229 6q-85 0 -253 -14q-4 8 -4 18t3 22l5 20q2 8 4 8q36 0 100 19t94 58t50 151l152 786q12 64 12 118q0 30 -56 47t-90 17
q-6 0 -6 29t14 39q210 -10 283 -10t151 10q28 -106 197 -403t231 -419q4 12 20 82l88 464q12 66 12 108t-63 71t-97 29q-4 0 -4 28t12 40q210 -10 266 -10t242 10q0 -68 -15 -68t-41 -4t-71 -22t-74 -48t-51 -144l-148 -760q-16 -82 -46 -280q-8 -8 -48 -8q-22 0 -50 46
l-554 1012l-148 -766q-16 -80 -16 -111t22 -55t67 -40t71 -16q4 0 4 -22t-12 -46q-168 14 -253 14z" />
    <glyph glyph-name="ncaron" unicode="&#x148;" horiz-adv-x="1026" 
d="M894 1356q16 0 6 -46q-93 -80 -180 -185t-99 -105q-11 0 -27 44q-45 122 -134 246q10 46 25 46t78 -55t97 -93q52 40 135 94t99 54zM352 898q46 0 76 -29t30 -69q0 -68 -10 -118t-14 -78q52 106 136 200t161 94t119 -62t42 -133t-32 -237l-40 -210q-4 -12 -4 -53t20 -41
q28 0 79 42t67 64q6 0 22 -20t16 -28q-22 -54 -143 -145t-205 -91q-44 0 -75 29t-31 86t20 147l46 238q20 100 20 129q0 69 -58 69q-50 0 -130 -170t-108 -302l-42 -210q-40 -12 -111 -12t-119 12l120 626q4 20 4 57t-20 37q-28 0 -79 -42t-67 -64q-4 0 -21 20t-17 28
q22 54 143 145t205 91z" />
    <glyph glyph-name="Eng" unicode="&#x14a;" horiz-adv-x="1548" 
d="M-14 10q0 10 3 22l5 20q2 8 4 8q36 0 100 19t94 58t50 151l152 786q12 64 12 118q0 30 -56 47t-90 17q-6 0 -6 29t14 39q210 -10 283 -10t151 10q28 -106 197 -403t231 -419q4 12 20 82l88 464q12 66 12 108t-63 71t-97 29q-4 0 -4 28t12 40q210 -10 266 -10t242 10
q0 -68 -15 -68t-41 -4t-71 -22t-74 -48t-51 -144l-148 -760q-62 -320 -218 -504t-328 -210q-16 6 -16 31t12 49q88 42 203 203t143 309l-494 892l-148 -766q-16 -80 -16 -116t51 -71t109 -35q4 0 4 -22t-12 -46q-168 14 -253 14t-253 -14q-4 8 -4 18z" />
    <glyph glyph-name="eng" unicode="&#x14b;" horiz-adv-x="1054" 
d="M628 682q-50 0 -131 -170t-107 -302l-42 -210q-40 -12 -111 -12t-119 12l120 624q2 6 2 32q0 60 -40 60q-14 0 -39 -28t-43 -57t-20 -29q-12 0 -34 19t-28 39q30 74 108 156t184 82q70 0 115 -56t45 -114t-8 -81t-8 -25t4 -2t4 4q50 104 129 189t156 85t119 -62t42 -133
t-32 -237l-42 -226q-54 -286 -172 -444q-58 -76 -166 -146t-162 -86q-32 20 -32 44t6 30q134 118 189 229t97 333l76 400q6 30 -11 56t-49 26z" />
    <glyph glyph-name="Omacron" unicode="&#x14c;" horiz-adv-x="1252" 
d="M558 1594h534q24 0 -14 -93q-12 -29 -28 -45h-539q-1 0 -4 5t1 17q26 116 50 116zM766 1334q212 0 347 -151t135 -383q0 -156 -64 -307t-167 -263t-239 -181t-274 -69q-212 0 -346 151t-134 381q0 156 64 308t166 264t238 181t274 69zM718 1222q-162 0 -283 -214
t-121 -509t127 -376q49 -31 124 -31t146 57q123 99 187 322t64 399q0 352 -244 352z" />
    <glyph glyph-name="omacron" unicode="&#x14d;" horiz-adv-x="814" 
d="M328 1158h462q14 0 8 -20q-17 -73 -50 -118h-467q-1 0 -4 5t1 17q26 116 50 116zM512 898q142 0 212 -89t70 -236t-64 -282t-176 -219t-255 -84t-212 89t-69 230t63 276t176 225t255 90zM482 792q-60 0 -111 -93t-79 -225t-25 -256t65 -124t114 101t77 230t22 248
t-63 119z" />
    <glyph glyph-name="Obreve" unicode="&#x14e;" horiz-adv-x="1252" 
d="M814 1576q40 0 90 29t67 50t24 17t21 -26t11 -28t-5 -11t-4 -7q-108 -144 -228 -144t-172 144q-2 4 -2 14t27 37t35 17q16 -34 56 -63t80 -29zM766 1334q212 0 347 -151t135 -383q0 -156 -64 -307t-167 -263t-239 -181t-274 -69q-212 0 -346 151t-134 381q0 156 64 308
t166 264t238 181t274 69zM718 1222q-162 0 -283 -214t-121 -509t127 -376q49 -31 124 -31t146 57q123 99 187 322t64 399q0 352 -244 352z" />
    <glyph glyph-name="obreve" unicode="&#x14f;" horiz-adv-x="814" 
d="M573 1140q45 0 91 31t72 85q4 6 11 6t27 -17t19 -23t-7 -18q-38 -82 -101 -133t-136 -51t-123 52t-56 132v14q2 10 29 27t35 17t8 -6q4 -54 45 -85t86 -31zM512 898q142 0 212 -89t70 -236t-64 -282t-176 -219t-255 -84t-212 89t-69 230t63 276t176 225t255 90zM482 792
q-60 0 -111 -93t-79 -225t-25 -256t65 -124t114 101t77 230t22 248t-63 119z" />
    <glyph glyph-name="Ohungarumlaut" unicode="&#x150;" horiz-adv-x="1252" 
d="M932 1592q0 -38 -179 -100t-204 -62t-34 14t-9 22t36 42q167 158 250 158q48 0 94 -18t46 -56zM1322 1592q0 -38 -179 -100t-204 -62t-34 14t-9 22t36 42q167 158 250 158q48 0 94 -18t46 -56zM766 1334q212 0 347 -151t135 -383q0 -156 -64 -307t-167 -263t-239 -181
t-274 -69q-212 0 -346 151t-134 381q0 156 64 308t166 264t238 181t274 69zM718 1222q-162 0 -283 -214t-121 -509t127 -376q49 -31 124 -31t146 57q123 99 187 322t64 399q0 352 -244 352z" />
    <glyph glyph-name="ohungarumlaut" unicode="&#x151;" horiz-adv-x="814" 
d="M326 964q-8 0 -18 17t-10 29t83 110t125 138q8 6 40 6t65 -30t33 -58q0 -50 -142 -131t-176 -81zM614 964q-8 0 -18 17t-10 29t83 110t125 138q8 6 40 6t65 -30t33 -58q0 -50 -142 -131t-176 -81zM512 898q142 0 212 -89t70 -236t-64 -282t-176 -219t-255 -84t-212 89
t-69 230t63 276t176 225t255 90zM482 792q-60 0 -111 -93t-79 -225t-25 -256t65 -124t114 101t77 230t22 248t-63 119z" />
    <glyph glyph-name="OE" unicode="&#x152;" horiz-adv-x="1884" 
d="M746 1222q-160 0 -282 -214t-122 -532q0 -168 57 -276t185 -108q182 0 252 43t92 151l146 756q6 34 -6 74t-48 60q-86 46 -274 46zM532 -20q-212 0 -346 151t-134 370t106 412t279 310t359 117q110 0 247 -11t242 -12t299 5t282 6q-4 -60 -4 -182v-114q-10 -10 -38 -10
t-30 14q-22 76 -87 130t-137 54h-70q-118 0 -126 -26q-24 -66 -40 -156l-60 -308q0 -12 31 -12h205q44 0 60 17t56 107q6 14 35 14t35 -10l-72 -378q-8 -8 -36 -8t-32 16q-4 90 -25 111t-151 21t-134 -18l-58 -308q-16 -80 -16 -117t19 -47t103 -10h48q116 0 220 52
q34 18 84 68t84 112q6 12 40 12t42 -12q-148 -286 -168 -344l-658 8q-200 0 -300 -12t-154 -12z" />
    <glyph glyph-name="oe" unicode="&#x153;" horiz-adv-x="1312" 
d="M1052 898q96 0 163 -52t67 -144t-96 -177t-201 -126t-167 -41q-8 0 -8 -20q0 -116 49 -169t97 -53t88 33t68 66t35 33t22 -18t15 -35t-41 -65t-118 -96t-153 -48q-150 0 -236 120q-132 -120 -304 -120q-126 0 -207 104t-81 244q0 228 141 396t353 168q136 0 220 -120
q138 120 294 120zM1006 788q-60 0 -136 -144q-16 -30 -33 -90t-17 -75t8 -15q94 0 160 83t66 162t-48 79zM496 786q-78 0 -146 -151t-68 -325q0 -94 24 -153t66 -59q84 0 148 149t64 327q0 94 -23 153t-65 59z" />
    <glyph glyph-name="Racute" unicode="&#x154;" horiz-adv-x="1264" 
d="M617 1430q-25 0 -34 14t-9 22t36 42q167 158 250 158q48 0 94 -18t46 -56t-179 -100t-204 -62zM836 1050q0 164 -134 164q-66 0 -88 -9t-28 -41l-80 -414q-2 -6 -2 -14q0 -26 28 -33t96 -7t117 58q91 108 91 296zM1124 1046q0 -124 -88 -247t-212 -165q-10 -4 -4 -20
q94 -278 218 -434q96 -122 188 -122q0 -36 -20 -66q-28 -4 -73 -4t-87 6t-73 13t-62 24t-50 28t-41 38t-33 39q-29 32 -111 211t-110 209t-61 30t-37 -32l-54 -276q-20 -104 -20 -160q0 -20 39 -39t57 -19q4 0 4 -24t-14 -44q-168 14 -253 14t-253 -14q-2 2 -2 14t4 33t8 21
q22 0 65 13t53 31q32 52 50 166l152 776q18 102 18 137t-37 54t-61 19q-4 0 -4 12t6 32t10 24q210 -10 254 -10l262 10q119 0 237 -60q59 -30 97 -87t38 -131z" />
    <glyph glyph-name="racute" unicode="&#x155;" horiz-adv-x="874" 
d="M510 964q-8 0 -18 17t-10 29t83 110t125 138q8 6 40 6t65 -30t33 -58q0 -50 -142 -131t-176 -81zM352 898q46 0 76 -29t30 -103t-26 -178q58 136 139 223t181 87q72 0 132 -78q0 -78 -29 -139t-93 -61q-32 0 -70 44t-70 44q-50 0 -144 -181t-128 -349l-36 -178
q-56 -12 -114 -12t-116 12l120 626q4 20 4 57t-20 37q-28 0 -79 -42t-67 -64q-4 0 -21 20t-17 28q22 54 143 145t205 91z" />
    <glyph glyph-name="Rcommaaccent" unicode="&#x156;" horiz-adv-x="1264" 
d="M476 -202q0 48 71 69t157 21q24 -26 24 -93t-92 -141t-168 -90h-6q-12 0 -27 9t-15 19q0 2 29 18t57 41t28 46t-29 47t-29 54zM836 1050q0 164 -134 164q-66 0 -88 -9t-28 -41l-80 -414q-2 -6 -2 -14q0 -26 28 -33t96 -7t117 58q91 108 91 296zM1124 1046
q0 -124 -88 -247t-212 -165q-10 -4 -4 -20q94 -278 218 -434q96 -122 188 -122q0 -36 -20 -66q-28 -4 -73 -4t-87 6t-73 13t-62 24t-50 28t-41 38t-33 39q-29 32 -111 211t-110 209t-61 30t-37 -32l-54 -276q-20 -104 -20 -160q0 -20 39 -39t57 -19q4 0 4 -24t-14 -44
q-168 14 -253 14t-253 -14q-2 2 -2 14t4 33t8 21q22 0 65 13t53 31q32 52 50 166l152 776q18 102 18 137t-37 54t-61 19q-4 0 -4 12t6 32t10 24q210 -10 254 -10l262 10q119 0 237 -60q59 -30 97 -87t38 -131z" />
    <glyph glyph-name="rcommaaccent" unicode="&#x157;" horiz-adv-x="874" 
d="M60 -202q0 48 71 69t157 21q24 -26 24 -93t-92 -141t-168 -90h-6q-12 0 -27 9t-15 19q0 2 29 18t57 41t28 46t-29 47t-29 54zM352 898q46 0 76 -29t30 -103t-26 -178q58 136 139 223t181 87q72 0 132 -78q0 -78 -29 -139t-93 -61q-32 0 -70 44t-70 44q-50 0 -144 -181
t-128 -349l-36 -178q-56 -12 -114 -12t-116 12l120 626q4 20 4 57t-20 37q-28 0 -79 -42t-67 -64q-4 0 -21 20t-17 28q22 54 143 145t205 91z" />
    <glyph glyph-name="Rcaron" unicode="&#x158;" horiz-adv-x="1264" 
d="M980 1738q22 0 12 -38q-48 -32 -168 -140l-92 -86q-22 -18 -33 -18t-26 30t-69 101t-96 113q10 38 26 38t87 -45t113 -79q56 34 143 79t103 45zM836 1050q0 164 -134 164q-66 0 -88 -9t-28 -41l-80 -414q-2 -6 -2 -14q0 -26 28 -33t96 -7t117 58q91 108 91 296z
M1124 1046q0 -124 -88 -247t-212 -165q-10 -4 -4 -20q94 -278 218 -434q96 -122 188 -122q0 -36 -20 -66q-28 -4 -73 -4t-87 6t-73 13t-62 24t-50 28t-41 38t-33 39q-29 32 -111 211t-110 209t-61 30t-37 -32l-54 -276q-20 -104 -20 -160q0 -20 39 -39t57 -19q4 0 4 -24
t-14 -44q-168 14 -253 14t-253 -14q-2 2 -2 14t4 33t8 21q22 0 65 13t53 31q32 52 50 166l152 776q18 102 18 137t-37 54t-61 19q-4 0 -4 12t6 32t10 24q210 -10 254 -10l262 10q119 0 237 -60q59 -30 97 -87t38 -131z" />
    <glyph glyph-name="rcaron" unicode="&#x159;" horiz-adv-x="874" 
d="M810 1356q16 0 6 -46q-93 -80 -180 -185t-99 -105q-11 0 -27 44q-45 122 -134 246q10 46 25 46t78 -55t97 -93q52 40 135 94t99 54zM352 898q46 0 76 -29t30 -103t-26 -178q58 136 139 223t181 87q72 0 132 -78q0 -78 -29 -139t-93 -61q-32 0 -70 44t-70 44
q-50 0 -144 -181t-128 -349l-36 -178q-56 -12 -114 -12t-116 12l120 626q4 20 4 57t-20 37q-28 0 -79 -42t-67 -64q-4 0 -21 20t-17 28q22 54 143 145t205 91z" />
    <glyph glyph-name="Sacute" unicode="&#x15a;" horiz-adv-x="898" 
d="M613 1436q-25 0 -34 14t-9 22t36 42q167 158 250 158q48 0 94 -18t46 -56t-179 -100t-204 -62zM826 930q-44 0 -44 33t-10 75t-31 86t-61 74t-91 30t-90 -24t-68 -76t-29 -88t4 -53t13 -34t17 -31t25 -31t27 -28t32 -29t40 -34t45 -36t68 -51q60 -46 105 -98
q44 -53 44 -163t-47 -205t-121 -151q-153 -116 -303 -116q-149 0 -347 52q10 86 10 147t-1 123l-1 62q0 16 48 16q8 0 26 -5t22 -11q0 -92 60 -181t152 -89q56 0 100 23q70 37 99 108t29 111t-25 80t-49 63t-82 69t-85 69t-34 29t-30 27t-30 31t-24 30t-23 36t-18 45
t-12 105t46 161t118 140q156 119 310 119q71 0 166 -24q94 -24 136 -32q-50 -354 -58 -354h-28z" />
    <glyph glyph-name="sacute" unicode="&#x15b;" horiz-adv-x="650" 
d="M412 964q-8 0 -18 17t-10 29t83 110t125 138q8 6 40 6t65 -30t33 -58q0 -50 -142 -131t-176 -81zM423 898q133 0 201 -58q22 -28 22 -79t-22 -83t-57 -32t-60 24t-38 53q-35 77 -91 77q-38 0 -54 -20t-16 -62q0 -68 124 -227t124 -261t-99 -174t-230 -72t-207 64
q-18 22 -18 73t22 83t57 32t62 -24t41 -53q37 -77 92 -77q64 0 64 86q0 64 -124 223t-124 262t99 174t232 71z" />
    <glyph glyph-name="Scircumflex" unicode="&#x15c;" horiz-adv-x="898" 
d="M916 1462q-18 0 -99 45t-127 79q-62 -34 -162 -79t-116 -45q-24 0 -14 38q64 38 159 112t125 103t40 29q14 0 55 -54l39 -52q80 -96 128 -138q-10 -38 -28 -38zM826 930q-44 0 -44 33t-10 75t-31 86t-61 74t-91 30t-90 -24t-68 -76t-29 -88t4 -53t13 -34t17 -31t25 -31
t27 -28t32 -29t40 -34t45 -36t68 -51q60 -46 105 -98q44 -53 44 -163t-47 -205t-121 -151q-153 -116 -303 -116q-149 0 -347 52q10 86 10 147t-1 123l-1 62q0 16 48 16q8 0 26 -5t22 -11q0 -92 60 -181t152 -89q56 0 100 23q70 37 99 108t29 111t-25 80t-49 63t-82 69
t-85 69t-34 29t-30 27t-30 31t-24 30t-23 36t-18 45t-12 105t46 161t118 140q156 119 310 119q71 0 166 -24q94 -24 136 -32q-50 -354 -58 -354h-28z" />
    <glyph glyph-name="scircumflex" unicode="&#x15d;" horiz-adv-x="650" 
d="M629 1020q-15 0 -78 55t-97 93q-52 -40 -135 -94t-98 -54t-5 46q40 34 118 120t110 128t44 42t17 -11q89 -195 149 -279q-10 -46 -25 -46zM423 898q133 0 201 -58q22 -28 22 -79t-22 -83t-57 -32t-60 24t-38 53q-35 77 -91 77q-38 0 -54 -20t-16 -62q0 -68 124 -227
t124 -261t-99 -174t-230 -72t-207 64q-18 22 -18 73t22 83t57 32t62 -24t41 -53q37 -77 92 -77q64 0 64 86q0 64 -124 223t-124 262t99 174t232 71z" />
    <glyph glyph-name="Scedilla" unicode="&#x15e;" horiz-adv-x="898" 
d="M826 930q-44 0 -44 33t-10 75t-31 86t-61 74t-91 30t-90 -24t-68 -76t-29 -88t4 -53t13 -34t17 -31t25 -31t27 -28t32 -29t40 -34t45 -36t68 -51q60 -46 105 -98q44 -53 44 -163t-47 -205t-121 -151q-153 -116 -320 -116q-19 0 -39 1l-33 -51q26 2 40 2q48 0 77 -37
t19 -83q-16 -84 -82 -134t-151 -50t-113 38q0 20 6 46t18 26q2 0 39 -17t65 -17q86 0 98 67t-40 67q-34 0 -68 -14q-4 0 -15 16t-7 22q16 20 44 65t39 60q-100 12 -227 45q10 86 10 147t-1 123l-1 62q0 16 48 16q8 0 26 -5t22 -11q0 -92 60 -181t152 -89q56 0 100 23
q70 37 99 108t29 111t-25 80t-49 63t-82 69t-85 69t-34 29t-30 27t-30 31t-24 30t-23 36t-18 45t-12 105t46 161t118 140q156 119 310 119q71 0 166 -24q94 -24 136 -32q-50 -354 -58 -354h-28z" />
    <glyph glyph-name="scedilla" unicode="&#x15f;" horiz-adv-x="650" 
d="M423 898q133 0 201 -58q22 -28 22 -79t-22 -83t-57 -32t-60 24t-38 53q-35 77 -91 77q-38 0 -54 -20t-16 -62q0 -68 124 -227t124 -261t-99 -174t-237 -72h-20l-36 -50q26 2 56 2t57 -29t27 -62t-12 -64t-38 -66t-79 -59t-129 -24t-102 16q-10 22 -10 46t15 40t31 16
t46 -21t67 -21t64 26t27 58q0 50 -42 50q-34 0 -68 -14q-4 0 -17 15t-4 27t39 59t42 64q-66 15 -114 55q-18 22 -18 73t22 83t57 32t62 -24t41 -53q37 -77 92 -77q64 0 64 86q0 64 -124 223t-124 262t99 174t232 71z" />
    <glyph glyph-name="Scaron" unicode="&#x160;" horiz-adv-x="898" 
d="M912 1744q22 0 12 -38q-48 -32 -168 -140l-92 -86q-22 -18 -33 -18t-26 30t-69 101t-96 113q10 38 26 38t87 -45t113 -79q56 34 143 79t103 45zM826 930q-44 0 -44 33t-10 75t-31 86t-61 74t-91 30t-90 -24t-68 -76t-29 -88t4 -53t13 -34t17 -31t25 -31t27 -28t32 -29
t40 -34t45 -36t68 -51q60 -46 105 -98q44 -53 44 -163t-47 -205t-121 -151q-153 -116 -303 -116q-149 0 -347 52q10 86 10 147t-1 123l-1 62q0 16 48 16q8 0 26 -5t22 -11q0 -92 60 -181t152 -89q56 0 100 23q70 37 99 108t29 111t-25 80t-49 63t-82 69t-85 69t-34 29
t-30 27t-30 31t-24 30t-23 36t-18 45t-12 105t46 161t118 140q156 119 310 119q71 0 166 -24q94 -24 136 -32q-50 -354 -58 -354h-28z" />
    <glyph glyph-name="scaron" unicode="&#x161;" horiz-adv-x="650" 
d="M696 1356q16 0 6 -46q-93 -80 -180 -185t-99 -105q-11 0 -27 44q-45 122 -134 246q10 46 25 46t78 -55t97 -93q52 40 135 94t99 54zM423 898q133 0 201 -58q22 -28 22 -79t-22 -83t-57 -32t-60 24t-38 53q-35 77 -91 77q-38 0 -54 -20t-16 -62q0 -68 124 -227t124 -261
t-99 -174t-230 -72t-207 64q-18 22 -18 73t22 83t57 32t62 -24t41 -53q37 -77 92 -77q64 0 64 86q0 64 -124 223t-124 262t99 174t232 71z" />
    <glyph glyph-name="Tcommaaccent" unicode="&#x162;" horiz-adv-x="1146" 
d="M108 6q0 12 4 33t8 21q22 0 65 13t53 31q30 52 50 166l140 724q26 134 26 167t-26 43t-113 10t-145 -45t-104 -151q-6 -10 -19 -10t-31 5t-20 9l98 326q76 -22 124 -22l404 -12l412 12q46 0 134 22l-30 -328q-4 -4 -24 -9t-34 -5t-14 10q-7 198 -162 198q-130 0 -156 -23
t-58 -191l-140 -722q-20 -104 -20 -160q0 -20 39 -39t57 -19q4 0 4 -24t-14 -44q-168 14 -260 14t-246 -14q-2 2 -2 14zM216 -202q0 48 71 69t157 21q24 -26 24 -93t-92 -141t-168 -90h-6q-12 0 -27 9t-15 19q0 2 29 18t57 41t28 46t-29 47t-29 54z" />
    <glyph glyph-name="tcommaaccent" unicode="&#x163;" horiz-adv-x="578" 
d="M392 1080q46 0 70 -8l-46 -214h174q20 0 20 -41t-24 -77h-192l-94 -484q-4 -12 -4 -53t20 -41q28 0 78 42t68 64q4 0 21 -20t17 -28q-22 -54 -143 -145t-205 -91q-46 0 -76 29t-30 68q0 85 20 165l96 494h-112q-8 0 -8 23t9 54t19 41h116l38 196q2 12 62 19t106 7z
M66 -202q0 48 71 69t157 21q24 -26 24 -93t-92 -141t-168 -90h-6q-12 0 -27 9t-15 19q0 2 29 18t57 41t28 46t-29 47t-29 54z" />
    <glyph glyph-name="Tcaron" unicode="&#x164;" horiz-adv-x="1146" 
d="M932 1752q22 0 12 -38q-48 -32 -168 -140l-92 -86q-22 -18 -33 -18t-26 30t-69 101t-96 113q10 38 26 38t87 -45t113 -79q56 34 143 79t103 45zM108 6q0 12 4 33t8 21q22 0 65 13t53 31q30 52 50 166l140 724q26 134 26 167t-26 43t-113 10t-145 -45t-104 -151
q-6 -10 -19 -10t-31 5t-20 9l98 326q76 -22 124 -22l404 -12l412 12q46 0 134 22l-30 -328q-4 -4 -24 -9t-34 -5t-14 10q-7 198 -162 198q-130 0 -156 -23t-58 -191l-140 -722q-20 -104 -20 -160q0 -20 39 -39t57 -19q4 0 4 -24t-14 -44q-168 14 -260 14t-246 -14
q-2 2 -2 14z" />
    <glyph glyph-name="tcaron" unicode="&#x165;" horiz-adv-x="578" 
d="M586 977q0 7 30 32q90 75 90 137q0 18 -21 50t-21 64q0 130 188 130q6 -18 6 -60q0 -141 -82 -247q-82 -107 -150 -147h-4q-8 0 -22 17t-14 24zM392 1080q46 0 70 -8l-46 -214h174q20 0 20 -41t-24 -77h-192l-94 -484q-4 -12 -4 -53t20 -41q28 0 78 42t68 64q4 0 21 -20
t17 -28q-22 -54 -143 -145t-205 -91q-46 0 -76 29t-30 68q0 85 20 165l96 494h-112q-8 0 -8 23t9 54t19 41h116l38 196q2 12 62 19t106 7z" />
    <glyph glyph-name="Tbar" unicode="&#x166;" horiz-adv-x="1220" 
d="M1313 1006q-29 0 -29 10q-8 198 -160 198t-166 -36q-28 -62 -50 -178l-52 -272h186q14 0 12 -14q-25 -109 -34 -116q-8 -6 -12 -6h-180l-60 -314q-18 -96 -16 -162q2 -14 46 -35t58 -21q8 0 2 -29t-12 -39q-168 14 -256 14l-272 -14q-6 12 -1 40t13 28q20 0 72 20t62 36
q26 60 42 154l62 322h-182l-6 20q0 2 2 14t6 35t14 45t18 22h176l50 266q32 158 25 177t-10 24t-37 12t-102 7q-154 0 -238 -196q-4 -10 -32 -10t-38 14l98 326q76 -22 124 -22l404 -12l412 12q46 0 134 22l-30 -328q-14 -14 -43 -14z" />
    <glyph glyph-name="tbar" unicode="&#x167;" horiz-adv-x="638" 
d="M422 1080q38 0 62 -8l-46 -214h174q20 0 20 -41t-24 -77h-192l-20 -102h180q14 0 12 -14q-20 -92 -29 -99t-11 -7h-176l-52 -268q-2 -8 -2 -26q0 -60 40 -60q28 0 82 84l18 30q12 0 36 -20t26 -38q-44 -80 -75 -123t-89 -79t-125 -36t-109 49t-42 137q0 40 8 78l52 272
h-106l-6 20q0 42 14 71t22 29h100l20 102h-112q-8 0 -8 23t9 54t19 41h116l38 196q6 26 176 26z" />
    <glyph glyph-name="Utilde" unicode="&#x168;" horiz-adv-x="1358" 
d="M240 1478q-14 0 -5 48t51 96q90 102 173 102t177 -68t164 -68q36 0 91 57t65 57q16 0 7 -47t-53 -99q-84 -100 -168 -100t-177 68t-165 68q-34 0 -93 -57t-67 -57zM1138 1308q58 0 250 16q7 -26 -4 -50q-10 -24 -14 -24q-43 0 -91 -19q-49 -19 -78 -49t-51 -144l-90 -456
q-56 -292 -218 -442t-378 -150t-326 144q-109 144 -50 488l82 422q22 136 16 154t-46 35t-60 17q-6 0 0 35t10 39q252 -12 277 -12t253 12v-36q-6 -38 -16 -38q-16 0 -70 -17t-60 -31q-26 -58 -46 -170l-92 -474q-36 -184 20 -296t186 -112t240 92t158 330l92 476q0 2 4 23
q18 92 2 118q-16 25 -65 43t-71 18q-10 3 -3 37q7 33 13 37q168 -16 226 -16z" />
    <glyph glyph-name="utilde" unicode="&#x169;" horiz-adv-x="1026" 
d="M488 1258q58 0 135 -61t135 -61q30 0 78 49t50 49q12 -6 12 -36t-69 -104t-129 -74t-136 60t-136 60q-26 0 -76 -51t-58 -51t-8 44t72 110t130 66zM350 898q46 0 76 -29t30 -86t-20 -147l-46 -238q-20 -80 -20 -119q0 -79 58 -79q50 0 131 170t107 302l42 210
q40 12 111 12t119 -12l-120 -626q-4 -20 -4 -57t20 -37q28 0 79 42t67 64q6 0 22 -20t16 -28q-22 -54 -143 -145t-205 -91q-44 0 -75 29t-31 73q0 64 10 114t14 78q-52 -106 -136 -200t-161 -94t-119 62t-42 133t32 237l40 210q4 12 4 53t-20 41q-28 0 -79 -42t-67 -64
q-4 0 -21 20t-17 28q22 54 143 145t205 91z" />
    <glyph glyph-name="Umacron" unicode="&#x16a;" horiz-adv-x="1358" 
d="M340 1594h534q24 0 -14 -93q-12 -29 -28 -45h-539q-1 0 -4 5t1 17q26 116 50 116zM1138 1308q58 0 250 16q7 -26 -4 -50q-10 -24 -14 -24q-43 0 -91 -19q-49 -19 -78 -49t-51 -144l-90 -456q-56 -292 -218 -442t-378 -150t-326 144q-109 144 -50 488l82 422
q22 136 16 154t-46 35t-60 17q-6 0 0 35t10 39q252 -12 277 -12t253 12v-36q-6 -38 -16 -38q-16 0 -70 -17t-60 -31q-26 -58 -46 -170l-92 -474q-36 -184 20 -296t186 -112t240 92t158 330l92 476q0 2 4 23q18 92 2 118q-16 25 -65 43t-71 18q-10 3 -3 37q7 33 13 37
q168 -16 226 -16z" />
    <glyph glyph-name="umacron" unicode="&#x16b;" horiz-adv-x="1026" 
d="M374 1158h462q14 0 8 -20q-17 -73 -50 -118h-467q-1 0 -4 5t1 17q26 116 50 116zM350 898q46 0 76 -29t30 -86t-20 -147l-46 -238q-20 -80 -20 -119q0 -79 58 -79q50 0 131 170t107 302l42 210q40 12 111 12t119 -12l-120 -626q-4 -20 -4 -57t20 -37q28 0 79 42t67 64
q6 0 22 -20t16 -28q-22 -54 -143 -145t-205 -91q-44 0 -75 29t-31 73q0 64 10 114t14 78q-52 -106 -136 -200t-161 -94t-119 62t-42 133t32 237l40 210q4 12 4 53t-20 41q-28 0 -79 -42t-67 -64q-4 0 -21 20t-17 28q22 54 143 145t205 91z" />
    <glyph glyph-name="Ubreve" unicode="&#x16c;" horiz-adv-x="1358" 
d="M596 1576q40 0 90 29t67 50t24 17t21 -26t11 -28t-5 -11t-4 -7q-108 -144 -228 -144t-172 144q-2 4 -2 14t27 37t35 17q16 -34 56 -63t80 -29zM1138 1308q58 0 250 16q7 -26 -4 -50q-10 -24 -14 -24q-43 0 -91 -19q-49 -19 -78 -49t-51 -144l-90 -456q-56 -292 -218 -442
t-378 -150t-326 144q-109 144 -50 488l82 422q22 136 16 154t-46 35t-60 17q-6 0 0 35t10 39q252 -12 277 -12t253 12v-36q-6 -38 -16 -38q-16 0 -70 -17t-60 -31q-26 -58 -46 -170l-92 -474q-36 -184 20 -296t186 -112t240 92t158 330l92 476q0 2 4 23q18 92 2 118
q-16 25 -65 43t-71 18q-10 3 -3 37q7 33 13 37q168 -16 226 -16z" />
    <glyph glyph-name="ubreve" unicode="&#x16d;" horiz-adv-x="1026" 
d="M601 1140q45 0 91 31t72 85q4 6 11 6t27 -17t19 -23t-7 -18q-38 -82 -101 -133t-136 -51t-123 52t-56 132v14q2 10 29 27t35 17t8 -6q4 -54 45 -85t86 -31zM350 898q46 0 76 -29t30 -86t-20 -147l-46 -238q-20 -80 -20 -119q0 -79 58 -79q50 0 131 170t107 302l42 210
q40 12 111 12t119 -12l-120 -626q-4 -20 -4 -57t20 -37q28 0 79 42t67 64q6 0 22 -20t16 -28q-22 -54 -143 -145t-205 -91q-44 0 -75 29t-31 73q0 64 10 114t14 78q-52 -106 -136 -200t-161 -94t-119 62t-42 133t32 237l40 210q4 12 4 53t-20 41q-28 0 -79 -42t-67 -64
q-4 0 -21 20t-17 28q22 54 143 145t205 91z" />
    <glyph glyph-name="Uring" unicode="&#x16e;" horiz-adv-x="1358" 
d="M648 1850q76 0 118 -58t28 -138t-80 -139t-141 -59t-119 58t-29 139t81 139t142 58zM590 1546q42 0 76 31t44 77t-13 77t-65 31t-76 -31t-44 -77t13 -77t65 -31zM1138 1308q58 0 250 16q7 -26 -4 -50q-10 -24 -14 -24q-43 0 -91 -19q-49 -19 -78 -49t-51 -144l-90 -456
q-56 -292 -218 -442t-378 -150t-326 144q-109 144 -50 488l82 422q22 136 16 154t-46 35t-60 17q-6 0 0 35t10 39q252 -12 277 -12t253 12v-36q-6 -38 -16 -38q-16 0 -70 -17t-60 -31q-26 -58 -46 -170l-92 -474q-36 -184 20 -296t186 -112t240 92t158 330l92 476q0 2 4 23
q18 92 2 118q-16 25 -65 43t-71 18q-10 3 -3 37q7 33 13 37q168 -16 226 -16z" />
    <glyph glyph-name="uring" unicode="&#x16f;" horiz-adv-x="1026" 
d="M639 1414q75 0 116 -45t41 -125t-71 -152t-146 -72t-116 45t-41 126t71 152t146 71zM710 1237q0 89 -86 89q-46 0 -81 -42t-35 -85q0 -89 80 -89q52 0 87 42t35 85zM350 898q46 0 76 -29t30 -86t-20 -147l-46 -238q-20 -80 -20 -119q0 -79 58 -79q50 0 131 170t107 302
l42 210q40 12 111 12t119 -12l-120 -626q-4 -20 -4 -57t20 -37q28 0 79 42t67 64q6 0 22 -20t16 -28q-22 -54 -143 -145t-205 -91q-44 0 -75 29t-31 73q0 64 10 114t14 78q-52 -106 -136 -200t-161 -94t-119 62t-42 133t32 237l40 210q4 12 4 53t-20 41q-28 0 -79 -42
t-67 -64q-4 0 -21 20t-17 28q22 54 143 145t205 91z" />
    <glyph glyph-name="Uhungarumlaut" unicode="&#x170;" horiz-adv-x="1358" 
d="M718 1592q0 -38 -179 -100t-204 -62t-34 14t-9 22t36 42q167 158 250 158q48 0 94 -18t46 -56zM1108 1592q0 -38 -179 -100t-204 -62t-34 14t-9 22t36 42q167 158 250 158q48 0 94 -18t46 -56zM1138 1308q58 0 250 16q7 -26 -4 -50q-10 -24 -14 -24q-43 0 -91 -19
q-49 -19 -78 -49t-51 -144l-90 -456q-56 -292 -218 -442t-378 -150t-326 144q-109 144 -50 488l82 422q22 136 16 154t-46 35t-60 17q-6 0 0 35t10 39q252 -12 277 -12t253 12v-36q-6 -38 -16 -38q-16 0 -70 -17t-60 -31q-26 -58 -46 -170l-92 -474q-36 -184 20 -296
t186 -112t240 92t158 330l92 476q0 2 4 23q18 92 2 118q-16 25 -65 43t-71 18q-10 3 -3 37q7 33 13 37q168 -16 226 -16z" />
    <glyph glyph-name="uhungarumlaut" unicode="&#x171;" horiz-adv-x="1026" 
d="M386 964q-8 0 -18 17t-10 29t83 110t125 138q8 6 40 6t65 -30t33 -58q0 -50 -142 -131t-176 -81zM674 964q-8 0 -18 17t-10 29t83 110t125 138q8 6 40 6t65 -30t33 -58q0 -50 -142 -131t-176 -81zM350 898q46 0 76 -29t30 -86t-20 -147l-46 -238q-20 -80 -20 -119
q0 -79 58 -79q50 0 131 170t107 302l42 210q40 12 111 12t119 -12l-120 -626q-4 -20 -4 -57t20 -37q28 0 79 42t67 64q6 0 22 -20t16 -28q-22 -54 -143 -145t-205 -91q-44 0 -75 29t-31 73q0 64 10 114t14 78q-52 -106 -136 -200t-161 -94t-119 62t-42 133t32 237l40 210
q4 12 4 53t-20 41q-28 0 -79 -42t-67 -64q-4 0 -21 20t-17 28q22 54 143 145t205 91z" />
    <glyph glyph-name="Uogonek" unicode="&#x172;" horiz-adv-x="1390" 
d="M360 1312q50 0 278 12v-10q0 -16 -5 -37t-11 -21q-16 0 -63 -17t-55 -31q-28 -50 -48 -170l-88 -446q-24 -120 -24 -224q0 -218 226 -218q76 0 129 14t107 53q106 76 154 325l94 484q30 162 27 184t-60 34t-89 12q-2 0 -2 26t16 42q210 -10 236 -10t216 10q0 -68 -16 -68
q-28 0 -93 -9t-71 -23q-10 -26 -44 -196l-94 -476q-66 -338 -260 -472q-98 -70 -185 -160t-87 -149t62 -59t126 41q20 13 26 12t-1 -32t-13 -37q-44 -50 -112 -89t-120 -39t-86 33t-34 89t58 147t128 157q-30 -4 -88 -4q-186 0 -296 101t-110 311q0 90 20 190l88 454
q18 96 18 136t-36 57t-58 17q-2 0 -2 28t12 40q180 -12 230 -12z" />
    <glyph glyph-name="uogonek" unicode="&#x173;" horiz-adv-x="1088" 
d="M462 198q54 0 126 173t98 299l44 216q40 12 111 12t119 -12l-120 -630q-2 -6 -2 -32q0 -60 40 -60q27 0 80 85q18 29 20 29q12 0 35 -19t29 -39q-14 -34 -57 -91t-102 -105t-95 -81t-67 -83t-31 -96q0 -52 62 -52t126 41q20 13 26 12t-1 -32t-13 -37q-44 -50 -112 -89
t-120 -39t-86 33t-34 85q0 124 164 304q-52 18 -82 68t-30 101t14 97q0 4 -4 4q-2 -2 -2 -4q-128 -274 -262 -274q-88 0 -130 62t-42 138t30 232l38 204q6 30 6 38q0 60 -40 60q-27 0 -80 -85q-18 -29 -20 -29q-12 0 -35 19t-29 39q18 42 48 90t98 98t146 50q148 0 148 -194
q0 -20 -14 -104q-58 -228 -58 -315t60 -87z" />
    <glyph glyph-name="Wcircumflex" unicode="&#x174;" horiz-adv-x="2030" 
d="M1126 1456q-18 0 -99 45t-127 79q-62 -34 -162 -79t-116 -45q-24 0 -14 38q64 38 159 112t125 103t40 29q14 0 55 -54l39 -52q80 -96 128 -138q-10 -38 -28 -38zM1844 1312q68 0 212 12q0 -72 -14 -72q-28 0 -74 -18t-68 -38q-62 -58 -142 -176l-650 -982
q-20 -30 -42 -47t-35 -17t-17 10l-136 482l-306 -428q-20 -28 -42 -46t-33 -18t-15 10l-296 1070q-30 106 -56 154q-10 20 -45 31t-59 11q-6 0 0 35t10 39q252 -12 271 -12t247 12v-10q0 -64 -14 -64q-88 0 -100 -68q-2 -16 10 -62q206 -736 210 -738t134 178l44 60
l-120 434q-36 128 -50 146q-36 50 -98 50q-6 0 0 35t10 39q252 -12 264 -12t240 12v-12q0 -62 -14 -62q-30 0 -61 -15t-35 -40t8 -71l64 -230l124 190q54 84 58 104t-12 34q-34 30 -112 30q-4 0 -4 30t16 42q174 -12 200 -12t254 12q2 -12 -3 -42t-11 -30q-28 0 -77 -20
t-71 -40q-64 -62 -138 -172l-184 -276l104 -350q4 2 195 286t255 381t69 124t-30 47t-89 20q-4 0 -4 30t16 42q174 -12 242 -12z" />
    <glyph glyph-name="wcircumflex" unicode="&#x175;" horiz-adv-x="1372" 
d="M839 1020q-15 0 -78 55t-97 93q-52 -40 -135 -94t-98 -54t-5 46q40 34 118 120t110 128t44 42t17 -11q89 -195 149 -279q-10 -46 -25 -46zM350 898q46 0 76 -29t30 -85t-16 -128l-64 -326q-6 -30 -6 -74q0 -80 52 -80q114 0 202 154q44 435 121 528q33 40 86 40
q101 0 101 -140q0 -106 -76 -394q-4 -28 -4 -84t11 -80t55 -24t112 63t117 159t49 160t-37 123t-37 110t43 79t98 28t79 -22q20 -34 20 -141t-59 -249t-144 -249t-181 -176t-175 -69t-136 44t-59 130q-160 -174 -286 -174q-84 0 -141 49t-57 137q0 52 10 104l68 344
q4 20 4 57t-20 37q-28 0 -79 -42t-67 -64q-4 0 -21 20t-17 28q22 54 143 145t205 91z" />
    <glyph glyph-name="Ycircumflex" unicode="&#x176;" horiz-adv-x="1180" 
d="M684 1456q-18 0 -99 45t-127 79q-62 -34 -162 -79t-116 -45q-24 0 -14 38q64 38 159 112t125 103t40 29q14 0 55 -54l39 -52q80 -96 128 -138q-10 -38 -28 -38zM570 1304q0 -16 -6 -35t-10 -19q-28 0 -66 -11t-42 -31t6 -44l126 -358q280 356 290 400q4 20 -25 32t-85 12
q-4 0 -4 30t16 44q168 -12 221 -12t215 12q0 -72 -16 -72q-96 0 -174 -88q-46 -52 -232 -291t-190 -265l-62 -318q-22 -104 -18 -174q0 -14 44 -32t60 -18q6 0 0 -34t-10 -40l-256 16q-80 0 -272 -16q-6 12 -1 43t13 31q20 0 71 17t61 33q22 54 46 162l66 340q5 33 -108 348
l-36 108q-38 120 -64 139q-51 37 -102 37q-4 0 -4 30t20 44l260 -12q38 0 266 12q2 -4 2 -20z" />
    <glyph glyph-name="ycircumflex" unicode="&#x177;" horiz-adv-x="1018" 
d="M845 1020q-15 0 -78 55t-97 93q-52 -40 -135 -94t-98 -54t-5 46q40 34 118 120t110 128t44 42t17 -11q89 -195 149 -279q-10 -46 -25 -46zM88 -436q-120 0 -120 106q0 50 36 90q88 -24 152 -24t113 17t71 36t46 49q42 54 42 173t-28 297t-78 356q-16 56 -46 56t-81 -42
t-67 -64q-6 0 -22 20t-16 28q22 54 143 145t204 91t150 -259q45 -177 66 -413q3 -34 6 -64l3 -30q32 40 101 181t69 214t-24 142t-48 109q0 46 40 83t88 37t81 -32t33 -78q0 -172 -64 -355t-166 -334t-222 -274t-243 -192t-219 -69z" />
    <glyph glyph-name="Ydieresis" unicode="&#x178;" horiz-adv-x="1180" 
d="M245 1752q57 0 89 -43t20 -105t-61 -105t-106 -43t-89 43t-20 105t61 105t106 43zM673 1752q57 0 89 -43t20 -105t-61 -105t-106 -43t-89 43t-20 105t61 105t106 43zM570 1304q0 -16 -6 -35t-10 -19q-28 0 -66 -11t-42 -31t6 -44l126 -358q280 356 290 400q4 20 -25 32
t-85 12q-4 0 -4 30t16 44q168 -12 221 -12t215 12q0 -72 -16 -72q-96 0 -174 -88q-46 -52 -232 -291t-190 -265l-62 -318q-22 -104 -18 -174q0 -14 44 -32t60 -18q6 0 0 -34t-10 -40l-256 16q-80 0 -272 -16q-6 12 -1 43t13 31q20 0 71 17t61 33q22 54 46 162l66 340
q5 33 -108 348l-36 108q-38 120 -64 139q-51 37 -102 37q-4 0 -4 30t20 44l260 -12q38 0 266 12q2 -4 2 -20z" />
    <glyph glyph-name="Zacute" unicode="&#x179;" horiz-adv-x="1230" 
d="M647 1430q-25 0 -34 14t-9 22t36 42q167 158 250 158q48 0 94 -18t46 -56t-179 -100t-204 -62zM606 1312h204q170 0 434 20q6 -2 8 -27t-2 -39t-670 -830l-222 -272q-28 -35 -19 -42q9 -8 21 -8h296q130 0 227 68t147 166q6 12 39 12t43 -12q-16 -34 -80 -155t-88 -193
h-962q-14 24 -8 50t16 36l902 1112h-318q-132 0 -196 -64q-54 -54 -110 -166q-8 -12 -44 -12t-42 8q86 224 126 360q42 -12 298 -12z" />
    <glyph glyph-name="zacute" unicode="&#x17a;" horiz-adv-x="862" 
d="M472 964q-8 0 -18 17t-10 29t83 110t125 138q8 6 40 6t65 -30t33 -58q0 -50 -142 -131t-176 -81zM342 898q68 0 176 -22t158 -22t95 22t75 22q38 0 38 -68l-608 -614q12 2 42 12t65 10t109 -22t114 -22t70 25t52 50t30 25q24 0 42 -56l-26 -52q-60 -120 -153 -173
q-37 -21 -92 -21t-162 24t-161 24t-112 -24t-77 -24t-31 19t-14 35l610 628q-40 -18 -78 -18t-99 22t-101 22t-70 -26t-53 -51t-34 -25t-26 16t-23 34q34 82 105 166t139 84z" />
    <glyph glyph-name="Zdotaccent" unicode="&#x17b;" horiz-adv-x="1230" 
d="M811 1752q57 0 89 -43t20 -105t-61 -105t-106 -43t-89 43t-20 105t61 105t106 43zM606 1312h204q170 0 434 20q6 -2 8 -27t-2 -39t-670 -830l-222 -272q-28 -35 -19 -42q9 -8 21 -8h296q130 0 227 68t147 166q6 12 39 12t43 -12q-16 -34 -80 -155t-88 -193h-962
q-14 24 -8 50t16 36l902 1112h-318q-132 0 -196 -64q-54 -54 -110 -166q-8 -12 -44 -12t-42 8q86 224 126 360q42 -12 298 -12z" />
    <glyph glyph-name="zdotaccent" unicode="&#x17c;" horiz-adv-x="862" 
d="M648 1374q58 0 90 -42t20 -104t-61 -105t-106 -43t-89 43t-20 105t60 104t106 42zM342 898q68 0 176 -22t158 -22t95 22t75 22q38 0 38 -68l-608 -614q12 2 42 12t65 10t109 -22t114 -22t70 25t52 50t30 25q24 0 42 -56l-26 -52q-60 -120 -153 -173q-37 -21 -92 -21
t-162 24t-161 24t-112 -24t-77 -24t-31 19t-14 35l610 628q-40 -18 -78 -18t-99 22t-101 22t-70 -26t-53 -51t-34 -25t-26 16t-23 34q34 82 105 166t139 84z" />
    <glyph glyph-name="Zcaron" unicode="&#x17d;" horiz-adv-x="1230" 
d="M1006 1738q22 0 12 -38q-48 -32 -168 -140l-92 -86q-22 -18 -33 -18t-26 30t-69 101t-96 113q10 38 26 38t87 -45t113 -79q56 34 143 79t103 45zM606 1312h204q170 0 434 20q6 -2 8 -27t-2 -39t-670 -830l-222 -272q-28 -35 -19 -42q9 -8 21 -8h296q130 0 227 68t147 166
q6 12 39 12t43 -12q-16 -34 -80 -155t-88 -193h-962q-14 24 -8 50t16 36l902 1112h-318q-132 0 -196 -64q-54 -54 -110 -166q-8 -12 -44 -12t-42 8q86 224 126 360q42 -12 298 -12z" />
    <glyph glyph-name="zcaron" unicode="&#x17e;" horiz-adv-x="862" 
d="M808 1356q16 0 6 -46q-93 -80 -180 -185t-99 -105q-11 0 -27 44q-45 122 -134 246q10 46 25 46t78 -55t97 -93q52 40 135 94t99 54zM342 898q68 0 176 -22t158 -22t95 22t75 22q38 0 38 -68l-608 -614q12 2 42 12t65 10t109 -22t114 -22t70 25t52 50t30 25q24 0 42 -56
l-26 -52q-60 -120 -153 -173q-37 -21 -92 -21t-162 24t-161 24t-112 -24t-77 -24t-31 19t-14 35l610 628q-40 -18 -78 -18t-99 22t-101 22t-70 -26t-53 -51t-34 -25t-26 16t-23 34q34 82 105 166t139 84z" />
    <glyph glyph-name="Scommaaccent" unicode="&#x218;" horiz-adv-x="898" 
d="M180 -202q0 48 71 69t157 21q24 -26 24 -93t-92 -141t-168 -90h-6q-12 0 -27 9t-15 19q0 2 29 18t57 41t28 46t-29 47t-29 54zM826 930q-44 0 -44 33t-10 75t-31 86t-61 74t-91 30t-90 -24t-68 -76t-29 -88t4 -53t13 -34t17 -31t25 -31t27 -28t32 -29t40 -34t45 -36
t68 -51q60 -46 105 -98q44 -53 44 -163t-47 -205t-121 -151q-153 -116 -303 -116q-149 0 -347 52q10 86 10 147t-1 123l-1 62q0 16 48 16q8 0 26 -5t22 -11q0 -92 60 -181t152 -89q56 0 100 23q70 37 99 108t29 111t-25 80t-49 63t-82 69t-85 69t-34 29t-30 27t-30 31
t-24 30t-23 36t-18 45t-12 105t46 161t118 140q156 119 310 119q71 0 166 -24q94 -24 136 -32q-50 -354 -58 -354h-28z" />
    <glyph glyph-name="scommaaccent" unicode="&#x219;" horiz-adv-x="650" 
d="M94 -202q0 48 71 69t157 21q24 -26 24 -93t-92 -141t-168 -90h-6q-12 0 -27 9t-15 19q0 2 29 18t57 41t28 46t-29 47t-29 54zM423 898q133 0 201 -58q22 -28 22 -79t-22 -83t-57 -32t-60 24t-38 53q-35 77 -91 77q-38 0 -54 -20t-16 -62q0 -68 124 -227t124 -261
t-99 -174t-230 -72t-207 64q-18 22 -18 73t22 83t57 32t62 -24t41 -53q37 -77 92 -77q64 0 64 86q0 64 -124 223t-124 262t99 174t232 71z" />
    <glyph glyph-name="uni021A" unicode="&#x21a;" horiz-adv-x="1146" 
d="M216 -202q0 48 71 69t157 21q24 -26 24 -93t-92 -141t-168 -90h-6q-12 0 -27 9t-15 19q0 2 29 18t57 41t28 46t-29 47t-29 54zM108 6q0 12 4 33t8 21q22 0 65 13t53 31q30 52 50 166l140 724q26 134 26 167t-26 43t-113 10t-145 -45t-104 -151q-6 -10 -19 -10t-31 5
t-20 9l98 326q76 -22 124 -22l404 -12l412 12q46 0 134 22l-30 -328q-4 -4 -24 -9t-34 -5t-14 10q-7 198 -162 198q-130 0 -156 -23t-58 -191l-140 -722q-20 -104 -20 -160q0 -20 39 -39t57 -19q4 0 4 -24t-14 -44q-168 14 -260 14t-246 -14q-2 2 -2 14z" />
    <glyph glyph-name="uni021B" unicode="&#x21b;" horiz-adv-x="578" 
d="M66 -202q0 48 71 69t157 21q24 -26 24 -93t-92 -141t-168 -90h-6q-12 0 -27 9t-15 19q0 2 29 18t57 41t28 46t-29 47t-29 54zM392 1080q46 0 70 -8l-46 -214h174q20 0 20 -41t-24 -77h-192l-94 -484q-4 -12 -4 -53t20 -41q28 0 78 42t68 64q4 0 21 -20t17 -28
q-22 -54 -143 -145t-205 -91q-46 0 -76 29t-30 68q0 85 20 165l96 494h-112q-8 0 -8 23t9 54t19 41h116l38 196q2 12 62 19t106 7z" />
    <glyph glyph-name="uni0237" unicode="&#x237;" horiz-adv-x="726" 
d="M456 898q60 0 105 -45t45 -147q0 -56 -82 -466q-54 -286 -172 -444q-58 -76 -166 -146t-162 -86q-32 20 -32 44t6 30q134 118 188 226t98 336l80 424q4 12 4 32q0 60 -40 60q-14 0 -39 -28t-43 -57t-20 -29q-12 0 -34 19t-28 39q30 74 108 156t184 82z" />
    <glyph glyph-name="uni02F3" unicode="&#x2f3;" horiz-adv-x="456" 
d="M622 1070q-34 0 -176 81t-142 131q0 28 33 58t64 30t41 -6q42 -40 125 -138t83 -110t-10 -29t-18 -17z" />
    <glyph glyph-name="uni02F4" unicode="&#x2f4;" horiz-adv-x="456" 
d="M396 1070q-8 0 -18 17t-10 29t83 110t125 138q8 6 40 6t65 -30t33 -58q0 -50 -142 -131t-176 -81z" />
    <glyph glyph-name="uni02F5" unicode="&#x2f5;" horiz-adv-x="532" 
d="M478 1412q-16 0 -80 37t-106 69q-56 -32 -136 -69t-98 -37t-10 40q8 8 56 47l80 65q62 52 96 92q18 18 33 18t29 -18q41 -61 102 -130q60 -70 60 -74q-10 -40 -26 -40z" />
    <glyph glyph-name="uni02F6" unicode="&#x2f6;" horiz-adv-x="800" 
d="M1026 1622q6 0 6 -43t-63 -108t-140 -65t-169 54t-158 54q-32 0 -89 -45t-63 -45t-6 42t68 108t143 66t166 -54t146 -54t128 67q25 23 31 23z" />
    <glyph glyph-name="gravecomb" unicode="&#x300;" horiz-adv-x="456" 
d="M622 988q-34 0 -176 81t-142 131q0 28 33 58t64 30t41 -6q42 -40 125 -138t83 -110t-10 -29t-18 -17z" />
    <glyph glyph-name="acutecomb" unicode="&#x301;" horiz-adv-x="456" 
d="M396 988q-8 0 -18 17t-10 29t83 110t125 138q8 6 40 6t65 -30t33 -58q0 -50 -142 -131t-176 -81z" />
    <glyph glyph-name="uni0302" unicode="&#x302;" horiz-adv-x="526" 
d="M669 986q-15 0 -78 55t-97 93q-52 -40 -135 -94t-98 -54t-5 46q40 34 118 120t110 128t44 42t17 -11q89 -195 149 -279q-10 -46 -25 -46z" />
    <glyph glyph-name="tildecomb" unicode="&#x303;" horiz-adv-x="820" 
d="M520 1272q58 0 135 -61t135 -61q30 0 78 49t50 49q12 -6 12 -36t-69 -104t-129 -74t-136 60t-136 60q-26 0 -76 -51t-58 -51t-8 44t72 110t130 66z" />
    <glyph glyph-name="uni0304" unicode="&#x304;" horiz-adv-x="708" 
d="M364 1198h462q14 0 8 -20q-17 -73 -50 -118h-467q-1 0 -4 5t1 17q26 116 50 116z" />
    <glyph glyph-name="uni0305" unicode="&#x305;" horiz-adv-x="1052" 
d="M312 1612h1082q12 0 5 -39t-21 -68t-19 -32t-7 -5h-1082l-8 20q0 10 19 67t31 57z" />
    <glyph glyph-name="uni0306" unicode="&#x306;" horiz-adv-x="466" 
d="M465 1162q45 0 91 31t72 85q4 6 11 6t27 -17t19 -23t-7 -18q-38 -82 -101 -133t-136 -51t-123 52t-56 132v14q2 10 29 27t35 17t8 -6q4 -54 45 -85t86 -31z" />
    <glyph glyph-name="uni0307" unicode="&#x307;" horiz-adv-x="570" 
d="M548 1378q58 0 90 -42t20 -104t-61 -105t-106 -43t-89 43t-20 105t60 104t106 42z" />
    <glyph glyph-name="uni0308" unicode="&#x308;" horiz-adv-x="686" 
d="M390 1208q54 0 83 -40t19 -98t-56 -99t-100 -41t-83 41t-19 99t56 98t100 40zM742 1208q54 0 83 -40t19 -98t-57 -99t-101 -41t-83 41t-19 98t57 98t101 41z" />
    <glyph glyph-name="hookabovecomb" unicode="&#x309;" horiz-adv-x="334" 
d="M452 1272q-60 0 -76 -72q-8 -44 -82 -44q-14 0 -25 9t-9 25q14 72 81 115t133 43t96 -33t20 -84t-45 -90t-92 -62t-63 -49l-2 -16q-2 -4 -29 -11t-47 -7q-18 14 -12 34q10 58 102 98q72 32 83 88t-33 56z" />
    <glyph glyph-name="uni030A" unicode="&#x30a;" horiz-adv-x="852" 
d="M671 1414q75 0 118 -57t28 -138t-81 -140t-141 -59t-119 58t-29 139t82 139t142 58zM612 1110q42 0 76 31t44 77t-13 77t-65 31t-76 -31t-44 -77t13 -77t65 -31z" />
    <glyph glyph-name="uni030B" unicode="&#x30b;" horiz-adv-x="700" 
d="M280 988q-8 0 -18 17t-10 29t83 110t125 138q8 6 40 6t65 -30t33 -58q0 -50 -142 -131t-176 -81zM568 988q-8 0 -18 17t-10 29t83 110t125 138q8 6 40 6t65 -30t33 -58q0 -50 -142 -131t-176 -81z" />
    <glyph glyph-name="uni030C" unicode="&#x30c;" horiz-adv-x="526" 
d="M736 1322q16 0 6 -46q-93 -80 -180 -185t-99 -105q-11 0 -27 44q-45 122 -134 246q10 46 25 46t78 -55t97 -93q52 40 135 94t99 54z" />
    <glyph glyph-name="uni0312" unicode="&#x312;" horiz-adv-x="262" 
d="M458 1036q0 -48 -71 -69t-157 -21q-24 26 -24 93t92 141t168 90h6q12 0 27 -9t15 -19q0 -2 -29 -18t-57 -41t-28 -46t29 -47t29 -54z" />
    <glyph glyph-name="uni0315" unicode="&#x315;" horiz-adv-x="262" 
d="M210 949q0 7 30 32q90 75 90 137q0 18 -21 50t-21 64q0 130 188 130q6 -18 6 -60q0 -141 -82 -247q-82 -107 -150 -147h-4q-8 0 -22 17t-14 24z" />
    <glyph glyph-name="dotbelowcomb" unicode="&#x323;" horiz-adv-x="570" 
d="M263 -88q57 0 89 -43t20 -105t-61 -105t-106 -43t-89 43t-20 105t61 105t106 43z" />
    <glyph glyph-name="uni0326" unicode="&#x326;" horiz-adv-x="262" 
d="M-6 -202q0 48 71 69t157 21q24 -26 24 -93t-92 -141t-168 -90h-6q-12 0 -27 9t-15 19q0 2 29 18t57 41t28 46t-29 47t-29 54z" />
    <glyph glyph-name="uni0327" unicode="&#x327;" horiz-adv-x="812" 
d="M453 -54q27 0 51 -31t16 -71q-14 -72 -71 -114t-129 -42t-94 32q0 39 9 50q9 12 12 12t33 -15t54 -15q72 0 84 57t-34 57q-28 0 -58 -12q-4 0 -14 13t-2 24t35 52t35 53h60l-36 -52q22 2 49 2z" />
    <glyph glyph-name="mu" unicode="&#x3bc;" horiz-adv-x="934" 
d="M368 892q18 0 61 -28t39 -46q-26 -128 -86 -286l-28 -86q-22 -118 -6 -192t62 -74q124 0 192 228l96 458q44 30 97 26t87 -28t28 -46q-16 -96 -104 -326l-18 -46q-30 -122 -27 -206t57 -84q30 0 67 22t53 40q6 0 16 -26q4 -20 -2 -40q-30 -66 -86 -113t-112 -46t-85 80
t-21 183q-50 -86 -84 -136t-89 -94t-97 -44t-52 11t-16 18t-10 20t-7 22q-15 45 -15 99q0 -8 -19 -84t-34 -151t-14 -164t31 -135q-12 -16 -49 -44t-59 -28q-108 0 -108 200q0 112 164 662q9 44 30 188q2 6 50 256q8 12 44 26t54 14z" />
    <glyph glyph-name="uni2002" unicode="&#x2002;" horiz-adv-x="956" 
 />
    <glyph glyph-name="uni2003" unicode="&#x2003;" horiz-adv-x="1612" 
 />
    <glyph glyph-name="uni2009" unicode="&#x2009;" horiz-adv-x="184" 
 />
    <glyph glyph-name="uni200A" unicode="&#x200a;" horiz-adv-x="92" 
 />
    <glyph glyph-name="uni200B" unicode="&#x200b;" 
 />
    <glyph glyph-name="uni2010" unicode="&#x2010;" horiz-adv-x="576" 
d="M642 535q0 -23 -19 -74t-33 -53l-452 -22q-10 0 -10 26t17 73t31 49l454 24q12 0 12 -23z" />
    <glyph glyph-name="uni2011" unicode="&#x2011;" horiz-adv-x="576" 
d="M642 535q0 -23 -19 -74t-33 -53l-452 -22q-10 0 -10 26t17 73t31 49l454 24q12 0 12 -23z" />
    <glyph glyph-name="figuredash" unicode="&#x2012;" horiz-adv-x="924" 
d="M940 536q14 0 14 -31t-17 -69t-27 -48h-772q-14 0 -14 31t17 69t27 48h772z" />
    <glyph glyph-name="endash" unicode="&#x2013;" horiz-adv-x="924" 
d="M940 536q14 0 14 -31t-17 -69t-27 -48h-772q-14 0 -14 31t17 69t27 48h772z" />
    <glyph glyph-name="emdash" unicode="&#x2014;" horiz-adv-x="1648" 
d="M1646 536q14 0 14 -31t-17 -69t-27 -48h-1478q-14 0 -14 31t17 69t27 48h1478z" />
    <glyph glyph-name="afii00208" unicode="&#x2015;" horiz-adv-x="2010" 
d="M2014 536q14 0 14 -31t-17 -69t-27 -48h-1846q-14 0 -14 31t17 69t27 48h1846z" />
    <glyph glyph-name="quoteleft" unicode="&#x2018;" horiz-adv-x="296" 
d="M507 1412q13 0 35 -18t24 -34q-56 -32 -104 -83t-62 -97q-4 -26 26 -71t23 -77t-50 -58t-87 -26t-66 22q-20 46 -3 135t81 164t117 109t66 34z" />
    <glyph glyph-name="quoteright" unicode="&#x2019;" horiz-adv-x="306" 
d="M269 948q-13 0 -35 18t-24 34q56 32 104 83t62 97q4 26 -26 71t-23 77t50 58t87 26t66 -22q20 -42 2 -133t-82 -166t-116 -109t-65 -34z" />
    <glyph glyph-name="quotesinglbase" unicode="&#x201a;" horiz-adv-x="296" 
d="M33 -216q-13 0 -34 18t-23 34q56 32 105 84t59 96q4 26 -26 71t-23 77t50 58t87 26t66 -22q20 -46 3 -135t-81 -164t-117 -109t-66 -34z" />
    <glyph glyph-name="quotedblleft" unicode="&#x201c;" horiz-adv-x="614" 
d="M507 1412q13 0 35 -18t24 -34q-56 -32 -104 -83t-62 -97q-4 -26 26 -71t23 -77t-50 -58t-87 -26t-66 22q-20 46 -3 135t81 164t117 109t66 34zM783 1412q13 0 34 -18t23 -34q-56 -32 -105 -84t-59 -96q-4 -26 26 -71t23 -77t-50 -58t-88 -26t-67 22q-20 42 -2 133t82 166
t117 109t66 34z" />
    <glyph glyph-name="quotedblright" unicode="&#x201d;" horiz-adv-x="614" 
d="M557 948q-13 0 -35 18t-24 34q56 32 104 83t62 97q4 26 -26 71t-23 77t50 58t87 26t66 -22q20 -42 2 -133t-82 -166t-116 -109t-65 -34zM281 948q-13 0 -34 18t-23 34q56 32 105 84t59 96q4 26 -26 71t-23 77t50 58t87 26t66 -22q20 -46 3 -135t-81 -164t-117 -109
t-66 -34z" />
    <glyph glyph-name="quotedblbase" unicode="&#x201e;" horiz-adv-x="594" 
d="M323 -216q-13 0 -34 18t-23 34q56 32 105 84t59 96q4 26 -26 71t-23 77t50 58t87 26t66 -22q20 -46 3 -135t-81 -164t-117 -109t-66 -34zM47 -216q-13 0 -34 18t-23 34q56 32 104 83t62 97q4 26 -26 71t-23 77t49 58t87 26t67 -22q20 -42 2 -133t-82 -166t-117 -109
t-66 -34z" />
    <glyph glyph-name="dagger" unicode="&#x2020;" horiz-adv-x="682" 
d="M570 720h-8q-14 0 -18 -20q-34 -176 -124 -720q-22 10 -78 10t-86 -10q136 616 156 720q4 20 -12 20h-8q-4 0 -198 -10q4 10 18 76q12 66 14 88q190 -10 194 -10h8q14 0 18 16q18 92 58 378q44 -8 81 -8t85 8q-82 -338 -88 -366t8 -28h8q6 0 200 10q-25 -92 -32 -164
q-190 10 -196 10z" />
    <glyph glyph-name="daggerdbl" unicode="&#x2021;" horiz-adv-x="682" 
d="M570 720h-8q-14 0 -18 -20l-32 -160q-4 -20 12 -20h8q4 0 198 10q-4 -10 -17 -76t-15 -88q-190 10 -194 10h-8q-14 0 -18 -16q-10 -52 -56 -378q-44 8 -81 8t-85 -8q82 338 88 366t-10 28h-10l-196 -10q26 94 32 164q190 -10 192 -10h10q14 0 18 20l32 160q4 20 -12 20
h-8q-4 0 -198 -10q4 10 18 76q12 66 14 88q190 -10 194 -10h8q14 0 18 16q18 92 58 378q44 -8 81 -8t85 8q-82 -338 -88 -366t8 -28h8q6 0 200 10q-25 -92 -32 -164q-190 10 -196 10z" />
    <glyph glyph-name="bullet" unicode="&#x2022;" horiz-adv-x="754" 
d="M532 808q108 0 167 -83t37 -199t-114 -198t-200 -82t-168 82t-38 198t115 199t201 83z" />
    <glyph glyph-name="onedotenleader" unicode="&#x2024;" horiz-adv-x="1288" 
d="M643 -22q-57 0 -89 47t-20 107t61 103t105 43t87 -43t19 -104t-59 -107t-104 -46z" />
    <glyph glyph-name="ellipsis" unicode="&#x2026;" horiz-adv-x="1456" 
d="M211 -22q-57 0 -90 47t-21 107t61 103t105 43t88 -43t20 -104t-59 -107t-104 -46zM727 -22q-57 0 -89 47t-20 107t61 103t105 43t87 -43t19 -104t-59 -107t-104 -46zM1245 -22q-57 0 -90 47t-21 107t61 103t105 43t88 -43t20 -104t-59 -107t-104 -46z" />
    <glyph glyph-name="perthousand" unicode="&#x2030;" horiz-adv-x="1902" 
d="M189 -8q-79 0 -79 28l1138 1244q28 28 40 28q58 0 92 -34l-1136 -1244q-22 -22 -55 -22zM1016 612q122 0 190 -90t44 -216t-127 -215t-225 -89t-190 89t-44 215t127 216t225 90zM984 536q-98 0 -134 -188q-50 -272 76 -272q52 0 87 55t49 129q54 276 -78 276zM594 1284
q122 0 190 -90t44 -216t-127 -215t-225 -89t-190 89t-44 215t127 216t225 90zM562 1210q-98 0 -134 -190q-50 -270 76 -270q52 0 87 55t49 127q54 278 -78 278zM1658 612q122 0 190 -90t44 -216t-127 -215t-225 -89t-190 89t-44 215t127 216t225 90zM1626 536
q-98 0 -134 -188q-50 -272 74 -272q52 0 87 55t49 129q54 276 -76 276z" />
    <glyph glyph-name="minute" unicode="&#x2032;" horiz-adv-x="282" 
d="M443 1398q29 0 51 -18t16 -46q-12 -64 -83 -174t-110 -151t-49 -41q-20 0 -16 24q0 2 7 27t17 64t32 121t33 115t42 56t60 23z" />
    <glyph glyph-name="second" unicode="&#x2033;" horiz-adv-x="552" 
d="M443 1398q29 0 51 -18t16 -46q-12 -64 -83 -174t-110 -151t-49 -41q-20 0 -16 24q0 2 7 27t17 64t32 121t33 115t42 56t60 23zM692 1398q28 0 51 -18t17 -46q-12 -64 -109 -215t-131 -151q-22 0 -18 24q0 2 7 27t17 64t32 121t33 115t42 56t59 23z" />
    <glyph glyph-name="uni2038" unicode="&#x2038;" horiz-adv-x="712" 
d="M560 -122q-18 0 -76 57t-98 121q-58 -62 -143 -120t-100 -58t-15 36l2 12q4 6 46 40t104 99t88 105t29 48t17 8t20 -10t21 -55t34 -80t43 -68t43 -58t19 -27q-16 -50 -34 -50z" />
    <glyph glyph-name="guilsinglleft" unicode="&#x2039;" horiz-adv-x="598" 
d="M366 496l106 -142q112 -144 109 -159t-33 -31t-44 -18q-26 38 -121 131t-201 177q-12 6 -7 34t25 48q118 69 159 98q41 28 75 51t60 43t49 37t41 32l58 49q12 -2 35 -18t21 -32q-4 -16 -168 -158z" />
    <glyph glyph-name="guilsinglright" unicode="&#x203a;" horiz-adv-x="598" 
d="M450 496l-108 142q-112 144 -109 159t33 31t44 18l14 -18q128 -160 308 -292q12 -18 6 -47t-20 -35q-276 -172 -358 -238t-84 -70q-12 2 -35 18t-21 32q4 16 168 158z" />
    <glyph glyph-name="uni203E" unicode="&#x203e;" horiz-adv-x="1334" 
d="M1182 1614q14 0 14 -31t-17 -69t-27 -48h-986q-14 0 -14 31t17 69t27 48h986z" />
    <glyph glyph-name="Euro" unicode="&#x20ac;" horiz-adv-x="1266" 
d="M58 486q-18 0 -18 38t24 68h82q10 64 22 100h-74q-18 0 -18 33t24 73h106q92 212 274 349t379 137t407 -56q0 -22 -9 -146t-11 -138q-6 -30 -52 -30q-4 0 -28 6q-9 111 -88 184q-80 72 -220 72q-272 0 -388 -378h326q16 0 16 -39t-32 -67h-336q-14 -70 -18 -100h330
q16 0 16 -39t-32 -67h-322q-2 -176 70 -285t218 -109q187 0 313 155q35 43 57 72t24 29q14 0 37 -21t27 -39q-4 -22 -50 -81t-120 -115q-134 -104 -394 -104q-202 0 -331 143t-131 355h-80z" />
    <glyph glyph-name="arrowleft" unicode="&#x2190;" horiz-adv-x="1434" 
d="M1358 568q14 0 14 -22t-18 -68t-34 -58h-1020l46 -66q28 -40 68 -94t40 -62q0 -18 -29 -33t-47 -19q-8 17 -123 119q-115 103 -221 189q-8 2 -8 29t26 53q274 158 464 310q12 -2 34 -17t22 -31q0 -4 -51 -51t-117 -109l-74 -70h1028z" />
    <glyph glyph-name="arrowup" unicode="&#x2191;" horiz-adv-x="668" 
d="M61 932q-15 0 -23 27t-8 45q17 6 140 143q122 137 226 269q8 12 34 12t40 -16q81 -218 210 -412q-4 -14 -26 -41t-35 -27t-117 148l-52 72l-240 -1212q-4 -12 -27 -12t-89 20l-20 8l240 1198l-76 -74q-162 -148 -177 -148z" />
    <glyph glyph-name="arrowright" unicode="&#x2192;" horiz-adv-x="1408" 
d="M46 418q-14 0 -14 22t18 70t34 60h1020l-50 68q-112 144 -109 159t33 31t44 18l14 -18q128 -160 308 -292q12 -18 6 -47t-20 -35q-276 -172 -358 -238t-84 -70q-12 2 -35 18t-21 32q4 16 168 158l74 64h-1028z" />
    <glyph glyph-name="arrowdown" unicode="&#x2193;" horiz-adv-x="682" 
d="M470 1470q4 12 33 12t83 -22l20 -6l-240 -1198l76 74q162 148 177 148t23 -27t8 -45q-17 -6 -140 -143q-122 -137 -226 -269q-8 -12 -34 -12t-40 16q-81 218 -210 412q4 14 26 41t35 27t117 -148l52 -72z" />
    <glyph glyph-name="universal" unicode="&#x2200;" horiz-adv-x="1304" 
d="M601 780q-79 0 -137 -4l-8 -10l66 -356l214 356q2 8 -2 8q-54 6 -133 6zM1304 1268q-20 0 -85 -30t-83 -54l-80 -126l-544 -904q-19 -38 -40 -66q-20 -28 -44 -62t-45 -34t-27 16l-210 1036q-8 52 -28 150q-6 32 -44 50t-58 18q-8 0 -2 32t12 40l242 -16q84 0 260 16
q6 -8 0 -40t-14 -32q-18 0 -61 -15t-57 -31q-8 -12 -10 -21t18 -137l24 -148q6 -8 27 -9t155 -1t200 2q10 0 16 10l90 152q58 86 63 117t-13 49t-57 27t-57 9q-6 2 -1 29t11 39l202 -12q70 0 250 12q4 -8 -1 -37t-9 -29z" />
    <glyph glyph-name="partialdiff" unicode="&#x2202;" horiz-adv-x="920" 
d="M490 740q76 0 118 -18q14 0 20 16q26 74 26 187t-30 159q-48 76 -176 76q-47 0 -81 -18q-35 -18 -48 -25t-41 -26t-34 -23q-8 4 -7 36t19 48q58 50 149 91t171 41q290 0 290 -440q0 -358 -158 -601t-408 -243q-144 0 -217 98t-35 290q28 148 159 250t283 102zM440 634
q-52 0 -94 -61t-60 -155q-60 -308 88 -308q126 0 188 328q38 196 -122 196z" />
    <glyph glyph-name="uni2206" unicode="&#x2206;" horiz-adv-x="1206" 
d="M822 1226l330 -1198q-14 -12 -20 -28h-1138q-2 4 -10 32l806 1194h32zM202 152h678q12 0 8 14l-194 720q-12 12 -24 -4l-478 -708q-10 -22 10 -22z" />
    <glyph glyph-name="gradient" unicode="&#x2207;" horiz-adv-x="1202" 
d="M374 58l-328 1198q14 12 20 28h1136q2 -4 10 -32l-806 -1194h-32zM994 1132h-676q-14 0 -10 -14l196 -720q12 -12 22 4l478 708q10 22 -10 22z" />
    <glyph glyph-name="element" unicode="&#x2208;" horiz-adv-x="876" 
d="M726 459q0 -9 -2 -19q-12 -62 -28 -62h-506q-10 0 -10 -8q-2 -100 45 -164t137 -64h350q26 -26 12 -84l-20 -36h-362q-154 0 -237 125t-50 294t158 294t273 125h380l4 -42q-12 -55 -42 -78h-364q-84 0 -154 -66t-104 -164q-4 -10 8 -10h508l2 -4l2 -21v-16z" />
    <glyph glyph-name="notelement" unicode="&#x2209;" horiz-adv-x="880" 
d="M192 378q-10 0 -10 -8q0 -82 30 -140l104 148h-124zM466 740q-84 0 -154 -66t-104 -164q-4 -10 8 -10h190l170 240h-110zM728 480v-21q0 -9 -2 -19q-12 -62 -28 -62h-266l-154 -216q40 -20 86 -20h350q26 -26 12 -84l-20 -36h-362q-76 0 -142 36l-52 -74q-6 -4 -18 -4
q-37 0 -60 54l58 82q-110 126 -75 310t160 309t273 125h176l76 108q10 6 18 6q30 0 52 -34l10 -22l-42 -58h90l4 -42q-12 -55 -42 -78h-138l-172 -240h204v-4q4 -4 4 -16z" />
    <glyph glyph-name="summation" unicode="&#x2211;" horiz-adv-x="1142" 
d="M-4 62q14 0 55 25t57 43l434 482q16 16 8 32q-136 340 -238 540q-14 26 -41 48t-43 22q-6 0 -2 26t14 36q92 -4 216 -4l674 12q-2 -34 -2 -302q-10 -10 -38 -10t-30 14q-22 82 -80 136t-144 54h-104q-118 0 -128 -26l214 -470q8 -40 -14 -62q-476 -490 -482 -516
q-2 -8 8 -15t120 -7h118q194 0 274 40q32 16 76 66t80 114q6 12 40 12t42 -12q-106 -204 -152 -340l-722 4l-222 -10q-6 12 1 40t11 28z" />
    <glyph glyph-name="minus" unicode="&#x2212;" horiz-adv-x="1060" 
d="M112 566h850q12 0 10 -14q-34 -134 -52 -134h-852l-8 20q34 128 52 128z" />
    <glyph glyph-name="uni2213" unicode="&#x2213;" horiz-adv-x="1026" 
d="M396 1180h630q2 0 7 -5t-1 -17q-34 -102 -54 -122h-832l-8 6q-4 6 0 15t16 49t18 55t10 17t214 2zM594 976q36 0 36 -8v-4l-74 -384q-4 -10 4 -10h358q14 0 12 -14q-12 -50 -29 -90t-25 -40h-344q-8 0 -8 -6l-72 -368q-32 -20 -118 -32h-10q-12 0 -8 14l74 382
q0 10 -10 10h-354l-8 20q30 116 42 122q4 2 8 2h342q12 0 12 12l70 364q0 10 12 14q54 16 90 16z" />
    <glyph glyph-name="radical" unicode="&#x221a;" horiz-adv-x="1168" 
d="M376 -360q-14 0 -16 10l-166 742l-166 -92q-16 10 -27 32t-7 42t52 50q224 148 320 224q14 10 32 11t20 -11q10 -110 16 -140l84 -414l566 1488l104 -14l-710 -1874q-22 -24 -55 -39t-47 -15z" />
    <glyph glyph-name="proportional" unicode="&#x221d;" horiz-adv-x="1280" 
d="M374 220q114 0 298 204q6 8 9 13t-24 69t-83 131t-126 67t-137 -72t-87 -174t27 -170t123 -68zM1136 224q20 0 10 -53t-58 -87q-68 0 -127 25t-96 60t-64 70t-43 60t-20 25h-2q-116 -118 -219 -184t-228 -66t-193 113t-38 268t163 276t272 121t221 -82t132 -168
q6 -10 10 -2q234 254 394 254q10 0 14 -37t-2 -75t-20 -38h-32q-56 0 -133 -56t-127 -111t-48 -58t21 -47q26 -61 78 -134q52 -74 135 -74z" />
    <glyph glyph-name="infinity" unicode="&#x221e;" horiz-adv-x="1614" 
d="M850 598q4 0 6 2q232 252 434 252q130 0 202 -111t42 -266t-165 -276t-289 -121q-68 0 -127 25t-95 62t-62 73t-41 61t-19 25h-2q-118 -120 -219 -185t-226 -65t-193 113t-38 268t163 276t271 121t220 -82t132 -168q2 -4 6 -4zM454 704q-76 0 -143 -72t-87 -174t26 -170
t122 -68q114 0 298 204q6 8 10 12t-5 22t-13 28t-14 32t-18 36t-21 36t-25 36q-33 39 -63 58q-29 20 -67 20zM1212 714q-112 0 -304 -222q-2 -2 0 -5t15 -32t23 -46t28 -48q28 -48 73 -91q46 -44 108 -44q61 0 126 70t85 172t-27 174t-127 72z" />
    <glyph glyph-name="notequal" unicode="&#x2260;" horiz-adv-x="1018" 
d="M130 646h466l138 194q10 6 18 6q28 0 50 -34l12 -22l-104 -144h256q8 0 2 -30t-40 -102l-12 -12h-310l-100 -140h396q14 0 14 -4v-6q-12 -58 -29 -96t-25 -38h-458l-132 -186q-6 -4 -20 -4q-37 0 -60 54l98 136h-258l-8 20q31 115 44 122q4 2 8 2h316l100 140h-404
l-10 20q34 124 52 124z" />
    <glyph glyph-name="lessequal" unicode="&#x2264;" horiz-adv-x="944" 
d="M948 980q0 -48 -10 -52l-662 -312l550 -318q0 -26 -17 -76t-28 -50t-17 4l-640 362q-12 8 -23 29t-11 46t27 53t53 42l754 350q24 -30 24 -78zM764 142q16 0 16 -33t-36 -101h-730q-14 0 -14 42t42 92h722z" />
    <glyph glyph-name="greaterequal" unicode="&#x2265;" horiz-adv-x="912" 
d="M22 249q0 47 10 53l662 312l-550 318q0 26 17 76t28 50t17 -4l640 -362q12 -8 23 -29t11 -46t-27 -53t-53 -42l-754 -350q-24 30 -24 77zM760 142q16 0 16 -40t-38 -94h-728q-14 0 -14 40t40 94h724z" />
    <glyph glyph-name="propersubset" unicode="&#x2282;" horiz-adv-x="874" 
d="M464 740q-90 0 -172 -85t-106 -216t28 -214t148 -83h350q26 -26 12 -84l-20 -36h-362q-154 0 -237 125t-50 294t158 294t273 125h380l4 -42q-12 -55 -42 -78h-364z" />
    <glyph glyph-name="f_f" unicode="&#xf100;" horiz-adv-x="1892" 
d="M1080 1264q-76 0 -151 -99t-95 -217l-14 -82v-2q0 -6 8 -6h316q12 0 24 63t36 111t24 60t-2 20q-18 152 -146 152zM1150 1374q104 0 236 -102q138 118 334 118q128 0 186 -66q0 -200 -118 -200q-52 0 -78 78t-72 78q-64 0 -139 -108t-95 -224l-14 -82v-2q0 -8 6 -8h256
q20 0 20 -34t-28 -82h-266q-10 0 -14 -12l-108 -554q-30 -154 -101 -271t-158 -177q-168 -116 -317 -116q-60 0 -124 21t-100 53q-28 -38 -127 -79t-173 -41t-124 25t-58 53q0 174 112 174q50 0 76 -71t74 -71q72 0 114 91t70 239l142 722v4q0 10 -8 10h-118q-10 0 -10 21
t37 59t77 38h34q12 0 18 32q44 224 200 354t358 130zM784 -280q146 0 216 338l132 668v4q0 10 -8 10h-316q-10 0 -14 -12l-116 -608q-30 -152 -104 -284q16 -38 83 -77t127 -39z" />
    <glyph glyph-name="f_i" unicode="&#xf101;" horiz-adv-x="1532" 
d="M1400 777q0 -29 -45 -265t-50 -252t-5 -36q0 -60 40 -60q14 0 39 28t43 57t20 29q12 0 34 -19t28 -39q-30 -74 -108 -156t-184 -82q-66 0 -108 49t-42 143q0 14 10 74l70 376q4 12 4 32q0 84 -110 84h-226q-10 0 -14 -12l-118 -608q-30 -156 -93 -271t-139 -174
q-143 -111 -292 -111q-72 0 -122 25t-58 53q0 174 112 174q50 0 76 -71t74 -71q72 0 114 91t70 239l144 722v4q0 10 -8 10h-118q-10 0 -10 21t37 60t77 39h34q12 0 18 32q44 226 197 362t370 136t291 -134q0 -176 -138 -176q-26 0 -40 23t-30 62t-36 63q-46 52 -138 52
q-66 0 -139 -101t-95 -229l-14 -82v-2q0 -8 6 -8h216l314 18q10 0 26 -35t16 -64z" />
    <glyph glyph-name="f_f_i" unicode="&#xf102;" horiz-adv-x="2106" 
d="M1228 1092q0 12 -2 20q-18 152 -146 152q-76 0 -151 -99t-95 -217l-14 -82v-2q0 -6 8 -6h316q12 0 24 63t36 111t24 60zM784 -280q146 0 216 338l132 668v4q0 10 -8 10h-316q-10 0 -14 -12l-116 -608q-30 -152 -104 -284q16 -38 83 -77t127 -39zM1974 777q0 -29 -45 -265
t-50 -252t-5 -36q0 -60 40 -60q14 0 39 28t43 57t20 29q12 0 34 -19t28 -39q-30 -74 -108 -156t-184 -82q-66 0 -108 49t-42 143q0 14 10 74l70 376q4 12 4 32q0 84 -110 84h-232q-10 0 -14 -12l-108 -554q-30 -154 -101 -271t-158 -177q-168 -116 -317 -116q-60 0 -124 21
t-100 53q-28 -38 -127 -79t-173 -41t-124 25t-58 53q0 174 112 174q50 0 76 -71t74 -71q72 0 114 91t70 239l142 722v4q0 10 -8 10h-118q-10 0 -10 21t37 59t77 38h34q12 0 18 32q44 224 200 354t358 130q104 0 236 -102q138 118 332 118q230 0 308 -134q0 -176 -138 -176
q-24 0 -38 21t-25 50t-28 58t-56 50t-101 21t-139 -108t-97 -224l-14 -82v-2q0 -8 6 -8l222 2l314 18q10 0 26 -35t16 -64z" />
    <glyph glyph-name="f_l" unicode="&#xf103;" horiz-adv-x="1552" 
d="M810 740q-10 0 -14 -12l-118 -608q-30 -156 -93 -271t-139 -174q-143 -111 -292 -111q-72 0 -122 25t-58 53q0 174 112 174q50 0 76 -71t74 -71q72 0 114 91t70 239l144 722v4q0 10 -8 10h-118q-10 0 -10 21t37 60t77 39h34q12 0 18 32q44 226 197 362t353 136
q46 0 111 -13t85 -13q118 0 172 26h10q6 0 12 -13t6 -21q-36 -78 -58 -188l-178 -912q-4 -12 -4 -32q0 -60 40 -60q14 0 39 28t43 57t20 29q12 0 34 -19t28 -39q-30 -74 -108 -156t-184 -82q-66 0 -108 49t-42 143q0 26 8 72l164 842q8 38 8 58q0 37 -25 79q-33 55 -147 55
q-66 0 -139 -101t-95 -229l-14 -82v-2q0 -8 6 -8h256q20 0 20 -35t-28 -83h-266z" />
    <glyph glyph-name="f_f_l" unicode="&#xf104;" horiz-adv-x="2122" 
d="M1910 1364q118 0 172 26h10q6 0 12 -13t6 -21q-36 -78 -58 -188l-178 -912q-4 -12 -4 -32q0 -60 40 -60q14 0 39 28t43 57t20 29q12 0 34 -19t28 -39q-30 -74 -108 -156t-184 -82q-66 0 -108 49t-42 143q0 26 8 72l164 842q8 38 8 58q0 37 -25 79q-33 55 -147 55
q-66 0 -139 -101t-95 -229l-14 -82v-2q0 -8 6 -8h256q20 0 20 -35t-28 -83h-266q-10 0 -14 -12l-110 -554q-24 -126 -77 -227q-91 -174 -249 -264q-128 -73 -250 -73q-60 0 -124 21t-100 53q-28 -38 -127 -79t-173 -41t-124 25t-58 53q0 174 112 174q50 0 76 -71t74 -71
q72 0 114 91t70 239l142 722v4q0 10 -8 10h-118q-10 0 -10 21t37 59t77 38h34q12 0 18 32q44 224 200 354t358 130q104 0 236 -102q138 118 332 118q58 0 116 -13t76 -13zM1228 1092q0 12 -2 20q-18 152 -146 152q-76 0 -151 -99t-95 -217l-14 -82v-2q0 -6 8 -6h316
q12 0 24 63t36 111t24 60zM784 -280q146 0 216 338l132 668v4q0 10 -8 10h-316q-10 0 -14 -12l-116 -608q-30 -152 -104 -284q16 -38 83 -77t127 -39z" />
    <glyph glyph-name="f_b" unicode="&#xf105;" horiz-adv-x="1940" 
d="M1070 1280q-66 0 -139 -101t-95 -229l-14 -82v-2q0 -8 6 -8h256q20 0 20 -35t-28 -83h-266q-10 0 -14 -12l-118 -608q-30 -156 -93 -271t-139 -174q-143 -111 -292 -111q-72 0 -122 25t-58 53q0 174 112 174q50 0 76 -71t74 -71q72 0 114 91t70 239l144 722v4q0 10 -8 10
h-118q-10 0 -10 21t37 60t77 39h34q12 0 18 32q44 226 197 362t353 136q46 0 111 -13t85 -13q118 0 172 26h10q6 0 12 -13t6 -21q-36 -78 -58 -188l-90 -464q-4 -12 4 -12t16 8q82 98 147 148t146 50t143 -55t62 -187t-60 -262t-149 -219t-191 -142t-204 -53t-168 58
t-66 152q0 54 10 112l152 786q8 38 8 67t-29 77t-143 48zM1590 726q-68 0 -155 -116t-107 -230l-16 -90q-16 -92 -16 -110q0 -90 52 -90q68 0 141 98t117 226t44 220t-60 92z" />
    <glyph glyph-name="f_f_b" unicode="&#xf106;" horiz-adv-x="2508" 
d="M1228 1092q0 12 -2 20q-18 152 -146 152q-76 0 -151 -99t-95 -217l-14 -82v-2q0 -6 8 -6h316q12 0 24 63t36 111t24 60zM784 -280q146 0 216 338l132 668v4q0 10 -8 10h-316q-10 0 -14 -12l-116 -608q-30 -152 -104 -284q16 -38 83 -77t127 -39zM1640 1280
q-66 0 -139 -101t-95 -229l-14 -82v-2q0 -8 6 -8h256q20 0 20 -35t-28 -83h-266q-10 0 -14 -12l-110 -554q-24 -126 -77 -227q-91 -174 -249 -264q-128 -73 -250 -73q-60 0 -124 21t-100 53q-28 -38 -127 -79t-173 -41t-124 25t-58 53q0 174 112 174q50 0 76 -71t74 -71
q72 0 114 91t70 239l142 722v4q0 10 -8 10h-118q-10 0 -10 21t37 59t77 38h34q12 0 18 32q44 224 200 354t358 130q104 0 236 -102q138 118 332 118q58 0 116 -13t76 -13q118 0 172 26h10q6 0 12 -13t6 -21q-38 -78 -60 -188l-90 -464q-4 -12 4 -12t16 8q82 98 147 148
t146 50t143 -55t62 -187t-60 -262t-149 -219t-191 -142t-204 -53t-168 58t-66 152q0 54 10 112l152 786q10 46 10 71t-29 73t-143 48zM2158 726q-68 0 -155 -116t-107 -230l-16 -90q-16 -92 -16 -110q0 -90 52 -90q68 0 141 98t117 226t44 220t-60 92z" />
    <glyph glyph-name="f_k" unicode="&#xf107;" horiz-adv-x="1984" 
d="M1584 752q-78 0 -152 -98t-74 -148q0 -24 81 -24t150 46t69 138q0 30 -21 58t-53 28zM1144 1390q46 0 111 -13t85 -13q118 0 172 26h10q6 0 12 -13t6 -21q-38 -78 -58 -188l-90 -476q0 -8 2 -8t8 14q92 200 266 200q94 0 167 -50t73 -134q0 -118 -105 -208t-209 -102
q36 -94 90 -183t93 -89t67 40q10 14 23 35t16 24t26 3t41 -30q-78 -212 -262 -212q-66 0 -113 27t-105 95t-116 226l-18 52l-2 2q-2 0 -2 -2l-76 -392q-34 -16 -101 -16t-131 16l210 1088q8 38 8 58q0 37 -25 79q-33 55 -147 55q-66 0 -139 -101t-95 -229l-14 -82v-2
q0 -8 6 -8h256q20 0 20 -35t-28 -83h-266q-10 0 -14 -12l-118 -608q-30 -156 -93 -271t-139 -174q-143 -111 -292 -111q-72 0 -122 25t-58 53q0 174 112 174q50 0 76 -71t74 -71q72 0 114 91t70 239l144 722v4q0 10 -8 10h-118q-10 0 -10 21t37 60t77 39h34q12 0 18 32
q44 226 197 362t353 136z" />
    <glyph glyph-name="f_f_k" unicode="&#xf108;" horiz-adv-x="2554" 
d="M1228 1092q0 12 -2 20q-18 152 -146 152q-76 0 -151 -99t-95 -217l-14 -82v-2q0 -6 8 -6h316q12 0 24 63t36 111t24 60zM784 -280q146 0 216 338l132 668v4q0 10 -8 10h-316q-10 0 -14 -12l-116 -608q-30 -152 -104 -284q16 -38 83 -77t127 -39zM2154 752q-78 0 -152 -98
t-74 -148q0 -24 82 -24t150 46t68 138q0 30 -21 58t-53 28zM1640 1280q-66 0 -139 -101t-95 -229l-14 -82v-2q0 -8 6 -8h256q20 0 20 -35t-28 -83h-266q-10 0 -14 -12l-110 -554q-24 -126 -77 -227q-91 -174 -249 -264q-128 -73 -250 -73q-60 0 -124 21t-100 53
q-28 -38 -127 -79t-173 -41t-124 25t-58 53q0 174 112 174q50 0 76 -71t74 -71q72 0 114 91t70 239l142 722v4q0 10 -8 10h-118q-10 0 -10 21t37 59t77 38h34q12 0 18 32q44 224 200 354t358 130q104 0 236 -102q138 118 332 118q58 0 116 -13t76 -13q118 0 172 26h10
q6 0 12 -13t6 -21q-38 -78 -58 -188l-90 -476q0 -8 2 -8t8 14q92 200 266 200q94 0 167 -50t73 -134q0 -118 -105 -208t-209 -102q36 -94 90 -183t93 -89t67 40q10 14 23 35t16 24t26 3t41 -30q-78 -212 -262 -212q-66 0 -113 27t-105 95t-116 226l-18 52l-2 2q-2 0 -2 -2
l-76 -392q-34 -16 -101 -16t-131 16l210 1088q8 38 8 67t-29 77t-143 48z" />
    <glyph glyph-name="f_h" unicode="&#xf109;" horiz-adv-x="1986" 
d="M1677 898q71 0 112 -64t41 -140t-18 -166l-50 -272q-4 -12 -4 -32q0 -60 40 -60q14 0 39 28t43 57t20 29q12 0 34 -19t28 -39q-30 -74 -108 -156t-184 -82q-60 0 -105 45t-45 147q0 46 36 206t36 210t-12 71t-44 21q-52 0 -130 -165t-122 -371l-30 -146q-40 -12 -115 -12
t-115 12l210 1088q8 42 8 60q0 35 -25 77q-33 55 -147 55q-66 0 -139 -101t-95 -229l-14 -82v-2q0 -8 6 -8h256q20 0 20 -35t-28 -83h-266q-10 0 -14 -12l-118 -608q-30 -156 -93 -271t-139 -174q-143 -111 -292 -111q-72 0 -122 25t-58 53q0 174 112 174q50 0 76 -71
t74 -71q72 0 114 91t70 239l144 722v4q0 10 -8 10h-118q-10 0 -10 21t37 60t77 39h34q12 0 18 32q44 226 197 362t353 136q46 0 111 -13t85 -13q118 0 172 26h10q6 0 12 -13t6 -21q-36 -78 -58 -188q-106 -540 -106 -546l2 -2h2q88 170 157 224t140 54z" />
    <glyph glyph-name="f_f_h" unicode="&#xf10a;" horiz-adv-x="2556" 
d="M1228 1092q0 12 -2 20q-18 152 -146 152q-76 0 -151 -99t-95 -217l-14 -82v-2q0 -6 8 -6h316q12 0 24 63t36 111t24 60zM784 -280q146 0 216 338l132 668v4q0 10 -8 10h-316q-10 0 -14 -12l-116 -608q-30 -152 -104 -284q16 -38 83 -77t127 -39zM2247 898q71 0 112 -64
t41 -140t-18 -166l-50 -272q-4 -12 -4 -32q0 -60 40 -60q14 0 39 28t43 57t20 29q12 0 34 -19t28 -39q-30 -74 -108 -156t-184 -82q-60 0 -105 45t-45 147q0 46 36 206t36 210t-12 71t-44 21q-52 0 -130 -165t-122 -371l-30 -146q-40 -12 -116 -12t-114 12l210 1088
q8 42 8 60q0 35 -25 77q-33 55 -147 55q-66 0 -139 -101t-95 -229l-14 -82v-2q0 -8 6 -8h256q20 0 20 -35t-28 -83h-266q-10 0 -14 -12l-110 -554q-24 -126 -77 -227q-91 -174 -249 -264q-128 -73 -250 -73q-60 0 -124 21t-100 53q-28 -38 -127 -79t-173 -41t-124 25t-58 53
q0 174 112 174q50 0 76 -71t74 -71q72 0 114 91t70 239l142 722v4q0 10 -8 10h-118q-10 0 -10 21t37 59t77 38h34q12 0 18 32q44 224 200 354t358 130q104 0 236 -102q138 118 332 118q58 0 116 -13t76 -13q118 0 172 26h10q6 0 12 -13t6 -21q-6 -18 -27 -71t-33 -117
q-104 -530 -104 -546l2 -2h2q88 170 157 224t140 54z" />
    <glyph glyph-name="f_j" unicode="&#xf10b;" horiz-adv-x="1464" 
d="M1400 777q0 -29 -20 -131l-78 -406q-54 -286 -172 -444q-58 -76 -166 -146t-162 -86q-32 20 -32 44t6 30q134 118 188 226t98 336l80 424q4 16 4 32q0 84 -110 84h-226q-10 0 -14 -12l-118 -608q-30 -156 -93 -271t-139 -174q-143 -111 -292 -111q-72 0 -122 25t-58 53
q0 174 112 174q50 0 76 -71t74 -71q72 0 114 91t70 239l144 722v4q0 10 -8 10h-118q-10 0 -10 21t37 60t77 39h34q12 0 18 32q44 226 197 362t370 136t291 -134q0 -176 -138 -176q-26 0 -40 23t-30 62t-36 63q-46 52 -138 52q-66 0 -139 -101t-95 -229l-14 -82v-2q0 -8 6 -8
h216l314 18q10 0 26 -35t16 -64z" />
    <glyph glyph-name="f_f_j" unicode="&#xf10c;" horiz-adv-x="2038" 
d="M1228 1092q0 12 -2 20q-18 152 -146 152q-76 0 -151 -99t-95 -217l-14 -82v-2q0 -6 8 -6h316q12 0 24 63t36 111t24 60zM784 -280q146 0 216 338l132 668v4q0 10 -8 10h-316q-10 0 -14 -12l-116 -608q-30 -152 -104 -284q16 -38 83 -77t127 -39zM1974 777q0 -29 -20 -131
l-78 -406q-54 -286 -172 -444q-58 -76 -166 -146t-162 -86q-32 20 -32 44t6 30q134 118 188 226t98 336l80 424q4 16 4 32q0 84 -110 84h-232q-10 0 -14 -12l-108 -554q-30 -154 -101 -271t-158 -177q-168 -116 -317 -116q-60 0 -124 21t-100 53q-28 -38 -127 -79t-173 -41
t-124 25t-58 53q0 174 112 174q50 0 76 -71t74 -71q72 0 114 91t70 239l142 722v4q0 10 -8 10h-118q-10 0 -10 21t37 59t77 38h34q12 0 18 32q44 224 200 354t358 130q104 0 236 -102q138 118 332 118q230 0 308 -134q0 -176 -138 -176q-24 0 -38 21t-25 50t-28 58t-56 50
t-101 21t-139 -108t-97 -224l-14 -82v-2q0 -8 6 -8l222 2l314 18q10 0 26 -35t16 -64z" />
    <glyph glyph-name="T_h" unicode="&#xf10d;" horiz-adv-x="1924" 
d="M1460 1390q6 0 12 -13t6 -21q-46 -124 -62 -206q-102 -520 -102 -528l2 -2h2q88 170 157 224t140 54t112 -64t41 -140t-18 -166l-50 -272q-4 -12 -4 -32q0 -60 40 -60q14 0 39 28t43 57t20 29q12 0 34 -19t28 -39q-30 -74 -108 -156t-184 -82q-60 0 -105 45t-45 147
q0 46 36 206t36 210t-12 71t-44 21q-52 0 -130 -165t-122 -371l-30 -146q-40 -12 -116 -12t-114 12l210 1088q4 16 4 28q0 62 -34 80t-125 18t-173 -12t-86 -24q-28 -62 -50 -178l-140 -722q-20 -104 -20 -160q0 -20 39 -39t57 -19q4 0 4 -24t-14 -44l-254 16
q-12 0 -252 -16q-2 2 -2 14t4 33t8 21q22 0 65 13t53 31q32 52 50 166l140 724q26 134 26 167t-26 43t-124 10q-154 0 -238 -196q-4 -10 -32 -10t-38 14l98 326q76 -22 124 -22l404 -12q282 0 397 7t249 31t164 38h10z" />
    <glyph glyph-name="uniF730" unicode="&#xf730;" horiz-adv-x="972" 
d="M660 898q182 0 284 -133t66 -323t-189 -323t-336 -133t-284 133t-65 323t189 323t335 133zM625 762q-81 0 -150 -89t-94 -219t17 -231t123 -101t149 89t93 219t-16 231t-122 101z" />
    <glyph glyph-name="uniF731" unicode="&#xf731;" horiz-adv-x="590" 
d="M72 66q20 0 66 17t52 33q34 80 44 152l64 328q22 102 14 168q-4 40 -64 40l-40 -2q-14 0 1 58q1 4 3 8t4 10q203 4 494 46q10 -16 4 -45t-12 -29q-20 -2 -66 -24t-52 -36q-28 -82 -40 -164l-62 -328q-24 -118 -22 -182q2 -14 42 -32t54 -18q8 0 0 -34t-12 -40
q-192 16 -243 16t-243 -16q-6 8 0 41t14 33z" />
    <glyph glyph-name="uniF732" unicode="&#xf732;" horiz-adv-x="848" 
d="M467 760q-59 0 -107 -27t-78 -58t-53 -58t-27 -27q-16 0 -25 21t-4 41t7 22q56 76 182 164t246 88t190 -77t51 -176t-103 -166t-388 -281q-6 -6 -6 -14t6 -8h260q92 0 137 72q5 8 23 38l24 40q6 10 34 10t38 -16l-148 -348l-286 2q-366 -2 -380 -2q-14 6 -6 48
q306 266 388 356q118 124 131 195t-17 116t-89 45z" />
    <glyph glyph-name="uniF733" unicode="&#xf733;" horiz-adv-x="828" 
d="M631 926q91 0 149 -48t37 -154t-94 -182q-72 -75 -159 -148q74 0 165 -54q47 -28 72 -84t11 -130q-26 -134 -145 -251t-265 -179t-246 -62t-168 34q-22 76 42 134q38 34 72 34t52 -25t39 -50t59 -25q92 0 180 88t111 209t-16 184t-131 63q-22 0 -102 -24q-18 10 -9 46
t13 44q246 96 286 298q12 62 -16 100t-62 38q-56 0 -96 -30t-60 -49t-28 -19t-17 21t3 33q80 90 156 139t167 49z" />
    <glyph glyph-name="uniF734" unicode="&#xf734;" horiz-adv-x="910" 
d="M566 164l74 374q2 4 -1 11t-5 7l-382 -380q-2 -2 -2 -6q-4 -18 10 -18l288 -2q16 6 18 14zM778 12q-10 0 -14 -16l-66 -346q-48 -18 -142 -18t-88 26l66 342q0 10 -14 10l-446 2q-22 30 -10 96q124 126 391 387t401 405q28 28 46 28t31 -4t9 -16l-144 -740q-2 -12 14 -16
h60q26 0 4 -120q0 -10 -20 -20h-78z" />
    <glyph glyph-name="uniF735" unicode="&#xf735;" horiz-adv-x="702" 
d="M444 702h-54q-20 -2 -26 -18l-32 -96q-6 -18 24 -26q156 -34 253 -161t69 -268q-54 -273 -255 -386t-449 -113q-4 18 0 40t24 22q102 0 231 82q63 40 114 114t69 166q58 308 -212 356q-18 4 -26 22l162 466q8 12 16 12q424 0 468 10q10 -20 -3 -95t-45 -121
q-162 -6 -328 -6z" />
    <glyph glyph-name="uniF736" unicode="&#xf736;" horiz-adv-x="934" 
d="M556 688q0 16 35 31t77 15q100 0 172 -88t72 -210q0 -172 -145 -310t-300 -138t-246 89t-91 258t136 387t408 397q150 99 330 171q10 -4 16 -27t4 -41q-394 -168 -558 -554q-84 -198 -84 -428q0 -148 98 -148q76 0 128 113t52 236t-30 153t-72 42q-2 10 -2 52z" />
    <glyph glyph-name="uniF737" unicode="&#xf737;" horiz-adv-x="898" 
d="M139 -366q-15 0 -32 19q-22 25 -5 59l698 998h-406q-94 0 -174 -158q-54 -6 -68 12q30 85 81 196q51 110 59 132t40 22h566l126 6q14 0 7 -32t-73 -120l-798 -1132q-6 -2 -21 -2z" />
    <glyph glyph-name="uniF738" unicode="&#xf738;" horiz-adv-x="860" 
d="M674 1266q140 0 235 -77t69 -211q-32 -164 -262 -296q-4 -2 -5 -7t1 -7t20 -18t28 -26t32 -33t33 -40t29 -46t22 -51t11 -55t-3 -59q-30 -156 -169 -254t-297 -98t-251 81t-59 259t276 302q12 6 5 13t-28 29t-29 33t-26 35q-22 29 -39 90t1 142q24 128 145 211t261 83z
M621 768q11 0 15 4q72 60 98 194q36 194 -80 194q-108 0 -142 -172q-10 -54 5 -98t31 -61t39 -39t34 -22zM448 92q64 0 111 51t61 125q24 128 -134 272q-12 12 -21 12t-13 -2q-60 -32 -98 -232q-16 -90 7 -158t87 -68z" />
    <glyph glyph-name="uniF739" unicode="&#xf739;" horiz-adv-x="902" 
d="M528 210q0 -16 -34 -30t-78 -14q-100 0 -172 88t-72 210q0 172 145 310t300 138t246 -89t91 -245q0 -108 -56 -242t-159 -271t-276 -255t-383 -176q-20 0 -20 68q192 82 333 207t225 323t84 428q0 148 -98 148q-76 0 -128 -113t-52 -236t30 -153t72 -42q2 -10 2 -54z" />
    <glyph glyph-name="gravecomb.cap" unicode="&#xf890;" horiz-adv-x="450" 
d="M783 1462q-25 0 -204 62t-179 100t46 56t88 18t77 -20t89 -62t90 -76t36 -42t-9 -22t-34 -14z" />
    <glyph glyph-name="acutecomb.cap" unicode="&#xf891;" horiz-adv-x="450" 
d="M345 1462q-25 0 -34 14t-9 22t36 42q167 158 250 158q48 0 94 -18t46 -56t-179 -100t-204 -62z" />
    <glyph glyph-name="uni0302.cap" unicode="&#xf892;" horiz-adv-x="706" 
d="M876 1404q-18 0 -99 45t-127 79q-62 -34 -162 -79t-116 -45q-24 0 -14 38q64 38 159 112t125 103t40 29q14 0 55 -54l39 -52q80 -96 128 -138q-10 -38 -28 -38z" />
    <glyph glyph-name="uni030A.cap" unicode="&#xf893;" horiz-adv-x="572" 
d="M644 1714q76 0 118 -58t28 -138t-80 -139t-141 -59t-119 58t-29 139t81 139t142 58zM586 1410q42 0 76 31t44 77t-13 77t-65 31t-76 -31t-44 -77t13 -77t65 -31z" />
    <glyph glyph-name="tildecomb.cap" unicode="&#xf894;" horiz-adv-x="1222" 
d="M586 1478q-14 0 -5 48t51 96q90 102 173 102t177 -68t164 -68q36 0 91 57t65 57q16 0 7 -47t-53 -99q-84 -100 -168 -100t-177 68t-165 68q-34 0 -93 -57t-67 -57z" />
    <glyph glyph-name="uni0304.cap" unicode="&#xf895;" horiz-adv-x="786" 
d="M444 1608h534q24 0 -14 -93q-12 -29 -28 -45h-539q-1 0 -4 5t1 17q26 116 50 116z" />
    <glyph glyph-name="uni0306.cap" unicode="&#xf896;" horiz-adv-x="466" 
d="M530 1530q40 0 90 29t67 50t24 17t21 -26t11 -28t-5 -11t-4 -7q-108 -144 -228 -144t-172 144q-2 4 -2 14t27 37t35 17q16 -34 56 -63t80 -29z" />
    <glyph glyph-name="uni0327.cap" unicode="&#xf897;" horiz-adv-x="812" 
d="M472 -64q48 0 77 -37t19 -83q-16 -84 -82 -134t-151 -50t-113 38q0 20 6 46t18 26q2 0 39 -17t65 -17q86 0 98 67t-40 67q-34 0 -68 -14q-4 0 -15 16t-7 22q16 20 47 69t39 61h68l-40 -62q26 2 40 2z" />
    <glyph glyph-name="uni0307.cap" unicode="&#xf898;" horiz-adv-x="570" 
d="M621 1748q57 0 89 -43t20 -105t-61 -105t-106 -43t-89 43t-20 105t61 105t106 43z" />
    <glyph glyph-name="uni0323.cap" unicode="&#xf899;" horiz-adv-x="570" 
d="M268 -64q56 0 88 -43t20 -105t-61 -105t-105 -43t-88 43t-20 105t61 105t105 43z" />
    <glyph glyph-name="uni0305.cap" unicode="&#xf89a;" horiz-adv-x="1052" 
d="M312 1612h1082q12 0 5 -39t-21 -68t-19 -32t-7 -5h-1082l-8 20q0 10 19 67t31 57z" />
    <glyph glyph-name="hookabovecomb.cap" unicode="&#xf89b;" horiz-adv-x="334" 
d="M452 1272q-60 0 -76 -72q-8 -44 -82 -44q-14 0 -25 9t-9 25q14 72 81 115t133 43t96 -33t20 -84t-45 -90t-92 -62t-63 -49l-2 -16q-2 -4 -29 -11t-47 -7q-18 14 -12 34q10 58 102 98q72 32 83 88t-33 56z" />
    <glyph glyph-name="uni030B.cap" unicode="&#xf89c;" horiz-adv-x="864" 
d="M728 1624q0 -38 -179 -100t-204 -62t-34 14t-9 22t36 42q167 158 250 158q48 0 94 -18t46 -56zM1118 1624q0 -38 -179 -100t-204 -62t-34 14t-9 22t36 42q167 158 250 158q48 0 94 -18t46 -56z" />
    <glyph glyph-name="uni0308.cap" unicode="&#xf89d;" horiz-adv-x="858" 
d="M561 1728q57 0 89 -43t20 -105t-61 -105t-106 -43t-89 43t-20 105t61 105t106 43zM989 1728q57 0 89 -43t20 -105t-61 -105t-106 -43t-89 43t-20 105t61 105t106 43z" />
    <glyph glyph-name="uni0308.narrow" unicode="&#xf89e;" horiz-adv-x="772" 
d="M390 1184q56 0 89 -36t33 -96t-47 -111t-103 -51t-89 36t-33 95t47 111t103 52zM774 1180q56 0 89 -36t33 -95t-47 -111t-103 -52t-89 36t-33 96t47 111t103 51z" />
    <glyph glyph-name="uni030C.cap" unicode="&#xf89f;" horiz-adv-x="640" 
d="M872 1686q22 0 12 -38q-48 -32 -168 -140l-92 -86q-22 -18 -33 -18t-26 30t-69 101t-96 113q10 38 26 38t87 -45t113 -79q56 34 143 79t103 45z" />
    <glyph glyph-name="zero.sc" 
d="M632 1250q170 0 261 -185t41 -443t-214 -443t-334 -185t-265 185t-45 443t218 443t338 185zM614 1150q-82 0 -156 -144t-120 -381t-23 -382t95 -145q160 0 266 536q46 236 30 376t-92 140z" />
    <glyph glyph-name="one.sc" 
d="M231 8q-85 0 -245 -16q-2 2 -2 35t16 33q22 0 69 17t55 35q16 34 32 114l132 678q8 32 8 66t-26 34t-142 -66q-24 14 -18 48q0 16 8 24q448 276 478 276q18 0 18 -38q-28 -58 -54 -188l-156 -808q-14 -78 -14 -112t29 -57t69 -23q2 0 2 -20t-14 -48q-160 16 -245 16z" />
    <glyph glyph-name="two.sc" 
d="M-16 35q0 19 2 31q220 212 419 473t199 427q0 68 -28 110t-87 42t-118 -43t-96 -85t-39 -42q-12 0 -20 16t-8 34l8 34q56 74 177 163t228 89t180 -70t73 -192q0 -75 -26 -150q-26 -74 -60 -124t-56 -83t-71 -84t-73 -76t-84 -77t-80 -69t-84 -70t-72 -60t-8 -16t6 -9h318
q67 0 101 36t51 70q16 34 22 44t39 10t43 -16l-148 -348l-286 2q-398 -2 -412 -2q-10 16 -10 35z" />
    <glyph glyph-name="three.sc" 
d="M620 1284q76 0 134 -59t36 -171q-14 -68 -48 -124t-66 -86t-102 -88q72 0 152 -94t54 -231t-122 -239t-217 -151t-252 -49t-195 64q-6 16 -6 58t30 68t67 26t94 -56t105 -56q88 0 149 72t86 198t-14 199t-121 73t-144 -10q-10 18 -2 50t12 40q260 44 312 284
q14 62 -16 102t-80 40t-108 -24t-94 -48t-40 -24q-16 0 -16 33t6 39q72 82 165 123t241 41z" />
    <glyph glyph-name="four.sc" 
d="M598 904q-6 0 -10 -4l-376 -388q-4 -4 -4 -14t10 -10h288q18 6 22 18l72 384q4 14 -2 14zM870 1292q18 0 28 -7t8 -17l-150 -764q-4 -16 14 -16h60q16 0 16 -33t-24 -87l-8 -20h-76q-10 0 -14 -16l-64 -324q-48 -18 -141 -18t-87 26l62 320q0 10 -16 10l-446 2
q-14 18 -14 42t6 54l796 816q32 32 50 32z" />
    <glyph glyph-name="five.sc" 
d="M472 844q144 0 248 -111t76 -263q-40 -206 -212 -342t-386 -136q-138 0 -202 64q-6 16 -6 58t30 68t67 26t94 -56t105 -56q96 0 157 84t84 200t-24 196t-135 80t-136 -14t-52 -14q-16 0 -28 28l52 156q159 464 174 464q430 0 474 10q10 -20 -3 -95t-45 -121h-170
q-154 2 -193 -2t-45 -22l-78 -222q80 20 154 20z" />
    <glyph glyph-name="six.sc" 
d="M462 688q0 16 35 31t77 15q100 0 172 -88t72 -210q0 -172 -145 -310t-300 -138t-246 89t-91 258t136 387t408 397q150 99 330 171q10 -4 16 -27t4 -41q-394 -168 -558 -554q-84 -198 -84 -428q0 -148 98 -148q76 0 128 113t52 236t-30 153t-72 42q-2 10 -2 52z" />
    <glyph glyph-name="seven.sc" 
d="M958 1218q0 -18 -78 -134l-792 -1104q-6 -2 -21 -2t-31 16t-16 35t8 27l694 970h-440q-94 0 -174 -158l-22 -2q-34 0 -46 14q30 85 81 196q51 110 59 132t40 22h602l126 6q10 0 10 -18z" />
    <glyph glyph-name="eight.sc" 
d="M579 1266q137 0 229 -63t92 -175q0 -192 -266 -346q-4 -2 -4 -7t2 -7l20 -18q69 -63 90 -95q20 -33 42 -71t22 -102q0 -144 -141 -269t-329 -125q-138 0 -229 62t-91 192q0 242 286 388q12 6 7 12t-34 36q-33 34 -65 86q-32 53 -32 132q0 172 132 271t269 99zM572 1160
q-56 0 -91 -49q-53 -74 -53 -171q0 -37 9 -57q9 -19 12 -27t17 -23t16 -19t19 -20t23 -22t15 -6t15 6q106 140 106 276q0 112 -88 112zM370 92q62 0 104 45q68 73 68 171q0 60 -21 92t-27 43t-23 29t-22 24t-24 24t-28 27t-14 9t-17 -8q-30 -22 -65 -121t-35 -183
q0 -152 104 -152z" />
    <glyph glyph-name="nine.sc" 
d="M466 588q0 -16 -34 -30t-78 -14q-100 0 -172 88t-72 210q0 172 145 310t300 138t246 -89t91 -258t-136 -387t-408 -397q-150 -99 -330 -171q-10 4 -16 27t-4 41q394 168 558 554q84 198 84 428q0 148 -98 148q-76 0 -128 -113t-52 -236t30 -153t72 -42q2 -10 2 -54z" />
    <glyph glyph-name="exclam.sc" 
d="M367 1284q49 0 77 -37t12 -123t-212 -682q-22 -62 -74 -62q-12 0 -12 44q6 120 28 388t35 333t55 102t91 37zM168 278q56 0 88 -42t20 -104t-60 -108t-102 -46t-88 45t-22 108t60 105t104 42z" />
    <glyph glyph-name="quotedbl.sc" 
d="M268 1396q48 0 59 -21t-1 -109q-12 -60 -62 -184t-68 -184q-8 -30 -42 -30q-12 0 -22 7t-8 19q8 80 8 151l-8 227q6 34 51 79t93 45zM576 1396q48 0 59 -21t-1 -109q-12 -60 -62 -184t-68 -184q-8 -30 -42 -30q-12 0 -22 7t-8 19q8 80 8 151l-8 227q6 34 51 79t93 45z
" />
    <glyph glyph-name="numbersign.sc" 
d="M548 622h-154l-58 -148h154zM854 756q14 0 14 -10q0 -28 -17 -76t-33 -48h-144l-58 -148h142q14 0 14 -20t-17 -67t-33 -47h-144l-102 -292q-6 -16 -68 -16t-61 7t1 9l104 292h-154l-102 -292q-6 -16 -68 -16t-61 7t1 9l104 292h-142q-14 0 -14 20t17 67t33 47h144
l58 148h-142q-14 0 -14 20t17 67t33 47h144l102 292q6 16 68 16t62 -12q-2 -2 -2 -4l-104 -292h154l102 292q6 16 68 16t62 -12q-2 -2 -2 -4l-104 -292h142z" />
    <glyph glyph-name="dollar.sc" 
d="M580 1178q-94 0 -136 -68t-42 -124t32 -102q10 -16 56 -62l128 352q-24 4 -38 4zM215 -148q-29 0 -67 32l40 110q-72 12 -176 38v52q0 122 16 266q2 20 41 20t49 -8q0 -68 30 -139t86 -105l148 414q-16 16 -49 42q-110 87 -150 148q-39 60 -39 142q0 178 149 300t307 122
q20 0 56 -4l38 106q4 12 39 12t67 -36l-40 -102q46 -14 114 -26q-22 -344 -38 -344q-42 0 -58 8q-14 4 -14 24q0 112 -56 190l-134 -366q22 -18 62 -47t76 -58q92 -74 92 -205q0 -174 -118 -302q-68 -74 -163 -114t-187 -40h-44l-44 -120q-4 -10 -33 -10zM340 92
q86 0 143 77t57 148t-74 145l-134 -370h8z" />
    </font>
</defs>
</svg>
